<?xml version="1.0" encoding="UTF-8"?>
<svg xmlns="http://www.w3.org/2000/svg" xmlns:xlink="http://www.w3.org/1999/xlink" width="481pt" height="113pt" viewBox="0 0 481 113" version="1.1">
<g id="surface1">
<path style="fill:none;stroke-width:0.884272;stroke-linecap:butt;stroke-linejoin:miter;stroke:rgb(0%,0%,0%);stroke-opacity:1;stroke-miterlimit:4;" d="M 437.437434 491.561329 C 437.437434 514.077117 407.709981 532.353483 371.080744 532.353483 C 334.457653 532.353483 304.7302 514.077117 304.7302 491.561329 C 304.7302 469.041763 334.457653 450.765397 371.080744 450.765397 C 407.709981 450.765397 437.437434 469.041763 437.437434 491.561329 Z M 437.437434 491.561329 " transform="matrix(0.635592,0,0,1.033823,-187.41064,-454.4336)"/>
<path style="fill-rule:nonzero;fill:rgb(86.273193%,0%,0%);fill-opacity:1;stroke-width:2;stroke-linecap:butt;stroke-linejoin:miter;stroke:rgb(0%,0%,0%);stroke-opacity:1;stroke-miterlimit:4;" d="M 206.431422 284.633451 C 206.431422 293.320061 199.379681 300.360903 190.70397 300.360903 C 182.017359 300.360903 174.976518 293.320061 174.976518 284.633451 C 174.976518 275.957739 182.017359 268.905999 190.70397 268.905999 C 199.379681 268.905999 206.431422 275.957739 206.431422 284.633451 Z M 206.431422 284.633451 " transform="matrix(0.3584,0,0,0.3584,-18.836584,-90.53216)"/>
<path style="fill-rule:nonzero;fill:rgb(0%,70.195007%,2.745056%);fill-opacity:1;stroke-width:2;stroke-linecap:butt;stroke-linejoin:miter;stroke:rgb(0%,0%,0%);stroke-opacity:1;stroke-miterlimit:4;" d="M 206.425663 284.632764 C 206.425663 293.319374 199.384821 300.371115 190.698211 300.371115 C 182.022499 300.371115 174.970759 293.319374 174.970759 284.632764 C 174.970759 275.957052 182.022499 268.905312 190.698211 268.905312 C 199.384821 268.905312 206.425663 275.957052 206.425663 284.632764 Z M 206.425663 284.632764 " transform="matrix(0.3584,0,0,0.3584,-54.77202,-70.09832)"/>
<path style="fill-rule:nonzero;fill:rgb(0.784302%,48.626709%,100%);fill-opacity:1;stroke-width:2;stroke-linecap:butt;stroke-linejoin:miter;stroke:rgb(0%,0%,0%);stroke-opacity:1;stroke-miterlimit:4;" d="M 206.432834 284.639436 C 206.432834 293.315147 199.381094 300.366888 190.705382 300.366888 C 182.018772 300.366888 174.97793 293.315147 174.97793 284.639436 C 174.97793 275.952825 182.018772 268.911984 190.705382 268.911984 C 199.381094 268.911984 206.432834 275.952825 206.432834 284.639436 Z M 206.432834 284.639436 " transform="matrix(0.3584,0,0,0.3584,16.041816,-69.39368)"/>
<path style="fill-rule:nonzero;fill:rgb(86.273193%,0%,0%);fill-opacity:1;stroke-width:2;stroke-linecap:butt;stroke-linejoin:miter;stroke:rgb(0%,0%,0%);stroke-opacity:1;stroke-miterlimit:4;" d="M 206.429812 284.642118 C 206.429812 293.317829 199.38897 300.36957 190.70236 300.36957 C 182.015749 300.36957 174.974908 293.317829 174.974908 284.642118 C 174.974908 275.955507 182.015749 268.914666 190.70236 268.914666 C 199.38897 268.914666 206.429812 275.955507 206.429812 284.642118 Z M 206.429812 284.642118 " transform="matrix(0.3584,0,0,0.3584,-55.476632,-25.53136)"/>
<path style="fill-rule:nonzero;fill:rgb(0.784302%,48.626709%,100%);fill-opacity:1;stroke-width:2;stroke-linecap:butt;stroke-linejoin:miter;stroke:rgb(0%,0%,0%);stroke-opacity:1;stroke-miterlimit:4;" d="M 206.430166 284.633887 C 206.430166 293.320497 199.389325 300.361339 190.702714 300.361339 C 182.016104 300.361339 174.975262 293.320497 174.975262 284.633887 C 174.975262 275.958175 182.016104 268.906435 190.702714 268.906435 C 199.389325 268.906435 206.430166 275.958175 206.430166 284.633887 Z M 206.430166 284.633887 " transform="matrix(0.3584,0,0,0.3584,14.632616,-24.12216)"/>
<path style="fill:none;stroke-width:0.884272;stroke-linecap:butt;stroke-linejoin:miter;stroke:rgb(0%,0%,0%);stroke-opacity:1;stroke-miterlimit:4;" d="M 437.436034 491.557659 C 437.434553 514.07882 407.711002 532.354533 371.084466 532.355492 C 334.45793 532.356451 304.72924 514.07732 304.727649 491.559431 C 304.73138 469.043432 334.458003 450.764446 371.084539 450.763487 C 407.708002 450.765801 437.434443 469.03977 437.436034 491.557659 Z M 437.436034 491.557659 " transform="matrix(-0.317796,-0.550438,0.895318,-0.516911,-144.72152,514.592)"/>
<path style="fill-rule:nonzero;fill:rgb(86.273193%,0%,0%);fill-opacity:1;stroke-width:2;stroke-linecap:butt;stroke-linejoin:miter;stroke:rgb(0%,0%,0%);stroke-opacity:1;stroke-miterlimit:4;" d="M 206.437205 284.6362 C 206.433693 293.317995 199.384691 300.361023 190.697447 300.36695 C 182.015653 300.363438 174.972625 293.314435 174.976137 284.632641 C 174.974199 275.960285 182.013762 268.911808 190.701006 268.905881 C 199.382801 268.909393 206.425829 275.958395 206.437205 284.6362 Z M 206.437205 284.6362 " transform="matrix(-0.1792,-0.310383,0.310383,-0.1792,86.13944,186.65176)"/>
<path style="fill-rule:nonzero;fill:rgb(0%,70.195007%,2.745056%);fill-opacity:1;stroke-width:2;stroke-linecap:butt;stroke-linejoin:miter;stroke:rgb(0%,0%,0%);stroke-opacity:1;stroke-miterlimit:4;" d="M 206.428773 284.642923 C 206.430711 293.315278 199.391148 300.363756 190.703904 300.369683 C 182.022109 300.366171 174.979081 293.317168 174.967705 284.639363 C 174.971217 275.957569 182.020219 268.914541 190.707463 268.908614 C 199.379819 268.906676 206.432285 275.961128 206.428773 284.642923 Z M 206.428773 284.642923 " transform="matrix(-0.1792,-0.310383,0.310383,-0.1792,123.65928,207.90816)"/>
<path style="fill-rule:nonzero;fill:rgb(0.784302%,48.626709%,100%);fill-opacity:1;stroke-width:2;stroke-linecap:butt;stroke-linejoin:miter;stroke:rgb(0%,0%,0%);stroke-opacity:1;stroke-miterlimit:4;" d="M 206.433737 284.634158 C 206.430225 293.315952 199.390662 300.36443 190.703418 300.370357 C 182.021623 300.366845 174.978595 293.317842 174.972669 284.630598 C 174.970731 275.958243 182.019733 268.915215 190.706977 268.909288 C 199.379333 268.90735 206.4318 275.961802 206.433737 284.634158 Z M 206.433737 284.634158 " transform="matrix(-0.1792,-0.310383,0.310383,-0.1792,87.00664,145.87688)"/>
<path style="fill-rule:nonzero;fill:rgb(86.273193%,0%,0%);fill-opacity:1;stroke-width:2;stroke-linecap:butt;stroke-linejoin:miter;stroke:rgb(0%,0%,0%);stroke-opacity:1;stroke-miterlimit:4;" d="M 206.423687 284.638556 C 206.435063 293.316361 199.380612 300.368828 190.698817 300.365316 C 182.017023 300.361804 174.968545 293.322241 174.972057 284.640446 C 174.975569 275.958652 182.015132 268.910174 190.702376 268.904248 C 199.384171 268.90776 206.427199 275.956762 206.423687 284.638556 Z M 206.423687 284.638556 " transform="matrix(-0.1792,-0.310383,0.310383,-0.1792,159.69488,187.64408)"/>
<path style="fill-rule:nonzero;fill:rgb(0.784302%,48.626709%,100%);fill-opacity:1;stroke-width:2;stroke-linecap:butt;stroke-linejoin:miter;stroke:rgb(0%,0%,0%);stroke-opacity:1;stroke-miterlimit:4;" d="M 206.432371 284.633957 C 206.428859 293.315751 199.389296 300.364229 190.702052 300.370156 C 182.020257 300.366644 174.977229 293.317642 174.980741 284.635847 C 174.969365 275.958042 182.023817 268.905575 190.705611 268.909087 C 199.387406 268.912599 206.430433 275.961601 206.432371 284.633957 Z M 206.432371 284.633957 " transform="matrix(-0.1792,-0.310383,0.310383,-0.1792,123.54552,124.81392)"/>
<path style="fill:none;stroke-width:0.884272;stroke-linecap:butt;stroke-linejoin:miter;stroke:rgb(0%,0%,0%);stroke-opacity:1;stroke-miterlimit:4;" d="M 437.437119 491.560075 C 437.438711 514.077964 407.706765 532.355061 371.083302 532.352747 C 334.456766 532.353706 304.730325 514.079737 304.731807 491.558576 C 304.730215 469.040687 334.453766 450.764973 371.085624 450.765904 C 407.71216 450.764945 437.435527 469.042186 437.437119 491.560075 Z M 437.437119 491.560075 " transform="matrix(0.317796,0.550438,-0.895318,0.516911,628.89912,-400.02744)"/>
<path style="fill-rule:nonzero;fill:rgb(86.273193%,0%,0%);fill-opacity:1;stroke-width:2;stroke-linecap:butt;stroke-linejoin:miter;stroke:rgb(0%,0%,0%);stroke-opacity:1;stroke-miterlimit:4;" d="M 206.428114 284.637327 C 206.424602 293.319121 199.385039 300.367599 190.703244 300.364087 C 182.02145 300.360575 174.972972 293.321011 174.976484 284.639217 C 174.970557 275.951973 182.019559 268.908945 190.701354 268.912457 C 199.388598 268.90653 206.431626 275.955532 206.428114 284.637327 Z M 206.428114 284.637327 " transform="matrix(0.1792,0.310383,-0.310383,0.1792,398.03832,-72.08664)"/>
<path style="fill-rule:nonzero;fill:rgb(0.784302%,48.626709%,100%);fill-opacity:1;stroke-width:2;stroke-linecap:butt;stroke-linejoin:miter;stroke:rgb(0%,0%,0%);stroke-opacity:1;stroke-miterlimit:4;" d="M 206.426335 284.640637 C 206.428273 293.312993 199.38326 300.370909 190.701466 300.367397 C 182.019671 300.363885 174.976643 293.314883 174.974706 284.642527 C 174.968779 275.955283 182.017781 268.912255 190.705025 268.906328 C 199.38682 268.909841 206.429847 275.958843 206.426335 284.640637 Z M 206.426335 284.640637 " transform="matrix(0.1792,0.310383,-0.310383,0.1792,324.03576,-32.0984)"/>
<path style="fill-rule:nonzero;fill:rgb(86.273193%,0%,0%);fill-opacity:1;stroke-width:2;stroke-linecap:butt;stroke-linejoin:miter;stroke:rgb(0%,0%,0%);stroke-opacity:1;stroke-miterlimit:4;" d="M 206.429545 284.633711 C 206.435472 293.320955 199.38647 300.363983 190.699226 300.36991 C 182.017431 300.366398 174.974403 293.317395 174.977915 284.635601 C 174.981427 275.953807 182.020991 268.905329 190.702785 268.908841 C 199.38458 268.912353 206.433057 275.951916 206.429545 284.633711 Z M 206.429545 284.633711 " transform="matrix(0.1792,0.310383,-0.310383,0.1792,324.98616,-73.55128)"/>
<path style="fill-rule:nonzero;fill:rgb(0%,70.195007%,2.745056%);fill-opacity:1;stroke-width:2;stroke-linecap:butt;stroke-linejoin:miter;stroke:rgb(0%,0%,0%);stroke-opacity:1;stroke-miterlimit:4;" d="M 206.425793 284.641012 C 206.42773 293.313368 199.388167 300.361845 190.700923 300.367772 C 182.019128 300.36426 174.9761 293.315258 174.974163 284.642903 C 174.968236 275.955659 182.017238 268.912631 190.704482 268.906704 C 199.386277 268.910216 206.429305 275.959218 206.425793 284.641012 Z M 206.425793 284.641012 " transform="matrix(0.1792,0.310383,-0.310383,0.1792,361.66488,-94.02408)"/>
<path style="fill-rule:nonzero;fill:rgb(0.784302%,48.626709%,100%);fill-opacity:1;stroke-width:2;stroke-linecap:butt;stroke-linejoin:miter;stroke:rgb(0%,0%,0%);stroke-opacity:1;stroke-miterlimit:4;" d="M 206.433481 284.639213 C 206.429969 293.321007 199.380966 300.364035 190.699172 300.360523 C 182.021367 300.3719 174.978339 293.322898 174.972412 284.635654 C 174.975924 275.953859 182.024926 268.910831 190.697282 268.908894 C 199.379076 268.912406 206.427554 275.951969 206.433481 284.639213 Z M 206.433481 284.639213 " transform="matrix(0.1792,0.310383,-0.310383,0.1792,361.1356,-10.2488)"/>
<path style="fill-rule:nonzero;fill:rgb(86.273193%,0%,0%);fill-opacity:1;stroke-width:2;stroke-linecap:butt;stroke-linejoin:miter;stroke:rgb(0%,0%,0%);stroke-opacity:1;stroke-miterlimit:4;" d="M 206.432527 284.642533 C 206.432527 293.318244 199.380787 300.369985 190.705075 300.369985 C 182.018465 300.369985 174.977623 293.318244 174.977623 284.642533 C 174.977623 275.955922 182.018465 268.915081 190.705075 268.915081 C 199.380787 268.915081 206.432527 275.955922 206.432527 284.642533 Z M 206.432527 284.642533 " transform="matrix(0.3584,0,0,0.3584,-19.426824,-6.55104)"/>
<path style="fill-rule:nonzero;fill:rgb(86.273193%,0%,0%);fill-opacity:1;stroke-width:2;stroke-linecap:butt;stroke-linejoin:miter;stroke:rgb(0%,0%,0%);stroke-opacity:1;stroke-miterlimit:4;" d="M 206.433911 284.639355 C 206.433911 293.315067 199.382171 300.366807 190.706459 300.366807 C 182.019849 300.366807 174.979007 293.315067 174.979007 284.639355 C 174.979007 275.952745 182.019849 268.911904 190.706459 268.911904 C 199.382171 268.911904 206.433911 275.952745 206.433911 284.639355 Z M 206.433911 284.639355 " transform="matrix(0.3584,0,0,0.3584,146.19768,-64.49912)"/>
<path style="fill-rule:nonzero;fill:rgb(86.273193%,0%,0%);fill-opacity:1;stroke-width:2;stroke-linecap:butt;stroke-linejoin:miter;stroke:rgb(0%,0%,0%);stroke-opacity:1;stroke-miterlimit:4;" d="M 206.42793 284.635937 C 206.42793 293.322548 199.387088 300.363389 190.700478 300.363389 C 182.024766 300.363389 174.973026 293.322548 174.973026 284.635937 C 174.973026 275.960226 182.024766 268.908486 190.700478 268.908486 C 199.387088 268.908486 206.42793 275.960226 206.42793 284.635937 Z M 206.42793 284.635937 " transform="matrix(0.3584,0,0,0.3584,275.92248,-23.76352)"/>
<path style="fill:none;stroke-width:0.884272;stroke-linecap:butt;stroke-linejoin:miter;stroke:rgb(0%,0%,0%);stroke-opacity:1;stroke-miterlimit:4;" d="M 437.43484 491.560312 C 437.436431 514.0782 407.712881 532.353914 371.081022 532.352984 C 334.454486 532.353942 304.731119 514.076701 304.729527 491.558812 C 304.727935 469.040923 334.456808 450.767099 371.083344 450.76614 C 407.70988 450.765181 437.436321 469.039151 437.43484 491.560312 Z M 437.43484 491.560312 " transform="matrix(0.317796,0.550438,-0.895318,0.516911,755.3024,-398.90912)"/>
<path style="fill-rule:nonzero;fill:rgb(86.273193%,0%,0%);fill-opacity:1;stroke-width:2;stroke-linecap:butt;stroke-linejoin:miter;stroke:rgb(0%,0%,0%);stroke-opacity:1;stroke-miterlimit:4;" d="M 206.428861 284.631987 C 206.434788 293.319231 199.385786 300.362259 190.698542 300.368186 C 182.016747 300.364674 174.973719 293.315672 174.977231 284.633877 C 174.975294 275.961522 182.020307 268.903605 190.702101 268.907117 C 199.383896 268.910629 206.426923 275.959631 206.428861 284.631987 Z M 206.428861 284.631987 " transform="matrix(0.1792,0.310383,-0.310383,0.1792,522.86856,-29.28904)"/>
<path style="fill-rule:nonzero;fill:rgb(0.784302%,48.626709%,100%);fill-opacity:1;stroke-width:2;stroke-linecap:butt;stroke-linejoin:miter;stroke:rgb(0%,0%,0%);stroke-opacity:1;stroke-miterlimit:4;" d="M 206.42986 284.640796 C 206.426348 293.32259 199.386785 300.371068 190.704991 300.367556 C 182.023196 300.364044 174.974719 293.32448 174.968792 284.637236 C 174.972304 275.955442 182.021306 268.912414 190.7031 268.915926 C 199.380906 268.904549 206.433372 275.959001 206.42986 284.640796 Z M 206.42986 284.640796 " transform="matrix(0.1792,0.310383,-0.310383,0.1792,523.57424,-71.87296)"/>
<path style="fill-rule:nonzero;fill:rgb(86.273193%,0%,0%);fill-opacity:1;stroke-width:2;stroke-linecap:butt;stroke-linejoin:miter;stroke:rgb(0%,0%,0%);stroke-opacity:1;stroke-miterlimit:4;" d="M 206.430139 284.636554 C 206.426626 293.318349 199.387063 300.366826 190.705269 300.363314 C 182.018025 300.369241 174.974997 293.320239 174.978509 284.638445 C 174.972582 275.951201 182.021584 268.908173 190.703379 268.911685 C 199.385173 268.915197 206.433651 275.95476 206.430139 284.636554 Z M 206.430139 284.636554 " transform="matrix(0.1792,0.310383,-0.310383,0.1792,451.38928,-29.18088)"/>
<path style="fill-rule:nonzero;fill:rgb(0%,70.195007%,2.745056%);fill-opacity:1;stroke-width:2;stroke-linecap:butt;stroke-linejoin:miter;stroke:rgb(0%,0%,0%);stroke-opacity:1;stroke-miterlimit:4;" d="M 206.42425 284.638237 C 206.430177 293.325481 199.381174 300.368509 190.69938 300.364997 C 182.017586 300.361485 174.969108 293.321922 174.97262 284.640127 C 174.976132 275.958333 182.015695 268.909855 190.702939 268.903928 C 199.384734 268.90744 206.427762 275.956442 206.42425 284.638237 Z M 206.42425 284.638237 " transform="matrix(0.1792,0.310383,-0.310383,0.1792,452.67992,-73.24576)"/>
<path style="fill-rule:nonzero;fill:rgb(0.784302%,48.626709%,100%);fill-opacity:1;stroke-width:2;stroke-linecap:butt;stroke-linejoin:miter;stroke:rgb(0%,0%,0%);stroke-opacity:1;stroke-miterlimit:4;" d="M 206.429661 284.639509 C 206.426149 293.321303 199.386586 300.369781 190.704791 300.366269 C 182.022997 300.362757 174.974519 293.323193 174.978031 284.641399 C 174.972105 275.954155 182.021107 268.911127 190.702901 268.914639 C 199.390145 268.908712 206.433173 275.957714 206.429661 284.639509 Z M 206.429661 284.639509 " transform="matrix(0.1792,0.310383,-0.310383,0.1792,487.53872,-9.13048)"/>
<path style="fill-rule:nonzero;fill:rgb(86.273193%,0%,0%);fill-opacity:1;stroke-width:2;stroke-linecap:butt;stroke-linejoin:miter;stroke:rgb(0%,0%,0%);stroke-opacity:1;stroke-miterlimit:4;" d="M 206.429074 284.634898 C 206.429074 293.321509 199.388232 300.36235 190.701622 300.36235 C 182.02591 300.36235 174.97417 293.321509 174.97417 284.634898 C 174.97417 275.959187 182.02591 268.907446 190.701622 268.907446 C 199.388232 268.907446 206.429074 275.959187 206.429074 284.634898 Z M 206.429074 284.634898 " transform="matrix(0.3584,0,0,0.3584,364.57832,-84.77096)"/>
</g>
</svg>
