<?xml version="1.0" encoding="UTF-8" standalone="no"?>
<!-- Created with Inkscape (http://www.inkscape.org/) -->

<svg
   xmlns:dc="http://purl.org/dc/elements/1.1/"
   xmlns:cc="http://creativecommons.org/ns#"
   xmlns:rdf="http://www.w3.org/1999/02/22-rdf-syntax-ns#"
   xmlns:svg="http://www.w3.org/2000/svg"
   xmlns="http://www.w3.org/2000/svg"
   xmlns:sodipodi="http://sodipodi.sourceforge.net/DTD/sodipodi-0.dtd"
   xmlns:inkscape="http://www.inkscape.org/namespaces/inkscape"
   id="svg2"
   version="1.1"
   inkscape:version="0.91 r13725"
   xml:space="preserve"
   width="220.90675"
   height="74.696121"
   viewBox="0 0 220.90675 74.696121"
   sodipodi:docname="bipartite_graph_part_match.svg"><metadata
     id="metadata8"><rdf:RDF><cc:Work
         rdf:about=""><dc:format>image/svg+xml</dc:format><dc:type
           rdf:resource="http://purl.org/dc/dcmitype/StillImage" /><dc:title></dc:title></cc:Work></rdf:RDF></metadata><defs
     id="defs6"><clipPath
       clipPathUnits="userSpaceOnUse"
       id="clipPath16"><path
         d="M 0,180 72,180 72,0 0,0 0,180 Z"
         id="path18"
         inkscape:connector-curvature="0" /></clipPath></defs><sodipodi:namedview
     pagecolor="#ffffff"
     bordercolor="#666666"
     borderopacity="1"
     objecttolerance="10"
     gridtolerance="10"
     guidetolerance="10"
     inkscape:pageopacity="0"
     inkscape:pageshadow="2"
     inkscape:window-width="640"
     inkscape:window-height="480"
     id="namedview4"
     showgrid="false"
     fit-margin-top="0"
     fit-margin-left="0"
     fit-margin-right="0"
     fit-margin-bottom="0"
     inkscape:zoom="1.0488889"
     inkscape:cx="111.40981"
     inkscape:cy="37.565938"
     inkscape:window-x="0"
     inkscape:window-y="23"
     inkscape:window-maximized="0"
     inkscape:current-layer="g10" /><g
     id="g10"
     inkscape:groupmode="layer"
     inkscape:label="bipartite_graph_part_match"
     transform="matrix(1.25,0,0,-1.25,66.409812,149.63019)"><g
       id="g3816"
       transform="matrix(0,1,-1,0,125.06055,54.59085)"><g
         id="g12"><g
           clip-path="url(#clipPath16)"
           id="g14"><g
             transform="translate(19.1543,103.4761)"
             id="g20"><path
               inkscape:connector-curvature="0"
               id="path22"
               style="fill:#f6c96c;fill-opacity:1;fill-rule:nonzero;stroke:none"
               d="m 0,0 c 0,3.404 -2.793,6.164 -6.238,6.164 -3.448,0 -6.241,-2.76 -6.241,-6.164 0,-3.402 2.793,-6.164 6.241,-6.164 C -2.793,-6.164 0,-3.402 0,0" /></g><g
             transform="translate(19.1543,103.4761)"
             id="g24"><path
               inkscape:connector-curvature="0"
               id="path26"
               style="fill:none;stroke:#231f20;stroke-width:2;stroke-linecap:butt;stroke-linejoin:miter;stroke-miterlimit:4;stroke-dasharray:none;stroke-opacity:1"
               d="m 0,0 c 0,3.404 -2.793,6.164 -6.238,6.164 -3.448,0 -6.241,-2.76 -6.241,-6.164 0,-3.402 2.793,-6.164 6.241,-6.164 C -2.793,-6.164 0,-3.402 0,0 Z" /></g><g
             transform="translate(19.1548,49.5273)"
             id="g28"><path
               inkscape:connector-curvature="0"
               id="path30"
               style="fill:#f6c96c;fill-opacity:1;fill-rule:nonzero;stroke:none"
               d="m 0,0 c 0,3.404 -2.793,6.164 -6.238,6.164 -3.448,0 -6.241,-2.76 -6.241,-6.164 0,-3.402 2.793,-6.164 6.241,-6.164 C -2.793,-6.164 0,-3.402 0,0" /></g><g
             transform="translate(19.1548,49.5273)"
             id="g32"><path
               inkscape:connector-curvature="0"
               id="path34"
               style="fill:none;stroke:#231f20;stroke-width:2;stroke-linecap:butt;stroke-linejoin:miter;stroke-miterlimit:4;stroke-dasharray:none;stroke-opacity:1"
               d="m 0,0 c 0,3.404 -2.793,6.164 -6.238,6.164 -3.448,0 -6.241,-2.76 -6.241,-6.164 0,-3.402 2.793,-6.164 6.241,-6.164 C -2.793,-6.164 0,-3.402 0,0 Z" /></g><g
             transform="translate(63.8408,143.8027)"
             id="g36"><path
               inkscape:connector-curvature="0"
               id="path38"
               style="fill:#f6c96c;fill-opacity:1;fill-rule:nonzero;stroke:none"
               d="m 0,0 c 0,3.404 -2.793,6.164 -6.238,6.164 -3.448,0 -6.241,-2.76 -6.241,-6.164 0,-3.402 2.793,-6.164 6.241,-6.164 C -2.793,-6.164 0,-3.402 0,0" /></g><g
             transform="translate(63.8408,143.8027)"
             id="g40"><path
               inkscape:connector-curvature="0"
               id="path42"
               style="fill:none;stroke:#231f20;stroke-width:2;stroke-linecap:butt;stroke-linejoin:miter;stroke-miterlimit:4;stroke-dasharray:none;stroke-opacity:1"
               d="m 0,0 c 0,3.404 -2.793,6.164 -6.238,6.164 -3.448,0 -6.241,-2.76 -6.241,-6.164 0,-3.402 2.793,-6.164 6.241,-6.164 C -2.793,-6.164 0,-3.402 0,0 Z" /></g><g
             transform="translate(64.1133,117.1001)"
             id="g44"><path
               inkscape:connector-curvature="0"
               id="path46"
               style="fill:#f6c96c;fill-opacity:1;fill-rule:nonzero;stroke:none"
               d="m 0,0 c 0,3.404 -2.793,6.164 -6.238,6.164 -3.448,0 -6.241,-2.76 -6.241,-6.164 0,-3.402 2.793,-6.164 6.241,-6.164 C -2.793,-6.164 0,-3.402 0,0" /></g><g
             transform="translate(64.1133,117.1001)"
             id="g48"><path
               inkscape:connector-curvature="0"
               id="path50"
               style="fill:none;stroke:#231f20;stroke-width:2;stroke-linecap:butt;stroke-linejoin:miter;stroke-miterlimit:4;stroke-dasharray:none;stroke-opacity:1"
               d="m 0,0 c 0,3.404 -2.793,6.164 -6.238,6.164 -3.448,0 -6.241,-2.76 -6.241,-6.164 0,-3.402 2.793,-6.164 6.241,-6.164 C -2.793,-6.164 0,-3.402 0,0 Z" /></g><g
             transform="translate(63.7949,8.627)"
             id="g52"><path
               inkscape:connector-curvature="0"
               id="path54"
               style="fill:#f6c96c;fill-opacity:1;fill-rule:nonzero;stroke:none"
               d="m 0,0 c 0,3.404 -2.793,6.164 -6.238,6.164 -3.448,0 -6.241,-2.76 -6.241,-6.164 0,-3.402 2.793,-6.164 6.241,-6.164 C -2.793,-6.164 0,-3.402 0,0" /></g><g
             transform="translate(63.7949,8.627)"
             id="g56"><path
               inkscape:connector-curvature="0"
               id="path58"
               style="fill:none;stroke:#231f20;stroke-width:2;stroke-linecap:butt;stroke-linejoin:miter;stroke-miterlimit:4;stroke-dasharray:none;stroke-opacity:1"
               d="m 0,0 c 0,3.404 -2.793,6.164 -6.238,6.164 -3.448,0 -6.241,-2.76 -6.241,-6.164 0,-3.402 2.793,-6.164 6.241,-6.164 C -2.793,-6.164 0,-3.402 0,0 Z" /></g><g
             transform="translate(19.1548,49.5273)"
             id="g60"><path
               inkscape:connector-curvature="0"
               id="path62"
               style="fill:none;stroke:#231f20;stroke-width:1;stroke-linecap:butt;stroke-linejoin:miter;stroke-miterlimit:4;stroke-dasharray:none;stroke-opacity:1"
               d="M 0,0 32.679,12.506" /></g><g
             transform="translate(51.0156,62.8496)"
             id="g64"><path
               inkscape:connector-curvature="0"
               id="path66"
               style="fill:none;stroke:#231f20;stroke-width:1;stroke-linecap:butt;stroke-linejoin:miter;stroke-miterlimit:4;stroke-dasharray:none;stroke-opacity:1"
               d="M 0,0 -32.425,39.509" /></g><g
             transform="translate(51.6348,90.125)"
             id="g68"><path
               inkscape:connector-curvature="0"
               id="path70"
               style="fill:none;stroke:#231f20;stroke-width:1;stroke-linecap:butt;stroke-linejoin:miter;stroke-miterlimit:4;stroke-dasharray:none;stroke-opacity:1"
               d="M 0,0 -33.044,-14.47" /></g><g
             transform="translate(51.6348,90.125)"
             id="g72"><path
               inkscape:connector-curvature="0"
               id="path74"
               style="fill:none;stroke:#231f20;stroke-width:1;stroke-linecap:butt;stroke-linejoin:miter;stroke-miterlimit:4;stroke-dasharray:none;stroke-opacity:1"
               d="M 0,0 -33.044,13.051" /></g><g
             transform="translate(18.3184,22.252)"
             id="g76"><path
               inkscape:connector-curvature="0"
               id="path78"
               style="fill:none;stroke:#231f20;stroke-width:1;stroke-linecap:butt;stroke-linejoin:miter;stroke-miterlimit:4;stroke-dasharray:none;stroke-opacity:1"
               d="M 0,0 33.242,12.805" /></g><g
             transform="translate(18.8633,21.4336)"
             id="g80"><path
               inkscape:connector-curvature="0"
               id="path82"
               style="fill:none;stroke:#231f20;stroke-width:1;stroke-linecap:butt;stroke-linejoin:miter;stroke-miterlimit:4;stroke-dasharray:none;stroke-opacity:1"
               d="M 0,0 32.453,-12.807" /></g><g
             transform="translate(19.4082,23.0684)"
             id="g84"><path
               inkscape:connector-curvature="0"
               id="path86"
               style="fill:#231f20;fill-opacity:1;fill-rule:nonzero;stroke:#231f20;stroke-width:3;stroke-linecap:butt;stroke-linejoin:miter;stroke-miterlimit:4;stroke-dasharray:none;stroke-opacity:1"
               d="M 0,0 31.607,67.029" /></g><g
             transform="translate(18.8354,130.4243)"
             id="g88"><path
               inkscape:connector-curvature="0"
               id="path90"
               style="fill:none;stroke:#231f20;stroke-width:1;stroke-linecap:butt;stroke-linejoin:miter;stroke-miterlimit:4;stroke-dasharray:none;stroke-opacity:1"
               d="M 0,0 32.454,-39.509" /></g><g
             transform="translate(19.4082,156.3101)"
             id="g92"><path
               inkscape:connector-curvature="0"
               id="path94"
               style="fill:none;stroke:#231f20;stroke-width:1;stroke-linecap:butt;stroke-linejoin:miter;stroke-miterlimit:4;stroke-dasharray:none;stroke-opacity:1"
               d="M 0,0 31.954,-12.507" /></g><g
             transform="translate(18.8354,130.4243)"
             id="g96"><path
               inkscape:connector-curvature="0"
               id="path98"
               style="fill:none;stroke:#231f20;stroke-width:1;stroke-linecap:butt;stroke-linejoin:miter;stroke-miterlimit:4;stroke-dasharray:none;stroke-opacity:1"
               d="M 0,0 32.799,-13.324" /></g><g
             transform="translate(18.8633,155.4927)"
             id="g100"><path
               inkscape:connector-curvature="0"
               id="path102"
               style="fill:none;stroke:#231f20;stroke-width:1;stroke-linecap:butt;stroke-linejoin:miter;stroke-miterlimit:4;stroke-dasharray:none;stroke-opacity:1"
               d="M 0,0 32.771,-38.393" /></g><g
             transform="translate(19.1924,157.4106)"
             id="g104"><path
               inkscape:connector-curvature="0"
               id="path106"
               style="fill:none;stroke:#231f20;stroke-width:1;stroke-linecap:butt;stroke-linejoin:miter;stroke-miterlimit:4;stroke-dasharray:none;stroke-opacity:1"
               d="M 0,0 32.368,12.251" /></g><g
             transform="translate(51.834,62.0332)"
             id="g108"><path
               inkscape:connector-curvature="0"
               id="path110"
               style="fill:#231f20;fill-opacity:1;fill-rule:nonzero;stroke:#231f20;stroke-width:3;stroke-linecap:butt;stroke-linejoin:miter;stroke-miterlimit:4;stroke-dasharray:none;stroke-opacity:1"
               d="M 0,0 -33.243,13.622" /></g><g
             transform="translate(51.5605,35.0566)"
             id="g112"><path
               inkscape:connector-curvature="0"
               id="path114"
               style="fill:#231f20;fill-opacity:1;fill-rule:nonzero;stroke:#231f20;stroke-width:3;stroke-linecap:butt;stroke-linejoin:miter;stroke-miterlimit:4;stroke-dasharray:none;stroke-opacity:1"
               d="M 0,0 -32.97,121.253" /></g><g
             transform="translate(18.0459,131.5142)"
             id="g116"><path
               inkscape:connector-curvature="0"
               id="path118"
               style="fill:#231f20;fill-opacity:1;fill-rule:nonzero;stroke:#231f20;stroke-width:3;stroke-linecap:butt;stroke-linejoin:miter;stroke-miterlimit:4;stroke-dasharray:none;stroke-opacity:1"
               d="M 0,0 33.515,38.147" /></g><g
             transform="translate(19.1924,157.4106)"
             id="g120"><path
               inkscape:connector-curvature="0"
               id="path122"
               style="fill:#f6c96c;fill-opacity:1;fill-rule:nonzero;stroke:none"
               d="m 0,0 c 0,3.404 -2.793,6.164 -6.238,6.164 -3.448,0 -6.241,-2.76 -6.241,-6.164 0,-3.402 2.793,-6.164 6.241,-6.164 C -2.793,-6.164 0,-3.402 0,0" /></g><g
             transform="translate(19.1924,157.4106)"
             id="g124"><path
               inkscape:connector-curvature="0"
               id="path126"
               style="fill:none;stroke:#231f20;stroke-width:2;stroke-linecap:butt;stroke-linejoin:miter;stroke-miterlimit:4;stroke-dasharray:none;stroke-opacity:1"
               d="m 0,0 c 0,3.404 -2.793,6.164 -6.238,6.164 -3.448,0 -6.241,-2.76 -6.241,-6.164 0,-3.402 2.793,-6.164 6.241,-6.164 C -2.793,-6.164 0,-3.402 0,0 Z" /></g><g
             transform="translate(64.0674,171.0244)"
             id="g128"><path
               inkscape:connector-curvature="0"
               id="path130"
               style="fill:#f6c96c;fill-opacity:1;fill-rule:nonzero;stroke:none"
               d="m 0,0 c 0,3.404 -2.793,6.164 -6.238,6.164 -3.448,0 -6.241,-2.76 -6.241,-6.164 0,-3.402 2.793,-6.164 6.241,-6.164 C -2.793,-6.164 0,-3.402 0,0" /></g><g
             transform="translate(64.0674,171.0244)"
             id="g132"><path
               inkscape:connector-curvature="0"
               id="path134"
               style="fill:none;stroke:#231f20;stroke-width:2;stroke-linecap:butt;stroke-linejoin:miter;stroke-miterlimit:4;stroke-dasharray:none;stroke-opacity:1"
               d="m 0,0 c 0,3.404 -2.793,6.164 -6.238,6.164 -3.448,0 -6.241,-2.76 -6.241,-6.164 0,-3.402 2.793,-6.164 6.241,-6.164 C -2.793,-6.164 0,-3.402 0,0 Z" /></g><g
             transform="translate(18.8354,130.4243)"
             id="g136"><path
               inkscape:connector-curvature="0"
               id="path138"
               style="fill:#f6c96c;fill-opacity:1;fill-rule:nonzero;stroke:none"
               d="m 0,0 c 0,3.404 -2.793,6.164 -6.238,6.164 -3.448,0 -6.241,-2.76 -6.241,-6.164 0,-3.402 2.793,-6.164 6.241,-6.164 C -2.793,-6.164 0,-3.402 0,0" /></g><g
             transform="translate(18.8354,130.4243)"
             id="g140"><path
               inkscape:connector-curvature="0"
               id="path142"
               style="fill:none;stroke:#231f20;stroke-width:2;stroke-linecap:butt;stroke-linejoin:miter;stroke-miterlimit:4;stroke-dasharray:none;stroke-opacity:1"
               d="m 0,0 c 0,3.404 -2.793,6.164 -6.238,6.164 -3.448,0 -6.241,-2.76 -6.241,-6.164 0,-3.402 2.793,-6.164 6.241,-6.164 C -2.793,-6.164 0,-3.402 0,0 Z" /></g><g
             transform="translate(64.1133,90.125)"
             id="g144"><path
               inkscape:connector-curvature="0"
               id="path146"
               style="fill:#f6c96c;fill-opacity:1;fill-rule:nonzero;stroke:none"
               d="m 0,0 c 0,3.404 -2.793,6.164 -6.238,6.164 -3.448,0 -6.241,-2.76 -6.241,-6.164 0,-3.402 2.793,-6.164 6.241,-6.164 C -2.793,-6.164 0,-3.402 0,0" /></g><g
             transform="translate(64.1133,90.125)"
             id="g148"><path
               inkscape:connector-curvature="0"
               id="path150"
               style="fill:none;stroke:#231f20;stroke-width:2;stroke-linecap:butt;stroke-linejoin:miter;stroke-miterlimit:4;stroke-dasharray:none;stroke-opacity:1"
               d="m 0,0 c 0,3.404 -2.793,6.164 -6.238,6.164 -3.448,0 -6.241,-2.76 -6.241,-6.164 0,-3.402 2.793,-6.164 6.241,-6.164 C -2.793,-6.164 0,-3.402 0,0 Z" /></g><g
             transform="translate(18.8823,76.2275)"
             id="g152"><path
               inkscape:connector-curvature="0"
               id="path154"
               style="fill:#f6c96c;fill-opacity:1;fill-rule:nonzero;stroke:none"
               d="m 0,0 c 0,3.405 -2.793,6.165 -6.238,6.165 -3.448,0 -6.241,-2.76 -6.241,-6.165 0,-3.402 2.793,-6.163 6.241,-6.163 C -2.793,-6.163 0,-3.402 0,0" /></g><g
             transform="translate(18.8823,76.2275)"
             id="g156"><path
               inkscape:connector-curvature="0"
               id="path158"
               style="fill:none;stroke:#231f20;stroke-width:2;stroke-linecap:butt;stroke-linejoin:miter;stroke-miterlimit:4;stroke-dasharray:none;stroke-opacity:1"
               d="m 0,0 c 0,3.405 -2.793,6.165 -6.238,6.165 -3.448,0 -6.241,-2.76 -6.241,-6.165 0,-3.402 2.793,-6.163 6.241,-6.163 C -2.793,-6.163 0,-3.402 0,0 Z" /></g><g
             transform="translate(64.1123,62.8789)"
             id="g160"><path
               inkscape:connector-curvature="0"
               id="path162"
               style="fill:#f6c96c;fill-opacity:1;fill-rule:nonzero;stroke:none"
               d="m 0,0 c 0,3.404 -2.793,6.164 -6.238,6.164 -3.448,0 -6.241,-2.76 -6.241,-6.164 0,-3.402 2.793,-6.164 6.241,-6.164 C -2.793,-6.164 0,-3.402 0,0" /></g><g
             transform="translate(64.1123,62.8789)"
             id="g164"><path
               inkscape:connector-curvature="0"
               id="path166"
               style="fill:none;stroke:#231f20;stroke-width:2;stroke-linecap:butt;stroke-linejoin:miter;stroke-miterlimit:4;stroke-dasharray:none;stroke-opacity:1"
               d="m 0,0 c 0,3.404 -2.793,6.164 -6.238,6.164 -3.448,0 -6.241,-2.76 -6.241,-6.164 0,-3.402 2.793,-6.164 6.241,-6.164 C -2.793,-6.164 0,-3.402 0,0 Z" /></g><g
             transform="translate(64.1133,35.9023)"
             id="g168"><path
               inkscape:connector-curvature="0"
               id="path170"
               style="fill:#f6c96c;fill-opacity:1;fill-rule:nonzero;stroke:none"
               d="m 0,0 c 0,3.404 -2.793,6.164 -6.238,6.164 -3.448,0 -6.241,-2.76 -6.241,-6.164 0,-3.402 2.793,-6.164 6.241,-6.164 C -2.793,-6.164 0,-3.402 0,0" /></g><g
             transform="translate(64.1133,35.9023)"
             id="g172"><path
               inkscape:connector-curvature="0"
               id="path174"
               style="fill:none;stroke:#231f20;stroke-width:2;stroke-linecap:butt;stroke-linejoin:miter;stroke-miterlimit:4;stroke-dasharray:none;stroke-opacity:1"
               d="m 0,0 c 0,3.404 -2.793,6.164 -6.238,6.164 -3.448,0 -6.241,-2.76 -6.241,-6.164 0,-3.402 2.793,-6.164 6.241,-6.164 C -2.793,-6.164 0,-3.402 0,0 Z" /></g><g
             transform="translate(19.1543,22.2773)"
             id="g176"><path
               inkscape:connector-curvature="0"
               id="path178"
               style="fill:#f6c96c;fill-opacity:1;fill-rule:nonzero;stroke:none"
               d="m 0,0 c 0,3.404 -2.793,6.164 -6.238,6.164 -3.448,0 -6.241,-2.76 -6.241,-6.164 0,-3.402 2.793,-6.164 6.241,-6.164 C -2.793,-6.164 0,-3.402 0,0" /></g><g
             transform="translate(19.1543,22.2773)"
             id="g180"><path
               inkscape:connector-curvature="0"
               id="path182"
               style="fill:none;stroke:#231f20;stroke-width:2;stroke-linecap:butt;stroke-linejoin:miter;stroke-miterlimit:4;stroke-dasharray:none;stroke-opacity:1"
               d="m 0,0 c 0,3.404 -2.793,6.164 -6.238,6.164 -3.448,0 -6.241,-2.76 -6.241,-6.164 0,-3.402 2.793,-6.164 6.241,-6.164 C -2.793,-6.164 0,-3.402 0,0 Z" /></g></g></g></g></g></svg>