<?xml version="1.0" encoding="UTF-8"?>
<svg xmlns="http://www.w3.org/2000/svg" xmlns:xlink="http://www.w3.org/1999/xlink" width="176.726pt" height="59.7564pt" viewBox="0 0 176.726 59.7564" version="1.1">
<defs>
<clipPath id="clip1">
  <path d="M 145 2 L 176.726562 2 L 176.726562 58 L 145 58 Z M 145 2 "/>
</clipPath>
<clipPath id="clip2">
  <path d="M 3 34 L 39 34 L 39 59.757812 L 3 59.757812 Z M 3 34 "/>
</clipPath>
<clipPath id="clip3">
  <path d="M 30 34 L 66 34 L 66 59.757812 L 30 59.757812 Z M 30 34 "/>
</clipPath>
<clipPath id="clip4">
  <path d="M 57 34 L 93 34 L 93 59.757812 L 57 59.757812 Z M 57 34 "/>
</clipPath>
<clipPath id="clip5">
  <path d="M 84 34 L 120 34 L 120 59.757812 L 84 59.757812 Z M 84 34 "/>
</clipPath>
<clipPath id="clip6">
  <path d="M 111 34 L 147 34 L 147 59.757812 L 111 59.757812 Z M 111 34 "/>
</clipPath>
<clipPath id="clip7">
  <path d="M 138 34 L 174 34 L 174 59.757812 L 138 59.757812 Z M 138 34 "/>
</clipPath>
<clipPath id="clip8">
  <path d="M 152 0 L 176.726562 0 L 176.726562 26 L 152 26 Z M 152 0 "/>
</clipPath>
</defs>
<g id="surface1">
<path style="fill:none;stroke-width:2;stroke-linecap:butt;stroke-linejoin:miter;stroke:rgb(13.729858%,12.159729%,12.548828%);stroke-opacity:1;stroke-miterlimit:4;" d="M -0.00104375 0.00146875 L -12.50495 32.67725 " transform="matrix(1,0,0,-1,128.6612,45.9585)"/>
<path style="fill:none;stroke-width:2;stroke-linecap:butt;stroke-linejoin:miter;stroke:rgb(13.729858%,12.159729%,12.548828%);stroke-opacity:1;stroke-miterlimit:4;" d="M 0.00095 -0.00195 L -13.620144 -33.244138 " transform="matrix(1,0,0,-1,116.1553,13.2793)"/>
<path style="fill:none;stroke-width:2;stroke-linecap:butt;stroke-linejoin:miter;stroke:rgb(13.729858%,12.159729%,12.548828%);stroke-opacity:1;stroke-miterlimit:4;" d="M 0.00094375 0.00004375 L -39.510775 -32.425738 " transform="matrix(1,0,0,-1,115.3389,14.0977)"/>
<path style="fill:none;stroke-width:2;stroke-linecap:butt;stroke-linejoin:miter;stroke:rgb(13.729858%,12.159729%,12.548828%);stroke-opacity:1;stroke-miterlimit:4;" d="M -0.001 0.0019375 L 14.471656 -33.044938 " transform="matrix(1,0,0,-1,88.0635,13.4785)"/>
<path style="fill:none;stroke-width:2;stroke-linecap:butt;stroke-linejoin:miter;stroke:rgb(13.729858%,12.159729%,12.548828%);stroke-opacity:1;stroke-miterlimit:4;" d="M -0.001 0.0019375 L -13.051781 -33.044938 " transform="matrix(1,0,0,-1,88.0635,13.4785)"/>
<path style="fill:none;stroke-width:2;stroke-linecap:butt;stroke-linejoin:miter;stroke:rgb(13.729858%,12.159729%,12.548828%);stroke-opacity:1;stroke-miterlimit:4;" d="M 0.001 0.00193125 L -12.803687 33.240212 " transform="matrix(1,0,0,-1,155.9365,46.7949)"/>
<g clip-path="url(#clip1)" clip-rule="nonzero">
<path style="fill:none;stroke-width:2;stroke-linecap:butt;stroke-linejoin:miter;stroke:rgb(13.729858%,12.159729%,12.548828%);stroke-opacity:1;stroke-miterlimit:4;" d="M -0.00099375 0 L 12.8076 32.453125 " transform="matrix(1,0,0,-1,156.7549,46.25)"/>
</g>
<path style="fill:none;stroke-width:2;stroke-linecap:butt;stroke-linejoin:miter;stroke:rgb(13.729858%,12.159729%,12.548828%);stroke-opacity:1;stroke-miterlimit:4;" d="M 0.00099375 -0.00193125 L -67.030256 31.607444 " transform="matrix(1,0,0,-1,155.1201,45.7051)"/>
<path style="fill:none;stroke-width:2;stroke-linecap:butt;stroke-linejoin:miter;stroke:rgb(13.729858%,12.159729%,12.548828%);stroke-opacity:1;stroke-miterlimit:4;" d="M 0.0009125 -0.0018875 L -121.252994 -32.970638 " transform="matrix(1,0,0,-1,143.1319,13.5528)"/>
<path style="fill:none;stroke-width:2;stroke-linecap:butt;stroke-linejoin:miter;stroke:rgb(13.729858%,12.159729%,12.548828%);stroke-opacity:1;stroke-miterlimit:4;" d="M 0.001425 0.00055625 L 39.509237 32.453681 " transform="matrix(1,0,0,-1,47.7642,46.2779)"/>
<path style="fill:none;stroke-width:2;stroke-linecap:butt;stroke-linejoin:miter;stroke:rgb(13.729858%,12.159729%,12.548828%);stroke-opacity:1;stroke-miterlimit:4;" d="M 0.00148125 0.00099375 L -38.146956 33.516619 " transform="matrix(1,0,0,-1,46.6743,47.0674)"/>
<path style="fill:none;stroke-width:2;stroke-linecap:butt;stroke-linejoin:miter;stroke:rgb(13.729858%,12.159729%,12.548828%);stroke-opacity:1;stroke-miterlimit:4;" d="M 0.00050625 -0.00193125 L 12.508319 31.9551 " transform="matrix(1,0,0,-1,21.8784,45.7051)"/>
<path style="fill:none;stroke-width:2;stroke-linecap:butt;stroke-linejoin:miter;stroke:rgb(13.729858%,12.159729%,12.548828%);stroke-opacity:1;stroke-miterlimit:4;" d="M 0.001425 0.00055625 L 13.325644 32.797431 " transform="matrix(1,0,0,-1,47.7642,46.2779)"/>
<path style="fill:none;stroke-width:2;stroke-linecap:butt;stroke-linejoin:miter;stroke:rgb(13.729858%,12.159729%,12.548828%);stroke-opacity:1;stroke-miterlimit:4;" d="M -0.0004875 0 L 38.394044 32.769531 " transform="matrix(1,0,0,-1,22.6958,46.25)"/>
<path style="fill:none;stroke-width:2;stroke-linecap:butt;stroke-linejoin:miter;stroke:rgb(13.729858%,12.159729%,12.548828%);stroke-opacity:1;stroke-miterlimit:4;" d="M -0.00055625 -0.000975 L -12.250556 32.366212 " transform="matrix(1,0,0,-1,20.7779,45.9209)"/>
<path style=" stroke:none;fill-rule:nonzero;fill:rgb(96.403503%,78.808594%,42.222595%);fill-opacity:1;" d="M 20.777344 45.921875 C 17.375 45.921875 14.613281 48.714844 14.613281 52.160156 C 14.613281 55.605469 17.375 58.398438 20.777344 58.398438 C 24.179688 58.398438 26.941406 55.605469 26.941406 52.160156 C 26.941406 48.714844 24.179688 45.921875 20.777344 45.921875 "/>
<g clip-path="url(#clip2)" clip-rule="nonzero">
<path style="fill:none;stroke-width:2;stroke-linecap:butt;stroke-linejoin:miter;stroke:rgb(13.729858%,12.159729%,12.548828%);stroke-opacity:1;stroke-miterlimit:4;" d="M -0.00055625 -0.000975 C -3.4029 -0.000975 -6.164619 -2.793944 -6.164619 -6.239256 C -6.164619 -9.684569 -3.4029 -12.477538 -0.00055625 -12.477538 C 3.401787 -12.477538 6.163506 -9.684569 6.163506 -6.239256 C 6.163506 -2.793944 3.401787 -0.000975 -0.00055625 -0.000975 Z M -0.00055625 -0.000975 " transform="matrix(1,0,0,-1,20.7779,45.9209)"/>
</g>
<path style=" stroke:none;fill-rule:nonzero;fill:rgb(96.403503%,78.808594%,42.222595%);fill-opacity:1;" d="M 47.765625 46.277344 C 44.359375 46.277344 41.601562 49.070312 41.601562 52.515625 C 41.601562 55.964844 44.359375 58.757812 47.765625 58.757812 C 51.167969 58.757812 53.929688 55.964844 53.929688 52.515625 C 53.929688 49.070312 51.167969 46.277344 47.765625 46.277344 "/>
<g clip-path="url(#clip3)" clip-rule="nonzero">
<path style="fill:none;stroke-width:2;stroke-linecap:butt;stroke-linejoin:miter;stroke:rgb(13.729858%,12.159729%,12.548828%);stroke-opacity:1;stroke-miterlimit:4;" d="M 0.001425 0.00055625 C -3.404825 0.00055625 -6.162638 -2.792412 -6.162638 -6.237725 C -6.162638 -9.686944 -3.404825 -12.479912 0.001425 -12.479912 C 3.403769 -12.479912 6.165487 -9.686944 6.165487 -6.237725 C 6.165487 -2.792412 3.403769 0.00055625 0.001425 0.00055625 Z M 0.001425 0.00055625 " transform="matrix(1,0,0,-1,47.7642,46.2779)"/>
</g>
<path style=" stroke:none;fill-rule:nonzero;fill:rgb(96.403503%,78.808594%,42.222595%);fill-opacity:1;" d="M 74.710938 45.960938 C 71.308594 45.960938 68.546875 48.753906 68.546875 52.195312 C 68.546875 55.644531 71.308594 58.4375 74.710938 58.4375 C 78.113281 58.4375 80.875 55.644531 80.875 52.195312 C 80.875 48.753906 78.113281 45.960938 74.710938 45.960938 "/>
<g clip-path="url(#clip4)" clip-rule="nonzero">
<path style="fill:none;stroke-width:2;stroke-linecap:butt;stroke-linejoin:miter;stroke:rgb(13.729858%,12.159729%,12.548828%);stroke-opacity:1;stroke-miterlimit:4;" d="M -0.0014625 -0.0019375 C -3.403806 -0.0019375 -6.165525 -2.794906 -6.165525 -6.236312 C -6.165525 -9.685531 -3.403806 -12.4785 -0.0014625 -12.4785 C 3.400881 -12.4785 6.1626 -9.685531 6.1626 -6.236312 C 6.1626 -2.794906 3.400881 -0.0019375 -0.0014625 -0.0019375 Z M -0.0014625 -0.0019375 " transform="matrix(1,0,0,-1,74.7124,45.959)"/>
</g>
<path style=" stroke:none;fill-rule:nonzero;fill:rgb(96.403503%,78.808594%,42.222595%);fill-opacity:1;" d="M 101.960938 46.230469 C 98.554688 46.230469 95.796875 49.023438 95.796875 52.46875 C 95.796875 55.917969 98.554688 58.710938 101.960938 58.710938 C 105.363281 58.710938 108.125 55.917969 108.125 52.46875 C 108.125 49.023438 105.363281 46.230469 101.960938 46.230469 "/>
<g clip-path="url(#clip5)" clip-rule="nonzero">
<path style="fill:none;stroke-width:2;stroke-linecap:butt;stroke-linejoin:miter;stroke:rgb(13.729858%,12.159729%,12.548828%);stroke-opacity:1;stroke-miterlimit:4;" d="M -0.0000625 0.00053125 C -3.406313 0.00053125 -6.164125 -2.792438 -6.164125 -6.23775 C -6.164125 -9.686969 -3.406313 -12.479938 -0.0000625 -12.479938 C 3.402281 -12.479938 6.164 -9.686969 6.164 -6.23775 C 6.164 -2.792438 3.402281 0.00053125 -0.0000625 0.00053125 Z M -0.0000625 0.00053125 " transform="matrix(1,0,0,-1,101.961,46.231)"/>
</g>
<path style=" stroke:none;fill-rule:nonzero;fill:rgb(96.403503%,78.808594%,42.222595%);fill-opacity:1;" d="M 128.660156 45.957031 C 125.257812 45.957031 122.496094 48.75 122.496094 52.195312 C 122.496094 55.644531 125.257812 58.4375 128.660156 58.4375 C 132.0625 58.4375 134.824219 55.644531 134.824219 52.195312 C 134.824219 48.75 132.0625 45.957031 128.660156 45.957031 "/>
<g clip-path="url(#clip6)" clip-rule="nonzero">
<path style="fill:none;stroke-width:2;stroke-linecap:butt;stroke-linejoin:miter;stroke:rgb(13.729858%,12.159729%,12.548828%);stroke-opacity:1;stroke-miterlimit:4;" d="M -0.00104375 0.00146875 C -3.403388 0.00146875 -6.165106 -2.7915 -6.165106 -6.236812 C -6.165106 -9.686031 -3.403388 -12.479 -0.00104375 -12.479 C 3.4013 -12.479 6.163019 -9.686031 6.163019 -6.236812 C 6.163019 -2.7915 3.4013 0.00146875 -0.00104375 0.00146875 Z M -0.00104375 0.00146875 " transform="matrix(1,0,0,-1,128.6612,45.9585)"/>
</g>
<path style=" stroke:none;fill-rule:nonzero;fill:rgb(96.403503%,78.808594%,42.222595%);fill-opacity:1;" d="M 155.910156 45.960938 C 152.507812 45.960938 149.746094 48.753906 149.746094 52.195312 C 149.746094 55.644531 152.507812 58.4375 155.910156 58.4375 C 159.3125 58.4375 162.074219 55.644531 162.074219 52.195312 C 162.074219 48.753906 159.3125 45.960938 155.910156 45.960938 "/>
<g clip-path="url(#clip7)" clip-rule="nonzero">
<path style="fill:none;stroke-width:2;stroke-linecap:butt;stroke-linejoin:miter;stroke:rgb(13.729858%,12.159729%,12.548828%);stroke-opacity:1;stroke-miterlimit:4;" d="M -0.00104375 -0.0019375 C -3.403388 -0.0019375 -6.165106 -2.794906 -6.165106 -6.236312 C -6.165106 -9.685531 -3.403388 -12.4785 -0.00104375 -12.4785 C 3.4013 -12.4785 6.163019 -9.685531 6.163019 -6.236312 C 6.163019 -2.794906 3.4013 -0.0019375 -0.00104375 -0.0019375 Z M -0.00104375 -0.0019375 " transform="matrix(1,0,0,-1,155.9112,45.959)"/>
</g>
<path style=" stroke:none;fill-rule:nonzero;fill:rgb(96.403503%,78.808594%,42.222595%);fill-opacity:1;" d="M 7.164062 1.046875 C 3.761719 1.046875 1 3.839844 1 7.285156 C 1 10.730469 3.761719 13.523438 7.164062 13.523438 C 10.566406 13.523438 13.328125 10.730469 13.328125 7.285156 C 13.328125 3.839844 10.566406 1.046875 7.164062 1.046875 "/>
<path style="fill:none;stroke-width:2;stroke-linecap:butt;stroke-linejoin:miter;stroke:rgb(13.729858%,12.159729%,12.548828%);stroke-opacity:1;stroke-miterlimit:4;" d="M -0.0000375 -0.000975 C -3.402381 -0.000975 -6.1641 -2.793944 -6.1641 -6.239256 C -6.1641 -9.684569 -3.402381 -12.477538 -0.0000375 -12.477538 C 3.402306 -12.477538 6.164025 -9.684569 6.164025 -6.239256 C 6.164025 -2.793944 3.402306 -0.000975 -0.0000375 -0.000975 Z M -0.0000375 -0.000975 " transform="matrix(1,0,0,-1,7.1641,1.0459)"/>
<path style=" stroke:none;fill-rule:nonzero;fill:rgb(96.403503%,78.808594%,42.222595%);fill-opacity:1;" d="M 34.386719 1.273438 C 30.980469 1.273438 28.222656 4.066406 28.222656 7.511719 C 28.222656 10.957031 30.980469 13.75 34.386719 13.75 C 37.789062 13.75 40.550781 10.957031 40.550781 7.511719 C 40.550781 4.066406 37.789062 1.273438 34.386719 1.273438 "/>
<path style="fill:none;stroke-width:2;stroke-linecap:butt;stroke-linejoin:miter;stroke:rgb(13.729858%,12.159729%,12.548828%);stroke-opacity:1;stroke-miterlimit:4;" d="M 0.00091875 -0.0009375 C -3.405331 -0.0009375 -6.163144 -2.793906 -6.163144 -6.239219 C -6.163144 -9.684531 -3.405331 -12.4775 0.00091875 -12.4775 C 3.403263 -12.4775 6.164981 -9.684531 6.164981 -6.239219 C 6.164981 -2.793906 3.403263 -0.0009375 0.00091875 -0.0009375 Z M 0.00091875 -0.0009375 " transform="matrix(1,0,0,-1,34.3858,1.2725)"/>
<path style=" stroke:none;fill-rule:nonzero;fill:rgb(96.403503%,78.808594%,42.222595%);fill-opacity:1;" d="M 61.089844 1 C 57.683594 1 54.925781 3.792969 54.925781 7.238281 C 54.925781 10.6875 57.683594 13.480469 61.089844 13.480469 C 64.492188 13.480469 67.253906 10.6875 67.253906 7.238281 C 67.253906 3.792969 64.492188 1 61.089844 1 "/>
<path style="fill:none;stroke-width:2;stroke-linecap:butt;stroke-linejoin:miter;stroke:rgb(13.729858%,12.159729%,12.548828%);stroke-opacity:1;stroke-miterlimit:4;" d="M 0.00144375 0 C -3.404806 0 -6.162619 -2.792969 -6.162619 -6.238281 C -6.162619 -9.6875 -3.404806 -12.480469 0.00144375 -12.480469 C 3.403787 -12.480469 6.165506 -9.6875 6.165506 -6.238281 C 6.165506 -2.792969 3.403787 0 0.00144375 0 Z M 0.00144375 0 " transform="matrix(1,0,0,-1,61.0884,1)"/>
<path style=" stroke:none;fill-rule:nonzero;fill:rgb(96.403503%,78.808594%,42.222595%);fill-opacity:1;" d="M 88.0625 1 C 84.660156 1 81.898438 3.792969 81.898438 7.238281 C 81.898438 10.6875 84.660156 13.480469 88.0625 13.480469 C 91.464844 13.480469 94.226562 10.6875 94.226562 7.238281 C 94.226562 3.792969 91.464844 1 88.0625 1 "/>
<path style="fill:none;stroke-width:2;stroke-linecap:butt;stroke-linejoin:miter;stroke:rgb(13.729858%,12.159729%,12.548828%);stroke-opacity:1;stroke-miterlimit:4;" d="M -0.001 0 C -3.403344 0 -6.165063 -2.792969 -6.165063 -6.238281 C -6.165063 -9.6875 -3.403344 -12.480469 -0.001 -12.480469 C 3.401344 -12.480469 6.163062 -9.6875 6.163062 -6.238281 C 6.163062 -2.792969 3.401344 0 -0.001 0 Z M -0.001 0 " transform="matrix(1,0,0,-1,88.0635,1)"/>
<path style=" stroke:none;fill-rule:nonzero;fill:rgb(96.403503%,78.808594%,42.222595%);fill-opacity:1;" d="M 115.308594 1 C 111.90625 1 109.144531 3.792969 109.144531 7.238281 C 109.144531 10.6875 111.90625 13.480469 115.308594 13.480469 C 118.710938 13.480469 121.472656 10.6875 121.472656 7.238281 C 121.472656 3.792969 118.710938 1 115.308594 1 "/>
<path style="fill:none;stroke-width:2;stroke-linecap:butt;stroke-linejoin:miter;stroke:rgb(13.729858%,12.159729%,12.548828%);stroke-opacity:1;stroke-miterlimit:4;" d="M -0.00100625 0.001 C -3.40335 0.001 -6.165069 -2.791969 -6.165069 -6.237281 C -6.165069 -9.6865 -3.40335 -12.479469 -0.00100625 -12.479469 C 3.401337 -12.479469 6.163056 -9.6865 6.163056 -6.237281 C 6.163056 -2.791969 3.401337 0.001 -0.00100625 0.001 Z M -0.00100625 0.001 " transform="matrix(1,0,0,-1,115.3096,1.001)"/>
<path style=" stroke:none;fill-rule:nonzero;fill:rgb(96.403503%,78.808594%,42.222595%);fill-opacity:1;" d="M 142.285156 1 C 138.882812 1 136.121094 3.792969 136.121094 7.238281 C 136.121094 10.6875 138.882812 13.480469 142.285156 13.480469 C 145.6875 13.480469 148.449219 10.6875 148.449219 7.238281 C 148.449219 3.792969 145.6875 1 142.285156 1 "/>
<path style="fill:none;stroke-width:2;stroke-linecap:butt;stroke-linejoin:miter;stroke:rgb(13.729858%,12.159729%,12.548828%);stroke-opacity:1;stroke-miterlimit:4;" d="M -0.00104375 0 C -3.403388 0 -6.165106 -2.792969 -6.165106 -6.238281 C -6.165106 -9.6875 -3.403388 -12.480469 -0.00104375 -12.480469 C 3.4013 -12.480469 6.163019 -9.6875 6.163019 -6.238281 C 6.163019 -2.792969 3.4013 0 -0.00104375 0 Z M -0.00104375 0 " transform="matrix(1,0,0,-1,142.2862,1)"/>
<path style=" stroke:none;fill-rule:nonzero;fill:rgb(96.403503%,78.808594%,42.222595%);fill-opacity:1;" d="M 169.5625 1.320312 C 166.15625 1.320312 163.398438 4.113281 163.398438 7.554688 C 163.398438 11.003906 166.15625 13.796875 169.5625 13.796875 C 172.964844 13.796875 175.726562 11.003906 175.726562 7.554688 C 175.726562 4.113281 172.964844 1.320312 169.5625 1.320312 "/>
<g clip-path="url(#clip8)" clip-rule="nonzero">
<path style="fill:none;stroke-width:2;stroke-linecap:butt;stroke-linejoin:miter;stroke:rgb(13.729858%,12.159729%,12.548828%);stroke-opacity:1;stroke-miterlimit:4;" d="M 0.001 -0.0019125 C -3.40525 -0.0019125 -6.163062 -2.794881 -6.163062 -6.236288 C -6.163062 -9.685506 -3.40525 -12.478475 0.001 -12.478475 C 3.403344 -12.478475 6.165063 -9.685506 6.165063 -6.236288 C 6.165063 -2.794881 3.403344 -0.0019125 0.001 -0.0019125 Z M 0.001 -0.0019125 " transform="matrix(1,0,0,-1,169.5615,1.3184)"/>
</g>
</g>
</svg>
