<?xml version="1.0" encoding="UTF-8"?>
<svg xmlns="http://www.w3.org/2000/svg" xmlns:xlink="http://www.w3.org/1999/xlink" width="522pt" height="216pt" viewBox="0 0 522 216" version="1.1">
<g id="surface1">
<path style="fill:none;stroke-width:3;stroke-linecap:butt;stroke-linejoin:miter;stroke:rgb(0%,0%,0%);stroke-opacity:1;stroke-miterlimit:4;" d="M 0 0 L 64.296875 -67.664062 " transform="matrix(1,0,0,-1,109,37)"/>
<path style="fill:none;stroke-width:3;stroke-linecap:butt;stroke-linejoin:miter;stroke:rgb(0%,0%,0%);stroke-opacity:1;stroke-miterlimit:4;" d="M -0.00193125 0.0000375 L -47.2949 -90.331994 " transform="matrix(1,0,0,-1,173.2949,104.6641)"/>
<path style="fill:none;stroke-width:3;stroke-linecap:butt;stroke-linejoin:miter;stroke:rgb(0%,0%,0%);stroke-opacity:1;stroke-miterlimit:4;" d="M 0.001 0.00100625 L -84.999 90.9971 " transform="matrix(1,0,0,-1,125.999,194.9971)"/>
<path style="fill:none;stroke-width:3;stroke-linecap:butt;stroke-linejoin:miter;stroke:rgb(0%,0%,0%);stroke-opacity:1;stroke-miterlimit:4;" d="M 0 0 L 68 67 " transform="matrix(1,0,0,-1,41,104)"/>
<path style="fill:none;stroke-width:3;stroke-linecap:butt;stroke-linejoin:miter;stroke:rgb(0%,0%,0%);stroke-opacity:1;stroke-miterlimit:4;" d="M 0 0 L 5 -79 " transform="matrix(1,0,0,-1,109,37)"/>
<path style="fill:none;stroke-width:3;stroke-linecap:butt;stroke-linejoin:miter;stroke:rgb(0%,0%,0%);stroke-opacity:1;stroke-miterlimit:4;" d="M 0 0 L -102 -74.328125 " transform="matrix(1,0,0,-1,114,116)"/>
<path style="fill:none;stroke-width:2;stroke-linecap:butt;stroke-linejoin:miter;stroke:rgb(0%,0%,0%);stroke-opacity:1;stroke-miterlimit:4;" d="M -0.00053125 0.001 L 134.995563 90.333031 " transform="matrix(1,0,0,-1,256.1685,150.501)"/>
<path style="fill:none;stroke-width:2;stroke-linecap:butt;stroke-linejoin:miter;stroke:rgb(0%,0%,0%);stroke-opacity:1;stroke-miterlimit:4;" d="M -0.0019375 -0.00190625 L 89.998063 90.334031 " transform="matrix(1,0,0,-1,301.166,150.502)"/>
<path style="fill:none;stroke-width:5;stroke-linecap:butt;stroke-linejoin:miter;stroke:rgb(0%,0%,0%);stroke-opacity:1;stroke-miterlimit:4;" d="M -0.00190625 -0.00190625 L 44.666063 90.334031 " transform="matrix(1,0,0,-1,346.498,150.502)"/>
<path style="fill:none;stroke-width:2;stroke-linecap:butt;stroke-linejoin:miter;stroke:rgb(0%,0%,0%);stroke-opacity:1;stroke-miterlimit:4;" d="M 0.00003125 -0.00190625 L -44.667937 90.334031 " transform="matrix(1,0,0,-1,435.832,150.502)"/>
<path style="fill:none;stroke-width:2;stroke-linecap:butt;stroke-linejoin:miter;stroke:rgb(0%,0%,0%);stroke-opacity:1;stroke-miterlimit:4;" d="M -0.0009375 0.001 L -90.000938 90.333031 " transform="matrix(1,0,0,-1,481.165,150.501)"/>
<path style="fill:none;stroke-width:2;stroke-linecap:butt;stroke-linejoin:miter;stroke:rgb(0%,0%,0%);stroke-opacity:1;stroke-miterlimit:4;" d="M -0.0009375 0.001 L -225.661094 90.333031 " transform="matrix(1,0,0,-1,481.165,150.501)"/>
<path style="fill:none;stroke-width:2;stroke-linecap:butt;stroke-linejoin:miter;stroke:rgb(0%,0%,0%);stroke-opacity:1;stroke-miterlimit:4;" d="M -0.0009375 0.001 L -180.665 90.333031 " transform="matrix(1,0,0,-1,481.165,150.501)"/>
<path style="fill:none;stroke-width:5;stroke-linecap:butt;stroke-linejoin:miter;stroke:rgb(0%,0%,0%);stroke-opacity:1;stroke-miterlimit:4;" d="M 0.00003125 -0.00190625 L -89.999969 90.334031 " transform="matrix(1,0,0,-1,435.832,150.502)"/>
<path style="fill:none;stroke-width:5;stroke-linecap:butt;stroke-linejoin:miter;stroke:rgb(0%,0%,0%);stroke-opacity:1;stroke-miterlimit:4;" d="M -0.001 -0.00003125 L -20.829125 46.61325 " transform="matrix(1,0,0,-1,368.626,199.1445)"/>
<path style="fill:none;stroke-width:5;stroke-linecap:butt;stroke-linejoin:miter;stroke:rgb(0%,0%,0%);stroke-opacity:1;stroke-miterlimit:4;" d="M -0.001 -0.00003125 L 67.206031 48.6445 " transform="matrix(1,0,0,-1,368.626,199.1445)"/>
<path style="fill:none;stroke-width:5;stroke-linecap:butt;stroke-linejoin:miter;stroke:rgb(0%,0%,0%);stroke-opacity:1;stroke-miterlimit:4;" d="M 0.00098125 0.00053125 L -21.842769 -47.999469 " transform="matrix(1,0,0,-1,367.6748,12.1685)"/>
<path style="fill:none;stroke-width:5;stroke-linecap:butt;stroke-linejoin:miter;stroke:rgb(0%,0%,0%);stroke-opacity:1;stroke-miterlimit:4;" d="M -0.0009375 0.0009375 L 21.999062 -49.690469 " transform="matrix(1,0,0,-1,369.165,10.4775)"/>
<path style="fill:none;stroke-width:2;stroke-linecap:butt;stroke-linejoin:miter;stroke:rgb(0%,0%,0%);stroke-opacity:1;stroke-miterlimit:4;" d="M -0.00099375 0.00045 L -69.8799 -50.601112 " transform="matrix(1,0,0,-1,368.8799,9.1567)"/>
<path style="fill:none;stroke-width:2;stroke-linecap:butt;stroke-linejoin:miter;stroke:rgb(0%,0%,0%);stroke-opacity:1;stroke-miterlimit:4;" d="M 0.00190625 0.00003125 L 113.662062 49.691437 " transform="matrix(1,0,0,-1,255.502,60.168)"/>
<path style="fill:none;stroke-width:2;stroke-linecap:butt;stroke-linejoin:miter;stroke:rgb(0%,0%,0%);stroke-opacity:1;stroke-miterlimit:4;" d="M 0.001025 -0.001425 L 69.899462 -52.216269 " transform="matrix(1,0,0,-1,365.2646,7.9517)"/>
<path style="fill:none;stroke-width:2;stroke-linecap:butt;stroke-linejoin:miter;stroke:rgb(0%,0%,0%);stroke-opacity:1;stroke-miterlimit:4;" d="M -0.00099375 0.00045 L 110.842756 -49.397987 " transform="matrix(1,0,0,-1,368.8799,9.1567)"/>
<path style="fill:none;stroke-width:2;stroke-linecap:butt;stroke-linejoin:miter;stroke:rgb(0%,0%,0%);stroke-opacity:1;stroke-miterlimit:4;" d="M 0.00004375 0.00004375 L 22.289106 51.203169 " transform="matrix(1,0,0,-1,368.2773,200.7227)"/>
<path style="fill:none;stroke-width:2;stroke-linecap:butt;stroke-linejoin:miter;stroke:rgb(0%,0%,0%);stroke-opacity:1;stroke-miterlimit:4;" d="M 0.00098125 -0.000975 L 113.254887 48.190431 " transform="matrix(1,0,0,-1,367.6748,197.1084)"/>
<path style="fill:none;stroke-width:2;stroke-linecap:butt;stroke-linejoin:miter;stroke:rgb(0%,0%,0%);stroke-opacity:1;stroke-miterlimit:4;" d="M -0.001 -0.00003125 L -67.461937 48.6445 " transform="matrix(1,0,0,-1,368.626,199.1445)"/>
<path style="fill:none;stroke-width:2;stroke-linecap:butt;stroke-linejoin:miter;stroke:rgb(0%,0%,0%);stroke-opacity:1;stroke-miterlimit:4;" d="M -0.001 -0.00003125 L -112.458031 48.6445 " transform="matrix(1,0,0,-1,368.626,199.1445)"/>
<path style=" stroke:none;fill-rule:nonzero;fill:rgb(97.299194%,79.598999%,39.99939%);fill-opacity:1;" d="M 133.019531 194.996094 C 133.019531 191.128906 129.875 187.992188 126 187.992188 C 122.121094 187.992188 118.980469 191.128906 118.980469 194.996094 C 118.980469 198.863281 122.121094 202 126 202 C 129.875 202 133.019531 198.863281 133.019531 194.996094 "/>
<path style="fill:none;stroke-width:3;stroke-linecap:butt;stroke-linejoin:miter;stroke:rgb(0%,0%,0%);stroke-opacity:1;stroke-miterlimit:4;" d="M 0.00093125 0.00000625 C 0.00093125 3.867194 -3.1436 7.003913 -7.0186 7.003913 C -10.897506 7.003913 -14.038131 3.867194 -14.038131 0.00000625 C -14.038131 -3.867181 -10.897506 -7.0039 -7.0186 -7.0039 C -3.1436 -7.0039 0.00093125 -3.867181 0.00093125 0.00000625 Z M 0.00093125 0.00000625 " transform="matrix(1,0,0,-1,133.0186,194.9961)"/>
<path style=" stroke:none;fill-rule:nonzero;fill:rgb(97.299194%,79.598999%,39.99939%);fill-opacity:1;" d="M 121.019531 116 C 121.019531 112.132812 117.875 108.996094 114 108.996094 C 110.125 108.996094 106.980469 112.132812 106.980469 116 C 106.980469 119.867188 110.125 123.003906 114 123.003906 C 117.875 123.003906 121.019531 119.867188 121.019531 116 "/>
<path style="fill:none;stroke-width:3;stroke-linecap:butt;stroke-linejoin:miter;stroke:rgb(0%,0%,0%);stroke-opacity:1;stroke-miterlimit:4;" d="M 0.00003125 0.001 C 0.00003125 3.868187 -3.1445 7.004906 -7.0195 7.004906 C -10.8945 7.004906 -14.039031 3.868187 -14.039031 0.001 C -14.039031 -3.866188 -10.8945 -7.002906 -7.0195 -7.002906 C -3.1445 -7.002906 0.00003125 -3.866188 0.00003125 0.001 Z M 0.00003125 0.001 " transform="matrix(1,0,0,-1,121.0195,116.001)"/>
<path style=" stroke:none;fill-rule:nonzero;fill:rgb(97.299194%,79.598999%,39.99939%);fill-opacity:1;" d="M 48.019531 104 C 48.019531 100.132812 44.875 96.996094 41 96.996094 C 37.125 96.996094 33.980469 100.132812 33.980469 104 C 33.980469 107.867188 37.125 111.003906 41 111.003906 C 44.875 111.003906 48.019531 107.867188 48.019531 104 "/>
<path style="fill:none;stroke-width:3;stroke-linecap:butt;stroke-linejoin:miter;stroke:rgb(0%,0%,0%);stroke-opacity:1;stroke-miterlimit:4;" d="M 0.00003125 0.001 C 0.00003125 3.868187 -3.1445 7.004906 -7.0195 7.004906 C -10.8945 7.004906 -14.039031 3.868187 -14.039031 0.001 C -14.039031 -3.866188 -10.8945 -7.002906 -7.0195 -7.002906 C -3.1445 -7.002906 0.00003125 -3.866188 0.00003125 0.001 Z M 0.00003125 0.001 " transform="matrix(1,0,0,-1,48.0195,104.001)"/>
<path style=" stroke:none;fill-rule:nonzero;fill:rgb(97.299194%,79.598999%,39.99939%);fill-opacity:1;" d="M 19.019531 190.328125 C 19.019531 186.460938 15.875 183.324219 12 183.324219 C 8.125 183.324219 4.980469 186.460938 4.980469 190.328125 C 4.980469 194.191406 8.125 197.332031 12 197.332031 C 15.875 197.332031 19.019531 194.191406 19.019531 190.328125 "/>
<path style="fill:none;stroke-width:3;stroke-linecap:butt;stroke-linejoin:miter;stroke:rgb(0%,0%,0%);stroke-opacity:1;stroke-miterlimit:4;" d="M 0.00003125 -0.001925 C 0.00003125 3.865263 -3.1445 7.001981 -7.0195 7.001981 C -10.8945 7.001981 -14.039031 3.865263 -14.039031 -0.001925 C -14.039031 -3.865206 -10.8945 -7.005831 -7.0195 -7.005831 C -3.1445 -7.005831 0.00003125 -3.865206 0.00003125 -0.001925 Z M 0.00003125 -0.001925 " transform="matrix(1,0,0,-1,19.0195,190.3262)"/>
<path style=" stroke:none;fill-rule:nonzero;fill:rgb(97.299194%,79.598999%,39.99939%);fill-opacity:1;" d="M 180.316406 104.664062 C 180.316406 100.796875 177.171875 97.660156 173.292969 97.660156 C 169.417969 97.660156 166.273438 100.796875 166.273438 104.664062 C 166.273438 108.53125 169.417969 111.667969 173.292969 111.667969 C 177.171875 111.667969 180.316406 108.53125 180.316406 104.664062 "/>
<path style="fill:none;stroke-width:3;stroke-linecap:butt;stroke-linejoin:miter;stroke:rgb(0%,0%,0%);stroke-opacity:1;stroke-miterlimit:4;" d="M 0.00190625 0.0000375 C 0.00190625 3.867225 -3.142625 7.003944 -7.021531 7.003944 C -10.896531 7.003944 -14.041062 3.867225 -14.041062 0.0000375 C -14.041062 -3.86715 -10.896531 -7.003869 -7.021531 -7.003869 C -3.142625 -7.003869 0.00190625 -3.86715 0.00190625 0.0000375 Z M 0.00190625 0.0000375 " transform="matrix(1,0,0,-1,180.3145,104.6641)"/>
<path style=" stroke:none;fill-rule:nonzero;fill:rgb(97.299194%,79.598999%,39.99939%);fill-opacity:1;" d="M 116.019531 37 C 116.019531 33.132812 112.875 29.996094 109 29.996094 C 105.125 29.996094 101.980469 33.132812 101.980469 37 C 101.980469 40.867188 105.125 44.003906 109 44.003906 C 112.875 44.003906 116.019531 40.867188 116.019531 37 "/>
<path style="fill:none;stroke-width:3;stroke-linecap:butt;stroke-linejoin:miter;stroke:rgb(0%,0%,0%);stroke-opacity:1;stroke-miterlimit:4;" d="M 0.00003125 0.001 C 0.00003125 3.868188 -3.1445 7.004906 -7.0195 7.004906 C -10.8945 7.004906 -14.039031 3.868188 -14.039031 0.001 C -14.039031 -3.866187 -10.8945 -7.002906 -7.0195 -7.002906 C -3.1445 -7.002906 0.00003125 -3.866187 0.00003125 0.001 Z M 0.00003125 0.001 " transform="matrix(1,0,0,-1,116.0195,37.001)"/>
<path style=" stroke:none;fill-rule:nonzero;fill:rgb(97.299194%,79.598999%,39.99939%);fill-opacity:1;" d="M 481.164062 143.480469 C 477.296875 143.480469 474.160156 146.625 474.160156 150.5 C 474.160156 154.378906 477.296875 157.519531 481.164062 157.519531 C 485.03125 157.519531 488.167969 154.378906 488.167969 150.5 C 488.167969 146.625 485.03125 143.480469 481.164062 143.480469 "/>
<path style="fill:none;stroke-width:3;stroke-linecap:butt;stroke-linejoin:miter;stroke:rgb(0%,0%,0%);stroke-opacity:1;stroke-miterlimit:4;" d="M -0.0000375 0.00093125 C -3.867225 0.00093125 -7.003944 -3.1436 -7.003944 -7.0186 C -7.003944 -10.897506 -3.867225 -14.038131 -0.0000375 -14.038131 C 3.86715 -14.038131 7.003869 -10.897506 7.003869 -7.0186 C 7.003869 -3.1436 3.86715 0.00093125 -0.0000375 0.00093125 Z M -0.0000375 0.00093125 " transform="matrix(1,0,0,-1,481.1641,143.4814)"/>
<path style=" stroke:none;fill-rule:nonzero;fill:rgb(97.299194%,79.598999%,39.99939%);fill-opacity:1;" d="M 435.832031 143.480469 C 431.960938 143.480469 428.828125 146.625 428.828125 150.5 C 428.828125 154.378906 431.960938 157.519531 435.832031 157.519531 C 439.699219 157.519531 442.835938 154.378906 442.835938 150.5 C 442.835938 146.625 439.699219 143.480469 435.832031 143.480469 "/>
<path style="fill:none;stroke-width:3;stroke-linecap:butt;stroke-linejoin:miter;stroke:rgb(0%,0%,0%);stroke-opacity:1;stroke-miterlimit:4;" d="M 0.00093125 0.00193125 C -3.870162 0.00193125 -7.002975 -3.1426 -7.002975 -7.0176 C -7.002975 -10.896506 -3.870162 -14.037131 0.00093125 -14.037131 C 3.868119 -14.037131 7.004838 -10.896506 7.004838 -7.0176 C 7.004838 -3.1426 3.868119 0.00193125 0.00093125 0.00193125 Z M 0.00093125 0.00193125 " transform="matrix(1,0,0,-1,435.8311,143.4824)"/>
<path style=" stroke:none;fill-rule:nonzero;fill:rgb(97.299194%,79.598999%,39.99939%);fill-opacity:1;" d="M 391.832031 143.480469 C 387.960938 143.480469 384.828125 146.625 384.828125 150.5 C 384.828125 154.378906 387.960938 157.519531 391.832031 157.519531 C 395.699219 157.519531 398.835938 154.378906 398.835938 150.5 C 398.835938 146.625 395.699219 143.480469 391.832031 143.480469 "/>
<path style="fill:none;stroke-width:3;stroke-linecap:butt;stroke-linejoin:miter;stroke:rgb(0%,0%,0%);stroke-opacity:1;stroke-miterlimit:4;" d="M 0.00093125 0.00193125 C -3.870162 0.00193125 -7.002975 -3.1426 -7.002975 -7.0176 C -7.002975 -10.896506 -3.870162 -14.037131 0.00093125 -14.037131 C 3.868119 -14.037131 7.004838 -10.896506 7.004838 -7.0176 C 7.004838 -3.1426 3.868119 0.00193125 0.00093125 0.00193125 Z M 0.00093125 0.00193125 " transform="matrix(1,0,0,-1,391.8311,143.4824)"/>
<path style=" stroke:none;fill-rule:nonzero;fill:rgb(97.299194%,79.598999%,39.99939%);fill-opacity:1;" d="M 346.496094 143.480469 C 342.628906 143.480469 339.496094 146.625 339.496094 150.5 C 339.496094 154.378906 342.628906 157.519531 346.496094 157.519531 C 350.363281 157.519531 353.5 154.378906 353.5 150.5 C 353.5 146.625 350.363281 143.480469 346.496094 143.480469 "/>
<path style="fill:none;stroke-width:3;stroke-linecap:butt;stroke-linejoin:miter;stroke:rgb(0%,0%,0%);stroke-opacity:1;stroke-miterlimit:4;" d="M -0.00100625 0.00193125 C -3.868194 0.00193125 -7.001006 -3.1426 -7.001006 -7.0176 C -7.001006 -10.896506 -3.868194 -14.037131 -0.00100625 -14.037131 C 3.866181 -14.037131 7.0029 -10.896506 7.0029 -7.0176 C 7.0029 -3.1426 3.866181 0.00193125 -0.00100625 0.00193125 Z M -0.00100625 0.00193125 " transform="matrix(1,0,0,-1,346.4971,143.4824)"/>
<path style=" stroke:none;fill-rule:nonzero;fill:rgb(97.299194%,79.598999%,39.99939%);fill-opacity:1;" d="M 301.164062 143.480469 C 297.296875 143.480469 294.160156 146.625 294.160156 150.5 C 294.160156 154.378906 297.296875 157.519531 301.164062 157.519531 C 305.03125 157.519531 308.167969 154.378906 308.167969 150.5 C 308.167969 146.625 305.03125 143.480469 301.164062 143.480469 "/>
<path style="fill:none;stroke-width:3;stroke-linecap:butt;stroke-linejoin:miter;stroke:rgb(0%,0%,0%);stroke-opacity:1;stroke-miterlimit:4;" d="M -0.0000375 0.00193125 C -3.867225 0.00193125 -7.003944 -3.1426 -7.003944 -7.0176 C -7.003944 -10.896506 -3.867225 -14.037131 -0.0000375 -14.037131 C 3.86715 -14.037131 7.003869 -10.896506 7.003869 -7.0176 C 7.003869 -3.1426 3.86715 0.00193125 -0.0000375 0.00193125 Z M -0.0000375 0.00193125 " transform="matrix(1,0,0,-1,301.1641,143.4824)"/>
<path style=" stroke:none;fill-rule:nonzero;fill:rgb(97.299194%,79.598999%,39.99939%);fill-opacity:1;" d="M 256.167969 143.480469 C 252.296875 143.480469 249.164062 146.625 249.164062 150.5 C 249.164062 154.378906 252.296875 157.519531 256.167969 157.519531 C 260.035156 157.519531 263.171875 154.378906 263.171875 150.5 C 263.171875 146.625 260.035156 143.480469 256.167969 143.480469 "/>
<path style="fill:none;stroke-width:3;stroke-linecap:butt;stroke-linejoin:miter;stroke:rgb(0%,0%,0%);stroke-opacity:1;stroke-miterlimit:4;" d="M 0.00046875 0.00093125 C -3.870625 0.00093125 -7.003438 -3.1436 -7.003438 -7.0186 C -7.003438 -10.897506 -3.870625 -14.038131 0.00046875 -14.038131 C 3.867656 -14.038131 7.004375 -10.897506 7.004375 -7.0186 C 7.004375 -3.1436 3.867656 0.00093125 0.00046875 0.00093125 Z M 0.00046875 0.00093125 " transform="matrix(1,0,0,-1,256.1675,143.4814)"/>
<path style=" stroke:none;fill-rule:nonzero;fill:rgb(97.299194%,79.598999%,39.99939%);fill-opacity:1;" d="M 480.496094 53.148438 C 476.628906 53.148438 473.496094 56.292969 473.496094 60.167969 C 473.496094 64.042969 476.628906 67.1875 480.496094 67.1875 C 484.363281 67.1875 487.5 64.042969 487.5 60.167969 C 487.5 56.292969 484.363281 53.148438 480.496094 53.148438 "/>
<path style="fill:none;stroke-width:3;stroke-linecap:butt;stroke-linejoin:miter;stroke:rgb(0%,0%,0%);stroke-opacity:1;stroke-miterlimit:4;" d="M -0.00100625 -0.0000375 C -3.868194 -0.0000375 -7.001006 -3.144569 -7.001006 -7.019569 C -7.001006 -10.894569 -3.868194 -14.0391 -0.00100625 -14.0391 C 3.866181 -14.0391 7.0029 -10.894569 7.0029 -7.019569 C 7.0029 -3.144569 3.866181 -0.0000375 -0.00100625 -0.0000375 Z M -0.00100625 -0.0000375 " transform="matrix(1,0,0,-1,480.4971,53.1484)"/>
<path style=" stroke:none;fill-rule:nonzero;fill:rgb(97.299194%,79.598999%,39.99939%);fill-opacity:1;" d="M 435.164062 53.148438 C 431.296875 53.148438 428.164062 56.292969 428.164062 60.167969 C 428.164062 64.046875 431.296875 67.1875 435.164062 67.1875 C 439.03125 67.1875 442.167969 64.046875 442.167969 60.167969 C 442.167969 56.292969 439.03125 53.148438 435.164062 53.148438 "/>
<path style="fill:none;stroke-width:3;stroke-linecap:butt;stroke-linejoin:miter;stroke:rgb(0%,0%,0%);stroke-opacity:1;stroke-miterlimit:4;" d="M -0.0009375 0.0009625 C -3.868125 0.0009625 -7.000938 -3.143569 -7.000938 -7.018569 C -7.000938 -10.897475 -3.868125 -14.0381 -0.0009375 -14.0381 C 3.86625 -14.0381 7.002969 -10.897475 7.002969 -7.018569 C 7.002969 -3.143569 3.86625 0.0009625 -0.0009375 0.0009625 Z M -0.0009375 0.0009625 " transform="matrix(1,0,0,-1,435.165,53.1494)"/>
<path style=" stroke:none;fill-rule:nonzero;fill:rgb(97.299194%,79.598999%,39.99939%);fill-opacity:1;" d="M 391.164062 53.148438 C 387.296875 53.148438 384.164062 56.292969 384.164062 60.167969 C 384.164062 64.046875 387.296875 67.1875 391.164062 67.1875 C 395.03125 67.1875 398.167969 64.046875 398.167969 60.167969 C 398.167969 56.292969 395.03125 53.148438 391.164062 53.148438 "/>
<path style="fill:none;stroke-width:3;stroke-linecap:butt;stroke-linejoin:miter;stroke:rgb(0%,0%,0%);stroke-opacity:1;stroke-miterlimit:4;" d="M -0.0009375 0.0009625 C -3.868125 0.0009625 -7.000938 -3.143569 -7.000938 -7.018569 C -7.000938 -10.897475 -3.868125 -14.0381 -0.0009375 -14.0381 C 3.86625 -14.0381 7.002969 -10.897475 7.002969 -7.018569 C 7.002969 -3.143569 3.86625 0.0009625 -0.0009375 0.0009625 Z M -0.0009375 0.0009625 " transform="matrix(1,0,0,-1,391.165,53.1494)"/>
<path style=" stroke:none;fill-rule:nonzero;fill:rgb(97.299194%,79.598999%,39.99939%);fill-opacity:1;" d="M 345.832031 53.148438 C 341.960938 53.148438 338.828125 56.292969 338.828125 60.167969 C 338.828125 64.046875 341.960938 67.1875 345.832031 67.1875 C 349.695312 67.1875 352.835938 64.046875 352.835938 60.167969 C 352.835938 56.292969 349.695312 53.148438 345.832031 53.148438 "/>
<path style="fill:none;stroke-width:3;stroke-linecap:butt;stroke-linejoin:miter;stroke:rgb(0%,0%,0%);stroke-opacity:1;stroke-miterlimit:4;" d="M 0.00193125 0.0009625 C -3.869162 0.0009625 -7.001975 -3.143569 -7.001975 -7.018569 C -7.001975 -10.897475 -3.869162 -14.0381 0.00193125 -14.0381 C 3.865213 -14.0381 7.005838 -10.897475 7.005838 -7.018569 C 7.005838 -3.143569 3.865213 0.0009625 0.00193125 0.0009625 Z M 0.00193125 0.0009625 " transform="matrix(1,0,0,-1,345.8301,53.1494)"/>
<path style=" stroke:none;fill-rule:nonzero;fill:rgb(97.299194%,79.598999%,39.99939%);fill-opacity:1;" d="M 300.496094 53.148438 C 296.628906 53.148438 293.496094 56.292969 293.496094 60.167969 C 293.496094 64.046875 296.628906 67.1875 300.496094 67.1875 C 304.363281 67.1875 307.503906 64.046875 307.503906 60.167969 C 307.503906 56.292969 304.363281 53.148438 300.496094 53.148438 "/>
<path style="fill:none;stroke-width:3;stroke-linecap:butt;stroke-linejoin:miter;stroke:rgb(0%,0%,0%);stroke-opacity:1;stroke-miterlimit:4;" d="M -0.00190625 0.0009625 C -3.869094 0.0009625 -7.001906 -3.143569 -7.001906 -7.018569 C -7.001906 -10.897475 -3.869094 -14.0381 -0.00190625 -14.0381 C 3.865281 -14.0381 7.005906 -10.897475 7.005906 -7.018569 C 7.005906 -3.143569 3.865281 0.0009625 -0.00190625 0.0009625 Z M -0.00190625 0.0009625 " transform="matrix(1,0,0,-1,300.498,53.1494)"/>
<path style=" stroke:none;fill-rule:nonzero;fill:rgb(97.299194%,79.598999%,39.99939%);fill-opacity:1;" d="M 255.5 53.148438 C 251.632812 53.148438 248.5 56.292969 248.5 60.167969 C 248.5 64.042969 251.632812 67.1875 255.5 67.1875 C 259.367188 67.1875 262.503906 64.042969 262.503906 60.167969 C 262.503906 56.292969 259.367188 53.148438 255.5 53.148438 "/>
<path style="fill:none;stroke-width:3;stroke-linecap:butt;stroke-linejoin:miter;stroke:rgb(0%,0%,0%);stroke-opacity:1;stroke-miterlimit:4;" d="M -0.001 -0.0000375 C -3.868188 -0.0000375 -7.001 -3.144569 -7.001 -7.019569 C -7.001 -10.894569 -3.868188 -14.0391 -0.001 -14.0391 C 3.866187 -14.0391 7.002906 -10.894569 7.002906 -7.019569 C 7.002906 -3.144569 3.866187 -0.0000375 -0.001 -0.0000375 Z M -0.001 -0.0000375 " transform="matrix(1,0,0,-1,255.501,53.1484)"/>
<path style=" stroke:none;fill-rule:nonzero;fill:rgb(97.299194%,79.598999%,39.99939%);fill-opacity:1;" d="M 368.625 192.125 C 364.757812 192.125 361.621094 195.269531 361.621094 199.144531 C 361.621094 203.019531 364.757812 206.164062 368.625 206.164062 C 372.492188 206.164062 375.628906 203.019531 375.628906 199.144531 C 375.628906 195.269531 372.492188 192.125 368.625 192.125 "/>
<path style="fill:none;stroke-width:3;stroke-linecap:butt;stroke-linejoin:miter;stroke:rgb(0%,0%,0%);stroke-opacity:1;stroke-miterlimit:4;" d="M 0 0 C -3.867188 0 -7.003906 -3.144531 -7.003906 -7.019531 C -7.003906 -10.894531 -3.867188 -14.039062 0 -14.039062 C 3.867188 -14.039062 7.003906 -10.894531 7.003906 -7.019531 C 7.003906 -3.144531 3.867188 0 0 0 Z M 0 0 " transform="matrix(1,0,0,-1,368.625,192.125)"/>
<path style=" stroke:none;fill-rule:nonzero;fill:rgb(97.299194%,79.598999%,39.99939%);fill-opacity:1;" d="M 369.164062 3.457031 C 365.296875 3.457031 362.160156 6.601562 362.160156 10.476562 C 362.160156 14.355469 365.296875 17.496094 369.164062 17.496094 C 373.03125 17.496094 376.167969 14.355469 376.167969 10.476562 C 376.167969 6.601562 373.03125 3.457031 369.164062 3.457031 "/>
<path style="fill:none;stroke-width:3;stroke-linecap:butt;stroke-linejoin:miter;stroke:rgb(0%,0%,0%);stroke-opacity:1;stroke-miterlimit:4;" d="M -0.0000375 0.00096875 C -3.867225 0.00096875 -7.003944 -3.143563 -7.003944 -7.018563 C -7.003944 -10.897469 -3.867225 -14.038094 -0.0000375 -14.038094 C 3.86715 -14.038094 7.003869 -10.897469 7.003869 -7.018563 C 7.003869 -3.143563 3.86715 0.00096875 -0.0000375 0.00096875 Z M -0.0000375 0.00096875 " transform="matrix(1,0,0,-1,369.1641,3.458)"/>
</g>
</svg>
