<?xml version="1.0" encoding="UTF-8"?>
<svg xmlns="http://www.w3.org/2000/svg" xmlns:xlink="http://www.w3.org/1999/xlink" width="288pt" height="252pt" viewBox="0 0 288 252" version="1.1">
<g id="surface1">
<path style="fill:none;stroke-width:2;stroke-linecap:butt;stroke-linejoin:miter;stroke:rgb(0%,0%,0%);stroke-opacity:1;stroke-miterlimit:4;" d="M -0.0019375 -0.00191875 L -77.525375 -41.564419 " transform="matrix(1,0,0,-1,160.3535,14.7598)"/>
<path style="fill:none;stroke-width:2;stroke-linecap:butt;stroke-linejoin:miter;stroke:rgb(0%,0%,0%);stroke-opacity:1;stroke-miterlimit:4;" d="M -0.00004375 0.00148125 L -74.0977 -52.408675 " transform="matrix(1,0,0,-1,82.3477,58.3257)"/>
<path style="fill:none;stroke-width:2;stroke-linecap:butt;stroke-linejoin:miter;stroke:rgb(0%,0%,0%);stroke-opacity:1;stroke-miterlimit:4;" d="M 0.001025 0.001 L -72.831006 119.012719 " transform="matrix(1,0,0,-1,154.5771,173.001)"/>
<path style="fill:none;stroke-width:2;stroke-linecap:butt;stroke-linejoin:miter;stroke:rgb(0%,0%,0%);stroke-opacity:1;stroke-miterlimit:4;" d="M 0.000025 0.001025 L -55.42185 -59.6396 " transform="matrix(1,0,0,-1,146.2031,110.7354)"/>
<path style="fill:none;stroke-width:2;stroke-linecap:butt;stroke-linejoin:miter;stroke:rgb(0%,0%,0%);stroke-opacity:1;stroke-miterlimit:4;" d="M 0.00000625 0.00095 L 150.601569 -72.893581 " transform="matrix(1,0,0,-1,93.1914,166.1572)"/>
<path style="fill:none;stroke-width:2;stroke-linecap:butt;stroke-linejoin:miter;stroke:rgb(0%,0%,0%);stroke-opacity:1;stroke-miterlimit:4;" d="M -0.0009875 0.00003125 L 35.374012 67.808625 " transform="matrix(1,0,0,-1,241.3838,240.8555)"/>
<path style="fill:none;stroke-width:2;stroke-linecap:butt;stroke-linejoin:miter;stroke:rgb(0%,0%,0%);stroke-opacity:1;stroke-miterlimit:4;" d="M 0.00095625 0.000975 L -140.362325 -64.456056 " transform="matrix(1,0,0,-1,275.7217,171.5791)"/>
<path style="fill:none;stroke-width:2;stroke-linecap:butt;stroke-linejoin:miter;stroke:rgb(0%,0%,0%);stroke-opacity:1;stroke-miterlimit:4;" d="M 0.0005125 0.001925 L 19.277856 64.458956 " transform="matrix(1,0,0,-1,134.7573,239.0488)"/>
<path style="fill:none;stroke-width:2;stroke-linecap:butt;stroke-linejoin:miter;stroke:rgb(0%,0%,0%);stroke-opacity:1;stroke-miterlimit:4;" d="M 0.00049375 0.00099375 L -129.409663 126.200212 " transform="matrix(1,0,0,-1,137.0581,235.1299)"/>
<path style="fill:none;stroke-width:2;stroke-linecap:butt;stroke-linejoin:miter;stroke:rgb(0%,0%,0%);stroke-opacity:1;stroke-miterlimit:4;" d="M -0.00094375 -0.00150625 L -14.457975 -98.794475 " transform="matrix(1,0,0,-1,160.6611,11.9399)"/>
<path style="fill:none;stroke-width:2;stroke-linecap:butt;stroke-linejoin:miter;stroke:rgb(0%,0%,0%);stroke-opacity:1;stroke-miterlimit:4;" d="M 0.001925 0.00048125 L 147.1113 -48.9878 " transform="matrix(1,0,0,-1,82.8262,56.3247)"/>
<path style="fill:none;stroke-width:2;stroke-linecap:butt;stroke-linejoin:miter;stroke:rgb(0%,0%,0%);stroke-opacity:1;stroke-miterlimit:4;" d="M -0.001 0.001 L 46.819312 -67.733375 " transform="matrix(1,0,0,-1,229.9385,105.3135)"/>
<path style="fill:none;stroke-width:2;stroke-linecap:butt;stroke-linejoin:miter;stroke:rgb(0%,0%,0%);stroke-opacity:1;stroke-miterlimit:4;" d="M 0.00095625 0.00095625 L -5.2217 64.129863 " transform="matrix(1,0,0,-1,154.0342,174.5908)"/>
<path style=" stroke:none;fill-rule:nonzero;fill:rgb(97.299194%,79.598999%,39.99939%);fill-opacity:1;" d="M 144.078125 235.128906 C 144.078125 231.261719 140.933594 228.125 137.058594 228.125 C 133.179688 228.125 130.039062 231.261719 130.039062 235.128906 C 130.039062 238.996094 133.179688 242.132812 137.058594 242.132812 C 140.933594 242.132812 144.078125 238.996094 144.078125 235.128906 "/>
<path style="fill:none;stroke-width:3;stroke-linecap:butt;stroke-linejoin:miter;stroke:rgb(0%,0%,0%);stroke-opacity:1;stroke-miterlimit:4;" d="M 0.001025 -0.00000625 C 0.001025 3.867181 -3.143506 7.0039 -7.018506 7.0039 C -10.897413 7.0039 -14.038038 3.867181 -14.038038 -0.00000625 C -14.038038 -3.867194 -10.897413 -7.003913 -7.018506 -7.003913 C -3.143506 -7.003913 0.001025 -3.867194 0.001025 -0.00000625 Z M 0.001025 -0.00000625 " transform="matrix(1,0,0,-1,144.0771,235.1289)"/>
<path style=" stroke:none;fill-rule:nonzero;fill:rgb(97.299194%,79.598999%,39.99939%);fill-opacity:1;" d="M 161.597656 173.003906 C 161.597656 169.132812 158.453125 165.996094 154.578125 165.996094 C 150.699219 165.996094 147.558594 169.132812 147.558594 173.003906 C 147.558594 176.867188 150.699219 180.003906 154.578125 180.003906 C 158.453125 180.003906 161.597656 176.867188 161.597656 173.003906 "/>
<path style="fill:none;stroke-width:3;stroke-linecap:butt;stroke-linejoin:miter;stroke:rgb(0%,0%,0%);stroke-opacity:1;stroke-miterlimit:4;" d="M 0.00095625 -0.00190625 C 0.00095625 3.869188 -3.143575 7.005906 -7.018575 7.005906 C -10.897481 7.005906 -14.038106 3.869188 -14.038106 -0.00190625 C -14.038106 -3.865187 -10.897481 -7.001906 -7.018575 -7.001906 C -3.143575 -7.001906 0.00095625 -3.865187 0.00095625 -0.00190625 Z M 0.00095625 -0.00190625 " transform="matrix(1,0,0,-1,161.5967,173.002)"/>
<path style=" stroke:none;fill-rule:nonzero;fill:rgb(97.299194%,79.598999%,39.99939%);fill-opacity:1;" d="M 283.777344 173.050781 C 283.777344 169.179688 280.632812 166.046875 276.757812 166.046875 C 272.878906 166.046875 269.738281 169.179688 269.738281 173.050781 C 269.738281 176.917969 272.878906 180.050781 276.757812 180.050781 C 280.632812 180.050781 283.777344 176.917969 283.777344 173.050781 "/>
<path style="fill:none;stroke-width:3;stroke-linecap:butt;stroke-linejoin:miter;stroke:rgb(0%,0%,0%);stroke-opacity:1;stroke-miterlimit:4;" d="M 0.00094375 -0.00098125 C 0.00094375 3.870113 -3.143587 7.002925 -7.018587 7.002925 C -10.897494 7.002925 -14.038119 3.870113 -14.038119 -0.00098125 C -14.038119 -3.868169 -10.897494 -7.000981 -7.018587 -7.000981 C -3.143587 -7.000981 0.00094375 -3.868169 0.00094375 -0.00098125 Z M 0.00094375 -0.00098125 " transform="matrix(1,0,0,-1,283.7764,173.0498)"/>
<path style=" stroke:none;fill-rule:nonzero;fill:rgb(97.299194%,79.598999%,39.99939%);fill-opacity:1;" d="M 248.753906 238.289062 C 248.753906 234.421875 245.609375 231.289062 241.734375 231.289062 C 237.855469 231.289062 234.714844 234.421875 234.714844 238.289062 C 234.714844 242.15625 237.855469 245.292969 241.734375 245.292969 C 245.609375 245.292969 248.753906 242.15625 248.753906 238.289062 "/>
<path style="fill:none;stroke-width:3;stroke-linecap:butt;stroke-linejoin:miter;stroke:rgb(0%,0%,0%);stroke-opacity:1;stroke-miterlimit:4;" d="M 0.00100625 0.0009375 C 0.00100625 3.868125 -3.143525 7.000937 -7.018525 7.000937 C -10.897431 7.000937 -14.038056 3.868125 -14.038056 0.0009375 C -14.038056 -3.86625 -10.897431 -7.002969 -7.018525 -7.002969 C -3.143525 -7.002969 0.00100625 -3.86625 0.00100625 0.0009375 Z M 0.00100625 0.0009375 " transform="matrix(1,0,0,-1,248.7529,238.29)"/>
<path style=" stroke:none;fill-rule:nonzero;fill:rgb(97.299194%,79.598999%,39.99939%);fill-opacity:1;" d="M 155.832031 110.460938 C 155.832031 106.589844 152.6875 103.457031 148.8125 103.457031 C 144.933594 103.457031 141.792969 106.589844 141.792969 110.460938 C 141.792969 114.328125 144.933594 117.464844 148.8125 117.464844 C 152.6875 117.464844 155.832031 114.328125 155.832031 110.460938 "/>
<path style="fill:none;stroke-width:3;stroke-linecap:butt;stroke-linejoin:miter;stroke:rgb(0%,0%,0%);stroke-opacity:1;stroke-miterlimit:4;" d="M 0.00093125 -0.0009375 C 0.00093125 3.870156 -3.1436 7.002969 -7.0186 7.002969 C -10.897506 7.002969 -14.038131 3.870156 -14.038131 -0.0009375 C -14.038131 -3.868125 -10.897506 -7.004844 -7.0186 -7.004844 C -3.1436 -7.004844 0.00093125 -3.868125 0.00093125 -0.0009375 Z M 0.00093125 -0.0009375 " transform="matrix(1,0,0,-1,155.8311,110.46)"/>
<path style=" stroke:none;fill-rule:nonzero;fill:rgb(97.299194%,79.598999%,39.99939%);fill-opacity:1;" d="M 16.835938 109.0625 C 16.835938 105.191406 13.691406 102.058594 9.816406 102.058594 C 5.941406 102.058594 2.796875 105.191406 2.796875 109.0625 C 2.796875 112.929688 5.941406 116.0625 9.816406 116.0625 C 13.691406 116.0625 16.835938 112.929688 16.835938 109.0625 "/>
<path style="fill:none;stroke-width:3;stroke-linecap:butt;stroke-linejoin:miter;stroke:rgb(0%,0%,0%);stroke-opacity:1;stroke-miterlimit:4;" d="M -0.0009625 -0.001 C -0.0009625 3.870094 -3.145494 7.002906 -7.020494 7.002906 C -10.895494 7.002906 -14.040025 3.870094 -14.040025 -0.001 C -14.040025 -3.868188 -10.895494 -7.001 -7.020494 -7.001 C -3.145494 -7.001 -0.0009625 -3.868188 -0.0009625 -0.001 Z M -0.0009625 -0.001 " transform="matrix(1,0,0,-1,16.8369,109.0615)"/>
<path style=" stroke:none;fill-rule:nonzero;fill:rgb(97.299194%,79.598999%,39.99939%);fill-opacity:1;" d="M 231.140625 99.5 C 227.273438 99.5 224.140625 102.640625 224.140625 106.519531 C 224.140625 110.394531 227.273438 113.539062 231.140625 113.539062 C 235.007812 113.539062 238.144531 110.394531 238.144531 106.519531 C 238.144531 102.640625 235.007812 99.5 231.140625 99.5 "/>
<path style="fill:none;stroke-width:3;stroke-linecap:butt;stroke-linejoin:miter;stroke:rgb(0%,0%,0%);stroke-opacity:1;stroke-miterlimit:4;" d="M -0.000975 -0.001 C -3.868162 -0.001 -7.000975 -3.141625 -7.000975 -7.020531 C -7.000975 -10.895531 -3.868162 -14.040063 -0.000975 -14.040063 C 3.866213 -14.040063 7.002931 -10.895531 7.002931 -7.020531 C 7.002931 -3.141625 3.866213 -0.001 -0.000975 -0.001 Z M -0.000975 -0.001 " transform="matrix(1,0,0,-1,231.1416,99.499)"/>
<path style=" stroke:none;fill-rule:nonzero;fill:rgb(97.299194%,79.598999%,39.99939%);fill-opacity:1;" d="M 92.589844 162.359375 C 88.71875 162.359375 85.585938 165.5 85.585938 169.378906 C 85.585938 173.253906 88.71875 176.398438 92.589844 176.398438 C 96.457031 176.398438 99.59375 173.253906 99.59375 169.378906 C 99.59375 165.5 96.457031 162.359375 92.589844 162.359375 "/>
<path style="fill:none;stroke-width:3;stroke-linecap:butt;stroke-linejoin:miter;stroke:rgb(0%,0%,0%);stroke-opacity:1;stroke-miterlimit:4;" d="M 0.00094375 -0.000975 C -3.87015 -0.000975 -7.002962 -3.1416 -7.002962 -7.020506 C -7.002962 -10.895506 -3.87015 -14.040038 0.00094375 -14.040038 C 3.868131 -14.040038 7.00485 -10.895506 7.00485 -7.020506 C 7.00485 -3.1416 3.868131 -0.000975 0.00094375 -0.000975 Z M 0.00094375 -0.000975 " transform="matrix(1,0,0,-1,92.5889,162.3584)"/>
<path style=" stroke:none;fill-rule:nonzero;fill:rgb(97.299194%,79.598999%,39.99939%);fill-opacity:1;" d="M 160.351562 7.738281 C 156.484375 7.738281 153.351562 10.882812 153.351562 14.757812 C 153.351562 18.636719 156.484375 21.777344 160.351562 21.777344 C 164.21875 21.777344 167.355469 18.636719 167.355469 14.757812 C 167.355469 10.882812 164.21875 7.738281 160.351562 7.738281 "/>
<path style="fill:none;stroke-width:3;stroke-linecap:butt;stroke-linejoin:miter;stroke:rgb(0%,0%,0%);stroke-opacity:1;stroke-miterlimit:4;" d="M -0.0009375 0.00191875 C -3.868125 0.00191875 -7.000938 -3.142612 -7.000938 -7.017612 C -7.000938 -10.896519 -3.868125 -14.037144 -0.0009375 -14.037144 C 3.86625 -14.037144 7.002969 -10.896519 7.002969 -7.017612 C 7.002969 -3.142612 3.86625 0.00191875 -0.0009375 0.00191875 Z M -0.0009375 0.00191875 " transform="matrix(1,0,0,-1,160.3525,7.7402)"/>
<path style=" stroke:none;fill-rule:nonzero;fill:rgb(97.299194%,79.598999%,39.99939%);fill-opacity:1;" d="M 82.824219 49.304688 C 78.957031 49.304688 75.824219 52.449219 75.824219 56.324219 C 75.824219 60.203125 78.957031 63.34375 82.824219 63.34375 C 86.691406 63.34375 89.828125 60.203125 89.828125 56.324219 C 89.828125 52.449219 86.691406 49.304688 82.824219 49.304688 "/>
<path style="fill:none;stroke-width:3;stroke-linecap:butt;stroke-linejoin:miter;stroke:rgb(0%,0%,0%);stroke-opacity:1;stroke-miterlimit:4;" d="M -0.00098125 0.0005125 C -3.868169 0.0005125 -7.000981 -3.144019 -7.000981 -7.019019 C -7.000981 -10.897925 -3.868169 -14.03855 -0.00098125 -14.03855 C 3.866206 -14.03855 7.002925 -10.897925 7.002925 -7.019019 C 7.002925 -3.144019 3.866206 0.0005125 -0.00098125 0.0005125 Z M -0.00098125 0.0005125 " transform="matrix(1,0,0,-1,82.8252,49.3052)"/>
</g>
</svg>
