<?xml version="1.0" encoding="UTF-8"?>
<svg xmlns="http://www.w3.org/2000/svg" xmlns:xlink="http://www.w3.org/1999/xlink" width="288pt" height="288pt" viewBox="0 0 288 288" version="1.1">
<g id="surface1">
<path style=" stroke:none;fill-rule:nonzero;fill:rgb(96.403503%,78.808594%,42.222595%);fill-opacity:1;" d="M 13.707031 9.882812 C 13.707031 7.738281 11.824219 6 9.5 6 C 7.175781 6 5.292969 7.738281 5.292969 9.882812 C 5.292969 12.027344 7.175781 13.765625 9.5 13.765625 C 11.824219 13.765625 13.707031 12.027344 13.707031 9.882812 "/>
<path style="fill:none;stroke-width:2;stroke-linecap:butt;stroke-linejoin:miter;stroke:rgb(13.729858%,12.159729%,12.548828%);stroke-opacity:1;stroke-miterlimit:4;" d="M 0.00143125 -0.0000125 C 0.00143125 2.144519 -1.881381 3.8828 -4.2056 3.8828 C -6.529819 3.8828 -8.412631 2.144519 -8.412631 -0.0000125 C -8.412631 -2.144544 -6.529819 -3.882825 -4.2056 -3.882825 C -1.881381 -3.882825 0.00143125 -2.144544 0.00143125 -0.0000125 Z M 0.00143125 -0.0000125 " transform="matrix(1,0,0,-1,13.7056,9.8828)"/>
<path style="fill:none;stroke-width:2;stroke-linecap:butt;stroke-linejoin:miter;stroke:rgb(13.729858%,12.159729%,12.548828%);stroke-opacity:1;stroke-miterlimit:4;" d="M 0 -0.0005 L 18 26.9995 " transform="matrix(1,0,0,-1,54,35.9995)"/>
<path style="fill:none;stroke-width:2;stroke-linecap:butt;stroke-linejoin:miter;stroke:rgb(13.729858%,12.159729%,12.548828%);stroke-opacity:1;stroke-miterlimit:4;" d="M 0 -0.0005 L 18 -27.0005 " transform="matrix(1,0,0,-1,72,8.9995)"/>
<path style=" stroke:none;fill-rule:nonzero;fill:rgb(96.403503%,78.808594%,42.222595%);fill-opacity:1;" d="M 76.207031 9 C 76.207031 6.855469 74.324219 5.117188 72 5.117188 C 69.675781 5.117188 67.792969 6.855469 67.792969 9 C 67.792969 11.144531 69.675781 12.882812 72 12.882812 C 74.324219 12.882812 76.207031 11.144531 76.207031 9 "/>
<path style="fill:none;stroke-width:2;stroke-linecap:butt;stroke-linejoin:miter;stroke:rgb(13.729858%,12.159729%,12.548828%);stroke-opacity:1;stroke-miterlimit:4;" d="M 0.00093125 0 C 0.00093125 2.144531 -1.881881 3.882812 -4.2061 3.882812 C -6.530319 3.882812 -8.413131 2.144531 -8.413131 0 C -8.413131 -2.144531 -6.530319 -3.882812 -4.2061 -3.882812 C -1.881881 -3.882812 0.00093125 -2.144531 0.00093125 0 Z M 0.00093125 0 " transform="matrix(1,0,0,-1,76.2061,9)"/>
<path style=" stroke:none;fill-rule:nonzero;fill:rgb(96.403503%,78.808594%,42.222595%);fill-opacity:1;" d="M 58.207031 36 C 58.207031 33.855469 56.324219 32.117188 54 32.117188 C 51.675781 32.117188 49.792969 33.855469 49.792969 36 C 49.792969 38.144531 51.675781 39.882812 54 39.882812 C 56.324219 39.882812 58.207031 38.144531 58.207031 36 "/>
<path style="fill:none;stroke-width:2;stroke-linecap:butt;stroke-linejoin:miter;stroke:rgb(13.729858%,12.159729%,12.548828%);stroke-opacity:1;stroke-miterlimit:4;" d="M 0.00093125 0 C 0.00093125 2.144531 -1.881881 3.882812 -4.2061 3.882812 C -6.530319 3.882812 -8.413131 2.144531 -8.413131 0 C -8.413131 -2.144531 -6.530319 -3.882812 -4.2061 -3.882812 C -1.881881 -3.882812 0.00093125 -2.144531 0.00093125 0 Z M 0.00093125 0 " transform="matrix(1,0,0,-1,58.2061,36)"/>
<path style=" stroke:none;fill-rule:nonzero;fill:rgb(96.403503%,78.808594%,42.222595%);fill-opacity:1;" d="M 94.207031 36 C 94.207031 33.855469 92.324219 32.117188 90 32.117188 C 87.675781 32.117188 85.792969 33.855469 85.792969 36 C 85.792969 38.144531 87.675781 39.882812 90 39.882812 C 92.324219 39.882812 94.207031 38.144531 94.207031 36 "/>
<path style="fill:none;stroke-width:2;stroke-linecap:butt;stroke-linejoin:miter;stroke:rgb(13.729858%,12.159729%,12.548828%);stroke-opacity:1;stroke-miterlimit:4;" d="M 0.00093125 0 C 0.00093125 2.144531 -1.881881 3.882812 -4.2061 3.882812 C -6.530319 3.882812 -8.413131 2.144531 -8.413131 0 C -8.413131 -2.144531 -6.530319 -3.882812 -4.2061 -3.882812 C -1.881881 -3.882812 0.00093125 -2.144531 0.00093125 0 Z M 0.00093125 0 " transform="matrix(1,0,0,-1,94.2061,36)"/>
<path style="fill:none;stroke-width:2;stroke-linecap:butt;stroke-linejoin:miter;stroke:rgb(13.729858%,12.159729%,12.548828%);stroke-opacity:1;stroke-miterlimit:4;" d="M 0 0 L 18 27 " transform="matrix(1,0,0,-1,135.5,37)"/>
<path style="fill:none;stroke-width:2;stroke-linecap:butt;stroke-linejoin:miter;stroke:rgb(13.729858%,12.159729%,12.548828%);stroke-opacity:1;stroke-miterlimit:4;" d="M 0 -0.0005 L 18 -27.0005 " transform="matrix(1,0,0,-1,153.5,9.9995)"/>
<path style=" stroke:none;fill-rule:nonzero;fill:rgb(96.403503%,78.808594%,42.222595%);fill-opacity:1;" d="M 157.707031 10 C 157.707031 7.855469 155.824219 6.117188 153.5 6.117188 C 151.175781 6.117188 149.292969 7.855469 149.292969 10 C 149.292969 12.144531 151.175781 13.882812 153.5 13.882812 C 155.824219 13.882812 157.707031 12.144531 157.707031 10 "/>
<path style="fill:none;stroke-width:2;stroke-linecap:butt;stroke-linejoin:miter;stroke:rgb(13.729858%,12.159729%,12.548828%);stroke-opacity:1;stroke-miterlimit:4;" d="M 0.00093125 0 C 0.00093125 2.144531 -1.881881 3.882812 -4.2061 3.882812 C -6.530319 3.882812 -8.413131 2.144531 -8.413131 0 C -8.413131 -2.144531 -6.530319 -3.882812 -4.2061 -3.882812 C -1.881881 -3.882812 0.00093125 -2.144531 0.00093125 0 Z M 0.00093125 0 " transform="matrix(1,0,0,-1,157.7061,10)"/>
<path style=" stroke:none;fill-rule:nonzero;fill:rgb(96.403503%,78.808594%,42.222595%);fill-opacity:1;" d="M 139.707031 37 C 139.707031 34.855469 137.824219 33.117188 135.5 33.117188 C 133.175781 33.117188 131.292969 34.855469 131.292969 37 C 131.292969 39.144531 133.175781 40.882812 135.5 40.882812 C 137.824219 40.882812 139.707031 39.144531 139.707031 37 "/>
<path style="fill:none;stroke-width:2;stroke-linecap:butt;stroke-linejoin:miter;stroke:rgb(13.729858%,12.159729%,12.548828%);stroke-opacity:1;stroke-miterlimit:4;" d="M 0.00093125 0 C 0.00093125 2.144531 -1.881881 3.882812 -4.2061 3.882812 C -6.530319 3.882812 -8.413131 2.144531 -8.413131 0 C -8.413131 -2.144531 -6.530319 -3.882812 -4.2061 -3.882812 C -1.881881 -3.882812 0.00093125 -2.144531 0.00093125 0 Z M 0.00093125 0 " transform="matrix(1,0,0,-1,139.7061,37)"/>
<path style=" stroke:none;fill-rule:nonzero;fill:rgb(96.403503%,78.808594%,42.222595%);fill-opacity:1;" d="M 175.707031 37 C 175.707031 34.855469 173.824219 33.117188 171.5 33.117188 C 169.175781 33.117188 167.292969 34.855469 167.292969 37 C 167.292969 39.144531 169.175781 40.882812 171.5 40.882812 C 173.824219 40.882812 175.707031 39.144531 175.707031 37 "/>
<path style="fill:none;stroke-width:2;stroke-linecap:butt;stroke-linejoin:miter;stroke:rgb(13.729858%,12.159729%,12.548828%);stroke-opacity:1;stroke-miterlimit:4;" d="M 0.00093125 0 C 0.00093125 2.144531 -1.881881 3.882812 -4.2061 3.882812 C -6.530319 3.882812 -8.413131 2.144531 -8.413131 0 C -8.413131 -2.144531 -6.530319 -3.882812 -4.2061 -3.882812 C -1.881881 -3.882812 0.00093125 -2.144531 0.00093125 0 Z M 0.00093125 0 " transform="matrix(1,0,0,-1,175.7061,37)"/>
<path style="fill:none;stroke-width:2;stroke-linecap:butt;stroke-linejoin:miter;stroke:rgb(13.729858%,12.159729%,12.548828%);stroke-opacity:1;stroke-miterlimit:4;" d="M 0 0 L 18 27 " transform="matrix(1,0,0,-1,117.5,64)"/>
<path style="fill:none;stroke-width:2;stroke-linecap:butt;stroke-linejoin:miter;stroke:rgb(13.729858%,12.159729%,12.548828%);stroke-opacity:1;stroke-miterlimit:4;" d="M 0 -0.0005 L 18 -27.0005 " transform="matrix(1,0,0,-1,135.5,36.9995)"/>
<path style=" stroke:none;fill-rule:nonzero;fill:rgb(96.403503%,78.808594%,42.222595%);fill-opacity:1;" d="M 139.707031 37 C 139.707031 34.855469 137.824219 33.117188 135.5 33.117188 C 133.175781 33.117188 131.292969 34.855469 131.292969 37 C 131.292969 39.144531 133.175781 40.882812 135.5 40.882812 C 137.824219 40.882812 139.707031 39.144531 139.707031 37 "/>
<path style="fill:none;stroke-width:2;stroke-linecap:butt;stroke-linejoin:miter;stroke:rgb(13.729858%,12.159729%,12.548828%);stroke-opacity:1;stroke-miterlimit:4;" d="M 0.00093125 0 C 0.00093125 2.144531 -1.881881 3.882812 -4.2061 3.882812 C -6.530319 3.882812 -8.413131 2.144531 -8.413131 0 C -8.413131 -2.144531 -6.530319 -3.882812 -4.2061 -3.882812 C -1.881881 -3.882812 0.00093125 -2.144531 0.00093125 0 Z M 0.00093125 0 " transform="matrix(1,0,0,-1,139.7061,37)"/>
<path style=" stroke:none;fill-rule:nonzero;fill:rgb(96.403503%,78.808594%,42.222595%);fill-opacity:1;" d="M 121.707031 64 C 121.707031 61.855469 119.824219 60.117188 117.5 60.117188 C 115.175781 60.117188 113.292969 61.855469 113.292969 64 C 113.292969 66.144531 115.175781 67.882812 117.5 67.882812 C 119.824219 67.882812 121.707031 66.144531 121.707031 64 "/>
<path style="fill:none;stroke-width:2;stroke-linecap:butt;stroke-linejoin:miter;stroke:rgb(13.729858%,12.159729%,12.548828%);stroke-opacity:1;stroke-miterlimit:4;" d="M 0.00093125 0 C 0.00093125 2.144531 -1.881881 3.882812 -4.2061 3.882812 C -6.530319 3.882812 -8.413131 2.144531 -8.413131 0 C -8.413131 -2.144531 -6.530319 -3.882812 -4.2061 -3.882812 C -1.881881 -3.882812 0.00093125 -2.144531 0.00093125 0 Z M 0.00093125 0 " transform="matrix(1,0,0,-1,121.7061,64)"/>
<path style=" stroke:none;fill-rule:nonzero;fill:rgb(96.403503%,78.808594%,42.222595%);fill-opacity:1;" d="M 157.707031 64 C 157.707031 61.855469 155.824219 60.117188 153.5 60.117188 C 151.175781 60.117188 149.292969 61.855469 149.292969 64 C 149.292969 66.144531 151.175781 67.882812 153.5 67.882812 C 155.824219 67.882812 157.707031 66.144531 157.707031 64 "/>
<path style="fill:none;stroke-width:2;stroke-linecap:butt;stroke-linejoin:miter;stroke:rgb(13.729858%,12.159729%,12.548828%);stroke-opacity:1;stroke-miterlimit:4;" d="M 0.00093125 0 C 0.00093125 2.144531 -1.881881 3.882812 -4.2061 3.882812 C -6.530319 3.882812 -8.413131 2.144531 -8.413131 0 C -8.413131 -2.144531 -6.530319 -3.882812 -4.2061 -3.882812 C -1.881881 -3.882812 0.00093125 -2.144531 0.00093125 0 Z M 0.00093125 0 " transform="matrix(1,0,0,-1,157.7061,64)"/>
<path style="fill:none;stroke-width:2;stroke-linecap:butt;stroke-linejoin:miter;stroke:rgb(13.729858%,12.159729%,12.548828%);stroke-opacity:1;stroke-miterlimit:4;" d="M 0 0 L -18 27 " transform="matrix(1,0,0,-1,252,36)"/>
<path style="fill:none;stroke-width:2;stroke-linecap:butt;stroke-linejoin:miter;stroke:rgb(13.729858%,12.159729%,12.548828%);stroke-opacity:1;stroke-miterlimit:4;" d="M 0 -0.0005 L -18 -27.0005 " transform="matrix(1,0,0,-1,234,8.9995)"/>
<path style=" stroke:none;fill-rule:nonzero;fill:rgb(96.403503%,78.808594%,42.222595%);fill-opacity:1;" d="M 229.792969 9 C 229.792969 6.855469 231.675781 5.117188 234 5.117188 C 236.324219 5.117188 238.207031 6.855469 238.207031 9 C 238.207031 11.144531 236.324219 12.882812 234 12.882812 C 231.675781 12.882812 229.792969 11.144531 229.792969 9 "/>
<path style="fill:none;stroke-width:2;stroke-linecap:butt;stroke-linejoin:miter;stroke:rgb(13.729858%,12.159729%,12.548828%);stroke-opacity:1;stroke-miterlimit:4;" d="M -0.00093125 0 C -0.00093125 2.144531 1.881881 3.882812 4.2061 3.882812 C 6.530319 3.882812 8.413131 2.144531 8.413131 0 C 8.413131 -2.144531 6.530319 -3.882812 4.2061 -3.882812 C 1.881881 -3.882812 -0.00093125 -2.144531 -0.00093125 0 Z M -0.00093125 0 " transform="matrix(1,0,0,-1,229.7939,9)"/>
<path style=" stroke:none;fill-rule:nonzero;fill:rgb(96.403503%,78.808594%,42.222595%);fill-opacity:1;" d="M 247.792969 36 C 247.792969 33.855469 249.675781 32.117188 252 32.117188 C 254.324219 32.117188 256.207031 33.855469 256.207031 36 C 256.207031 38.144531 254.324219 39.882812 252 39.882812 C 249.675781 39.882812 247.792969 38.144531 247.792969 36 "/>
<path style="fill:none;stroke-width:2;stroke-linecap:butt;stroke-linejoin:miter;stroke:rgb(13.729858%,12.159729%,12.548828%);stroke-opacity:1;stroke-miterlimit:4;" d="M -0.00093125 0 C -0.00093125 2.144531 1.881881 3.882812 4.2061 3.882812 C 6.530319 3.882812 8.413131 2.144531 8.413131 0 C 8.413131 -2.144531 6.530319 -3.882812 4.2061 -3.882812 C 1.881881 -3.882812 -0.00093125 -2.144531 -0.00093125 0 Z M -0.00093125 0 " transform="matrix(1,0,0,-1,247.7939,36)"/>
<path style=" stroke:none;fill-rule:nonzero;fill:rgb(96.403503%,78.808594%,42.222595%);fill-opacity:1;" d="M 211.792969 36 C 211.792969 33.855469 213.675781 32.117188 216 32.117188 C 218.324219 32.117188 220.207031 33.855469 220.207031 36 C 220.207031 38.144531 218.324219 39.882812 216 39.882812 C 213.675781 39.882812 211.792969 38.144531 211.792969 36 "/>
<path style="fill:none;stroke-width:2;stroke-linecap:butt;stroke-linejoin:miter;stroke:rgb(13.729858%,12.159729%,12.548828%);stroke-opacity:1;stroke-miterlimit:4;" d="M -0.00093125 0 C -0.00093125 2.144531 1.881881 3.882812 4.2061 3.882812 C 6.530319 3.882812 8.413131 2.144531 8.413131 0 C 8.413131 -2.144531 6.530319 -3.882812 4.2061 -3.882812 C 1.881881 -3.882812 -0.00093125 -2.144531 -0.00093125 0 Z M -0.00093125 0 " transform="matrix(1,0,0,-1,211.7939,36)"/>
<path style="fill:none;stroke-width:2;stroke-linecap:butt;stroke-linejoin:miter;stroke:rgb(13.729858%,12.159729%,12.548828%);stroke-opacity:1;stroke-miterlimit:4;" d="M 0 0 L -18 27 " transform="matrix(1,0,0,-1,270,63)"/>
<path style="fill:none;stroke-width:2;stroke-linecap:butt;stroke-linejoin:miter;stroke:rgb(13.729858%,12.159729%,12.548828%);stroke-opacity:1;stroke-miterlimit:4;" d="M 0 0 L -18 -27 " transform="matrix(1,0,0,-1,252,36)"/>
<path style=" stroke:none;fill-rule:nonzero;fill:rgb(96.403503%,78.808594%,42.222595%);fill-opacity:1;" d="M 247.792969 36 C 247.792969 33.855469 249.675781 32.117188 252 32.117188 C 254.324219 32.117188 256.207031 33.855469 256.207031 36 C 256.207031 38.144531 254.324219 39.882812 252 39.882812 C 249.675781 39.882812 247.792969 38.144531 247.792969 36 "/>
<path style="fill:none;stroke-width:2;stroke-linecap:butt;stroke-linejoin:miter;stroke:rgb(13.729858%,12.159729%,12.548828%);stroke-opacity:1;stroke-miterlimit:4;" d="M -0.00093125 0 C -0.00093125 2.144531 1.881881 3.882812 4.2061 3.882812 C 6.530319 3.882812 8.413131 2.144531 8.413131 0 C 8.413131 -2.144531 6.530319 -3.882812 4.2061 -3.882812 C 1.881881 -3.882812 -0.00093125 -2.144531 -0.00093125 0 Z M -0.00093125 0 " transform="matrix(1,0,0,-1,247.7939,36)"/>
<path style=" stroke:none;fill-rule:nonzero;fill:rgb(96.403503%,78.808594%,42.222595%);fill-opacity:1;" d="M 265.792969 63 C 265.792969 60.855469 267.675781 59.117188 270 59.117188 C 272.324219 59.117188 274.207031 60.855469 274.207031 63 C 274.207031 65.144531 272.324219 66.882812 270 66.882812 C 267.675781 66.882812 265.792969 65.144531 265.792969 63 "/>
<path style="fill:none;stroke-width:2;stroke-linecap:butt;stroke-linejoin:miter;stroke:rgb(13.729858%,12.159729%,12.548828%);stroke-opacity:1;stroke-miterlimit:4;" d="M -0.00093125 0 C -0.00093125 2.144531 1.881881 3.882812 4.2061 3.882812 C 6.530319 3.882812 8.413131 2.144531 8.413131 0 C 8.413131 -2.144531 6.530319 -3.882812 4.2061 -3.882812 C 1.881881 -3.882812 -0.00093125 -2.144531 -0.00093125 0 Z M -0.00093125 0 " transform="matrix(1,0,0,-1,265.7939,63)"/>
<path style=" stroke:none;fill-rule:nonzero;fill:rgb(96.403503%,78.808594%,42.222595%);fill-opacity:1;" d="M 229.792969 63 C 229.792969 60.855469 231.675781 59.117188 234 59.117188 C 236.324219 59.117188 238.207031 60.855469 238.207031 63 C 238.207031 65.144531 236.324219 66.882812 234 66.882812 C 231.675781 66.882812 229.792969 65.144531 229.792969 63 "/>
<path style="fill:none;stroke-width:2;stroke-linecap:butt;stroke-linejoin:miter;stroke:rgb(13.729858%,12.159729%,12.548828%);stroke-opacity:1;stroke-miterlimit:4;" d="M -0.00093125 0 C -0.00093125 2.144531 1.881881 3.882812 4.2061 3.882812 C 6.530319 3.882812 8.413131 2.144531 8.413131 0 C 8.413131 -2.144531 6.530319 -3.882812 4.2061 -3.882812 C 1.881881 -3.882812 -0.00093125 -2.144531 -0.00093125 0 Z M -0.00093125 0 " transform="matrix(1,0,0,-1,229.7939,63)"/>
<path style="fill:none;stroke-width:2;stroke-linecap:butt;stroke-linejoin:miter;stroke:rgb(13.729858%,12.159729%,12.548828%);stroke-opacity:1;stroke-miterlimit:4;" d="M 0 0 L 18 27 " transform="matrix(1,0,0,-1,45,117)"/>
<path style="fill:none;stroke-width:2;stroke-linecap:butt;stroke-linejoin:miter;stroke:rgb(13.729858%,12.159729%,12.548828%);stroke-opacity:1;stroke-miterlimit:4;" d="M 0 0 L 18 -27 " transform="matrix(1,0,0,-1,63,90)"/>
<path style=" stroke:none;fill-rule:nonzero;fill:rgb(96.403503%,78.808594%,42.222595%);fill-opacity:1;" d="M 67.207031 90 C 67.207031 87.855469 65.324219 86.117188 63 86.117188 C 60.675781 86.117188 58.792969 87.855469 58.792969 90 C 58.792969 92.144531 60.675781 93.882812 63 93.882812 C 65.324219 93.882812 67.207031 92.144531 67.207031 90 "/>
<path style="fill:none;stroke-width:2;stroke-linecap:butt;stroke-linejoin:miter;stroke:rgb(13.729858%,12.159729%,12.548828%);stroke-opacity:1;stroke-miterlimit:4;" d="M 0.00093125 0 C 0.00093125 2.144531 -1.881881 3.882812 -4.2061 3.882812 C -6.530319 3.882812 -8.413131 2.144531 -8.413131 0 C -8.413131 -2.144531 -6.530319 -3.882812 -4.2061 -3.882812 C -1.881881 -3.882812 0.00093125 -2.144531 0.00093125 0 Z M 0.00093125 0 " transform="matrix(1,0,0,-1,67.2061,90)"/>
<path style=" stroke:none;fill-rule:nonzero;fill:rgb(96.403503%,78.808594%,42.222595%);fill-opacity:1;" d="M 49.207031 117 C 49.207031 114.855469 47.324219 113.117188 45 113.117188 C 42.675781 113.117188 40.792969 114.855469 40.792969 117 C 40.792969 119.144531 42.675781 120.882812 45 120.882812 C 47.324219 120.882812 49.207031 119.144531 49.207031 117 "/>
<path style="fill:none;stroke-width:2;stroke-linecap:butt;stroke-linejoin:miter;stroke:rgb(13.729858%,12.159729%,12.548828%);stroke-opacity:1;stroke-miterlimit:4;" d="M 0.00093125 0 C 0.00093125 2.144531 -1.881881 3.882812 -4.2061 3.882812 C -6.530319 3.882812 -8.413131 2.144531 -8.413131 0 C -8.413131 -2.144531 -6.530319 -3.882812 -4.2061 -3.882812 C -1.881881 -3.882812 0.00093125 -2.144531 0.00093125 0 Z M 0.00093125 0 " transform="matrix(1,0,0,-1,49.2061,117)"/>
<path style=" stroke:none;fill-rule:nonzero;fill:rgb(96.403503%,78.808594%,42.222595%);fill-opacity:1;" d="M 85.207031 117 C 85.207031 114.855469 83.324219 113.117188 81 113.117188 C 78.675781 113.117188 76.792969 114.855469 76.792969 117 C 76.792969 119.144531 78.675781 120.882812 81 120.882812 C 83.324219 120.882812 85.207031 119.144531 85.207031 117 "/>
<path style="fill:none;stroke-width:2;stroke-linecap:butt;stroke-linejoin:miter;stroke:rgb(13.729858%,12.159729%,12.548828%);stroke-opacity:1;stroke-miterlimit:4;" d="M 0.00093125 0 C 0.00093125 2.144531 -1.881881 3.882812 -4.2061 3.882812 C -6.530319 3.882812 -8.413131 2.144531 -8.413131 0 C -8.413131 -2.144531 -6.530319 -3.882812 -4.2061 -3.882812 C -1.881881 -3.882812 0.00093125 -2.144531 0.00093125 0 Z M 0.00093125 0 " transform="matrix(1,0,0,-1,85.2061,117)"/>
<path style="fill:none;stroke-width:2;stroke-linecap:butt;stroke-linejoin:miter;stroke:rgb(13.729858%,12.159729%,12.548828%);stroke-opacity:1;stroke-miterlimit:4;" d="M 0 0 L 18 27 " transform="matrix(1,0,0,-1,27,144)"/>
<path style="fill:none;stroke-width:2;stroke-linecap:butt;stroke-linejoin:miter;stroke:rgb(13.729858%,12.159729%,12.548828%);stroke-opacity:1;stroke-miterlimit:4;" d="M 0 0 L 18 -27 " transform="matrix(1,0,0,-1,45,117)"/>
<path style=" stroke:none;fill-rule:nonzero;fill:rgb(96.403503%,78.808594%,42.222595%);fill-opacity:1;" d="M 49.207031 117 C 49.207031 114.855469 47.324219 113.117188 45 113.117188 C 42.675781 113.117188 40.792969 114.855469 40.792969 117 C 40.792969 119.144531 42.675781 120.882812 45 120.882812 C 47.324219 120.882812 49.207031 119.144531 49.207031 117 "/>
<path style="fill:none;stroke-width:2;stroke-linecap:butt;stroke-linejoin:miter;stroke:rgb(13.729858%,12.159729%,12.548828%);stroke-opacity:1;stroke-miterlimit:4;" d="M 0.00093125 0 C 0.00093125 2.144531 -1.881881 3.882812 -4.2061 3.882812 C -6.530319 3.882812 -8.413131 2.144531 -8.413131 0 C -8.413131 -2.144531 -6.530319 -3.882812 -4.2061 -3.882812 C -1.881881 -3.882812 0.00093125 -2.144531 0.00093125 0 Z M 0.00093125 0 " transform="matrix(1,0,0,-1,49.2061,117)"/>
<path style=" stroke:none;fill-rule:nonzero;fill:rgb(96.403503%,78.808594%,42.222595%);fill-opacity:1;" d="M 31.207031 144 C 31.207031 141.855469 29.324219 140.117188 27 140.117188 C 24.675781 140.117188 22.792969 141.855469 22.792969 144 C 22.792969 146.144531 24.675781 147.882812 27 147.882812 C 29.324219 147.882812 31.207031 146.144531 31.207031 144 "/>
<path style="fill:none;stroke-width:2;stroke-linecap:butt;stroke-linejoin:miter;stroke:rgb(13.729858%,12.159729%,12.548828%);stroke-opacity:1;stroke-miterlimit:4;" d="M 0.00093125 0 C 0.00093125 2.144531 -1.881881 3.882812 -4.2061 3.882812 C -6.530319 3.882812 -8.413131 2.144531 -8.413131 0 C -8.413131 -2.144531 -6.530319 -3.882812 -4.2061 -3.882812 C -1.881881 -3.882812 0.00093125 -2.144531 0.00093125 0 Z M 0.00093125 0 " transform="matrix(1,0,0,-1,31.2061,144)"/>
<path style=" stroke:none;fill-rule:nonzero;fill:rgb(96.403503%,78.808594%,42.222595%);fill-opacity:1;" d="M 67.207031 144 C 67.207031 141.855469 65.324219 140.117188 63 140.117188 C 60.675781 140.117188 58.792969 141.855469 58.792969 144 C 58.792969 146.144531 60.675781 147.882812 63 147.882812 C 65.324219 147.882812 67.207031 146.144531 67.207031 144 "/>
<path style="fill:none;stroke-width:2;stroke-linecap:butt;stroke-linejoin:miter;stroke:rgb(13.729858%,12.159729%,12.548828%);stroke-opacity:1;stroke-miterlimit:4;" d="M 0.00093125 0 C 0.00093125 2.144531 -1.881881 3.882812 -4.2061 3.882812 C -6.530319 3.882812 -8.413131 2.144531 -8.413131 0 C -8.413131 -2.144531 -6.530319 -3.882812 -4.2061 -3.882812 C -1.881881 -3.882812 0.00093125 -2.144531 0.00093125 0 Z M 0.00093125 0 " transform="matrix(1,0,0,-1,67.2061,144)"/>
<path style="fill:none;stroke-width:2;stroke-linecap:butt;stroke-linejoin:miter;stroke:rgb(13.729858%,12.159729%,12.548828%);stroke-opacity:1;stroke-miterlimit:4;" d="M 0 0 L 18 27 " transform="matrix(1,0,0,-1,9,171)"/>
<path style="fill:none;stroke-width:2;stroke-linecap:butt;stroke-linejoin:miter;stroke:rgb(13.729858%,12.159729%,12.548828%);stroke-opacity:1;stroke-miterlimit:4;" d="M 0 0 L 18 -27 " transform="matrix(1,0,0,-1,27,144)"/>
<path style=" stroke:none;fill-rule:nonzero;fill:rgb(96.403503%,78.808594%,42.222595%);fill-opacity:1;" d="M 31.207031 144 C 31.207031 141.855469 29.324219 140.117188 27 140.117188 C 24.675781 140.117188 22.792969 141.855469 22.792969 144 C 22.792969 146.144531 24.675781 147.882812 27 147.882812 C 29.324219 147.882812 31.207031 146.144531 31.207031 144 "/>
<path style="fill:none;stroke-width:2;stroke-linecap:butt;stroke-linejoin:miter;stroke:rgb(13.729858%,12.159729%,12.548828%);stroke-opacity:1;stroke-miterlimit:4;" d="M 0.00093125 0 C 0.00093125 2.144531 -1.881881 3.882812 -4.2061 3.882812 C -6.530319 3.882812 -8.413131 2.144531 -8.413131 0 C -8.413131 -2.144531 -6.530319 -3.882812 -4.2061 -3.882812 C -1.881881 -3.882812 0.00093125 -2.144531 0.00093125 0 Z M 0.00093125 0 " transform="matrix(1,0,0,-1,31.2061,144)"/>
<path style=" stroke:none;fill-rule:nonzero;fill:rgb(96.403503%,78.808594%,42.222595%);fill-opacity:1;" d="M 13.207031 171 C 13.207031 168.855469 11.324219 167.117188 9 167.117188 C 6.675781 167.117188 4.792969 168.855469 4.792969 171 C 4.792969 173.144531 6.675781 174.882812 9 174.882812 C 11.324219 174.882812 13.207031 173.144531 13.207031 171 "/>
<path style="fill:none;stroke-width:2;stroke-linecap:butt;stroke-linejoin:miter;stroke:rgb(13.729858%,12.159729%,12.548828%);stroke-opacity:1;stroke-miterlimit:4;" d="M 0.00093125 0 C 0.00093125 2.144531 -1.881881 3.882812 -4.2061 3.882812 C -6.530319 3.882812 -8.413131 2.144531 -8.413131 0 C -8.413131 -2.144531 -6.530319 -3.882812 -4.2061 -3.882812 C -1.881881 -3.882812 0.00093125 -2.144531 0.00093125 0 Z M 0.00093125 0 " transform="matrix(1,0,0,-1,13.2061,171)"/>
<path style=" stroke:none;fill-rule:nonzero;fill:rgb(96.403503%,78.808594%,42.222595%);fill-opacity:1;" d="M 49.207031 171 C 49.207031 168.855469 47.324219 167.117188 45 167.117188 C 42.675781 167.117188 40.792969 168.855469 40.792969 171 C 40.792969 173.144531 42.675781 174.882812 45 174.882812 C 47.324219 174.882812 49.207031 173.144531 49.207031 171 "/>
<path style="fill:none;stroke-width:2;stroke-linecap:butt;stroke-linejoin:miter;stroke:rgb(13.729858%,12.159729%,12.548828%);stroke-opacity:1;stroke-miterlimit:4;" d="M 0.00093125 0 C 0.00093125 2.144531 -1.881881 3.882812 -4.2061 3.882812 C -6.530319 3.882812 -8.413131 2.144531 -8.413131 0 C -8.413131 -2.144531 -6.530319 -3.882812 -4.2061 -3.882812 C -1.881881 -3.882812 0.00093125 -2.144531 0.00093125 0 Z M 0.00093125 0 " transform="matrix(1,0,0,-1,49.2061,171)"/>
<path style="fill:none;stroke-width:2;stroke-linecap:butt;stroke-linejoin:miter;stroke:rgb(13.729858%,12.159729%,12.548828%);stroke-opacity:1;stroke-miterlimit:4;" d="M 0 0 L 18 27 " transform="matrix(1,0,0,-1,126,117)"/>
<path style="fill:none;stroke-width:2;stroke-linecap:butt;stroke-linejoin:miter;stroke:rgb(13.729858%,12.159729%,12.548828%);stroke-opacity:1;stroke-miterlimit:4;" d="M 0 -0.0005 L 18 -27.0005 " transform="matrix(1,0,0,-1,144,89.9995)"/>
<path style=" stroke:none;fill-rule:nonzero;fill:rgb(96.403503%,78.808594%,42.222595%);fill-opacity:1;" d="M 148.207031 90 C 148.207031 87.855469 146.324219 86.117188 144 86.117188 C 141.675781 86.117188 139.792969 87.855469 139.792969 90 C 139.792969 92.144531 141.675781 93.882812 144 93.882812 C 146.324219 93.882812 148.207031 92.144531 148.207031 90 "/>
<path style="fill:none;stroke-width:2;stroke-linecap:butt;stroke-linejoin:miter;stroke:rgb(13.729858%,12.159729%,12.548828%);stroke-opacity:1;stroke-miterlimit:4;" d="M 0.00093125 0 C 0.00093125 2.144531 -1.881881 3.882812 -4.2061 3.882812 C -6.530319 3.882812 -8.413131 2.144531 -8.413131 0 C -8.413131 -2.144531 -6.530319 -3.882812 -4.2061 -3.882812 C -1.881881 -3.882812 0.00093125 -2.144531 0.00093125 0 Z M 0.00093125 0 " transform="matrix(1,0,0,-1,148.2061,90)"/>
<path style=" stroke:none;fill-rule:nonzero;fill:rgb(96.403503%,78.808594%,42.222595%);fill-opacity:1;" d="M 130.207031 117 C 130.207031 114.855469 128.324219 113.117188 126 113.117188 C 123.675781 113.117188 121.792969 114.855469 121.792969 117 C 121.792969 119.144531 123.675781 120.882812 126 120.882812 C 128.324219 120.882812 130.207031 119.144531 130.207031 117 "/>
<path style="fill:none;stroke-width:2;stroke-linecap:butt;stroke-linejoin:miter;stroke:rgb(13.729858%,12.159729%,12.548828%);stroke-opacity:1;stroke-miterlimit:4;" d="M 0.00093125 0 C 0.00093125 2.144531 -1.881881 3.882812 -4.2061 3.882812 C -6.530319 3.882812 -8.413131 2.144531 -8.413131 0 C -8.413131 -2.144531 -6.530319 -3.882812 -4.2061 -3.882812 C -1.881881 -3.882812 0.00093125 -2.144531 0.00093125 0 Z M 0.00093125 0 " transform="matrix(1,0,0,-1,130.2061,117)"/>
<path style=" stroke:none;fill-rule:nonzero;fill:rgb(96.403503%,78.808594%,42.222595%);fill-opacity:1;" d="M 166.207031 117 C 166.207031 114.855469 164.324219 113.117188 162 113.117188 C 159.675781 113.117188 157.792969 114.855469 157.792969 117 C 157.792969 119.144531 159.675781 120.882812 162 120.882812 C 164.324219 120.882812 166.207031 119.144531 166.207031 117 "/>
<path style="fill:none;stroke-width:2;stroke-linecap:butt;stroke-linejoin:miter;stroke:rgb(13.729858%,12.159729%,12.548828%);stroke-opacity:1;stroke-miterlimit:4;" d="M 0.00093125 0 C 0.00093125 2.144531 -1.881881 3.882812 -4.2061 3.882812 C -6.530319 3.882812 -8.413131 2.144531 -8.413131 0 C -8.413131 -2.144531 -6.530319 -3.882812 -4.2061 -3.882812 C -1.881881 -3.882812 0.00093125 -2.144531 0.00093125 0 Z M 0.00093125 0 " transform="matrix(1,0,0,-1,166.2061,117)"/>
<path style="fill:none;stroke-width:2;stroke-linecap:butt;stroke-linejoin:miter;stroke:rgb(13.729858%,12.159729%,12.548828%);stroke-opacity:1;stroke-miterlimit:4;" d="M 0 0 L 18 27 " transform="matrix(1,0,0,-1,108,144)"/>
<path style="fill:none;stroke-width:2;stroke-linecap:butt;stroke-linejoin:miter;stroke:rgb(13.729858%,12.159729%,12.548828%);stroke-opacity:1;stroke-miterlimit:4;" d="M 0 -0.0005 L 18 -27.0005 " transform="matrix(1,0,0,-1,126,116.9995)"/>
<path style=" stroke:none;fill-rule:nonzero;fill:rgb(96.403503%,78.808594%,42.222595%);fill-opacity:1;" d="M 130.207031 117 C 130.207031 114.855469 128.324219 113.117188 126 113.117188 C 123.675781 113.117188 121.792969 114.855469 121.792969 117 C 121.792969 119.144531 123.675781 120.882812 126 120.882812 C 128.324219 120.882812 130.207031 119.144531 130.207031 117 "/>
<path style="fill:none;stroke-width:2;stroke-linecap:butt;stroke-linejoin:miter;stroke:rgb(13.729858%,12.159729%,12.548828%);stroke-opacity:1;stroke-miterlimit:4;" d="M 0.00093125 0 C 0.00093125 2.144531 -1.881881 3.882812 -4.2061 3.882812 C -6.530319 3.882812 -8.413131 2.144531 -8.413131 0 C -8.413131 -2.144531 -6.530319 -3.882812 -4.2061 -3.882812 C -1.881881 -3.882812 0.00093125 -2.144531 0.00093125 0 Z M 0.00093125 0 " transform="matrix(1,0,0,-1,130.2061,117)"/>
<path style=" stroke:none;fill-rule:nonzero;fill:rgb(96.403503%,78.808594%,42.222595%);fill-opacity:1;" d="M 112.207031 144 C 112.207031 141.855469 110.324219 140.117188 108 140.117188 C 105.675781 140.117188 103.792969 141.855469 103.792969 144 C 103.792969 146.144531 105.675781 147.882812 108 147.882812 C 110.324219 147.882812 112.207031 146.144531 112.207031 144 "/>
<path style="fill:none;stroke-width:2;stroke-linecap:butt;stroke-linejoin:miter;stroke:rgb(13.729858%,12.159729%,12.548828%);stroke-opacity:1;stroke-miterlimit:4;" d="M 0.00093125 0 C 0.00093125 2.144531 -1.881881 3.882812 -4.2061 3.882812 C -6.530319 3.882812 -8.413131 2.144531 -8.413131 0 C -8.413131 -2.144531 -6.530319 -3.882812 -4.2061 -3.882812 C -1.881881 -3.882812 0.00093125 -2.144531 0.00093125 0 Z M 0.00093125 0 " transform="matrix(1,0,0,-1,112.2061,144)"/>
<path style=" stroke:none;fill-rule:nonzero;fill:rgb(96.403503%,78.808594%,42.222595%);fill-opacity:1;" d="M 148.207031 144 C 148.207031 141.855469 146.324219 140.117188 144 140.117188 C 141.675781 140.117188 139.792969 141.855469 139.792969 144 C 139.792969 146.144531 141.675781 147.882812 144 147.882812 C 146.324219 147.882812 148.207031 146.144531 148.207031 144 "/>
<path style="fill:none;stroke-width:2;stroke-linecap:butt;stroke-linejoin:miter;stroke:rgb(13.729858%,12.159729%,12.548828%);stroke-opacity:1;stroke-miterlimit:4;" d="M 0.00093125 0 C 0.00093125 2.144531 -1.881881 3.882812 -4.2061 3.882812 C -6.530319 3.882812 -8.413131 2.144531 -8.413131 0 C -8.413131 -2.144531 -6.530319 -3.882812 -4.2061 -3.882812 C -1.881881 -3.882812 0.00093125 -2.144531 0.00093125 0 Z M 0.00093125 0 " transform="matrix(1,0,0,-1,148.2061,144)"/>
<path style="fill:none;stroke-width:2;stroke-linecap:butt;stroke-linejoin:miter;stroke:rgb(13.729858%,12.159729%,12.548828%);stroke-opacity:1;stroke-miterlimit:4;" d="M 0 0 L 18 27 " transform="matrix(1,0,0,-1,126,171)"/>
<path style="fill:none;stroke-width:2;stroke-linecap:butt;stroke-linejoin:miter;stroke:rgb(13.729858%,12.159729%,12.548828%);stroke-opacity:1;stroke-miterlimit:4;" d="M 0 0 L 18 -27 " transform="matrix(1,0,0,-1,144,144)"/>
<path style=" stroke:none;fill-rule:nonzero;fill:rgb(96.403503%,78.808594%,42.222595%);fill-opacity:1;" d="M 148.207031 144 C 148.207031 141.855469 146.324219 140.117188 144 140.117188 C 141.675781 140.117188 139.792969 141.855469 139.792969 144 C 139.792969 146.144531 141.675781 147.882812 144 147.882812 C 146.324219 147.882812 148.207031 146.144531 148.207031 144 "/>
<path style="fill:none;stroke-width:2;stroke-linecap:butt;stroke-linejoin:miter;stroke:rgb(13.729858%,12.159729%,12.548828%);stroke-opacity:1;stroke-miterlimit:4;" d="M 0.00093125 0 C 0.00093125 2.144531 -1.881881 3.882812 -4.2061 3.882812 C -6.530319 3.882812 -8.413131 2.144531 -8.413131 0 C -8.413131 -2.144531 -6.530319 -3.882812 -4.2061 -3.882812 C -1.881881 -3.882812 0.00093125 -2.144531 0.00093125 0 Z M 0.00093125 0 " transform="matrix(1,0,0,-1,148.2061,144)"/>
<path style=" stroke:none;fill-rule:nonzero;fill:rgb(96.403503%,78.808594%,42.222595%);fill-opacity:1;" d="M 130.207031 171 C 130.207031 168.855469 128.324219 167.117188 126 167.117188 C 123.675781 167.117188 121.792969 168.855469 121.792969 171 C 121.792969 173.144531 123.675781 174.882812 126 174.882812 C 128.324219 174.882812 130.207031 173.144531 130.207031 171 "/>
<path style="fill:none;stroke-width:2;stroke-linecap:butt;stroke-linejoin:miter;stroke:rgb(13.729858%,12.159729%,12.548828%);stroke-opacity:1;stroke-miterlimit:4;" d="M 0.00093125 0 C 0.00093125 2.144531 -1.881881 3.882812 -4.2061 3.882812 C -6.530319 3.882812 -8.413131 2.144531 -8.413131 0 C -8.413131 -2.144531 -6.530319 -3.882812 -4.2061 -3.882812 C -1.881881 -3.882812 0.00093125 -2.144531 0.00093125 0 Z M 0.00093125 0 " transform="matrix(1,0,0,-1,130.2061,171)"/>
<path style=" stroke:none;fill-rule:nonzero;fill:rgb(96.403503%,78.808594%,42.222595%);fill-opacity:1;" d="M 166.207031 171 C 166.207031 168.855469 164.324219 167.117188 162 167.117188 C 159.675781 167.117188 157.792969 168.855469 157.792969 171 C 157.792969 173.144531 159.675781 174.882812 162 174.882812 C 164.324219 174.882812 166.207031 173.144531 166.207031 171 "/>
<path style="fill:none;stroke-width:2;stroke-linecap:butt;stroke-linejoin:miter;stroke:rgb(13.729858%,12.159729%,12.548828%);stroke-opacity:1;stroke-miterlimit:4;" d="M 0.00093125 0 C 0.00093125 2.144531 -1.881881 3.882812 -4.2061 3.882812 C -6.530319 3.882812 -8.413131 2.144531 -8.413131 0 C -8.413131 -2.144531 -6.530319 -3.882812 -4.2061 -3.882812 C -1.881881 -3.882812 0.00093125 -2.144531 0.00093125 0 Z M 0.00093125 0 " transform="matrix(1,0,0,-1,166.2061,171)"/>
<path style="fill:none;stroke-width:2;stroke-linecap:butt;stroke-linejoin:miter;stroke:rgb(13.729858%,12.159729%,12.548828%);stroke-opacity:1;stroke-miterlimit:4;" d="M 0 0 L 18 27 " transform="matrix(1,0,0,-1,216,117)"/>
<path style="fill:none;stroke-width:2;stroke-linecap:butt;stroke-linejoin:miter;stroke:rgb(13.729858%,12.159729%,12.548828%);stroke-opacity:1;stroke-miterlimit:4;" d="M 0 -0.0005 L 18 -27.0005 " transform="matrix(1,0,0,-1,234,89.9995)"/>
<path style=" stroke:none;fill-rule:nonzero;fill:rgb(96.403503%,78.808594%,42.222595%);fill-opacity:1;" d="M 238.207031 90 C 238.207031 87.855469 236.324219 86.117188 234 86.117188 C 231.675781 86.117188 229.792969 87.855469 229.792969 90 C 229.792969 92.144531 231.675781 93.882812 234 93.882812 C 236.324219 93.882812 238.207031 92.144531 238.207031 90 "/>
<path style="fill:none;stroke-width:2;stroke-linecap:butt;stroke-linejoin:miter;stroke:rgb(13.729858%,12.159729%,12.548828%);stroke-opacity:1;stroke-miterlimit:4;" d="M 0.00093125 0 C 0.00093125 2.144531 -1.881881 3.882812 -4.2061 3.882812 C -6.530319 3.882812 -8.413131 2.144531 -8.413131 0 C -8.413131 -2.144531 -6.530319 -3.882812 -4.2061 -3.882812 C -1.881881 -3.882812 0.00093125 -2.144531 0.00093125 0 Z M 0.00093125 0 " transform="matrix(1,0,0,-1,238.2061,90)"/>
<path style=" stroke:none;fill-rule:nonzero;fill:rgb(96.403503%,78.808594%,42.222595%);fill-opacity:1;" d="M 220.207031 117 C 220.207031 114.855469 218.324219 113.117188 216 113.117188 C 213.675781 113.117188 211.792969 114.855469 211.792969 117 C 211.792969 119.144531 213.675781 120.882812 216 120.882812 C 218.324219 120.882812 220.207031 119.144531 220.207031 117 "/>
<path style="fill:none;stroke-width:2;stroke-linecap:butt;stroke-linejoin:miter;stroke:rgb(13.729858%,12.159729%,12.548828%);stroke-opacity:1;stroke-miterlimit:4;" d="M 0.00093125 0 C 0.00093125 2.144531 -1.881881 3.882812 -4.2061 3.882812 C -6.530319 3.882812 -8.413131 2.144531 -8.413131 0 C -8.413131 -2.144531 -6.530319 -3.882812 -4.2061 -3.882812 C -1.881881 -3.882812 0.00093125 -2.144531 0.00093125 0 Z M 0.00093125 0 " transform="matrix(1,0,0,-1,220.2061,117)"/>
<path style=" stroke:none;fill-rule:nonzero;fill:rgb(96.403503%,78.808594%,42.222595%);fill-opacity:1;" d="M 256.207031 117 C 256.207031 114.855469 254.324219 113.117188 252 113.117188 C 249.675781 113.117188 247.792969 114.855469 247.792969 117 C 247.792969 119.144531 249.675781 120.882812 252 120.882812 C 254.324219 120.882812 256.207031 119.144531 256.207031 117 "/>
<path style="fill:none;stroke-width:2;stroke-linecap:butt;stroke-linejoin:miter;stroke:rgb(13.729858%,12.159729%,12.548828%);stroke-opacity:1;stroke-miterlimit:4;" d="M 0.00093125 0 C 0.00093125 2.144531 -1.881881 3.882812 -4.2061 3.882812 C -6.530319 3.882812 -8.413131 2.144531 -8.413131 0 C -8.413131 -2.144531 -6.530319 -3.882812 -4.2061 -3.882812 C -1.881881 -3.882812 0.00093125 -2.144531 0.00093125 0 Z M 0.00093125 0 " transform="matrix(1,0,0,-1,256.2061,117)"/>
<path style="fill:none;stroke-width:2;stroke-linecap:butt;stroke-linejoin:miter;stroke:rgb(13.729858%,12.159729%,12.548828%);stroke-opacity:1;stroke-miterlimit:4;" d="M 0 0 L 18 27 " transform="matrix(1,0,0,-1,198,144)"/>
<path style="fill:none;stroke-width:2;stroke-linecap:butt;stroke-linejoin:miter;stroke:rgb(13.729858%,12.159729%,12.548828%);stroke-opacity:1;stroke-miterlimit:4;" d="M 0 -0.0005 L 9.480469 -28.117687 " transform="matrix(1,0,0,-1,216,116.9995)"/>
<path style=" stroke:none;fill-rule:nonzero;fill:rgb(96.403503%,78.808594%,42.222595%);fill-opacity:1;" d="M 220.207031 117 C 220.207031 114.855469 218.324219 113.117188 216 113.117188 C 213.675781 113.117188 211.792969 114.855469 211.792969 117 C 211.792969 119.144531 213.675781 120.882812 216 120.882812 C 218.324219 120.882812 220.207031 119.144531 220.207031 117 "/>
<path style="fill:none;stroke-width:2;stroke-linecap:butt;stroke-linejoin:miter;stroke:rgb(13.729858%,12.159729%,12.548828%);stroke-opacity:1;stroke-miterlimit:4;" d="M 0.00093125 0 C 0.00093125 2.144531 -1.881881 3.882812 -4.2061 3.882812 C -6.530319 3.882812 -8.413131 2.144531 -8.413131 0 C -8.413131 -2.144531 -6.530319 -3.882812 -4.2061 -3.882812 C -1.881881 -3.882812 0.00093125 -2.144531 0.00093125 0 Z M 0.00093125 0 " transform="matrix(1,0,0,-1,220.2061,117)"/>
<path style=" stroke:none;fill-rule:nonzero;fill:rgb(96.403503%,78.808594%,42.222595%);fill-opacity:1;" d="M 202.207031 144 C 202.207031 141.855469 200.324219 140.117188 198 140.117188 C 195.675781 140.117188 193.792969 141.855469 193.792969 144 C 193.792969 146.144531 195.675781 147.882812 198 147.882812 C 200.324219 147.882812 202.207031 146.144531 202.207031 144 "/>
<path style="fill:none;stroke-width:2;stroke-linecap:butt;stroke-linejoin:miter;stroke:rgb(13.729858%,12.159729%,12.548828%);stroke-opacity:1;stroke-miterlimit:4;" d="M 0.00093125 0 C 0.00093125 2.144531 -1.881881 3.882812 -4.2061 3.882812 C -6.530319 3.882812 -8.413131 2.144531 -8.413131 0 C -8.413131 -2.144531 -6.530319 -3.882812 -4.2061 -3.882812 C -1.881881 -3.882812 0.00093125 -2.144531 0.00093125 0 Z M 0.00093125 0 " transform="matrix(1,0,0,-1,202.2061,144)"/>
<path style=" stroke:none;fill-rule:nonzero;fill:rgb(96.403503%,78.808594%,42.222595%);fill-opacity:1;" d="M 229.457031 144.3125 C 229.457031 142.167969 227.574219 140.429688 225.25 140.429688 C 222.925781 140.429688 221.042969 142.167969 221.042969 144.3125 C 221.042969 146.457031 222.925781 148.195312 225.25 148.195312 C 227.574219 148.195312 229.457031 146.457031 229.457031 144.3125 "/>
<path style="fill:none;stroke-width:2;stroke-linecap:butt;stroke-linejoin:miter;stroke:rgb(13.729858%,12.159729%,12.548828%);stroke-opacity:1;stroke-miterlimit:4;" d="M 0.00093125 0 C 0.00093125 2.144531 -1.881881 3.882812 -4.2061 3.882812 C -6.530319 3.882812 -8.413131 2.144531 -8.413131 0 C -8.413131 -2.144531 -6.530319 -3.882812 -4.2061 -3.882812 C -1.881881 -3.882812 0.00093125 -2.144531 0.00093125 0 Z M 0.00093125 0 " transform="matrix(1,0,0,-1,229.4561,144.3125)"/>
<path style="fill:none;stroke-width:2;stroke-linecap:butt;stroke-linejoin:miter;stroke:rgb(13.729858%,12.159729%,12.548828%);stroke-opacity:1;stroke-miterlimit:4;" d="M -0.00093125 0.0000125 L 9.6436 27.8047 " transform="matrix(1,0,0,-1,242.3564,144.8047)"/>
<path style="fill:none;stroke-width:2;stroke-linecap:butt;stroke-linejoin:miter;stroke:rgb(13.729858%,12.159729%,12.548828%);stroke-opacity:1;stroke-miterlimit:4;" d="M 0 -0.0005 L 18 -27.0005 " transform="matrix(1,0,0,-1,252,116.9995)"/>
<path style=" stroke:none;fill-rule:nonzero;fill:rgb(96.403503%,78.808594%,42.222595%);fill-opacity:1;" d="M 256.207031 117 C 256.207031 114.855469 254.324219 113.117188 252 113.117188 C 249.675781 113.117188 247.792969 114.855469 247.792969 117 C 247.792969 119.144531 249.675781 120.882812 252 120.882812 C 254.324219 120.882812 256.207031 119.144531 256.207031 117 "/>
<path style="fill:none;stroke-width:2;stroke-linecap:butt;stroke-linejoin:miter;stroke:rgb(13.729858%,12.159729%,12.548828%);stroke-opacity:1;stroke-miterlimit:4;" d="M 0.00093125 0 C 0.00093125 2.144531 -1.881881 3.882812 -4.2061 3.882812 C -6.530319 3.882812 -8.413131 2.144531 -8.413131 0 C -8.413131 -2.144531 -6.530319 -3.882812 -4.2061 -3.882812 C -1.881881 -3.882812 0.00093125 -2.144531 0.00093125 0 Z M 0.00093125 0 " transform="matrix(1,0,0,-1,256.2061,117)"/>
<path style=" stroke:none;fill-rule:nonzero;fill:rgb(96.403503%,78.808594%,42.222595%);fill-opacity:1;" d="M 247.5 144.492188 C 247.5 142.347656 245.617188 140.609375 243.296875 140.609375 C 240.972656 140.609375 239.089844 142.347656 239.089844 144.492188 C 239.089844 146.636719 240.972656 148.375 243.296875 148.375 C 245.617188 148.375 247.5 146.636719 247.5 144.492188 "/>
<path style="fill:none;stroke-width:2;stroke-linecap:butt;stroke-linejoin:miter;stroke:rgb(13.729858%,12.159729%,12.548828%);stroke-opacity:1;stroke-miterlimit:4;" d="M 0 0.0000125 C 0 2.144544 -1.882812 3.882825 -4.203125 3.882825 C -6.527344 3.882825 -8.410156 2.144544 -8.410156 0.0000125 C -8.410156 -2.144519 -6.527344 -3.8828 -4.203125 -3.8828 C -1.882812 -3.8828 0 -2.144519 0 0.0000125 Z M 0 0.0000125 " transform="matrix(1,0,0,-1,247.5,144.4922)"/>
<path style=" stroke:none;fill-rule:nonzero;fill:rgb(96.403503%,78.808594%,42.222595%);fill-opacity:1;" d="M 274.207031 144 C 274.207031 141.855469 272.324219 140.117188 270 140.117188 C 267.675781 140.117188 265.792969 141.855469 265.792969 144 C 265.792969 146.144531 267.675781 147.882812 270 147.882812 C 272.324219 147.882812 274.207031 146.144531 274.207031 144 "/>
<path style="fill:none;stroke-width:2;stroke-linecap:butt;stroke-linejoin:miter;stroke:rgb(13.729858%,12.159729%,12.548828%);stroke-opacity:1;stroke-miterlimit:4;" d="M 0.00093125 0 C 0.00093125 2.144531 -1.881881 3.882812 -4.2061 3.882812 C -6.530319 3.882812 -8.413131 2.144531 -8.413131 0 C -8.413131 -2.144531 -6.530319 -3.882812 -4.2061 -3.882812 C -1.881881 -3.882812 0.00093125 -2.144531 0.00093125 0 Z M 0.00093125 0 " transform="matrix(1,0,0,-1,274.2061,144)"/>
<path style="fill:none;stroke-width:2;stroke-linecap:butt;stroke-linejoin:miter;stroke:rgb(13.729858%,12.159729%,12.548828%);stroke-opacity:1;stroke-miterlimit:4;" d="M 0 0 L -18 27 " transform="matrix(1,0,0,-1,108,216)"/>
<path style="fill:none;stroke-width:2;stroke-linecap:butt;stroke-linejoin:miter;stroke:rgb(13.729858%,12.159729%,12.548828%);stroke-opacity:1;stroke-miterlimit:4;" d="M 0 0 L -18 -27 " transform="matrix(1,0,0,-1,90,189)"/>
<path style=" stroke:none;fill-rule:nonzero;fill:rgb(96.403503%,78.808594%,42.222595%);fill-opacity:1;" d="M 85.792969 189 C 85.792969 186.855469 87.675781 185.117188 90 185.117188 C 92.324219 185.117188 94.207031 186.855469 94.207031 189 C 94.207031 191.144531 92.324219 192.882812 90 192.882812 C 87.675781 192.882812 85.792969 191.144531 85.792969 189 "/>
<path style="fill:none;stroke-width:2;stroke-linecap:butt;stroke-linejoin:miter;stroke:rgb(13.729858%,12.159729%,12.548828%);stroke-opacity:1;stroke-miterlimit:4;" d="M -0.00093125 0 C -0.00093125 2.144531 1.881881 3.882812 4.2061 3.882812 C 6.530319 3.882812 8.413131 2.144531 8.413131 0 C 8.413131 -2.144531 6.530319 -3.882812 4.2061 -3.882812 C 1.881881 -3.882812 -0.00093125 -2.144531 -0.00093125 0 Z M -0.00093125 0 " transform="matrix(1,0,0,-1,85.7939,189)"/>
<path style=" stroke:none;fill-rule:nonzero;fill:rgb(96.403503%,78.808594%,42.222595%);fill-opacity:1;" d="M 103.792969 216 C 103.792969 213.855469 105.675781 212.117188 108 212.117188 C 110.324219 212.117188 112.207031 213.855469 112.207031 216 C 112.207031 218.144531 110.324219 219.882812 108 219.882812 C 105.675781 219.882812 103.792969 218.144531 103.792969 216 "/>
<path style="fill:none;stroke-width:2;stroke-linecap:butt;stroke-linejoin:miter;stroke:rgb(13.729858%,12.159729%,12.548828%);stroke-opacity:1;stroke-miterlimit:4;" d="M -0.00093125 0 C -0.00093125 2.144531 1.881881 3.882812 4.2061 3.882812 C 6.530319 3.882812 8.413131 2.144531 8.413131 0 C 8.413131 -2.144531 6.530319 -3.882812 4.2061 -3.882812 C 1.881881 -3.882812 -0.00093125 -2.144531 -0.00093125 0 Z M -0.00093125 0 " transform="matrix(1,0,0,-1,103.7939,216)"/>
<path style=" stroke:none;fill-rule:nonzero;fill:rgb(96.403503%,78.808594%,42.222595%);fill-opacity:1;" d="M 67.792969 216 C 67.792969 213.855469 69.675781 212.117188 72 212.117188 C 74.324219 212.117188 76.207031 213.855469 76.207031 216 C 76.207031 218.144531 74.324219 219.882812 72 219.882812 C 69.675781 219.882812 67.792969 218.144531 67.792969 216 "/>
<path style="fill:none;stroke-width:2;stroke-linecap:butt;stroke-linejoin:miter;stroke:rgb(13.729858%,12.159729%,12.548828%);stroke-opacity:1;stroke-miterlimit:4;" d="M -0.00093125 0 C -0.00093125 2.144531 1.881881 3.882812 4.2061 3.882812 C 6.530319 3.882812 8.413131 2.144531 8.413131 0 C 8.413131 -2.144531 6.530319 -3.882812 4.2061 -3.882812 C 1.881881 -3.882812 -0.00093125 -2.144531 -0.00093125 0 Z M -0.00093125 0 " transform="matrix(1,0,0,-1,67.7939,216)"/>
<path style="fill:none;stroke-width:2;stroke-linecap:butt;stroke-linejoin:miter;stroke:rgb(13.729858%,12.159729%,12.548828%);stroke-opacity:1;stroke-miterlimit:4;" d="M 0 0 L -18 27 " transform="matrix(1,0,0,-1,126,243)"/>
<path style="fill:none;stroke-width:2;stroke-linecap:butt;stroke-linejoin:miter;stroke:rgb(13.729858%,12.159729%,12.548828%);stroke-opacity:1;stroke-miterlimit:4;" d="M 0 0 L -18 -27 " transform="matrix(1,0,0,-1,108,216)"/>
<path style=" stroke:none;fill-rule:nonzero;fill:rgb(96.403503%,78.808594%,42.222595%);fill-opacity:1;" d="M 103.792969 216 C 103.792969 213.855469 105.675781 212.117188 108 212.117188 C 110.324219 212.117188 112.207031 213.855469 112.207031 216 C 112.207031 218.144531 110.324219 219.882812 108 219.882812 C 105.675781 219.882812 103.792969 218.144531 103.792969 216 "/>
<path style="fill:none;stroke-width:2;stroke-linecap:butt;stroke-linejoin:miter;stroke:rgb(13.729858%,12.159729%,12.548828%);stroke-opacity:1;stroke-miterlimit:4;" d="M -0.00093125 0 C -0.00093125 2.144531 1.881881 3.882812 4.2061 3.882812 C 6.530319 3.882812 8.413131 2.144531 8.413131 0 C 8.413131 -2.144531 6.530319 -3.882812 4.2061 -3.882812 C 1.881881 -3.882812 -0.00093125 -2.144531 -0.00093125 0 Z M -0.00093125 0 " transform="matrix(1,0,0,-1,103.7939,216)"/>
<path style=" stroke:none;fill-rule:nonzero;fill:rgb(96.403503%,78.808594%,42.222595%);fill-opacity:1;" d="M 121.792969 243 C 121.792969 240.855469 123.675781 239.117188 126 239.117188 C 128.324219 239.117188 130.207031 240.855469 130.207031 243 C 130.207031 245.144531 128.324219 246.882812 126 246.882812 C 123.675781 246.882812 121.792969 245.144531 121.792969 243 "/>
<path style="fill:none;stroke-width:2;stroke-linecap:butt;stroke-linejoin:miter;stroke:rgb(13.729858%,12.159729%,12.548828%);stroke-opacity:1;stroke-miterlimit:4;" d="M -0.00093125 0 C -0.00093125 2.144531 1.881881 3.882812 4.2061 3.882812 C 6.530319 3.882812 8.413131 2.144531 8.413131 0 C 8.413131 -2.144531 6.530319 -3.882812 4.2061 -3.882812 C 1.881881 -3.882812 -0.00093125 -2.144531 -0.00093125 0 Z M -0.00093125 0 " transform="matrix(1,0,0,-1,121.7939,243)"/>
<path style=" stroke:none;fill-rule:nonzero;fill:rgb(96.403503%,78.808594%,42.222595%);fill-opacity:1;" d="M 85.792969 243 C 85.792969 240.855469 87.675781 239.117188 90 239.117188 C 92.324219 239.117188 94.207031 240.855469 94.207031 243 C 94.207031 245.144531 92.324219 246.882812 90 246.882812 C 87.675781 246.882812 85.792969 245.144531 85.792969 243 "/>
<path style="fill:none;stroke-width:2;stroke-linecap:butt;stroke-linejoin:miter;stroke:rgb(13.729858%,12.159729%,12.548828%);stroke-opacity:1;stroke-miterlimit:4;" d="M -0.00093125 0 C -0.00093125 2.144531 1.881881 3.882812 4.2061 3.882812 C 6.530319 3.882812 8.413131 2.144531 8.413131 0 C 8.413131 -2.144531 6.530319 -3.882812 4.2061 -3.882812 C 1.881881 -3.882812 -0.00093125 -2.144531 -0.00093125 0 Z M -0.00093125 0 " transform="matrix(1,0,0,-1,85.7939,243)"/>
<path style="fill:none;stroke-width:2;stroke-linecap:butt;stroke-linejoin:miter;stroke:rgb(13.729858%,12.159729%,12.548828%);stroke-opacity:1;stroke-miterlimit:4;" d="M 0.00093125 0.0000125 L 18.000931 27.000013 " transform="matrix(1,0,0,-1,72.1436,269.8672)"/>
<path style="fill:none;stroke-width:2;stroke-linecap:butt;stroke-linejoin:miter;stroke:rgb(13.729858%,12.159729%,12.548828%);stroke-opacity:1;stroke-miterlimit:4;" d="M 0.00093125 0.0000125 L 18.000931 -26.999988 " transform="matrix(1,0,0,-1,90.1436,242.8672)"/>
<path style=" stroke:none;fill-rule:nonzero;fill:rgb(96.403503%,78.808594%,42.222595%);fill-opacity:1;" d="M 94.347656 242.867188 C 94.347656 240.722656 92.464844 238.984375 90.144531 238.984375 C 87.820312 238.984375 85.9375 240.722656 85.9375 242.867188 C 85.9375 245.011719 87.820312 246.75 90.144531 246.75 C 92.464844 246.75 94.347656 245.011719 94.347656 242.867188 "/>
<path style="fill:none;stroke-width:2;stroke-linecap:butt;stroke-linejoin:miter;stroke:rgb(13.729858%,12.159729%,12.548828%);stroke-opacity:1;stroke-miterlimit:4;" d="M -0.00194375 0.0000125 C -0.00194375 2.144544 -1.884756 3.882825 -4.205069 3.882825 C -6.529288 3.882825 -8.4121 2.144544 -8.4121 0.0000125 C -8.4121 -2.144519 -6.529288 -3.8828 -4.205069 -3.8828 C -1.884756 -3.8828 -0.00194375 -2.144519 -0.00194375 0.0000125 Z M -0.00194375 0.0000125 " transform="matrix(1,0,0,-1,94.3496,242.8672)"/>
<path style=" stroke:none;fill-rule:nonzero;fill:rgb(96.403503%,78.808594%,42.222595%);fill-opacity:1;" d="M 76.347656 269.867188 C 76.347656 267.722656 74.464844 265.984375 72.144531 265.984375 C 69.820312 265.984375 67.9375 267.722656 67.9375 269.867188 C 67.9375 272.011719 69.820312 273.75 72.144531 273.75 C 74.464844 273.75 76.347656 272.011719 76.347656 269.867188 "/>
<path style="fill:none;stroke-width:2;stroke-linecap:butt;stroke-linejoin:miter;stroke:rgb(13.729858%,12.159729%,12.548828%);stroke-opacity:1;stroke-miterlimit:4;" d="M -0.00194375 0.0000125 C -0.00194375 2.144544 -1.884756 3.882825 -4.205069 3.882825 C -6.529288 3.882825 -8.4121 2.144544 -8.4121 0.0000125 C -8.4121 -2.144519 -6.529288 -3.8828 -4.205069 -3.8828 C -1.884756 -3.8828 -0.00194375 -2.144519 -0.00194375 0.0000125 Z M -0.00194375 0.0000125 " transform="matrix(1,0,0,-1,76.3496,269.8672)"/>
<path style=" stroke:none;fill-rule:nonzero;fill:rgb(96.403503%,78.808594%,42.222595%);fill-opacity:1;" d="M 112.347656 269.867188 C 112.347656 267.722656 110.464844 265.984375 108.144531 265.984375 C 105.820312 265.984375 103.9375 267.722656 103.9375 269.867188 C 103.9375 272.011719 105.820312 273.75 108.144531 273.75 C 110.464844 273.75 112.347656 272.011719 112.347656 269.867188 "/>
<path style="fill:none;stroke-width:2;stroke-linecap:butt;stroke-linejoin:miter;stroke:rgb(13.729858%,12.159729%,12.548828%);stroke-opacity:1;stroke-miterlimit:4;" d="M -0.00194375 0.0000125 C -0.00194375 2.144544 -1.884756 3.882825 -4.205069 3.882825 C -6.529288 3.882825 -8.4121 2.144544 -8.4121 0.0000125 C -8.4121 -2.144519 -6.529288 -3.8828 -4.205069 -3.8828 C -1.884756 -3.8828 -0.00194375 -2.144519 -0.00194375 0.0000125 Z M -0.00194375 0.0000125 " transform="matrix(1,0,0,-1,112.3496,269.8672)"/>
<path style="fill:none;stroke-width:2;stroke-linecap:butt;stroke-linejoin:miter;stroke:rgb(13.729858%,12.159729%,12.548828%);stroke-opacity:1;stroke-miterlimit:4;" d="M 0 0 L -18 27 " transform="matrix(1,0,0,-1,207,216)"/>
<path style="fill:none;stroke-width:2;stroke-linecap:butt;stroke-linejoin:miter;stroke:rgb(13.729858%,12.159729%,12.548828%);stroke-opacity:1;stroke-miterlimit:4;" d="M 0 0 L -18 -27 " transform="matrix(1,0,0,-1,189,189)"/>
<path style=" stroke:none;fill-rule:nonzero;fill:rgb(96.403503%,78.808594%,42.222595%);fill-opacity:1;" d="M 184.792969 189 C 184.792969 186.855469 186.675781 185.117188 189 185.117188 C 191.324219 185.117188 193.207031 186.855469 193.207031 189 C 193.207031 191.144531 191.324219 192.882812 189 192.882812 C 186.675781 192.882812 184.792969 191.144531 184.792969 189 "/>
<path style="fill:none;stroke-width:2;stroke-linecap:butt;stroke-linejoin:miter;stroke:rgb(13.729858%,12.159729%,12.548828%);stroke-opacity:1;stroke-miterlimit:4;" d="M -0.00093125 0 C -0.00093125 2.144531 1.881881 3.882812 4.2061 3.882812 C 6.530319 3.882812 8.413131 2.144531 8.413131 0 C 8.413131 -2.144531 6.530319 -3.882812 4.2061 -3.882812 C 1.881881 -3.882812 -0.00093125 -2.144531 -0.00093125 0 Z M -0.00093125 0 " transform="matrix(1,0,0,-1,184.7939,189)"/>
<path style=" stroke:none;fill-rule:nonzero;fill:rgb(96.403503%,78.808594%,42.222595%);fill-opacity:1;" d="M 202.792969 216 C 202.792969 213.855469 204.675781 212.117188 207 212.117188 C 209.324219 212.117188 211.207031 213.855469 211.207031 216 C 211.207031 218.144531 209.324219 219.882812 207 219.882812 C 204.675781 219.882812 202.792969 218.144531 202.792969 216 "/>
<path style="fill:none;stroke-width:2;stroke-linecap:butt;stroke-linejoin:miter;stroke:rgb(13.729858%,12.159729%,12.548828%);stroke-opacity:1;stroke-miterlimit:4;" d="M -0.00093125 0 C -0.00093125 2.144531 1.881881 3.882812 4.2061 3.882812 C 6.530319 3.882812 8.413131 2.144531 8.413131 0 C 8.413131 -2.144531 6.530319 -3.882812 4.2061 -3.882812 C 1.881881 -3.882812 -0.00093125 -2.144531 -0.00093125 0 Z M -0.00093125 0 " transform="matrix(1,0,0,-1,202.7939,216)"/>
<path style=" stroke:none;fill-rule:nonzero;fill:rgb(96.403503%,78.808594%,42.222595%);fill-opacity:1;" d="M 166.792969 216 C 166.792969 213.855469 168.675781 212.117188 171 212.117188 C 173.324219 212.117188 175.207031 213.855469 175.207031 216 C 175.207031 218.144531 173.324219 219.882812 171 219.882812 C 168.675781 219.882812 166.792969 218.144531 166.792969 216 "/>
<path style="fill:none;stroke-width:2;stroke-linecap:butt;stroke-linejoin:miter;stroke:rgb(13.729858%,12.159729%,12.548828%);stroke-opacity:1;stroke-miterlimit:4;" d="M -0.00093125 0 C -0.00093125 2.144531 1.881881 3.882812 4.2061 3.882812 C 6.530319 3.882812 8.413131 2.144531 8.413131 0 C 8.413131 -2.144531 6.530319 -3.882812 4.2061 -3.882812 C 1.881881 -3.882812 -0.00093125 -2.144531 -0.00093125 0 Z M -0.00093125 0 " transform="matrix(1,0,0,-1,166.7939,216)"/>
<path style="fill:none;stroke-width:2;stroke-linecap:butt;stroke-linejoin:miter;stroke:rgb(13.729858%,12.159729%,12.548828%);stroke-opacity:1;stroke-miterlimit:4;" d="M 0 0 L -18 27 " transform="matrix(1,0,0,-1,225,243)"/>
<path style="fill:none;stroke-width:2;stroke-linecap:butt;stroke-linejoin:miter;stroke:rgb(13.729858%,12.159729%,12.548828%);stroke-opacity:1;stroke-miterlimit:4;" d="M 0 0 L -18 -27 " transform="matrix(1,0,0,-1,207,216)"/>
<path style=" stroke:none;fill-rule:nonzero;fill:rgb(96.403503%,78.808594%,42.222595%);fill-opacity:1;" d="M 202.792969 216 C 202.792969 213.855469 204.675781 212.117188 207 212.117188 C 209.324219 212.117188 211.207031 213.855469 211.207031 216 C 211.207031 218.144531 209.324219 219.882812 207 219.882812 C 204.675781 219.882812 202.792969 218.144531 202.792969 216 "/>
<path style="fill:none;stroke-width:2;stroke-linecap:butt;stroke-linejoin:miter;stroke:rgb(13.729858%,12.159729%,12.548828%);stroke-opacity:1;stroke-miterlimit:4;" d="M -0.00093125 0 C -0.00093125 2.144531 1.881881 3.882812 4.2061 3.882812 C 6.530319 3.882812 8.413131 2.144531 8.413131 0 C 8.413131 -2.144531 6.530319 -3.882812 4.2061 -3.882812 C 1.881881 -3.882812 -0.00093125 -2.144531 -0.00093125 0 Z M -0.00093125 0 " transform="matrix(1,0,0,-1,202.7939,216)"/>
<path style=" stroke:none;fill-rule:nonzero;fill:rgb(96.403503%,78.808594%,42.222595%);fill-opacity:1;" d="M 220.792969 243 C 220.792969 240.855469 222.675781 239.117188 225 239.117188 C 227.324219 239.117188 229.207031 240.855469 229.207031 243 C 229.207031 245.144531 227.324219 246.882812 225 246.882812 C 222.675781 246.882812 220.792969 245.144531 220.792969 243 "/>
<path style="fill:none;stroke-width:2;stroke-linecap:butt;stroke-linejoin:miter;stroke:rgb(13.729858%,12.159729%,12.548828%);stroke-opacity:1;stroke-miterlimit:4;" d="M -0.00093125 0 C -0.00093125 2.144531 1.881881 3.882812 4.2061 3.882812 C 6.530319 3.882812 8.413131 2.144531 8.413131 0 C 8.413131 -2.144531 6.530319 -3.882812 4.2061 -3.882812 C 1.881881 -3.882812 -0.00093125 -2.144531 -0.00093125 0 Z M -0.00093125 0 " transform="matrix(1,0,0,-1,220.7939,243)"/>
<path style=" stroke:none;fill-rule:nonzero;fill:rgb(96.403503%,78.808594%,42.222595%);fill-opacity:1;" d="M 184.792969 243 C 184.792969 240.855469 186.675781 239.117188 189 239.117188 C 191.324219 239.117188 193.207031 240.855469 193.207031 243 C 193.207031 245.144531 191.324219 246.882812 189 246.882812 C 186.675781 246.882812 184.792969 245.144531 184.792969 243 "/>
<path style="fill:none;stroke-width:2;stroke-linecap:butt;stroke-linejoin:miter;stroke:rgb(13.729858%,12.159729%,12.548828%);stroke-opacity:1;stroke-miterlimit:4;" d="M -0.00093125 0 C -0.00093125 2.144531 1.881881 3.882812 4.2061 3.882812 C 6.530319 3.882812 8.413131 2.144531 8.413131 0 C 8.413131 -2.144531 6.530319 -3.882812 4.2061 -3.882812 C 1.881881 -3.882812 -0.00093125 -2.144531 -0.00093125 0 Z M -0.00093125 0 " transform="matrix(1,0,0,-1,184.7939,243)"/>
<path style="fill:none;stroke-width:2;stroke-linecap:butt;stroke-linejoin:miter;stroke:rgb(13.729858%,12.159729%,12.548828%);stroke-opacity:1;stroke-miterlimit:4;" d="M 0 0 L 18 27 " transform="matrix(1,0,0,-1,207,270)"/>
<path style="fill:none;stroke-width:2;stroke-linecap:butt;stroke-linejoin:miter;stroke:rgb(13.729858%,12.159729%,12.548828%);stroke-opacity:1;stroke-miterlimit:4;" d="M 0 0 L 18 -27 " transform="matrix(1,0,0,-1,225,243)"/>
<path style=" stroke:none;fill-rule:nonzero;fill:rgb(96.403503%,78.808594%,42.222595%);fill-opacity:1;" d="M 229.207031 243 C 229.207031 240.855469 227.324219 239.117188 225 239.117188 C 222.675781 239.117188 220.792969 240.855469 220.792969 243 C 220.792969 245.144531 222.675781 246.882812 225 246.882812 C 227.324219 246.882812 229.207031 245.144531 229.207031 243 "/>
<path style="fill:none;stroke-width:2;stroke-linecap:butt;stroke-linejoin:miter;stroke:rgb(13.729858%,12.159729%,12.548828%);stroke-opacity:1;stroke-miterlimit:4;" d="M 0.00093125 0 C 0.00093125 2.144531 -1.881881 3.882812 -4.2061 3.882812 C -6.530319 3.882812 -8.413131 2.144531 -8.413131 0 C -8.413131 -2.144531 -6.530319 -3.882812 -4.2061 -3.882812 C -1.881881 -3.882812 0.00093125 -2.144531 0.00093125 0 Z M 0.00093125 0 " transform="matrix(1,0,0,-1,229.2061,243)"/>
<path style=" stroke:none;fill-rule:nonzero;fill:rgb(96.403503%,78.808594%,42.222595%);fill-opacity:1;" d="M 211.207031 270 C 211.207031 267.855469 209.324219 266.117188 207 266.117188 C 204.675781 266.117188 202.792969 267.855469 202.792969 270 C 202.792969 272.144531 204.675781 273.882812 207 273.882812 C 209.324219 273.882812 211.207031 272.144531 211.207031 270 "/>
<path style="fill:none;stroke-width:2;stroke-linecap:butt;stroke-linejoin:miter;stroke:rgb(13.729858%,12.159729%,12.548828%);stroke-opacity:1;stroke-miterlimit:4;" d="M 0.00093125 0 C 0.00093125 2.144531 -1.881881 3.882812 -4.2061 3.882812 C -6.530319 3.882812 -8.413131 2.144531 -8.413131 0 C -8.413131 -2.144531 -6.530319 -3.882812 -4.2061 -3.882812 C -1.881881 -3.882812 0.00093125 -2.144531 0.00093125 0 Z M 0.00093125 0 " transform="matrix(1,0,0,-1,211.2061,270)"/>
<path style=" stroke:none;fill-rule:nonzero;fill:rgb(96.403503%,78.808594%,42.222595%);fill-opacity:1;" d="M 247.207031 270 C 247.207031 267.855469 245.324219 266.117188 243 266.117188 C 240.675781 266.117188 238.792969 267.855469 238.792969 270 C 238.792969 272.144531 240.675781 273.882812 243 273.882812 C 245.324219 273.882812 247.207031 272.144531 247.207031 270 "/>
<path style="fill:none;stroke-width:2;stroke-linecap:butt;stroke-linejoin:miter;stroke:rgb(13.729858%,12.159729%,12.548828%);stroke-opacity:1;stroke-miterlimit:4;" d="M 0.00093125 0 C 0.00093125 2.144531 -1.881881 3.882812 -4.2061 3.882812 C -6.530319 3.882812 -8.413131 2.144531 -8.413131 0 C -8.413131 -2.144531 -6.530319 -3.882812 -4.2061 -3.882812 C -1.881881 -3.882812 0.00093125 -2.144531 0.00093125 0 Z M 0.00093125 0 " transform="matrix(1,0,0,-1,247.2061,270)"/>
</g>
</svg>
