<?xml version="1.0" encoding="UTF-8"?>
<!-- Created with Inkscape (http://www.inkscape.org/) -->
<svg width="67.478mm" height="30.991mm" version="1.1" viewBox="0 0 67.478 30.991" xmlns="http://www.w3.org/2000/svg">
 <defs>
  <clipPath id="clipPath5">
   <path transform="matrix(1 0 0 -1 -55.81 534.61)" d="m0 612h792v-612h-792z"/>
  </clipPath>
  <clipPath id="clipPath9">
   <path transform="matrix(1 0 0 -1 -226.25 558.37)" d="m0 612h792v-612h-792z"/>
  </clipPath>
  <clipPath id="clipPath27">
   <path transform="matrix(1 0 0 -1 -152.27 540.42)" d="m0 612h792v-612h-792z"/>
  </clipPath>
  <clipPath id="clipPath29">
   <path transform="matrix(1 0 0 -1 -89.793 551.12)" d="m0 612h792v-612h-792z"/>
  </clipPath>
 </defs>
 <g transform="translate(-121.71 -91.546)">
  <text transform="matrix(.35278 0 0 .35278 121.63 109.79)" clip-path="url(#clipPath5)" fill="#231f20" font-family="Palatino" font-size="12px" font-style="italic" xml:space="preserve"><tspan x="0" y="0">e</tspan><tspan x="151.2" y="-43.043999">f</tspan><tspan x="132.564" y="8.4840002">g</tspan><tspan x="180.048" y="18.216">a</tspan><tspan x="34.007999" y="1.176">h</tspan></text>
  <g fill="none" stroke="#231f20" stroke-width=".70556">
   <path d="m162.71 96.733h25.455"/>
   <path d="m162.66 95.204v3.2925"/>
   <path d="m188.05 95.087v3.2918"/>
  </g>
  <text transform="matrix(.35278 0 0 .35278 181.76 101.41)" clip-path="url(#clipPath9)" fill="#231f20" font-family="Palatino" font-size="12px" xml:space="preserve"><tspan x="0" y="0" font-style="italic">d</tspan><tspan x="-163.896" y="58.872002" dx="0 29.892 30.323999 65.435997 -41.472" dy="0 0 0.852 -0.384">12354</tspan></text>
  <g fill="none" stroke="#231f20" stroke-width=".70556">
   <path d="m137.24 107.13v3.2925"/>
   <path d="m188.05 113.46v3.2928"/>
   <path d="m124.43 107.13v3.2928"/>
   <path d="m162.78 114.91h12.426"/>
   <path d="m162.76 113.38v3.2925"/>
   <path d="m175.15 113.26v3.2918"/>
   <path d="m124.67 114.89h25.349"/>
   <path d="m124.63 113.36v3.2928"/>
   <path d="m149.91 113.24v3.2921"/>
   <path d="m149.72 108.64h12.869"/>
   <path d="m149.7 107.11v3.2928"/>
   <path d="m162.53 107v3.2921"/>
   <path d="m175.2 102.18h13.02"/>
   <path d="m175.18 100.66v3.2928"/>
   <path d="m188.16 100.54v3.2921"/>
  </g>
  <text transform="matrix(.35278 0 0 .35278 155.66 107.74)" clip-path="url(#clipPath27)" fill="#231f20" font-family="Palatino" font-size="12px" xml:space="preserve"><tspan x="0" y="0" font-style="italic">i</tspan><tspan x="-54.695999" y="17.52" font-style="italic">c</tspan><tspan x="89.435997" y="40.560001">6</tspan><tspan x="83.723999" y="5.5799999" font-style="italic">b</tspan></text>
  <path d="m188.09 106.96v3.2925" fill="none" stroke="#231f20" stroke-width=".70556"/>
  <text transform="matrix(.35278 0 0 .35278 133.62 103.97)" clip-path="url(#clipPath29)" xml:space="preserve"><tspan x="0" y="0" fill="#231f20" font-family="Palatino" font-size="12px" font-style="italic">j</tspan></text>
  <path d="m137.23 100.89v3.2925" fill="none" stroke="#231f20" stroke-width=".70556"/>
 </g>
</svg>
