<svg xmlns="http://www.w3.org/2000/svg" id="graph-prufer-6-figure" width="330" height="230" viewBox="0 0 330 230">
  <defs>
    <clipPath id="graph-prufer-6-__clipPath-0">
      <rect x="15.0" y="15.0" width="300.0" height="200.0"/>
    </clipPath>
    <clipPath id="graph-prufer-6-__clipPath-1">
      <rect x="15.0" y="15.0" width="300.0" height="200.0"/>
    </clipPath>
    <clipPath id="graph-prufer-6-__clipPath-2">
      <rect x="15.0" y="15.0" width="300.0" height="200.0"/>
    </clipPath>
  </defs>
  <g id="graph-prufer-6-__group-0">
    <path id="graph-prufer-6-edge-1-2" d="M 208.2 117.8 Q 227.4 114.2 246.6 110.7 Q 265.8 107.1 285.0 103.5" stroke="black" stroke-width="2" stroke-dasharray="none" fill="none" clip-path="url(#graph-prufer-6-__clipPath-2)"/>
    <path id="graph-prufer-6-edge-1-3" d="M 208.2 117.8 Q 185.8 122.0 163.3 126.3 Q 140.8 130.5 118.4 134.8" stroke="black" stroke-width="2" stroke-dasharray="none" fill="none" clip-path="url(#graph-prufer-6-__clipPath-2)"/>
    <path id="graph-prufer-6-edge-1-4" d="M 208.2 117.8 Q 215.2 137.1 222.3 156.4 Q 229.3 175.7 236.4 195.0" stroke="black" stroke-width="2" stroke-dasharray="none" fill="none" clip-path="url(#graph-prufer-6-__clipPath-2)"/>
    <path id="graph-prufer-6-edge-1-5" d="M 208.2 117.8 Q 208.9 97.1 209.6 76.4 Q 210.3 55.7 211.0 35.0" stroke="black" stroke-width="2" stroke-dasharray="none" fill="none" clip-path="url(#graph-prufer-6-__clipPath-2)"/>
    <path id="graph-prufer-6-edge-3-6" d="M 118.4 134.8 Q 100.0 138.2 81.7 141.7 Q 63.4 145.2 45.0 148.6" stroke="black" stroke-width="2" stroke-dasharray="none" fill="none" clip-path="url(#graph-prufer-6-__clipPath-2)"/>
  </g>
  <g id="graph-prufer-6-__group-1">
    <circle id="graph-prufer-6-node-1" cx="208.2" cy="117.8" r="12" stroke="black" stroke-width="1" fill="#eee"/>
    <g id="graph-prufer-6-__label-0" transform="translate(208.2,117.8) translate(-4.5,-6.0)">
      <g id="graph-prufer-6-__g-0">
        <svg xmlns:xlink="http://www.w3.org/1999/xlink" style="vertical-align: 0.000px" width="9.048px" height="12.056px" role="img" focusable="false" viewBox="0 -666 500 666" x="0.0" y="0.0">
          <defs>
            <path id="graph-prufer-6-MJX-2-NCM-N-31" d="M269 666C228 624 168 603 89 603L89 564C141 564 184 572 217 588L217 82C217 64 213 52 204 47C195 42 170 39 130 39L95 39L95 0C120 2 174 3 257 3C340 3 394 2 419 0L419 39L384 39C343 39 318 42 310 47C302 52 297 64 297 82L297 636C297 660 295 666 269 666Z"/>
          </defs>
          <g stroke="currentColor" fill="currentColor" stroke-width="0" transform="scale(1,-1)">
            <g data-mml-node="math">
              <g data-mml-node="mn" data-semantic-type="number" data-semantic-role="integer" data-semantic-font="normal" data-semantic-annotation="clearspeak:simple;nemeth:number;depth:1" data-semantic-id="0" data-semantic-attributes="latex:1" data-semantic-speech="1">
                <use data-c="31" xlink:href="#graph-prufer-6-MJX-2-NCM-N-31"/>
              </g>
            </g>
          </g>
        </svg>
      </g>
    </g>
    <circle id="graph-prufer-6-node-3" cx="118.4" cy="134.8" r="12" stroke="black" stroke-width="1" fill="#eee"/>
    <g id="graph-prufer-6-__label-1" transform="translate(118.4,134.8) translate(-4.5,-6.2)">
      <g id="graph-prufer-6-__g-1">
        <svg xmlns:xlink="http://www.w3.org/1999/xlink" style="vertical-align: -0.400px" width="9.048px" height="12.456px" role="img" focusable="false" viewBox="0 -666 500 688" x="0.0" y="0.0">
          <defs>
            <path id="graph-prufer-6-MJX-3-NCM-N-33" d="M303 353C369 378 431 441 431 526C431 569 410 604 369 631C333 654 292 666 246 666C201 666 162 654 127 631C88 605 68 571 68 528C68 495 90 472 122 472C154 472 176 495 176 527C176 560 157 578 119 580C145 615 186 633 242 633C302 633 332 598 332 527C332 485 324 450 309 421C282 373 245 364 183 364C171 362 165 357 165 348C165 333 172 333 192 333L235 333C310 333 348 280 348 173C348 88 317 14 241 14C176 14 128 36 99 80C134 79 160 105 160 139C160 173 135 198 101 198C62 198 42 178 42 137C42 88 64 49 108 18C147-9 193-22 244-22C301-22 350-3 393 34C436 71 457 117 457 173C457 267 383 332 303 353Z"/>
          </defs>
          <g stroke="currentColor" fill="currentColor" stroke-width="0" transform="scale(1,-1)">
            <g data-mml-node="math">
              <g data-mml-node="mn" data-semantic-type="number" data-semantic-role="integer" data-semantic-font="normal" data-semantic-annotation="clearspeak:simple;nemeth:number;depth:1" data-semantic-id="0" data-semantic-attributes="latex:3" data-semantic-speech="3">
                <use data-c="33" xlink:href="#graph-prufer-6-MJX-3-NCM-N-33"/>
              </g>
            </g>
          </g>
        </svg>
      </g>
    </g>
    <circle id="graph-prufer-6-node-2" cx="285.0" cy="103.5" r="12" stroke="black" stroke-width="1" fill="#eee"/>
    <g id="graph-prufer-6-__label-2" transform="translate(285.0,103.5) translate(-4.5,-6.0)">
      <g id="graph-prufer-6-__g-2">
        <svg xmlns:xlink="http://www.w3.org/1999/xlink" style="vertical-align: 0.000px" width="9.048px" height="12.056px" role="img" focusable="false" viewBox="0 -666 500 666" x="0.0" y="0.0">
          <defs>
            <path id="graph-prufer-6-MJX-4-NCM-N-32" d="M237 666C186 666 143 648 106 612C69 576 50 534 50 483C50 449 75 424 106 424C136 424 161 450 161 480C161 513 137 536 105 536C102 536 100 536 98 535C117 584 161 627 224 627C306 627 352 556 352 470C352 403 318 331 250 255L62 43C49 28 50 29 50 0L421 0L450 180L417 180C409 129 402 100 396 91C391 86 361 84 306 84L139 84L236 179C304 243 390 312 419 365C439 400 449 435 449 470C449 588 357 666 237 666Z"/>
          </defs>
          <g stroke="currentColor" fill="currentColor" stroke-width="0" transform="scale(1,-1)">
            <g data-mml-node="math">
              <g data-mml-node="mn" data-semantic-type="number" data-semantic-role="integer" data-semantic-font="normal" data-semantic-annotation="clearspeak:simple;nemeth:number;depth:1" data-semantic-id="0" data-semantic-attributes="latex:2" data-semantic-speech="2">
                <use data-c="32" xlink:href="#graph-prufer-6-MJX-4-NCM-N-32"/>
              </g>
            </g>
          </g>
        </svg>
      </g>
    </g>
    <circle id="graph-prufer-6-node-4" cx="236.4" cy="195.0" r="12" stroke="black" stroke-width="1" fill="#eee"/>
    <g id="graph-prufer-6-__label-3" transform="translate(236.4,195.0) translate(-4.5,-6.1)">
      <g id="graph-prufer-6-__g-3">
        <svg xmlns:xlink="http://www.w3.org/1999/xlink" style="vertical-align: 0.000px" width="9.048px" height="12.256px" role="img" focusable="false" viewBox="0 -677 500 677" x="0.0" y="0.0">
          <defs>
            <path id="graph-prufer-6-MJX-5-NCM-N-34" d="M353 677C344 677 336 672 330 663L28 199L28 163L289 163L289 81C289 63 285 51 278 46C271 41 252 39 219 39L194 39L194 0C223 2 269 3 331 3C393 3 439 2 468 0L468 39L443 39C410 39 391 41 384 46C377 51 373 63 373 81L373 163L471 163L471 202L373 202L373 660C373 670 366 677 353 677M295 553L295 202L67 202Z"/>
          </defs>
          <g stroke="currentColor" fill="currentColor" stroke-width="0" transform="scale(1,-1)">
            <g data-mml-node="math">
              <g data-mml-node="mn" data-semantic-type="number" data-semantic-role="integer" data-semantic-font="normal" data-semantic-annotation="clearspeak:simple;nemeth:number;depth:1" data-semantic-id="0" data-semantic-attributes="latex:4" data-semantic-speech="4">
                <use data-c="34" xlink:href="#graph-prufer-6-MJX-5-NCM-N-34"/>
              </g>
            </g>
          </g>
        </svg>
      </g>
    </g>
    <circle id="graph-prufer-6-node-5" cx="211.0" cy="35.0" r="12" stroke="black" stroke-width="1" fill="#eee"/>
    <g id="graph-prufer-6-__label-4" transform="translate(211.0,35.0) translate(-4.5,-6.2)">
      <g id="graph-prufer-6-__g-4">
        <svg xmlns:xlink="http://www.w3.org/1999/xlink" style="vertical-align: -0.400px" width="9.048px" height="12.456px" role="img" focusable="false" viewBox="0 -666 500 688" x="0.0" y="0.0">
          <defs>
            <path id="graph-prufer-6-MJX-6-NCM-N-35" d="M118 315C123 315 129 319 134 326C164 371 205 393 257 393C292 393 319 373 337 332C348 305 354 264 354 209C354 146 346 102 331 76C306 35 272 14 229 14C162 14 109 62 91 114C94 113 96 114 100 114C130 114 155 137 155 167C155 198 130 219 100 219C65 219 50 200 50 163C50 63 131-22 231-22C292-22 344 0 386 44C428 88 449 141 449 202C449 260 432 310 398 353C361 400 315 423 259 423C212 423 171 408 138 378L138 556C165 548 191 544 218 544C264 544 304 555 338 578C369 597 390 616 402 634C408 642 411 648 411 651C411 661 406 666 396 666C341 645 294 634 256 634C211 634 168 643 127 662C122 664 118 665 114 665C105 665 100 656 100 637L100 345C100 324 100 315 118 315Z"/>
          </defs>
          <g stroke="currentColor" fill="currentColor" stroke-width="0" transform="scale(1,-1)">
            <g data-mml-node="math">
              <g data-mml-node="mn" data-semantic-type="number" data-semantic-role="integer" data-semantic-font="normal" data-semantic-annotation="clearspeak:simple;nemeth:number;depth:1" data-semantic-id="0" data-semantic-attributes="latex:5" data-semantic-speech="5">
                <use data-c="35" xlink:href="#graph-prufer-6-MJX-6-NCM-N-35"/>
              </g>
            </g>
          </g>
        </svg>
      </g>
    </g>
    <circle id="graph-prufer-6-node-6" cx="45.0" cy="148.6" r="12" stroke="black" stroke-width="1" fill="#eee"/>
    <g id="graph-prufer-6-__label-5" transform="translate(45.0,148.6) translate(-4.5,-6.2)">
      <g id="graph-prufer-6-__g-5">
        <svg xmlns:xlink="http://www.w3.org/1999/xlink" style="vertical-align: -0.400px" width="9.048px" height="12.456px" role="img" focusable="false" viewBox="0 -666 500 688" x="0.0" y="0.0">
          <defs>
            <path id="graph-prufer-6-MJX-7-NCM-N-36" d="M383 504C416 504 432 521 432 555C432 627 378 666 304 666C221 666 155 627 106 548C63 480 42 403 42 316C42 189 65 100 112 47C152 1 198-22 251-22C312-22 362 1 401 47C438 91 457 144 457 205C457 266 439 318 403 361C365 407 316 431 257 431C205 431 165 402 138 346L138 352C138 465 166 561 226 605C252 624 279 633 306 633C342 633 368 623 385 602C351 602 334 583 334 553C334 525 355 504 383 504M344 340C355 317 361 272 361 206C361 141 356 98 345 76C325 35 294 14 251 14C222 14 200 24 184 44C171 60 162 74 158 85C146 116 140 163 140 227C140 255 144 282 151 308C164 355 201 399 256 399C295 399 325 379 344 340Z"/>
          </defs>
          <g stroke="currentColor" fill="currentColor" stroke-width="0" transform="scale(1,-1)">
            <g data-mml-node="math">
              <g data-mml-node="mn" data-semantic-type="number" data-semantic-role="integer" data-semantic-font="normal" data-semantic-annotation="clearspeak:simple;nemeth:number;depth:1" data-semantic-id="0" data-semantic-attributes="latex:6" data-semantic-speech="6">
                <use data-c="36" xlink:href="#graph-prufer-6-MJX-7-NCM-N-36"/>
              </g>
            </g>
          </g>
        </svg>
      </g>
    </g>
  </g>
</svg>
