<svg xmlns="http://www.w3.org/2000/svg" id="linear-orders-labeled-figure" width="430" height="330" viewBox="0 0 430 330">
  <defs>
    <clipPath id="linear-orders-labeled-clipPath-0">
      <rect x="15.0" y="15.0" width="400.0" height="300.0"/>
    </clipPath>
    <clipPath id="linear-orders-labeled-clipPath-1">
      <rect x="15.0" y="15.0" width="400.0" height="300.0"/>
    </clipPath>
  </defs>
  <g id="linear-orders-labeled-g-0">
    <g id="linear-orders-labeled-g-1">
      <path id="linear-orders-labeled-edge-l0-l1" d="M 81.7 315.0 Q 81.7 300.0 81.7 285.0 Q 81.7 270.0 81.7 255.0" stroke="black" stroke-width="2" stroke-dasharray="none" fill="none" clip-path="url(#linear-orders-labeled-clipPath-1)"/>
      <path id="linear-orders-labeled-edge-l1-l2" d="M 81.7 255.0 Q 81.7 240.0 81.7 225.0 Q 81.7 210.0 81.7 195.0" stroke="black" stroke-width="2" stroke-dasharray="none" fill="none" clip-path="url(#linear-orders-labeled-clipPath-1)"/>
      <path id="linear-orders-labeled-edge-l2-l3" d="M 81.7 195.0 Q 81.7 180.0 81.7 165.0 Q 81.7 150.0 81.7 135.0" stroke="black" stroke-width="2" stroke-dasharray="none" fill="none" clip-path="url(#linear-orders-labeled-clipPath-1)"/>
      <path id="linear-orders-labeled-edge-l3-l4" d="M 81.7 135.0 Q 81.7 120.0 81.7 105.0 Q 81.7 90.0 81.7 75.0" stroke="black" stroke-width="2" stroke-dasharray="none" fill="none" clip-path="url(#linear-orders-labeled-clipPath-1)"/>
      <path id="linear-orders-labeled-edge-l4-l5" d="M 81.7 75.0 Q 81.7 60.0 81.7 45.0 Q 81.7 30.0 81.7 15.0" stroke="black" stroke-width="2" stroke-dasharray="none" fill="none" clip-path="url(#linear-orders-labeled-clipPath-1)"/>
      <path id="linear-orders-labeled-edge-m0-m1" d="M 215.0 315.0 Q 215.0 300.0 215.0 285.0 Q 215.0 270.0 215.0 255.0" stroke="black" stroke-width="2" stroke-dasharray="none" fill="none" clip-path="url(#linear-orders-labeled-clipPath-1)"/>
      <path id="linear-orders-labeled-edge-m1-m2" d="M 215.0 255.0 Q 215.0 240.0 215.0 225.0 Q 215.0 210.0 215.0 195.0" stroke="black" stroke-width="2" stroke-dasharray="none" fill="none" clip-path="url(#linear-orders-labeled-clipPath-1)"/>
      <path id="linear-orders-labeled-edge-m2-m3" d="M 215.0 195.0 Q 215.0 180.0 215.0 165.0 Q 215.0 150.0 215.0 135.0" stroke="black" stroke-width="2" stroke-dasharray="none" fill="none" clip-path="url(#linear-orders-labeled-clipPath-1)"/>
      <path id="linear-orders-labeled-edge-m3-m4" d="M 215.0 135.0 Q 215.0 120.0 215.0 105.0 Q 215.0 90.0 215.0 75.0" stroke="black" stroke-width="2" stroke-dasharray="none" fill="none" clip-path="url(#linear-orders-labeled-clipPath-1)"/>
      <path id="linear-orders-labeled-edge-m4-m5" d="M 215.0 75.0 Q 215.0 60.0 215.0 45.0 Q 215.0 30.0 215.0 15.0" stroke="black" stroke-width="2" stroke-dasharray="none" fill="none" clip-path="url(#linear-orders-labeled-clipPath-1)"/>
      <path id="linear-orders-labeled-edge-n0-n1" d="M 348.3 315.0 Q 348.3 300.0 348.3 285.0 Q 348.3 270.0 348.3 255.0" stroke="black" stroke-width="2" stroke-dasharray="none" fill="none" clip-path="url(#linear-orders-labeled-clipPath-1)"/>
      <path id="linear-orders-labeled-edge-n1-n2" d="M 348.3 255.0 Q 348.3 240.0 348.3 225.0 Q 348.3 210.0 348.3 195.0" stroke="black" stroke-width="2" stroke-dasharray="none" fill="none" clip-path="url(#linear-orders-labeled-clipPath-1)"/>
      <path id="linear-orders-labeled-edge-n2-n3" d="M 348.3 195.0 Q 348.3 180.0 348.3 165.0 Q 348.3 150.0 348.3 135.0" stroke="black" stroke-width="2" stroke-dasharray="none" fill="none" clip-path="url(#linear-orders-labeled-clipPath-1)"/>
      <path id="linear-orders-labeled-edge-n3-n4" d="M 348.3 135.0 Q 348.3 120.0 348.3 105.0 Q 348.3 90.0 348.3 75.0" stroke="black" stroke-width="2" stroke-dasharray="none" fill="none" clip-path="url(#linear-orders-labeled-clipPath-1)"/>
      <path id="linear-orders-labeled-edge-n4-n5" d="M 348.3 75.0 Q 348.3 60.0 348.3 45.0 Q 348.3 30.0 348.3 15.0" stroke="black" stroke-width="2" stroke-dasharray="none" fill="none" clip-path="url(#linear-orders-labeled-clipPath-1)"/>
    </g>
    <g id="linear-orders-labeled-g-2">
      <circle id="linear-orders-labeled-node-l0" cx="81.7" cy="315.0" r="12" stroke="black" stroke-width="1" fill="#eee"/>
      <g id="linear-orders-labeled-l0" transform="translate(81.7,315.0) translate(-5.2,-4.1)">
        <g id="linear-orders-labeled-g-3">
          <svg xmlns:xlink="http://www.w3.org/1999/xlink" style="vertical-align: -0.200px" width="10.352px" height="8.200px" role="img" focusable="false" viewBox="0 -442 572 453" x="0.0" y="0.0">
            <defs>
              <path id="linear-orders-labeled-MJX-2-TEX-I-1D465" d="M52 289Q59 331 106 386T222 442Q257 442 286 424T329 379Q371 442 430 442Q467 442 494 420T522 361Q522 332 508 314T481 292T458 288Q439 288 427 299T415 328Q415 374 465 391Q454 404 425 404Q412 404 406 402Q368 386 350 336Q290 115 290 78Q290 50 306 38T341 26Q378 26 414 59T463 140Q466 150 469 151T485 153H489Q504 153 504 145Q504 144 502 134Q486 77 440 33T333 -11Q263 -11 227 52Q186 -10 133 -10H127Q78 -10 57 16T35 71Q35 103 54 123T99 143Q142 143 142 101Q142 81 130 66T107 46T94 41L91 40Q91 39 97 36T113 29T132 26Q168 26 194 71Q203 87 217 139T245 247T261 313Q266 340 266 352Q266 380 251 392T217 404Q177 404 142 372T93 290Q91 281 88 280T72 278H58Q52 284 52 289Z"/>
            </defs>
            <g stroke="currentColor" fill="currentColor" stroke-width="0" transform="scale(1,-1)">
              <g data-mml-node="math">
                <g data-mml-node="mi" data-semantic-type="identifier" data-semantic-role="latinletter" data-semantic-font="italic" data-semantic-annotation="clearspeak:simple" data-semantic-id="0" data-semantic-speech="x">
                  <use data-c="1D465" xlink:href="#linear-orders-labeled-MJX-2-TEX-I-1D465"/>
                </g>
              </g>
            </g>
          </svg>
        </g>
      </g>
      <circle id="linear-orders-labeled-node-l1" cx="81.7" cy="255.0" r="12" stroke="black" stroke-width="1" fill="#eee"/>
      <g id="linear-orders-labeled-l1" transform="translate(81.7,255.0) translate(-4.4,-5.9)">
        <g id="linear-orders-labeled-g-4">
          <svg xmlns:xlink="http://www.w3.org/1999/xlink" style="vertical-align: -3.712px" width="8.872px" height="11.712px" role="img" focusable="false" viewBox="0 -442 490 647" x="0.0" y="0.0">
            <defs>
              <path id="linear-orders-labeled-MJX-3-TEX-I-1D466" d="M21 287Q21 301 36 335T84 406T158 442Q199 442 224 419T250 355Q248 336 247 334Q247 331 231 288T198 191T182 105Q182 62 196 45T238 27Q261 27 281 38T312 61T339 94Q339 95 344 114T358 173T377 247Q415 397 419 404Q432 431 462 431Q475 431 483 424T494 412T496 403Q496 390 447 193T391 -23Q363 -106 294 -155T156 -205Q111 -205 77 -183T43 -117Q43 -95 50 -80T69 -58T89 -48T106 -45Q150 -45 150 -87Q150 -107 138 -122T115 -142T102 -147L99 -148Q101 -153 118 -160T152 -167H160Q177 -167 186 -165Q219 -156 247 -127T290 -65T313 -9T321 21L315 17Q309 13 296 6T270 -6Q250 -11 231 -11Q185 -11 150 11T104 82Q103 89 103 113Q103 170 138 262T173 379Q173 380 173 381Q173 390 173 393T169 400T158 404H154Q131 404 112 385T82 344T65 302T57 280Q55 278 41 278H27Q21 284 21 287Z"/>
            </defs>
            <g stroke="currentColor" fill="currentColor" stroke-width="0" transform="scale(1,-1)">
              <g data-mml-node="math">
                <g data-mml-node="mi" data-semantic-type="identifier" data-semantic-role="latinletter" data-semantic-font="italic" data-semantic-annotation="clearspeak:simple" data-semantic-id="0" data-semantic-speech="y">
                  <use data-c="1D466" xlink:href="#linear-orders-labeled-MJX-3-TEX-I-1D466"/>
                </g>
              </g>
            </g>
          </svg>
        </g>
      </g>
      <circle id="linear-orders-labeled-node-l2" cx="81.7" cy="195.0" r="12" stroke="black" stroke-width="1" fill="#eee"/>
      <g id="linear-orders-labeled-l2" transform="translate(81.7,195.0) translate(-4.8,-4.1)">
        <g id="linear-orders-labeled-g-5">
          <svg xmlns:xlink="http://www.w3.org/1999/xlink" style="vertical-align: -0.184px" width="9.576px" height="8.160px" role="img" focusable="false" viewBox="0 -441 529 451" x="0.0" y="0.0">
            <defs>
              <path id="linear-orders-labeled-MJX-4-TEX-I-1D44E" d="M33 157Q33 258 109 349T280 441Q331 441 370 392Q386 422 416 422Q429 422 439 414T449 394Q449 381 412 234T374 68Q374 43 381 35T402 26Q411 27 422 35Q443 55 463 131Q469 151 473 152Q475 153 483 153H487Q506 153 506 144Q506 138 501 117T481 63T449 13Q436 0 417 -8Q409 -10 393 -10Q359 -10 336 5T306 36L300 51Q299 52 296 50Q294 48 292 46Q233 -10 172 -10Q117 -10 75 30T33 157ZM351 328Q351 334 346 350T323 385T277 405Q242 405 210 374T160 293Q131 214 119 129Q119 126 119 118T118 106Q118 61 136 44T179 26Q217 26 254 59T298 110Q300 114 325 217T351 328Z"/>
            </defs>
            <g stroke="currentColor" fill="currentColor" stroke-width="0" transform="scale(1,-1)">
              <g data-mml-node="math">
                <g data-mml-node="mi" data-semantic-type="identifier" data-semantic-role="latinletter" data-semantic-font="italic" data-semantic-annotation="clearspeak:simple" data-semantic-id="0" data-semantic-speech="a">
                  <use data-c="1D44E" xlink:href="#linear-orders-labeled-MJX-4-TEX-I-1D44E"/>
                </g>
              </g>
            </g>
          </svg>
        </g>
      </g>
      <circle id="linear-orders-labeled-node-l3" cx="81.7" cy="135.0" r="12" stroke="black" stroke-width="1" fill="#eee"/>
      <g id="linear-orders-labeled-l3" transform="translate(81.7,135.0) translate(-3.9,-6.4)">
        <g id="linear-orders-labeled-g-6">
          <svg xmlns:xlink="http://www.w3.org/1999/xlink" style="vertical-align: -0.200px" width="7.768px" height="12.760px" role="img" focusable="false" viewBox="0 -694 429 705" x="0.0" y="0.0">
            <defs>
              <path id="linear-orders-labeled-MJX-5-TEX-I-1D44F" d="M73 647Q73 657 77 670T89 683Q90 683 161 688T234 694Q246 694 246 685T212 542Q204 508 195 472T180 418L176 399Q176 396 182 402Q231 442 283 442Q345 442 383 396T422 280Q422 169 343 79T173 -11Q123 -11 82 27T40 150V159Q40 180 48 217T97 414Q147 611 147 623T109 637Q104 637 101 637H96Q86 637 83 637T76 640T73 647ZM336 325V331Q336 405 275 405Q258 405 240 397T207 376T181 352T163 330L157 322L136 236Q114 150 114 114Q114 66 138 42Q154 26 178 26Q211 26 245 58Q270 81 285 114T318 219Q336 291 336 325Z"/>
            </defs>
            <g stroke="currentColor" fill="currentColor" stroke-width="0" transform="scale(1,-1)">
              <g data-mml-node="math">
                <g data-mml-node="mi" data-semantic-type="identifier" data-semantic-role="latinletter" data-semantic-font="italic" data-semantic-annotation="clearspeak:simple" data-semantic-id="0" data-semantic-speech="b">
                  <use data-c="1D44F" xlink:href="#linear-orders-labeled-MJX-5-TEX-I-1D44F"/>
                </g>
              </g>
            </g>
          </svg>
        </g>
      </g>
      <circle id="linear-orders-labeled-node-l4" cx="81.7" cy="75.0" r="12" stroke="black" stroke-width="1" fill="#eee"/>
      <g id="linear-orders-labeled-l4" transform="translate(81.7,75.0) translate(-4.2,-4.1)">
        <g id="linear-orders-labeled-g-7">
          <svg xmlns:xlink="http://www.w3.org/1999/xlink" style="vertical-align: -0.200px" width="8.416px" height="8.200px" role="img" focusable="false" viewBox="0 -442 465 453" x="0.0" y="0.0">
            <defs>
              <path id="linear-orders-labeled-MJX-6-TEX-I-1D467" d="M347 338Q337 338 294 349T231 360Q211 360 197 356T174 346T162 335T155 324L153 320Q150 317 138 317Q117 317 117 325Q117 330 120 339Q133 378 163 406T229 440Q241 442 246 442Q271 442 291 425T329 392T367 375Q389 375 411 408T434 441Q435 442 449 442H462Q468 436 468 434Q468 430 463 420T449 399T432 377T418 358L411 349Q368 298 275 214T160 106L148 94L163 93Q185 93 227 82T290 71Q328 71 360 90T402 140Q406 149 409 151T424 153Q443 153 443 143Q443 138 442 134Q425 72 376 31T278 -11Q252 -11 232 6T193 40T155 57Q111 57 76 -3Q70 -11 59 -11H54H41Q35 -5 35 -2Q35 13 93 84Q132 129 225 214T340 322Q352 338 347 338Z"/>
            </defs>
            <g stroke="currentColor" fill="currentColor" stroke-width="0" transform="scale(1,-1)">
              <g data-mml-node="math">
                <g data-mml-node="mi" data-semantic-type="identifier" data-semantic-role="latinletter" data-semantic-font="italic" data-semantic-annotation="clearspeak:simple" data-semantic-id="0" data-semantic-speech="z">
                  <use data-c="1D467" xlink:href="#linear-orders-labeled-MJX-6-TEX-I-1D467"/>
                </g>
              </g>
            </g>
          </svg>
        </g>
      </g>
      <circle id="linear-orders-labeled-node-l5" cx="81.7" cy="15.0" r="12" stroke="black" stroke-width="1" fill="#eee"/>
      <g id="linear-orders-labeled-l5" transform="translate(81.7,15.0) translate(-6.5,-4.1)">
        <g id="linear-orders-labeled-g-8">
          <svg xmlns:xlink="http://www.w3.org/1999/xlink" style="vertical-align: -0.200px" width="12.960px" height="8.216px" role="img" focusable="false" viewBox="0 -443 716 454" x="0.0" y="0.0">
            <defs>
              <path id="linear-orders-labeled-MJX-7-TEX-I-1D464" d="M580 385Q580 406 599 424T641 443Q659 443 674 425T690 368Q690 339 671 253Q656 197 644 161T609 80T554 12T482 -11Q438 -11 404 5T355 48Q354 47 352 44Q311 -11 252 -11Q226 -11 202 -5T155 14T118 53T104 116Q104 170 138 262T173 379Q173 380 173 381Q173 390 173 393T169 400T158 404H154Q131 404 112 385T82 344T65 302T57 280Q55 278 41 278H27Q21 284 21 287Q21 293 29 315T52 366T96 418T161 441Q204 441 227 416T250 358Q250 340 217 250T184 111Q184 65 205 46T258 26Q301 26 334 87L339 96V119Q339 122 339 128T340 136T341 143T342 152T345 165T348 182T354 206T362 238T373 281Q402 395 406 404Q419 431 449 431Q468 431 475 421T483 402Q483 389 454 274T422 142Q420 131 420 107V100Q420 85 423 71T442 42T487 26Q558 26 600 148Q609 171 620 213T632 273Q632 306 619 325T593 357T580 385Z"/>
            </defs>
            <g stroke="currentColor" fill="currentColor" stroke-width="0" transform="scale(1,-1)">
              <g data-mml-node="math">
                <g data-mml-node="mi" data-semantic-type="identifier" data-semantic-role="latinletter" data-semantic-font="italic" data-semantic-annotation="clearspeak:simple" data-semantic-id="0" data-semantic-speech="w">
                  <use data-c="1D464" xlink:href="#linear-orders-labeled-MJX-7-TEX-I-1D464"/>
                </g>
              </g>
            </g>
          </svg>
        </g>
      </g>
      <circle id="linear-orders-labeled-node-m0" cx="215.0" cy="315.0" r="12" stroke="black" stroke-width="1" fill="#eee"/>
      <g id="linear-orders-labeled-m0" transform="translate(215.0,315.0) translate(-4.8,-4.1)">
        <g id="linear-orders-labeled-g-9">
          <svg xmlns:xlink="http://www.w3.org/1999/xlink" style="vertical-align: -0.184px" width="9.576px" height="8.160px" role="img" focusable="false" viewBox="0 -441 529 451" x="0.0" y="0.0">
            <defs>
              <path id="linear-orders-labeled-MJX-8-TEX-I-1D44E" d="M33 157Q33 258 109 349T280 441Q331 441 370 392Q386 422 416 422Q429 422 439 414T449 394Q449 381 412 234T374 68Q374 43 381 35T402 26Q411 27 422 35Q443 55 463 131Q469 151 473 152Q475 153 483 153H487Q506 153 506 144Q506 138 501 117T481 63T449 13Q436 0 417 -8Q409 -10 393 -10Q359 -10 336 5T306 36L300 51Q299 52 296 50Q294 48 292 46Q233 -10 172 -10Q117 -10 75 30T33 157ZM351 328Q351 334 346 350T323 385T277 405Q242 405 210 374T160 293Q131 214 119 129Q119 126 119 118T118 106Q118 61 136 44T179 26Q217 26 254 59T298 110Q300 114 325 217T351 328Z"/>
            </defs>
            <g stroke="currentColor" fill="currentColor" stroke-width="0" transform="scale(1,-1)">
              <g data-mml-node="math">
                <g data-mml-node="mi" data-semantic-type="identifier" data-semantic-role="latinletter" data-semantic-font="italic" data-semantic-annotation="clearspeak:simple" data-semantic-id="0" data-semantic-speech="a">
                  <use data-c="1D44E" xlink:href="#linear-orders-labeled-MJX-8-TEX-I-1D44E"/>
                </g>
              </g>
            </g>
          </svg>
        </g>
      </g>
      <circle id="linear-orders-labeled-node-m1" cx="215.0" cy="255.0" r="12" stroke="black" stroke-width="1" fill="#eee"/>
      <g id="linear-orders-labeled-m1" transform="translate(215.0,255.0) translate(-5.2,-4.1)">
        <g id="linear-orders-labeled-g-10">
          <svg xmlns:xlink="http://www.w3.org/1999/xlink" style="vertical-align: -0.200px" width="10.352px" height="8.200px" role="img" focusable="false" viewBox="0 -442 572 453" x="0.0" y="0.0">
            <defs>
              <path id="linear-orders-labeled-MJX-9-TEX-I-1D465" d="M52 289Q59 331 106 386T222 442Q257 442 286 424T329 379Q371 442 430 442Q467 442 494 420T522 361Q522 332 508 314T481 292T458 288Q439 288 427 299T415 328Q415 374 465 391Q454 404 425 404Q412 404 406 402Q368 386 350 336Q290 115 290 78Q290 50 306 38T341 26Q378 26 414 59T463 140Q466 150 469 151T485 153H489Q504 153 504 145Q504 144 502 134Q486 77 440 33T333 -11Q263 -11 227 52Q186 -10 133 -10H127Q78 -10 57 16T35 71Q35 103 54 123T99 143Q142 143 142 101Q142 81 130 66T107 46T94 41L91 40Q91 39 97 36T113 29T132 26Q168 26 194 71Q203 87 217 139T245 247T261 313Q266 340 266 352Q266 380 251 392T217 404Q177 404 142 372T93 290Q91 281 88 280T72 278H58Q52 284 52 289Z"/>
            </defs>
            <g stroke="currentColor" fill="currentColor" stroke-width="0" transform="scale(1,-1)">
              <g data-mml-node="math">
                <g data-mml-node="mi" data-semantic-type="identifier" data-semantic-role="latinletter" data-semantic-font="italic" data-semantic-annotation="clearspeak:simple" data-semantic-id="0" data-semantic-speech="x">
                  <use data-c="1D465" xlink:href="#linear-orders-labeled-MJX-9-TEX-I-1D465"/>
                </g>
              </g>
            </g>
          </svg>
        </g>
      </g>
      <circle id="linear-orders-labeled-node-m2" cx="215.0" cy="195.0" r="12" stroke="black" stroke-width="1" fill="#eee"/>
      <g id="linear-orders-labeled-m2" transform="translate(215.0,195.0) translate(-4.4,-5.9)">
        <g id="linear-orders-labeled-g-11">
          <svg xmlns:xlink="http://www.w3.org/1999/xlink" style="vertical-align: -3.712px" width="8.872px" height="11.712px" role="img" focusable="false" viewBox="0 -442 490 647" x="0.0" y="0.0">
            <defs>
              <path id="linear-orders-labeled-MJX-10-TEX-I-1D466" d="M21 287Q21 301 36 335T84 406T158 442Q199 442 224 419T250 355Q248 336 247 334Q247 331 231 288T198 191T182 105Q182 62 196 45T238 27Q261 27 281 38T312 61T339 94Q339 95 344 114T358 173T377 247Q415 397 419 404Q432 431 462 431Q475 431 483 424T494 412T496 403Q496 390 447 193T391 -23Q363 -106 294 -155T156 -205Q111 -205 77 -183T43 -117Q43 -95 50 -80T69 -58T89 -48T106 -45Q150 -45 150 -87Q150 -107 138 -122T115 -142T102 -147L99 -148Q101 -153 118 -160T152 -167H160Q177 -167 186 -165Q219 -156 247 -127T290 -65T313 -9T321 21L315 17Q309 13 296 6T270 -6Q250 -11 231 -11Q185 -11 150 11T104 82Q103 89 103 113Q103 170 138 262T173 379Q173 380 173 381Q173 390 173 393T169 400T158 404H154Q131 404 112 385T82 344T65 302T57 280Q55 278 41 278H27Q21 284 21 287Z"/>
            </defs>
            <g stroke="currentColor" fill="currentColor" stroke-width="0" transform="scale(1,-1)">
              <g data-mml-node="math">
                <g data-mml-node="mi" data-semantic-type="identifier" data-semantic-role="latinletter" data-semantic-font="italic" data-semantic-annotation="clearspeak:simple" data-semantic-id="0" data-semantic-speech="y">
                  <use data-c="1D466" xlink:href="#linear-orders-labeled-MJX-10-TEX-I-1D466"/>
                </g>
              </g>
            </g>
          </svg>
        </g>
      </g>
      <circle id="linear-orders-labeled-node-m3" cx="215.0" cy="135.0" r="12" stroke="black" stroke-width="1" fill="#eee"/>
      <g id="linear-orders-labeled-m3" transform="translate(215.0,135.0) translate(-4.2,-4.1)">
        <g id="linear-orders-labeled-g-12">
          <svg xmlns:xlink="http://www.w3.org/1999/xlink" style="vertical-align: -0.200px" width="8.416px" height="8.200px" role="img" focusable="false" viewBox="0 -442 465 453" x="0.0" y="0.0">
            <defs>
              <path id="linear-orders-labeled-MJX-11-TEX-I-1D467" d="M347 338Q337 338 294 349T231 360Q211 360 197 356T174 346T162 335T155 324L153 320Q150 317 138 317Q117 317 117 325Q117 330 120 339Q133 378 163 406T229 440Q241 442 246 442Q271 442 291 425T329 392T367 375Q389 375 411 408T434 441Q435 442 449 442H462Q468 436 468 434Q468 430 463 420T449 399T432 377T418 358L411 349Q368 298 275 214T160 106L148 94L163 93Q185 93 227 82T290 71Q328 71 360 90T402 140Q406 149 409 151T424 153Q443 153 443 143Q443 138 442 134Q425 72 376 31T278 -11Q252 -11 232 6T193 40T155 57Q111 57 76 -3Q70 -11 59 -11H54H41Q35 -5 35 -2Q35 13 93 84Q132 129 225 214T340 322Q352 338 347 338Z"/>
            </defs>
            <g stroke="currentColor" fill="currentColor" stroke-width="0" transform="scale(1,-1)">
              <g data-mml-node="math">
                <g data-mml-node="mi" data-semantic-type="identifier" data-semantic-role="latinletter" data-semantic-font="italic" data-semantic-annotation="clearspeak:simple" data-semantic-id="0" data-semantic-speech="z">
                  <use data-c="1D467" xlink:href="#linear-orders-labeled-MJX-11-TEX-I-1D467"/>
                </g>
              </g>
            </g>
          </svg>
        </g>
      </g>
      <circle id="linear-orders-labeled-node-m4" cx="215.0" cy="75.0" r="12" stroke="black" stroke-width="1" fill="#eee"/>
      <g id="linear-orders-labeled-m4" transform="translate(215.0,75.0) translate(-6.5,-4.1)">
        <g id="linear-orders-labeled-g-13">
          <svg xmlns:xlink="http://www.w3.org/1999/xlink" style="vertical-align: -0.200px" width="12.960px" height="8.216px" role="img" focusable="false" viewBox="0 -443 716 454" x="0.0" y="0.0">
            <defs>
              <path id="linear-orders-labeled-MJX-12-TEX-I-1D464" d="M580 385Q580 406 599 424T641 443Q659 443 674 425T690 368Q690 339 671 253Q656 197 644 161T609 80T554 12T482 -11Q438 -11 404 5T355 48Q354 47 352 44Q311 -11 252 -11Q226 -11 202 -5T155 14T118 53T104 116Q104 170 138 262T173 379Q173 380 173 381Q173 390 173 393T169 400T158 404H154Q131 404 112 385T82 344T65 302T57 280Q55 278 41 278H27Q21 284 21 287Q21 293 29 315T52 366T96 418T161 441Q204 441 227 416T250 358Q250 340 217 250T184 111Q184 65 205 46T258 26Q301 26 334 87L339 96V119Q339 122 339 128T340 136T341 143T342 152T345 165T348 182T354 206T362 238T373 281Q402 395 406 404Q419 431 449 431Q468 431 475 421T483 402Q483 389 454 274T422 142Q420 131 420 107V100Q420 85 423 71T442 42T487 26Q558 26 600 148Q609 171 620 213T632 273Q632 306 619 325T593 357T580 385Z"/>
            </defs>
            <g stroke="currentColor" fill="currentColor" stroke-width="0" transform="scale(1,-1)">
              <g data-mml-node="math">
                <g data-mml-node="mi" data-semantic-type="identifier" data-semantic-role="latinletter" data-semantic-font="italic" data-semantic-annotation="clearspeak:simple" data-semantic-id="0" data-semantic-speech="w">
                  <use data-c="1D464" xlink:href="#linear-orders-labeled-MJX-12-TEX-I-1D464"/>
                </g>
              </g>
            </g>
          </svg>
        </g>
      </g>
      <circle id="linear-orders-labeled-node-m5" cx="215.0" cy="15.0" r="12" stroke="black" stroke-width="1" fill="#eee"/>
      <g id="linear-orders-labeled-m5" transform="translate(215.0,15.0) translate(-3.9,-6.4)">
        <g id="linear-orders-labeled-g-14">
          <svg xmlns:xlink="http://www.w3.org/1999/xlink" style="vertical-align: -0.200px" width="7.768px" height="12.760px" role="img" focusable="false" viewBox="0 -694 429 705" x="0.0" y="0.0">
            <defs>
              <path id="linear-orders-labeled-MJX-13-TEX-I-1D44F" d="M73 647Q73 657 77 670T89 683Q90 683 161 688T234 694Q246 694 246 685T212 542Q204 508 195 472T180 418L176 399Q176 396 182 402Q231 442 283 442Q345 442 383 396T422 280Q422 169 343 79T173 -11Q123 -11 82 27T40 150V159Q40 180 48 217T97 414Q147 611 147 623T109 637Q104 637 101 637H96Q86 637 83 637T76 640T73 647ZM336 325V331Q336 405 275 405Q258 405 240 397T207 376T181 352T163 330L157 322L136 236Q114 150 114 114Q114 66 138 42Q154 26 178 26Q211 26 245 58Q270 81 285 114T318 219Q336 291 336 325Z"/>
            </defs>
            <g stroke="currentColor" fill="currentColor" stroke-width="0" transform="scale(1,-1)">
              <g data-mml-node="math">
                <g data-mml-node="mi" data-semantic-type="identifier" data-semantic-role="latinletter" data-semantic-font="italic" data-semantic-annotation="clearspeak:simple" data-semantic-id="0" data-semantic-speech="b">
                  <use data-c="1D44F" xlink:href="#linear-orders-labeled-MJX-13-TEX-I-1D44F"/>
                </g>
              </g>
            </g>
          </svg>
        </g>
      </g>
      <circle id="linear-orders-labeled-node-n0" cx="348.3" cy="315.0" r="12" stroke="black" stroke-width="1" fill="#eee"/>
      <g id="linear-orders-labeled-n0" transform="translate(348.3,315.0) translate(-5.2,-4.1)">
        <g id="linear-orders-labeled-g-15">
          <svg xmlns:xlink="http://www.w3.org/1999/xlink" style="vertical-align: -0.200px" width="10.352px" height="8.200px" role="img" focusable="false" viewBox="0 -442 572 453" x="0.0" y="0.0">
            <defs>
              <path id="linear-orders-labeled-MJX-14-TEX-I-1D465" d="M52 289Q59 331 106 386T222 442Q257 442 286 424T329 379Q371 442 430 442Q467 442 494 420T522 361Q522 332 508 314T481 292T458 288Q439 288 427 299T415 328Q415 374 465 391Q454 404 425 404Q412 404 406 402Q368 386 350 336Q290 115 290 78Q290 50 306 38T341 26Q378 26 414 59T463 140Q466 150 469 151T485 153H489Q504 153 504 145Q504 144 502 134Q486 77 440 33T333 -11Q263 -11 227 52Q186 -10 133 -10H127Q78 -10 57 16T35 71Q35 103 54 123T99 143Q142 143 142 101Q142 81 130 66T107 46T94 41L91 40Q91 39 97 36T113 29T132 26Q168 26 194 71Q203 87 217 139T245 247T261 313Q266 340 266 352Q266 380 251 392T217 404Q177 404 142 372T93 290Q91 281 88 280T72 278H58Q52 284 52 289Z"/>
            </defs>
            <g stroke="currentColor" fill="currentColor" stroke-width="0" transform="scale(1,-1)">
              <g data-mml-node="math">
                <g data-mml-node="mi" data-semantic-type="identifier" data-semantic-role="latinletter" data-semantic-font="italic" data-semantic-annotation="clearspeak:simple" data-semantic-id="0" data-semantic-speech="x">
                  <use data-c="1D465" xlink:href="#linear-orders-labeled-MJX-14-TEX-I-1D465"/>
                </g>
              </g>
            </g>
          </svg>
        </g>
      </g>
      <circle id="linear-orders-labeled-node-n1" cx="348.3" cy="255.0" r="12" stroke="black" stroke-width="1" fill="#eee"/>
      <g id="linear-orders-labeled-n1" transform="translate(348.3,255.0) translate(-4.4,-5.9)">
        <g id="linear-orders-labeled-g-16">
          <svg xmlns:xlink="http://www.w3.org/1999/xlink" style="vertical-align: -3.712px" width="8.872px" height="11.712px" role="img" focusable="false" viewBox="0 -442 490 647" x="0.0" y="0.0">
            <defs>
              <path id="linear-orders-labeled-MJX-15-TEX-I-1D466" d="M21 287Q21 301 36 335T84 406T158 442Q199 442 224 419T250 355Q248 336 247 334Q247 331 231 288T198 191T182 105Q182 62 196 45T238 27Q261 27 281 38T312 61T339 94Q339 95 344 114T358 173T377 247Q415 397 419 404Q432 431 462 431Q475 431 483 424T494 412T496 403Q496 390 447 193T391 -23Q363 -106 294 -155T156 -205Q111 -205 77 -183T43 -117Q43 -95 50 -80T69 -58T89 -48T106 -45Q150 -45 150 -87Q150 -107 138 -122T115 -142T102 -147L99 -148Q101 -153 118 -160T152 -167H160Q177 -167 186 -165Q219 -156 247 -127T290 -65T313 -9T321 21L315 17Q309 13 296 6T270 -6Q250 -11 231 -11Q185 -11 150 11T104 82Q103 89 103 113Q103 170 138 262T173 379Q173 380 173 381Q173 390 173 393T169 400T158 404H154Q131 404 112 385T82 344T65 302T57 280Q55 278 41 278H27Q21 284 21 287Z"/>
            </defs>
            <g stroke="currentColor" fill="currentColor" stroke-width="0" transform="scale(1,-1)">
              <g data-mml-node="math">
                <g data-mml-node="mi" data-semantic-type="identifier" data-semantic-role="latinletter" data-semantic-font="italic" data-semantic-annotation="clearspeak:simple" data-semantic-id="0" data-semantic-speech="y">
                  <use data-c="1D466" xlink:href="#linear-orders-labeled-MJX-15-TEX-I-1D466"/>
                </g>
              </g>
            </g>
          </svg>
        </g>
      </g>
      <circle id="linear-orders-labeled-node-n2" cx="348.3" cy="195.0" r="12" stroke="black" stroke-width="1" fill="#eee"/>
      <g id="linear-orders-labeled-n2" transform="translate(348.3,195.0) translate(-3.9,-6.4)">
        <g id="linear-orders-labeled-g-17">
          <svg xmlns:xlink="http://www.w3.org/1999/xlink" style="vertical-align: -0.200px" width="7.768px" height="12.760px" role="img" focusable="false" viewBox="0 -694 429 705" x="0.0" y="0.0">
            <defs>
              <path id="linear-orders-labeled-MJX-16-TEX-I-1D44F" d="M73 647Q73 657 77 670T89 683Q90 683 161 688T234 694Q246 694 246 685T212 542Q204 508 195 472T180 418L176 399Q176 396 182 402Q231 442 283 442Q345 442 383 396T422 280Q422 169 343 79T173 -11Q123 -11 82 27T40 150V159Q40 180 48 217T97 414Q147 611 147 623T109 637Q104 637 101 637H96Q86 637 83 637T76 640T73 647ZM336 325V331Q336 405 275 405Q258 405 240 397T207 376T181 352T163 330L157 322L136 236Q114 150 114 114Q114 66 138 42Q154 26 178 26Q211 26 245 58Q270 81 285 114T318 219Q336 291 336 325Z"/>
            </defs>
            <g stroke="currentColor" fill="currentColor" stroke-width="0" transform="scale(1,-1)">
              <g data-mml-node="math">
                <g data-mml-node="mi" data-semantic-type="identifier" data-semantic-role="latinletter" data-semantic-font="italic" data-semantic-annotation="clearspeak:simple" data-semantic-id="0" data-semantic-speech="b">
                  <use data-c="1D44F" xlink:href="#linear-orders-labeled-MJX-16-TEX-I-1D44F"/>
                </g>
              </g>
            </g>
          </svg>
        </g>
      </g>
      <circle id="linear-orders-labeled-node-n3" cx="348.3" cy="135.0" r="12" stroke="black" stroke-width="1" fill="#eee"/>
      <g id="linear-orders-labeled-n3" transform="translate(348.3,135.0) translate(-4.2,-4.1)">
        <g id="linear-orders-labeled-g-18">
          <svg xmlns:xlink="http://www.w3.org/1999/xlink" style="vertical-align: -0.200px" width="8.416px" height="8.200px" role="img" focusable="false" viewBox="0 -442 465 453" x="0.0" y="0.0">
            <defs>
              <path id="linear-orders-labeled-MJX-17-TEX-I-1D467" d="M347 338Q337 338 294 349T231 360Q211 360 197 356T174 346T162 335T155 324L153 320Q150 317 138 317Q117 317 117 325Q117 330 120 339Q133 378 163 406T229 440Q241 442 246 442Q271 442 291 425T329 392T367 375Q389 375 411 408T434 441Q435 442 449 442H462Q468 436 468 434Q468 430 463 420T449 399T432 377T418 358L411 349Q368 298 275 214T160 106L148 94L163 93Q185 93 227 82T290 71Q328 71 360 90T402 140Q406 149 409 151T424 153Q443 153 443 143Q443 138 442 134Q425 72 376 31T278 -11Q252 -11 232 6T193 40T155 57Q111 57 76 -3Q70 -11 59 -11H54H41Q35 -5 35 -2Q35 13 93 84Q132 129 225 214T340 322Q352 338 347 338Z"/>
            </defs>
            <g stroke="currentColor" fill="currentColor" stroke-width="0" transform="scale(1,-1)">
              <g data-mml-node="math">
                <g data-mml-node="mi" data-semantic-type="identifier" data-semantic-role="latinletter" data-semantic-font="italic" data-semantic-annotation="clearspeak:simple" data-semantic-id="0" data-semantic-speech="z">
                  <use data-c="1D467" xlink:href="#linear-orders-labeled-MJX-17-TEX-I-1D467"/>
                </g>
              </g>
            </g>
          </svg>
        </g>
      </g>
      <circle id="linear-orders-labeled-node-n4" cx="348.3" cy="75.0" r="12" stroke="black" stroke-width="1" fill="#eee"/>
      <g id="linear-orders-labeled-n4" transform="translate(348.3,75.0) translate(-4.8,-4.1)">
        <g id="linear-orders-labeled-g-19">
          <svg xmlns:xlink="http://www.w3.org/1999/xlink" style="vertical-align: -0.184px" width="9.576px" height="8.160px" role="img" focusable="false" viewBox="0 -441 529 451" x="0.0" y="0.0">
            <defs>
              <path id="linear-orders-labeled-MJX-18-TEX-I-1D44E" d="M33 157Q33 258 109 349T280 441Q331 441 370 392Q386 422 416 422Q429 422 439 414T449 394Q449 381 412 234T374 68Q374 43 381 35T402 26Q411 27 422 35Q443 55 463 131Q469 151 473 152Q475 153 483 153H487Q506 153 506 144Q506 138 501 117T481 63T449 13Q436 0 417 -8Q409 -10 393 -10Q359 -10 336 5T306 36L300 51Q299 52 296 50Q294 48 292 46Q233 -10 172 -10Q117 -10 75 30T33 157ZM351 328Q351 334 346 350T323 385T277 405Q242 405 210 374T160 293Q131 214 119 129Q119 126 119 118T118 106Q118 61 136 44T179 26Q217 26 254 59T298 110Q300 114 325 217T351 328Z"/>
            </defs>
            <g stroke="currentColor" fill="currentColor" stroke-width="0" transform="scale(1,-1)">
              <g data-mml-node="math">
                <g data-mml-node="mi" data-semantic-type="identifier" data-semantic-role="latinletter" data-semantic-font="italic" data-semantic-annotation="clearspeak:simple" data-semantic-id="0" data-semantic-speech="a">
                  <use data-c="1D44E" xlink:href="#linear-orders-labeled-MJX-18-TEX-I-1D44E"/>
                </g>
              </g>
            </g>
          </svg>
        </g>
      </g>
      <circle id="linear-orders-labeled-node-n5" cx="348.3" cy="15.0" r="12" stroke="black" stroke-width="1" fill="#eee"/>
      <g id="linear-orders-labeled-n5" transform="translate(348.3,15.0) translate(-6.5,-4.1)">
        <g id="linear-orders-labeled-g-20">
          <svg xmlns:xlink="http://www.w3.org/1999/xlink" style="vertical-align: -0.200px" width="12.960px" height="8.216px" role="img" focusable="false" viewBox="0 -443 716 454" x="0.0" y="0.0">
            <defs>
              <path id="linear-orders-labeled-MJX-19-TEX-I-1D464" d="M580 385Q580 406 599 424T641 443Q659 443 674 425T690 368Q690 339 671 253Q656 197 644 161T609 80T554 12T482 -11Q438 -11 404 5T355 48Q354 47 352 44Q311 -11 252 -11Q226 -11 202 -5T155 14T118 53T104 116Q104 170 138 262T173 379Q173 380 173 381Q173 390 173 393T169 400T158 404H154Q131 404 112 385T82 344T65 302T57 280Q55 278 41 278H27Q21 284 21 287Q21 293 29 315T52 366T96 418T161 441Q204 441 227 416T250 358Q250 340 217 250T184 111Q184 65 205 46T258 26Q301 26 334 87L339 96V119Q339 122 339 128T340 136T341 143T342 152T345 165T348 182T354 206T362 238T373 281Q402 395 406 404Q419 431 449 431Q468 431 475 421T483 402Q483 389 454 274T422 142Q420 131 420 107V100Q420 85 423 71T442 42T487 26Q558 26 600 148Q609 171 620 213T632 273Q632 306 619 325T593 357T580 385Z"/>
            </defs>
            <g stroke="currentColor" fill="currentColor" stroke-width="0" transform="scale(1,-1)">
              <g data-mml-node="math">
                <g data-mml-node="mi" data-semantic-type="identifier" data-semantic-role="latinletter" data-semantic-font="italic" data-semantic-annotation="clearspeak:simple" data-semantic-id="0" data-semantic-speech="w">
                  <use data-c="1D464" xlink:href="#linear-orders-labeled-MJX-19-TEX-I-1D464"/>
                </g>
              </g>
            </g>
          </svg>
        </g>
      </g>
    </g>
  </g>
</svg>
