<svg xmlns="http://www.w3.org/2000/svg" id="poset-for-linextn-figure" width="180" height="330" viewBox="0 0 180 330">
  <defs>
    <clipPath id="poset-for-linextn-__clipPath-0">
      <rect x="15.0" y="15.0" width="150.0" height="300.0"/>
    </clipPath>
    <clipPath id="poset-for-linextn-__clipPath-1">
      <rect x="15.0" y="15.0" width="150.0" height="300.0"/>
    </clipPath>
  </defs>
  <g id="poset-for-linextn-__group-0">
    <g id="poset-for-linextn-__group-1">
      <path id="poset-for-linextn-edge-0-1" d="M 90.0 315.0 Q 90.0 290.0 90.0 265.0 Q 90.0 240.0 90.0 215.0" stroke="black" stroke-width="2" stroke-dasharray="none" fill="none" clip-path="url(#poset-for-linextn-__clipPath-1)"/>
      <path id="poset-for-linextn-edge-1-2" d="M 90.0 215.0 Q 90.0 190.0 90.0 165.0 Q 90.0 140.0 90.0 115.0" stroke="black" stroke-width="2" stroke-dasharray="none" fill="none" clip-path="url(#poset-for-linextn-__clipPath-1)"/>
      <path id="poset-for-linextn-edge-2-3" d="M 90.0 115.0 Q 90.0 90.0 90.0 65.0 Q 90.0 40.0 90.0 15.0" stroke="black" stroke-width="2" stroke-dasharray="none" fill="none" clip-path="url(#poset-for-linextn-__clipPath-1)"/>
      <path id="poset-for-linextn-edge-4-2" d="M 15.0 215.0 Q 33.8 190.0 52.5 165.0 Q 71.2 140.0 90.0 115.0" stroke="black" stroke-width="2" stroke-dasharray="none" fill="none" clip-path="url(#poset-for-linextn-__clipPath-1)"/>
      <path id="poset-for-linextn-edge-5-1" d="M 165.0 115.0 Q 146.2 140.0 127.5 165.0 Q 108.8 190.0 90.0 215.0" stroke="black" stroke-width="2" stroke-dasharray="none" fill="none" clip-path="url(#poset-for-linextn-__clipPath-1)"/>
    </g>
    <g id="poset-for-linextn-__group-2">
      <circle id="poset-for-linextn-node-0" cx="90.0" cy="315.0" r="12" stroke="black" stroke-width="1" fill="#eee"/>
      <g id="poset-for-linextn-__label-0" transform="translate(90.0,315.0) translate(-5.2,-4.1)">
        <g id="poset-for-linextn-__g-0">
          <svg xmlns:xlink="http://www.w3.org/1999/xlink" style="vertical-align: -0.200px" width="10.352px" height="8.200px" role="img" focusable="false" viewBox="0 -442 572 453" x="0.0" y="0.0">
            <defs>
              <path id="poset-for-linextn-MJX-2-NCM-I-1D465" d="M527 373C527 419 482 442 432 442C389 442 355 419 329 373C308 419 273 442 222 442C173 442 133 419 101 374C74 335 60 306 60 287C60 278 65 273 75 273C84 273 90 278 92 287C111 345 153 413 220 413C253 413 269 392 269 351C269 330 251 252 216 118C199 51 169 18 126 18C112 18 99 21 88 26C114 36 127 54 127 80C127 106 114 119 87 119C54 119 29 91 29 58C29 12 76-11 125-11C167-11 201 12 228 58C247 12 283-11 335-11C383-11 423 12 455 57C482 96 496 125 496 144C496 153 491 158 481 158C472 158 467 153 464 144C447 87 402 18 337 18C304 18 287 38 287 79C287 92 292 120 303 165L337 300C356 375 387 413 431 413C445 413 458 410 469 405C442 396 429 378 429 351C429 325 443 312 470 312C502 312 527 341 527 373Z"/>
            </defs>
            <g stroke="currentColor" fill="currentColor" stroke-width="0" transform="scale(1,-1)">
              <g data-mml-node="math">
                <g data-mml-node="mi" data-semantic-type="identifier" data-semantic-role="latinletter" data-semantic-font="italic" data-semantic-annotation="clearspeak:simple;nemeth:number;depth:1" data-semantic-id="0" data-semantic-attributes="latex:x" data-semantic-speech="x">
                  <use data-c="1D465" xlink:href="#poset-for-linextn-MJX-2-NCM-I-1D465"/>
                </g>
              </g>
            </g>
          </svg>
        </g>
      </g>
      <circle id="poset-for-linextn-node-1" cx="90.0" cy="215.0" r="12" stroke="black" stroke-width="1" fill="#eee"/>
      <g id="poset-for-linextn-__label-1" transform="translate(90.0,215.0) translate(-4.4,-5.9)">
        <g id="poset-for-linextn-__g-1">
          <svg xmlns:xlink="http://www.w3.org/1999/xlink" style="vertical-align: -3.712px" width="8.872px" height="11.712px" role="img" focusable="false" viewBox="0 -442 490 647" x="0.0" y="0.0">
            <defs>
              <path id="poset-for-linextn-MJX-3-NCM-I-1D466" d="M163 442C118 442 83 417 58 367C39 328 29 301 29 286C29 277 34 272 45 272C59 272 60 278 64 293C87 372 119 412 160 412C173 412 180 403 180 385C180 369 175 346 164 317C126 214 107 145 107 108C107 32 154-13 231-13C264-13 295-1 323 23C288-109 233-175 158-175C124-175 101-164 89-142C129-140 149-121 149-85C149-60 136-47 109-47C72-47 50-78 50-115C50-170 100-205 158-205C273-205 367-99 392-1L486 377C489 388 490 396 490 401C490 421 479 431 458 431C442 431 429 423 420 408C414 387 409 369 406 354L342 97C332 61 279 16 234 16C196 16 177 41 177 92C177 134 194 198 227 284C240 319 247 343 247 357C247 406 212 442 163 442Z"/>
            </defs>
            <g stroke="currentColor" fill="currentColor" stroke-width="0" transform="scale(1,-1)">
              <g data-mml-node="math">
                <g data-mml-node="mi" data-semantic-type="identifier" data-semantic-role="latinletter" data-semantic-font="italic" data-semantic-annotation="clearspeak:simple;nemeth:number;depth:1" data-semantic-id="0" data-semantic-attributes="latex:y" data-semantic-speech="y">
                  <use data-c="1D466" xlink:href="#poset-for-linextn-MJX-3-NCM-I-1D466"/>
                </g>
              </g>
            </g>
          </svg>
        </g>
      </g>
      <circle id="poset-for-linextn-node-2" cx="90.0" cy="115.0" r="12" stroke="black" stroke-width="1" fill="#eee"/>
      <g id="poset-for-linextn-__label-2" transform="translate(90.0,115.0) translate(-4.2,-4.1)">
        <g id="poset-for-linextn-__g-2">
          <svg xmlns:xlink="http://www.w3.org/1999/xlink" style="vertical-align: -0.200px" width="8.456px" height="8.200px" role="img" focusable="false" viewBox="0 -442 467 453" x="0.0" y="0.0">
            <defs>
              <path id="poset-for-linextn-MJX-4-NCM-I-1D467" d="M162 92L145 90C193 137 230 171 255 194L351 283C374 304 398 330 421 359C452 397 467 420 467 428C467 437 462 442 452 442C445 442 439 438 434 429C409 388 386 368 364 368C342 368 326 386 317 398C293 427 269 442 246 442C220 442 193 430 165 404C137 378 123 352 123 326C123 316 128 311 139 311C146 311 152 316 156 325C167 354 194 368 235 368C249 368 269 363 296 354C320 345 343 340 364 339C308 284 265 244 234 217L145 134C130 119 111 99 90 74C59 35 43 12 43 3C43-6 48-11 59-11C65-11 71-6 78 4C103 43 130 63 158 63C174 63 192 51 212 26C232 1 255-11 278-11C312-11 346 7 382 42C418 77 436 111 436 144C436 153 431 158 420 158C413 158 407 153 402 143C387 100 344 63 288 63C264 63 186 92 162 92Z"/>
            </defs>
            <g stroke="currentColor" fill="currentColor" stroke-width="0" transform="scale(1,-1)">
              <g data-mml-node="math">
                <g data-mml-node="mi" data-semantic-type="identifier" data-semantic-role="latinletter" data-semantic-font="italic" data-semantic-annotation="clearspeak:simple;nemeth:number;depth:1" data-semantic-id="0" data-semantic-attributes="latex:z" data-semantic-speech="z">
                  <use data-c="1D467" xlink:href="#poset-for-linextn-MJX-4-NCM-I-1D467"/>
                </g>
              </g>
            </g>
          </svg>
        </g>
      </g>
      <circle id="poset-for-linextn-node-3" cx="90.0" cy="15.0" r="12" stroke="black" stroke-width="1" fill="#eee"/>
      <g id="poset-for-linextn-__label-3" transform="translate(90.0,15.0) translate(-6.5,-4.1)">
        <g id="poset-for-linextn-__g-3">
          <svg xmlns:xlink="http://www.w3.org/1999/xlink" style="vertical-align: -0.200px" width="12.960px" height="8.200px" role="img" focusable="false" viewBox="0 -442 716 453" x="0.0" y="0.0">
            <defs>
              <path id="poset-for-linextn-MJX-5-NCM-I-1D464" d="M590 391C590 382 595 372 606 362C629 340 641 313 641 281C641 264 635 237 623 198C586 78 539 18 482 18C435 18 412 45 412 100C412 119 416 142 423 171C441 243 460 314 477 387C479 394 480 398 480 401C480 421 469 431 447 431C427 431 414 421 407 401L367 245C352 187 341 167 341 115C341 107 341 101 342 98C319 45 290 18 255 18C205 18 180 47 180 104C180 141 197 204 231 293C242 323 248 344 248 357C248 406 212 442 163 442C118 442 84 417 59 367C39 328 29 301 29 287C29 278 34 273 45 273C58 273 60 279 64 293C88 373 120 413 160 413C174 413 181 403 181 384C181 369 175 347 164 317C127 220 108 154 108 117C108 32 165-11 252-11C294-11 328 10 355 53C375 10 416-11 479-11C541-11 590 30 625 112C648 164 691 302 691 369C691 384 690 394 689 399C685 418 666 442 644 442C618 442 590 417 590 391Z"/>
            </defs>
            <g stroke="currentColor" fill="currentColor" stroke-width="0" transform="scale(1,-1)">
              <g data-mml-node="math">
                <g data-mml-node="mi" data-semantic-type="identifier" data-semantic-role="latinletter" data-semantic-font="italic" data-semantic-annotation="clearspeak:simple;nemeth:number;depth:1" data-semantic-id="0" data-semantic-attributes="latex:w" data-semantic-speech="w">
                  <use data-c="1D464" xlink:href="#poset-for-linextn-MJX-5-NCM-I-1D464"/>
                </g>
              </g>
            </g>
          </svg>
        </g>
      </g>
      <circle id="poset-for-linextn-node-4" cx="15.0" cy="215.0" r="12" stroke="black" stroke-width="1" fill="#eee"/>
      <g id="poset-for-linextn-__label-4" transform="translate(15.0,215.0) translate(-4.8,-4.1)">
        <g id="poset-for-linextn-__g-4">
          <svg xmlns:xlink="http://www.w3.org/1999/xlink" style="vertical-align: -0.200px" width="9.576px" height="8.200px" role="img" focusable="false" viewBox="0 -442 529 453" x="0.0" y="0.0">
            <defs>
              <path id="poset-for-linextn-MJX-6-NCM-I-1D44E" d="M498 144C498 153 493 158 482 158C474 158 468 151 465 137C445 58 421 18 394 18C377 18 368 32 368 60C368 73 372 97 381 132L438 357C443 376 445 387 445 392C445 412 434 422 412 422C391 422 377 410 370 387C349 424 319 442 281 442C216 442 159 409 109 343C63 281 40 217 40 150C40 63 91-11 175-11C218-11 260 12 300 58C311 20 345-11 392-11C461-11 482 70 498 144M341 374C350 353 355 339 355 330C355 326 354 321 353 314L304 122C301 111 294 99 285 87C248 41 212 18 177 18C138 18 118 48 118 107C118 131 124 167 136 215C157 300 187 357 224 388C244 405 263 413 282 413C309 413 329 400 341 374Z"/>
            </defs>
            <g stroke="currentColor" fill="currentColor" stroke-width="0" transform="scale(1,-1)">
              <g data-mml-node="math">
                <g data-mml-node="mi" data-semantic-type="identifier" data-semantic-role="latinletter" data-semantic-font="italic" data-semantic-annotation="clearspeak:simple;nemeth:number;depth:1" data-semantic-id="0" data-semantic-attributes="latex:a" data-semantic-speech="a">
                  <use data-c="1D44E" xlink:href="#poset-for-linextn-MJX-6-NCM-I-1D44E"/>
                </g>
              </g>
            </g>
          </svg>
        </g>
      </g>
      <circle id="poset-for-linextn-node-5" cx="165.0" cy="115.0" r="12" stroke="black" stroke-width="1" fill="#eee"/>
      <g id="poset-for-linextn-__label-5" transform="translate(165.0,115.0) translate(-3.9,-6.4)">
        <g id="poset-for-linextn-__g-5">
          <svg xmlns:xlink="http://www.w3.org/1999/xlink" style="vertical-align: -0.200px" width="7.768px" height="12.760px" role="img" focusable="false" viewBox="0 -694 429 705" x="0.0" y="0.0">
            <defs>
              <path id="poset-for-linextn-MJX-7-NCM-I-1D44F" d="M281 445C245 445 209 428 174 394L243 679C241 688 238 694 226 694C193 694 120 685 107 684C92 682 84 675 84 660C84 650 93 645 112 645C131 645 157 646 157 632C157 628 152 608 143 571L63 249C52 207 47 173 47 148C47 62 93-11 175-11C240-11 297 22 347 89C392 151 415 216 415 283C415 370 364 445 281 445M279 415C318 415 337 385 337 326C337 299 331 263 319 218C297 133 268 75 233 44C213 27 194 19 175 19C134 19 114 51 114 115C114 137 119 170 129 214L151 304C154 319 159 330 165 338C204 389 242 415 279 415Z"/>
            </defs>
            <g stroke="currentColor" fill="currentColor" stroke-width="0" transform="scale(1,-1)">
              <g data-mml-node="math">
                <g data-mml-node="mi" data-semantic-type="identifier" data-semantic-role="latinletter" data-semantic-font="italic" data-semantic-annotation="clearspeak:simple;nemeth:number;depth:1" data-semantic-id="0" data-semantic-attributes="latex:b" data-semantic-speech="b">
                  <use data-c="1D44F" xlink:href="#poset-for-linextn-MJX-7-NCM-I-1D44F"/>
                </g>
              </g>
            </g>
          </svg>
        </g>
      </g>
    </g>
  </g>
</svg>
