<?xml version="1.0" encoding="UTF-8"?>
<svg xmlns="http://www.w3.org/2000/svg" xmlns:xlink="http://www.w3.org/1999/xlink" width="507pt" height="55pt" viewBox="0 0 507 55" version="1.1">
<defs>
<clipPath id="clip1">
  <path d="M 6 21.035156 L 21.226562 21.035156 L 21.226562 35.671875 L 6 35.671875 Z M 6 21.035156 "/>
</clipPath>
<clipPath id="clip2">
  <path d="M 5.925781 21.035156 L 21.226562 21.035156 L 21.226562 35.671875 L 5.925781 35.671875 Z M 5.925781 21.035156 "/>
</clipPath>
<clipPath id="clip3">
  <path d="M 6 23 L 21.226562 23 L 21.226562 35.671875 L 6 35.671875 Z M 6 23 "/>
</clipPath>
<clipPath id="clip4">
  <path d="M 5.925781 22 L 21.226562 22 L 21.226562 35.671875 L 5.925781 35.671875 Z M 5.925781 22 "/>
</clipPath>
<clipPath id="clip5">
  <path d="M 35.359375 20.800781 L 50.660156 20.800781 L 50.660156 35.433594 L 35.359375 35.433594 Z M 35.359375 20.800781 "/>
</clipPath>
<clipPath id="clip6">
  <path d="M 35.359375 23 L 50.660156 23 L 50.660156 35.433594 L 35.359375 35.433594 Z M 35.359375 23 "/>
</clipPath>
<clipPath id="clip7">
  <path d="M 35.359375 22 L 50.660156 22 L 50.660156 35.433594 L 35.359375 35.433594 Z M 35.359375 22 "/>
</clipPath>
<clipPath id="clip8">
  <path d="M 63.328125 20.566406 L 78.628906 20.566406 L 78.628906 35.199219 L 63.328125 35.199219 Z M 63.328125 20.566406 "/>
</clipPath>
<clipPath id="clip9">
  <path d="M 63.328125 23 L 78.628906 23 L 78.628906 35.199219 L 63.328125 35.199219 Z M 63.328125 23 "/>
</clipPath>
<clipPath id="clip10">
  <path d="M 63.328125 22 L 78.628906 22 L 78.628906 35.199219 L 63.328125 35.199219 Z M 63.328125 22 "/>
</clipPath>
<clipPath id="clip11">
  <path d="M 90.046875 20.089844 L 105.347656 20.089844 L 105.347656 34.726562 L 90.046875 34.726562 Z M 90.046875 20.089844 "/>
</clipPath>
<clipPath id="clip12">
  <path d="M 90.046875 22 L 105.347656 22 L 105.347656 34.726562 L 90.046875 34.726562 Z M 90.046875 22 "/>
</clipPath>
<clipPath id="clip13">
  <path d="M 90.046875 21 L 105.347656 21 L 105.347656 34.726562 L 90.046875 34.726562 Z M 90.046875 21 "/>
</clipPath>
<clipPath id="clip14">
  <path d="M 118.226562 20.09375 L 133.527344 20.09375 L 133.527344 34.726562 L 118.226562 34.726562 Z M 118.226562 20.09375 "/>
</clipPath>
<clipPath id="clip15">
  <path d="M 118.226562 22 L 133.527344 22 L 133.527344 34.726562 L 118.226562 34.726562 Z M 118.226562 22 "/>
</clipPath>
<clipPath id="clip16">
  <path d="M 118.226562 21 L 133.527344 21 L 133.527344 34.726562 L 118.226562 34.726562 Z M 118.226562 21 "/>
</clipPath>
<clipPath id="clip17">
  <path d="M 147.238281 21.273438 L 162.539062 21.273438 L 162.539062 35.910156 L 147.238281 35.910156 Z M 147.238281 21.273438 "/>
</clipPath>
<clipPath id="clip18">
  <path d="M 147.238281 24 L 162.539062 24 L 162.539062 35.910156 L 147.238281 35.910156 Z M 147.238281 24 "/>
</clipPath>
<clipPath id="clip19">
  <path d="M 147.238281 22 L 162.539062 22 L 162.539062 35.910156 L 147.238281 35.910156 Z M 147.238281 22 "/>
</clipPath>
<clipPath id="clip20">
  <path d="M 175.628906 20.566406 L 190.929688 20.566406 L 190.929688 35.199219 L 175.628906 35.199219 Z M 175.628906 20.566406 "/>
</clipPath>
<clipPath id="clip21">
  <path d="M 175.628906 23 L 190.929688 23 L 190.929688 35.199219 L 175.628906 35.199219 Z M 175.628906 23 "/>
</clipPath>
<clipPath id="clip22">
  <path d="M 175.628906 22 L 190.929688 22 L 190.929688 35.199219 L 175.628906 35.199219 Z M 175.628906 22 "/>
</clipPath>
<clipPath id="clip23">
  <path d="M 203.179688 20.800781 L 218.480469 20.800781 L 218.480469 35.433594 L 203.179688 35.433594 Z M 203.179688 20.800781 "/>
</clipPath>
<clipPath id="clip24">
  <path d="M 203.179688 23 L 218.480469 23 L 218.480469 35.433594 L 203.179688 35.433594 Z M 203.179688 23 "/>
</clipPath>
<clipPath id="clip25">
  <path d="M 203.179688 22 L 218.480469 22 L 218.480469 35.433594 L 203.179688 35.433594 Z M 203.179688 22 "/>
</clipPath>
<clipPath id="clip26">
  <path d="M 231.152344 20.089844 L 246.453125 20.089844 L 246.453125 34.726562 L 231.152344 34.726562 Z M 231.152344 20.089844 "/>
</clipPath>
<clipPath id="clip27">
  <path d="M 231.152344 22 L 246.453125 22 L 246.453125 34.726562 L 231.152344 34.726562 Z M 231.152344 22 "/>
</clipPath>
<clipPath id="clip28">
  <path d="M 231.152344 21 L 246.453125 21 L 246.453125 34.726562 L 231.152344 34.726562 Z M 231.152344 21 "/>
</clipPath>
<clipPath id="clip29">
  <path d="M 261 20.800781 L 276.300781 20.800781 L 276.300781 35.433594 L 261 35.433594 Z M 261 20.800781 "/>
</clipPath>
<clipPath id="clip30">
  <path d="M 261 23 L 276.300781 23 L 276.300781 35.433594 L 261 35.433594 Z M 261 23 "/>
</clipPath>
<clipPath id="clip31">
  <path d="M 261 22 L 276.300781 22 L 276.300781 35.433594 L 261 35.433594 Z M 261 22 "/>
</clipPath>
<clipPath id="clip32">
  <path d="M 288.136719 20.566406 L 303.4375 20.566406 L 303.4375 35.199219 L 288.136719 35.199219 Z M 288.136719 20.566406 "/>
</clipPath>
<clipPath id="clip33">
  <path d="M 288.136719 23 L 303.4375 23 L 303.4375 35.199219 L 288.136719 35.199219 Z M 288.136719 23 "/>
</clipPath>
<clipPath id="clip34">
  <path d="M 288.136719 22 L 303.4375 22 L 303.4375 35.199219 L 288.136719 35.199219 Z M 288.136719 22 "/>
</clipPath>
<clipPath id="clip35">
  <path d="M 316.105469 21.273438 L 331.40625 21.273438 L 331.40625 35.910156 L 316.105469 35.910156 Z M 316.105469 21.273438 "/>
</clipPath>
<clipPath id="clip36">
  <path d="M 316.105469 24 L 331.40625 24 L 331.40625 35.910156 L 316.105469 35.910156 Z M 316.105469 24 "/>
</clipPath>
<clipPath id="clip37">
  <path d="M 316.105469 22 L 331.40625 22 L 331.40625 35.910156 L 316.105469 35.910156 Z M 316.105469 22 "/>
</clipPath>
<clipPath id="clip38">
  <path d="M 345 22.035156 L 360.226562 22.035156 L 360.226562 36.671875 L 345 36.671875 Z M 345 22.035156 "/>
</clipPath>
<clipPath id="clip39">
  <path d="M 344.925781 22.035156 L 360.226562 22.035156 L 360.226562 36.671875 L 344.925781 36.671875 Z M 344.925781 22.035156 "/>
</clipPath>
<clipPath id="clip40">
  <path d="M 345 24 L 360.226562 24 L 360.226562 36.671875 L 345 36.671875 Z M 345 24 "/>
</clipPath>
<clipPath id="clip41">
  <path d="M 344.925781 23 L 360.226562 23 L 360.226562 36.671875 L 344.925781 36.671875 Z M 344.925781 23 "/>
</clipPath>
<clipPath id="clip42">
  <path d="M 374.359375 21.800781 L 389.660156 21.800781 L 389.660156 36.433594 L 374.359375 36.433594 Z M 374.359375 21.800781 "/>
</clipPath>
<clipPath id="clip43">
  <path d="M 374.359375 24 L 389.660156 24 L 389.660156 36.433594 L 374.359375 36.433594 Z M 374.359375 24 "/>
</clipPath>
<clipPath id="clip44">
  <path d="M 374.359375 23 L 389.660156 23 L 389.660156 36.433594 L 374.359375 36.433594 Z M 374.359375 23 "/>
</clipPath>
<clipPath id="clip45">
  <path d="M 402.328125 21.566406 L 417.628906 21.566406 L 417.628906 36.199219 L 402.328125 36.199219 Z M 402.328125 21.566406 "/>
</clipPath>
<clipPath id="clip46">
  <path d="M 402.328125 24 L 417.628906 24 L 417.628906 36.199219 L 402.328125 36.199219 Z M 402.328125 24 "/>
</clipPath>
<clipPath id="clip47">
  <path d="M 402.328125 23 L 417.628906 23 L 417.628906 36.199219 L 402.328125 36.199219 Z M 402.328125 23 "/>
</clipPath>
<clipPath id="clip48">
  <path d="M 429.046875 21.089844 L 444.347656 21.089844 L 444.347656 35.726562 L 429.046875 35.726562 Z M 429.046875 21.089844 "/>
</clipPath>
<clipPath id="clip49">
  <path d="M 429.046875 23 L 444.347656 23 L 444.347656 35.726562 L 429.046875 35.726562 Z M 429.046875 23 "/>
</clipPath>
<clipPath id="clip50">
  <path d="M 429.046875 22 L 444.347656 22 L 444.347656 35.726562 L 429.046875 35.726562 Z M 429.046875 22 "/>
</clipPath>
<clipPath id="clip51">
  <path d="M 457.226562 21.09375 L 472.527344 21.09375 L 472.527344 35.726562 L 457.226562 35.726562 Z M 457.226562 21.09375 "/>
</clipPath>
<clipPath id="clip52">
  <path d="M 457.226562 23 L 472.527344 23 L 472.527344 35.726562 L 457.226562 35.726562 Z M 457.226562 23 "/>
</clipPath>
<clipPath id="clip53">
  <path d="M 457.226562 22 L 472.527344 22 L 472.527344 35.726562 L 457.226562 35.726562 Z M 457.226562 22 "/>
</clipPath>
<clipPath id="clip54">
  <path d="M 486.238281 22.273438 L 501.539062 22.273438 L 501.539062 36.910156 L 486.238281 36.910156 Z M 486.238281 22.273438 "/>
</clipPath>
<clipPath id="clip55">
  <path d="M 486.238281 25 L 501.539062 25 L 501.539062 36.910156 L 486.238281 36.910156 Z M 486.238281 25 "/>
</clipPath>
<clipPath id="clip56">
  <path d="M 486.238281 23 L 501.539062 23 L 501.539062 36.910156 L 486.238281 36.910156 Z M 486.238281 23 "/>
</clipPath>
</defs>
<g id="surface1">
<g clip-path="url(#clip1)" clip-rule="nonzero">
<path style=" stroke:none;fill-rule:nonzero;fill:rgb(93.1427%,79.486084%,53.645325%);fill-opacity:1;" d="M 11.371094 21.828125 C 11.371094 21.828125 11.398438 22.246094 10.847656 22.195312 C 10.847656 22.195312 7.265625 22.191406 7.265625 22.191406 C 6.734375 22.191406 6.21875 22.667969 6.03125 23.253906 C 6.03125 23.253906 6.007812 34.03125 6.007812 34.03125 C 5.996094 34.621094 6.347656 35.097656 6.882812 35.566406 C 6.882812 35.566406 20.28125 35.578125 20.28125 35.578125 C 20.910156 35.410156 20.992188 34.636719 21.089844 34.046875 C 21.089844 34.046875 21.128906 23.269531 21.128906 23.269531 C 21.226562 22.683594 20.875 22.203125 20.339844 22.203125 C 20.339844 22.203125 16.457031 22.191406 16.457031 22.191406 C 16.457031 22.191406 15.976562 22.269531 15.976562 21.804688 C 15.976562 21.359375 15.796875 21.128906 15.515625 21.128906 C 15.234375 21.128906 11.976562 21.132812 11.976562 21.132812 C 11.574219 21.164062 11.46875 21.429688 11.371094 21.828125 Z M 11.371094 21.828125 "/>
</g>
<g clip-path="url(#clip2)" clip-rule="nonzero">
<path style="fill:none;stroke-width:0.3356;stroke-linecap:butt;stroke-linejoin:miter;stroke:rgb(13.729858%,12.159729%,12.548828%);stroke-opacity:1;stroke-miterlimit:4;" d="M -4.53011 -11.87905 C -4.53011 -11.87905 -4.473935 -11.118222 -5.60546 -11.210659 C -5.60546 -11.210659 -12.964387 -11.217769 -12.964387 -11.217769 C -14.055787 -11.217769 -15.115088 -10.350283 -15.500288 -9.283701 C -15.500288 -9.283701 -15.548438 10.334298 -15.548438 10.334298 C -15.572513 11.407991 -14.850262 12.275477 -13.750837 13.128743 C -13.750837 13.128743 13.77492 13.150075 13.77492 13.150075 C 15.066945 12.844321 15.23547 11.436433 15.436095 10.36274 C 15.436095 10.36274 15.516345 -9.255258 15.516345 -9.255258 C 15.71697 -10.32184 14.99472 -11.196438 13.895295 -11.196438 C 13.895295 -11.196438 5.918443 -11.217769 5.918443 -11.217769 C 5.918443 -11.217769 4.931368 -11.075558 4.931368 -11.921713 C 4.931368 -12.732316 4.562218 -13.151838 3.984417 -13.151838 C 3.406617 -13.151838 -3.286234 -13.144728 -3.286234 -13.144728 C -4.11281 -13.087843 -4.329485 -12.604326 -4.53011 -11.87905 Z M -4.53011 -11.87905 " transform="matrix(0.48676,0,0,0.54936,13.57617,28.354)"/>
</g>
<g clip-path="url(#clip3)" clip-rule="nonzero">
<path style=" stroke:none;fill-rule:nonzero;fill:rgb(95.036316%,86.422729%,69.549561%);fill-opacity:1;" d="M 6.015625 24.84375 C 6.058594 24.203125 6.449219 23.773438 6.972656 23.773438 C 6.972656 23.773438 10.984375 23.773438 10.984375 23.773438 C 11.398438 23.773438 11.371094 24.398438 11.371094 24.398438 C 11.371094 24.398438 15.683594 24.398438 15.683594 24.398438 C 15.683594 24.398438 15.769531 23.757812 16.125 23.773438 C 16.125 23.773438 20.210938 23.773438 20.210938 23.773438 C 20.738281 23.773438 21.105469 24.191406 21.078125 24.824219 C 21.078125 24.824219 21.089844 34.046875 21.089844 34.046875 C 21.089844 34.046875 21.195312 35.578125 20.28125 35.578125 C 19.039062 35.578125 6.898438 35.574219 6.898438 35.574219 C 6.898438 35.574219 6.054688 35.03125 6.007812 34.03125 C 6.007812 34.03125 6.015625 24.84375 6.015625 24.84375 Z M 6.015625 24.84375 "/>
</g>
<g clip-path="url(#clip4)" clip-rule="nonzero">
<path style="fill:none;stroke-width:0.3356;stroke-linecap:butt;stroke-linejoin:miter;stroke:rgb(13.729858%,12.159729%,12.548828%);stroke-opacity:1;stroke-miterlimit:4;" d="M -15.532388 -6.389708 C -15.444113 -7.555838 -14.641612 -8.337998 -13.566262 -8.337998 C -13.566262 -8.337998 -5.324585 -8.337998 -5.324585 -8.337998 C -4.473935 -8.337998 -4.53011 -7.20031 -4.53011 -7.20031 C -4.53011 -7.20031 4.329492 -7.20031 4.329492 -7.20031 C 4.329492 -7.20031 4.506043 -8.36644 5.236318 -8.337998 C 5.236318 -8.337998 13.63047 -8.337998 13.63047 -8.337998 C 14.713845 -8.337998 15.468195 -7.577169 15.41202 -6.425261 C 15.41202 -6.425261 15.436095 10.36274 15.436095 10.36274 C 15.436095 10.36274 15.65277 13.150075 13.77492 13.150075 C 11.222969 13.150075 -13.718737 13.142964 -13.718737 13.142964 C -13.718737 13.142964 -15.452138 12.154598 -15.548438 10.334298 C -15.548438 10.334298 -15.532388 -6.389708 -15.532388 -6.389708 Z M -15.532388 -6.389708 " transform="matrix(0.48676,0,0,0.54936,13.57617,28.354)"/>
</g>
<g clip-path="url(#clip5)" clip-rule="nonzero">
<path style="fill-rule:nonzero;fill:rgb(93.1427%,79.486084%,53.645325%);fill-opacity:1;stroke-width:0.3356;stroke-linecap:butt;stroke-linejoin:miter;stroke:rgb(13.729858%,12.159729%,12.548828%);stroke-opacity:1;stroke-miterlimit:4;" d="M -4.526096 -11.87551 C -4.526096 -11.87551 -4.469921 -11.121792 -5.609471 -11.214229 C -5.609471 -11.214229 -12.960373 -11.221339 -12.960373 -11.221339 C -14.059798 -11.221339 -15.119099 -10.353853 -15.504299 -9.28016 C -15.504299 -9.28016 -15.544424 10.337839 -15.544424 10.337839 C -15.576524 11.404421 -14.854274 12.271907 -13.754848 13.125173 C -13.754848 13.125173 13.770909 13.153615 13.770909 13.153615 C 15.070959 12.840751 15.231459 11.432863 15.440109 10.366281 C 15.440109 10.366281 15.512334 -9.251718 15.512334 -9.251718 C 15.720984 -10.32541 14.998734 -11.192897 13.899309 -11.192897 C 13.899309 -11.192897 5.922457 -11.214229 5.922457 -11.214229 C 5.922457 -11.214229 4.927356 -11.072018 4.927356 -11.918173 C 4.927356 -12.728775 4.558206 -13.148298 3.980406 -13.148298 C 3.410631 -13.148298 -3.290246 -13.148298 -3.290246 -13.148298 C -4.108796 -13.091413 -4.325471 -12.607896 -4.526096 -11.87551 Z M -4.526096 -11.87551 " transform="matrix(0.48676,0,0,0.54936,43.00781,28.11768)"/>
</g>
<g clip-path="url(#clip6)" clip-rule="nonzero">
<path style=" stroke:none;fill-rule:nonzero;fill:rgb(95.036316%,86.422729%,69.549561%);fill-opacity:1;" d="M 35.449219 24.609375 C 35.492188 23.964844 35.878906 23.539062 36.40625 23.539062 C 36.40625 23.539062 40.414062 23.539062 40.414062 23.539062 C 40.832031 23.539062 40.800781 24.160156 40.800781 24.160156 C 40.800781 24.160156 45.117188 24.160156 45.117188 24.160156 C 45.117188 24.160156 45.199219 23.519531 45.558594 23.539062 C 45.558594 23.539062 49.644531 23.539062 49.644531 23.539062 C 50.171875 23.539062 50.535156 23.953125 50.511719 24.585938 C 50.511719 24.585938 50.523438 33.8125 50.523438 33.8125 C 50.523438 33.8125 50.628906 35.34375 49.710938 35.34375 C 48.472656 35.34375 36.332031 35.335938 36.332031 35.335938 C 36.332031 35.335938 35.488281 34.796875 35.441406 33.796875 C 35.441406 33.796875 35.449219 24.609375 35.449219 24.609375 Z M 35.449219 24.609375 "/>
</g>
<g clip-path="url(#clip7)" clip-rule="nonzero">
<path style="fill:none;stroke-width:0.3356;stroke-linecap:butt;stroke-linejoin:miter;stroke:rgb(13.729858%,12.159729%,12.548828%);stroke-opacity:1;stroke-miterlimit:4;" d="M -15.528374 -6.386168 C -15.440099 -7.559408 -14.645624 -8.334457 -13.562248 -8.334457 C -13.562248 -8.334457 -5.328596 -8.334457 -5.328596 -8.334457 C -4.469921 -8.334457 -4.534121 -7.20388 -4.534121 -7.20388 C -4.534121 -7.20388 4.333506 -7.20388 4.333506 -7.20388 C 4.333506 -7.20388 4.502031 -8.37001 5.240331 -8.334457 C 5.240331 -8.334457 13.634484 -8.334457 13.634484 -8.334457 C 14.717859 -8.334457 15.464184 -7.580739 15.416034 -6.428831 C 15.416034 -6.428831 15.440109 10.366281 15.440109 10.366281 C 15.440109 10.366281 15.656784 13.153615 13.770909 13.153615 C 11.226983 13.153615 -13.714723 13.139394 -13.714723 13.139394 C -13.714723 13.139394 -15.448124 12.158139 -15.544424 10.337839 C -15.544424 10.337839 -15.528374 -6.386168 -15.528374 -6.386168 Z M -15.528374 -6.386168 " transform="matrix(0.48676,0,0,0.54936,43.00781,28.11768)"/>
</g>
<g clip-path="url(#clip8)" clip-rule="nonzero">
<path style="fill-rule:nonzero;fill:rgb(93.1427%,79.486084%,53.645325%);fill-opacity:1;stroke-width:0.3356;stroke-linecap:butt;stroke-linejoin:miter;stroke:rgb(13.729858%,12.159729%,12.548828%);stroke-opacity:1;stroke-miterlimit:4;" d="M -4.529116 -11.879953 C -4.529116 -11.879953 -4.472941 -11.119125 -5.604466 -11.211562 C -5.604466 -11.211562 -12.963393 -11.218673 -12.963393 -11.218673 C -14.054793 -11.218673 -15.114094 -10.351186 -15.499294 -9.284604 C -15.499294 -9.284604 -15.547444 10.333395 -15.547444 10.333395 C -15.571519 11.407087 -14.849269 12.274574 -13.757868 13.12784 C -13.757868 13.12784 13.767889 13.149171 13.767889 13.149171 C 15.067939 12.843418 15.228439 11.43553 15.437089 10.361837 C 15.437089 10.361837 15.517339 -9.256162 15.517339 -9.256162 C 15.717964 -10.322744 14.995714 -11.197341 13.896289 -11.197341 C 13.896289 -11.197341 5.919437 -11.218673 5.919437 -11.218673 C 5.919437 -11.218673 4.924336 -11.076462 4.924336 -11.915506 C 4.924336 -12.733219 4.563211 -13.152741 3.985411 -13.152741 C 3.407611 -13.152741 -3.285241 -13.145631 -3.285241 -13.145631 C -4.111816 -13.088746 -4.328491 -12.605229 -4.529116 -11.879953 Z M -4.529116 -11.879953 " transform="matrix(0.48676,0,0,0.54936,70.97803,27.88184)"/>
</g>
<g clip-path="url(#clip9)" clip-rule="nonzero">
<path style=" stroke:none;fill-rule:nonzero;fill:rgb(95.036316%,86.422729%,69.549561%);fill-opacity:1;" d="M 63.417969 24.371094 C 63.460938 23.730469 63.851562 23.300781 64.375 23.300781 C 64.375 23.300781 68.382812 23.300781 68.382812 23.300781 C 68.800781 23.300781 68.773438 23.925781 68.773438 23.925781 C 68.773438 23.925781 73.085938 23.925781 73.085938 23.925781 C 73.085938 23.925781 73.167969 23.285156 73.527344 23.300781 C 73.527344 23.300781 77.613281 23.300781 77.613281 23.300781 C 78.140625 23.300781 78.507812 23.71875 78.480469 24.351562 C 78.480469 24.351562 78.492188 33.574219 78.492188 33.574219 C 78.492188 33.574219 78.597656 35.105469 77.679688 35.105469 C 76.441406 35.105469 64.300781 35.101562 64.300781 35.101562 C 64.300781 35.101562 63.457031 34.558594 63.410156 33.558594 C 63.410156 33.558594 63.417969 24.371094 63.417969 24.371094 Z M 63.417969 24.371094 "/>
</g>
<g clip-path="url(#clip10)" clip-rule="nonzero">
<path style="fill:none;stroke-width:0.3356;stroke-linecap:butt;stroke-linejoin:miter;stroke:rgb(13.729858%,12.159729%,12.548828%);stroke-opacity:1;stroke-miterlimit:4;" d="M -15.531394 -6.390611 C -15.443119 -7.556741 -14.640619 -8.338901 -13.565268 -8.338901 C -13.565268 -8.338901 -5.331616 -8.338901 -5.331616 -8.338901 C -4.472941 -8.338901 -4.529116 -7.201214 -4.529116 -7.201214 C -4.529116 -7.201214 4.330486 -7.201214 4.330486 -7.201214 C 4.330486 -7.201214 4.499011 -8.367343 5.237312 -8.338901 C 5.237312 -8.338901 13.631464 -8.338901 13.631464 -8.338901 C 14.714839 -8.338901 15.469189 -7.578073 15.413014 -6.426164 C 15.413014 -6.426164 15.437089 10.361837 15.437089 10.361837 C 15.437089 10.361837 15.653764 13.149171 13.767889 13.149171 C 11.223963 13.149171 -13.717743 13.142061 -13.717743 13.142061 C -13.717743 13.142061 -15.451144 12.153695 -15.547444 10.333395 C -15.547444 10.333395 -15.531394 -6.390611 -15.531394 -6.390611 Z M -15.531394 -6.390611 " transform="matrix(0.48676,0,0,0.54936,70.97803,27.88184)"/>
</g>
<g clip-path="url(#clip11)" clip-rule="nonzero">
<path style="fill-rule:nonzero;fill:rgb(93.1427%,79.486084%,53.645325%);fill-opacity:1;stroke-width:0.3356;stroke-linecap:butt;stroke-linejoin:miter;stroke:rgb(13.729858%,12.159729%,12.548828%);stroke-opacity:1;stroke-miterlimit:4;" d="M -4.528109 -11.879055 C -4.528109 -11.879055 -4.471934 -11.118226 -5.60346 -11.210663 C -5.60346 -11.210663 -12.962386 -11.217774 -12.962386 -11.217774 C -14.061812 -11.217774 -15.121112 -10.350287 -15.498287 -9.283705 C -15.498287 -9.283705 -15.546437 10.334294 -15.546437 10.334294 C -15.570512 11.407986 -14.856287 12.275473 -13.756862 13.128738 C -13.756862 13.128738 13.768895 13.15007 13.768895 13.15007 C 15.068946 12.844317 15.229446 11.436428 15.438096 10.362736 C 15.438096 10.362736 15.518346 -9.255263 15.518346 -9.255263 C 15.718971 -10.321845 14.996721 -11.196442 13.897295 -11.196442 C 13.897295 -11.196442 5.920443 -11.217774 5.920443 -11.217774 C 5.920443 -11.217774 4.925343 -11.075563 4.925343 -11.921718 C 4.925343 -12.73232 4.564218 -13.151843 3.986418 -13.151843 C 3.408618 -13.151843 -3.292259 -13.144732 -3.292259 -13.144732 C -4.110809 -13.087848 -4.327484 -12.60433 -4.528109 -11.879055 Z M -4.528109 -11.879055 " transform="matrix(0.48676,0,0,0.54936,97.69629,27.40869)"/>
</g>
<g clip-path="url(#clip12)" clip-rule="nonzero">
<path style=" stroke:none;fill-rule:nonzero;fill:rgb(95.036316%,86.422729%,69.549561%);fill-opacity:1;" d="M 90.136719 23.898438 C 90.179688 23.257812 90.566406 22.828125 91.09375 22.828125 C 91.09375 22.828125 95.101562 22.828125 95.101562 22.828125 C 95.519531 22.828125 95.492188 23.453125 95.492188 23.453125 C 95.492188 23.453125 99.804688 23.453125 99.804688 23.453125 C 99.804688 23.453125 99.886719 22.8125 100.246094 22.828125 C 100.246094 22.828125 104.332031 22.828125 104.332031 22.828125 C 104.859375 22.828125 105.222656 23.246094 105.199219 23.878906 C 105.199219 23.878906 105.210938 33.101562 105.210938 33.101562 C 105.210938 33.101562 105.316406 34.632812 104.398438 34.632812 C 103.160156 34.632812 91.019531 34.628906 91.019531 34.628906 C 91.019531 34.628906 90.175781 34.085938 90.128906 33.085938 C 90.128906 33.085938 90.136719 23.898438 90.136719 23.898438 Z M 90.136719 23.898438 "/>
</g>
<g clip-path="url(#clip13)" clip-rule="nonzero">
<path style="fill:none;stroke-width:0.3356;stroke-linecap:butt;stroke-linejoin:miter;stroke:rgb(13.729858%,12.159729%,12.548828%);stroke-opacity:1;stroke-miterlimit:4;" d="M -15.530387 -6.389713 C -15.442112 -7.555842 -14.647637 -8.338002 -13.564262 -8.338002 C -13.564262 -8.338002 -5.33061 -8.338002 -5.33061 -8.338002 C -4.471934 -8.338002 -4.528109 -7.200315 -4.528109 -7.200315 C -4.528109 -7.200315 4.331493 -7.200315 4.331493 -7.200315 C 4.331493 -7.200315 4.500018 -8.366445 5.238318 -8.338002 C 5.238318 -8.338002 13.63247 -8.338002 13.63247 -8.338002 C 14.715846 -8.338002 15.462171 -7.577174 15.414021 -6.425265 C 15.414021 -6.425265 15.438096 10.362736 15.438096 10.362736 C 15.438096 10.362736 15.654771 13.15007 13.768895 13.15007 C 11.22497 13.15007 -13.716737 13.14296 -13.716737 13.14296 C -13.716737 13.14296 -15.450137 12.154594 -15.546437 10.334294 C -15.546437 10.334294 -15.530387 -6.389713 -15.530387 -6.389713 Z M -15.530387 -6.389713 " transform="matrix(0.48676,0,0,0.54936,97.69629,27.40869)"/>
</g>
<g clip-path="url(#clip14)" clip-rule="nonzero">
<path style="fill-rule:nonzero;fill:rgb(93.1427%,79.486084%,53.645325%);fill-opacity:1;stroke-width:0.3356;stroke-linecap:butt;stroke-linejoin:miter;stroke:rgb(13.729858%,12.159729%,12.548828%);stroke-opacity:1;stroke-miterlimit:4;" d="M -4.527108 -11.879947 C -4.527108 -11.879947 -4.470933 -11.119118 -5.602458 -11.211555 C -5.602458 -11.211555 -12.961385 -11.218666 -12.961385 -11.218666 C -14.06081 -11.218666 -15.120111 -10.351179 -15.505311 -9.284597 C -15.505311 -9.284597 -15.545436 10.333402 -15.545436 10.333402 C -15.577536 11.407094 -14.855285 12.274581 -13.75586 13.127846 C -13.75586 13.127846 13.769897 13.149178 13.769897 13.149178 C 15.069947 12.843425 15.230447 11.435536 15.439097 10.361844 C 15.439097 10.361844 15.511322 -9.256155 15.511322 -9.256155 C 15.719972 -10.322737 14.997722 -11.197334 13.898297 -11.197334 C 13.898297 -11.197334 5.921445 -11.218666 5.921445 -11.218666 C 5.921445 -11.218666 4.926345 -11.076455 4.926345 -11.915499 C 4.926345 -12.733212 4.557195 -13.152735 3.979394 -13.152735 C 3.409619 -13.152735 -3.291257 -13.145624 -3.291257 -13.145624 C -4.109808 -13.08874 -4.326483 -12.605222 -4.527108 -11.879947 Z M -4.527108 -11.879947 " transform="matrix(0.48676,0,0,0.54936,125.87549,27.40918)"/>
</g>
<g clip-path="url(#clip15)" clip-rule="nonzero">
<path style=" stroke:none;fill-rule:nonzero;fill:rgb(95.036316%,86.422729%,69.549561%);fill-opacity:1;" d="M 118.316406 23.898438 C 118.359375 23.257812 118.746094 22.828125 119.273438 22.828125 C 119.273438 22.828125 123.28125 22.828125 123.28125 22.828125 C 123.699219 22.828125 123.667969 23.453125 123.667969 23.453125 C 123.667969 23.453125 127.984375 23.453125 127.984375 23.453125 C 127.984375 23.453125 128.066406 22.8125 128.425781 22.828125 C 128.425781 22.828125 132.511719 22.828125 132.511719 22.828125 C 133.039062 22.828125 133.402344 23.246094 133.378906 23.878906 C 133.378906 23.878906 133.390625 33.101562 133.390625 33.101562 C 133.390625 33.101562 133.496094 34.632812 132.578125 34.632812 C 131.339844 34.632812 119.199219 34.628906 119.199219 34.628906 C 119.199219 34.628906 118.355469 34.085938 118.308594 33.085938 C 118.308594 33.085938 118.316406 23.898438 118.316406 23.898438 Z M 118.316406 23.898438 "/>
</g>
<g clip-path="url(#clip16)" clip-rule="nonzero">
<path style="fill:none;stroke-width:0.3356;stroke-linecap:butt;stroke-linejoin:miter;stroke:rgb(13.729858%,12.159729%,12.548828%);stroke-opacity:1;stroke-miterlimit:4;" d="M -15.529386 -6.390605 C -15.441111 -7.556734 -14.646635 -8.338894 -13.56326 -8.338894 C -13.56326 -8.338894 -5.329608 -8.338894 -5.329608 -8.338894 C -4.470933 -8.338894 -4.535133 -7.201207 -4.535133 -7.201207 C -4.535133 -7.201207 4.332494 -7.201207 4.332494 -7.201207 C 4.332494 -7.201207 4.501019 -8.367337 5.23932 -8.338894 C 5.23932 -8.338894 13.633472 -8.338894 13.633472 -8.338894 C 14.716847 -8.338894 15.463172 -7.578066 15.415022 -6.426157 C 15.415022 -6.426157 15.439097 10.361844 15.439097 10.361844 C 15.439097 10.361844 15.655772 13.149178 13.769897 13.149178 C 11.225971 13.149178 -13.715735 13.142068 -13.715735 13.142068 C -13.715735 13.142068 -15.449136 12.153702 -15.545436 10.333402 C -15.545436 10.333402 -15.529386 -6.390605 -15.529386 -6.390605 Z M -15.529386 -6.390605 " transform="matrix(0.48676,0,0,0.54936,125.87549,27.40918)"/>
</g>
<g clip-path="url(#clip17)" clip-rule="nonzero">
<path style="fill-rule:nonzero;fill:rgb(93.1427%,79.486084%,53.645325%);fill-opacity:1;stroke-width:0.3356;stroke-linecap:butt;stroke-linejoin:miter;stroke:rgb(13.729858%,12.159729%,12.548828%);stroke-opacity:1;stroke-miterlimit:4;" d="M -4.523091 -11.87639 C -4.523091 -11.87639 -4.466916 -11.122672 -5.606467 -11.215109 C -5.606467 -11.215109 -12.965394 -11.22222 -12.965394 -11.22222 C -14.056794 -11.22222 -15.116094 -10.354733 -15.501294 -9.281041 C -15.501294 -9.281041 -15.549444 10.336958 -15.549444 10.336958 C -15.573519 11.40354 -14.851269 12.278137 -13.751844 13.124292 C -13.751844 13.124292 13.773913 13.152735 13.773913 13.152735 C 15.073964 12.846981 15.234464 11.439093 15.435089 10.3654 C 15.435089 10.3654 15.515339 -9.252598 15.515339 -9.252598 C 15.715964 -10.326291 14.993714 -11.193778 13.902313 -11.193778 C 13.902313 -11.193778 5.917436 -11.215109 5.917436 -11.215109 C 5.917436 -11.215109 4.930361 -11.072898 4.930361 -11.919054 C 4.930361 -12.729656 4.561211 -13.149178 3.983411 -13.149178 C 3.405611 -13.149178 -3.287241 -13.142068 -3.287241 -13.142068 C -4.105791 -13.092294 -4.330491 -12.608777 -4.523091 -11.87639 Z M -4.523091 -11.87639 " transform="matrix(0.48676,0,0,0.54936,154.88916,28.59082)"/>
</g>
<g clip-path="url(#clip18)" clip-rule="nonzero">
<path style=" stroke:none;fill-rule:nonzero;fill:rgb(95.036316%,86.422729%,69.549561%);fill-opacity:1;" d="M 147.328125 25.082031 C 147.371094 24.4375 147.761719 24.011719 148.289062 24.011719 C 148.289062 24.011719 152.296875 24.011719 152.296875 24.011719 C 152.710938 24.011719 152.683594 24.632812 152.683594 24.632812 C 152.683594 24.632812 156.996094 24.632812 156.996094 24.632812 C 156.996094 24.632812 157.082031 23.996094 157.441406 24.011719 C 157.441406 24.011719 161.523438 24.011719 161.523438 24.011719 C 162.054688 24.011719 162.417969 24.425781 162.390625 25.058594 C 162.390625 25.058594 162.402344 34.285156 162.402344 34.285156 C 162.402344 34.285156 162.511719 35.816406 161.59375 35.816406 C 160.355469 35.816406 148.210938 35.808594 148.210938 35.808594 C 148.210938 35.808594 147.367188 35.269531 147.320312 34.269531 C 147.320312 34.269531 147.328125 25.082031 147.328125 25.082031 Z M 147.328125 25.082031 "/>
</g>
<g clip-path="url(#clip19)" clip-rule="nonzero">
<path style="fill:none;stroke-width:0.3356;stroke-linecap:butt;stroke-linejoin:miter;stroke:rgb(13.729858%,12.159729%,12.548828%);stroke-opacity:1;stroke-miterlimit:4;" d="M -15.533394 -6.387048 C -15.445119 -7.560288 -14.642619 -8.335338 -13.559244 -8.335338 C -13.559244 -8.335338 -5.325592 -8.335338 -5.325592 -8.335338 C -4.474941 -8.335338 -4.531116 -7.204761 -4.531116 -7.204761 C -4.531116 -7.204761 4.328486 -7.204761 4.328486 -7.204761 C 4.328486 -7.204761 4.505036 -8.36378 5.243336 -8.335338 C 5.243336 -8.335338 13.629463 -8.335338 13.629463 -8.335338 C 14.720863 -8.335338 15.467189 -7.58162 15.411014 -6.429711 C 15.411014 -6.429711 15.435089 10.3654 15.435089 10.3654 C 15.435089 10.3654 15.659789 13.152735 13.773913 13.152735 C 11.229988 13.152735 -13.719744 13.138513 -13.719744 13.138513 C -13.719744 13.138513 -15.453144 12.157258 -15.549444 10.336958 C -15.549444 10.336958 -15.533394 -6.387048 -15.533394 -6.387048 Z M -15.533394 -6.387048 " transform="matrix(0.48676,0,0,0.54936,154.88916,28.59082)"/>
</g>
<g clip-path="url(#clip20)" clip-rule="nonzero">
<path style="fill-rule:nonzero;fill:rgb(93.1427%,79.486084%,53.645325%);fill-opacity:1;stroke-width:0.3356;stroke-linecap:butt;stroke-linejoin:miter;stroke:rgb(13.729858%,12.159729%,12.548828%);stroke-opacity:1;stroke-miterlimit:4;" d="M -4.526093 -11.879953 C -4.526093 -11.879953 -4.469918 -11.119125 -5.609469 -11.211562 C -5.609469 -11.211562 -12.960371 -11.218673 -12.960371 -11.218673 C -14.059796 -11.218673 -15.119096 -10.351186 -15.504296 -9.284604 C -15.504296 -9.284604 -15.544421 10.333395 -15.544421 10.333395 C -15.576521 11.407087 -14.854271 12.274574 -13.754846 13.12784 C -13.754846 13.12784 13.770911 13.149171 13.770911 13.149171 C 15.070962 12.843418 15.231462 11.43553 15.440112 10.361837 C 15.440112 10.361837 15.512337 -9.256162 15.512337 -9.256162 C 15.720987 -10.322744 14.998737 -11.197341 13.899311 -11.197341 C 13.899311 -11.197341 5.922459 -11.218673 5.922459 -11.218673 C 5.922459 -11.218673 4.927359 -11.076462 4.927359 -11.915506 C 4.927359 -12.733219 4.558209 -13.152741 3.980409 -13.152741 C 3.410634 -13.152741 -3.290243 -13.145631 -3.290243 -13.145631 C -4.108793 -13.088746 -4.325468 -12.605229 -4.526093 -11.879953 Z M -4.526093 -11.879953 " transform="matrix(0.48676,0,0,0.54936,183.27734,27.88184)"/>
</g>
<g clip-path="url(#clip21)" clip-rule="nonzero">
<path style=" stroke:none;fill-rule:nonzero;fill:rgb(95.036316%,86.422729%,69.549561%);fill-opacity:1;" d="M 175.71875 24.371094 C 175.761719 23.730469 176.148438 23.300781 176.675781 23.300781 C 176.675781 23.300781 180.683594 23.300781 180.683594 23.300781 C 181.101562 23.300781 181.070312 23.925781 181.070312 23.925781 C 181.070312 23.925781 185.386719 23.925781 185.386719 23.925781 C 185.386719 23.925781 185.46875 23.285156 185.828125 23.300781 C 185.828125 23.300781 189.914062 23.300781 189.914062 23.300781 C 190.441406 23.300781 190.804688 23.71875 190.78125 24.351562 C 190.78125 24.351562 190.792969 33.574219 190.792969 33.574219 C 190.792969 33.574219 190.898438 35.105469 189.980469 35.105469 C 188.742188 35.105469 176.601562 35.101562 176.601562 35.101562 C 176.601562 35.101562 175.757812 34.558594 175.710938 33.558594 C 175.710938 33.558594 175.71875 24.371094 175.71875 24.371094 Z M 175.71875 24.371094 "/>
</g>
<g clip-path="url(#clip22)" clip-rule="nonzero">
<path style="fill:none;stroke-width:0.3356;stroke-linecap:butt;stroke-linejoin:miter;stroke:rgb(13.729858%,12.159729%,12.548828%);stroke-opacity:1;stroke-miterlimit:4;" d="M -15.528371 -6.390611 C -15.440096 -7.556741 -14.645621 -8.338901 -13.562246 -8.338901 C -13.562246 -8.338901 -5.328594 -8.338901 -5.328594 -8.338901 C -4.469918 -8.338901 -4.534118 -7.201214 -4.534118 -7.201214 C -4.534118 -7.201214 4.333509 -7.201214 4.333509 -7.201214 C 4.333509 -7.201214 4.502034 -8.367343 5.240334 -8.338901 C 5.240334 -8.338901 13.634486 -8.338901 13.634486 -8.338901 C 14.717861 -8.338901 15.464187 -7.578073 15.416037 -6.426164 C 15.416037 -6.426164 15.440112 10.361837 15.440112 10.361837 C 15.440112 10.361837 15.656787 13.149171 13.770911 13.149171 C 11.226986 13.149171 -13.714721 13.142061 -13.714721 13.142061 C -13.714721 13.142061 -15.448121 12.153695 -15.544421 10.333395 C -15.544421 10.333395 -15.528371 -6.390611 -15.528371 -6.390611 Z M -15.528371 -6.390611 " transform="matrix(0.48676,0,0,0.54936,183.27734,27.88184)"/>
</g>
<g clip-path="url(#clip23)" clip-rule="nonzero">
<path style="fill-rule:nonzero;fill:rgb(93.1427%,79.486084%,53.645325%);fill-opacity:1;stroke-width:0.3356;stroke-linecap:butt;stroke-linejoin:miter;stroke:rgb(13.729858%,12.159729%,12.548828%);stroke-opacity:1;stroke-miterlimit:4;" d="M -4.530118 -11.87551 C -4.530118 -11.87551 -4.473942 -11.121792 -5.605468 -11.214229 C -5.605468 -11.214229 -12.964395 -11.221339 -12.964395 -11.221339 C -14.055795 -11.221339 -15.115095 -10.353853 -15.500295 -9.28016 C -15.500295 -9.28016 -15.548445 10.337839 -15.548445 10.337839 C -15.57252 11.404421 -14.85027 12.271907 -13.750845 13.125173 C -13.750845 13.125173 13.774912 13.153615 13.774912 13.153615 C 15.066938 12.840751 15.235463 11.432863 15.436088 10.366281 C 15.436088 10.366281 15.516338 -9.251718 15.516338 -9.251718 C 15.716963 -10.32541 14.994712 -11.192897 13.895287 -11.192897 C 13.895287 -11.192897 5.918435 -11.214229 5.918435 -11.214229 C 5.918435 -11.214229 4.93136 -11.072018 4.93136 -11.918173 C 4.93136 -12.728775 4.56221 -13.148298 3.98441 -13.148298 C 3.40661 -13.148298 -3.286242 -13.148298 -3.286242 -13.148298 C -4.112817 -13.091413 -4.329492 -12.607896 -4.530118 -11.87551 Z M -4.530118 -11.87551 " transform="matrix(0.48676,0,0,0.54936,210.83008,28.11768)"/>
</g>
<g clip-path="url(#clip24)" clip-rule="nonzero">
<path style=" stroke:none;fill-rule:nonzero;fill:rgb(95.036316%,86.422729%,69.549561%);fill-opacity:1;" d="M 203.269531 24.609375 C 203.3125 23.964844 203.703125 23.539062 204.226562 23.539062 C 204.226562 23.539062 208.238281 23.539062 208.238281 23.539062 C 208.652344 23.539062 208.625 24.160156 208.625 24.160156 C 208.625 24.160156 212.9375 24.160156 212.9375 24.160156 C 212.9375 24.160156 213.023438 23.519531 213.378906 23.539062 C 213.378906 23.539062 217.464844 23.539062 217.464844 23.539062 C 217.992188 23.539062 218.359375 23.953125 218.332031 24.585938 C 218.332031 24.585938 218.34375 33.8125 218.34375 33.8125 C 218.34375 33.8125 218.449219 35.34375 217.535156 35.34375 C 216.292969 35.34375 204.152344 35.335938 204.152344 35.335938 C 204.152344 35.335938 203.308594 34.796875 203.261719 33.796875 C 203.261719 33.796875 203.269531 24.609375 203.269531 24.609375 Z M 203.269531 24.609375 "/>
</g>
<g clip-path="url(#clip25)" clip-rule="nonzero">
<path style="fill:none;stroke-width:0.3356;stroke-linecap:butt;stroke-linejoin:miter;stroke:rgb(13.729858%,12.159729%,12.548828%);stroke-opacity:1;stroke-miterlimit:4;" d="M -15.532395 -6.386168 C -15.44412 -7.559408 -14.64162 -8.334457 -13.56627 -8.334457 C -13.56627 -8.334457 -5.324593 -8.334457 -5.324593 -8.334457 C -4.473942 -8.334457 -4.530118 -7.20388 -4.530118 -7.20388 C -4.530118 -7.20388 4.329485 -7.20388 4.329485 -7.20388 C 4.329485 -7.20388 4.506035 -8.37001 5.23631 -8.334457 C 5.23631 -8.334457 13.630462 -8.334457 13.630462 -8.334457 C 14.713837 -8.334457 15.468188 -7.580739 15.412013 -6.428831 C 15.412013 -6.428831 15.436088 10.366281 15.436088 10.366281 C 15.436088 10.366281 15.652763 13.153615 13.774912 13.153615 C 11.222962 13.153615 -13.718745 13.139394 -13.718745 13.139394 C -13.718745 13.139394 -15.452145 12.158139 -15.548445 10.337839 C -15.548445 10.337839 -15.532395 -6.386168 -15.532395 -6.386168 Z M -15.532395 -6.386168 " transform="matrix(0.48676,0,0,0.54936,210.83008,28.11768)"/>
</g>
<g clip-path="url(#clip26)" clip-rule="nonzero">
<path style="fill-rule:nonzero;fill:rgb(93.1427%,79.486084%,53.645325%);fill-opacity:1;stroke-width:0.3356;stroke-linecap:butt;stroke-linejoin:miter;stroke:rgb(13.729858%,12.159729%,12.548828%);stroke-opacity:1;stroke-miterlimit:4;" d="M -4.526099 -11.879055 C -4.526099 -11.879055 -4.469924 -11.118226 -5.609474 -11.210663 C -5.609474 -11.210663 -12.960376 -11.217774 -12.960376 -11.217774 C -14.059801 -11.217774 -15.119101 -10.350287 -15.504301 -9.283705 C -15.504301 -9.283705 -15.544426 10.334294 -15.544426 10.334294 C -15.576526 11.407986 -14.854276 12.275473 -13.754851 13.128738 C -13.754851 13.128738 13.770906 13.15007 13.770906 13.15007 C 15.070956 12.844317 15.231456 11.436428 15.440107 10.362736 C 15.440107 10.362736 15.512332 -9.255263 15.512332 -9.255263 C 15.720982 -10.321845 14.998731 -11.196442 13.899306 -11.196442 C 13.899306 -11.196442 5.922454 -11.217774 5.922454 -11.217774 C 5.922454 -11.217774 4.927354 -11.075563 4.927354 -11.921718 C 4.927354 -12.73232 4.558204 -13.151843 3.980404 -13.151843 C 3.410628 -13.151843 -3.290248 -13.144732 -3.290248 -13.144732 C -4.108798 -13.087848 -4.325474 -12.60433 -4.526099 -11.879055 Z M -4.526099 -11.879055 " transform="matrix(0.48676,0,0,0.54936,238.80078,27.40869)"/>
</g>
<g clip-path="url(#clip27)" clip-rule="nonzero">
<path style=" stroke:none;fill-rule:nonzero;fill:rgb(95.036316%,86.422729%,69.549561%);fill-opacity:1;" d="M 231.242188 23.898438 C 231.285156 23.257812 231.671875 22.828125 232.199219 22.828125 C 232.199219 22.828125 236.207031 22.828125 236.207031 22.828125 C 236.625 22.828125 236.59375 23.453125 236.59375 23.453125 C 236.59375 23.453125 240.910156 23.453125 240.910156 23.453125 C 240.910156 23.453125 240.992188 22.8125 241.351562 22.828125 C 241.351562 22.828125 245.4375 22.828125 245.4375 22.828125 C 245.964844 22.828125 246.328125 23.246094 246.304688 23.878906 C 246.304688 23.878906 246.316406 33.101562 246.316406 33.101562 C 246.316406 33.101562 246.421875 34.632812 245.503906 34.632812 C 244.265625 34.632812 232.125 34.628906 232.125 34.628906 C 232.125 34.628906 231.28125 34.085938 231.234375 33.085938 C 231.234375 33.085938 231.242188 23.898438 231.242188 23.898438 Z M 231.242188 23.898438 "/>
</g>
<g clip-path="url(#clip28)" clip-rule="nonzero">
<path style="fill:none;stroke-width:0.3356;stroke-linecap:butt;stroke-linejoin:miter;stroke:rgb(13.729858%,12.159729%,12.548828%);stroke-opacity:1;stroke-miterlimit:4;" d="M -15.528376 -6.389713 C -15.440101 -7.555842 -14.645626 -8.338002 -13.562251 -8.338002 C -13.562251 -8.338002 -5.328599 -8.338002 -5.328599 -8.338002 C -4.469924 -8.338002 -4.534124 -7.200315 -4.534124 -7.200315 C -4.534124 -7.200315 4.333504 -7.200315 4.333504 -7.200315 C 4.333504 -7.200315 4.502029 -8.366445 5.240329 -8.338002 C 5.240329 -8.338002 13.634481 -8.338002 13.634481 -8.338002 C 14.717856 -8.338002 15.464182 -7.577174 15.416032 -6.425265 C 15.416032 -6.425265 15.440107 10.362736 15.440107 10.362736 C 15.440107 10.362736 15.656782 13.15007 13.770906 13.15007 C 11.22698 13.15007 -13.714726 13.14296 -13.714726 13.14296 C -13.714726 13.14296 -15.448126 12.154594 -15.544426 10.334294 C -15.544426 10.334294 -15.528376 -6.389713 -15.528376 -6.389713 Z M -15.528376 -6.389713 " transform="matrix(0.48676,0,0,0.54936,238.80078,27.40869)"/>
</g>
<g clip-path="url(#clip29)" clip-rule="nonzero">
<path style="fill-rule:nonzero;fill:rgb(93.1427%,79.486084%,53.645325%);fill-opacity:1;stroke-width:0.3356;stroke-linecap:butt;stroke-linejoin:miter;stroke:rgb(13.729858%,12.159729%,12.548828%);stroke-opacity:1;stroke-miterlimit:4;" d="M -4.526106 -11.87551 C -4.526106 -11.87551 -4.469931 -11.121792 -5.609482 -11.214229 C -5.609482 -11.214229 -12.960383 -11.221339 -12.960383 -11.221339 C -14.059809 -11.221339 -15.119109 -10.353853 -15.504309 -9.28016 C -15.504309 -9.28016 -15.544434 10.337839 -15.544434 10.337839 C -15.576534 11.404421 -14.854284 12.271907 -13.754859 13.125173 C -13.754859 13.125173 13.770898 13.153615 13.770898 13.153615 C 15.070949 12.840751 15.231449 11.432863 15.440099 10.366281 C 15.440099 10.366281 15.512324 -9.251718 15.512324 -9.251718 C 15.720974 -10.32541 14.998724 -11.192897 13.899298 -11.192897 C 13.899298 -11.192897 5.922446 -11.214229 5.922446 -11.214229 C 5.922446 -11.214229 4.927346 -11.072018 4.927346 -11.918173 C 4.927346 -12.728775 4.558196 -13.148298 3.980396 -13.148298 C 3.410621 -13.148298 -3.290256 -13.148298 -3.290256 -13.148298 C -4.108806 -13.091413 -4.325481 -12.607896 -4.526106 -11.87551 Z M -4.526106 -11.87551 " transform="matrix(0.48676,0,0,0.54936,268.64844,28.11768)"/>
</g>
<g clip-path="url(#clip30)" clip-rule="nonzero">
<path style=" stroke:none;fill-rule:nonzero;fill:rgb(95.036316%,86.422729%,69.549561%);fill-opacity:1;" d="M 261.089844 24.609375 C 261.132812 23.964844 261.519531 23.539062 262.046875 23.539062 C 262.046875 23.539062 266.054688 23.539062 266.054688 23.539062 C 266.472656 23.539062 266.441406 24.160156 266.441406 24.160156 C 266.441406 24.160156 270.757812 24.160156 270.757812 24.160156 C 270.757812 24.160156 270.839844 23.519531 271.199219 23.539062 C 271.199219 23.539062 275.285156 23.539062 275.285156 23.539062 C 275.8125 23.539062 276.175781 23.953125 276.152344 24.585938 C 276.152344 24.585938 276.164062 33.8125 276.164062 33.8125 C 276.164062 33.8125 276.269531 35.34375 275.351562 35.34375 C 274.113281 35.34375 261.972656 35.335938 261.972656 35.335938 C 261.972656 35.335938 261.128906 34.796875 261.082031 33.796875 C 261.082031 33.796875 261.089844 24.609375 261.089844 24.609375 Z M 261.089844 24.609375 "/>
</g>
<g clip-path="url(#clip31)" clip-rule="nonzero">
<path style="fill:none;stroke-width:0.3356;stroke-linecap:butt;stroke-linejoin:miter;stroke:rgb(13.729858%,12.159729%,12.548828%);stroke-opacity:1;stroke-miterlimit:4;" d="M -15.528384 -6.386168 C -15.440109 -7.559408 -14.645634 -8.334457 -13.562259 -8.334457 C -13.562259 -8.334457 -5.328607 -8.334457 -5.328607 -8.334457 C -4.469931 -8.334457 -4.534131 -7.20388 -4.534131 -7.20388 C -4.534131 -7.20388 4.333496 -7.20388 4.333496 -7.20388 C 4.333496 -7.20388 4.502021 -8.37001 5.240321 -8.334457 C 5.240321 -8.334457 13.634473 -8.334457 13.634473 -8.334457 C 14.717849 -8.334457 15.464174 -7.580739 15.416024 -6.428831 C 15.416024 -6.428831 15.440099 10.366281 15.440099 10.366281 C 15.440099 10.366281 15.656774 13.153615 13.770898 13.153615 C 11.226973 13.153615 -13.714734 13.139394 -13.714734 13.139394 C -13.714734 13.139394 -15.448134 12.158139 -15.544434 10.337839 C -15.544434 10.337839 -15.528384 -6.386168 -15.528384 -6.386168 Z M -15.528384 -6.386168 " transform="matrix(0.48676,0,0,0.54936,268.64844,28.11768)"/>
</g>
<g clip-path="url(#clip32)" clip-rule="nonzero">
<path style="fill-rule:nonzero;fill:rgb(93.1427%,79.486084%,53.645325%);fill-opacity:1;stroke-width:0.3356;stroke-linecap:butt;stroke-linejoin:miter;stroke:rgb(13.729858%,12.159729%,12.548828%);stroke-opacity:1;stroke-miterlimit:4;" d="M -4.526109 -11.879953 C -4.526109 -11.879953 -4.469934 -11.119125 -5.609484 -11.211562 C -5.609484 -11.211562 -12.960386 -11.218673 -12.960386 -11.218673 C -14.059811 -11.218673 -15.119112 -10.351186 -15.504312 -9.284604 C -15.504312 -9.284604 -15.544437 10.333395 -15.544437 10.333395 C -15.576537 11.407087 -14.854287 12.274574 -13.754861 13.12784 C -13.754861 13.12784 13.770896 13.149171 13.770896 13.149171 C 15.070946 12.843418 15.231446 11.43553 15.440096 10.361837 C 15.440096 10.361837 15.512321 -9.256162 15.512321 -9.256162 C 15.720971 -10.322744 14.998721 -11.197341 13.899296 -11.197341 C 13.899296 -11.197341 5.922444 -11.218673 5.922444 -11.218673 C 5.922444 -11.218673 4.927344 -11.076462 4.927344 -11.915506 C 4.927344 -12.733219 4.558193 -13.152741 3.980393 -13.152741 C 3.410618 -13.152741 -3.290259 -13.145631 -3.290259 -13.145631 C -4.108809 -13.088746 -4.325484 -12.605229 -4.526109 -11.879953 Z M -4.526109 -11.879953 " transform="matrix(0.48676,0,0,0.54936,295.78516,27.88184)"/>
</g>
<g clip-path="url(#clip33)" clip-rule="nonzero">
<path style=" stroke:none;fill-rule:nonzero;fill:rgb(95.036316%,86.422729%,69.549561%);fill-opacity:1;" d="M 288.226562 24.371094 C 288.269531 23.730469 288.65625 23.300781 289.183594 23.300781 C 289.183594 23.300781 293.191406 23.300781 293.191406 23.300781 C 293.609375 23.300781 293.578125 23.925781 293.578125 23.925781 C 293.578125 23.925781 297.894531 23.925781 297.894531 23.925781 C 297.894531 23.925781 297.976562 23.285156 298.335938 23.300781 C 298.335938 23.300781 302.421875 23.300781 302.421875 23.300781 C 302.949219 23.300781 303.3125 23.71875 303.289062 24.351562 C 303.289062 24.351562 303.300781 33.574219 303.300781 33.574219 C 303.300781 33.574219 303.40625 35.105469 302.488281 35.105469 C 301.25 35.105469 289.109375 35.101562 289.109375 35.101562 C 289.109375 35.101562 288.265625 34.558594 288.21875 33.558594 C 288.21875 33.558594 288.226562 24.371094 288.226562 24.371094 Z M 288.226562 24.371094 "/>
</g>
<g clip-path="url(#clip34)" clip-rule="nonzero">
<path style="fill:none;stroke-width:0.3356;stroke-linecap:butt;stroke-linejoin:miter;stroke:rgb(13.729858%,12.159729%,12.548828%);stroke-opacity:1;stroke-miterlimit:4;" d="M -15.528387 -6.390611 C -15.440112 -7.556741 -14.645636 -8.338901 -13.562261 -8.338901 C -13.562261 -8.338901 -5.328609 -8.338901 -5.328609 -8.338901 C -4.469934 -8.338901 -4.534134 -7.201214 -4.534134 -7.201214 C -4.534134 -7.201214 4.333493 -7.201214 4.333493 -7.201214 C 4.333493 -7.201214 4.502018 -8.367343 5.240319 -8.338901 C 5.240319 -8.338901 13.634471 -8.338901 13.634471 -8.338901 C 14.717846 -8.338901 15.464171 -7.578073 15.416021 -6.426164 C 15.416021 -6.426164 15.440096 10.361837 15.440096 10.361837 C 15.440096 10.361837 15.656771 13.149171 13.770896 13.149171 C 11.22697 13.149171 -13.714736 13.142061 -13.714736 13.142061 C -13.714736 13.142061 -15.448137 12.153695 -15.544437 10.333395 C -15.544437 10.333395 -15.528387 -6.390611 -15.528387 -6.390611 Z M -15.528387 -6.390611 " transform="matrix(0.48676,0,0,0.54936,295.78516,27.88184)"/>
</g>
<g clip-path="url(#clip35)" clip-rule="nonzero">
<path style="fill-rule:nonzero;fill:rgb(93.1427%,79.486084%,53.645325%);fill-opacity:1;stroke-width:0.3356;stroke-linecap:butt;stroke-linejoin:miter;stroke:rgb(13.729858%,12.159729%,12.548828%);stroke-opacity:1;stroke-miterlimit:4;" d="M -4.528102 -11.87639 C -4.528102 -11.87639 -4.471927 -11.122672 -5.603452 -11.215109 C -5.603452 -11.215109 -12.962379 -11.22222 -12.962379 -11.22222 C -14.061804 -11.22222 -15.121104 -10.354733 -15.498279 -9.281041 C -15.498279 -9.281041 -15.546429 10.336958 -15.546429 10.336958 C -15.570504 11.40354 -14.856279 12.278137 -13.756854 13.124292 C -13.756854 13.124292 13.768903 13.152735 13.768903 13.152735 C 15.068953 12.846981 15.229453 11.439093 15.438103 10.3654 C 15.438103 10.3654 15.518354 -9.252598 15.518354 -9.252598 C 15.718979 -10.326291 14.996728 -11.193778 13.897303 -11.193778 C 13.897303 -11.193778 5.920451 -11.215109 5.920451 -11.215109 C 5.920451 -11.215109 4.925351 -11.072898 4.925351 -11.919054 C 4.925351 -12.729656 4.564226 -13.149178 3.986426 -13.149178 C 3.408625 -13.149178 -3.292251 -13.142068 -3.292251 -13.142068 C -4.110802 -13.092294 -4.327477 -12.608777 -4.528102 -11.87639 Z M -4.528102 -11.87639 " transform="matrix(0.48676,0,0,0.54936,323.75488,28.59082)"/>
</g>
<g clip-path="url(#clip36)" clip-rule="nonzero">
<path style=" stroke:none;fill-rule:nonzero;fill:rgb(95.036316%,86.422729%,69.549561%);fill-opacity:1;" d="M 316.195312 25.082031 C 316.238281 24.4375 316.625 24.011719 317.152344 24.011719 C 317.152344 24.011719 321.160156 24.011719 321.160156 24.011719 C 321.578125 24.011719 321.550781 24.632812 321.550781 24.632812 C 321.550781 24.632812 325.863281 24.632812 325.863281 24.632812 C 325.863281 24.632812 325.945312 23.996094 326.304688 24.011719 C 326.304688 24.011719 330.390625 24.011719 330.390625 24.011719 C 330.917969 24.011719 331.28125 24.425781 331.257812 25.058594 C 331.257812 25.058594 331.269531 34.285156 331.269531 34.285156 C 331.269531 34.285156 331.375 35.816406 330.457031 35.816406 C 329.21875 35.816406 317.078125 35.808594 317.078125 35.808594 C 317.078125 35.808594 316.234375 35.269531 316.1875 34.269531 C 316.1875 34.269531 316.195312 25.082031 316.195312 25.082031 Z M 316.195312 25.082031 "/>
</g>
<g clip-path="url(#clip37)" clip-rule="nonzero">
<path style="fill:none;stroke-width:0.3356;stroke-linecap:butt;stroke-linejoin:miter;stroke:rgb(13.729858%,12.159729%,12.548828%);stroke-opacity:1;stroke-miterlimit:4;" d="M -15.530379 -6.387048 C -15.442104 -7.560288 -14.647629 -8.335338 -13.564254 -8.335338 C -13.564254 -8.335338 -5.330602 -8.335338 -5.330602 -8.335338 C -4.471927 -8.335338 -4.528102 -7.204761 -4.528102 -7.204761 C -4.528102 -7.204761 4.331501 -7.204761 4.331501 -7.204761 C 4.331501 -7.204761 4.500026 -8.36378 5.238326 -8.335338 C 5.238326 -8.335338 13.632478 -8.335338 13.632478 -8.335338 C 14.715853 -8.335338 15.462178 -7.58162 15.414028 -6.429711 C 15.414028 -6.429711 15.438103 10.3654 15.438103 10.3654 C 15.438103 10.3654 15.654779 13.152735 13.768903 13.152735 C 11.224977 13.152735 -13.716729 13.138513 -13.716729 13.138513 C -13.716729 13.138513 -15.450129 12.157258 -15.546429 10.336958 C -15.546429 10.336958 -15.530379 -6.387048 -15.530379 -6.387048 Z M -15.530379 -6.387048 " transform="matrix(0.48676,0,0,0.54936,323.75488,28.59082)"/>
</g>
<g clip-path="url(#clip38)" clip-rule="nonzero">
<path style=" stroke:none;fill-rule:nonzero;fill:rgb(93.1427%,79.486084%,53.645325%);fill-opacity:1;" d="M 350.371094 22.828125 C 350.371094 22.828125 350.398438 23.246094 349.847656 23.195312 C 349.847656 23.195312 346.265625 23.191406 346.265625 23.191406 C 345.734375 23.191406 345.21875 23.667969 345.03125 24.253906 C 345.03125 24.253906 345.007812 35.03125 345.007812 35.03125 C 344.996094 35.621094 345.347656 36.097656 345.882812 36.566406 C 345.882812 36.566406 359.28125 36.578125 359.28125 36.578125 C 359.910156 36.410156 359.992188 35.636719 360.089844 35.046875 C 360.089844 35.046875 360.128906 24.269531 360.128906 24.269531 C 360.226562 23.683594 359.875 23.203125 359.339844 23.203125 C 359.339844 23.203125 355.457031 23.191406 355.457031 23.191406 C 355.457031 23.191406 354.976562 23.269531 354.976562 22.804688 C 354.976562 22.359375 354.796875 22.128906 354.515625 22.128906 C 354.234375 22.128906 350.976562 22.132812 350.976562 22.132812 C 350.574219 22.164062 350.46875 22.429688 350.371094 22.828125 Z M 350.371094 22.828125 "/>
</g>
<g clip-path="url(#clip39)" clip-rule="nonzero">
<path style="fill:none;stroke-width:0.3356;stroke-linecap:butt;stroke-linejoin:miter;stroke:rgb(13.729858%,12.159729%,12.548828%);stroke-opacity:1;stroke-miterlimit:4;" d="M -4.53011 -11.87905 C -4.53011 -11.87905 -4.473935 -11.118222 -5.60546 -11.210659 C -5.60546 -11.210659 -12.964387 -11.217769 -12.964387 -11.217769 C -14.055787 -11.217769 -15.115088 -10.350283 -15.500288 -9.283701 C -15.500288 -9.283701 -15.548438 10.334298 -15.548438 10.334298 C -15.572513 11.407991 -14.850262 12.275477 -13.750837 13.128743 C -13.750837 13.128743 13.77492 13.150075 13.77492 13.150075 C 15.066945 12.844321 15.23547 11.436433 15.436095 10.36274 C 15.436095 10.36274 15.516345 -9.255258 15.516345 -9.255258 C 15.71697 -10.32184 14.99472 -11.196438 13.895295 -11.196438 C 13.895295 -11.196438 5.918443 -11.217769 5.918443 -11.217769 C 5.918443 -11.217769 4.931368 -11.075558 4.931368 -11.921713 C 4.931368 -12.732316 4.562218 -13.151838 3.984417 -13.151838 C 3.406617 -13.151838 -3.286234 -13.144728 -3.286234 -13.144728 C -4.11281 -13.087843 -4.329485 -12.604326 -4.53011 -11.87905 Z M -4.53011 -11.87905 " transform="matrix(0.48676,0,0,0.54936,352.57617,29.354)"/>
</g>
<g clip-path="url(#clip40)" clip-rule="nonzero">
<path style=" stroke:none;fill-rule:nonzero;fill:rgb(95.036316%,86.422729%,69.549561%);fill-opacity:1;" d="M 345.015625 25.84375 C 345.058594 25.203125 345.449219 24.773438 345.972656 24.773438 C 345.972656 24.773438 349.984375 24.773438 349.984375 24.773438 C 350.398438 24.773438 350.371094 25.398438 350.371094 25.398438 C 350.371094 25.398438 354.683594 25.398438 354.683594 25.398438 C 354.683594 25.398438 354.769531 24.757812 355.125 24.773438 C 355.125 24.773438 359.210938 24.773438 359.210938 24.773438 C 359.738281 24.773438 360.105469 25.191406 360.078125 25.824219 C 360.078125 25.824219 360.089844 35.046875 360.089844 35.046875 C 360.089844 35.046875 360.195312 36.578125 359.28125 36.578125 C 358.039062 36.578125 345.898438 36.574219 345.898438 36.574219 C 345.898438 36.574219 345.054688 36.03125 345.007812 35.03125 C 345.007812 35.03125 345.015625 25.84375 345.015625 25.84375 Z M 345.015625 25.84375 "/>
</g>
<g clip-path="url(#clip41)" clip-rule="nonzero">
<path style="fill:none;stroke-width:0.3356;stroke-linecap:butt;stroke-linejoin:miter;stroke:rgb(13.729858%,12.159729%,12.548828%);stroke-opacity:1;stroke-miterlimit:4;" d="M -15.532388 -6.389708 C -15.444113 -7.555838 -14.641612 -8.337998 -13.566262 -8.337998 C -13.566262 -8.337998 -5.324585 -8.337998 -5.324585 -8.337998 C -4.473935 -8.337998 -4.53011 -7.20031 -4.53011 -7.20031 C -4.53011 -7.20031 4.329492 -7.20031 4.329492 -7.20031 C 4.329492 -7.20031 4.506043 -8.36644 5.236318 -8.337998 C 5.236318 -8.337998 13.63047 -8.337998 13.63047 -8.337998 C 14.713845 -8.337998 15.468195 -7.577169 15.41202 -6.425261 C 15.41202 -6.425261 15.436095 10.36274 15.436095 10.36274 C 15.436095 10.36274 15.65277 13.150075 13.77492 13.150075 C 11.222969 13.150075 -13.718737 13.142964 -13.718737 13.142964 C -13.718737 13.142964 -15.452138 12.154598 -15.548438 10.334298 C -15.548438 10.334298 -15.532388 -6.389708 -15.532388 -6.389708 Z M -15.532388 -6.389708 " transform="matrix(0.48676,0,0,0.54936,352.57617,29.354)"/>
</g>
<g clip-path="url(#clip42)" clip-rule="nonzero">
<path style="fill-rule:nonzero;fill:rgb(93.1427%,79.486084%,53.645325%);fill-opacity:1;stroke-width:0.3356;stroke-linecap:butt;stroke-linejoin:miter;stroke:rgb(13.729858%,12.159729%,12.548828%);stroke-opacity:1;stroke-miterlimit:4;" d="M -4.526096 -11.87551 C -4.526096 -11.87551 -4.469921 -11.121792 -5.609471 -11.214229 C -5.609471 -11.214229 -12.960373 -11.221339 -12.960373 -11.221339 C -14.059798 -11.221339 -15.119099 -10.353853 -15.504299 -9.28016 C -15.504299 -9.28016 -15.544424 10.337839 -15.544424 10.337839 C -15.576524 11.404421 -14.854274 12.271907 -13.754848 13.125173 C -13.754848 13.125173 13.770909 13.153615 13.770909 13.153615 C 15.070959 12.840751 15.231459 11.432863 15.440109 10.366281 C 15.440109 10.366281 15.512334 -9.251718 15.512334 -9.251718 C 15.720984 -10.32541 14.998734 -11.192897 13.899309 -11.192897 C 13.899309 -11.192897 5.922457 -11.214229 5.922457 -11.214229 C 5.922457 -11.214229 4.927356 -11.072018 4.927356 -11.918173 C 4.927356 -12.728775 4.558206 -13.148298 3.980406 -13.148298 C 3.410631 -13.148298 -3.290246 -13.148298 -3.290246 -13.148298 C -4.108796 -13.091413 -4.325471 -12.607896 -4.526096 -11.87551 Z M -4.526096 -11.87551 " transform="matrix(0.48676,0,0,0.54936,382.00781,29.11768)"/>
</g>
<g clip-path="url(#clip43)" clip-rule="nonzero">
<path style=" stroke:none;fill-rule:nonzero;fill:rgb(95.036316%,86.422729%,69.549561%);fill-opacity:1;" d="M 374.449219 25.609375 C 374.492188 24.964844 374.878906 24.539062 375.40625 24.539062 C 375.40625 24.539062 379.414062 24.539062 379.414062 24.539062 C 379.832031 24.539062 379.800781 25.160156 379.800781 25.160156 C 379.800781 25.160156 384.117188 25.160156 384.117188 25.160156 C 384.117188 25.160156 384.199219 24.519531 384.558594 24.539062 C 384.558594 24.539062 388.644531 24.539062 388.644531 24.539062 C 389.171875 24.539062 389.535156 24.953125 389.511719 25.585938 C 389.511719 25.585938 389.523438 34.8125 389.523438 34.8125 C 389.523438 34.8125 389.628906 36.34375 388.710938 36.34375 C 387.472656 36.34375 375.332031 36.335938 375.332031 36.335938 C 375.332031 36.335938 374.488281 35.796875 374.441406 34.796875 C 374.441406 34.796875 374.449219 25.609375 374.449219 25.609375 Z M 374.449219 25.609375 "/>
</g>
<g clip-path="url(#clip44)" clip-rule="nonzero">
<path style="fill:none;stroke-width:0.3356;stroke-linecap:butt;stroke-linejoin:miter;stroke:rgb(13.729858%,12.159729%,12.548828%);stroke-opacity:1;stroke-miterlimit:4;" d="M -15.528374 -6.386168 C -15.440099 -7.559408 -14.645624 -8.334457 -13.562248 -8.334457 C -13.562248 -8.334457 -5.328596 -8.334457 -5.328596 -8.334457 C -4.469921 -8.334457 -4.534121 -7.20388 -4.534121 -7.20388 C -4.534121 -7.20388 4.333506 -7.20388 4.333506 -7.20388 C 4.333506 -7.20388 4.502031 -8.37001 5.240331 -8.334457 C 5.240331 -8.334457 13.634484 -8.334457 13.634484 -8.334457 C 14.717859 -8.334457 15.464184 -7.580739 15.416034 -6.428831 C 15.416034 -6.428831 15.440109 10.366281 15.440109 10.366281 C 15.440109 10.366281 15.656784 13.153615 13.770909 13.153615 C 11.226983 13.153615 -13.714723 13.139394 -13.714723 13.139394 C -13.714723 13.139394 -15.448124 12.158139 -15.544424 10.337839 C -15.544424 10.337839 -15.528374 -6.386168 -15.528374 -6.386168 Z M -15.528374 -6.386168 " transform="matrix(0.48676,0,0,0.54936,382.00781,29.11768)"/>
</g>
<g clip-path="url(#clip45)" clip-rule="nonzero">
<path style="fill-rule:nonzero;fill:rgb(93.1427%,79.486084%,53.645325%);fill-opacity:1;stroke-width:0.3356;stroke-linecap:butt;stroke-linejoin:miter;stroke:rgb(13.729858%,12.159729%,12.548828%);stroke-opacity:1;stroke-miterlimit:4;" d="M -4.530123 -11.879953 C -4.530123 -11.879953 -4.473948 -11.119125 -5.605473 -11.211562 C -5.605473 -11.211562 -12.9644 -11.218673 -12.9644 -11.218673 C -14.0558 -11.218673 -15.1151 -10.351186 -15.5003 -9.284604 C -15.5003 -9.284604 -15.54845 10.333395 -15.54845 10.333395 C -15.572525 11.407087 -14.850275 12.274574 -13.75085 13.12784 C -13.75085 13.12784 13.774907 13.149171 13.774907 13.149171 C 15.066932 12.843418 15.235457 11.43553 15.436082 10.361837 C 15.436082 10.361837 15.516332 -9.256162 15.516332 -9.256162 C 15.716958 -10.322744 14.994707 -11.197341 13.895282 -11.197341 C 13.895282 -11.197341 5.91843 -11.218673 5.91843 -11.218673 C 5.91843 -11.218673 4.931355 -11.076462 4.931355 -11.915506 C 4.931355 -12.733219 4.562205 -13.152741 3.984405 -13.152741 C 3.406604 -13.152741 -3.286247 -13.145631 -3.286247 -13.145631 C -4.112823 -13.088746 -4.329498 -12.605229 -4.530123 -11.879953 Z M -4.530123 -11.879953 " transform="matrix(0.48676,0,0,0.54936,409.97852,28.88184)"/>
</g>
<g clip-path="url(#clip46)" clip-rule="nonzero">
<path style=" stroke:none;fill-rule:nonzero;fill:rgb(95.036316%,86.422729%,69.549561%);fill-opacity:1;" d="M 402.417969 25.371094 C 402.460938 24.730469 402.851562 24.300781 403.375 24.300781 C 403.375 24.300781 407.386719 24.300781 407.386719 24.300781 C 407.800781 24.300781 407.773438 24.925781 407.773438 24.925781 C 407.773438 24.925781 412.085938 24.925781 412.085938 24.925781 C 412.085938 24.925781 412.171875 24.285156 412.527344 24.300781 C 412.527344 24.300781 416.613281 24.300781 416.613281 24.300781 C 417.140625 24.300781 417.507812 24.71875 417.480469 25.351562 C 417.480469 25.351562 417.492188 34.574219 417.492188 34.574219 C 417.492188 34.574219 417.597656 36.105469 416.683594 36.105469 C 415.441406 36.105469 403.300781 36.101562 403.300781 36.101562 C 403.300781 36.101562 402.457031 35.558594 402.410156 34.558594 C 402.410156 34.558594 402.417969 25.371094 402.417969 25.371094 Z M 402.417969 25.371094 "/>
</g>
<g clip-path="url(#clip47)" clip-rule="nonzero">
<path style="fill:none;stroke-width:0.3356;stroke-linecap:butt;stroke-linejoin:miter;stroke:rgb(13.729858%,12.159729%,12.548828%);stroke-opacity:1;stroke-miterlimit:4;" d="M -15.5324 -6.390611 C -15.444125 -7.556741 -14.641625 -8.338901 -13.566275 -8.338901 C -13.566275 -8.338901 -5.324598 -8.338901 -5.324598 -8.338901 C -4.473948 -8.338901 -4.530123 -7.201214 -4.530123 -7.201214 C -4.530123 -7.201214 4.32948 -7.201214 4.32948 -7.201214 C 4.32948 -7.201214 4.50603 -8.367343 5.236305 -8.338901 C 5.236305 -8.338901 13.630457 -8.338901 13.630457 -8.338901 C 14.713832 -8.338901 15.468182 -7.578073 15.412007 -6.426164 C 15.412007 -6.426164 15.436082 10.361837 15.436082 10.361837 C 15.436082 10.361837 15.652758 13.149171 13.774907 13.149171 C 11.222956 13.149171 -13.71875 13.142061 -13.71875 13.142061 C -13.71875 13.142061 -15.45215 12.153695 -15.54845 10.333395 C -15.54845 10.333395 -15.5324 -6.390611 -15.5324 -6.390611 Z M -15.5324 -6.390611 " transform="matrix(0.48676,0,0,0.54936,409.97852,28.88184)"/>
</g>
<g clip-path="url(#clip48)" clip-rule="nonzero">
<path style="fill-rule:nonzero;fill:rgb(93.1427%,79.486084%,53.645325%);fill-opacity:1;stroke-width:0.3356;stroke-linecap:butt;stroke-linejoin:miter;stroke:rgb(13.729858%,12.159729%,12.548828%);stroke-opacity:1;stroke-miterlimit:4;" d="M -4.528109 -11.879055 C -4.528109 -11.879055 -4.471934 -11.118226 -5.60346 -11.210663 C -5.60346 -11.210663 -12.962386 -11.217774 -12.962386 -11.217774 C -14.061812 -11.217774 -15.121112 -10.350287 -15.498287 -9.283705 C -15.498287 -9.283705 -15.546437 10.334294 -15.546437 10.334294 C -15.570512 11.407986 -14.856287 12.275473 -13.756862 13.128738 C -13.756862 13.128738 13.768895 13.15007 13.768895 13.15007 C 15.068946 12.844317 15.229446 11.436428 15.438096 10.362736 C 15.438096 10.362736 15.518346 -9.255263 15.518346 -9.255263 C 15.718971 -10.321845 14.996721 -11.196442 13.897295 -11.196442 C 13.897295 -11.196442 5.920443 -11.217774 5.920443 -11.217774 C 5.920443 -11.217774 4.925343 -11.075563 4.925343 -11.921718 C 4.925343 -12.73232 4.564218 -13.151843 3.986418 -13.151843 C 3.408618 -13.151843 -3.292259 -13.144732 -3.292259 -13.144732 C -4.110809 -13.087848 -4.327484 -12.60433 -4.528109 -11.879055 Z M -4.528109 -11.879055 " transform="matrix(0.48676,0,0,0.54936,436.69629,28.40869)"/>
</g>
<g clip-path="url(#clip49)" clip-rule="nonzero">
<path style=" stroke:none;fill-rule:nonzero;fill:rgb(95.036316%,86.422729%,69.549561%);fill-opacity:1;" d="M 429.136719 24.898438 C 429.179688 24.257812 429.566406 23.828125 430.09375 23.828125 C 430.09375 23.828125 434.101562 23.828125 434.101562 23.828125 C 434.519531 23.828125 434.492188 24.453125 434.492188 24.453125 C 434.492188 24.453125 438.804688 24.453125 438.804688 24.453125 C 438.804688 24.453125 438.886719 23.8125 439.246094 23.828125 C 439.246094 23.828125 443.332031 23.828125 443.332031 23.828125 C 443.859375 23.828125 444.222656 24.246094 444.199219 24.878906 C 444.199219 24.878906 444.210938 34.101562 444.210938 34.101562 C 444.210938 34.101562 444.316406 35.632812 443.398438 35.632812 C 442.160156 35.632812 430.019531 35.628906 430.019531 35.628906 C 430.019531 35.628906 429.175781 35.085938 429.128906 34.085938 C 429.128906 34.085938 429.136719 24.898438 429.136719 24.898438 Z M 429.136719 24.898438 "/>
</g>
<g clip-path="url(#clip50)" clip-rule="nonzero">
<path style="fill:none;stroke-width:0.3356;stroke-linecap:butt;stroke-linejoin:miter;stroke:rgb(13.729858%,12.159729%,12.548828%);stroke-opacity:1;stroke-miterlimit:4;" d="M -15.530387 -6.389713 C -15.442112 -7.555842 -14.647637 -8.338002 -13.564262 -8.338002 C -13.564262 -8.338002 -5.33061 -8.338002 -5.33061 -8.338002 C -4.471934 -8.338002 -4.528109 -7.200315 -4.528109 -7.200315 C -4.528109 -7.200315 4.331493 -7.200315 4.331493 -7.200315 C 4.331493 -7.200315 4.500018 -8.366445 5.238318 -8.338002 C 5.238318 -8.338002 13.63247 -8.338002 13.63247 -8.338002 C 14.715846 -8.338002 15.462171 -7.577174 15.414021 -6.425265 C 15.414021 -6.425265 15.438096 10.362736 15.438096 10.362736 C 15.438096 10.362736 15.654771 13.15007 13.768895 13.15007 C 11.22497 13.15007 -13.716737 13.14296 -13.716737 13.14296 C -13.716737 13.14296 -15.450137 12.154594 -15.546437 10.334294 C -15.546437 10.334294 -15.530387 -6.389713 -15.530387 -6.389713 Z M -15.530387 -6.389713 " transform="matrix(0.48676,0,0,0.54936,436.69629,28.40869)"/>
</g>
<g clip-path="url(#clip51)" clip-rule="nonzero">
<path style="fill-rule:nonzero;fill:rgb(93.1427%,79.486084%,53.645325%);fill-opacity:1;stroke-width:0.3356;stroke-linecap:butt;stroke-linejoin:miter;stroke:rgb(13.729858%,12.159729%,12.548828%);stroke-opacity:1;stroke-miterlimit:4;" d="M -4.526101 -11.879947 C -4.526101 -11.879947 -4.469926 -11.119118 -5.609476 -11.211555 C -5.609476 -11.211555 -12.960378 -11.218666 -12.960378 -11.218666 C -14.059804 -11.218666 -15.119104 -10.351179 -15.504304 -9.284597 C -15.504304 -9.284597 -15.544429 10.333402 -15.544429 10.333402 C -15.576529 11.407094 -14.854279 12.274581 -13.754854 13.127846 C -13.754854 13.127846 13.770904 13.149178 13.770904 13.149178 C 15.070954 12.843425 15.231454 11.435536 15.440104 10.361844 C 15.440104 10.361844 15.512329 -9.256155 15.512329 -9.256155 C 15.720979 -10.322737 14.998729 -11.197334 13.899304 -11.197334 C 13.899304 -11.197334 5.922452 -11.218666 5.922452 -11.218666 C 5.922452 -11.218666 4.927351 -11.076455 4.927351 -11.915499 C 4.927351 -12.733212 4.558201 -13.152735 3.980401 -13.152735 C 3.410626 -13.152735 -3.290251 -13.145624 -3.290251 -13.145624 C -4.108801 -13.08874 -4.325476 -12.605222 -4.526101 -11.879947 Z M -4.526101 -11.879947 " transform="matrix(0.48676,0,0,0.54936,464.875,28.40918)"/>
</g>
<g clip-path="url(#clip52)" clip-rule="nonzero">
<path style=" stroke:none;fill-rule:nonzero;fill:rgb(95.036316%,86.422729%,69.549561%);fill-opacity:1;" d="M 457.316406 24.898438 C 457.359375 24.257812 457.746094 23.828125 458.273438 23.828125 C 458.273438 23.828125 462.28125 23.828125 462.28125 23.828125 C 462.699219 23.828125 462.667969 24.453125 462.667969 24.453125 C 462.667969 24.453125 466.984375 24.453125 466.984375 24.453125 C 466.984375 24.453125 467.066406 23.8125 467.425781 23.828125 C 467.425781 23.828125 471.511719 23.828125 471.511719 23.828125 C 472.039062 23.828125 472.402344 24.246094 472.378906 24.878906 C 472.378906 24.878906 472.390625 34.101562 472.390625 34.101562 C 472.390625 34.101562 472.496094 35.632812 471.578125 35.632812 C 470.339844 35.632812 458.199219 35.628906 458.199219 35.628906 C 458.199219 35.628906 457.355469 35.085938 457.308594 34.085938 C 457.308594 34.085938 457.316406 24.898438 457.316406 24.898438 Z M 457.316406 24.898438 "/>
</g>
<g clip-path="url(#clip53)" clip-rule="nonzero">
<path style="fill:none;stroke-width:0.3356;stroke-linecap:butt;stroke-linejoin:miter;stroke:rgb(13.729858%,12.159729%,12.548828%);stroke-opacity:1;stroke-miterlimit:4;" d="M -15.528379 -6.390605 C -15.440104 -7.556734 -14.645629 -8.338894 -13.562253 -8.338894 C -13.562253 -8.338894 -5.328601 -8.338894 -5.328601 -8.338894 C -4.469926 -8.338894 -4.534126 -7.201207 -4.534126 -7.201207 C -4.534126 -7.201207 4.333501 -7.201207 4.333501 -7.201207 C 4.333501 -7.201207 4.502026 -8.367337 5.240326 -8.338894 C 5.240326 -8.338894 13.634478 -8.338894 13.634478 -8.338894 C 14.717854 -8.338894 15.464179 -7.578066 15.416029 -6.426157 C 15.416029 -6.426157 15.440104 10.361844 15.440104 10.361844 C 15.440104 10.361844 15.656779 13.149178 13.770904 13.149178 C 11.226978 13.149178 -13.714729 13.142068 -13.714729 13.142068 C -13.714729 13.142068 -15.448129 12.153702 -15.544429 10.333402 C -15.544429 10.333402 -15.528379 -6.390605 -15.528379 -6.390605 Z M -15.528379 -6.390605 " transform="matrix(0.48676,0,0,0.54936,464.875,28.40918)"/>
</g>
<g clip-path="url(#clip54)" clip-rule="nonzero">
<path style="fill-rule:nonzero;fill:rgb(93.1427%,79.486084%,53.645325%);fill-opacity:1;stroke-width:0.3356;stroke-linecap:butt;stroke-linejoin:miter;stroke:rgb(13.729858%,12.159729%,12.548828%);stroke-opacity:1;stroke-miterlimit:4;" d="M -4.53011 -11.87639 C -4.53011 -11.87639 -4.473935 -11.122672 -5.60546 -11.215109 C -5.60546 -11.215109 -12.964387 -11.22222 -12.964387 -11.22222 C -14.055787 -11.22222 -15.115088 -10.354733 -15.500288 -9.281041 C -15.500288 -9.281041 -15.548438 10.336958 -15.548438 10.336958 C -15.572513 11.40354 -14.850262 12.278137 -13.750837 13.124292 C -13.750837 13.124292 13.77492 13.152735 13.77492 13.152735 C 15.066945 12.846981 15.23547 11.439093 15.436095 10.3654 C 15.436095 10.3654 15.516345 -9.252598 15.516345 -9.252598 C 15.71697 -10.326291 14.99472 -11.193778 13.895295 -11.193778 C 13.895295 -11.193778 5.918443 -11.215109 5.918443 -11.215109 C 5.918443 -11.215109 4.931368 -11.072898 4.931368 -11.919054 C 4.931368 -12.729656 4.562218 -13.149178 3.984417 -13.149178 C 3.406617 -13.149178 -3.286234 -13.142068 -3.286234 -13.142068 C -4.11281 -13.092294 -4.329485 -12.608777 -4.53011 -11.87639 Z M -4.53011 -11.87639 " transform="matrix(0.48676,0,0,0.54936,493.88867,29.59082)"/>
</g>
<g clip-path="url(#clip55)" clip-rule="nonzero">
<path style=" stroke:none;fill-rule:nonzero;fill:rgb(95.036316%,86.422729%,69.549561%);fill-opacity:1;" d="M 486.328125 26.082031 C 486.371094 25.4375 486.761719 25.011719 487.285156 25.011719 C 487.285156 25.011719 491.296875 25.011719 491.296875 25.011719 C 491.710938 25.011719 491.683594 25.632812 491.683594 25.632812 C 491.683594 25.632812 495.996094 25.632812 495.996094 25.632812 C 495.996094 25.632812 496.082031 24.996094 496.4375 25.011719 C 496.4375 25.011719 500.523438 25.011719 500.523438 25.011719 C 501.050781 25.011719 501.417969 25.425781 501.390625 26.058594 C 501.390625 26.058594 501.402344 35.285156 501.402344 35.285156 C 501.402344 35.285156 501.507812 36.816406 500.59375 36.816406 C 499.351562 36.816406 487.210938 36.808594 487.210938 36.808594 C 487.210938 36.808594 486.367188 36.269531 486.320312 35.269531 C 486.320312 35.269531 486.328125 26.082031 486.328125 26.082031 Z M 486.328125 26.082031 "/>
</g>
<g clip-path="url(#clip56)" clip-rule="nonzero">
<path style="fill:none;stroke-width:0.3356;stroke-linecap:butt;stroke-linejoin:miter;stroke:rgb(13.729858%,12.159729%,12.548828%);stroke-opacity:1;stroke-miterlimit:4;" d="M -15.532388 -6.387048 C -15.444113 -7.560288 -14.641612 -8.335338 -13.566262 -8.335338 C -13.566262 -8.335338 -5.324585 -8.335338 -5.324585 -8.335338 C -4.473935 -8.335338 -4.53011 -7.204761 -4.53011 -7.204761 C -4.53011 -7.204761 4.329492 -7.204761 4.329492 -7.204761 C 4.329492 -7.204761 4.506043 -8.36378 5.236318 -8.335338 C 5.236318 -8.335338 13.63047 -8.335338 13.63047 -8.335338 C 14.713845 -8.335338 15.468195 -7.58162 15.41202 -6.429711 C 15.41202 -6.429711 15.436095 10.3654 15.436095 10.3654 C 15.436095 10.3654 15.65277 13.152735 13.77492 13.152735 C 11.222969 13.152735 -13.718737 13.138513 -13.718737 13.138513 C -13.718737 13.138513 -15.452138 12.157258 -15.548438 10.336958 C -15.548438 10.336958 -15.532388 -6.387048 -15.532388 -6.387048 Z M -15.532388 -6.387048 " transform="matrix(0.48676,0,0,0.54936,493.88867,29.59082)"/>
</g>
<path style="fill:none;stroke-width:3;stroke-linecap:butt;stroke-linejoin:miter;stroke:rgb(13.729858%,12.159729%,12.548828%);stroke-opacity:1;stroke-miterlimit:4;" d="M 347.667969 -606.332031 C 347.667969 -606.332031 347.667969 -563.332031 347.667969 -563.332031 " transform="matrix(1,0,0,1,-39,612)"/>
<path style="fill:none;stroke-width:3;stroke-linecap:butt;stroke-linejoin:miter;stroke:rgb(13.729858%,12.159729%,12.548828%);stroke-opacity:1;stroke-miterlimit:4;" d="M 208.667969 -607 C 208.667969 -607 208.667969 -564 208.667969 -564 " transform="matrix(1,0,0,1,-39,612)"/>
<path style="fill:none;stroke-width:3;stroke-linecap:butt;stroke-linejoin:miter;stroke:rgb(13.729858%,12.159729%,12.548828%);stroke-opacity:1;stroke-miterlimit:4;" d="M 237.332031 -605.667969 C 237.332031 -605.667969 237.332031 -562.667969 237.332031 -562.667969 " transform="matrix(1,0,0,1,-39,612)"/>
</g>
</svg>
