<?xml version="1.0" encoding="UTF-8"?>
<svg xmlns="http://www.w3.org/2000/svg" xmlns:xlink="http://www.w3.org/1999/xlink" width="504pt" height="180pt" viewBox="0 0 504 180" version="1.1">
<g id="surface1">
<path style="fill:none;stroke-width:4;stroke-linecap:butt;stroke-linejoin:miter;stroke:rgb(13.729858%,12.159729%,12.548828%);stroke-opacity:1;stroke-miterlimit:4;" d="M 0.0014875 -0.00098125 L 59.017112 45.354488 " transform="matrix(1,0,0,-1,50.3657,75.9873)"/>
<path style="fill:none;stroke-width:4;stroke-linecap:butt;stroke-linejoin:miter;stroke:rgb(13.729858%,12.159729%,12.548828%);stroke-opacity:1;stroke-miterlimit:4;" d="M 0.0005125 -0.0015125 L 26.227075 -117.935106 " transform="matrix(1,0,0,-1,109.3823,30.6313)"/>
<path style="fill:none;stroke-width:4;stroke-linecap:butt;stroke-linejoin:miter;stroke:rgb(13.729858%,12.159729%,12.548828%);stroke-opacity:1;stroke-miterlimit:4;" d="M 0.00148125 -0.0019125 L 88.524919 32.78715 " transform="matrix(1,0,0,-1,135.6118,148.5684)"/>
<path style="fill:none;stroke-width:4;stroke-linecap:butt;stroke-linejoin:miter;stroke:rgb(13.729858%,12.159729%,12.548828%);stroke-opacity:1;stroke-miterlimit:4;" d="M 0.0000125 0.00099375 L -102.730456 13.114275 " transform="matrix(1,0,0,-1,328.5078,129.4424)"/>
<path style="fill:none;stroke-width:4;stroke-linecap:butt;stroke-linejoin:miter;stroke:rgb(13.729858%,12.159729%,12.548828%);stroke-opacity:1;stroke-miterlimit:4;" d="M -0.001925 0.00195 L -103.912081 105.525387 " transform="matrix(1,0,0,-1,328.0488,130.5957)"/>
<path style="fill:none;stroke-width:4;stroke-linecap:butt;stroke-linejoin:miter;stroke:rgb(13.729858%,12.159729%,12.548828%);stroke-opacity:1;stroke-miterlimit:4;" d="M -0.00190625 -0.0019125 L -87.271437 -1.357381 " transform="matrix(1,0,0,-1,416.873,128.6309)"/>
<path style="fill:none;stroke-width:4;stroke-linecap:butt;stroke-linejoin:miter;stroke:rgb(13.729858%,12.159729%,12.548828%);stroke-opacity:1;stroke-miterlimit:4;" d="M -0.0000375 0.00101875 L 15.300744 81.422894 " transform="matrix(1,0,0,-1,329.6016,129.9893)"/>
<path style="fill:none;stroke-width:4;stroke-linecap:butt;stroke-linejoin:miter;stroke:rgb(13.729858%,12.159729%,12.548828%);stroke-opacity:1;stroke-miterlimit:4;" d="M 0.00001875 -0.00005 L 47.539081 -46.996144 " transform="matrix(1,0,0,-1,224.1367,115.7812)"/>
<path style="fill:none;stroke-width:4;stroke-linecap:butt;stroke-linejoin:miter;stroke:rgb(13.729858%,12.159729%,12.548828%);stroke-opacity:1;stroke-miterlimit:4;" d="M -0.00191875 -0.00094375 L -47.540981 137.706087 " transform="matrix(1,0,0,-1,271.6777,162.7764)"/>
<path style="fill:none;stroke-width:4;stroke-linecap:butt;stroke-linejoin:miter;stroke:rgb(13.729858%,12.159729%,12.548828%);stroke-opacity:1;stroke-miterlimit:4;" d="M 0.0014875 -0.00098125 L 254.892112 2.280269 " transform="matrix(1,0,0,-1,50.3657,75.9873)"/>
<path style="fill:none;stroke-width:4;stroke-linecap:butt;stroke-linejoin:miter;stroke:rgb(13.729858%,12.159729%,12.548828%);stroke-opacity:1;stroke-miterlimit:4;" d="M 0.00191875 -0.001925 L 57.376919 -56.83005 " transform="matrix(1,0,0,-1,166.7598,58.9512)"/>
<path style="fill:none;stroke-width:4;stroke-linecap:butt;stroke-linejoin:miter;stroke:rgb(13.729858%,12.159729%,12.548828%);stroke-opacity:1;stroke-miterlimit:4;" d="M 0.00191875 -0.001925 L 138.251919 -13.115206 " transform="matrix(1,0,0,-1,166.7598,58.9512)"/>
<path style="fill:none;stroke-width:4;stroke-linecap:butt;stroke-linejoin:miter;stroke:rgb(13.729858%,12.159729%,12.548828%);stroke-opacity:1;stroke-miterlimit:4;" d="M 0.00093125 0.00194375 L -9.202194 57.31835 " transform="matrix(1,0,0,-1,415.3936,128.3496)"/>
<path style="fill:none;stroke-width:4;stroke-linecap:butt;stroke-linejoin:miter;stroke:rgb(13.729858%,12.159729%,12.548828%);stroke-opacity:1;stroke-miterlimit:4;" d="M 0.00000625 0.00145 L -77.683587 -58.408706 " transform="matrix(1,0,0,-1,406.1914,71.0327)"/>
<path style="fill:none;stroke-width:4;stroke-linecap:butt;stroke-linejoin:miter;stroke:rgb(13.729858%,12.159729%,12.548828%);stroke-opacity:1;stroke-miterlimit:4;" d="M -0.001925 0.00195 L -56.369113 -32.181644 " transform="matrix(1,0,0,-1,328.0488,130.5957)"/>
<path style="fill:none;stroke-width:4;stroke-linecap:butt;stroke-linejoin:miter;stroke:rgb(13.729858%,12.159729%,12.548828%);stroke-opacity:1;stroke-miterlimit:4;" d="M -0.00191875 -0.00094375 L 33.334019 90.709994 " transform="matrix(1,0,0,-1,271.6777,162.7764)"/>
<path style="fill:none;stroke-width:4;stroke-linecap:butt;stroke-linejoin:miter;stroke:rgb(13.729858%,12.159729%,12.548828%);stroke-opacity:1;stroke-miterlimit:4;" d="M 0.00101875 -0.00100625 L 42.075238 25.135712 " transform="matrix(1,0,0,-1,305.0107,72.0654)"/>
<path style=" stroke:none;fill-rule:nonzero;fill:rgb(96.403503%,78.808594%,42.222595%);fill-opacity:1;" d="M 117.183594 30.632812 C 117.183594 26.65625 113.691406 23.429688 109.382812 23.429688 C 105.074219 23.429688 101.582031 26.65625 101.582031 30.632812 C 101.582031 34.605469 105.074219 37.832031 109.382812 37.832031 C 113.691406 37.832031 117.183594 34.605469 117.183594 30.632812 "/>
<path style="fill:none;stroke-width:4;stroke-linecap:butt;stroke-linejoin:miter;stroke:rgb(13.729858%,12.159729%,12.548828%);stroke-opacity:1;stroke-miterlimit:4;" d="M 0.00149375 -0.0015125 C 0.00149375 3.97505 -3.490694 7.201612 -7.799287 7.201612 C -12.107881 7.201612 -15.600069 3.97505 -15.600069 -0.0015125 C -15.600069 -3.974169 -12.107881 -7.200731 -7.799287 -7.200731 C -3.490694 -7.200731 0.00149375 -3.974169 0.00149375 -0.0015125 Z M 0.00149375 -0.0015125 " transform="matrix(1,0,0,-1,117.1821,30.6313)"/>
<path style=" stroke:none;fill-rule:nonzero;fill:rgb(96.403503%,78.808594%,42.222595%);fill-opacity:1;" d="M 279.476562 162.777344 C 279.476562 158.800781 275.984375 155.578125 271.679688 155.578125 C 267.371094 155.578125 263.878906 158.800781 263.878906 162.777344 C 263.878906 166.753906 267.371094 169.976562 271.679688 169.976562 C 275.984375 169.976562 279.476562 166.753906 279.476562 162.777344 "/>
<path style="fill:none;stroke-width:4;stroke-linecap:butt;stroke-linejoin:miter;stroke:rgb(13.729858%,12.159729%,12.548828%);stroke-opacity:1;stroke-miterlimit:4;" d="M -0.0009375 -0.00094375 C -0.0009375 3.975619 -3.493125 7.198275 -7.797812 7.198275 C -12.106406 7.198275 -15.598594 3.975619 -15.598594 -0.00094375 C -15.598594 -3.977506 -12.106406 -7.200163 -7.797812 -7.200163 C -3.493125 -7.200163 -0.0009375 -3.977506 -0.0009375 -0.00094375 Z M -0.0009375 -0.00094375 " transform="matrix(1,0,0,-1,279.4775,162.7764)"/>
<path style=" stroke:none;fill-rule:nonzero;fill:rgb(96.403503%,78.808594%,42.222595%);fill-opacity:1;" d="M 174.558594 58.953125 C 174.558594 54.972656 171.066406 51.75 166.761719 51.75 C 162.453125 51.75 158.960938 54.972656 158.960938 58.953125 C 158.960938 62.925781 162.453125 66.152344 166.761719 66.152344 C 171.066406 66.152344 174.558594 62.925781 174.558594 58.953125 "/>
<path style="fill:none;stroke-width:4;stroke-linecap:butt;stroke-linejoin:miter;stroke:rgb(13.729858%,12.159729%,12.548828%);stroke-opacity:1;stroke-miterlimit:4;" d="M -0.00100625 -0.001925 C -0.00100625 3.978544 -3.493194 7.2012 -7.797881 7.2012 C -12.106475 7.2012 -15.598662 3.978544 -15.598662 -0.001925 C -15.598662 -3.974581 -12.106475 -7.201144 -7.797881 -7.201144 C -3.493194 -7.201144 -0.00100625 -3.974581 -0.00100625 -0.001925 Z M -0.00100625 -0.001925 " transform="matrix(1,0,0,-1,174.5596,58.9512)"/>
<path style=" stroke:none;fill-rule:nonzero;fill:rgb(96.403503%,78.808594%,42.222595%);fill-opacity:1;" d="M 231.9375 25.070312 C 231.9375 21.09375 228.445312 17.871094 224.136719 17.871094 C 219.828125 17.871094 216.335938 21.09375 216.335938 25.070312 C 216.335938 29.046875 219.828125 32.269531 224.136719 32.269531 C 228.445312 32.269531 231.9375 29.046875 231.9375 25.070312 "/>
<path style="fill:none;stroke-width:4;stroke-linecap:butt;stroke-linejoin:miter;stroke:rgb(13.729858%,12.159729%,12.548828%);stroke-opacity:1;stroke-miterlimit:4;" d="M 0.001 0.0004875 C 0.001 3.97705 -3.491187 7.199706 -7.799781 7.199706 C -12.108375 7.199706 -15.600562 3.97705 -15.600562 0.0004875 C -15.600562 -3.976075 -12.108375 -7.198731 -7.799781 -7.198731 C -3.491187 -7.198731 0.001 -3.976075 0.001 0.0004875 Z M 0.001 0.0004875 " transform="matrix(1,0,0,-1,231.9365,25.0708)"/>
<path style=" stroke:none;fill-rule:nonzero;fill:rgb(96.403503%,78.808594%,42.222595%);fill-opacity:1;" d="M 143.410156 148.570312 C 143.410156 144.589844 139.917969 141.367188 135.613281 141.367188 C 131.304688 141.367188 127.8125 144.589844 127.8125 148.570312 C 127.8125 152.542969 131.304688 155.769531 135.613281 155.769531 C 139.917969 155.769531 143.410156 152.542969 143.410156 148.570312 "/>
<path style="fill:none;stroke-width:4;stroke-linecap:butt;stroke-linejoin:miter;stroke:rgb(13.729858%,12.159729%,12.548828%);stroke-opacity:1;stroke-miterlimit:4;" d="M -0.00144375 -0.0019125 C -0.00144375 3.978556 -3.493631 7.201212 -7.798319 7.201212 C -12.106912 7.201212 -15.5991 3.978556 -15.5991 -0.0019125 C -15.5991 -3.974569 -12.106912 -7.201131 -7.798319 -7.201131 C -3.493631 -7.201131 -0.00144375 -3.974569 -0.00144375 -0.0019125 Z M -0.00144375 -0.0019125 " transform="matrix(1,0,0,-1,143.4116,148.5684)"/>
<path style=" stroke:none;fill-rule:nonzero;fill:rgb(96.403503%,78.808594%,42.222595%);fill-opacity:1;" d="M 58.164062 75.988281 C 58.164062 72.011719 54.671875 68.789062 50.367188 68.789062 C 46.058594 68.789062 42.566406 72.011719 42.566406 75.988281 C 42.566406 79.964844 46.058594 83.1875 50.367188 83.1875 C 54.671875 83.1875 58.164062 79.964844 58.164062 75.988281 "/>
<path style="fill:none;stroke-width:4;stroke-linecap:butt;stroke-linejoin:miter;stroke:rgb(13.729858%,12.159729%,12.548828%);stroke-opacity:1;stroke-miterlimit:4;" d="M -0.0014375 -0.00098125 C -0.0014375 3.975581 -3.493625 7.198238 -7.798313 7.198238 C -12.106906 7.198238 -15.599094 3.975581 -15.599094 -0.00098125 C -15.599094 -3.977544 -12.106906 -7.2002 -7.798313 -7.2002 C -3.493625 -7.2002 -0.0014375 -3.977544 -0.0014375 -0.00098125 Z M -0.0014375 -0.00098125 " transform="matrix(1,0,0,-1,58.1655,75.9873)"/>
<path style=" stroke:none;fill-rule:nonzero;fill:rgb(96.403503%,78.808594%,42.222595%);fill-opacity:1;" d="M 353.636719 47.210938 C 353.636719 43.234375 350.144531 40.011719 345.835938 40.011719 C 341.527344 40.011719 338.035156 43.234375 338.035156 47.210938 C 338.035156 51.1875 341.527344 54.410156 345.835938 54.410156 C 350.144531 54.410156 353.636719 51.1875 353.636719 47.210938 "/>
<path style="fill:none;stroke-width:4;stroke-linecap:butt;stroke-linejoin:miter;stroke:rgb(13.729858%,12.159729%,12.548828%);stroke-opacity:1;stroke-miterlimit:4;" d="M 0.00191875 -0.0005375 C 0.00191875 3.976025 -3.490269 7.198681 -7.798863 7.198681 C -12.107456 7.198681 -15.599644 3.976025 -15.599644 -0.0005375 C -15.599644 -3.9771 -12.107456 -7.199756 -7.798863 -7.199756 C -3.490269 -7.199756 0.00191875 -3.9771 0.00191875 -0.0005375 Z M 0.00191875 -0.0005375 " transform="matrix(1,0,0,-1,353.6348,47.2104)"/>
<path style=" stroke:none;fill-rule:nonzero;fill:rgb(96.403503%,78.808594%,42.222595%);fill-opacity:1;" d="M 424.671875 128.632812 C 424.671875 124.65625 421.179688 121.433594 416.875 121.433594 C 412.566406 121.433594 409.074219 124.65625 409.074219 128.632812 C 409.074219 132.609375 412.566406 135.832031 416.875 135.832031 C 421.179688 135.832031 424.671875 132.609375 424.671875 128.632812 "/>
<path style="fill:none;stroke-width:4;stroke-linecap:butt;stroke-linejoin:miter;stroke:rgb(13.729858%,12.159729%,12.548828%);stroke-opacity:1;stroke-miterlimit:4;" d="M -0.001025 -0.0000125 C -0.001025 3.97655 -3.493213 7.199206 -7.7979 7.199206 C -12.106494 7.199206 -15.598681 3.97655 -15.598681 -0.0000125 C -15.598681 -3.976575 -12.106494 -7.199231 -7.7979 -7.199231 C -3.493213 -7.199231 -0.001025 -3.976575 -0.001025 -0.0000125 Z M -0.001025 -0.0000125 " transform="matrix(1,0,0,-1,424.6729,128.6328)"/>
<path style=" stroke:none;fill-rule:nonzero;fill:rgb(96.403503%,78.808594%,42.222595%);fill-opacity:1;" d="M 231.9375 115.78125 C 231.9375 111.804688 228.445312 108.582031 224.136719 108.582031 C 219.828125 108.582031 216.335938 111.804688 216.335938 115.78125 C 216.335938 119.757812 219.828125 122.980469 224.136719 122.980469 C 228.445312 122.980469 231.9375 119.757812 231.9375 115.78125 "/>
<path style="fill:none;stroke-width:4;stroke-linecap:butt;stroke-linejoin:miter;stroke:rgb(13.729858%,12.159729%,12.548828%);stroke-opacity:1;stroke-miterlimit:4;" d="M 0.0015 0.00095 C 0.0015 3.977512 -3.490688 7.200169 -7.799281 7.200169 C -12.107875 7.200169 -15.600063 3.977512 -15.600063 0.00095 C -15.600063 -3.975613 -12.107875 -7.198269 -7.799281 -7.198269 C -3.490688 -7.198269 0.0015 -3.975613 0.0015 0.00095 Z M 0.0015 0.00095 " transform="matrix(1,0,0,-1,231.936,115.7822)"/>
<path style=" stroke:none;fill-rule:nonzero;fill:rgb(96.403503%,78.808594%,42.222595%);fill-opacity:1;" d="M 413.988281 71.03125 C 413.988281 67.054688 410.5 63.832031 406.191406 63.832031 C 401.882812 63.832031 398.390625 67.054688 398.390625 71.03125 C 398.390625 75.007812 401.882812 78.234375 406.191406 78.234375 C 410.5 78.234375 413.988281 75.007812 413.988281 71.03125 "/>
<path style="fill:none;stroke-width:4;stroke-linecap:butt;stroke-linejoin:miter;stroke:rgb(13.729858%,12.159729%,12.548828%);stroke-opacity:1;stroke-miterlimit:4;" d="M -0.00191875 0.00145 C -0.00191875 3.978012 -3.4902 7.200669 -7.798794 7.200669 C -12.107387 7.200669 -15.599575 3.978012 -15.599575 0.00145 C -15.599575 -3.975113 -12.107387 -7.201675 -7.798794 -7.201675 C -3.4902 -7.201675 -0.00191875 -3.975113 -0.00191875 0.00145 Z M -0.00191875 0.00145 " transform="matrix(1,0,0,-1,413.9902,71.0327)"/>
<path style=" stroke:none;fill-rule:nonzero;fill:rgb(96.403503%,78.808594%,42.222595%);fill-opacity:1;" d="M 335.847656 130.59375 C 335.847656 126.617188 332.355469 123.398438 328.050781 123.398438 C 323.742188 123.398438 320.25 126.617188 320.25 130.59375 C 320.25 134.574219 323.742188 137.796875 328.050781 137.796875 C 332.355469 137.796875 335.847656 134.574219 335.847656 130.59375 "/>
<path style="fill:none;stroke-width:4;stroke-linecap:butt;stroke-linejoin:miter;stroke:rgb(13.729858%,12.159729%,12.548828%);stroke-opacity:1;stroke-miterlimit:4;" d="M -0.00094375 0.00195 C -0.00094375 3.978512 -3.493131 7.197262 -7.797819 7.197262 C -12.106413 7.197262 -15.5986 3.978512 -15.5986 0.00195 C -15.5986 -3.978519 -12.106413 -7.201175 -7.797819 -7.201175 C -3.493131 -7.201175 -0.00094375 -3.978519 -0.00094375 0.00195 Z M -0.00094375 0.00195 " transform="matrix(1,0,0,-1,335.8486,130.5957)"/>
<path style=" stroke:none;fill-rule:nonzero;fill:rgb(96.403503%,78.808594%,42.222595%);fill-opacity:1;" d="M 313.058594 73.707031 C 313.058594 69.730469 309.566406 66.503906 305.261719 66.503906 C 300.953125 66.503906 297.460938 69.730469 297.460938 73.707031 C 297.460938 77.683594 300.953125 80.90625 305.261719 80.90625 C 309.566406 80.90625 313.058594 77.683594 313.058594 73.707031 "/>
<path style="fill:none;stroke-width:4;stroke-linecap:butt;stroke-linejoin:miter;stroke:rgb(13.729858%,12.159729%,12.548828%);stroke-opacity:1;stroke-miterlimit:4;" d="M -0.00100625 -0.00143125 C -0.00100625 3.975131 -3.493194 7.201694 -7.797881 7.201694 C -12.106475 7.201694 -15.598663 3.975131 -15.598663 -0.00143125 C -15.598663 -3.977994 -12.106475 -7.20065 -7.797881 -7.20065 C -3.493194 -7.20065 -0.00100625 -3.977994 -0.00100625 -0.00143125 Z M -0.00100625 -0.00143125 " transform="matrix(1,0,0,-1,313.0596,73.7056)"/>
</g>
</svg>
