<?xml version="1.0" encoding="UTF-8"?>
<svg xmlns="http://www.w3.org/2000/svg" xmlns:xlink="http://www.w3.org/1999/xlink" width="244.8pt" height="234pt" viewBox="0 0 244.8 234" version="1.1">
<defs>
<clipPath id="clip1">
  <path d="M 126 0 L 244.800781 0 L 244.800781 105 L 126 105 Z M 126 0 "/>
</clipPath>
<clipPath id="clip2">
  <path d="M 130 192 L 244.800781 192 L 244.800781 216 L 130 216 Z M 130 192 "/>
</clipPath>
<clipPath id="clip3">
  <path d="M 220 138 L 244.800781 138 L 244.800781 216 L 220 216 Z M 220 138 "/>
</clipPath>
<clipPath id="clip4">
  <path d="M 214 34 L 244.800781 34 L 244.800781 70 L 214 70 Z M 214 34 "/>
</clipPath>
<clipPath id="clip5">
  <path d="M 214 133 L 244.800781 133 L 244.800781 168 L 214 168 Z M 214 133 "/>
</clipPath>
<clipPath id="clip6">
  <path d="M 215 186 L 244.800781 186 L 244.800781 222 L 215 222 Z M 215 186 "/>
</clipPath>
</defs>
<g id="surface1">
<g clip-path="url(#clip1)" clip-rule="nonzero">
<path style="fill:none;stroke-width:2;stroke-linecap:butt;stroke-linejoin:miter;stroke:rgb(13.729858%,12.159729%,12.548828%);stroke-opacity:1;stroke-miterlimit:4;" d="M -0.0009375 -0.001925 L -24.180625 41.880888 L -0.0009375 83.759794 L 48.358438 83.759794 L 72.534219 41.880888 L 48.358438 -0.001925 Z M -0.0009375 -0.001925 " transform="matrix(1,0,0,-1,161.9775,93.0762)"/>
</g>
<path style="fill:none;stroke-width:2;stroke-linecap:butt;stroke-linejoin:miter;stroke:rgb(13.729858%,12.159729%,12.548828%);stroke-opacity:1;stroke-miterlimit:4;" d="M -0.001925 0.0009875 L 96.716825 0.0009875 " transform="matrix(1,0,0,-1,137.7988,51.1963)"/>
<path style="fill:none;stroke-width:2;stroke-linecap:butt;stroke-linejoin:miter;stroke:rgb(13.729858%,12.159729%,12.548828%);stroke-opacity:1;stroke-miterlimit:4;" d="M -0.00145 -0.00145 L 45.096206 -0.00145 " transform="matrix(1,0,0,-1,60.4702,30.8423)"/>
<path style="fill:none;stroke-width:2;stroke-linecap:butt;stroke-linejoin:miter;stroke:rgb(13.729858%,12.159729%,12.548828%);stroke-opacity:1;stroke-miterlimit:4;" d="M 0.0019125 -0.00145 L 0.193319 -54.888169 " transform="matrix(1,0,0,-1,105.5684,30.8423)"/>
<path style="fill:none;stroke-width:2;stroke-linecap:butt;stroke-linejoin:miter;stroke:rgb(13.729858%,12.159729%,12.548828%);stroke-opacity:1;stroke-miterlimit:4;" d="M -0.00048125 -0.00146875 L -45.781731 -0.0131875 " transform="matrix(1,0,0,-1,105.7622,85.729)"/>
<path style="fill:none;stroke-width:2;stroke-linecap:butt;stroke-linejoin:miter;stroke:rgb(13.729858%,12.159729%,12.548828%);stroke-opacity:1;stroke-miterlimit:4;" d="M 0.00046875 0.0019125 L -44.749531 53.759725 " transform="matrix(1,0,0,-1,59.98,85.7441)"/>
<path style="fill:none;stroke-width:2;stroke-linecap:butt;stroke-linejoin:miter;stroke:rgb(13.729858%,12.159729%,12.548828%);stroke-opacity:1;stroke-miterlimit:4;" d="M 0.00146875 -0.000475 L -0.303219 -53.301256 " transform="matrix(1,0,0,-1,15.229,31.9839)"/>
<path style="fill:none;stroke-width:2;stroke-linecap:butt;stroke-linejoin:miter;stroke:rgb(13.729858%,12.159729%,12.548828%);stroke-opacity:1;stroke-miterlimit:4;" d="M -0.00141875 0.00044375 L 45.54155 54.44185 " transform="matrix(1,0,0,-1,14.9272,85.2856)"/>
<path style="fill:none;stroke-width:2;stroke-linecap:butt;stroke-linejoin:miter;stroke:rgb(13.729858%,12.159729%,12.548828%);stroke-opacity:1;stroke-miterlimit:4;" d="M -0.00145 -0.00145 L 45.291519 -54.888169 " transform="matrix(1,0,0,-1,60.4702,30.8423)"/>
<path style="fill:none;stroke-width:2;stroke-linecap:butt;stroke-linejoin:miter;stroke:rgb(13.729858%,12.159729%,12.548828%);stroke-opacity:1;stroke-miterlimit:4;" d="M -0.001925 -0.00190625 L -0.302706 -53.302687 " transform="matrix(1,0,0,-1,142.4863,150.627)"/>
<g clip-path="url(#clip2)" clip-rule="nonzero">
<path style="fill:none;stroke-width:2;stroke-linecap:butt;stroke-linejoin:miter;stroke:rgb(13.729858%,12.159729%,12.548828%);stroke-opacity:1;stroke-miterlimit:4;" d="M -0.00000625 0.0000125 L 90.835931 -0.441394 " transform="matrix(1,0,0,-1,142.1836,203.9297)"/>
</g>
<g clip-path="url(#clip3)" clip-rule="nonzero">
<path style="fill:none;stroke-width:2;stroke-linecap:butt;stroke-linejoin:miter;stroke:rgb(13.729858%,12.159729%,12.548828%);stroke-opacity:1;stroke-miterlimit:4;" d="M 0.00003125 0.00190625 L -0.804656 54.849562 " transform="matrix(1,0,0,-1,233.0195,204.373)"/>
</g>
<path style="fill:none;stroke-width:2;stroke-linecap:butt;stroke-linejoin:miter;stroke:rgb(13.729858%,12.159729%,12.548828%);stroke-opacity:1;stroke-miterlimit:4;" d="M 0.00195 0.0009625 L -44.298831 -53.842787 " transform="matrix(1,0,0,-1,232.2168,149.5244)"/>
<path style="fill:none;stroke-width:2;stroke-linecap:butt;stroke-linejoin:miter;stroke:rgb(13.729858%,12.159729%,12.548828%);stroke-opacity:1;stroke-miterlimit:4;" d="M -0.00093125 0.0000125 L -0.301713 52.281262 " transform="matrix(1,0,0,-1,187.9189,203.3672)"/>
<path style="fill:none;stroke-width:2;stroke-linecap:butt;stroke-linejoin:miter;stroke:rgb(13.729858%,12.159729%,12.548828%);stroke-opacity:1;stroke-miterlimit:4;" d="M -0.00093125 0.0000125 L -45.434525 52.738294 " transform="matrix(1,0,0,-1,187.9189,203.3672)"/>
<path style="fill:none;stroke-width:2;stroke-linecap:butt;stroke-linejoin:miter;stroke:rgb(13.729858%,12.159729%,12.548828%);stroke-opacity:1;stroke-miterlimit:4;" d="M 0.0019375 -0.00101875 L -24.17775 41.881794 L 0.0019375 83.7607 L 48.357406 83.7607 L 72.537094 41.881794 L 48.357406 -0.00101875 Z M 0.0019375 -0.00101875 " transform="matrix(1,0,0,-1,32.959,224.0732)"/>
<path style="fill:none;stroke-width:2;stroke-linecap:butt;stroke-linejoin:miter;stroke:rgb(13.729858%,12.159729%,12.548828%);stroke-opacity:1;stroke-miterlimit:4;" d="M 0 0 L 69.464844 39.683594 " transform="matrix(1,0,0,-1,34,223)"/>
<path style=" stroke:none;fill-rule:nonzero;fill:rgb(96.403503%,78.808594%,42.222595%);fill-opacity:1;" d="M 109.707031 183.316406 C 109.707031 179.910156 106.910156 177.152344 103.46875 177.152344 C 100.019531 177.152344 97.226562 179.910156 97.226562 183.316406 C 97.226562 186.71875 100.019531 189.480469 103.46875 189.480469 C 106.910156 189.480469 109.707031 186.71875 109.707031 183.316406 "/>
<path style="fill:none;stroke-width:2;stroke-linecap:butt;stroke-linejoin:miter;stroke:rgb(13.729858%,12.159729%,12.548828%);stroke-opacity:1;stroke-miterlimit:4;" d="M 0.00193125 -0.00100625 C 0.00193125 3.405244 -2.794944 6.163056 -6.23635 6.163056 C -9.685569 6.163056 -12.478538 3.405244 -12.478538 -0.00100625 C -12.478538 -3.40335 -9.685569 -6.165069 -6.23635 -6.165069 C -2.794944 -6.165069 0.00193125 -3.40335 0.00193125 -0.00100625 Z M 0.00193125 -0.00100625 " transform="matrix(1,0,0,-1,109.7051,183.3154)"/>
<path style=" stroke:none;fill-rule:nonzero;fill:rgb(96.403503%,78.808594%,42.222595%);fill-opacity:1;" d="M 40.15625 224.8125 C 40.15625 221.40625 37.363281 218.648438 33.921875 218.648438 C 30.472656 218.648438 27.679688 221.40625 27.679688 224.8125 C 27.679688 228.214844 30.472656 230.972656 33.921875 230.972656 C 37.363281 230.972656 40.15625 228.214844 40.15625 224.8125 "/>
<path style="fill:none;stroke-width:2;stroke-linecap:butt;stroke-linejoin:miter;stroke:rgb(13.729858%,12.159729%,12.548828%);stroke-opacity:1;stroke-miterlimit:4;" d="M -0.00195 -0.001 C -0.00195 3.40525 -2.794919 6.163062 -6.236325 6.163062 C -9.685544 6.163062 -12.478513 3.40525 -12.478513 -0.001 C -12.478513 -3.403344 -9.685544 -6.161156 -6.236325 -6.161156 C -2.794919 -6.161156 -0.00195 -3.403344 -0.00195 -0.001 Z M -0.00195 -0.001 " transform="matrix(1,0,0,-1,40.1582,224.8115)"/>
<path style=" stroke:none;fill-rule:nonzero;fill:rgb(96.403503%,78.808594%,42.222595%);fill-opacity:1;" d="M 88.054688 141.664062 C 88.054688 138.261719 85.261719 135.5 81.816406 135.5 C 78.367188 135.5 75.574219 138.261719 75.574219 141.664062 C 75.574219 145.066406 78.367188 147.828125 81.816406 147.828125 C 85.261719 147.828125 88.054688 145.066406 88.054688 141.664062 "/>
<path style="fill:none;stroke-width:2;stroke-linecap:butt;stroke-linejoin:miter;stroke:rgb(13.729858%,12.159729%,12.548828%);stroke-opacity:1;stroke-miterlimit:4;" d="M 0.0009875 0.0009375 C 0.0009875 3.403281 -2.791981 6.165 -6.237294 6.165 C -9.686512 6.165 -12.479481 3.403281 -12.479481 0.0009375 C -12.479481 -3.401406 -9.686512 -6.163125 -6.237294 -6.163125 C -2.791981 -6.163125 0.0009875 -3.401406 0.0009875 0.0009375 Z M 0.0009875 0.0009375 " transform="matrix(1,0,0,-1,88.0537,141.665)"/>
<path style=" stroke:none;fill-rule:nonzero;fill:rgb(96.403503%,78.808594%,42.222595%);fill-opacity:1;" d="M 14.691406 182.371094 C 14.691406 178.96875 11.898438 176.207031 8.453125 176.207031 C 5.007812 176.207031 2.210938 178.96875 2.210938 182.371094 C 2.210938 185.773438 5.007812 188.535156 8.453125 188.535156 C 11.898438 188.535156 14.691406 185.773438 14.691406 182.371094 "/>
<path style="fill:none;stroke-width:2;stroke-linecap:butt;stroke-linejoin:miter;stroke:rgb(13.729858%,12.159729%,12.548828%);stroke-opacity:1;stroke-miterlimit:4;" d="M -0.00099375 0.00000625 C -0.00099375 3.40235 -2.793963 6.164069 -6.239275 6.164069 C -9.684588 6.164069 -12.481463 3.40235 -12.481463 0.00000625 C -12.481463 -3.402338 -9.684588 -6.164056 -6.239275 -6.164056 C -2.793963 -6.164056 -0.00099375 -3.402338 -0.00099375 0.00000625 Z M -0.00099375 0.00000625 " transform="matrix(1,0,0,-1,14.6924,182.3711)"/>
<path style=" stroke:none;fill-rule:nonzero;fill:rgb(96.403503%,78.808594%,42.222595%);fill-opacity:1;" d="M 40.09375 141.46875 C 40.09375 138.066406 37.300781 135.308594 33.855469 135.308594 C 30.410156 135.308594 27.617188 138.066406 27.617188 141.46875 C 27.617188 144.871094 30.410156 147.632812 33.855469 147.632812 C 37.300781 147.632812 40.09375 144.871094 40.09375 141.46875 "/>
<path style="fill:none;stroke-width:2;stroke-linecap:butt;stroke-linejoin:miter;stroke:rgb(13.729858%,12.159729%,12.548828%);stroke-opacity:1;stroke-miterlimit:4;" d="M -0.00095 0.00195 C -0.00095 3.404294 -2.793919 6.162106 -6.239231 6.162106 C -9.684544 6.162106 -12.477513 3.404294 -12.477513 0.00195 C -12.477513 -3.400394 -9.684544 -6.162112 -6.239231 -6.162112 C -2.793919 -6.162112 -0.00095 -3.400394 -0.00095 0.00195 Z M -0.00095 0.00195 " transform="matrix(1,0,0,-1,40.0947,141.4707)"/>
<path style=" stroke:none;fill-rule:nonzero;fill:rgb(96.403503%,78.808594%,42.222595%);fill-opacity:1;" d="M 87.691406 223.113281 C 87.691406 219.710938 84.898438 216.949219 81.453125 216.949219 C 78.003906 216.949219 75.210938 219.710938 75.210938 223.113281 C 75.210938 226.515625 78.003906 229.277344 81.453125 229.277344 C 84.898438 229.277344 87.691406 226.515625 87.691406 223.113281 "/>
<path style="fill:none;stroke-width:2;stroke-linecap:butt;stroke-linejoin:miter;stroke:rgb(13.729858%,12.159729%,12.548828%);stroke-opacity:1;stroke-miterlimit:4;" d="M 0.00000625 0.00001875 C 0.00000625 3.402363 -2.792963 6.164081 -6.238275 6.164081 C -9.687494 6.164081 -12.480463 3.402363 -12.480463 0.00001875 C -12.480463 -3.402325 -9.687494 -6.164044 -6.238275 -6.164044 C -2.792963 -6.164044 0.00000625 -3.402325 0.00000625 0.00001875 Z M 0.00000625 0.00001875 " transform="matrix(1,0,0,-1,87.6914,223.1133)"/>
<path style=" stroke:none;fill-rule:nonzero;fill:rgb(96.403503%,78.808594%,42.222595%);fill-opacity:1;" d="M 21.46875 31.984375 C 21.46875 28.578125 18.675781 25.820312 15.230469 25.820312 C 11.78125 25.820312 8.988281 28.578125 8.988281 31.984375 C 8.988281 35.386719 11.78125 38.148438 15.230469 38.148438 C 18.675781 38.148438 21.46875 35.386719 21.46875 31.984375 "/>
<path style="fill:none;stroke-width:2;stroke-linecap:butt;stroke-linejoin:miter;stroke:rgb(13.729858%,12.159729%,12.548828%);stroke-opacity:1;stroke-miterlimit:4;" d="M 0.00095 0.000525 C 0.00095 3.406775 -2.792019 6.164588 -6.237331 6.164588 C -9.68655 6.164588 -12.479519 3.406775 -12.479519 0.000525 C -12.479519 -3.401819 -9.68655 -6.163537 -6.237331 -6.163537 C -2.792019 -6.163537 0.00095 -3.401819 0.00095 0.000525 Z M 0.00095 0.000525 " transform="matrix(1,0,0,-1,21.4678,31.9849)"/>
<path style=" stroke:none;fill-rule:nonzero;fill:rgb(96.403503%,78.808594%,42.222595%);fill-opacity:1;" d="M 238.722656 52.320312 C 238.722656 48.914062 235.929688 46.15625 232.484375 46.15625 C 229.039062 46.15625 226.242188 48.914062 226.242188 52.320312 C 226.242188 55.71875 229.039062 58.480469 232.484375 58.480469 C 235.929688 58.480469 238.722656 55.71875 238.722656 52.320312 "/>
<g clip-path="url(#clip4)" clip-rule="nonzero">
<path style="fill:none;stroke-width:2;stroke-linecap:butt;stroke-linejoin:miter;stroke:rgb(13.729858%,12.159729%,12.548828%);stroke-opacity:1;stroke-miterlimit:4;" d="M -0.00094375 -0.0019125 C -0.00094375 3.404337 -2.793912 6.16215 -6.239225 6.16215 C -9.684537 6.16215 -12.481412 3.404337 -12.481412 -0.0019125 C -12.481412 -3.40035 -9.684537 -6.162069 -6.239225 -6.162069 C -2.793912 -6.162069 -0.00094375 -3.40035 -0.00094375 -0.0019125 Z M -0.00094375 -0.0019125 " transform="matrix(1,0,0,-1,238.7236,52.3184)"/>
</g>
<path style=" stroke:none;fill-rule:nonzero;fill:rgb(96.403503%,78.808594%,42.222595%);fill-opacity:1;" d="M 169.175781 93.816406 C 169.175781 90.410156 166.382812 87.652344 162.9375 87.652344 C 159.492188 87.652344 156.695312 90.410156 156.695312 93.816406 C 156.695312 97.214844 159.492188 99.976562 162.9375 99.976562 C 166.382812 99.976562 169.175781 97.214844 169.175781 93.816406 "/>
<path style="fill:none;stroke-width:2;stroke-linecap:butt;stroke-linejoin:miter;stroke:rgb(13.729858%,12.159729%,12.548828%);stroke-opacity:1;stroke-miterlimit:4;" d="M -0.00101875 -0.00190625 C -0.00101875 3.404344 -2.793987 6.162156 -6.2393 6.162156 C -9.684612 6.162156 -12.481487 3.404344 -12.481487 -0.00190625 C -12.481487 -3.400344 -9.684612 -6.162062 -6.2393 -6.162062 C -2.793987 -6.162062 -0.00101875 -3.400344 -0.00101875 -0.00190625 Z M -0.00101875 -0.00190625 " transform="matrix(1,0,0,-1,169.1768,93.8145)"/>
<path style=" stroke:none;fill-rule:nonzero;fill:rgb(96.403503%,78.808594%,42.222595%);fill-opacity:1;" d="M 21.164062 85.285156 C 21.164062 81.882812 18.371094 79.121094 14.929688 79.121094 C 11.480469 79.121094 8.6875 81.882812 8.6875 85.285156 C 8.6875 88.6875 11.480469 91.449219 14.929688 91.449219 C 18.371094 91.449219 21.164062 88.6875 21.164062 85.285156 "/>
<path style="fill:none;stroke-width:2;stroke-linecap:butt;stroke-linejoin:miter;stroke:rgb(13.729858%,12.159729%,12.548828%);stroke-opacity:1;stroke-miterlimit:4;" d="M -0.0019375 0.00144375 C -0.0019375 3.403788 -2.794906 6.165506 -6.236313 6.165506 C -9.685531 6.165506 -12.4785 3.403788 -12.4785 0.00144375 C -12.4785 -3.4009 -9.685531 -6.162619 -6.236313 -6.162619 C -2.794906 -6.162619 -0.0019375 -3.4009 -0.0019375 0.00144375 Z M -0.0019375 0.00144375 " transform="matrix(1,0,0,-1,21.166,85.2866)"/>
<path style=" stroke:none;fill-rule:nonzero;fill:rgb(96.403503%,78.808594%,42.222595%);fill-opacity:1;" d="M 217.074219 10.667969 C 217.074219 7.265625 214.28125 4.503906 210.835938 4.503906 C 207.386719 4.503906 204.59375 7.265625 204.59375 10.667969 C 204.59375 14.070312 207.386719 16.832031 210.835938 16.832031 C 214.28125 16.832031 217.074219 14.070312 217.074219 10.667969 "/>
<path style="fill:none;stroke-width:2;stroke-linecap:butt;stroke-linejoin:miter;stroke:rgb(13.729858%,12.159729%,12.548828%);stroke-opacity:1;stroke-miterlimit:4;" d="M 0.00191875 0.00053125 C 0.00191875 3.402875 -2.79105 6.164594 -6.236363 6.164594 C -9.685581 6.164594 -12.47855 3.402875 -12.47855 0.00053125 C -12.47855 -3.401813 -9.685581 -6.163531 -6.236363 -6.163531 C -2.79105 -6.163531 0.00191875 -3.401813 0.00191875 0.00053125 Z M 0.00191875 0.00053125 " transform="matrix(1,0,0,-1,217.0723,10.6685)"/>
<path style=" stroke:none;fill-rule:nonzero;fill:rgb(96.403503%,78.808594%,42.222595%);fill-opacity:1;" d="M 111.199219 31.871094 C 111.199219 28.464844 108.40625 25.707031 104.960938 25.707031 C 101.511719 25.707031 98.71875 28.464844 98.71875 31.871094 C 98.71875 35.273438 101.511719 38.035156 104.960938 38.035156 C 108.40625 38.035156 111.199219 35.273438 111.199219 31.871094 "/>
<path style="fill:none;stroke-width:2;stroke-linecap:butt;stroke-linejoin:miter;stroke:rgb(13.729858%,12.159729%,12.548828%);stroke-opacity:1;stroke-miterlimit:4;" d="M 0.00191875 -0.00049375 C 0.00191875 3.405756 -2.79105 6.163569 -6.236362 6.163569 C -9.685581 6.163569 -12.47855 3.405756 -12.47855 -0.00049375 C -12.47855 -3.402838 -9.685581 -6.164556 -6.236362 -6.164556 C -2.79105 -6.164556 0.00191875 -3.402838 0.00191875 -0.00049375 Z M 0.00191875 -0.00049375 " transform="matrix(1,0,0,-1,111.1973,31.8706)"/>
<path style=" stroke:none;fill-rule:nonzero;fill:rgb(96.403503%,78.808594%,42.222595%);fill-opacity:1;" d="M 66.902344 84.722656 C 66.902344 81.320312 64.109375 78.558594 60.664062 78.558594 C 57.214844 78.558594 54.421875 81.320312 54.421875 84.722656 C 54.421875 88.125 57.214844 90.886719 60.664062 90.886719 C 64.109375 90.886719 66.902344 88.125 66.902344 84.722656 "/>
<path style="fill:none;stroke-width:2;stroke-linecap:butt;stroke-linejoin:miter;stroke:rgb(13.729858%,12.159729%,12.548828%);stroke-opacity:1;stroke-miterlimit:4;" d="M 0.00004375 0.00144375 C 0.00004375 3.403788 -2.792925 6.165506 -6.238237 6.165506 C -9.687456 6.165506 -12.480425 3.403788 -12.480425 0.00144375 C -12.480425 -3.4009 -9.687456 -6.162619 -6.238237 -6.162619 C -2.792925 -6.162619 0.00004375 -3.4009 0.00004375 0.00144375 Z M 0.00004375 0.00144375 " transform="matrix(1,0,0,-1,66.9023,84.7241)"/>
<path style=" stroke:none;fill-rule:nonzero;fill:rgb(96.403503%,78.808594%,42.222595%);fill-opacity:1;" d="M 143.710938 51.375 C 143.710938 47.96875 140.917969 45.210938 137.472656 45.210938 C 134.023438 45.210938 131.230469 47.96875 131.230469 51.375 C 131.230469 54.777344 134.023438 57.539062 137.472656 57.539062 C 140.917969 57.539062 143.710938 54.777344 143.710938 51.375 "/>
<path style="fill:none;stroke-width:2;stroke-linecap:butt;stroke-linejoin:miter;stroke:rgb(13.729858%,12.159729%,12.548828%);stroke-opacity:1;stroke-miterlimit:4;" d="M 0.0000375 -0.0005 C 0.0000375 3.40575 -2.792931 6.163563 -6.238244 6.163563 C -9.687462 6.163563 -12.480431 3.40575 -12.480431 -0.0005 C -12.480431 -3.402844 -9.687462 -6.164562 -6.238244 -6.164562 C -2.792931 -6.164562 0.0000375 -3.402844 0.0000375 -0.0005 Z M 0.0000375 -0.0005 " transform="matrix(1,0,0,-1,143.7109,51.3745)"/>
<path style=" stroke:none;fill-rule:nonzero;fill:rgb(96.403503%,78.808594%,42.222595%);fill-opacity:1;" d="M 66.710938 30.84375 C 66.710938 27.4375 63.914062 24.679688 60.472656 24.679688 C 57.023438 24.679688 54.230469 27.4375 54.230469 30.84375 C 54.230469 34.242188 57.023438 37.003906 60.472656 37.003906 C 63.914062 37.003906 66.710938 34.242188 66.710938 30.84375 "/>
<path style="fill:none;stroke-width:2;stroke-linecap:butt;stroke-linejoin:miter;stroke:rgb(13.729858%,12.159729%,12.548828%);stroke-opacity:1;stroke-miterlimit:4;" d="M 0.0019375 -0.00195 C 0.0019375 3.4043 -2.794938 6.162112 -6.236344 6.162112 C -9.685563 6.162112 -12.478531 3.4043 -12.478531 -0.00195 C -12.478531 -3.400388 -9.685563 -6.162106 -6.236344 -6.162106 C -2.794938 -6.162106 0.0019375 -3.400388 0.0019375 -0.00195 Z M 0.0019375 -0.00195 " transform="matrix(1,0,0,-1,66.709,30.8418)"/>
<path style=" stroke:none;fill-rule:nonzero;fill:rgb(96.403503%,78.808594%,42.222595%);fill-opacity:1;" d="M 169.113281 10.472656 C 169.113281 7.070312 166.320312 4.308594 162.875 4.308594 C 159.425781 4.308594 156.632812 7.070312 156.632812 10.472656 C 156.632812 13.875 159.425781 16.636719 162.875 16.636719 C 166.320312 16.636719 169.113281 13.875 169.113281 10.472656 "/>
<path style="fill:none;stroke-width:2;stroke-linecap:butt;stroke-linejoin:miter;stroke:rgb(13.729858%,12.159729%,12.548828%);stroke-opacity:1;stroke-miterlimit:4;" d="M -0.00001875 0.00144375 C -0.00001875 3.403787 -2.792987 6.165506 -6.2383 6.165506 C -9.687519 6.165506 -12.480487 3.403787 -12.480487 0.00144375 C -12.480487 -3.4009 -9.687519 -6.162619 -6.2383 -6.162619 C -2.792987 -6.162619 -0.00001875 -3.4009 -0.00001875 0.00144375 Z M -0.00001875 0.00144375 " transform="matrix(1,0,0,-1,169.1133,10.4741)"/>
<path style=" stroke:none;fill-rule:nonzero;fill:rgb(96.403503%,78.808594%,42.222595%);fill-opacity:1;" d="M 216.710938 92.117188 C 216.710938 88.710938 213.917969 85.953125 210.472656 85.953125 C 207.023438 85.953125 204.230469 88.710938 204.230469 92.117188 C 204.230469 95.519531 207.023438 98.28125 210.472656 98.28125 C 213.917969 98.28125 216.710938 95.519531 216.710938 92.117188 "/>
<path style="fill:none;stroke-width:2;stroke-linecap:butt;stroke-linejoin:miter;stroke:rgb(13.729858%,12.159729%,12.548828%);stroke-opacity:1;stroke-miterlimit:4;" d="M 0.0009375 -0.0004875 C 0.0009375 3.405762 -2.792031 6.163575 -6.237344 6.163575 C -9.686562 6.163575 -12.479531 3.405762 -12.479531 -0.0004875 C -12.479531 -3.402831 -9.686562 -6.16455 -6.237344 -6.16455 C -2.792031 -6.16455 0.0009375 -3.402831 0.0009375 -0.0004875 Z M 0.0009375 -0.0004875 " transform="matrix(1,0,0,-1,216.71,92.1167)"/>
<path style=" stroke:none;fill-rule:nonzero;fill:rgb(96.403503%,78.808594%,42.222595%);fill-opacity:1;" d="M 112 85.730469 C 112 82.324219 109.207031 79.566406 105.761719 79.566406 C 102.316406 79.566406 99.523438 82.324219 99.523438 85.730469 C 99.523438 89.132812 102.316406 91.894531 105.761719 91.894531 C 109.207031 91.894531 112 89.132812 112 85.730469 "/>
<path style="fill:none;stroke-width:2;stroke-linecap:butt;stroke-linejoin:miter;stroke:rgb(13.729858%,12.159729%,12.548828%);stroke-opacity:1;stroke-miterlimit:4;" d="M -0.0015 -0.00096875 C -0.0015 3.405281 -2.794469 6.163094 -6.239781 6.163094 C -9.685094 6.163094 -12.478063 3.405281 -12.478063 -0.00096875 C -12.478063 -3.403312 -9.685094 -6.165031 -6.239781 -6.165031 C -2.794469 -6.165031 -0.0015 -3.403312 -0.0015 -0.00096875 Z M -0.0015 -0.00096875 " transform="matrix(1,0,0,-1,112.0015,85.7295)"/>
<path style=" stroke:none;fill-rule:nonzero;fill:rgb(96.403503%,78.808594%,42.222595%);fill-opacity:1;" d="M 148.722656 150.628906 C 148.722656 147.222656 145.929688 144.464844 142.488281 144.464844 C 139.039062 144.464844 136.246094 147.222656 136.246094 150.628906 C 136.246094 154.03125 139.039062 156.789062 142.488281 156.789062 C 145.929688 156.789062 148.722656 154.03125 148.722656 150.628906 "/>
<path style="fill:none;stroke-width:2;stroke-linecap:butt;stroke-linejoin:miter;stroke:rgb(13.729858%,12.159729%,12.548828%);stroke-opacity:1;stroke-miterlimit:4;" d="M -0.00194375 -0.00000625 C -0.00194375 3.406244 -2.794912 6.164056 -6.236319 6.164056 C -9.685537 6.164056 -12.478506 3.406244 -12.478506 -0.00000625 C -12.478506 -3.40235 -9.685537 -6.160163 -6.236319 -6.160163 C -2.794912 -6.160163 -0.00194375 -3.40235 -0.00194375 -0.00000625 Z M -0.00194375 -0.00000625 " transform="matrix(1,0,0,-1,148.7246,150.6289)"/>
<path style=" stroke:none;fill-rule:nonzero;fill:rgb(96.403503%,78.808594%,42.222595%);fill-opacity:1;" d="M 148.421875 203.929688 C 148.421875 200.527344 145.628906 197.765625 142.183594 197.765625 C 138.738281 197.765625 135.945312 200.527344 135.945312 203.929688 C 135.945312 207.332031 138.738281 210.09375 142.183594 210.09375 C 145.628906 210.09375 148.421875 207.332031 148.421875 203.929688 "/>
<path style="fill:none;stroke-width:2;stroke-linecap:butt;stroke-linejoin:miter;stroke:rgb(13.729858%,12.159729%,12.548828%);stroke-opacity:1;stroke-miterlimit:4;" d="M -0.001025 0.0010125 C -0.001025 3.403356 -2.793994 6.165075 -6.239306 6.165075 C -9.684619 6.165075 -12.477588 3.403356 -12.477588 0.0010125 C -12.477588 -3.401331 -9.684619 -6.16305 -6.239306 -6.16305 C -2.793994 -6.16305 -0.001025 -3.401331 -0.001025 0.0010125 Z M -0.001025 0.0010125 " transform="matrix(1,0,0,-1,148.4229,203.9307)"/>
<path style=" stroke:none;fill-rule:nonzero;fill:rgb(96.403503%,78.808594%,42.222595%);fill-opacity:1;" d="M 238.453125 150.515625 C 238.453125 147.109375 235.660156 144.351562 232.214844 144.351562 C 228.769531 144.351562 225.976562 147.109375 225.976562 150.515625 C 225.976562 153.914062 228.769531 156.675781 232.214844 156.675781 C 235.660156 156.675781 238.453125 153.914062 238.453125 150.515625 "/>
<g clip-path="url(#clip5)" clip-rule="nonzero">
<path style="fill:none;stroke-width:2;stroke-linecap:butt;stroke-linejoin:miter;stroke:rgb(13.729858%,12.159729%,12.548828%);stroke-opacity:1;stroke-miterlimit:4;" d="M -0.000975 -0.001925 C -0.000975 3.404325 -2.793944 6.162138 -6.239256 6.162138 C -9.684569 6.162138 -12.477538 3.404325 -12.477538 -0.001925 C -12.477538 -3.400362 -9.684569 -6.162081 -6.239256 -6.162081 C -2.793944 -6.162081 -0.000975 -3.400362 -0.000975 -0.001925 Z M -0.000975 -0.001925 " transform="matrix(1,0,0,-1,238.4541,150.5137)"/>
</g>
<path style=" stroke:none;fill-rule:nonzero;fill:rgb(96.403503%,78.808594%,42.222595%);fill-opacity:1;" d="M 194.160156 203.367188 C 194.160156 199.964844 191.367188 197.203125 187.921875 197.203125 C 184.472656 197.203125 181.679688 199.964844 181.679688 203.367188 C 181.679688 206.769531 184.472656 209.53125 187.921875 209.53125 C 191.367188 209.53125 194.160156 206.769531 194.160156 203.367188 "/>
<path style="fill:none;stroke-width:2;stroke-linecap:butt;stroke-linejoin:miter;stroke:rgb(13.729858%,12.159729%,12.548828%);stroke-opacity:1;stroke-miterlimit:4;" d="M 0.00095625 0.0010125 C 0.00095625 3.403356 -2.792012 6.165075 -6.237325 6.165075 C -9.686544 6.165075 -12.479512 3.403356 -12.479512 0.0010125 C -12.479512 -3.401331 -9.686544 -6.16305 -6.237325 -6.16305 C -2.792012 -6.16305 0.00095625 -3.401331 0.00095625 0.0010125 Z M 0.00095625 0.0010125 " transform="matrix(1,0,0,-1,194.1592,203.3682)"/>
<path style=" stroke:none;fill-rule:nonzero;fill:rgb(96.403503%,78.808594%,42.222595%);fill-opacity:1;" d="M 193.855469 151.085938 C 193.855469 147.679688 191.0625 144.921875 187.621094 144.921875 C 184.171875 144.921875 181.378906 147.679688 181.378906 151.085938 C 181.378906 154.488281 184.171875 157.25 187.621094 157.25 C 191.0625 157.25 193.855469 154.488281 193.855469 151.085938 "/>
<path style="fill:none;stroke-width:2;stroke-linecap:butt;stroke-linejoin:miter;stroke:rgb(13.729858%,12.159729%,12.548828%);stroke-opacity:1;stroke-miterlimit:4;" d="M -0.00193125 -0.0009375 C -0.00193125 3.405312 -2.7949 6.163125 -6.236306 6.163125 C -9.685525 6.163125 -12.478494 3.405312 -12.478494 -0.0009375 C -12.478494 -3.403281 -9.685525 -6.165 -6.236306 -6.165 C -2.7949 -6.165 -0.00193125 -3.403281 -0.00193125 -0.0009375 Z M -0.00193125 -0.0009375 " transform="matrix(1,0,0,-1,193.8574,151.085)"/>
<path style=" stroke:none;fill-rule:nonzero;fill:rgb(96.403503%,78.808594%,42.222595%);fill-opacity:1;" d="M 239.257812 204.371094 C 239.257812 200.96875 236.464844 198.210938 233.019531 198.210938 C 229.574219 198.210938 226.78125 200.96875 226.78125 204.371094 C 226.78125 207.773438 229.574219 210.535156 233.019531 210.535156 C 236.464844 210.535156 239.257812 207.773438 239.257812 204.371094 "/>
<g clip-path="url(#clip6)" clip-rule="nonzero">
<path style="fill:none;stroke-width:2;stroke-linecap:butt;stroke-linejoin:miter;stroke:rgb(13.729858%,12.159729%,12.548828%);stroke-opacity:1;stroke-miterlimit:4;" d="M -0.0009875 0.00190625 C -0.0009875 3.40425 -2.793956 6.162062 -6.239269 6.162062 C -9.684581 6.162062 -12.47755 3.40425 -12.47755 0.00190625 C -12.47755 -3.400438 -9.684581 -6.162156 -6.239269 -6.162156 C -2.793956 -6.162156 -0.0009875 -3.400438 -0.0009875 0.00190625 Z M -0.0009875 0.00190625 " transform="matrix(1,0,0,-1,239.2588,204.373)"/>
</g>
</g>
</svg>
