<?xml version="1.0" encoding="UTF-8"?>
<svg xmlns="http://www.w3.org/2000/svg" xmlns:xlink="http://www.w3.org/1999/xlink" width="158.4pt" height="144pt" viewBox="0 0 158.4 144" version="1.1">
<defs>
<clipPath id="clip1">
  <path d="M 129 81 L 158.398438 81 L 158.398438 117 L 129 117 Z M 129 81 "/>
</clipPath>
<clipPath id="clip2">
  <path d="M 129 27 L 158.398438 27 L 158.398438 63 L 129 63 Z M 129 27 "/>
</clipPath>
</defs>
<g id="surface1">
<path style="fill:none;stroke-width:1;stroke-linecap:butt;stroke-linejoin:miter;stroke:rgb(13.729858%,12.159729%,12.548828%);stroke-opacity:1;stroke-miterlimit:4;" d="M 0.001925 -0.0009875 L -68.376981 -36.325206 " transform="matrix(1,0,0,-1,78.7012,8.8037)"/>
<path style="fill:none;stroke-width:1;stroke-linecap:butt;stroke-linejoin:miter;stroke:rgb(13.729858%,12.159729%,12.548828%);stroke-opacity:1;stroke-miterlimit:4;" d="M 0.000975 -0.00053125 L -40.772462 -36.098187 " transform="matrix(1,0,0,-1,79.6709,8.9565)"/>
<path style="fill:none;stroke-width:1;stroke-linecap:butt;stroke-linejoin:miter;stroke:rgb(13.729858%,12.159729%,12.548828%);stroke-opacity:1;stroke-miterlimit:4;" d="M 0.001925 -0.0009875 L -13.099638 -35.97755 " transform="matrix(1,0,0,-1,78.7012,8.8037)"/>
<path style="fill:none;stroke-width:1;stroke-linecap:butt;stroke-linejoin:miter;stroke:rgb(13.729858%,12.159729%,12.548828%);stroke-opacity:1;stroke-miterlimit:4;" d="M 0.000975 -0.00053125 L 12.903319 -35.82475 " transform="matrix(1,0,0,-1,79.6709,8.9565)"/>
<path style="fill:none;stroke-width:1;stroke-linecap:butt;stroke-linejoin:miter;stroke:rgb(13.729858%,12.159729%,12.548828%);stroke-opacity:1;stroke-miterlimit:4;" d="M 0.000975 -0.00053125 L 40.149413 -35.828656 " transform="matrix(1,0,0,-1,79.6709,8.9565)"/>
<path style="fill:none;stroke-width:1;stroke-linecap:butt;stroke-linejoin:miter;stroke:rgb(13.729858%,12.159729%,12.548828%);stroke-opacity:1;stroke-miterlimit:4;" d="M 0.00000625 -0.00051875 L 67.671881 -36.83255 " transform="matrix(1,0,0,-1,79.1289,7.9487)"/>
<path style="fill:none;stroke-width:1;stroke-linecap:butt;stroke-linejoin:miter;stroke:rgb(13.729858%,12.159729%,12.548828%);stroke-opacity:1;stroke-miterlimit:4;" d="M 0.000975 -0.00195 L 66.907225 37.513675 " transform="matrix(1,0,0,-1,79.9834,136.1543)"/>
<path style="fill:none;stroke-width:1;stroke-linecap:butt;stroke-linejoin:miter;stroke:rgb(13.729858%,12.159729%,12.548828%);stroke-opacity:1;stroke-miterlimit:4;" d="M 0.00195 -0.000025 L -40.169925 -38.89065 " transform="matrix(1,0,0,-1,120.1543,97.2656)"/>
<path style="fill:none;stroke-width:1;stroke-linecap:butt;stroke-linejoin:miter;stroke:rgb(13.729858%,12.159729%,12.548828%);stroke-opacity:1;stroke-miterlimit:4;" d="M 0.000975 -0.00195 L 12.688475 37.513675 " transform="matrix(1,0,0,-1,79.9834,136.1543)"/>
<path style="fill:none;stroke-width:1;stroke-linecap:butt;stroke-linejoin:miter;stroke:rgb(13.729858%,12.159729%,12.548828%);stroke-opacity:1;stroke-miterlimit:4;" d="M 0.000000000000014211 0.00190625 L -14.347656 34.615187 " transform="matrix(1,0,0,-1,79.375,134.873)"/>
<path style="fill:none;stroke-width:1;stroke-linecap:butt;stroke-linejoin:miter;stroke:rgb(13.729858%,12.159729%,12.548828%);stroke-opacity:1;stroke-miterlimit:4;" d="M 0.000975 -0.00195 L -41.45215 34.615238 " transform="matrix(1,0,0,-1,79.9834,136.1543)"/>
<path style="fill:none;stroke-width:1;stroke-linecap:butt;stroke-linejoin:miter;stroke:rgb(13.729858%,12.159729%,12.548828%);stroke-opacity:1;stroke-miterlimit:4;" d="M 0.000975 -0.00195 L -68.803713 36.322269 " transform="matrix(1,0,0,-1,79.9834,136.1543)"/>
<path style="fill:none;stroke-width:1;stroke-linecap:butt;stroke-linejoin:miter;stroke:rgb(13.729858%,12.159729%,12.548828%);stroke-opacity:1;stroke-miterlimit:4;" d="M -0.00098125 -0.00004375 L 54.272456 55.128862 " transform="matrix(1,0,0,-1,10.3252,99.4023)"/>
<path style="fill:none;stroke-width:1;stroke-linecap:butt;stroke-linejoin:miter;stroke:rgb(13.729858%,12.159729%,12.548828%);stroke-opacity:1;stroke-miterlimit:4;" d="M -0.0005125 0.0000375 L 25.604956 53.785194 " transform="matrix(1,0,0,-1,38.9927,98.9141)"/>
<path style="fill:none;stroke-width:1;stroke-linecap:butt;stroke-linejoin:miter;stroke:rgb(13.729858%,12.159729%,12.548828%);stroke-opacity:1;stroke-miterlimit:4;" d="M 0.00095 -0.0019125 L 54.043919 55.47465 " transform="matrix(1,0,0,-1,38.5303,100.2559)"/>
<path style="fill:none;stroke-width:1;stroke-linecap:butt;stroke-linejoin:miter;stroke:rgb(13.729858%,12.159729%,12.548828%);stroke-opacity:1;stroke-miterlimit:4;" d="M -0.0014375 0.00194375 L 81.717312 54.189444 " transform="matrix(1,0,0,-1,38.103,98.9746)"/>
<path style="fill:none;stroke-width:1;stroke-linecap:butt;stroke-linejoin:miter;stroke:rgb(13.729858%,12.159729%,12.548828%);stroke-opacity:1;stroke-miterlimit:4;" d="M -0.0005125 0.0000375 L 107.804175 54.13285 " transform="matrix(1,0,0,-1,38.9927,98.9141)"/>
<path style="fill:none;stroke-width:1;stroke-linecap:butt;stroke-linejoin:miter;stroke:rgb(13.729858%,12.159729%,12.548828%);stroke-opacity:1;stroke-miterlimit:4;" d="M 0.00193125 -0.000025 L -28.873069 52.656225 " transform="matrix(1,0,0,-1,146.8926,98.6406)"/>
<path style="fill:none;stroke-width:1;stroke-linecap:butt;stroke-linejoin:miter;stroke:rgb(13.729858%,12.159729%,12.548828%);stroke-opacity:1;stroke-miterlimit:4;" d="M 0.00193125 -0.000025 L -82.294944 53.511694 " transform="matrix(1,0,0,-1,146.8926,98.6406)"/>
<path style=" stroke:none;fill-rule:nonzero;fill:rgb(96.403503%,78.808594%,42.222595%);fill-opacity:1;" d="M 79.375 128.632812 C 75.972656 128.632812 73.210938 131.425781 73.210938 134.871094 C 73.210938 138.320312 75.972656 141.113281 79.375 141.113281 C 82.777344 141.113281 85.539062 138.320312 85.539062 134.871094 C 85.539062 131.425781 82.777344 128.632812 79.375 128.632812 "/>
<path style="fill:none;stroke-width:2;stroke-linecap:butt;stroke-linejoin:miter;stroke:rgb(13.729858%,12.159729%,12.548828%);stroke-opacity:1;stroke-miterlimit:4;" d="M -0.0005 -0.0000125 C -3.402844 -0.0000125 -6.164562 -2.792981 -6.164562 -6.238294 C -6.164562 -9.687512 -3.402844 -12.480481 -0.0005 -12.480481 C 3.401844 -12.480481 6.163563 -9.687512 6.163563 -6.238294 C 6.163563 -2.792981 3.401844 -0.0000125 -0.0005 -0.0000125 Z M -0.0005 -0.0000125 " transform="matrix(1,0,0,-1,79.3755,128.6328)"/>
<path style=" stroke:none;fill-rule:nonzero;fill:rgb(96.403503%,78.808594%,42.222595%);fill-opacity:1;" d="M 65.695312 92.402344 C 62.292969 92.402344 59.53125 95.195312 59.53125 98.640625 C 59.53125 102.089844 62.292969 104.882812 65.695312 104.882812 C 69.097656 104.882812 71.859375 102.089844 71.859375 98.640625 C 71.859375 95.195312 69.097656 92.402344 65.695312 92.402344 "/>
<path style="fill:none;stroke-width:2;stroke-linecap:butt;stroke-linejoin:miter;stroke:rgb(13.729858%,12.159729%,12.548828%);stroke-opacity:1;stroke-miterlimit:4;" d="M 0.0000125 -0.00004375 C -3.402331 -0.00004375 -6.16405 -2.793013 -6.16405 -6.238325 C -6.16405 -9.687544 -3.402331 -12.480513 0.0000125 -12.480513 C 3.402356 -12.480513 6.164075 -9.687544 6.164075 -6.238325 C 6.164075 -2.793013 3.402356 -0.00004375 0.0000125 -0.00004375 Z M 0.0000125 -0.00004375 " transform="matrix(1,0,0,-1,65.6953,92.4023)"/>
<path style=" stroke:none;fill-rule:nonzero;fill:rgb(96.403503%,78.808594%,42.222595%);fill-opacity:1;" d="M 92.671875 92.402344 C 89.265625 92.402344 86.507812 95.195312 86.507812 98.640625 C 86.507812 102.089844 89.265625 104.882812 92.671875 104.882812 C 96.074219 104.882812 98.835938 102.089844 98.835938 98.640625 C 98.835938 95.195312 96.074219 92.402344 92.671875 92.402344 "/>
<path style="fill:none;stroke-width:2;stroke-linecap:butt;stroke-linejoin:miter;stroke:rgb(13.729858%,12.159729%,12.548828%);stroke-opacity:1;stroke-miterlimit:4;" d="M 0.000975 -0.00004375 C -3.405275 -0.00004375 -6.163087 -2.793013 -6.163087 -6.238325 C -6.163087 -9.687544 -3.405275 -12.480513 0.000975 -12.480513 C 3.403319 -12.480513 6.165038 -9.687544 6.165038 -6.238325 C 6.165038 -2.793013 3.403319 -0.00004375 0.000975 -0.00004375 Z M 0.000975 -0.00004375 " transform="matrix(1,0,0,-1,92.6709,92.4023)"/>
<path style=" stroke:none;fill-rule:nonzero;fill:rgb(96.403503%,78.808594%,42.222595%);fill-opacity:1;" d="M 11.769531 92.449219 C 8.367188 92.449219 5.605469 95.242188 5.605469 98.6875 C 5.605469 102.136719 8.367188 104.929688 11.769531 104.929688 C 15.171875 104.929688 17.933594 102.136719 17.933594 98.6875 C 17.933594 95.242188 15.171875 92.449219 11.769531 92.449219 "/>
<path style="fill:none;stroke-width:2;stroke-linecap:butt;stroke-linejoin:miter;stroke:rgb(13.729858%,12.159729%,12.548828%);stroke-opacity:1;stroke-miterlimit:4;" d="M -0.00146875 -0.00001875 C -3.403812 -0.00001875 -6.165531 -2.792987 -6.165531 -6.2383 C -6.165531 -9.687519 -3.403812 -12.480487 -0.00146875 -12.480487 C 3.400875 -12.480487 6.162594 -9.687519 6.162594 -6.2383 C 6.162594 -2.792987 3.400875 -0.00001875 -0.00146875 -0.00001875 Z M -0.00146875 -0.00001875 " transform="matrix(1,0,0,-1,11.771,92.4492)"/>
<path style=" stroke:none;fill-rule:nonzero;fill:rgb(96.403503%,78.808594%,42.222595%);fill-opacity:1;" d="M 38.992188 92.675781 C 35.589844 92.675781 32.828125 95.46875 32.828125 98.914062 C 32.828125 102.363281 35.589844 105.15625 38.992188 105.15625 C 42.394531 105.15625 45.15625 102.363281 45.15625 98.914062 C 45.15625 95.46875 42.394531 92.675781 38.992188 92.675781 "/>
<path style="fill:none;stroke-width:2;stroke-linecap:butt;stroke-linejoin:miter;stroke:rgb(13.729858%,12.159729%,12.548828%);stroke-opacity:1;stroke-miterlimit:4;" d="M -0.0005125 0.00001875 C -3.402856 0.00001875 -6.164575 -2.79295 -6.164575 -6.238262 C -6.164575 -9.687481 -3.402856 -12.48045 -0.0005125 -12.48045 C 3.401831 -12.48045 6.16355 -9.687481 6.16355 -6.238262 C 6.16355 -2.79295 3.401831 0.00001875 -0.0005125 0.00001875 Z M -0.0005125 0.00001875 " transform="matrix(1,0,0,-1,38.9927,92.6758)"/>
<path style=" stroke:none;fill-rule:nonzero;fill:rgb(96.403503%,78.808594%,42.222595%);fill-opacity:1;" d="M 119.917969 92.40625 C 116.511719 92.40625 113.753906 95.199219 113.753906 98.640625 C 113.753906 102.089844 116.511719 104.882812 119.917969 104.882812 C 123.320312 104.882812 126.082031 102.089844 126.082031 98.640625 C 126.082031 95.199219 123.320312 92.40625 119.917969 92.40625 "/>
<path style="fill:none;stroke-width:2;stroke-linecap:butt;stroke-linejoin:miter;stroke:rgb(13.729858%,12.159729%,12.548828%);stroke-opacity:1;stroke-miterlimit:4;" d="M 0.00096875 -0.00195 C -3.405281 -0.00195 -6.163094 -2.794919 -6.163094 -6.236325 C -6.163094 -9.685544 -3.405281 -12.478513 0.00096875 -12.478513 C 3.403312 -12.478513 6.165031 -9.685544 6.165031 -6.236325 C 6.165031 -2.794919 3.403312 -0.00195 0.00096875 -0.00195 Z M 0.00096875 -0.00195 " transform="matrix(1,0,0,-1,119.917,92.4043)"/>
<path style=" stroke:none;fill-rule:nonzero;fill:rgb(96.403503%,78.808594%,42.222595%);fill-opacity:1;" d="M 146.894531 92.402344 C 143.488281 92.402344 140.730469 95.195312 140.730469 98.640625 C 140.730469 102.089844 143.488281 104.882812 146.894531 104.882812 C 150.292969 104.882812 153.054688 102.089844 153.054688 98.640625 C 153.054688 95.195312 150.292969 92.402344 146.894531 92.402344 "/>
<g clip-path="url(#clip1)" clip-rule="nonzero">
<path style="fill:none;stroke-width:2;stroke-linecap:butt;stroke-linejoin:miter;stroke:rgb(13.729858%,12.159729%,12.548828%);stroke-opacity:1;stroke-miterlimit:4;" d="M 0.00193125 -0.00004375 C -3.404319 -0.00004375 -6.162131 -2.793013 -6.162131 -6.238325 C -6.162131 -9.687544 -3.404319 -12.480513 0.00193125 -12.480513 C 3.400369 -12.480513 6.162087 -9.687544 6.162087 -6.238325 C 6.162087 -2.793013 3.400369 -0.00004375 0.00193125 -0.00004375 Z M 0.00193125 -0.00004375 " transform="matrix(1,0,0,-1,146.8926,92.4023)"/>
</g>
<path style=" stroke:none;fill-rule:nonzero;fill:rgb(96.403503%,78.808594%,42.222595%);fill-opacity:1;" d="M 79.671875 2.71875 C 76.265625 2.71875 73.507812 5.511719 73.507812 8.957031 C 73.507812 12.402344 76.265625 15.195312 79.671875 15.195312 C 83.074219 15.195312 85.835938 12.402344 85.835938 8.957031 C 85.835938 5.511719 83.074219 2.71875 79.671875 2.71875 "/>
<path style="fill:none;stroke-width:2;stroke-linecap:butt;stroke-linejoin:miter;stroke:rgb(13.729858%,12.159729%,12.548828%);stroke-opacity:1;stroke-miterlimit:4;" d="M 0.001475 -0.00145 C -3.404775 -0.00145 -6.162587 -2.794419 -6.162587 -6.239731 C -6.162587 -9.685044 -3.404775 -12.478013 0.001475 -12.478013 C 3.403819 -12.478013 6.165538 -9.685044 6.165538 -6.239731 C 6.165538 -2.794419 3.403819 -0.00145 0.001475 -0.00145 Z M 0.001475 -0.00145 " transform="matrix(1,0,0,-1,79.6704,2.7173)"/>
<path style=" stroke:none;fill-rule:nonzero;fill:rgb(96.403503%,78.808594%,42.222595%);fill-opacity:1;" d="M 65.601562 38.542969 C 62.195312 38.542969 59.4375 41.335938 59.4375 44.78125 C 59.4375 48.230469 62.195312 51.023438 65.601562 51.023438 C 69.003906 51.023438 71.765625 48.230469 71.765625 44.78125 C 71.765625 41.335938 69.003906 38.542969 65.601562 38.542969 "/>
<path style="fill:none;stroke-width:2;stroke-linecap:butt;stroke-linejoin:miter;stroke:rgb(13.729858%,12.159729%,12.548828%);stroke-opacity:1;stroke-miterlimit:4;" d="M 0.0009625 0.00053125 C -3.405288 0.00053125 -6.1631 -2.792438 -6.1631 -6.23775 C -6.1631 -9.686969 -3.405288 -12.479938 0.0009625 -12.479938 C 3.403306 -12.479938 6.165025 -9.686969 6.165025 -6.23775 C 6.165025 -2.792438 3.403306 0.00053125 0.0009625 0.00053125 Z M 0.0009625 0.00053125 " transform="matrix(1,0,0,-1,65.6006,38.5435)"/>
<path style=" stroke:none;fill-rule:nonzero;fill:rgb(96.403503%,78.808594%,42.222595%);fill-opacity:1;" d="M 92.574219 38.542969 C 89.171875 38.542969 86.410156 41.335938 86.410156 44.78125 C 86.410156 48.230469 89.171875 51.023438 92.574219 51.023438 C 95.976562 51.023438 98.738281 48.230469 98.738281 44.78125 C 98.738281 41.335938 95.976562 38.542969 92.574219 38.542969 "/>
<path style="fill:none;stroke-width:2;stroke-linecap:butt;stroke-linejoin:miter;stroke:rgb(13.729858%,12.159729%,12.548828%);stroke-opacity:1;stroke-miterlimit:4;" d="M -0.00098125 0.00053125 C -3.403325 0.00053125 -6.165044 -2.792438 -6.165044 -6.23775 C -6.165044 -9.686969 -3.403325 -12.479938 -0.00098125 -12.479938 C 3.401363 -12.479938 6.163081 -9.686969 6.163081 -6.23775 C 6.163081 -2.792438 3.401363 0.00053125 -0.00098125 0.00053125 Z M -0.00098125 0.00053125 " transform="matrix(1,0,0,-1,92.5752,38.5435)"/>
<path style=" stroke:none;fill-rule:nonzero;fill:rgb(96.403503%,78.808594%,42.222595%);fill-opacity:1;" d="M 11.675781 38.589844 C 8.273438 38.589844 5.511719 41.382812 5.511719 44.828125 C 5.511719 48.277344 8.273438 51.070312 11.675781 51.070312 C 15.078125 51.070312 17.839844 48.277344 17.839844 44.828125 C 17.839844 41.382812 15.078125 38.589844 11.675781 38.589844 "/>
<path style="fill:none;stroke-width:2;stroke-linecap:butt;stroke-linejoin:miter;stroke:rgb(13.729858%,12.159729%,12.548828%);stroke-opacity:1;stroke-miterlimit:4;" d="M -0.00051875 -0.00044375 C -3.402862 -0.00044375 -6.164581 -2.793413 -6.164581 -6.238725 C -6.164581 -9.687944 -3.402862 -12.480913 -0.00051875 -12.480913 C 3.401825 -12.480913 6.163544 -9.687944 6.163544 -6.238725 C 6.163544 -2.793413 3.401825 -0.00044375 -0.00051875 -0.00044375 Z M -0.00051875 -0.00044375 " transform="matrix(1,0,0,-1,11.6763,38.5894)"/>
<path style=" stroke:none;fill-rule:nonzero;fill:rgb(96.403503%,78.808594%,42.222595%);fill-opacity:1;" d="M 38.898438 38.816406 C 35.492188 38.816406 32.734375 41.609375 32.734375 45.054688 C 32.734375 48.5 35.492188 51.292969 38.898438 51.292969 C 42.300781 51.292969 45.0625 48.5 45.0625 45.054688 C 45.0625 41.609375 42.300781 38.816406 38.898438 38.816406 "/>
<path style="fill:none;stroke-width:2;stroke-linecap:butt;stroke-linejoin:miter;stroke:rgb(13.729858%,12.159729%,12.548828%);stroke-opacity:1;stroke-miterlimit:4;" d="M 0.0005375 -0.00050625 C -3.405712 -0.00050625 -6.163525 -2.793475 -6.163525 -6.238788 C -6.163525 -9.6841 -3.405712 -12.477069 0.0005375 -12.477069 C 3.402881 -12.477069 6.1646 -9.6841 6.1646 -6.238788 C 6.1646 -2.793475 3.402881 -0.00050625 0.0005375 -0.00050625 Z M 0.0005375 -0.00050625 " transform="matrix(1,0,0,-1,38.8979,38.8159)"/>
<path style=" stroke:none;fill-rule:nonzero;fill:rgb(96.403503%,78.808594%,42.222595%);fill-opacity:1;" d="M 119.820312 38.542969 C 116.417969 38.542969 113.65625 41.335938 113.65625 44.78125 C 113.65625 48.230469 116.417969 51.023438 119.820312 51.023438 C 123.222656 51.023438 125.984375 48.230469 125.984375 44.78125 C 125.984375 41.335938 123.222656 38.542969 119.820312 38.542969 "/>
<path style="fill:none;stroke-width:2;stroke-linecap:butt;stroke-linejoin:miter;stroke:rgb(13.729858%,12.159729%,12.548828%);stroke-opacity:1;stroke-miterlimit:4;" d="M -0.0009875 0.00143125 C -3.403331 0.00143125 -6.16505 -2.791538 -6.16505 -6.23685 C -6.16505 -9.686069 -3.403331 -12.479038 -0.0009875 -12.479038 C 3.401356 -12.479038 6.163075 -9.686069 6.163075 -6.23685 C 6.163075 -2.791538 3.401356 0.00143125 -0.0009875 0.00143125 Z M -0.0009875 0.00143125 " transform="matrix(1,0,0,-1,119.8213,38.5444)"/>
<path style=" stroke:none;fill-rule:nonzero;fill:rgb(96.403503%,78.808594%,42.222595%);fill-opacity:1;" d="M 146.796875 38.542969 C 143.394531 38.542969 140.636719 41.335938 140.636719 44.78125 C 140.636719 48.230469 143.394531 51.023438 146.796875 51.023438 C 150.199219 51.023438 152.960938 48.230469 152.960938 44.78125 C 152.960938 41.335938 150.199219 38.542969 146.796875 38.542969 "/>
<g clip-path="url(#clip2)" clip-rule="nonzero">
<path style="fill:none;stroke-width:2;stroke-linecap:butt;stroke-linejoin:miter;stroke:rgb(13.729858%,12.159729%,12.548828%);stroke-opacity:1;stroke-miterlimit:4;" d="M -0.001925 0.00053125 C -3.404269 0.00053125 -6.162081 -2.792438 -6.162081 -6.23775 C -6.162081 -9.686969 -3.404269 -12.479938 -0.001925 -12.479938 C 3.400419 -12.479938 6.162138 -9.686969 6.162138 -6.23775 C 6.162138 -2.792438 3.400419 0.00053125 -0.001925 0.00053125 Z M -0.001925 0.00053125 " transform="matrix(1,0,0,-1,146.7988,38.5435)"/>
</g>
</g>
</svg>
