<?xml version="1.0" encoding="UTF-8"?>
<svg xmlns="http://www.w3.org/2000/svg" xmlns:xlink="http://www.w3.org/1999/xlink" width="244.8pt" height="262.80002pt" viewBox="0 0 244.8 262.80002" version="1.1">
<defs>
<clipPath id="clip1">
  <path d="M 0 118 L 87 118 L 87 262.800781 L 0 262.800781 Z M 0 118 "/>
</clipPath>
<clipPath id="clip2">
  <path d="M 161 0 L 244.800781 0 L 244.800781 144 L 161 144 Z M 161 0 "/>
</clipPath>
<clipPath id="clip3">
  <path d="M 161 26 L 244.800781 26 L 244.800781 144 L 161 144 Z M 161 26 "/>
</clipPath>
<clipPath id="clip4">
  <path d="M 161 52 L 244.800781 52 L 244.800781 144 L 161 144 Z M 161 52 "/>
</clipPath>
<clipPath id="clip5">
  <path d="M 161 78 L 244.800781 78 L 244.800781 144 L 161 144 Z M 161 78 "/>
</clipPath>
<clipPath id="clip6">
  <path d="M 161 106 L 244.800781 106 L 244.800781 144 L 161 144 Z M 161 106 "/>
</clipPath>
<clipPath id="clip7">
  <path d="M 161 120 L 244.800781 120 L 244.800781 157 L 161 157 Z M 161 120 "/>
</clipPath>
<clipPath id="clip8">
  <path d="M 161 120 L 244.800781 120 L 244.800781 184 L 161 184 Z M 161 120 "/>
</clipPath>
<clipPath id="clip9">
  <path d="M 161 120 L 244.800781 120 L 244.800781 213 L 161 213 Z M 161 120 "/>
</clipPath>
<clipPath id="clip10">
  <path d="M 161 120 L 244.800781 120 L 244.800781 239 L 161 239 Z M 161 120 "/>
</clipPath>
<clipPath id="clip11">
  <path d="M 161 120 L 244.800781 120 L 244.800781 262.800781 L 161 262.800781 Z M 161 120 "/>
</clipPath>
<clipPath id="clip12">
  <path d="M 63 215 L 183 215 L 183 262.800781 L 63 262.800781 Z M 63 215 "/>
</clipPath>
<clipPath id="clip13">
  <path d="M 63 0 L 184 0 L 184 262.800781 L 63 262.800781 Z M 63 0 "/>
</clipPath>
<clipPath id="clip14">
  <path d="M 63 51 L 183 51 L 183 262.800781 L 63 262.800781 Z M 63 51 "/>
</clipPath>
<clipPath id="clip15">
  <path d="M 63 188 L 183 188 L 183 262.800781 L 63 262.800781 Z M 63 188 "/>
</clipPath>
<clipPath id="clip16">
  <path d="M 216 114 L 244.800781 114 L 244.800781 150 L 216 150 Z M 216 114 "/>
</clipPath>
<clipPath id="clip17">
  <path d="M 153 236 L 189 236 L 189 262.800781 L 153 262.800781 Z M 153 236 "/>
</clipPath>
<clipPath id="clip18">
  <path d="M 57 236 L 93 236 L 93 262.800781 L 57 262.800781 Z M 57 236 "/>
</clipPath>
</defs>
<g id="surface1">
<path style="fill:none;stroke-width:2;stroke-linecap:butt;stroke-linejoin:miter;stroke:rgb(92.939758%,10.978699%,14.118958%);stroke-opacity:1;stroke-miterlimit:4;" d="M 75.683594 -253.421114 C 75.683594 -253.421114 9.269531 -133.085176 9.269531 -133.085176 " transform="matrix(1,0,0,1,0,262.80002)"/>
<path style="fill:none;stroke-width:2;stroke-linecap:butt;stroke-linejoin:miter;stroke:rgb(92.939758%,10.978699%,14.118958%);stroke-opacity:1;stroke-miterlimit:4;" d="M 9.269531 -133.085176 C 9.269531 -133.085176 75.457031 -226.198458 75.457031 -226.198458 " transform="matrix(1,0,0,1,0,262.80002)"/>
<path style="fill:none;stroke-width:2;stroke-linecap:butt;stroke-linejoin:miter;stroke:rgb(13.729858%,12.159729%,12.548828%);stroke-opacity:1;stroke-miterlimit:4;" d="M 75.726562 -199.495333 C 75.726562 -199.495333 9.269531 -133.085176 9.269531 -133.085176 " transform="matrix(1,0,0,1,0,262.80002)"/>
<path style="fill:none;stroke-width:2;stroke-linecap:butt;stroke-linejoin:miter;stroke:rgb(92.939758%,10.978699%,14.118958%);stroke-opacity:1;stroke-miterlimit:4;" d="M 9.269531 -133.085176 C 9.269531 -133.085176 75.726562 -172.522676 75.726562 -172.522676 " transform="matrix(1,0,0,1,0,262.80002)"/>
<path style="fill:none;stroke-width:2;stroke-linecap:butt;stroke-linejoin:miter;stroke:rgb(13.729858%,12.159729%,12.548828%);stroke-opacity:1;stroke-miterlimit:4;" d="M 75.726562 -145.276583 C 75.726562 -145.276583 9.269531 -133.085176 9.269531 -133.085176 " transform="matrix(1,0,0,1,0,262.80002)"/>
<path style="fill:none;stroke-width:2;stroke-linecap:butt;stroke-linejoin:miter;stroke:rgb(92.939758%,10.978699%,14.118958%);stroke-opacity:1;stroke-miterlimit:4;" d="M 9.269531 -133.085176 C 9.269531 -133.085176 75.726562 -118.30002 75.726562 -118.30002 " transform="matrix(1,0,0,1,0,262.80002)"/>
<path style="fill:none;stroke-width:2;stroke-linecap:butt;stroke-linejoin:miter;stroke:rgb(92.939758%,10.978699%,14.118958%);stroke-opacity:1;stroke-miterlimit:4;" d="M 75.410156 -91.022676 C 75.410156 -91.022676 9.269531 -133.085176 9.269531 -133.085176 " transform="matrix(1,0,0,1,0,262.80002)"/>
<path style="fill:none;stroke-width:2;stroke-linecap:butt;stroke-linejoin:miter;stroke:rgb(92.939758%,10.978699%,14.118958%);stroke-opacity:1;stroke-miterlimit:4;" d="M 9.269531 -133.085176 C 9.269531 -133.085176 75.507812 -62.858614 75.507812 -62.858614 " transform="matrix(1,0,0,1,0,262.80002)"/>
<path style="fill:none;stroke-width:2;stroke-linecap:butt;stroke-linejoin:miter;stroke:rgb(13.729858%,12.159729%,12.548828%);stroke-opacity:1;stroke-miterlimit:4;" d="M 75.171875 -36.190645 C 75.171875 -36.190645 9.269531 -133.085176 9.269531 -133.085176 " transform="matrix(1,0,0,1,0,262.80002)"/>
<g clip-path="url(#clip1)" clip-rule="nonzero">
<path style="fill:none;stroke-width:2;stroke-linecap:butt;stroke-linejoin:miter;stroke:rgb(92.939758%,10.978699%,14.118958%);stroke-opacity:1;stroke-miterlimit:4;" d="M 9.269531 -133.085176 C 9.269531 -133.085176 75.171875 -8.690645 75.171875 -8.690645 " transform="matrix(1,0,0,1,0,262.80002)"/>
</g>
<g clip-path="url(#clip2)" clip-rule="nonzero">
<path style="fill:none;stroke-width:2;stroke-linecap:butt;stroke-linejoin:miter;stroke:rgb(92.939758%,10.978699%,14.118958%);stroke-opacity:1;stroke-miterlimit:4;" d="M 172.894531 -252.639864 C 172.894531 -252.639864 235.261719 -130.80002 235.261719 -130.80002 " transform="matrix(1,0,0,1,0,262.80002)"/>
</g>
<g clip-path="url(#clip3)" clip-rule="nonzero">
<path style="fill:none;stroke-width:2;stroke-linecap:butt;stroke-linejoin:miter;stroke:rgb(92.939758%,10.978699%,14.118958%);stroke-opacity:1;stroke-miterlimit:4;" d="M 235.261719 -130.80002 C 235.261719 -130.80002 172.667969 -225.421114 172.667969 -225.421114 " transform="matrix(1,0,0,1,0,262.80002)"/>
</g>
<g clip-path="url(#clip4)" clip-rule="nonzero">
<path style="fill:none;stroke-width:2;stroke-linecap:butt;stroke-linejoin:miter;stroke:rgb(92.939758%,10.978699%,14.118958%);stroke-opacity:1;stroke-miterlimit:4;" d="M 172.9375 -198.717989 C 172.9375 -198.717989 235.261719 -130.80002 235.261719 -130.80002 " transform="matrix(1,0,0,1,0,262.80002)"/>
</g>
<g clip-path="url(#clip5)" clip-rule="nonzero">
<path style="fill:none;stroke-width:2;stroke-linecap:butt;stroke-linejoin:miter;stroke:rgb(92.939758%,10.978699%,14.118958%);stroke-opacity:1;stroke-miterlimit:4;" d="M 235.261719 -130.80002 C 235.261719 -130.80002 172.71875 -172.745333 172.71875 -172.745333 " transform="matrix(1,0,0,1,0,262.80002)"/>
</g>
<g clip-path="url(#clip6)" clip-rule="nonzero">
<path style="fill:none;stroke-width:2;stroke-linecap:butt;stroke-linejoin:miter;stroke:rgb(92.939758%,10.978699%,14.118958%);stroke-opacity:1;stroke-miterlimit:4;" d="M 172.9375 -144.495333 C 172.9375 -144.495333 235.261719 -130.80002 235.261719 -130.80002 " transform="matrix(1,0,0,1,0,262.80002)"/>
</g>
<g clip-path="url(#clip7)" clip-rule="nonzero">
<path style="fill:none;stroke-width:2;stroke-linecap:butt;stroke-linejoin:miter;stroke:rgb(13.729858%,12.159729%,12.548828%);stroke-opacity:1;stroke-miterlimit:4;" d="M 235.261719 -130.80002 C 235.261719 -130.80002 172.9375 -117.51877 172.9375 -117.51877 " transform="matrix(1,0,0,1,0,262.80002)"/>
</g>
<g clip-path="url(#clip8)" clip-rule="nonzero">
<path style="fill:none;stroke-width:2;stroke-linecap:butt;stroke-linejoin:miter;stroke:rgb(13.729858%,12.159729%,12.548828%);stroke-opacity:1;stroke-miterlimit:4;" d="M 172.621094 -90.245333 C 172.621094 -90.245333 234.21875 -131.245333 234.21875 -131.245333 " transform="matrix(1,0,0,1,0,262.80002)"/>
</g>
<g clip-path="url(#clip9)" clip-rule="nonzero">
<path style="fill:none;stroke-width:2;stroke-linecap:butt;stroke-linejoin:miter;stroke:rgb(92.939758%,10.978699%,14.118958%);stroke-opacity:1;stroke-miterlimit:4;" d="M 234.21875 -131.245333 C 234.21875 -131.245333 172.71875 -62.08127 172.71875 -62.08127 " transform="matrix(1,0,0,1,0,262.80002)"/>
</g>
<g clip-path="url(#clip10)" clip-rule="nonzero">
<path style="fill:none;stroke-width:2;stroke-linecap:butt;stroke-linejoin:miter;stroke:rgb(92.939758%,10.978699%,14.118958%);stroke-opacity:1;stroke-miterlimit:4;" d="M 172.382812 -35.413301 C 172.382812 -35.413301 234.21875 -131.245333 234.21875 -131.245333 " transform="matrix(1,0,0,1,0,262.80002)"/>
</g>
<g clip-path="url(#clip11)" clip-rule="nonzero">
<path style="fill:none;stroke-width:2;stroke-linecap:butt;stroke-linejoin:miter;stroke:rgb(13.729858%,12.159729%,12.548828%);stroke-opacity:1;stroke-miterlimit:4;" d="M 234.21875 -131.245333 C 234.21875 -131.245333 172.382812 -7.913301 172.382812 -7.913301 " transform="matrix(1,0,0,1,0,262.80002)"/>
</g>
<path style="fill:none;stroke-width:2;stroke-linecap:butt;stroke-linejoin:miter;stroke:rgb(13.729858%,12.159729%,12.548828%);stroke-opacity:1;stroke-miterlimit:4;" d="M 75.457031 -226.198458 C 75.457031 -226.198458 171.894531 -199.163301 171.894531 -199.163301 " transform="matrix(1,0,0,1,0,262.80002)"/>
<path style="fill:none;stroke-width:2;stroke-linecap:butt;stroke-linejoin:miter;stroke:rgb(13.729858%,12.159729%,12.548828%);stroke-opacity:1;stroke-miterlimit:4;" d="M 75.726562 -172.522676 C 75.726562 -172.522676 171.339844 -35.858614 171.339844 -35.858614 " transform="matrix(1,0,0,1,0,262.80002)"/>
<path style="fill:none;stroke-width:2;stroke-linecap:butt;stroke-linejoin:miter;stroke:rgb(13.729858%,12.159729%,12.548828%);stroke-opacity:1;stroke-miterlimit:4;" d="M 75.726562 -145.276583 C 75.726562 -145.276583 171.339844 -35.858614 171.339844 -35.858614 " transform="matrix(1,0,0,1,0,262.80002)"/>
<path style="fill:none;stroke-width:2;stroke-linecap:butt;stroke-linejoin:miter;stroke:rgb(92.939758%,10.978699%,14.118958%);stroke-opacity:1;stroke-miterlimit:4;" d="M 75.726562 -118.30002 C 75.726562 -118.30002 171.671875 -173.194551 171.671875 -173.194551 " transform="matrix(1,0,0,1,0,262.80002)"/>
<path style="fill:none;stroke-width:2;stroke-linecap:butt;stroke-linejoin:miter;stroke:rgb(13.729858%,12.159729%,12.548828%);stroke-opacity:1;stroke-miterlimit:4;" d="M 75.726562 -118.30002 C 75.726562 -118.30002 173.171875 -146.194551 173.171875 -146.194551 " transform="matrix(1,0,0,1,0,262.80002)"/>
<path style="fill:none;stroke-width:2;stroke-linecap:butt;stroke-linejoin:miter;stroke:rgb(13.729858%,12.159729%,12.548828%);stroke-opacity:1;stroke-miterlimit:4;" d="M 75.726562 -118.30002 C 75.726562 -118.30002 171.671875 -34.194551 171.671875 -34.194551 " transform="matrix(1,0,0,1,0,262.80002)"/>
<path style="fill:none;stroke-width:2;stroke-linecap:butt;stroke-linejoin:miter;stroke:rgb(13.729858%,12.159729%,12.548828%);stroke-opacity:1;stroke-miterlimit:4;" d="M 171.894531 -144.944551 C 171.894531 -144.944551 75.410156 -91.022676 75.410156 -91.022676 " transform="matrix(1,0,0,1,0,262.80002)"/>
<path style="fill:none;stroke-width:2;stroke-linecap:butt;stroke-linejoin:miter;stroke:rgb(13.729858%,12.159729%,12.548828%);stroke-opacity:1;stroke-miterlimit:4;" d="M 75.410156 -91.022676 C 75.410156 -91.022676 171.671875 -34.194551 171.671875 -34.194551 " transform="matrix(1,0,0,1,0,262.80002)"/>
<path style="fill:none;stroke-width:2;stroke-linecap:butt;stroke-linejoin:miter;stroke:rgb(13.729858%,12.159729%,12.548828%);stroke-opacity:1;stroke-miterlimit:4;" d="M 75.410156 -91.022676 C 75.410156 -91.022676 172.171875 -254.694551 172.171875 -254.694551 " transform="matrix(1,0,0,1,0,262.80002)"/>
<path style="fill:none;stroke-width:2;stroke-linecap:butt;stroke-linejoin:miter;stroke:rgb(92.939758%,10.978699%,14.118958%);stroke-opacity:1;stroke-miterlimit:4;" d="M 171.621094 -225.866426 C 171.621094 -225.866426 75.410156 -91.022676 75.410156 -91.022676 " transform="matrix(1,0,0,1,0,262.80002)"/>
<path style="fill:none;stroke-width:2;stroke-linecap:butt;stroke-linejoin:miter;stroke:rgb(13.729858%,12.159729%,12.548828%);stroke-opacity:1;stroke-miterlimit:4;" d="M 75.410156 -91.022676 C 75.410156 -91.022676 171.671875 -200.194551 171.671875 -200.194551 " transform="matrix(1,0,0,1,0,262.80002)"/>
<g clip-path="url(#clip12)" clip-rule="nonzero">
<path style="fill:none;stroke-width:2;stroke-linecap:butt;stroke-linejoin:miter;stroke:rgb(13.729858%,12.159729%,12.548828%);stroke-opacity:1;stroke-miterlimit:4;" d="M 75.171875 -8.690645 C 75.171875 -8.690645 171.339844 -35.858614 171.339844 -35.858614 " transform="matrix(1,0,0,1,0,262.80002)"/>
</g>
<g clip-path="url(#clip13)" clip-rule="nonzero">
<path style="fill:none;stroke-width:2;stroke-linecap:butt;stroke-linejoin:miter;stroke:rgb(13.729858%,12.159729%,12.548828%);stroke-opacity:1;stroke-miterlimit:4;" d="M 75.171875 -8.690645 C 75.171875 -8.690645 172.171875 -254.694551 172.171875 -254.694551 " transform="matrix(1,0,0,1,0,262.80002)"/>
</g>
<g clip-path="url(#clip14)" clip-rule="nonzero">
<path style="fill:none;stroke-width:2;stroke-linecap:butt;stroke-linejoin:miter;stroke:rgb(13.729858%,12.159729%,12.548828%);stroke-opacity:1;stroke-miterlimit:4;" d="M 75.171875 -8.690645 C 75.171875 -8.690645 171.671875 -200.194551 171.671875 -200.194551 " transform="matrix(1,0,0,1,0,262.80002)"/>
</g>
<path style="fill:none;stroke-width:2;stroke-linecap:butt;stroke-linejoin:miter;stroke:rgb(13.729858%,12.159729%,12.548828%);stroke-opacity:1;stroke-miterlimit:4;" d="M 75.726562 -172.522676 C 75.726562 -172.522676 171.894531 -199.163301 171.894531 -199.163301 " transform="matrix(1,0,0,1,0,262.80002)"/>
<path style="fill:none;stroke-width:2;stroke-linecap:butt;stroke-linejoin:miter;stroke:rgb(13.729858%,12.159729%,12.548828%);stroke-opacity:1;stroke-miterlimit:4;" d="M 75.726562 -118.30002 C 75.726562 -118.30002 171.894531 -199.163301 171.894531 -199.163301 " transform="matrix(1,0,0,1,0,262.80002)"/>
<path style="fill:none;stroke-width:2;stroke-linecap:butt;stroke-linejoin:miter;stroke:rgb(92.939758%,10.978699%,14.118958%);stroke-opacity:1;stroke-miterlimit:4;" d="M 75.683594 -253.421114 C 75.683594 -253.421114 171.671875 -197.694551 171.671875 -197.694551 " transform="matrix(1,0,0,1,0,262.80002)"/>
<path style="fill:none;stroke-width:2;stroke-linecap:butt;stroke-linejoin:miter;stroke:rgb(92.939758%,10.978699%,14.118958%);stroke-opacity:1;stroke-miterlimit:4;" d="M 75.457031 -226.198458 C 75.457031 -226.198458 172.171875 -254.694551 172.171875 -254.694551 " transform="matrix(1,0,0,1,0,262.80002)"/>
<path style="fill:none;stroke-width:2;stroke-linecap:butt;stroke-linejoin:miter;stroke:rgb(92.939758%,10.978699%,14.118958%);stroke-opacity:1;stroke-miterlimit:4;" d="M 75.726562 -172.522676 C 75.726562 -172.522676 171.171875 -143.694551 171.171875 -143.694551 " transform="matrix(1,0,0,1,0,262.80002)"/>
<path style="fill:none;stroke-width:2;stroke-linecap:butt;stroke-linejoin:miter;stroke:rgb(13.729858%,12.159729%,12.548828%);stroke-opacity:1;stroke-miterlimit:4;" d="M 75.726562 -145.276583 C 75.726562 -145.276583 171.894531 -199.163301 171.894531 -199.163301 " transform="matrix(1,0,0,1,0,262.80002)"/>
<path style="fill:none;stroke-width:2;stroke-linecap:butt;stroke-linejoin:miter;stroke:rgb(13.729858%,12.159729%,12.548828%);stroke-opacity:1;stroke-miterlimit:4;" d="M 75.410156 -91.022676 C 75.410156 -91.022676 171.894531 -172.190645 171.894531 -172.190645 " transform="matrix(1,0,0,1,0,262.80002)"/>
<path style="fill:none;stroke-width:2;stroke-linecap:butt;stroke-linejoin:miter;stroke:rgb(92.939758%,10.978699%,14.118958%);stroke-opacity:1;stroke-miterlimit:4;" d="M 75.507812 -62.858614 C 75.507812 -62.858614 171.671875 -34.194551 171.671875 -34.194551 " transform="matrix(1,0,0,1,0,262.80002)"/>
<g clip-path="url(#clip15)" clip-rule="nonzero">
<path style="fill:none;stroke-width:2;stroke-linecap:butt;stroke-linejoin:miter;stroke:rgb(92.939758%,10.978699%,14.118958%);stroke-opacity:1;stroke-miterlimit:4;" d="M 75.171875 -8.690645 C 75.171875 -8.690645 171.671875 -62.526583 171.671875 -62.526583 " transform="matrix(1,0,0,1,0,262.80002)"/>
</g>
<path style="fill-rule:nonzero;fill:rgb(96.356201%,78.787231%,42.237854%);fill-opacity:1;stroke-width:2;stroke-linecap:butt;stroke-linejoin:miter;stroke:rgb(13.729858%,12.159729%,12.548828%);stroke-opacity:1;stroke-miterlimit:4;" d="M 15.511719 -133.085176 C 15.511719 -136.491426 12.71875 -139.249239 9.273438 -139.249239 C 5.824219 -139.249239 3.03125 -136.491426 3.03125 -133.085176 C 3.03125 -129.682833 5.824219 -126.921114 9.273438 -126.921114 C 12.71875 -126.921114 15.511719 -129.682833 15.511719 -133.085176 Z M 15.511719 -133.085176 " transform="matrix(1,0,0,1,0,262.80002)"/>
<path style="fill-rule:nonzero;fill:rgb(96.356201%,78.787231%,42.237854%);fill-opacity:1;stroke-width:2;stroke-linecap:butt;stroke-linejoin:miter;stroke:rgb(13.729858%,12.159729%,12.548828%);stroke-opacity:1;stroke-miterlimit:4;" d="M 81.96875 -199.495333 C 81.96875 -202.901583 79.175781 -205.659395 75.730469 -205.659395 C 72.28125 -205.659395 69.488281 -202.901583 69.488281 -199.495333 C 69.488281 -196.092989 72.28125 -193.33127 75.730469 -193.33127 C 79.175781 -193.33127 81.96875 -196.092989 81.96875 -199.495333 Z M 81.96875 -199.495333 " transform="matrix(1,0,0,1,0,262.80002)"/>
<path style="fill-rule:nonzero;fill:rgb(96.356201%,78.787231%,42.237854%);fill-opacity:1;stroke-width:2;stroke-linecap:butt;stroke-linejoin:miter;stroke:rgb(13.729858%,12.159729%,12.548828%);stroke-opacity:1;stroke-miterlimit:4;" d="M 81.648438 -91.022676 C 81.648438 -94.428926 78.855469 -97.186739 75.410156 -97.186739 C 71.964844 -97.186739 69.171875 -94.428926 69.171875 -91.022676 C 69.171875 -87.620333 71.964844 -84.858614 75.410156 -84.858614 C 78.855469 -84.858614 81.648438 -87.620333 81.648438 -91.022676 Z M 81.648438 -91.022676 " transform="matrix(1,0,0,1,0,262.80002)"/>
<path style="fill-rule:nonzero;fill:rgb(96.356201%,78.787231%,42.237854%);fill-opacity:1;stroke-width:2;stroke-linecap:butt;stroke-linejoin:miter;stroke:rgb(13.729858%,12.159729%,12.548828%);stroke-opacity:1;stroke-miterlimit:4;" d="M 81.96875 -172.522676 C 81.96875 -175.92502 79.175781 -178.686739 75.730469 -178.686739 C 72.28125 -178.686739 69.488281 -175.92502 69.488281 -172.522676 C 69.488281 -169.120333 72.28125 -166.358614 75.730469 -166.358614 C 79.175781 -166.358614 81.96875 -169.120333 81.96875 -172.522676 Z M 81.96875 -172.522676 " transform="matrix(1,0,0,1,0,262.80002)"/>
<path style="fill-rule:nonzero;fill:rgb(96.356201%,78.787231%,42.237854%);fill-opacity:1;stroke-width:2;stroke-linecap:butt;stroke-linejoin:miter;stroke:rgb(13.729858%,12.159729%,12.548828%);stroke-opacity:1;stroke-miterlimit:4;" d="M 81.921875 -253.421114 C 81.921875 -256.827364 79.128906 -259.585176 75.683594 -259.585176 C 72.234375 -259.585176 69.441406 -256.827364 69.441406 -253.421114 C 69.441406 -250.01877 72.234375 -247.257051 75.683594 -247.257051 C 79.128906 -247.257051 81.921875 -250.01877 81.921875 -253.421114 Z M 81.921875 -253.421114 " transform="matrix(1,0,0,1,0,262.80002)"/>
<path style="fill-rule:nonzero;fill:rgb(96.356201%,78.787231%,42.237854%);fill-opacity:1;stroke-width:2;stroke-linecap:butt;stroke-linejoin:miter;stroke:rgb(13.729858%,12.159729%,12.548828%);stroke-opacity:1;stroke-miterlimit:4;" d="M 81.695312 -226.198458 C 81.695312 -229.604708 78.902344 -232.36252 75.457031 -232.36252 C 72.007812 -232.36252 69.214844 -229.604708 69.214844 -226.198458 C 69.214844 -222.796114 72.007812 -220.034395 75.457031 -220.034395 C 78.902344 -220.034395 81.695312 -222.796114 81.695312 -226.198458 Z M 81.695312 -226.198458 " transform="matrix(1,0,0,1,0,262.80002)"/>
<path style="fill-rule:nonzero;fill:rgb(96.356201%,78.787231%,42.237854%);fill-opacity:1;stroke-width:2;stroke-linecap:butt;stroke-linejoin:miter;stroke:rgb(13.729858%,12.159729%,12.548828%);stroke-opacity:1;stroke-miterlimit:4;" d="M 81.964844 -145.276583 C 81.964844 -148.678926 79.171875 -151.440645 75.726562 -151.440645 C 72.28125 -151.440645 69.488281 -148.678926 69.488281 -145.276583 C 69.488281 -141.874239 72.28125 -139.11252 75.726562 -139.11252 C 79.171875 -139.11252 81.964844 -141.874239 81.964844 -145.276583 Z M 81.964844 -145.276583 " transform="matrix(1,0,0,1,0,262.80002)"/>
<path style="fill-rule:nonzero;fill:rgb(96.356201%,78.787231%,42.237854%);fill-opacity:1;stroke-width:2;stroke-linecap:butt;stroke-linejoin:miter;stroke:rgb(13.729858%,12.159729%,12.548828%);stroke-opacity:1;stroke-miterlimit:4;" d="M 81.96875 -118.30002 C 81.96875 -121.702364 79.175781 -124.464083 75.730469 -124.464083 C 72.28125 -124.464083 69.488281 -121.702364 69.488281 -118.30002 C 69.488281 -114.897676 72.28125 -112.135958 75.730469 -112.135958 C 79.175781 -112.135958 81.96875 -114.897676 81.96875 -118.30002 Z M 81.96875 -118.30002 " transform="matrix(1,0,0,1,0,262.80002)"/>
<path style="fill-rule:nonzero;fill:rgb(96.356201%,78.787231%,42.237854%);fill-opacity:1;stroke-width:2;stroke-linecap:butt;stroke-linejoin:miter;stroke:rgb(13.729858%,12.159729%,12.548828%);stroke-opacity:1;stroke-miterlimit:4;" d="M 81.746094 -62.858614 C 81.746094 -66.264864 78.953125 -69.022676 75.507812 -69.022676 C 72.058594 -69.022676 69.265625 -66.264864 69.265625 -62.858614 C 69.265625 -59.45627 72.058594 -56.694551 75.507812 -56.694551 C 78.953125 -56.694551 81.746094 -59.45627 81.746094 -62.858614 Z M 81.746094 -62.858614 " transform="matrix(1,0,0,1,0,262.80002)"/>
<path style="fill-rule:nonzero;fill:rgb(96.356201%,78.787231%,42.237854%);fill-opacity:1;stroke-width:2;stroke-linecap:butt;stroke-linejoin:miter;stroke:rgb(13.729858%,12.159729%,12.548828%);stroke-opacity:1;stroke-miterlimit:4;" d="M 81.414062 -36.190645 C 81.414062 -39.596895 78.621094 -42.354708 75.175781 -42.354708 C 71.726562 -42.354708 68.933594 -39.596895 68.933594 -36.190645 C 68.933594 -32.788301 71.726562 -30.026583 75.175781 -30.026583 C 78.621094 -30.026583 81.414062 -32.788301 81.414062 -36.190645 Z M 81.414062 -36.190645 " transform="matrix(1,0,0,1,0,262.80002)"/>
<path style=" stroke:none;fill-rule:nonzero;fill:rgb(96.356201%,78.787231%,42.237854%);fill-opacity:1;" d="M 240.457031 131.550781 C 240.457031 128.148438 237.664062 125.386719 234.21875 125.386719 C 230.769531 125.386719 227.976562 128.148438 227.976562 131.550781 C 227.976562 134.957031 230.769531 137.71875 234.21875 137.71875 C 237.664062 137.71875 240.457031 134.957031 240.457031 131.550781 Z M 240.457031 131.550781 "/>
<g clip-path="url(#clip16)" clip-rule="nonzero">
<path style="fill:none;stroke-width:2;stroke-linecap:butt;stroke-linejoin:miter;stroke:rgb(13.729858%,12.159729%,12.548828%);stroke-opacity:1;stroke-miterlimit:4;" d="M 240.457031 -131.249239 C 240.457031 -134.651583 237.664062 -137.413301 234.21875 -137.413301 C 230.769531 -137.413301 227.976562 -134.651583 227.976562 -131.249239 C 227.976562 -127.842989 230.769531 -125.08127 234.21875 -125.08127 C 237.664062 -125.08127 240.457031 -127.842989 240.457031 -131.249239 Z M 240.457031 -131.249239 " transform="matrix(1,0,0,1,0,262.80002)"/>
</g>
<path style="fill-rule:nonzero;fill:rgb(96.356201%,78.787231%,42.237854%);fill-opacity:1;stroke-width:2;stroke-linecap:butt;stroke-linejoin:miter;stroke:rgb(13.729858%,12.159729%,12.548828%);stroke-opacity:1;stroke-miterlimit:4;" d="M 178.132812 -199.163301 C 178.132812 -202.569551 175.339844 -205.327364 171.894531 -205.327364 C 168.449219 -205.327364 165.65625 -202.569551 165.65625 -199.163301 C 165.65625 -195.760958 168.449219 -192.999239 171.894531 -192.999239 C 175.339844 -192.999239 178.132812 -195.760958 178.132812 -199.163301 Z M 178.132812 -199.163301 " transform="matrix(1,0,0,1,0,262.80002)"/>
<path style="fill-rule:nonzero;fill:rgb(96.356201%,78.787231%,42.237854%);fill-opacity:1;stroke-width:2;stroke-linecap:butt;stroke-linejoin:miter;stroke:rgb(13.729858%,12.159729%,12.548828%);stroke-opacity:1;stroke-miterlimit:4;" d="M 177.816406 -90.690645 C 177.816406 -94.092989 175.023438 -96.854708 171.578125 -96.854708 C 168.128906 -96.854708 165.335938 -94.092989 165.335938 -90.690645 C 165.335938 -87.288301 168.128906 -84.526583 171.578125 -84.526583 C 175.023438 -84.526583 177.816406 -87.288301 177.816406 -90.690645 Z M 177.816406 -90.690645 " transform="matrix(1,0,0,1,0,262.80002)"/>
<path style="fill-rule:nonzero;fill:rgb(96.356201%,78.787231%,42.237854%);fill-opacity:1;stroke-width:2;stroke-linecap:butt;stroke-linejoin:miter;stroke:rgb(13.729858%,12.159729%,12.548828%);stroke-opacity:1;stroke-miterlimit:4;" d="M 178.132812 -172.190645 C 178.132812 -175.592989 175.339844 -178.354708 171.894531 -178.354708 C 168.449219 -178.354708 165.65625 -175.592989 165.65625 -172.190645 C 165.65625 -168.788301 168.449219 -166.026583 171.894531 -166.026583 C 175.339844 -166.026583 178.132812 -168.788301 178.132812 -172.190645 Z M 178.132812 -172.190645 " transform="matrix(1,0,0,1,0,262.80002)"/>
<path style="fill-rule:nonzero;fill:rgb(96.356201%,78.787231%,42.237854%);fill-opacity:1;stroke-width:2;stroke-linecap:butt;stroke-linejoin:miter;stroke:rgb(13.729858%,12.159729%,12.548828%);stroke-opacity:1;stroke-miterlimit:4;" d="M 178.085938 -253.089083 C 178.085938 -256.491426 175.292969 -259.253145 171.851562 -259.253145 C 168.402344 -259.253145 165.609375 -256.491426 165.609375 -253.089083 C 165.609375 -249.686739 168.402344 -246.92502 171.851562 -246.92502 C 175.292969 -246.92502 178.085938 -249.686739 178.085938 -253.089083 Z M 178.085938 -253.089083 " transform="matrix(1,0,0,1,0,262.80002)"/>
<path style="fill-rule:nonzero;fill:rgb(96.356201%,78.787231%,42.237854%);fill-opacity:1;stroke-width:2;stroke-linecap:butt;stroke-linejoin:miter;stroke:rgb(13.729858%,12.159729%,12.548828%);stroke-opacity:1;stroke-miterlimit:4;" d="M 177.863281 -225.866426 C 177.863281 -229.272676 175.070312 -232.030489 171.625 -232.030489 C 168.175781 -232.030489 165.382812 -229.272676 165.382812 -225.866426 C 165.382812 -222.464083 168.175781 -219.702364 171.625 -219.702364 C 175.070312 -219.702364 177.863281 -222.464083 177.863281 -225.866426 Z M 177.863281 -225.866426 " transform="matrix(1,0,0,1,0,262.80002)"/>
<path style="fill-rule:nonzero;fill:rgb(96.356201%,78.787231%,42.237854%);fill-opacity:1;stroke-width:2;stroke-linecap:butt;stroke-linejoin:miter;stroke:rgb(13.729858%,12.159729%,12.548828%);stroke-opacity:1;stroke-miterlimit:4;" d="M 178.132812 -144.944551 C 178.132812 -148.346895 175.339844 -151.108614 171.894531 -151.108614 C 168.449219 -151.108614 165.65625 -148.346895 165.65625 -144.944551 C 165.65625 -141.542208 168.449219 -138.780489 171.894531 -138.780489 C 175.339844 -138.780489 178.132812 -141.542208 178.132812 -144.944551 Z M 178.132812 -144.944551 " transform="matrix(1,0,0,1,0,262.80002)"/>
<path style="fill-rule:nonzero;fill:rgb(96.356201%,78.787231%,42.237854%);fill-opacity:1;stroke-width:2;stroke-linecap:butt;stroke-linejoin:miter;stroke:rgb(13.729858%,12.159729%,12.548828%);stroke-opacity:1;stroke-miterlimit:4;" d="M 178.132812 -117.964083 C 178.132812 -121.370333 175.339844 -124.128145 171.894531 -124.128145 C 168.449219 -124.128145 165.65625 -121.370333 165.65625 -117.964083 C 165.65625 -114.561739 168.449219 -111.80002 171.894531 -111.80002 C 175.339844 -111.80002 178.132812 -114.561739 178.132812 -117.964083 Z M 178.132812 -117.964083 " transform="matrix(1,0,0,1,0,262.80002)"/>
<path style="fill-rule:nonzero;fill:rgb(96.356201%,78.787231%,42.237854%);fill-opacity:1;stroke-width:2;stroke-linecap:butt;stroke-linejoin:miter;stroke:rgb(13.729858%,12.159729%,12.548828%);stroke-opacity:1;stroke-miterlimit:4;" d="M 177.914062 -62.526583 C 177.914062 -65.928926 175.117188 -68.690645 171.675781 -68.690645 C 168.226562 -68.690645 165.433594 -65.928926 165.433594 -62.526583 C 165.433594 -59.124239 168.226562 -56.36252 171.675781 -56.36252 C 175.117188 -56.36252 177.914062 -59.124239 177.914062 -62.526583 Z M 177.914062 -62.526583 " transform="matrix(1,0,0,1,0,262.80002)"/>
<path style="fill-rule:nonzero;fill:rgb(96.356201%,78.787231%,42.237854%);fill-opacity:1;stroke-width:2;stroke-linecap:butt;stroke-linejoin:miter;stroke:rgb(13.729858%,12.159729%,12.548828%);stroke-opacity:1;stroke-miterlimit:4;" d="M 177.578125 -35.858614 C 177.578125 -39.264864 174.785156 -42.022676 171.339844 -42.022676 C 167.894531 -42.022676 165.101562 -39.264864 165.101562 -35.858614 C 165.101562 -32.45627 167.894531 -29.694551 171.339844 -29.694551 C 174.785156 -29.694551 177.578125 -32.45627 177.578125 -35.858614 Z M 177.578125 -35.858614 " transform="matrix(1,0,0,1,0,262.80002)"/>
<path style=" stroke:none;fill-rule:nonzero;fill:rgb(96.356201%,78.787231%,42.237854%);fill-opacity:1;" d="M 177.578125 254.441406 C 177.578125 251.035156 174.785156 248.277344 171.339844 248.277344 C 167.894531 248.277344 165.101562 251.035156 165.101562 254.441406 C 165.101562 257.84375 167.894531 260.605469 171.339844 260.605469 C 174.785156 260.605469 177.578125 257.84375 177.578125 254.441406 Z M 177.578125 254.441406 "/>
<g clip-path="url(#clip17)" clip-rule="nonzero">
<path style="fill:none;stroke-width:2;stroke-linecap:butt;stroke-linejoin:miter;stroke:rgb(13.729858%,12.159729%,12.548828%);stroke-opacity:1;stroke-miterlimit:4;" d="M 177.578125 -8.358614 C 177.578125 -11.764864 174.785156 -14.522676 171.339844 -14.522676 C 167.894531 -14.522676 165.101562 -11.764864 165.101562 -8.358614 C 165.101562 -4.95627 167.894531 -2.194551 171.339844 -2.194551 C 174.785156 -2.194551 177.578125 -4.95627 177.578125 -8.358614 Z M 177.578125 -8.358614 " transform="matrix(1,0,0,1,0,262.80002)"/>
</g>
<path style=" stroke:none;fill-rule:nonzero;fill:rgb(96.356201%,78.787231%,42.237854%);fill-opacity:1;" d="M 81.414062 254.109375 C 81.414062 250.703125 78.621094 247.945312 75.175781 247.945312 C 71.726562 247.945312 68.933594 250.703125 68.933594 254.109375 C 68.933594 257.511719 71.726562 260.273438 75.175781 260.273438 C 78.621094 260.273438 81.414062 257.511719 81.414062 254.109375 Z M 81.414062 254.109375 "/>
<g clip-path="url(#clip18)" clip-rule="nonzero">
<path style="fill:none;stroke-width:2;stroke-linecap:butt;stroke-linejoin:miter;stroke:rgb(13.729858%,12.159729%,12.548828%);stroke-opacity:1;stroke-miterlimit:4;" d="M 81.414062 -8.690645 C 81.414062 -12.096895 78.621094 -14.854708 75.175781 -14.854708 C 71.726562 -14.854708 68.933594 -12.096895 68.933594 -8.690645 C 68.933594 -5.288301 71.726562 -2.526583 75.175781 -2.526583 C 78.621094 -2.526583 81.414062 -5.288301 81.414062 -8.690645 Z M 81.414062 -8.690645 " transform="matrix(1,0,0,1,0,262.80002)"/>
</g>
</g>
</svg>
