<?xml version="1.0" encoding="UTF-8"?>
<svg xmlns="http://www.w3.org/2000/svg" xmlns:xlink="http://www.w3.org/1999/xlink" width="288pt" height="72pt" viewBox="0 0 288 72" version="1.1">
<g id="surface1">
<path style="fill:none;stroke-width:2;stroke-linecap:butt;stroke-linejoin:miter;stroke:rgb(13.729858%,12.159729%,12.548828%);stroke-opacity:1;stroke-miterlimit:4;" d="M 0 0 L -19.5 27.5 " transform="matrix(1,0,0,-1,36.5,36.5)"/>
<path style="fill:none;stroke-width:2;stroke-linecap:butt;stroke-linejoin:miter;stroke:rgb(13.729858%,12.159729%,12.548828%);stroke-opacity:1;stroke-miterlimit:4;" d="M 0.001 0.0000125 L 26.501 26.500013 " transform="matrix(1,0,0,-1,251.999,36.6172)"/>
<path style="fill:none;stroke-width:2;stroke-linecap:butt;stroke-linejoin:miter;stroke:rgb(13.729858%,12.159729%,12.548828%);stroke-opacity:1;stroke-miterlimit:4;" d="M 0 0 L -18.707031 -27 " transform="matrix(1,0,0,-1,36.5,36.5)"/>
<path style="fill:none;stroke-width:2;stroke-linecap:butt;stroke-linejoin:miter;stroke:rgb(13.729858%,12.159729%,12.548828%);stroke-opacity:1;stroke-miterlimit:4;" d="M 0.001 0.0000125 L -215.499 0.1172 " transform="matrix(1,0,0,-1,251.999,36.6172)"/>
<path style=" stroke:none;fill-rule:nonzero;fill:rgb(96.403503%,78.808594%,42.222595%);fill-opacity:1;" d="M 22 63.5 C 22 61.355469 20.117188 59.617188 17.792969 59.617188 C 15.472656 59.617188 13.589844 61.355469 13.589844 63.5 C 13.589844 65.644531 15.472656 67.382812 17.792969 67.382812 C 20.117188 67.382812 22 65.644531 22 63.5 "/>
<path style="fill:none;stroke-width:2;stroke-linecap:butt;stroke-linejoin:miter;stroke:rgb(13.729858%,12.159729%,12.548828%);stroke-opacity:1;stroke-miterlimit:4;" d="M 0 0 C 0 2.144531 -1.882812 3.882812 -4.207031 3.882812 C -6.527344 3.882812 -8.410156 2.144531 -8.410156 0 C -8.410156 -2.144531 -6.527344 -3.882812 -4.207031 -3.882812 C -1.882812 -3.882812 0 -2.144531 0 0 Z M 0 0 " transform="matrix(1,0,0,-1,22,63.5)"/>
<path style=" stroke:none;fill-rule:nonzero;fill:rgb(96.403503%,78.808594%,42.222595%);fill-opacity:1;" d="M 256.207031 36.617188 C 256.207031 34.472656 254.320312 32.734375 252 32.734375 C 249.675781 32.734375 247.792969 34.472656 247.792969 36.617188 C 247.792969 38.761719 249.675781 40.5 252 40.5 C 254.320312 40.5 256.207031 38.761719 256.207031 36.617188 "/>
<path style="fill:none;stroke-width:2;stroke-linecap:butt;stroke-linejoin:miter;stroke:rgb(13.729858%,12.159729%,12.548828%);stroke-opacity:1;stroke-miterlimit:4;" d="M 0.00193125 0.0000125 C 0.00193125 2.144544 -1.884787 3.882825 -4.2051 3.882825 C -6.529319 3.882825 -8.412131 2.144544 -8.412131 0.0000125 C -8.412131 -2.144519 -6.529319 -3.8828 -4.2051 -3.8828 C -1.884787 -3.8828 0.00193125 -2.144519 0.00193125 0.0000125 Z M 0.00193125 0.0000125 " transform="matrix(1,0,0,-1,256.2051,36.6172)"/>
<path style=" stroke:none;fill-rule:nonzero;fill:rgb(96.403503%,78.808594%,42.222595%);fill-opacity:1;" d="M 185 36.5 C 185 34.355469 183.117188 32.617188 180.796875 32.617188 C 178.472656 32.617188 176.589844 34.355469 176.589844 36.5 C 176.589844 38.644531 178.472656 40.382812 180.796875 40.382812 C 183.117188 40.382812 185 38.644531 185 36.5 "/>
<path style="fill:none;stroke-width:2;stroke-linecap:butt;stroke-linejoin:miter;stroke:rgb(13.729858%,12.159729%,12.548828%);stroke-opacity:1;stroke-miterlimit:4;" d="M 0 0 C 0 2.144531 -1.882812 3.882812 -4.203125 3.882812 C -6.527344 3.882812 -8.410156 2.144531 -8.410156 0 C -8.410156 -2.144531 -6.527344 -3.882812 -4.203125 -3.882812 C -1.882812 -3.882812 0 -2.144531 0 0 Z M 0 0 " transform="matrix(1,0,0,-1,185,36.5)"/>
<path style=" stroke:none;fill-rule:nonzero;fill:rgb(96.403503%,78.808594%,42.222595%);fill-opacity:1;" d="M 112.707031 36 C 112.707031 33.855469 110.824219 32.117188 108.5 32.117188 C 106.175781 32.117188 104.292969 33.855469 104.292969 36 C 104.292969 38.144531 106.175781 39.882812 108.5 39.882812 C 110.824219 39.882812 112.707031 38.144531 112.707031 36 "/>
<path style="fill:none;stroke-width:2;stroke-linecap:butt;stroke-linejoin:miter;stroke:rgb(13.729858%,12.159729%,12.548828%);stroke-opacity:1;stroke-miterlimit:4;" d="M 0.00093125 0 C 0.00093125 2.144531 -1.881881 3.882812 -4.2061 3.882812 C -6.530319 3.882812 -8.413131 2.144531 -8.413131 0 C -8.413131 -2.144531 -6.530319 -3.882812 -4.2061 -3.882812 C -1.881881 -3.882812 0.00093125 -2.144531 0.00093125 0 Z M 0.00093125 0 " transform="matrix(1,0,0,-1,112.7061,36)"/>
<path style=" stroke:none;fill-rule:nonzero;fill:rgb(96.403503%,78.808594%,42.222595%);fill-opacity:1;" d="M 40.707031 36.5 C 40.707031 34.355469 38.824219 32.617188 36.5 32.617188 C 34.175781 32.617188 32.292969 34.355469 32.292969 36.5 C 32.292969 38.644531 34.175781 40.382812 36.5 40.382812 C 38.824219 40.382812 40.707031 38.644531 40.707031 36.5 "/>
<path style="fill:none;stroke-width:2;stroke-linecap:butt;stroke-linejoin:miter;stroke:rgb(13.729858%,12.159729%,12.548828%);stroke-opacity:1;stroke-miterlimit:4;" d="M 0.00093125 0 C 0.00093125 2.144531 -1.881881 3.882812 -4.2061 3.882812 C -6.530319 3.882812 -8.413131 2.144531 -8.413131 0 C -8.413131 -2.144531 -6.530319 -3.882812 -4.2061 -3.882812 C -1.881881 -3.882812 0.00093125 -2.144531 0.00093125 0 Z M 0.00093125 0 " transform="matrix(1,0,0,-1,40.7061,36.5)"/>
<path style=" stroke:none;fill-rule:nonzero;fill:rgb(96.403503%,78.808594%,42.222595%);fill-opacity:1;" d="M 21.207031 9 C 21.207031 6.855469 19.324219 5.117188 17 5.117188 C 14.675781 5.117188 12.792969 6.855469 12.792969 9 C 12.792969 11.144531 14.675781 12.882812 17 12.882812 C 19.324219 12.882812 21.207031 11.144531 21.207031 9 "/>
<path style="fill:none;stroke-width:2;stroke-linecap:butt;stroke-linejoin:miter;stroke:rgb(13.729858%,12.159729%,12.548828%);stroke-opacity:1;stroke-miterlimit:4;" d="M 0.00093125 0 C 0.00093125 2.144531 -1.881881 3.882812 -4.2061 3.882812 C -6.530319 3.882812 -8.413131 2.144531 -8.413131 0 C -8.413131 -2.144531 -6.530319 -3.882812 -4.2061 -3.882812 C -1.881881 -3.882812 0.00093125 -2.144531 0.00093125 0 Z M 0.00093125 0 " transform="matrix(1,0,0,-1,21.2061,9)"/>
<path style=" stroke:none;fill-rule:nonzero;fill:rgb(96.403503%,78.808594%,42.222595%);fill-opacity:1;" d="M 282.707031 10.117188 C 282.707031 7.972656 280.820312 6.234375 278.5 6.234375 C 276.175781 6.234375 274.292969 7.972656 274.292969 10.117188 C 274.292969 12.261719 276.175781 14 278.5 14 C 280.820312 14 282.707031 12.261719 282.707031 10.117188 "/>
<path style="fill:none;stroke-width:2;stroke-linecap:butt;stroke-linejoin:miter;stroke:rgb(13.729858%,12.159729%,12.548828%);stroke-opacity:1;stroke-miterlimit:4;" d="M 0.00193125 0.0000125 C 0.00193125 2.144544 -1.884787 3.882825 -4.2051 3.882825 C -6.529319 3.882825 -8.412131 2.144544 -8.412131 0.0000125 C -8.412131 -2.144519 -6.529319 -3.8828 -4.2051 -3.8828 C -1.884787 -3.8828 0.00193125 -2.144519 0.00193125 0.0000125 Z M 0.00193125 0.0000125 " transform="matrix(1,0,0,-1,282.7051,10.1172)"/>
</g>
</svg>
