<svg xmlns="http://www.w3.org/2000/svg" xmlns:xlink="http://www.w3.org/1999/xlink" xmlns:inkscape="http://www.inkscape.org/namespaces/inkscape" version="1.1" width="194" height="61" viewBox="0 0 194 61">
<defs>
<clipPath id="clip_1">
<path transform="matrix(.47046,0,0,-.47048823,-13.103275,59.396524)" d="M0 0H504V108H0Z"/>
</clipPath>
<clipPath id="clip_2">
<path transform="matrix(.47046,0,0,-.47048823,-13.103275,59.396524)" d="M0 108H504V0H0Z"/>
</clipPath>
<path id="font_3_1" d="M.37298585 .37835694C.35499574 .41537477 .32598878 .4423828 .2809906 .4423828 .1639862 .4423828 .039993287 .29533387 .039993287 .14929199 .039993287 .055267335 .09498596-.0107421879 .17298889-.0107421879 .19299317-.0107421879 .24299622-.0067443849 .30299378 .06427002 .31098939 .022247315 .34599305-.0107421879 .3939972-.0107421879 .42900086-.0107421879 .45199586 .012252808 .46798707 .044265748 .4850006 .08027649 .49798585 .14129639 .49798585 .14329529 .49798585 .1532898 .4889984 .1532898 .48599244 .1532898 .47599793 .1532898 .47499085 .14929199 .47200013 .13528443 .45498658 .07026672 .43699647 .011245728 .3959961 .011245728 .36898805 .011245728 .3659973 .037261964 .3659973 .057266237 .3659973 .07926941 .36799623 .08728027 .3789978 .13128662 .3899994 .17329407 .3919983 .18330384 .40098573 .22131348L.43699647 .36135865C.44400025 .38935853 .44400025 .39135743 .44400025 .39537049 .44400025 .41236878 .43199159 .42237855 .4149933 .42237855 .3909912 .42237855 .37599183 .4003601 .37298585 .37835694M.30799867 .119277957C.30299378 .10127258 .30299378 .09927368 .28799439 .08227539 .24398804 .027252198 .20298767 .011245728 .1749878 .011245728 .125 .011245728 .11099243 .06626892 .11099243 .105285648 .11099243 .1552887 .14299011 .27833558 .1659851 .32434083 .19699097 .38336183 .24198914 .42037965 .28199769 .42037965 .34700013 .42037965 .36099244 .3383484 .36099244 .33235169 .36099244 .32633973 .35899354 .32034303 .35798646 .31533814L.30799867 .119277957Z"/>
<path id="font_3_2" d="M.23899842 .68333438C.23899842 .6843262 .23899842 .69433596 .22599793 .69433596 .20298767 .69433596 .12998963 .6863251 .10398865 .6843262 .09599304 .68333438 .084991458 .6823273 .084991458 .6643219 .084991458 .6523285 .09399414 .6523285 .10899353 .6523285 .15699768 .6523285 .15899658 .6453247 .15899658 .6353302 .15899658 .6283264 .1499939 .5943451 .14498902 .573349L.06298828 .24731446C.050994874 .1973114 .04699707 .18130493 .04699707 .14628601 .04699707 .05126953 .099990848-.0107421879 .17399597-.0107421879 .2919922-.0107421879 .4149933 .1382904 .4149933 .28233338 .4149933 .37335206 .3619995 .4423828 .28199769 .4423828 .23599243 .4423828 .19499207 .41337586 .16499329 .38235475L.23899842 .68333438M.14498902 .30534364C.15098572 .3273468 .15098572 .3293457 .1599884 .3403473 .20899964 .405365 .2539978 .42037965 .27999879 .42037965 .31599427 .42037965 .34298707 .3903656 .34298707 .32633973 .34298707 .26733399 .30999757 .15229798 .2919922 .11428833 .25898744 .04725647 .21299744 .011245728 .17399597 .011245728 .13999939 .011245728 .10699463 .038253786 .10699463 .11227417 .10699463 .13128662 .10699463 .15029907 .12298584 .21331787L.14498902 .30534364Z"/>
<path id="font_3_3" d="M.3959961 .37998963C.37998963 .37998963 .3659973 .37998963 .35198976 .36598207 .33599855 .35098268 .33399964 .33398438 .33399964 .3269806 .33399964 .30297853 .35198976 .2919922 .37098695 .2919922 .3999939 .2919922 .4269867 .315979 .4269867 .35598756 .4269867 .40522767 .37998963 .4423828 .30899049 .4423828 .17399597 .4423828 .040985109 .2989807 .040985109 .15811157 .040985109 .06819153 .09899902-.0107421879 .20298767-.0107421879 .34599305-.0107421879 .42999269 .09516907 .42999269 .107162479 .42999269 .11315918 .42399598 .120147708 .41799928 .120147708 .41299439 .120147708 .41099549 .1181488 .40499879 .1101532 .32598878 .011245728 .21699524 .011245728 .20498657 .011245728 .14199829 .011245728 .114990238 .06021118 .114990238 .120147708 .114990238 .1611023 .1349945 .25801087 .16899109 .31999208 .19999695 .37698365 .25498963 .42037965 .30999757 .42037965 .34399415 .42037965 .38198854 .40724183 .3959961 .37998963Z"/>
<path id="font_3_4" d="M.5159912 .68333438C.5159912 .6843262 .5159912 .69433596 .5029907 .69433596 .48799134 .69433596 .3929901 .68533328 .37599183 .68333438 .36799623 .6823273 .3619995 .6773224 .3619995 .6643219 .3619995 .6523285 .37098695 .6523285 .38598634 .6523285 .43399049 .6523285 .43598939 .6453247 .43598939 .6353302L.43299867 .6153412 .37298585 .37835694C.35499574 .41537477 .32598878 .4423828 .2809906 .4423828 .1639862 .4423828 .039993287 .29533387 .039993287 .14929199 .039993287 .055267335 .09498596-.0107421879 .17298889-.0107421879 .19299317-.0107421879 .24299622-.0067443849 .30299378 .06427002 .31098939 .022247315 .34599305-.0107421879 .3939972-.0107421879 .42900086-.0107421879 .45199586 .012252808 .46798707 .044265748 .4850006 .08027649 .49798585 .14129639 .49798585 .14329529 .49798585 .1532898 .4889984 .1532898 .48599244 .1532898 .47599793 .1532898 .47499085 .14929199 .47200013 .13528443 .45498658 .07026672 .43699647 .011245728 .3959961 .011245728 .36898805 .011245728 .3659973 .037261964 .3659973 .057266237 .3659973 .08126831 .36799623 .088272098 .37199403 .105285648L.5159912 .68333438M.30799867 .119277957C.30299378 .10127258 .30299378 .09927368 .28799439 .08227539 .24398804 .027252198 .20298767 .011245728 .1749878 .011245728 .125 .011245728 .11099243 .06626892 .11099243 .105285648 .11099243 .1552887 .14299011 .27833558 .1659851 .32434083 .19699097 .38336183 .24198914 .42037965 .28199769 .42037965 .34700013 .42037965 .36099244 .3383484 .36099244 .33235169 .36099244 .32633973 .35899354 .32034303 .35798646 .31533814L.30799867 .119277957Z"/>
<path id="font_3_5" d="M.18699646 .23144531C.21598816 .23144531 .2899933 .23344422 .33999635 .2544403 .4099884 .28442384 .4149933 .34339906 .4149933 .35740663 .4149933 .40138246 .3769989 .4423828 .30799867 .4423828 .19699097 .4423828 .04598999 .34539796 .04598999 .17037964 .04598999 .06829834 .10499573-.0107421879 .20298767-.0107421879 .34599305-.0107421879 .42999269 .095321658 .42999269 .10733032 .42999269 .113342288 .42399598 .12034607 .41799928 .12034607 .41299439 .12034607 .41099549 .11834717 .40499879 .1103363 .32598878 .011245728 .21699524 .011245728 .20498657 .011245728 .1269989 .011245728 .117996219 .095321658 .117996219 .12734986 .117996219 .13935852 .11898804 .17037964 .13398743 .23144531H.18699646M.13999939 .25343324C.1789856 .40538026 .28199769 .42037965 .30799867 .42037965 .35499574 .42037965 .38198854 .39138795 .38198854 .35740663 .38198854 .25343324 .22200012 .25343324 .18099976 .25343324H.13999939Z"/>
<path id="font_3_6" d="M.2869873 .68333438C.2869873 .6843262 .2869873 .69433596 .27398683 .69433596 .25099183 .69433596 .17799378 .6863251 .1519928 .6843262 .14399719 .68333438 .1329956 .6823273 .1329956 .6643219 .1329956 .6523285 .14199829 .6523285 .15699768 .6523285 .20498657 .6523285 .20698548 .6453247 .20698548 .6353302L.20399475 .6153412 .05899048 .039260866C.054992677 .025253296 .054992677 .023254395 .054992677 .01725769 .054992677-.0057525637 .07499695-.0107421879 .083999637-.0107421879 .099990848-.0107421879 .115997318 .0012512207 .12098694 .015258789L.13999939 .091278079 .1619873 .18130493C.16799927 .2033081 .17399597 .22531128 .1789856 .24832154 .18099976 .25431825 .18899536 .28733827 .18998719 .29333497 .19299317 .30233766 .22399903 .35835267 .2579956 .38536073 .27999879 .4013672 .31098939 .42037965 .35398866 .42037965 .39698792 .42037965 .4079895 .3863678 .4079895 .35035707 .4079895 .29634095 .36999513 .18730164 .34599305 .12628174 .33799745 .103271488 .33299256 .091278079 .33299256 .0712738 .33299256 .024261475 .36799623-.0107421879 .4149933-.0107421879 .5089874-.0107421879 .54599 .13528443 .54599 .14329529 .54599 .1532898 .5369873 .1532898 .5339966 .1532898 .5239868 .1532898 .5239868 .15029907 .5189972 .13528443 .5039978 .08227539 .47200013 .011245728 .4169922 .011245728 .3999939 .011245728 .3929901 .021255494 .3929901 .044265748 .3929901 .0692749 .4019928 .09327698 .41099549 .11528015 .4269867 .15829468 .47200013 .2773285 .47200013 .3353424 .47200013 .4003601 .43199159 .4423828 .35699464 .4423828 .2939911 .4423828 .24598694 .41137696 .20899964 .36535646L.2869873 .68333438Z"/>
<path id="font_4_1" d="M.2939911 .64004519C.2939911 .66400149 .2939911 .6660156 .2709961 .6660156 .20899964 .60227969 .12098694 .60227969 .08898926 .60227969V.57128909C.10899353 .57128909 .16799927 .57128909 .21998596 .5972748V.07902527C.21998596 .042999269 .21699524 .0309906 .1269989 .0309906H.09498596V0C.12998963 .0029907227 .21699524 .0029907227 .25698854 .0029907227 .29699708 .0029907227 .38398744 .0029907227 .4189911 0V.0309906H.3869934C.29699708 .0309906 .2939911 .041992189 .2939911 .07902527V.64004519Z"/>
<path id="font_4_2" d="M.1269989 .07699585 .23298645 .18003845C.3889923 .31811524 .44898988 .3721466 .44898988 .47216798 .44898988 .5860901 .35899354 .6660156 .23699951 .6660156 .12399292 .6660156 .049987794 .57411196 .049987794 .48516847 .049987794 .4291687 .099990848 .4291687 .102996829 .4291687 .11999512 .4291687 .15499878 .44117738 .15499878 .48217774 .15499878 .5081787 .13699341 .5341797 .101989749 .5341797 .09399414 .5341797 .09199524 .5341797 .08898926 .5331726 .11199951 .59806826 .1659851 .63500979 .22399903 .63500979 .31498719 .63500979 .35798646 .5541382 .35798646 .47216798 .35798646 .39215089 .30799867 .31311036 .25299073 .25108338L.06098938 .036987306C.049987794 .025985718 .049987794 .023986817 .049987794 0H.42099L.44898988 .17404175H.42399598C.4189911 .14402771 .4119873 .1000061 .4019928 .084991458 .394989 .07699585 .32899476 .07699585 .30699159 .07699585H.1269989Z"/>
<path id="font_4_3" d="M.2899933 .35191346C.37199403 .37893678 .42999269 .4490509 .42999269 .52809146 .42999269 .6100464 .34199525 .6660156 .24598694 .6660156 .14498902 .6660156 .068984989 .60606387 .068984989 .53009036 .068984989 .49710084 .09098816 .47808839 .11999512 .47808839 .15098572 .47808839 .17098999 .50009158 .17098999 .5290985 .17098999 .57910159 .12399292 .57910159 .10899353 .57910159 .13999939 .62802127 .20599365 .64100649 .24198914 .64100649 .2829895 .64100649 .33799745 .6190338 .33799745 .5290985 .33799745 .51708987 .33599855 .45906068 .30999757 .4149933 .27999879 .36691285 .24598694 .36390687 .22099304 .36291505 .21299744 .36190797 .18899536 .35990907 .18199158 .35990907 .17399597 .35890199 .16699219 .35791017 .16699219 .3479004 .16699219 .33691407 .17399597 .33691407 .19099427 .33691407H.23498535C.31698609 .33691407 .35398866 .2686615 .35398866 .17037964 .35398866 .034469606 .2849884 .0055389406 .24099732 .0055389406 .19799805 .0055389406 .12298584 .022491456 .08799744 .08137512 .12298584 .07637024 .1539917 .09837341 .1539917 .1363678 .1539917 .17237854 .1269989 .19238281 .09799194 .19238281 .07398987 .19238281 .041992189 .17837525 .041992189 .1343689 .041992189 .043441774 .1349945-.022460938 .24398804-.022460938 .3659973-.022460938 .45700074 .06838989 .45700074 .17037964 .45700074 .252594 .3939972 .33088685 .2899933 .35191346Z"/>
<path id="font_4_4" d="M.2939911 .16503906V.07800293C.2939911 .041992189 .2919922 .0309906 .21798706 .0309906H.19699097V0C.23799134 .0029907227 .2899933 .0029907227 .33198548 .0029907227 .37399293 .0029907227 .4269867 .0029907227 .46798707 0V.0309906H.44699098C.37298585 .0309906 .37098695 .041992189 .37098695 .07800293V.16503906H.47099305V.19602967H.37098695V.65075686C.37098695 .67074587 .37098695 .6767578 .35499574 .6767578 .34599305 .6767578 .34298707 .6767578 .33499146 .66474917L.027999878 .19602967V.16503906H.2939911M.2999878 .19602967H.055999757L.2999878 .5688019V.19602967Z"/>
<path id="font_4_5" d="M.44898988 .20022583C.44898988 .3193512 .36698915 .41944886 .25898744 .41944886 .21099854 .41944886 .16799927 .40345765 .13198853 .36842347V.5637665C.1519928 .5577698 .18499756 .55078127 .21699524 .55078127 .33999635 .55078127 .4099884 .6417694 .4099884 .6547699 .4099884 .6607666 .40699769 .6657715 .3999939 .6657715 .39898683 .6657715 .39698792 .6657715 .3919983 .66278079 .37199403 .6537781 .32299806 .6337738 .2559967 .6337738 .21598816 .6337738 .16999817 .6407776 .12298584 .6617737 .114990238 .66477969 .11299133 .66477969 .11099243 .66477969 .100997928 .66477969 .100997928 .6567688 .100997928 .6407776V.34439088C.100997928 .32637025 .100997928 .31835938 .114990238 .31835938 .12199402 .31835938 .12399292 .32136537 .12799073 .32736207 .13899231 .3433838 .17599488 .39746095 .25698854 .39746095 .30899049 .39746095 .33399964 .35139466 .34199525 .33337403 .35798646 .29632569 .3600006 .25727845 .3600006 .20722962 .3600006 .17222595 .3600006 .11222839 .33599855 .07035828 .31199647 .031463624 .2749939 .0055389406 .22898865 .0055389406 .1559906 .0055389406 .09899902 .058380128 .08198547 .11723328 .084991458 .1162262 .08799744 .115234378 .09899902 .115234378 .13198853 .115234378 .14898682 .14022827 .14898682 .16423035 .14898682 .18823242 .13198853 .21322632 .09899902 .21322632 .084991458 .21322632 .049987794 .20622254 .049987794 .16023255 .049987794 .07434082 .11898804-.022460938 .23098755-.022460938 .34700013-.022460938 .44898988 .073349 .44898988 .20022583Z"/>
<path id="font_4_6" d="M.13198853 .327713V.35173036C.13198853 .6047821 .2559967 .64100649 .30699159 .64100649 .33099366 .64100649 .37298585 .634964 .394989 .6007538 .37998963 .6007538 .33999635 .6007538 .33999635 .5557556 .33999635 .524765 .3639984 .5097656 .38598634 .5097656 .4019928 .5097656 .43199159 .51875308 .43199159 .5577545 .43199159 .6178589 .3880005 .6660156 .30499269 .6660156 .1769867 .6660156 .041992189 .5367584 .041992189 .31570436 .041992189 .048553468 .1579895-.022460938 .25099183-.022460938 .3619995-.022460938 .45700074 .07156372 .45700074 .2036438 .45700074 .33070375 .36799623 .4267578 .25698854 .4267578 .18899536 .4267578 .1519928 .37573243 .13198853 .327713M.25099183 .0055389406C.18798828 .0055389406 .1579895 .06556702 .1519928 .080566409 .13398743 .127594 .13398743 .2076416 .13398743 .22564698 .13398743 .30369569 .1659851 .40374757 .2559967 .40374757 .27198792 .40374757 .31799317 .40374757 .34899903 .34172059 .36698915 .30470277 .36698915 .2536621 .36698915 .20463562 .36698915 .15661621 .36698915 .10658264 .34999085 .0705719 .31999208 .010528564 .27398683 .0055389406 .25099183 .0055389406Z"/>
</defs>
<g clip-path="url(#clip_1)">
<g inkscape:groupmode="layer" inkscape:label="Layer 1">
<path transform="matrix(.47046,0,0,-.47048823,10.591772,27.397347)" stroke-width="4" stroke-linecap="butt" stroke-miterlimit="4" stroke-linejoin="miter" fill="none" stroke="#231f20" d="M0 0 55.738 27.869"/>
<path transform="matrix(.47046,0,0,-.47048823,36.81418,14.285267)" stroke-width="4" stroke-linecap="butt" stroke-miterlimit="4" stroke-linejoin="miter" fill="none" stroke="#231f20" d="M0 0 60.356-23.822"/>
<path transform="matrix(.47046,0,0,-.47048823,64.32182,25.854714)" stroke-width="4" stroke-linecap="butt" stroke-miterlimit="4" stroke-linejoin="miter" fill="none" stroke="#231f20" d="M0 0-40.19-61.527"/>
<path transform="matrix(.47046,0,0,-.47048823,64.32182,25.854714)" stroke-width="4" stroke-linecap="butt" stroke-miterlimit="4" stroke-linejoin="miter" fill="none" stroke="#231f20" d="M0 0-45.655-18.358"/>
<path transform="matrix(.47046,0,0,-.47048823,65.20926,25.493329)" stroke-width="4" stroke-linecap="butt" stroke-miterlimit="4" stroke-linejoin="miter" fill="none" stroke="#231f20" d="M0 0 10.682-57.599"/>
<path transform="matrix(.47046,0,0,-.47048823,42.843126,34.491888)" stroke-width="4" stroke-linecap="butt" stroke-miterlimit="4" stroke-linejoin="miter" fill="none" stroke="#231f20" d="M0 0-70.192 14.533"/>
<g clip-path="url(#clip_2)">
<path transform="matrix(.47046,0,0,-.47048823,40.48367,14.285267)" d="M0 0C0 3.977-3.492 7.2-7.799 7.2-12.107 7.2-15.6 3.977-15.6 0-15.6-3.976-12.107-7.2-7.799-7.2-3.492-7.2 0-3.976 0 0" fill="#f9cd83"/>
<path transform="matrix(.47046,0,0,-.47048823,40.48367,14.285267)" stroke-width="4" stroke-linecap="butt" stroke-miterlimit="4" stroke-linejoin="miter" fill="none" stroke="#231f20" d="M0 0C0 3.977-3.492 7.2-7.799 7.2-12.107 7.2-15.6 3.977-15.6 0-15.6-3.976-12.107-7.2-7.799-7.2-3.492-7.2 0-3.976 0 0Z"/>
<path transform="matrix(.47046,0,0,-.47048823,73.90425,52.59284)" d="M0 0C0 3.977-3.492 7.2-7.799 7.2-12.107 7.2-15.6 3.977-15.6 0-15.6-3.976-12.107-7.2-7.799-7.2-3.492-7.2 0-3.976 0 0" fill="#f9cd83"/>
<path transform="matrix(.47046,0,0,-.47048823,73.90425,52.59284)" stroke-width="4" stroke-linecap="butt" stroke-miterlimit="4" stroke-linejoin="miter" fill="none" stroke="#231f20" d="M0 0C0 3.977-3.492 7.2-7.799 7.2-12.107 7.2-15.6 3.977-15.6 0-15.6-3.976-12.107-7.2-7.799-7.2-3.492-7.2 0-3.976 0 0Z"/>
<path transform="matrix(.47046,0,0,-.47048823,46.512617,34.491888)" d="M0 0C0 3.977-3.492 7.2-7.799 7.2-12.107 7.2-15.6 3.977-15.6 0-15.6-3.976-12.107-7.2-7.799-7.2-3.492-7.2 0-3.976 0 0" fill="#f9cd83"/>
<path transform="matrix(.47046,0,0,-.47048823,46.512617,34.491888)" stroke-width="4" stroke-linecap="butt" stroke-miterlimit="4" stroke-linejoin="miter" fill="none" stroke="#231f20" d="M0 0C0 3.977-3.492 7.2-7.799 7.2-12.107 7.2-15.6 3.977-15.6 0-15.6-3.976-12.107-7.2-7.799-7.2-3.492-7.2 0-3.976 0 0Z"/>
<path transform="matrix(.47046,0,0,-.47048823,68.87875,25.493329)" d="M0 0C0 3.977-3.492 7.2-7.799 7.2-12.107 7.2-15.6 3.977-15.6 0-15.6-3.976-12.107-7.2-7.799-7.2-3.492-7.2 0-3.976 0 0" fill="#f9cd83"/>
<path transform="matrix(.47046,0,0,-.47048823,68.87875,25.493329)" stroke-width="4" stroke-linecap="butt" stroke-miterlimit="4" stroke-linejoin="miter" fill="none" stroke="#231f20" d="M0 0C0 3.977-3.492 7.2-7.799 7.2-12.107 7.2-15.6 3.977-15.6 0-15.6-3.976-12.107-7.2-7.799-7.2-3.492-7.2 0-3.976 0 0Z"/>
<path transform="matrix(.47046,0,0,-.47048823,49.08335,54.802396)" d="M0 0C0 3.977-3.492 7.2-7.799 7.2-12.107 7.2-15.6 3.977-15.6 0-15.6-3.976-12.107-7.2-7.799-7.2-3.492-7.2 0-3.976 0 0" fill="#f9cd83"/>
<path transform="matrix(.47046,0,0,-.47048823,49.08335,54.802396)" stroke-width="4" stroke-linecap="butt" stroke-miterlimit="4" stroke-linejoin="miter" fill="none" stroke="#231f20" d="M0 0C0 3.977-3.492 7.2-7.799 7.2-12.107 7.2-15.6 3.977-15.6 0-15.6-3.976-12.107-7.2-7.799-7.2-3.492-7.2 0-3.976 0 0Z"/>
<path transform="matrix(.47046,0,0,-.47048823,14.261267,27.397347)" d="M0 0C0 3.977-3.492 7.2-7.799 7.2-12.107 7.2-15.6 3.977-15.6 0-15.6-3.976-12.107-7.2-7.799-7.2-3.492-7.2 0-3.976 0 0" fill="#f9cd83"/>
<path transform="matrix(.47046,0,0,-.47048823,14.261267,27.397347)" stroke-width="4" stroke-linecap="butt" stroke-miterlimit="4" stroke-linejoin="miter" fill="none" stroke="#231f20" d="M0 0C0 3.977-3.492 7.2-7.799 7.2-12.107 7.2-15.6 3.977-15.6 0-15.6-3.976-12.107-7.2-7.799-7.2-3.492-7.2 0-3.976 0 0Z"/>
<path transform="matrix(.47046,0,0,-.47048823,123.37608,26.970284)" stroke-width="4" stroke-linecap="butt" stroke-miterlimit="4" stroke-linejoin="miter" fill="none" stroke="#231f20" d="M0 0 72.837-58.831"/>
<path transform="matrix(.47046,0,0,-.47048823,123.37608,26.970284)" stroke-width="4" stroke-linecap="butt" stroke-miterlimit="4" stroke-linejoin="miter" fill="none" stroke="#231f20" d="M0 0 55.737 27.869"/>
<path transform="matrix(.47046,0,0,-.47048823,149.59825,13.858158)" stroke-width="4" stroke-linecap="butt" stroke-miterlimit="4" stroke-linejoin="miter" fill="none" stroke="#231f20" d="M0 0 60.356-23.822"/>
<path transform="matrix(.47046,0,0,-.47048823,177.10591,25.427647)" stroke-width="4" stroke-linecap="butt" stroke-miterlimit="4" stroke-linejoin="miter" fill="none" stroke="#231f20" d="M0 0-40.19-61.527"/>
<path transform="matrix(.47046,0,0,-.47048823,177.10591,25.427647)" stroke-width="4" stroke-linecap="butt" stroke-miterlimit="4" stroke-linejoin="miter" fill="none" stroke="#231f20" d="M0 0-45.654-18.359"/>
<path transform="matrix(.47046,0,0,-.47048823,177.99353,25.066269)" stroke-width="4" stroke-linecap="butt" stroke-miterlimit="4" stroke-linejoin="miter" fill="none" stroke="#231f20" d="M0 0 10.682-57.6"/>
<path transform="matrix(.47046,0,0,-.47048823,153.26776,13.858158)" d="M0 0C0 3.977-3.492 7.2-7.799 7.2-12.107 7.2-15.6 3.977-15.6 0-15.6-3.976-12.107-7.2-7.799-7.2-3.492-7.2 0-3.976 0 0" fill="#f9cd83"/>
<path transform="matrix(.47046,0,0,-.47048823,153.26776,13.858158)" stroke-width="4" stroke-linecap="butt" stroke-miterlimit="4" stroke-linejoin="miter" fill="none" stroke="#231f20" d="M0 0C0 3.977-3.492 7.2-7.799 7.2-12.107 7.2-15.6 3.977-15.6 0-15.6-3.976-12.107-7.2-7.799-7.2-3.492-7.2 0-3.976 0 0Z"/>
<path transform="matrix(.47046,0,0,-.47048823,186.68834,52.166437)" d="M0 0C0 3.977-3.492 7.201-7.799 7.201-12.107 7.201-15.6 3.977-15.6 0-15.6-3.975-12.107-7.199-7.799-7.199-3.492-7.199 0-3.975 0 0" fill="#f9cd83"/>
<path transform="matrix(.47046,0,0,-.47048823,186.68834,52.166437)" stroke-width="4" stroke-linecap="butt" stroke-miterlimit="4" stroke-linejoin="miter" fill="none" stroke="#231f20" d="M0 0C0 3.977-3.492 7.201-7.799 7.201-12.107 7.201-15.6 3.977-15.6 0-15.6-3.975-12.107-7.199-7.799-7.199-3.492-7.199 0-3.975 0 0Z"/>
<path transform="matrix(.47046,0,0,-.47048823,159.29642,34.065294)" d="M0 0C0 3.977-3.492 7.201-7.799 7.201-12.107 7.201-15.6 3.977-15.6 0-15.6-3.975-12.107-7.2-7.799-7.2-3.492-7.2 0-3.975 0 0" fill="#f9cd83"/>
<path transform="matrix(.47046,0,0,-.47048823,159.29642,34.065294)" stroke-width="4" stroke-linecap="butt" stroke-miterlimit="4" stroke-linejoin="miter" fill="none" stroke="#231f20" d="M0 0C0 3.977-3.492 7.201-7.799 7.201-12.107 7.201-15.6 3.977-15.6 0-15.6-3.975-12.107-7.2-7.799-7.2-3.492-7.2 0-3.975 0 0Z"/>
<path transform="matrix(.47046,0,0,-.47048823,181.66255,25.066269)" d="M0 0C0 3.977-3.492 7.2-7.799 7.2-12.107 7.2-15.6 3.977-15.6 0-15.6-3.976-12.107-7.2-7.799-7.2-3.492-7.2 0-3.976 0 0" fill="#f9cd83"/>
<path transform="matrix(.47046,0,0,-.47048823,181.66255,25.066269)" stroke-width="4" stroke-linecap="butt" stroke-miterlimit="4" stroke-linejoin="miter" fill="none" stroke="#231f20" d="M0 0C0 3.977-3.492 7.2-7.799 7.2-12.107 7.2-15.6 3.977-15.6 0-15.6-3.976-12.107-7.2-7.799-7.2-3.492-7.2 0-3.976 0 0Z"/>
<path transform="matrix(.47046,0,0,-.47048823,161.86743,54.37552)" d="M0 0C0 3.977-3.492 7.199-7.799 7.199-12.107 7.199-15.6 3.977-15.6 0-15.6-3.977-12.107-7.201-7.799-7.201-3.492-7.201 0-3.977 0 0" fill="#f9cd83"/>
<path transform="matrix(.47046,0,0,-.47048823,161.86743,54.37552)" stroke-width="4" stroke-linecap="butt" stroke-miterlimit="4" stroke-linejoin="miter" fill="none" stroke="#231f20" d="M0 0C0 3.977-3.492 7.199-7.799 7.199-12.107 7.199-15.6 3.977-15.6 0-15.6-3.977-12.107-7.201-7.799-7.201-3.492-7.201 0-3.977 0 0Z"/>
<path transform="matrix(.47046,0,0,-.47048823,127.04512,26.970284)" d="M0 0C0 3.977-3.492 7.2-7.799 7.2-12.107 7.2-15.6 3.977-15.6 0-15.6-3.976-12.107-7.2-7.799-7.2-3.492-7.2 0-3.976 0 0" fill="#f9cd83"/>
<path transform="matrix(.47046,0,0,-.47048823,127.04512,26.970284)" stroke-width="4" stroke-linecap="butt" stroke-miterlimit="4" stroke-linejoin="miter" fill="none" stroke="#231f20" d="M0 0C0 3.977-3.492 7.2-7.799 7.2-12.107 7.2-15.6 3.977-15.6 0-15.6-3.976-12.107-7.2-7.799-7.2-3.492-7.2 0-3.976 0 0Z"/>
</g>
</g>
</g>
<use data-text="a" xlink:href="#font_3_1" transform="matrix(9.9626,0,0,-9.963197,1.1230011,28.570275)"/>
<use data-text="b" xlink:href="#font_3_2" transform="matrix(9.9626,0,0,-9.963197,35.503999,57.02498)"/>
<use data-text="c" xlink:href="#font_3_3" transform="matrix(9.9626,0,0,-9.963197,72.256,26.19913)"/>
<use data-text="d" xlink:href="#font_3_4" transform="matrix(9.9626,0,0,-9.963197,34.319,9.600135)"/>
<use data-text="e" xlink:href="#font_3_5" transform="matrix(9.9626,0,0,-9.963197,76.998,54.653837)"/>
<use data-text="h" xlink:href="#font_3_6" transform="matrix(9.9626,0,0,-9.963197,40.246004,28.57027)"/>
<use data-text="1" xlink:href="#font_4_1" transform="matrix(9.9626,0,0,-9.963197,183.698,27.3842)"/>
<use data-text="2" xlink:href="#font_4_2" transform="matrix(9.9626,0,0,-9.963197,145.76,35.683698)"/>
<use data-text="3" xlink:href="#font_4_3" transform="matrix(9.9626,0,0,-9.963197,188.44,54.65383)"/>
<use data-text="4" xlink:href="#font_4_4" transform="matrix(9.9626,0,0,-9.963197,146.946,8.414061)"/>
<use data-text="5" xlink:href="#font_4_5" transform="matrix(9.9626,0,0,-9.963197,112.565,28.57027)"/>
<use data-text="6" xlink:href="#font_4_6" transform="matrix(9.9626,0,0,-9.963197,148.13101,57.02497)"/>
</svg>
