<svg xmlns="http://www.w3.org/2000/svg" xmlns:xlink="http://www.w3.org/1999/xlink" xmlns:inkscape="http://www.inkscape.org/namespaces/inkscape" version="1.1" width="201" height="203" viewBox="0 0 201 203">
<defs>
<clipPath id="clip_1">
<path transform="matrix(0,-.750015,-.75003746,-0,198.00598,190.90515)" d="M0 0H244.8V262.8H0Z"/>
</clipPath>
<clipPath id="clip_2">
<path transform="matrix(0,-.750015,-.75003746,-0,198.00598,190.90515)" d="M0 262.8H244.8V0H0Z"/>
</clipPath>
<path id="font_3_1" d="M.644989 .69506838C.644989 .69807437 .6429901 .7050781 .6339874 .7050781 .6289978 .7050781 .6279907 .70407107 .6159973 .6900635L.56799319 .6330414C.5419922 .68006899 .48999024 .7050781 .4249878 .7050781 .2979889 .7050781 .17799378 .58999636 .17799378 .4689026 .17799378 .38783265 .23098755 .34179688 .28199769 .32678224L.3889923 .2987671C.42599488 .2897644 .48098756 .27474977 .48098756 .19267273 .48098756 .1026001 .39898683 .008529663 .30099488 .008529663 .23699951 .008529663 .12599182 .030548096 .12599182 .15464783 .12599182 .17866516 .1309967 .2026825 .13198853 .20869446 .1329956 .21269226 .13398743 .21369934 .13398743 .21569824 .13398743 .22570801 .1269989 .22669983 .12199402 .22669983 .116989139 .22669983 .114990238 .22570801 .11199951 .22270203 .10798645 .21870423 .051986696-.009475708 .051986696-.012466431 .051986696-.018463135 .056991579-.022460938 .06298828-.022460938 .067993167-.022460938 .068984989-.021469117 .08099365-.007461548L.12998963 .049560548C.17298889-.008468628 .24099732-.022460938 .29899598-.022460938 .43499757-.022460938 .5529938 .11061096 .5529938 .2347107 .5529938 .30377198 .5189972 .33779908 .5039978 .35180665 .48098756 .37483216 .46598817 .37882997 .3769989 .40185548 .35499574 .40785218 .31900025 .41786195 .30999757 .41986085 .2829895 .42886354 .24899292 .457901 .24899292 .51094058 .24899292 .59199526 .32899476 .677063 .42399598 .677063 .5069885 .677063 .56799319 .6340332 .56799319 .52194216 .56799319 .48991395 .56399539 .47190858 .56399539 .4658966 .56399539 .4649048 .56399539 .45588685 .57598879 .45588685 .58599856 .45588685 .58699038 .45889283 .59098818 .47590638L.644989 .69506838Z"/>
<path id="font_3_2" d="M.4269867 .6066284C.43399049 .63461306 .43798829 .64060977 .44999696 .6436157 .45899964 .6456146 .49198915 .6456146 .5130005 .6456146 .6139984 .6456146 .6589966 .6416168 .6589966 .56365969 .6589966 .54867556 .6549988 .50968936 .651001 .4837036 .6499939 .4797058 .647995 .4677124 .647995 .46472169 .647995 .45872499 .651001 .45173646 .6599884 .45173646 .67099 .45173646 .6729889 .45973207 .6749878 .4747162L.70199587 .64860537C.7029877 .65260317 .70399478 .6626129 .70399478 .66560366 .70399478 .6766052 .69400027 .6766052 .6769867 .6766052H.12199402C.09799194 .6766052 .09700012 .6756134 .08999634 .6566162L.02999878 .4807129C.0289917 .478714 .023986817 .46472169 .023986817 .46272279 .023986817 .45672608 .0289917 .45173646 .035995485 .45173646 .04598999 .45173646 .04699707 .45672608 .052993776 .4727173 .10699463 .6276245 .1329956 .6456146 .2809906 .6456146H.31999208C.34799195 .6456146 .34799195 .6416168 .34799195 .6336212 .34799195 .6276245 .34498597 .6156311 .34399415 .6126251L.20999146 .07896423C.20098877 .041992189 .19799805 .0309906 .09098816 .0309906 .054992677 .0309906 .04899597 .0309906 .04899597 .011993408 .04899597 0 .05999756 0 .06599426 0 .09298706 0 .12098694 .0019989014 .147995 .0019989014 .17599488 .0019989014 .20498657 .0029907227 .23298645 .0029907227 .26098634 .0029907227 .2889862 .0019989014 .31599427 .0019989014 .34498597 .0019989014 .375 0 .40299989 0 .41299439 0 .4249878 0 .4249878 .019989014 .4249878 .0309906 .4169922 .0309906 .3909912 .0309906 .3659973 .0309906 .35299684 .0309906 .32699586 .032989503 .2979889 .035995485 .2899933 .038986207 .2899933 .054977418 .2899933 .05596924 .2899933 .06097412 .2939911 .07595825L.4269867 .6066284Z"/>
<path id="font_3_3" d="M.33399964 .30233766C.33999635 .32835389 .36299134 .42037965 .43299867 .42037965 .43798829 .42037965 .46199037 .42037965 .48298646 .40734864 .45498658 .402359 .43499757 .37734986 .43499757 .35334779 .43499757 .33735658 .44599916 .31835938 .47299195 .31835938 .49499513 .31835938 .5269928 .3363495 .5269928 .37635804 .5269928 .42837525 .46798707 .4423828 .43399049 .4423828 .37599183 .4423828 .34098817 .38935853 .32899476 .36634828 .3039856 .43237306 .25 .4423828 .22099304 .4423828 .116989139 .4423828 .05999756 .3133545 .05999756 .28834535 .05999756 .27833558 .069992069 .27833558 .07199097 .27833558 .07998657 .27833558 .08299255 .28033448 .084991458 .28933717 .11898804 .39535523 .18499756 .42037965 .21899414 .42037965 .23799134 .42037965 .272995 .4113617 .272995 .35334779 .272995 .32235719 .2559967 .25532533 .21899414 .11528015 .20298767 .053268434 .16799927 .011245728 .12399292 .011245728 .117996219 .011245728 .09498596 .011245728 .07398987 .024276734 .09899902 .029266358 .12098694 .05027771 .12098694 .07827759 .12098694 .105270389 .09899902 .11328125 .083999637 .11328125 .053985597 .11328125 .0289917 .08728027 .0289917 .055267335 .0289917 .009246826 .07899475-.0107421879 .12298584-.0107421879 .18899536-.0107421879 .22499085 .059280397 .22799683 .0652771 .23999024 .028274537 .27598573-.0107421879 .33599855-.0107421879 .43899537-.0107421879 .49598695 .118270877 .49598695 .14328003 .49598695 .1532898 .4869995 .1532898 .48399354 .1532898 .47499085 .1532898 .47299195 .14929199 .47099305 .14228821 .43798829 .03527832 .36999513 .011245728 .33799745 .011245728 .29899598 .011245728 .2829895 .043273927 .2829895 .07727051 .2829895 .09927368 .2889862 .121276859 .2999878 .16529846L.33399964 .30233766Z"/>
<path id="font_4_1" d="M.2899933 .4720459C.2979889 .4890442 .29899598 .49705506 .29899598 .5040436 .29899598 .53504946 .2709961 .5590515 .23999024 .5590515 .20199585 .5590515 .18998719 .52804568 .18499756 .51205447L.052993776 .07901001C.051986696 .07701111 .04798889 .06401062 .04798889 .06300354 .04798889 .05101013 .07899475 .041015626 .08699036 .041015626 .09399414 .041015626 .09498596 .043014528 .101989749 .058013917L.2899933 .4720459Z"/>
<path id="font_5_2" d="M.33499146 .63612368C.33499146 .6630554 .33299256 .6640625 .30499269 .6640625 .24099732 .6014404 .1499939 .6004486 .10899353 .6004486V.5644531C.1329956 .5644531 .19898987 .5644531 .2539978 .592453V.08203125C.2539978 .04899597 .2539978 .035995485 .1539917 .035995485H.115997318V0C.13398743 .0009918213 .25698854 .0039978029 .2939911 .0039978029 .32499696 .0039978029 .45098878 .0009918213 .47299195 0V.035995485H.43499757C.33499146 .035995485 .33499146 .04899597 .33499146 .08203125V.63612368Z"/>
<path id="font_5_1" d="M.5159912 .31925965C.5159912 .42918397 .5029907 .50813296 .45700074 .5780945 .42599488 .62405398 .3639984 .6640625 .28399659 .6640625 .051986696 .6640625 .051986696 .39120484 .051986696 .31925965 .051986696 .2472992 .051986696-.01953125 .28399659-.01953125 .5159912-.01953125 .5159912 .2472992 .5159912 .31925965M.28399659 .008468628C.23799134 .008468628 .1769867 .035446168 .15699768 .117385867 .14299011 .17634583 .14299011 .25830079 .14299011 .33224488 .14299011 .40519715 .14299011 .4811554 .1579895 .53611758 .1789856 .6150665 .24299622 .63604739 .28399659 .63604739 .33799745 .63604739 .3899994 .6030731 .4079895 .545105 .42399598 .4911499 .4249878 .41918946 .4249878 .33224488 .4249878 .25830079 .4249878 .18434143 .4119873 .12138367 .3919983 .030441285 .32398988 .008468628 .28399659 .008468628Z"/>
</defs>
<g clip-path="url(#clip_1)">
<g inkscape:groupmode="layer" inkscape:label="Layer 1">
<path transform="matrix(0,-.750015,-.75003746,-0,7.140869,133.18003)" stroke-width="3" stroke-linecap="butt" stroke-miterlimit="4" stroke-linejoin="miter" fill="none" stroke="#231f20" d="M0 0-66.411-120.335"/>
<path transform="matrix(0,-.750015,-.75003746,-0,97.39655,182.98897)" stroke-width="3" stroke-linecap="butt" stroke-miterlimit="4" stroke-linejoin="miter" fill="none" stroke="#231f20" d="M0 0 66.184 93.113"/>
<path transform="matrix(0,-.750015,-.75003746,-0,47.58612,133.1456)" stroke-width="1" stroke-linecap="butt" stroke-miterlimit="4" stroke-linejoin="miter" fill="none" stroke="#231f20" d="M0 0-66.457-66.411"/>
<path transform="matrix(0,-.750015,-.75003746,-0,97.39655,182.98897)" stroke-width="3" stroke-linecap="butt" stroke-miterlimit="4" stroke-linejoin="miter" fill="none" stroke="#231f20" d="M0 0 66.457 39.436"/>
<path transform="matrix(0,-.750015,-.75003746,-0,88.25406,133.14627)" stroke-width="1" stroke-linecap="butt" stroke-miterlimit="4" stroke-linejoin="miter" fill="none" stroke="#231f20" d="M0 0-66.456-12.189"/>
<path transform="matrix(0,-.750015,-.75003746,-0,97.39655,182.98897)" stroke-width="1" stroke-linecap="butt" stroke-miterlimit="4" stroke-linejoin="miter" fill="none" stroke="#231f20" d="M0 0 66.457-14.787"/>
<path transform="matrix(0,-.750015,-.75003746,-0,128.9447,133.38433)" stroke-width="3" stroke-linecap="butt" stroke-miterlimit="4" stroke-linejoin="miter" fill="none" stroke="#231f20" d="M0 0-66.138 42.062"/>
<path transform="matrix(0,-.750015,-.75003746,-0,97.39655,182.98897)" stroke-width="3" stroke-linecap="butt" stroke-miterlimit="4" stroke-linejoin="miter" fill="none" stroke="#231f20" d="M0 0 66.235-70.226"/>
<path transform="matrix(0,-.750015,-.75003746,-0,170.07077,133.56163)" stroke-width="1" stroke-linecap="butt" stroke-miterlimit="4" stroke-linejoin="miter" fill="none" stroke="#231f20" d="M0 0-65.902 96.894"/>
<path transform="matrix(0,-.750015,-.75003746,-0,97.39655,182.98897)" stroke-width="3" stroke-linecap="butt" stroke-miterlimit="4" stroke-linejoin="miter" fill="none" stroke="#231f20" d="M0 0 65.902-124.394"/>
<path transform="matrix(0,-.750015,-.75003746,-0,7.725754,60.27069)" stroke-width="3" stroke-linecap="butt" stroke-miterlimit="4" stroke-linejoin="miter" fill="none" stroke="#231f20" d="M0 0 62.368-121.841"/>
<path transform="matrix(0,-.750015,-.75003746,-0,99.1113,13.493668)" stroke-width="1" stroke-linecap="butt" stroke-miterlimit="4" stroke-linejoin="miter" fill="none" stroke="#231f20" d="M0 0-62.595 94.62"/>
<path transform="matrix(0,-.750015,-.75003746,-0,48.171007,60.236268)" stroke-width="3" stroke-linecap="butt" stroke-miterlimit="4" stroke-linejoin="miter" fill="none" stroke="#231f20" d="M0 0 62.322-67.917"/>
<path transform="matrix(0,-.750015,-.75003746,-0,99.1113,13.493668)" stroke-width="3" stroke-linecap="butt" stroke-miterlimit="4" stroke-linejoin="miter" fill="none" stroke="#231f20" d="M0 0-62.544 41.947"/>
<path transform="matrix(0,-.750015,-.75003746,-0,88.838939,60.237016)" stroke-width="3" stroke-linecap="butt" stroke-miterlimit="4" stroke-linejoin="miter" fill="none" stroke="#231f20" d="M0 0 62.323-13.696"/>
<path transform="matrix(0,-.750015,-.75003746,-0,99.1113,13.493668)" stroke-width="1" stroke-linecap="butt" stroke-miterlimit="4" stroke-linejoin="miter" fill="none" stroke="#231f20" d="M0 0-62.322-13.28"/>
<path transform="matrix(0,-.750015,-.75003746,-0,129.52915,60.475069)" stroke-width="1" stroke-linecap="butt" stroke-miterlimit="4" stroke-linejoin="miter" fill="none" stroke="#231f20" d="M0 0 61.597 41.002"/>
<path transform="matrix(0,-.750015,-.75003746,-0,98.77618,14.276611)" stroke-width="3" stroke-linecap="butt" stroke-miterlimit="4" stroke-linejoin="miter" fill="none" stroke="#231f20" d="M0 0-61.5-69.166"/>
<path transform="matrix(0,-.750015,-.75003746,-0,170.65528,60.652284)" stroke-width="3" stroke-linecap="butt" stroke-miterlimit="4" stroke-linejoin="miter" fill="none" stroke="#231f20" d="M0 0 61.833 95.834"/>
<path transform="matrix(0,-.750015,-.75003746,-0,98.77618,14.276611)" stroke-width="1" stroke-linecap="butt" stroke-miterlimit="4" stroke-linejoin="miter" fill="none" stroke="#231f20" d="M0 0-61.833-123.334"/>
<path transform="matrix(0,-.750015,-.75003746,-0,7.140869,133.18003)" stroke-width="3" stroke-linecap="butt" stroke-miterlimit="4" stroke-linejoin="miter" fill="none" stroke="#231f20" d="M0 0 95.991-55.728"/>
<path transform="matrix(0,-.750015,-.75003746,-0,27.558182,133.3499)" stroke-width="3" stroke-linecap="butt" stroke-miterlimit="4" stroke-linejoin="miter" fill="none" stroke="#231f20" d="M0 0 96.717 28.494"/>
<path transform="matrix(0,-.750015,-.75003746,-0,27.558182,133.3499)" stroke-width="1" stroke-linecap="butt" stroke-miterlimit="4" stroke-linejoin="miter" fill="none" stroke="#231f20" d="M0 0 96.439-27.036"/>
<path transform="matrix(0,-.750015,-.75003746,-0,67.81845,133.1456)" stroke-width="3" stroke-linecap="butt" stroke-miterlimit="4" stroke-linejoin="miter" fill="none" stroke="#231f20" d="M0 0 95.445-28.828"/>
<path transform="matrix(0,-.750015,-.75003746,-0,67.81845,133.1456)" stroke-width="1" stroke-linecap="butt" stroke-miterlimit="4" stroke-linejoin="miter" fill="none" stroke="#231f20" d="M0 0 95.612-136.662"/>
<path transform="matrix(0,-.750015,-.75003746,-0,88.25406,133.14627)" stroke-width="1" stroke-linecap="butt" stroke-miterlimit="4" stroke-linejoin="miter" fill="none" stroke="#231f20" d="M0 0 95.613-109.416"/>
<path transform="matrix(0,-.750015,-.75003746,-0,88.25406,133.14627)" stroke-width="1" stroke-linecap="butt" stroke-miterlimit="4" stroke-linejoin="miter" fill="none" stroke="#231f20" d="M0 0 96.167 53.888"/>
<path transform="matrix(0,-.750015,-.75003746,-0,108.48714,133.1456)" stroke-width="1" stroke-linecap="butt" stroke-miterlimit="4" stroke-linejoin="miter" fill="none" stroke="#231f20" d="M0 0 95.945 54.894"/>
<path transform="matrix(0,-.750015,-.75003746,-0,108.48714,133.1456)" stroke-width="1" stroke-linecap="butt" stroke-miterlimit="4" stroke-linejoin="miter" fill="none" stroke="#231f20" d="M0 0 97.445 27.894"/>
<path transform="matrix(0,-.750015,-.75003746,-0,108.48714,133.1456)" stroke-width="1" stroke-linecap="butt" stroke-miterlimit="4" stroke-linejoin="miter" fill="none" stroke="#231f20" d="M0 0 95.945-84.105"/>
<path transform="matrix(0,-.750015,-.75003746,-0,128.9447,133.38433)" stroke-width="3" stroke-linecap="butt" stroke-miterlimit="4" stroke-linejoin="miter" fill="none" stroke="#231f20" d="M0 0 96.485 81.165"/>
<path transform="matrix(0,-.750015,-.75003746,-0,88.503818,61.019945)" stroke-width="1" stroke-linecap="butt" stroke-miterlimit="4" stroke-linejoin="miter" fill="none" stroke="#231f20" d="M0 0-96.484-53.918"/>
<path transform="matrix(0,-.750015,-.75003746,-0,128.9447,133.38433)" stroke-width="1" stroke-linecap="butt" stroke-miterlimit="4" stroke-linejoin="miter" fill="none" stroke="#231f20" d="M0 0 96.263-56.83"/>
<path transform="matrix(0,-.750015,-.75003746,-0,128.9447,133.38433)" stroke-width="1" stroke-linecap="butt" stroke-miterlimit="4" stroke-linejoin="miter" fill="none" stroke="#231f20" d="M0 0 96.763 163.669"/>
<path transform="matrix(0,-.750015,-.75003746,-0,27.807938,61.22357)" stroke-width="1" stroke-linecap="butt" stroke-miterlimit="4" stroke-linejoin="miter" fill="none" stroke="#231f20" d="M0 0-96.212-134.842"/>
<path transform="matrix(0,-.750015,-.75003746,-0,128.9447,133.38433)" stroke-width="1" stroke-linecap="butt" stroke-miterlimit="4" stroke-linejoin="miter" fill="none" stroke="#231f20" d="M0 0 96.263 109.169"/>
<path transform="matrix(0,-.750015,-.75003746,-0,150.06876,133.3118)" stroke-width="3" stroke-linecap="butt" stroke-miterlimit="4" stroke-linejoin="miter" fill="none" stroke="#231f20" d="M0 0 96.167-28.666"/>
<path transform="matrix(0,-.750015,-.75003746,-0,190.6968,133.56163)" stroke-width="1" stroke-linecap="butt" stroke-miterlimit="4" stroke-linejoin="miter" fill="none" stroke="#231f20" d="M0 0 96.167 27.168"/>
<path transform="matrix(0,-.750015,-.75003746,-0,190.6968,133.56163)" stroke-width="3" stroke-linecap="butt" stroke-miterlimit="4" stroke-linejoin="miter" fill="none" stroke="#231f20" d="M0 0 96.5 53.834"/>
<path transform="matrix(0,-.750015,-.75003746,-0,190.6968,133.56163)" stroke-width="1" stroke-linecap="butt" stroke-miterlimit="4" stroke-linejoin="miter" fill="none" stroke="#231f20" d="M0 0 97 246.001"/>
<path transform="matrix(0,-.750015,-.75003746,-0,190.6968,133.56163)" stroke-width="1" stroke-linecap="butt" stroke-miterlimit="4" stroke-linejoin="miter" fill="none" stroke="#231f20" d="M0 0 96.5 191.501"/>
<path transform="matrix(0,-.750015,-.75003746,-0,67.81845,133.1456)" stroke-width="1" stroke-linecap="butt" stroke-miterlimit="4" stroke-linejoin="miter" fill="none" stroke="#231f20" d="M0 0 96.167 26.642"/>
<path transform="matrix(0,-.750015,-.75003746,-0,108.48714,133.1456)" stroke-width="1" stroke-linecap="butt" stroke-miterlimit="4" stroke-linejoin="miter" fill="none" stroke="#231f20" d="M0 0 96.167 80.864"/>
<g clip-path="url(#clip_2)">
<path transform="matrix(0,-.750015,-.75003746,-0,97.39655,178.30948)" d="M0 0C0 3.404-2.793 6.164-6.238 6.164-9.686 6.164-12.479 3.404-12.479 0-12.479-3.402-9.686-6.164-6.238-6.164-2.793-6.164 0-3.402 0 0" fill="#f9cd83"/>
<path transform="matrix(0,-.750015,-.75003746,-0,97.39655,178.30948)" stroke-width="2" stroke-linecap="butt" stroke-miterlimit="4" stroke-linejoin="miter" fill="none" stroke="#231f20" d="M0 0C0 3.404-2.793 6.164-6.238 6.164-9.686 6.164-12.479 3.404-12.479 0-12.479-3.402-9.686-6.164-6.238-6.164-2.793-6.164 0-3.402 0 0Z"/>
<path transform="matrix(0,-.750015,-.75003746,-0,47.58612,128.46602)" d="M0 0C0 3.404-2.793 6.164-6.238 6.164-9.686 6.164-12.479 3.404-12.479 0-12.479-3.402-9.686-6.164-6.238-6.164-2.793-6.164 0-3.402 0 0" fill="#f9cd83"/>
<path transform="matrix(0,-.750015,-.75003746,-0,47.58612,128.46602)" stroke-width="2" stroke-linecap="butt" stroke-miterlimit="4" stroke-linejoin="miter" fill="none" stroke="#231f20" d="M0 0C0 3.404-2.793 6.164-6.238 6.164-9.686 6.164-12.479 3.404-12.479 0-12.479-3.402-9.686-6.164-6.238-6.164-2.793-6.164 0-3.402 0 0Z"/>
<path transform="matrix(0,-.750015,-.75003746,-0,128.9447,128.70484)" d="M0 0C0 3.404-2.793 6.164-6.238 6.164-9.686 6.164-12.479 3.404-12.479 0-12.479-3.402-9.686-6.164-6.238-6.164-2.793-6.164 0-3.402 0 0" fill="#f9cd83"/>
<path transform="matrix(0,-.750015,-.75003746,-0,128.9447,128.70484)" stroke-width="2" stroke-linecap="butt" stroke-miterlimit="4" stroke-linejoin="miter" fill="none" stroke="#231f20" d="M0 0C0 3.404-2.793 6.164-6.238 6.164-9.686 6.164-12.479 3.404-12.479 0-12.479-3.402-9.686-6.164-6.238-6.164-2.793-6.164 0-3.402 0 0Z"/>
<path transform="matrix(0,-.750015,-.75003746,-0,67.81845,128.46602)" d="M0 0C0 3.404-2.793 6.164-6.238 6.164-9.686 6.164-12.479 3.404-12.479 0-12.479-3.402-9.686-6.164-6.238-6.164-2.793-6.164 0-3.402 0 0" fill="#f9cd83"/>
<path transform="matrix(0,-.750015,-.75003746,-0,67.81845,128.46602)" stroke-width="2" stroke-linecap="butt" stroke-miterlimit="4" stroke-linejoin="miter" fill="none" stroke="#231f20" d="M0 0C0 3.404-2.793 6.164-6.238 6.164-9.686 6.164-12.479 3.404-12.479 0-12.479-3.402-9.686-6.164-6.238-6.164-2.793-6.164 0-3.402 0 0Z"/>
<path transform="matrix(0,-.750015,-.75003746,-0,7.140869,128.50046)" d="M0 0C0 3.404-2.793 6.164-6.238 6.164-9.686 6.164-12.479 3.404-12.479 0-12.479-3.402-9.686-6.164-6.238-6.164-2.793-6.164 0-3.402 0 0" fill="#f9cd83"/>
<path transform="matrix(0,-.750015,-.75003746,-0,7.140869,128.50046)" stroke-width="2" stroke-linecap="butt" stroke-miterlimit="4" stroke-linejoin="miter" fill="none" stroke="#231f20" d="M0 0C0 3.404-2.793 6.164-6.238 6.164-9.686 6.164-12.479 3.404-12.479 0-12.479-3.402-9.686-6.164-6.238-6.164-2.793-6.164 0-3.402 0 0Z"/>
<path transform="matrix(0,-.750015,-.75003746,-0,27.558182,128.67041)" d="M0 0C0 3.404-2.793 6.164-6.238 6.164-9.686 6.164-12.479 3.404-12.479 0-12.479-3.402-9.686-6.164-6.238-6.164-2.793-6.164 0-3.402 0 0" fill="#f9cd83"/>
<path transform="matrix(0,-.750015,-.75003746,-0,27.558182,128.67041)" stroke-width="2" stroke-linecap="butt" stroke-miterlimit="4" stroke-linejoin="miter" fill="none" stroke="#231f20" d="M0 0C0 3.404-2.793 6.164-6.238 6.164-9.686 6.164-12.479 3.404-12.479 0-12.479-3.402-9.686-6.164-6.238-6.164-2.793-6.164 0-3.402 0 0Z"/>
<path transform="matrix(0,-.750015,-.75003746,-0,88.25406,128.46678)" d="M0 0C0 3.404-2.793 6.164-6.238 6.164-9.686 6.164-12.479 3.404-12.479 0-12.479-3.402-9.686-6.164-6.238-6.164-2.793-6.164 0-3.402 0 0" fill="#f9cd83"/>
<path transform="matrix(0,-.750015,-.75003746,-0,88.25406,128.46678)" stroke-width="2" stroke-linecap="butt" stroke-miterlimit="4" stroke-linejoin="miter" fill="none" stroke="#231f20" d="M0 0C0 3.404-2.793 6.164-6.238 6.164-9.686 6.164-12.479 3.404-12.479 0-12.479-3.402-9.686-6.164-6.238-6.164-2.793-6.164 0-3.402 0 0Z"/>
<path transform="matrix(0,-.750015,-.75003746,-0,108.48714,128.46602)" d="M0 0C0 3.404-2.793 6.164-6.238 6.164-9.686 6.164-12.479 3.404-12.479 0-12.479-3.402-9.686-6.164-6.238-6.164-2.793-6.164 0-3.402 0 0" fill="#f9cd83"/>
<path transform="matrix(0,-.750015,-.75003746,-0,108.48714,128.46602)" stroke-width="2" stroke-linecap="butt" stroke-miterlimit="4" stroke-linejoin="miter" fill="none" stroke="#231f20" d="M0 0C0 3.404-2.793 6.164-6.238 6.164-9.686 6.164-12.479 3.404-12.479 0-12.479-3.402-9.686-6.164-6.238-6.164-2.793-6.164 0-3.402 0 0Z"/>
<path transform="matrix(0,-.750015,-.75003746,-0,150.06876,128.63231)" d="M0 0C0 3.404-2.793 6.164-6.238 6.164-9.686 6.164-12.479 3.404-12.479 0-12.479-3.402-9.686-6.164-6.238-6.164-2.793-6.164 0-3.402 0 0" fill="#f9cd83"/>
<path transform="matrix(0,-.750015,-.75003746,-0,150.06876,128.63231)" stroke-width="2" stroke-linecap="butt" stroke-miterlimit="4" stroke-linejoin="miter" fill="none" stroke="#231f20" d="M0 0C0 3.404-2.793 6.164-6.238 6.164-9.686 6.164-12.479 3.404-12.479 0-12.479-3.402-9.686-6.164-6.238-6.164-2.793-6.164 0-3.402 0 0Z"/>
<path transform="matrix(0,-.750015,-.75003746,-0,170.07077,128.88205)" d="M0 0C0 3.404-2.793 6.164-6.238 6.164-9.686 6.164-12.479 3.404-12.479 0-12.479-3.402-9.686-6.164-6.238-6.164-2.793-6.164 0-3.402 0 0" fill="#f9cd83"/>
<path transform="matrix(0,-.750015,-.75003746,-0,170.07077,128.88205)" stroke-width="2" stroke-linecap="butt" stroke-miterlimit="4" stroke-linejoin="miter" fill="none" stroke="#231f20" d="M0 0C0 3.404-2.793 6.164-6.238 6.164-9.686 6.164-12.479 3.404-12.479 0-12.479-3.402-9.686-6.164-6.238-6.164-2.793-6.164 0-3.402 0 0Z"/>
<path transform="matrix(0,-.750015,-.75003746,-0,98.77581,9.597046)" d="M0 0C0 3.404-2.793 6.164-6.238 6.164-9.686 6.164-12.479 3.404-12.479 0-12.479-3.403-9.686-6.165-6.238-6.165-2.793-6.165 0-3.403 0 0" fill="#f9cd83"/>
<path transform="matrix(0,-.750015,-.75003746,-0,98.77581,9.597046)" stroke-width="2" stroke-linecap="butt" stroke-miterlimit="4" stroke-linejoin="miter" fill="none" stroke="#231f20" d="M0 0C0 3.404-2.793 6.164-6.238 6.164-9.686 6.164-12.479 3.404-12.479 0-12.479-3.403-9.686-6.165-6.238-6.165-2.793-6.165 0-3.403 0 0Z"/>
<path transform="matrix(0,-.750015,-.75003746,-0,47.83589,56.339708)" d="M0 0C0 3.404-2.793 6.164-6.238 6.164-9.686 6.164-12.479 3.404-12.479 0-12.479-3.402-9.686-6.164-6.238-6.164-2.793-6.164 0-3.402 0 0" fill="#f9cd83"/>
<path transform="matrix(0,-.750015,-.75003746,-0,47.83589,56.339708)" stroke-width="2" stroke-linecap="butt" stroke-miterlimit="4" stroke-linejoin="miter" fill="none" stroke="#231f20" d="M0 0C0 3.404-2.793 6.164-6.238 6.164-9.686 6.164-12.479 3.404-12.479 0-12.479-3.402-9.686-6.164-6.238-6.164-2.793-6.164 0-3.402 0 0Z"/>
<path transform="matrix(0,-.750015,-.75003746,-0,129.19515,56.578508)" d="M0 0C0 3.404-2.793 6.164-6.238 6.164-9.686 6.164-12.479 3.404-12.479 0-12.479-3.402-9.686-6.164-6.238-6.164-2.793-6.164 0-3.402 0 0" fill="#f9cd83"/>
<path transform="matrix(0,-.750015,-.75003746,-0,129.19515,56.578508)" stroke-width="2" stroke-linecap="butt" stroke-miterlimit="4" stroke-linejoin="miter" fill="none" stroke="#231f20" d="M0 0C0 3.404-2.793 6.164-6.238 6.164-9.686 6.164-12.479 3.404-12.479 0-12.479-3.402-9.686-6.164-6.238-6.164-2.793-6.164 0-3.402 0 0Z"/>
<path transform="matrix(0,-.750015,-.75003746,-0,68.06822,56.339708)" d="M0 0C0 3.404-2.793 6.164-6.238 6.164-9.686 6.164-12.479 3.404-12.479 0-12.479-3.402-9.686-6.164-6.238-6.164-2.793-6.164 0-3.402 0 0" fill="#f9cd83"/>
<path transform="matrix(0,-.750015,-.75003746,-0,68.06822,56.339708)" stroke-width="2" stroke-linecap="butt" stroke-miterlimit="4" stroke-linejoin="miter" fill="none" stroke="#231f20" d="M0 0C0 3.404-2.793 6.164-6.238 6.164-9.686 6.164-12.479 3.404-12.479 0-12.479-3.402-9.686-6.164-6.238-6.164-2.793-6.164 0-3.402 0 0Z"/>
<path transform="matrix(0,-.750015,-.75003746,-0,7.3906404,56.37413)" d="M0 0C0 3.404-2.793 6.164-6.238 6.164-9.686 6.164-12.479 3.404-12.479 0-12.479-3.402-9.686-6.164-6.238-6.164-2.793-6.164 0-3.402 0 0" fill="#f9cd83"/>
<path transform="matrix(0,-.750015,-.75003746,-0,7.3906404,56.37413)" stroke-width="2" stroke-linecap="butt" stroke-miterlimit="4" stroke-linejoin="miter" fill="none" stroke="#231f20" d="M0 0C0 3.404-2.793 6.164-6.238 6.164-9.686 6.164-12.479 3.404-12.479 0-12.479-3.402-9.686-6.164-6.238-6.164-2.793-6.164 0-3.402 0 0Z"/>
<path transform="matrix(0,-.750015,-.75003746,-0,27.807938,56.544084)" d="M0 0C0 3.404-2.793 6.164-6.238 6.164-9.686 6.164-12.479 3.404-12.479 0-12.479-3.402-9.686-6.164-6.238-6.164-2.793-6.164 0-3.402 0 0" fill="#f9cd83"/>
<path transform="matrix(0,-.750015,-.75003746,-0,27.807938,56.544084)" stroke-width="2" stroke-linecap="butt" stroke-miterlimit="4" stroke-linejoin="miter" fill="none" stroke="#231f20" d="M0 0C0 3.404-2.793 6.164-6.238 6.164-9.686 6.164-12.479 3.404-12.479 0-12.479-3.402-9.686-6.164-6.238-6.164-2.793-6.164 0-3.402 0 0Z"/>
<path transform="matrix(0,-.750015,-.75003746,-0,88.503818,56.340456)" d="M0 0C0 3.404-2.793 6.164-6.238 6.164-9.686 6.164-12.479 3.404-12.479 0-12.479-3.402-9.686-6.164-6.238-6.164-2.793-6.164 0-3.402 0 0" fill="#f9cd83"/>
<path transform="matrix(0,-.750015,-.75003746,-0,88.503818,56.340456)" stroke-width="2" stroke-linecap="butt" stroke-miterlimit="4" stroke-linejoin="miter" fill="none" stroke="#231f20" d="M0 0C0 3.404-2.793 6.164-6.238 6.164-9.686 6.164-12.479 3.404-12.479 0-12.479-3.402-9.686-6.164-6.238-6.164-2.793-6.164 0-3.402 0 0Z"/>
<path transform="matrix(0,-.750015,-.75003746,-0,108.73758,56.339708)" d="M0 0C0 3.404-2.793 6.164-6.238 6.164-9.686 6.164-12.479 3.404-12.479 0-12.479-3.402-9.686-6.164-6.238-6.164-2.793-6.164 0-3.402 0 0" fill="#f9cd83"/>
<path transform="matrix(0,-.750015,-.75003746,-0,108.73758,56.339708)" stroke-width="2" stroke-linecap="butt" stroke-miterlimit="4" stroke-linejoin="miter" fill="none" stroke="#231f20" d="M0 0C0 3.404-2.793 6.164-6.238 6.164-9.686 6.164-12.479 3.404-12.479 0-12.479-3.402-9.686-6.164-6.238-6.164-2.793-6.164 0-3.402 0 0Z"/>
<path transform="matrix(0,-.750015,-.75003746,-0,150.31928,56.50598)" d="M0 0C0 3.404-2.793 6.164-6.238 6.164-9.686 6.164-12.479 3.404-12.479 0-12.479-3.402-9.686-6.164-6.238-6.164-2.793-6.164 0-3.402 0 0" fill="#f9cd83"/>
<path transform="matrix(0,-.750015,-.75003746,-0,150.31928,56.50598)" stroke-width="2" stroke-linecap="butt" stroke-miterlimit="4" stroke-linejoin="miter" fill="none" stroke="#231f20" d="M0 0C0 3.404-2.793 6.164-6.238 6.164-9.686 6.164-12.479 3.404-12.479 0-12.479-3.402-9.686-6.164-6.238-6.164-2.793-6.164 0-3.402 0 0Z"/>
<path transform="matrix(0,-.750015,-.75003746,-0,170.31978,56.755739)" d="M0 0C0 3.404-2.793 6.164-6.238 6.164-9.686 6.164-12.479 3.404-12.479 0-12.479-3.402-9.686-6.164-6.238-6.164-2.793-6.164 0-3.402 0 0" fill="#f9cd83"/>
<path transform="matrix(0,-.750015,-.75003746,-0,170.31978,56.755739)" stroke-width="2" stroke-linecap="butt" stroke-miterlimit="4" stroke-linejoin="miter" fill="none" stroke="#231f20" d="M0 0C0 3.404-2.793 6.164-6.238 6.164-9.686 6.164-12.479 3.404-12.479 0-12.479-3.402-9.686-6.164-6.238-6.164-2.793-6.164 0-3.402 0 0Z"/>
<path transform="matrix(0,-.750015,-.75003746,-0,190.9458,56.755739)" d="M0 0C0 3.404-2.793 6.164-6.238 6.164-9.686 6.164-12.479 3.404-12.479 0-12.479-3.402-9.686-6.164-6.238-6.164-2.793-6.164 0-3.402 0 0" fill="#f9cd83"/>
<path transform="matrix(0,-.750015,-.75003746,-0,190.9458,56.755739)" stroke-width="2" stroke-linecap="butt" stroke-miterlimit="4" stroke-linejoin="miter" fill="none" stroke="#231f20" d="M0 0C0 3.404-2.793 6.164-6.238 6.164-9.686 6.164-12.479 3.404-12.479 0-12.479-3.402-9.686-6.164-6.238-6.164-2.793-6.164 0-3.402 0 0Z"/>
<path transform="matrix(0,-.750015,-.75003746,-0,190.6968,128.88205)" d="M0 0C0 3.404-2.793 6.164-6.238 6.164-9.686 6.164-12.479 3.404-12.479 0-12.479-3.402-9.686-6.164-6.238-6.164-2.793-6.164 0-3.402 0 0" fill="#f9cd83"/>
<path transform="matrix(0,-.750015,-.75003746,-0,190.6968,128.88205)" stroke-width="2" stroke-linecap="butt" stroke-miterlimit="4" stroke-linejoin="miter" fill="none" stroke="#231f20" d="M0 0C0 3.404-2.793 6.164-6.238 6.164-9.686 6.164-12.479 3.404-12.479 0-12.479-3.402-9.686-6.164-6.238-6.164-2.793-6.164 0-3.402 0 0Z"/>
</g>
</g>
</g>
<use data-text="S" xlink:href="#font_3_1" transform="matrix(9.963098,0,0,-9.962799,95.508869,200.76058)"/>
<use data-text="T" xlink:href="#font_3_2" transform="matrix(9.963098,0,0,-9.962799,95.508869,7.5997087)"/>
<use data-text="x" xlink:href="#font_3_3" transform="matrix(9.963098,0,0,-9.962799,2.8682404,151.48459)"/>
<use data-text="&#x2032;" xlink:href="#font_4_1" transform="matrix(6.9741489,0,0,-6.97394,8.562523,147.86852)"/>
<use data-text="1" xlink:href="#font_5_2" transform="matrix(6.9741489,0,0,-6.97394,8.562523,153.95764)"/>
<use data-text="x" xlink:href="#font_3_3" transform="matrix(9.963098,0,0,-9.962799,186.1784,151.48459)"/>
<use data-text="&#x2032;" xlink:href="#font_4_1" transform="matrix(6.9741489,0,0,-6.97394,191.87268,147.86852)"/>
<use data-text="1" xlink:href="#font_5_2" transform="matrix(6.9741489,0,0,-6.97394,191.87268,153.95764)"/>
<use data-text="0" xlink:href="#font_5_1" transform="matrix(6.9741489,0,0,-6.97394,195.84098,153.95764)"/>
<use data-text="x" xlink:href="#font_3_3" transform="matrix(9.963098,0,0,-9.962799,2.8682557,50.961587)"/>
<use data-text="&#x2032;" xlink:href="#font_4_1" transform="matrix(6.9741489,0,0,-6.97394,8.562538,47.34651)"/>
<use data-text="&#x2032;" xlink:href="#font_4_1" transform="matrix(6.9741489,0,0,-6.97394,10.857033,47.34651)"/>
<use data-text="1" xlink:href="#font_5_2" transform="matrix(6.9741489,0,0,-6.97394,8.562538,53.43463)"/>
<use data-text="x" xlink:href="#font_3_3" transform="matrix(9.963098,0,0,-9.962799,186.1784,50.962587)"/>
<use data-text="&#x2032;" xlink:href="#font_4_1" transform="matrix(6.9741489,0,0,-6.97394,191.87268,47.34651)"/>
<use data-text="&#x2032;" xlink:href="#font_4_1" transform="matrix(6.9741489,0,0,-6.97394,194.16718,47.34651)"/>
<use data-text="1" xlink:href="#font_5_2" transform="matrix(6.9741489,0,0,-6.97394,191.87268,53.43463)"/>
<use data-text="0" xlink:href="#font_5_1" transform="matrix(6.9741489,0,0,-6.97394,195.84098,53.43463)"/>
</svg>
