<svg xmlns="http://www.w3.org/2000/svg" xmlns:xlink="http://www.w3.org/1999/xlink" xmlns:inkscape="http://www.inkscape.org/namespaces/inkscape" version="1.1" width="329" height="91" viewBox="0 0 329 91">
<defs>
<clipPath id="clip_1">
<path transform="matrix(.78416916,0,0,-.78414568,-6.102829,90.67111)" d="M0 0H432V115.2H0Z"/>
</clipPath>
<clipPath id="clip_2">
<path transform="matrix(.78416916,0,0,-.78414568,-6.102829,90.67111)" d="M0 115.2H432V0H0Z"/>
</clipPath>
<path id="font_3_1" d="M.644989 .69506838C.644989 .69807437 .6429901 .7050781 .6339874 .7050781 .6289978 .7050781 .6279907 .70407107 .6159973 .6900635L.56799319 .6330414C.5419922 .68006899 .48999024 .7050781 .4249878 .7050781 .2979889 .7050781 .17799378 .58999636 .17799378 .4689026 .17799378 .38783265 .23098755 .34179688 .28199769 .32678224L.3889923 .2987671C.42599488 .2897644 .48098756 .27474977 .48098756 .19267273 .48098756 .1026001 .39898683 .008529663 .30099488 .008529663 .23699951 .008529663 .12599182 .030548096 .12599182 .15464783 .12599182 .17866516 .1309967 .2026825 .13198853 .20869446 .1329956 .21269226 .13398743 .21369934 .13398743 .21569824 .13398743 .22570801 .1269989 .22669983 .12199402 .22669983 .116989139 .22669983 .114990238 .22570801 .11199951 .22270203 .10798645 .21870423 .051986696-.009475708 .051986696-.012466431 .051986696-.018463135 .056991579-.022460938 .06298828-.022460938 .067993167-.022460938 .068984989-.021469117 .08099365-.007461548L.12998963 .049560548C.17298889-.008468628 .24099732-.022460938 .29899598-.022460938 .43499757-.022460938 .5529938 .11061096 .5529938 .2347107 .5529938 .30377198 .5189972 .33779908 .5039978 .35180665 .48098756 .37483216 .46598817 .37882997 .3769989 .40185548 .35499574 .40785218 .31900025 .41786195 .30999757 .41986085 .2829895 .42886354 .24899292 .457901 .24899292 .51094058 .24899292 .59199526 .32899476 .677063 .42399598 .677063 .5069885 .677063 .56799319 .6340332 .56799319 .52194216 .56799319 .48991395 .56399539 .47190858 .56399539 .4658966 .56399539 .4649048 .56399539 .45588685 .57598879 .45588685 .58599856 .45588685 .58699038 .45889283 .59098818 .47590638L.644989 .69506838Z"/>
<path id="font_4_1" d="M.33499146 .63612368C.33499146 .6630554 .33299256 .6640625 .30499269 .6640625 .24099732 .6014404 .1499939 .6004486 .10899353 .6004486V.5644531C.1329956 .5644531 .19898987 .5644531 .2539978 .592453V.08203125C.2539978 .04899597 .2539978 .035995485 .1539917 .035995485H.115997318V0C.13398743 .0009918213 .25698854 .0039978029 .2939911 .0039978029 .32499696 .0039978029 .45098878 .0009918213 .47299195 0V.035995485H.43499757C.33499146 .035995485 .33499146 .04899597 .33499146 .08203125V.63612368Z"/>
<path id="font_4_2" d="M.5049896 .18203736H.47099305C.46798707 .16001892 .45799256 .100997928 .44499208 .09098816 .43699647 .084991458 .3600006 .084991458 .34599305 .084991458H.1619873C.2669983 .17803955 .3019867 .20603943 .3619995 .25306703 .43598939 .312088 .5049896 .374115 .5049896 .46914674 .5049896 .5900879 .39898683 .6640625 .2709961 .6640625 .14698792 .6640625 .06298828 .57710269 .06298828 .4851532 .06298828 .43414308 .10598755 .42915345 .115997318 .42915345 .13999939 .42915345 .16899109 .44615174 .16899109 .48214723 .16899109 .5001526 .1619873 .53515627 .10998535 .53515627 .14099121 .6060791 .20899964 .62805178 .2559967 .62805178 .35598756 .62805178 .4079895 .5501404 .4079895 .46914674 .4079895 .38212586 .34599305 .3130951 .31399537 .27708436L.07299805 .038986207C.06298828 .02999878 .06298828 .027999878 .06298828 0H.47499085L.5049896 .18203736Z"/>
<path id="font_4_3" d="M.272995 .33428956C.35099793 .33428956 .40699769 .2803192 .40699769 .1733551 .40699769 .04940796 .33499146 .012466431 .2769928 .012466431 .23699951 .012466431 .14898682 .0234375 .10699463 .082351688 .1539917 .084350589 .16499329 .11735535 .16499329 .13835144 .16499329 .17034912 .14099121 .19335938 .10998535 .19335938 .08198547 .19335938 .053985597 .17634583 .053985597 .13534546 .053985597 .041412355 .1579895-.01953125 .2789917-.01953125 .41799928-.01953125 .5139923 .07336426 .5139923 .1733551 .5139923 .2513275 .44999696 .32929994 .33999635 .35229493 .44499208 .39024354 .48298646 .4650879 .48298646 .5260773 .48298646 .60505679 .3919983 .6640625 .2809906 .6640625 .16999817 .6640625 .084991458 .61006167 .084991458 .5300751 .084991458 .49606324 .10699463 .47706605 .13699341 .47706605 .16799927 .47706605 .18798828 .5000763 .18798828 .5280762 .18798828 .5570679 .16799927 .57806399 .13699341 .5800781 .17199707 .62405398 .24099732 .63505557 .27799989 .63505557 .32299806 .63505557 .38598634 .6130676 .38598634 .5260773 .38598634 .48406983 .37199403 .43814088 .34599305 .4072113 .31298829 .36927796 .2849884 .3672943 .23498535 .36428834 .20999146 .3623047 .20799256 .3623047 .20298767 .3612976 .20098877 .3612976 .19299317 .3592987 .19299317 .34829713 .19299317 .33428956 .20199585 .33428956 .21899414 .33428956H.272995Z"/>
</defs>
<g clip-path="url(#clip_1)">
<g inkscape:groupmode="layer" inkscape:label="Edges">
<g inkscape:groupmode="layer" inkscape:label="Vertices">
<g clip-path="url(#clip_2)">
<path transform="matrix(.78416916,0,0,-.78414568,84.5694,45.476644)" stroke-width="2" stroke-linecap="butt" stroke-miterlimit="4" stroke-linejoin="miter" fill="none" stroke="#231f20" d="M0 0C0-27.615-22.387-50-50-50-77.615-50-100-27.615-100 0-100 27.614-77.615 50-50 50-22.387 50 0 27.614 0 0Z"/>
<path transform="matrix(.78416916,0,0,-.78414568,59.375688,83.632938)" d="M0 0C0 3.404-2.793 6.164-6.238 6.164-9.686 6.164-12.479 3.404-12.479 0-12.479-3.402-9.686-6.164-6.238-6.164-2.793-6.164 0-3.402 0 0" fill="#ffffff"/>
<path transform="matrix(.78416916,0,0,-.78414568,59.375688,83.632938)" stroke-width="2" stroke-linecap="butt" stroke-miterlimit="4" stroke-linejoin="miter" fill="none" stroke="#231f20" d="M0 0C0 3.404-2.793 6.164-6.238 6.164-9.686 6.164-12.479 3.404-12.479 0-12.479-3.402-9.686-6.164-6.238-6.164-2.793-6.164 0-3.402 0 0Z"/>
<path transform="matrix(.78416916,0,0,-.78414568,77.7003,73.444377)" d="M0 0C0 3.404-2.793 6.164-6.238 6.164-9.686 6.164-12.479 3.404-12.479 0-12.479-3.402-9.686-6.164-6.238-6.164-2.793-6.164 0-3.402 0 0" fill="#231f20"/>
<path transform="matrix(.78416916,0,0,-.78414568,77.7003,73.444377)" stroke-width="2" stroke-linecap="butt" stroke-miterlimit="4" stroke-linejoin="miter" fill="none" stroke="#231f20" d="M0 0C0 3.404-2.793 6.164-6.238 6.164-9.686 6.164-12.479 3.404-12.479 0-12.479-3.402-9.686-6.164-6.238-6.164-2.793-6.164 0-3.402 0 0Z"/>
<path transform="matrix(.78416916,0,0,-.78414568,87.99786,56.0561)" d="M0 0C0 3.404-2.793 6.164-6.238 6.164-9.686 6.164-12.479 3.404-12.479 0-12.479-3.403-9.686-6.165-6.238-6.165-2.793-6.165 0-3.403 0 0" fill="#231f20"/>
<path transform="matrix(.78416916,0,0,-.78414568,87.99786,56.0561)" stroke-width="2" stroke-linecap="butt" stroke-miterlimit="4" stroke-linejoin="miter" fill="none" stroke="#231f20" d="M0 0C0 3.404-2.793 6.164-6.238 6.164-9.686 6.164-12.479 3.404-12.479 0-12.479-3.403-9.686-6.165-6.238-6.165-2.793-6.165 0-3.403 0 0Z"/>
<path transform="matrix(.78416916,0,0,-.78414568,87.50242,35.805776)" d="M0 0C0 3.404-2.793 6.164-6.238 6.164-9.686 6.164-12.479 3.404-12.479 0-12.479-3.402-9.686-6.164-6.238-6.164-2.793-6.164 0-3.402 0 0" fill="#ffffff"/>
<path transform="matrix(.78416916,0,0,-.78414568,87.50242,35.805776)" stroke-width="2" stroke-linecap="butt" stroke-miterlimit="4" stroke-linejoin="miter" fill="none" stroke="#231f20" d="M0 0C0 3.404-2.793 6.164-6.238 6.164-9.686 6.164-12.479 3.404-12.479 0-12.479-3.402-9.686-6.164-6.238-6.164-2.793-6.164 0-3.402 0 0Z"/>
<path transform="matrix(.78416916,0,0,-.78414568,77.96214,18.293053)" d="M0 0C0 3.404-2.793 6.164-6.238 6.164-9.686 6.164-12.479 3.404-12.479 0-12.479-3.402-9.686-6.164-6.238-6.164-2.793-6.164 0-3.402 0 0" fill="#ffffff"/>
<path transform="matrix(.78416916,0,0,-.78414568,77.96214,18.293053)" stroke-width="2" stroke-linecap="butt" stroke-miterlimit="4" stroke-linejoin="miter" fill="none" stroke="#231f20" d="M0 0C0 3.404-2.793 6.164-6.238 6.164-9.686 6.164-12.479 3.404-12.479 0-12.479-3.402-9.686-6.164-6.238-6.164-2.793-6.164 0-3.402 0 0Z"/>
<path transform="matrix(.78416916,0,0,-.78414568,22.21187,18.031548)" d="M0 0C0 3.404-2.793 6.164-6.238 6.164-9.686 6.164-12.479 3.404-12.479 0-12.479-3.402-9.686-6.164-6.238-6.164-2.793-6.164 0-3.402 0 0" fill="#ffffff"/>
<path transform="matrix(.78416916,0,0,-.78414568,22.21187,18.031548)" stroke-width="2" stroke-linecap="butt" stroke-miterlimit="4" stroke-linejoin="miter" fill="none" stroke="#231f20" d="M0 0C0 3.404-2.793 6.164-6.238 6.164-9.686 6.164-12.479 3.404-12.479 0-12.479-3.402-9.686-6.164-6.238-6.164-2.793-6.164 0-3.402 0 0Z"/>
<path transform="matrix(.78416916,0,0,-.78414568,39.959817,7.962097)" d="M0 0C0 3.404-2.793 6.164-6.238 6.164-9.686 6.164-12.479 3.404-12.479 0-12.479-3.403-9.686-6.165-6.238-6.165-2.793-6.165 0-3.403 0 0" fill="#ffffff"/>
<path transform="matrix(.78416916,0,0,-.78414568,39.959817,7.962097)" stroke-width="2" stroke-linecap="butt" stroke-miterlimit="4" stroke-linejoin="miter" fill="none" stroke="#231f20" d="M0 0C0 3.404-2.793 6.164-6.238 6.164-9.686 6.164-12.479 3.404-12.479 0-12.479-3.403-9.686-6.165-6.238-6.165-2.793-6.165 0-3.403 0 0Z"/>
<path transform="matrix(.78416916,0,0,-.78414568,12.14863,35.936334)" d="M0 0C0 3.404-2.793 6.164-6.238 6.164-9.686 6.164-12.479 3.404-12.479 0-12.479-3.402-9.686-6.164-6.238-6.164-2.793-6.164 0-3.402 0 0" fill="#ffffff"/>
<path transform="matrix(.78416916,0,0,-.78414568,12.14863,35.936334)" stroke-width="2" stroke-linecap="butt" stroke-miterlimit="4" stroke-linejoin="miter" fill="none" stroke="#231f20" d="M0 0C0 3.404-2.793 6.164-6.238 6.164-9.686 6.164-12.479 3.404-12.479 0-12.479-3.402-9.686-6.164-6.238-6.164-2.793-6.164 0-3.402 0 0Z"/>
<path transform="matrix(.78416916,0,0,-.78414568,22.54726,73.575328)" d="M0 0C0 3.404-2.793 6.164-6.238 6.164-9.686 6.164-12.479 3.404-12.479 0-12.479-3.402-9.686-6.164-6.238-6.164-2.793-6.164 0-3.402 0 0" fill="#231f20"/>
<path transform="matrix(.78416916,0,0,-.78414568,22.54726,73.575328)" stroke-width="2" stroke-linecap="butt" stroke-miterlimit="4" stroke-linejoin="miter" fill="none" stroke="#231f20" d="M0 0C0 3.404-2.793 6.164-6.238 6.164-9.686 6.164-12.479 3.404-12.479 0-12.479-3.402-9.686-6.164-6.238-6.164-2.793-6.164 0-3.402 0 0Z"/>
<path transform="matrix(.78416916,0,0,-.78414568,12.457279,56.187837)" d="M0 0C0 3.404-2.793 6.164-6.238 6.164-9.686 6.164-12.479 3.404-12.479 0-12.479-3.402-9.686-6.164-6.238-6.164-2.793-6.164 0-3.402 0 0" fill="#231f20"/>
<path transform="matrix(.78416916,0,0,-.78414568,12.457279,56.187837)" stroke-width="2" stroke-linecap="butt" stroke-miterlimit="4" stroke-linejoin="miter" fill="none" stroke="#231f20" d="M0 0C0 3.404-2.793 6.164-6.238 6.164-9.686 6.164-12.479 3.404-12.479 0-12.479-3.402-9.686-6.164-6.238-6.164-2.793-6.164 0-3.402 0 0Z"/>
<path transform="matrix(.78416916,0,0,-.78414568,60.188165,8.098846)" d="M0 0C0 3.404-2.793 6.164-6.238 6.164-9.686 6.164-12.479 3.404-12.479 0-12.479-3.402-9.686-6.164-6.238-6.164-2.793-6.164 0-3.402 0 0" fill="#231f20"/>
<path transform="matrix(.78416916,0,0,-.78414568,60.188165,8.098846)" stroke-width="2" stroke-linecap="butt" stroke-miterlimit="4" stroke-linejoin="miter" fill="none" stroke="#231f20" d="M0 0C0 3.404-2.793 6.164-6.238 6.164-9.686 6.164-12.479 3.404-12.479 0-12.479-3.402-9.686-6.164-6.238-6.164-2.793-6.164 0-3.402 0 0Z"/>
<path transform="matrix(.78416916,0,0,-.78414568,39.668809,83.377147)" d="M0 0C0 3.404-2.793 6.164-6.238 6.164-9.686 6.164-12.479 3.404-12.479 0-12.479-3.402-9.686-6.164-6.238-6.164-2.793-6.164 0-3.402 0 0" fill="#ffffff"/>
<path transform="matrix(.78416916,0,0,-.78414568,39.668809,83.377147)" stroke-width="2" stroke-linecap="butt" stroke-miterlimit="4" stroke-linejoin="miter" fill="none" stroke="#231f20" d="M0 0C0 3.404-2.793 6.164-6.238 6.164-9.686 6.164-12.479 3.404-12.479 0-12.479-3.402-9.686-6.164-6.238-6.164-2.793-6.164 0-3.402 0 0Z"/>
<path transform="matrix(.78416916,0,0,-.78414568,205.59218,45.822057)" stroke-width="2" stroke-linecap="butt" stroke-miterlimit="4" stroke-linejoin="miter" fill="none" stroke="#231f20" d="M0 0C0-27.615-22.387-50-50-50-77.614-50-99.999-27.615-99.999 0-99.999 27.614-77.614 50-50 50-22.387 50 0 27.614 0 0Z"/>
<path transform="matrix(.78416916,0,0,-.78414568,180.39925,83.97827)" d="M0 0C0 3.404-2.793 6.164-6.238 6.164-9.686 6.164-12.479 3.404-12.479 0-12.479-3.402-9.686-6.164-6.238-6.164-2.793-6.164 0-3.402 0 0" fill="#ffffff"/>
<path transform="matrix(.78416916,0,0,-.78414568,180.39925,83.97827)" stroke-width="2" stroke-linecap="butt" stroke-miterlimit="4" stroke-linejoin="miter" fill="none" stroke="#231f20" d="M0 0C0 3.404-2.793 6.164-6.238 6.164-9.686 6.164-12.479 3.404-12.479 0-12.479-3.402-9.686-6.164-6.238-6.164-2.793-6.164 0-3.402 0 0Z"/>
<path transform="matrix(.78416916,0,0,-.78414568,198.7231,73.78979)" d="M0 0C0 3.404-2.793 6.164-6.238 6.164-9.686 6.164-12.479 3.404-12.479 0-12.479-3.402-9.686-6.164-6.238-6.164-2.793-6.164 0-3.402 0 0" fill="#ffffff"/>
<path transform="matrix(.78416916,0,0,-.78414568,198.7231,73.78979)" stroke-width="2" stroke-linecap="butt" stroke-miterlimit="4" stroke-linejoin="miter" fill="none" stroke="#231f20" d="M0 0C0 3.404-2.793 6.164-6.238 6.164-9.686 6.164-12.479 3.404-12.479 0-12.479-3.402-9.686-6.164-6.238-6.164-2.793-6.164 0-3.402 0 0Z"/>
<path transform="matrix(.78416916,0,0,-.78414568,209.02144,56.401517)" d="M0 0C0 3.404-2.793 6.164-6.238 6.164-9.686 6.164-12.479 3.404-12.479 0-12.479-3.403-9.686-6.165-6.238-6.165-2.793-6.165 0-3.403 0 0" fill="#231f20"/>
<path transform="matrix(.78416916,0,0,-.78414568,209.02144,56.401517)" stroke-width="2" stroke-linecap="butt" stroke-miterlimit="4" stroke-linejoin="miter" fill="none" stroke="#231f20" d="M0 0C0 3.404-2.793 6.164-6.238 6.164-9.686 6.164-12.479 3.404-12.479 0-12.479-3.403-9.686-6.165-6.238-6.165-2.793-6.165 0-3.403 0 0Z"/>
<path transform="matrix(.78416916,0,0,-.78414568,208.5252,36.151189)" d="M0 0C0 3.404-2.793 6.164-6.238 6.164-9.686 6.164-12.479 3.404-12.479 0-12.479-3.402-9.686-6.164-6.238-6.164-2.793-6.164 0-3.402 0 0" fill="#231f20"/>
<path transform="matrix(.78416916,0,0,-.78414568,208.5252,36.151189)" stroke-width="2" stroke-linecap="butt" stroke-miterlimit="4" stroke-linejoin="miter" fill="none" stroke="#231f20" d="M0 0C0 3.404-2.793 6.164-6.238 6.164-9.686 6.164-12.479 3.404-12.479 0-12.479-3.402-9.686-6.164-6.238-6.164-2.793-6.164 0-3.402 0 0Z"/>
<path transform="matrix(.78416916,0,0,-.78414568,198.98499,18.638474)" d="M0 0C0 3.404-2.793 6.164-6.238 6.164-9.686 6.164-12.479 3.404-12.479 0-12.479-3.402-9.686-6.164-6.238-6.164-2.793-6.164 0-3.402 0 0" fill="#ffffff"/>
<path transform="matrix(.78416916,0,0,-.78414568,198.98499,18.638474)" stroke-width="2" stroke-linecap="butt" stroke-miterlimit="4" stroke-linejoin="miter" fill="none" stroke="#231f20" d="M0 0C0 3.404-2.793 6.164-6.238 6.164-9.686 6.164-12.479 3.404-12.479 0-12.479-3.402-9.686-6.164-6.238-6.164-2.793-6.164 0-3.402 0 0Z"/>
<path transform="matrix(.78416916,0,0,-.78414568,143.23545,18.37696)" d="M0 0C0 3.404-2.793 6.164-6.238 6.164-9.686 6.164-12.479 3.404-12.479 0-12.479-3.402-9.686-6.164-6.238-6.164-2.793-6.164 0-3.402 0 0" fill="#231f20"/>
<path transform="matrix(.78416916,0,0,-.78414568,143.23545,18.37696)" stroke-width="2" stroke-linecap="butt" stroke-miterlimit="4" stroke-linejoin="miter" fill="none" stroke="#231f20" d="M0 0C0 3.404-2.793 6.164-6.238 6.164-9.686 6.164-12.479 3.404-12.479 0-12.479-3.402-9.686-6.164-6.238-6.164-2.793-6.164 0-3.402 0 0Z"/>
<path transform="matrix(.78416916,0,0,-.78414568,160.98378,8.30751)" d="M0 0C0 3.404-2.793 6.164-6.239 6.164-9.686 6.164-12.479 3.404-12.479 0-12.479-3.403-9.686-6.165-6.239-6.165-2.793-6.165 0-3.403 0 0" fill="#231f20"/>
<path transform="matrix(.78416916,0,0,-.78414568,160.98378,8.30751)" stroke-width="2" stroke-linecap="butt" stroke-miterlimit="4" stroke-linejoin="miter" fill="none" stroke="#231f20" d="M0 0C0 3.404-2.793 6.164-6.239 6.164-9.686 6.164-12.479 3.404-12.479 0-12.479-3.403-9.686-6.165-6.239-6.165-2.793-6.165 0-3.403 0 0Z"/>
<path transform="matrix(.78416916,0,0,-.78414568,133.1722,36.281755)" d="M0 0C0 3.404-2.793 6.164-6.238 6.164-9.686 6.164-12.479 3.404-12.479 0-12.479-3.402-9.686-6.164-6.238-6.164-2.793-6.164 0-3.402 0 0" fill="#ffffff"/>
<path transform="matrix(.78416916,0,0,-.78414568,133.1722,36.281755)" stroke-width="2" stroke-linecap="butt" stroke-miterlimit="4" stroke-linejoin="miter" fill="none" stroke="#231f20" d="M0 0C0 3.404-2.793 6.164-6.238 6.164-9.686 6.164-12.479 3.404-12.479 0-12.479-3.402-9.686-6.164-6.238-6.164-2.793-6.164 0-3.402 0 0Z"/>
<path transform="matrix(.78416916,0,0,-.78414568,143.57083,73.920749)" d="M0 0C0 3.404-2.793 6.164-6.238 6.164-9.686 6.164-12.479 3.404-12.479 0-12.479-3.402-9.686-6.164-6.238-6.164-2.793-6.164 0-3.402 0 0" fill="#231f20"/>
<path transform="matrix(.78416916,0,0,-.78414568,143.57083,73.920749)" stroke-width="2" stroke-linecap="butt" stroke-miterlimit="4" stroke-linejoin="miter" fill="none" stroke="#231f20" d="M0 0C0 3.404-2.793 6.164-6.238 6.164-9.686 6.164-12.479 3.404-12.479 0-12.479-3.402-9.686-6.164-6.238-6.164-2.793-6.164 0-3.402 0 0Z"/>
<path transform="matrix(.78416916,0,0,-.78414568,133.48085,56.533178)" d="M0 0C0 3.404-2.793 6.164-6.238 6.164-9.686 6.164-12.479 3.404-12.479 0-12.479-3.402-9.686-6.164-6.238-6.164-2.793-6.164 0-3.402 0 0" fill="#ffffff"/>
<path transform="matrix(.78416916,0,0,-.78414568,133.48085,56.533178)" stroke-width="2" stroke-linecap="butt" stroke-miterlimit="4" stroke-linejoin="miter" fill="none" stroke="#231f20" d="M0 0C0 3.404-2.793 6.164-6.238 6.164-9.686 6.164-12.479 3.404-12.479 0-12.479-3.402-9.686-6.164-6.238-6.164-2.793-6.164 0-3.402 0 0Z"/>
<path transform="matrix(.78416916,0,0,-.78414568,181.21094,8.444183)" d="M0 0C0 3.404-2.793 6.164-6.238 6.164-9.686 6.164-12.479 3.404-12.479 0-12.479-3.402-9.686-6.164-6.238-6.164-2.793-6.164 0-3.402 0 0" fill="#ffffff"/>
<path transform="matrix(.78416916,0,0,-.78414568,181.21094,8.444183)" stroke-width="2" stroke-linecap="butt" stroke-miterlimit="4" stroke-linejoin="miter" fill="none" stroke="#231f20" d="M0 0C0 3.404-2.793 6.164-6.238 6.164-9.686 6.164-12.479 3.404-12.479 0-12.479-3.402-9.686-6.164-6.238-6.164-2.793-6.164 0-3.402 0 0Z"/>
<path transform="matrix(.78416916,0,0,-.78414568,160.69277,83.722568)" d="M0 0C0 3.404-2.793 6.164-6.239 6.164-9.686 6.164-12.479 3.404-12.479 0-12.479-3.402-9.686-6.164-6.239-6.164-2.793-6.164 0-3.402 0 0" fill="#ffffff"/>
<path transform="matrix(.78416916,0,0,-.78414568,160.69277,83.722568)" stroke-width="2" stroke-linecap="butt" stroke-miterlimit="4" stroke-linejoin="miter" fill="none" stroke="#231f20" d="M0 0C0 3.404-2.793 6.164-6.239 6.164-9.686 6.164-12.479 3.404-12.479 0-12.479-3.402-9.686-6.164-6.239-6.164-2.793-6.164 0-3.402 0 0Z"/>
<path transform="matrix(.78416916,0,0,-.78414568,323.0935,44.838037)" stroke-width="2" stroke-linecap="butt" stroke-miterlimit="4" stroke-linejoin="miter" fill="none" stroke="#231f20" d="M0 0C0-27.615-22.387-50-50-50-77.615-50-100-27.615-100 0-100 27.614-77.615 50-50 50-22.387 50 0 27.614 0 0Z"/>
<path transform="matrix(.78416916,0,0,-.78414568,297.90058,82.99432)" d="M0 0C0 3.404-2.793 6.164-6.238 6.164-9.686 6.164-12.479 3.404-12.479 0-12.479-3.402-9.686-6.164-6.238-6.164-2.793-6.164 0-3.402 0 0" fill="#231f20"/>
<path transform="matrix(.78416916,0,0,-.78414568,297.90058,82.99432)" stroke-width="2" stroke-linecap="butt" stroke-miterlimit="4" stroke-linejoin="miter" fill="none" stroke="#231f20" d="M0 0C0 3.404-2.793 6.164-6.238 6.164-9.686 6.164-12.479 3.404-12.479 0-12.479-3.402-9.686-6.164-6.238-6.164-2.793-6.164 0-3.402 0 0Z"/>
<path transform="matrix(.78416916,0,0,-.78414568,316.22444,72.80576)" d="M0 0C0 3.404-2.793 6.164-6.238 6.164-9.686 6.164-12.479 3.404-12.479 0-12.479-3.402-9.686-6.164-6.238-6.164-2.793-6.164 0-3.402 0 0" fill="#231f20"/>
<path transform="matrix(.78416916,0,0,-.78414568,316.22444,72.80576)" stroke-width="2" stroke-linecap="butt" stroke-miterlimit="4" stroke-linejoin="miter" fill="none" stroke="#231f20" d="M0 0C0 3.404-2.793 6.164-6.238 6.164-9.686 6.164-12.479 3.404-12.479 0-12.479-3.402-9.686-6.164-6.238-6.164-2.793-6.164 0-3.402 0 0Z"/>
<path transform="matrix(.78416916,0,0,-.78414568,326.52278,55.417493)" d="M0 0C0 3.404-2.793 6.164-6.238 6.164-9.686 6.164-12.479 3.404-12.479 0-12.479-3.403-9.686-6.165-6.238-6.165-2.793-6.165 0-3.403 0 0" fill="#ffffff"/>
<path transform="matrix(.78416916,0,0,-.78414568,326.52278,55.417493)" stroke-width="2" stroke-linecap="butt" stroke-miterlimit="4" stroke-linejoin="miter" fill="none" stroke="#231f20" d="M0 0C0 3.404-2.793 6.164-6.238 6.164-9.686 6.164-12.479 3.404-12.479 0-12.479-3.403-9.686-6.165-6.238-6.165-2.793-6.165 0-3.403 0 0Z"/>
<path transform="matrix(.78416916,0,0,-.78414568,326.0265,35.167169)" d="M0 0C0 3.404-2.793 6.164-6.238 6.164-9.686 6.164-12.479 3.404-12.479 0-12.479-3.402-9.686-6.164-6.238-6.164-2.793-6.164 0-3.402 0 0" fill="#ffffff"/>
<path transform="matrix(.78416916,0,0,-.78414568,326.0265,35.167169)" stroke-width="2" stroke-linecap="butt" stroke-miterlimit="4" stroke-linejoin="miter" fill="none" stroke="#231f20" d="M0 0C0 3.404-2.793 6.164-6.238 6.164-9.686 6.164-12.479 3.404-12.479 0-12.479-3.402-9.686-6.164-6.238-6.164-2.793-6.164 0-3.402 0 0Z"/>
<path transform="matrix(.78416916,0,0,-.78414568,316.48634,17.65445)" d="M0 0C0 3.404-2.793 6.164-6.238 6.164-9.686 6.164-12.479 3.404-12.479 0-12.479-3.402-9.686-6.164-6.238-6.164-2.793-6.164 0-3.402 0 0" fill="#231f20"/>
<path transform="matrix(.78416916,0,0,-.78414568,316.48634,17.65445)" stroke-width="2" stroke-linecap="butt" stroke-miterlimit="4" stroke-linejoin="miter" fill="none" stroke="#231f20" d="M0 0C0 3.404-2.793 6.164-6.238 6.164-9.686 6.164-12.479 3.404-12.479 0-12.479-3.402-9.686-6.164-6.238-6.164-2.793-6.164 0-3.402 0 0Z"/>
<path transform="matrix(.78416916,0,0,-.78414568,260.73677,17.392937)" d="M0 0C0 3.404-2.793 6.164-6.238 6.164-9.686 6.164-12.479 3.404-12.479 0-12.479-3.402-9.686-6.164-6.238-6.164-2.793-6.164 0-3.402 0 0" fill="#ffffff"/>
<path transform="matrix(.78416916,0,0,-.78414568,260.73677,17.392937)" stroke-width="2" stroke-linecap="butt" stroke-miterlimit="4" stroke-linejoin="miter" fill="none" stroke="#231f20" d="M0 0C0 3.404-2.793 6.164-6.238 6.164-9.686 6.164-12.479 3.404-12.479 0-12.479-3.402-9.686-6.164-6.238-6.164-2.793-6.164 0-3.402 0 0Z"/>
<path transform="matrix(.78416916,0,0,-.78414568,278.48469,7.3234865)" d="M0 0C0 3.404-2.793 6.164-6.238 6.164-9.686 6.164-12.479 3.404-12.479 0-12.479-3.403-9.686-6.165-6.238-6.165-2.793-6.165 0-3.403 0 0" fill="#ffffff"/>
<path transform="matrix(.78416916,0,0,-.78414568,278.48469,7.3234865)" stroke-width="2" stroke-linecap="butt" stroke-miterlimit="4" stroke-linejoin="miter" fill="none" stroke="#231f20" d="M0 0C0 3.404-2.793 6.164-6.238 6.164-9.686 6.164-12.479 3.404-12.479 0-12.479-3.403-9.686-6.165-6.238-6.165-2.793-6.165 0-3.403 0 0Z"/>
<path transform="matrix(.78416916,0,0,-.78414568,250.67272,35.29772)" d="M0 0C0 3.404-2.793 6.164-6.238 6.164-9.686 6.164-12.479 3.404-12.479 0-12.479-3.402-9.686-6.164-6.238-6.164-2.793-6.164 0-3.402 0 0" fill="#ffffff"/>
<path transform="matrix(.78416916,0,0,-.78414568,250.67272,35.29772)" stroke-width="2" stroke-linecap="butt" stroke-miterlimit="4" stroke-linejoin="miter" fill="none" stroke="#231f20" d="M0 0C0 3.404-2.793 6.164-6.238 6.164-9.686 6.164-12.479 3.404-12.479 0-12.479-3.402-9.686-6.164-6.238-6.164-2.793-6.164 0-3.402 0 0Z"/>
<path transform="matrix(.78416916,0,0,-.78414568,261.07215,72.93672)" d="M0 0C0 3.404-2.793 6.164-6.238 6.164-9.686 6.164-12.479 3.404-12.479 0-12.479-3.402-9.686-6.164-6.238-6.164-2.793-6.164 0-3.402 0 0" fill="#ffffff"/>
<path transform="matrix(.78416916,0,0,-.78414568,261.07215,72.93672)" stroke-width="2" stroke-linecap="butt" stroke-miterlimit="4" stroke-linejoin="miter" fill="none" stroke="#231f20" d="M0 0C0 3.404-2.793 6.164-6.238 6.164-9.686 6.164-12.479 3.404-12.479 0-12.479-3.402-9.686-6.164-6.238-6.164-2.793-6.164 0-3.402 0 0Z"/>
<path transform="matrix(.78416916,0,0,-.78414568,250.98217,55.54923)" d="M0 0C0 3.404-2.793 6.164-6.238 6.164-9.686 6.164-12.479 3.404-12.479 0-12.479-3.402-9.686-6.164-6.238-6.164-2.793-6.164 0-3.402 0 0" fill="#231f20"/>
<path transform="matrix(.78416916,0,0,-.78414568,250.98217,55.54923)" stroke-width="2" stroke-linecap="butt" stroke-miterlimit="4" stroke-linejoin="miter" fill="none" stroke="#231f20" d="M0 0C0 3.404-2.793 6.164-6.238 6.164-9.686 6.164-12.479 3.404-12.479 0-12.479-3.402-9.686-6.164-6.238-6.164-2.793-6.164 0-3.402 0 0Z"/>
<path transform="matrix(.78416916,0,0,-.78414568,298.71229,7.460167)" d="M0 0C0 3.404-2.793 6.164-6.238 6.164-9.686 6.164-12.479 3.404-12.479 0-12.479-3.402-9.686-6.164-6.238-6.164-2.793-6.164 0-3.402 0 0" fill="#231f20"/>
<path transform="matrix(.78416916,0,0,-.78414568,298.71229,7.460167)" stroke-width="2" stroke-linecap="butt" stroke-miterlimit="4" stroke-linejoin="miter" fill="none" stroke="#231f20" d="M0 0C0 3.404-2.793 6.164-6.238 6.164-9.686 6.164-12.479 3.404-12.479 0-12.479-3.402-9.686-6.164-6.238-6.164-2.793-6.164 0-3.402 0 0Z"/>
<path transform="matrix(.78416916,0,0,-.78414568,278.19367,82.73854)" d="M0 0C0 3.404-2.793 6.164-6.238 6.164-9.686 6.164-12.479 3.404-12.479 0-12.479-3.402-9.686-6.164-6.238-6.164-2.793-6.164 0-3.402 0 0" fill="#ffffff"/>
<path transform="matrix(.78416916,0,0,-.78414568,278.19367,82.73854)" stroke-width="2" stroke-linecap="butt" stroke-miterlimit="4" stroke-linejoin="miter" fill="none" stroke="#231f20" d="M0 0C0 3.404-2.793 6.164-6.238 6.164-9.686 6.164-12.479 3.404-12.479 0-12.479-3.402-9.686-6.164-6.238-6.164-2.793-6.164 0-3.402 0 0Z"/>
</g>
</g>
</g>
</g>
<use data-text="S" xlink:href="#font_3_1" transform="matrix(9.963098,0,0,-9.962799,41.321519,46.635595)"/>
<use data-text="1" xlink:href="#font_4_1" transform="matrix(6.9741489,0,0,-6.97394,47.430818,48.130624)"/>
<use data-text="S" xlink:href="#font_3_1" transform="matrix(9.963098,0,0,-9.962799,161.5765,46.635595)"/>
<use data-text="2" xlink:href="#font_4_2" transform="matrix(6.9741489,0,0,-6.97394,167.68582,48.130624)"/>
<use data-text="S" xlink:href="#font_3_1" transform="matrix(9.963098,0,0,-9.962799,278.44337,46.635595)"/>
<use data-text="3" xlink:href="#font_4_3" transform="matrix(6.9741489,0,0,-6.97394,284.55268,48.130624)"/>
</svg>
