<svg xmlns="http://www.w3.org/2000/svg" xmlns:xlink="http://www.w3.org/1999/xlink" xmlns:inkscape="http://www.inkscape.org/namespaces/inkscape" version="1.1" width="148" height="57" viewBox="0 0 148 57">
<defs>
<clipPath id="clip_1">
<path transform="matrix(.40326,0,0,-.40328015,-29.102955,55.509305)" d="M0 0H504V144H0Z"/>
</clipPath>
<clipPath id="clip_2">
<path transform="matrix(.40326,0,0,-.40328015,-29.102955,55.509305)" d="M0 144H504V0H0Z"/>
</clipPath>
<path id="font_3_1" d="M.7659912 .6692505C.7659912 .68826296 .7659912 .6972656 .7480011 .6972656 .7389984 .6972656 .7369995 .69525149 .72898867 .68826296L.6629944 .6292572C.6009979 .67926028 .5339966 .6972656 .46598817 .6972656 .21699524 .6972656 .06399536 .54826357 .06399536 .34326173 .06399536 .13824463 .21699524-.0107421879 .46598817-.0107421879 .6529999-.0107421879 .7659912 .11225891 .7659912 .22724915 .7659912 .24725342 .7589874 .2482605 .74198916 .2482605 .72898867 .2482605 .7200012 .2482605 .71899417 .23124695 .71199038 .09724426 .59098818 .036254884 .48999024 .036254884 .4119873 .036254884 .32798768 .060256959 .27598573 .12124634 .22898865 .17825318 .21699524 .25325013 .21699524 .34326173 .21699524 .39926148 .21998596 .5072632 .2829895 .57325747 .34799195 .63926699 .43499757 .6502533 .4869995 .6502533 .59498599 .6502533 .6899872 .5742645 .71199038 .44725038 .71499636 .42825318 .71598818 .42625428 .7389984 .42625428 .7649994 .42625428 .7659912 .42825318 .7659912 .45425416V.6692505Z"/>
<path id="font_4_1" d="M.272995 .33428956C.35099793 .33428956 .40699769 .2803192 .40699769 .1733551 .40699769 .04940796 .33499146 .012466431 .2769928 .012466431 .23699951 .012466431 .14898682 .0234375 .10699463 .082351688 .1539917 .084350589 .16499329 .11735535 .16499329 .13835144 .16499329 .17034912 .14099121 .19335938 .10998535 .19335938 .08198547 .19335938 .053985597 .17634583 .053985597 .13534546 .053985597 .041412355 .1579895-.01953125 .2789917-.01953125 .41799928-.01953125 .5139923 .07336426 .5139923 .1733551 .5139923 .2513275 .44999696 .32929994 .33999635 .35229493 .44499208 .39024354 .48298646 .4650879 .48298646 .5260773 .48298646 .60505679 .3919983 .6640625 .2809906 .6640625 .16999817 .6640625 .084991458 .61006167 .084991458 .5300751 .084991458 .49606324 .10699463 .47706605 .13699341 .47706605 .16799927 .47706605 .18798828 .5000763 .18798828 .5280762 .18798828 .5570679 .16799927 .57806399 .13699341 .5800781 .17199707 .62405398 .24099732 .63505557 .27799989 .63505557 .32299806 .63505557 .38598634 .6130676 .38598634 .5260773 .38598634 .48406983 .37199403 .43814088 .34599305 .4072113 .31298829 .36927796 .2849884 .3672943 .23498535 .36428834 .20999146 .3623047 .20799256 .3623047 .20298767 .3612976 .20098877 .3612976 .19299317 .3592987 .19299317 .34829713 .19299317 .33428956 .20199585 .33428956 .21899414 .33428956H.272995Z"/>
<path id="font_4_2" d="M.5289917 .1640625V.20005799H.41799928V.64582827C.41799928 .66682437 .41799928 .6738281 .3959961 .6738281 .38398744 .6738281 .37998963 .6738281 .36999513 .65982058L.038986207 .20005799V.1640625H.33299256V.08201599C.33299256 .04800415 .33299256 .035995485 .2519989 .035995485H.22499085V0C.2749939 .0019989014 .33898927 .0039978029 .375 .0039978029 .4119873 .0039978029 .47599793 .0019989014 .526001 0V.035995485H.49899293C.41799928 .035995485 .41799928 .04800415 .41799928 .08201599V.1640625H.5289917M.33999635 .5658722V.20005799H.07598877L.33999635 .5658722Z"/>
<path id="font_4_3" d="M.15499878 .5588074C.20599365 .5458069 .23599243 .5458069 .2519989 .5458069 .38398744 .5458069 .46199037 .6358032 .46199037 .6508026 .46199037 .6618042 .45498658 .6648102 .44999696 .6648102 .44799806 .6648102 .44599916 .6648102 .44198609 .6618042 .41799928 .6528015 .36499024 .6328125 .29100038 .6328125 .2630005 .6328125 .20999146 .6348114 .14498902 .6598053 .1349945 .6648102 .1329956 .6648102 .13198853 .6648102 .11898804 .6648102 .11898804 .6538086 .11898804 .6378021V.34251405C.11898804 .32548524 .11898804 .3134613 .1349945 .3134613 .14399719 .3134613 .14498902 .3154602 .15499878 .32748414 .19799805 .38259889 .25898744 .390625 .2939911 .390625 .35398866 .390625 .3809967 .34251405 .38598634 .33450318 .4039917 .30143739 .4099884 .26335145 .4099884 .20524597 .4099884 .17524719 .4099884 .116256717 .37998963 .07234192 .35499574 .03640747 .31199647 .012466431 .2630005 .012466431 .19799805 .012466431 .1309967 .04838562 .10598755 .11425781 .14399719 .11125183 .16299439 .13624573 .16299439 .16325379 .16299439 .20625305 .12599182 .21424866 .11299133 .21424866 .11099243 .21424866 .06298828 .21424866 .06298828 .1602478 .06298828 .07034302 .14498902-.01953125 .2649994-.01953125 .3929901-.01953125 .5049896 .07533264 .5049896 .20124817 .5049896 .31445313 .4189911 .41862489 .29499818 .41862489 .25099183 .41862489 .19898987 .4076233 .15499878 .36956788V.5588074Z"/>
</defs>
<g clip-path="url(#clip_1)">
<g inkscape:groupmode="layer" inkscape:label="Layer 1">
<path transform="matrix(.40326,0,0,-.40328015,4.7031366,41.476)" stroke-width="3" stroke-linecap="butt" stroke-miterlimit="4" stroke-linejoin="miter" fill="none" stroke="#231f20" d="M0 0 43.301 75 86.603 0H0Z"/>
<g clip-path="url(#clip_2)">
<path transform="matrix(.40326,0,0,-.40328015,8.104073,41.12632)" d="M0 0C0 3.977-3.492 7.201-7.799 7.201-12.107 7.201-15.6 3.977-15.6 0-15.6-3.977-12.107-7.199-7.799-7.199-3.492-7.199 0-3.977 0 0" fill="#f9cd83"/>
<path transform="matrix(.40326,0,0,-.40328015,8.104073,41.12632)" stroke-width="4" stroke-linecap="butt" stroke-miterlimit="4" stroke-linejoin="miter" fill="none" stroke="#231f20" d="M0 0C0 3.977-3.492 7.201-7.799 7.201-12.107 7.201-15.6 3.977-15.6 0-15.6-3.977-12.107-7.199-7.799-7.199-3.492-7.199 0-3.977 0 0Z"/>
<path transform="matrix(.40326,0,0,-.40328015,42.246686,41.3949)" d="M0 0C0 3.977-3.492 7.199-7.799 7.199-12.107 7.199-15.6 3.977-15.6 0-15.6-3.977-12.107-7.201-7.799-7.201-3.492-7.201 0-3.977 0 0" fill="#f9cd83"/>
<path transform="matrix(.40326,0,0,-.40328015,42.246686,41.3949)" stroke-width="4" stroke-linecap="butt" stroke-miterlimit="4" stroke-linejoin="miter" fill="none" stroke="#231f20" d="M0 0C0 3.977-3.492 7.199-7.799 7.199-12.107 7.199-15.6 3.977-15.6 0-15.6-3.977-12.107-7.201-7.799-7.201-3.492-7.201 0-3.977 0 0Z"/>
<path transform="matrix(.40326,0,0,-.40328015,25.44445,10.611118)" d="M0 0C0 3.977-3.492 7.2-7.799 7.2-12.107 7.2-15.6 3.977-15.6 0-15.6-3.976-12.107-7.2-7.799-7.2-3.492-7.2 0-3.976 0 0" fill="#f9cd83"/>
<path transform="matrix(.40326,0,0,-.40328015,25.44445,10.611118)" stroke-width="4" stroke-linecap="butt" stroke-miterlimit="4" stroke-linejoin="miter" fill="none" stroke="#231f20" d="M0 0C0 3.977-3.492 7.2-7.799 7.2-12.107 7.2-15.6 3.977-15.6 0-15.6-3.976-12.107-7.2-7.799-7.2-3.492-7.2 0-3.976 0 0Z"/>
<path transform="matrix(.40326,0,0,-.40328015,-29.102955,55.509305)" stroke-width="3" stroke-linecap="butt" stroke-miterlimit="4" stroke-linejoin="miter" fill="none" stroke="#231f20" d="M212.443 105.354H283.154V34.643999H212.443Z"/>
<path transform="matrix(.40326,0,0,-.40328015,59.855634,13.0308)" d="M0 0C0 3.977-3.492 7.2-7.799 7.2-12.107 7.2-15.6 3.977-15.6 0-15.6-3.976-12.107-7.2-7.799-7.2-3.492-7.2 0-3.976 0 0" fill="#f9cd83"/>
<path transform="matrix(.40326,0,0,-.40328015,59.855634,13.0308)" stroke-width="4" stroke-linecap="butt" stroke-miterlimit="4" stroke-linejoin="miter" fill="none" stroke="#231f20" d="M0 0C0 3.977-3.492 7.2-7.799 7.2-12.107 7.2-15.6 3.977-15.6 0-15.6-3.976-12.107-7.2-7.799-7.2-3.492-7.2 0-3.976 0 0Z"/>
<path transform="matrix(.40326,0,0,-.40328015,88.08424,13.031204)" d="M0 0C0 3.978-3.492 7.201-7.799 7.201-12.107 7.201-15.6 3.978-15.6 0-15.6-3.975-12.107-7.199-7.799-7.199-3.492-7.199 0-3.975 0 0" fill="#f9cd83"/>
<path transform="matrix(.40326,0,0,-.40328015,88.08424,13.031204)" stroke-width="4" stroke-linecap="butt" stroke-miterlimit="4" stroke-linejoin="miter" fill="none" stroke="#231f20" d="M0 0C0 3.978-3.492 7.201-7.799 7.201-12.107 7.201-15.6 3.978-15.6 0-15.6-3.975-12.107-7.199-7.799-7.199-3.492-7.199 0-3.975 0 0Z"/>
<path transform="matrix(.40326,0,0,-.40328015,60.12421,41.26021)" d="M0 0C0 3.977-3.492 7.199-7.799 7.199-12.107 7.199-15.6 3.977-15.6 0-15.6-3.977-12.107-7.201-7.799-7.201-3.492-7.201 0-3.977 0 0" fill="#f9cd83"/>
<path transform="matrix(.40326,0,0,-.40328015,60.12421,41.26021)" stroke-width="4" stroke-linecap="butt" stroke-miterlimit="4" stroke-linejoin="miter" fill="none" stroke="#231f20" d="M0 0C0 3.977-3.492 7.199-7.799 7.199-12.107 7.199-15.6 3.977-15.6 0-15.6-3.977-12.107-7.201-7.799-7.201-3.492-7.201 0-3.977 0 0Z"/>
<path transform="matrix(.40326,0,0,-.40328015,87.54628,41.5296)" d="M0 0C0 3.977-3.492 7.201-7.799 7.201-12.107 7.201-15.6 3.977-15.6 0-15.6-3.975-12.107-7.199-7.799-7.199-3.492-7.199 0-3.975 0 0" fill="#f9cd83"/>
<path transform="matrix(.40326,0,0,-.40328015,87.54628,41.5296)" stroke-width="4" stroke-linecap="butt" stroke-miterlimit="4" stroke-linejoin="miter" fill="none" stroke="#231f20" d="M0 0C0 3.977-3.492 7.201-7.799 7.201-12.107 7.201-15.6 3.977-15.6 0-15.6-3.975-12.107-7.199-7.799-7.199-3.492-7.199 0-3.975 0 0Z"/>
<path transform="matrix(.40326,0,0,-.40328015,111.4426,41.798185)" stroke-width="3" stroke-linecap="butt" stroke-miterlimit="4" stroke-linejoin="miter" fill="none" stroke="#231f20" d="M0 0-18.163 55.902 29.39 90.451 76.942 55.902 58.779 0H0Z"/>
<path transform="matrix(.40326,0,0,-.40328015,126.43962,5.3210108)" d="M0 0C0 3.977-3.492 7.2-7.799 7.2-12.107 7.2-15.6 3.977-15.6 0-15.6-3.976-12.107-7.2-7.799-7.2-3.492-7.2 0-3.976 0 0" fill="#f9cd83"/>
<path transform="matrix(.40326,0,0,-.40328015,126.43962,5.3210108)" stroke-width="4" stroke-linecap="butt" stroke-miterlimit="4" stroke-linejoin="miter" fill="none" stroke="#231f20" d="M0 0C0 3.977-3.492 7.2-7.799 7.2-12.107 7.2-15.6 3.977-15.6 0-15.6-3.976-12.107-7.2-7.799-7.2-3.492-7.2 0-3.976 0 0Z"/>
<path transform="matrix(.40326,0,0,-.40328015,107.26352,19.253495)" d="M0 0C0 3.977-3.492 7.199-7.799 7.199-12.107 7.199-15.6 3.977-15.6 0-15.6-3.977-12.107-7.201-7.799-7.201-3.492-7.201 0-3.977 0 0" fill="#f9cd83"/>
<path transform="matrix(.40326,0,0,-.40328015,107.26352,19.253495)" stroke-width="4" stroke-linecap="butt" stroke-miterlimit="4" stroke-linejoin="miter" fill="none" stroke="#231f20" d="M0 0C0 3.977-3.492 7.199-7.799 7.199-12.107 7.199-15.6 3.977-15.6 0-15.6-3.977-12.107-7.201-7.799-7.201-3.492-7.201 0-3.977 0 0Z"/>
<path transform="matrix(.40326,0,0,-.40328015,114.96756,41.851739)" d="M0 0C0 3.977-3.492 7.199-7.799 7.199-12.107 7.199-15.6 3.977-15.6 0-15.6-3.977-12.107-7.201-7.799-7.201-3.492-7.201 0-3.977 0 0" fill="#f9cd83"/>
<path transform="matrix(.40326,0,0,-.40328015,114.96756,41.851739)" stroke-width="4" stroke-linecap="butt" stroke-miterlimit="4" stroke-linejoin="miter" fill="none" stroke="#231f20" d="M0 0C0 3.977-3.492 7.199-7.799 7.199-12.107 7.199-15.6 3.977-15.6 0-15.6-3.977-12.107-7.201-7.799-7.201-3.492-7.201 0-3.977 0 0Z"/>
<path transform="matrix(.40326,0,0,-.40328015,145.88353,19.483845)" d="M0 0C0 3.977-3.492 7.199-7.799 7.199-12.107 7.199-15.6 3.977-15.6 0-15.6-3.977-12.107-7.201-7.799-7.201-3.492-7.201 0-3.977 0 0" fill="#f9cd83"/>
<path transform="matrix(.40326,0,0,-.40328015,145.88353,19.483845)" stroke-width="4" stroke-linecap="butt" stroke-miterlimit="4" stroke-linejoin="miter" fill="none" stroke="#231f20" d="M0 0C0 3.977-3.492 7.199-7.799 7.199-12.107 7.199-15.6 3.977-15.6 0-15.6-3.977-12.107-7.201-7.799-7.201-3.492-7.201 0-3.977 0 0Z"/>
<path transform="matrix(.40326,0,0,-.40328015,138.30274,41.5296)" d="M0 0C0 3.977-3.492 7.199-7.799 7.199-12.107 7.199-15.6 3.977-15.6 0-15.6-3.977-12.107-7.201-7.799-7.201-3.492-7.201 0-3.977 0 0" fill="#f9cd83"/>
<path transform="matrix(.40326,0,0,-.40328015,138.30274,41.5296)" stroke-width="4" stroke-linecap="butt" stroke-miterlimit="4" stroke-linejoin="miter" fill="none" stroke="#231f20" d="M0 0C0 3.977-3.492 7.199-7.799 7.199-12.107 7.199-15.6 3.977-15.6 0-15.6-3.977-12.107-7.201-7.799-7.201-3.492-7.201 0-3.977 0 0Z"/>
</g>
</g>
</g>
<use data-text="C" xlink:href="#font_3_1" transform="matrix(9.9626,0,0,-9.963098,19.673996,53.477025)"/>
<use data-text="3" xlink:href="#font_4_1" transform="matrix(6.9738,0,0,-6.9741489,27.947999,54.9711)"/>
<use data-text="C" xlink:href="#font_3_1" transform="matrix(9.9626,0,0,-9.963098,67.435,53.477025)"/>
<use data-text="4" xlink:href="#font_4_2" transform="matrix(6.9738,0,0,-6.9741489,75.70999,54.9711)"/>
<use data-text="C" xlink:href="#font_3_1" transform="matrix(9.9626,0,0,-9.963098,119.26099,53.477025)"/>
<use data-text="5" xlink:href="#font_4_3" transform="matrix(6.9738,0,0,-6.9741489,127.53499,54.9711)"/>
</svg>
