<svg xmlns="http://www.w3.org/2000/svg" xmlns:xlink="http://www.w3.org/1999/xlink" xmlns:inkscape="http://www.inkscape.org/namespaces/inkscape" version="1.1" width="249" height="125" viewBox="0 0 249 125">
<defs>
<clipPath id="clip_1">
<path transform="matrix(.500045,0,0,-.500015,-.10303879,117.611789)" d="M0 0H522V216H0Z"/>
</clipPath>
<clipPath id="clip_2">
<path transform="matrix(.500045,0,0,-.500015,-.10303879,117.611789)" d="M0 216H522V0H0Z"/>
</clipPath>
<path id="font_3_3" d="M.33399964 .30233766C.33999635 .32835389 .36299134 .42037965 .43299867 .42037965 .43798829 .42037965 .46199037 .42037965 .48298646 .40734864 .45498658 .402359 .43499757 .37734986 .43499757 .35334779 .43499757 .33735658 .44599916 .31835938 .47299195 .31835938 .49499513 .31835938 .5269928 .3363495 .5269928 .37635804 .5269928 .42837525 .46798707 .4423828 .43399049 .4423828 .37599183 .4423828 .34098817 .38935853 .32899476 .36634828 .3039856 .43237306 .25 .4423828 .22099304 .4423828 .116989139 .4423828 .05999756 .3133545 .05999756 .28834535 .05999756 .27833558 .069992069 .27833558 .07199097 .27833558 .07998657 .27833558 .08299255 .28033448 .084991458 .28933717 .11898804 .39535523 .18499756 .42037965 .21899414 .42037965 .23799134 .42037965 .272995 .4113617 .272995 .35334779 .272995 .32235719 .2559967 .25532533 .21899414 .11528015 .20298767 .053268434 .16799927 .011245728 .12399292 .011245728 .117996219 .011245728 .09498596 .011245728 .07398987 .024276734 .09899902 .029266358 .12098694 .05027771 .12098694 .07827759 .12098694 .105270389 .09899902 .11328125 .083999637 .11328125 .053985597 .11328125 .0289917 .08728027 .0289917 .055267335 .0289917 .009246826 .07899475-.0107421879 .12298584-.0107421879 .18899536-.0107421879 .22499085 .059280397 .22799683 .0652771 .23999024 .028274537 .27598573-.0107421879 .33599855-.0107421879 .43899537-.0107421879 .49598695 .118270877 .49598695 .14328003 .49598695 .1532898 .4869995 .1532898 .48399354 .1532898 .47499085 .1532898 .47299195 .14929199 .47099305 .14228821 .43798829 .03527832 .36999513 .011245728 .33799745 .011245728 .29899598 .011245728 .2829895 .043273927 .2829895 .07727051 .2829895 .09927368 .2889862 .121276859 .2999878 .16529846L.33399964 .30233766Z"/>
<path id="font_4_1" d="M.33499146 .63612368C.33499146 .6630554 .33299256 .6640625 .30499269 .6640625 .24099732 .6014404 .1499939 .6004486 .10899353 .6004486V.5644531C.1329956 .5644531 .19898987 .5644531 .2539978 .592453V.08203125C.2539978 .04899597 .2539978 .035995485 .1539917 .035995485H.115997318V0C.13398743 .0009918213 .25698854 .0039978029 .2939911 .0039978029 .32499696 .0039978029 .45098878 .0009918213 .47299195 0V.035995485H.43499757C.33499146 .035995485 .33499146 .04899597 .33499146 .08203125V.63612368Z"/>
<path id="font_4_2" d="M.5049896 .18203736H.47099305C.46798707 .16001892 .45799256 .100997928 .44499208 .09098816 .43699647 .084991458 .3600006 .084991458 .34599305 .084991458H.1619873C.2669983 .17803955 .3019867 .20603943 .3619995 .25306703 .43598939 .312088 .5049896 .374115 .5049896 .46914674 .5049896 .5900879 .39898683 .6640625 .2709961 .6640625 .14698792 .6640625 .06298828 .57710269 .06298828 .4851532 .06298828 .43414308 .10598755 .42915345 .115997318 .42915345 .13999939 .42915345 .16899109 .44615174 .16899109 .48214723 .16899109 .5001526 .1619873 .53515627 .10998535 .53515627 .14099121 .6060791 .20899964 .62805178 .2559967 .62805178 .35598756 .62805178 .4079895 .5501404 .4079895 .46914674 .4079895 .38212586 .34599305 .3130951 .31399537 .27708436L.07299805 .038986207C.06298828 .02999878 .06298828 .027999878 .06298828 0H.47499085L.5049896 .18203736Z"/>
<path id="font_4_3" d="M.272995 .33428956C.35099793 .33428956 .40699769 .2803192 .40699769 .1733551 .40699769 .04940796 .33499146 .012466431 .2769928 .012466431 .23699951 .012466431 .14898682 .0234375 .10699463 .082351688 .1539917 .084350589 .16499329 .11735535 .16499329 .13835144 .16499329 .17034912 .14099121 .19335938 .10998535 .19335938 .08198547 .19335938 .053985597 .17634583 .053985597 .13534546 .053985597 .041412355 .1579895-.01953125 .2789917-.01953125 .41799928-.01953125 .5139923 .07336426 .5139923 .1733551 .5139923 .2513275 .44999696 .32929994 .33999635 .35229493 .44499208 .39024354 .48298646 .4650879 .48298646 .5260773 .48298646 .60505679 .3919983 .6640625 .2809906 .6640625 .16999817 .6640625 .084991458 .61006167 .084991458 .5300751 .084991458 .49606324 .10699463 .47706605 .13699341 .47706605 .16799927 .47706605 .18798828 .5000763 .18798828 .5280762 .18798828 .5570679 .16799927 .57806399 .13699341 .5800781 .17199707 .62405398 .24099732 .63505557 .27799989 .63505557 .32299806 .63505557 .38598634 .6130676 .38598634 .5260773 .38598634 .48406983 .37199403 .43814088 .34599305 .4072113 .31298829 .36927796 .2849884 .3672943 .23498535 .36428834 .20999146 .3623047 .20799256 .3623047 .20298767 .3612976 .20098877 .3612976 .19299317 .3592987 .19299317 .34829713 .19299317 .33428956 .20199585 .33428956 .21899414 .33428956H.272995Z"/>
<path id="font_4_4" d="M.5289917 .1640625V.20005799H.41799928V.64582827C.41799928 .66682437 .41799928 .6738281 .3959961 .6738281 .38398744 .6738281 .37998963 .6738281 .36999513 .65982058L.038986207 .20005799V.1640625H.33299256V.08201599C.33299256 .04800415 .33299256 .035995485 .2519989 .035995485H.22499085V0C.2749939 .0019989014 .33898927 .0039978029 .375 .0039978029 .4119873 .0039978029 .47599793 .0019989014 .526001 0V.035995485H.49899293C.41799928 .035995485 .41799928 .04800415 .41799928 .08201599V.1640625H.5289917M.33999635 .5658722V.20005799H.07598877L.33999635 .5658722Z"/>
<path id="font_4_5" d="M.15499878 .5588074C.20599365 .5458069 .23599243 .5458069 .2519989 .5458069 .38398744 .5458069 .46199037 .6358032 .46199037 .6508026 .46199037 .6618042 .45498658 .6648102 .44999696 .6648102 .44799806 .6648102 .44599916 .6648102 .44198609 .6618042 .41799928 .6528015 .36499024 .6328125 .29100038 .6328125 .2630005 .6328125 .20999146 .6348114 .14498902 .6598053 .1349945 .6648102 .1329956 .6648102 .13198853 .6648102 .11898804 .6648102 .11898804 .6538086 .11898804 .6378021V.34251405C.11898804 .32548524 .11898804 .3134613 .1349945 .3134613 .14399719 .3134613 .14498902 .3154602 .15499878 .32748414 .19799805 .38259889 .25898744 .390625 .2939911 .390625 .35398866 .390625 .3809967 .34251405 .38598634 .33450318 .4039917 .30143739 .4099884 .26335145 .4099884 .20524597 .4099884 .17524719 .4099884 .116256717 .37998963 .07234192 .35499574 .03640747 .31199647 .012466431 .2630005 .012466431 .19799805 .012466431 .1309967 .04838562 .10598755 .11425781 .14399719 .11125183 .16299439 .13624573 .16299439 .16325379 .16299439 .20625305 .12599182 .21424866 .11299133 .21424866 .11099243 .21424866 .06298828 .21424866 .06298828 .1602478 .06298828 .07034302 .14498902-.01953125 .2649994-.01953125 .3929901-.01953125 .5049896 .07533264 .5049896 .20124817 .5049896 .31445313 .4189911 .41862489 .29499818 .41862489 .25099183 .41862489 .19898987 .4076233 .15499878 .36956788V.5588074Z"/>
<path id="font_4_6" d="M.1499939 .3274536C.1499939 .40945436 .15699768 .48303224 .19499207 .543869 .22898865 .5978699 .2829895 .63505557 .34700013 .63505557 .3769989 .63505557 .4169922 .62701418 .43699647 .5998688 .4119873 .5978699 .3909912 .5808716 .3909912 .5518799 .3909912 .5268707 .4079895 .5048828 .43798829 .5048828 .46798707 .5048828 .48599244 .5248718 .48599244 .5538788 .48599244 .6119385 .44400025 .6640625 .34498597 .6640625 .20098877 .6640625 .053985597 .5318756 .053985597 .3174591 .053985597 .05845642 .17599488-.01953125 .28599549-.01953125 .4079895-.01953125 .5139923 .07345581 .5139923 .20445252 .5139923 .33145143 .41299439 .42546083 .29599 .42546083 .21598816 .42546083 .17199707 .37245179 .1499939 .3274536M.28599549 .012466431C.23599243 .012466431 .19699097 .04145813 .17599488 .08546448 .16099549 .11546326 .15299988 .16545105 .15299988 .22544861 .15299988 .32244874 .21099854 .39746095 .29100038 .39746095 .33699037 .39746095 .36799623 .37945558 .3929901 .342453 .4169922 .30445863 .41799928 .26245118 .41799928 .20445252 .41799928 .14746094 .41799928 .10545349 .3909912 .066467288 .36698915 .031463624 .33499146 .012466431 .28599549 .012466431Z"/>
<path id="font_3_1" d="M.644989 .69506838C.644989 .69807437 .6429901 .7050781 .6339874 .7050781 .6289978 .7050781 .6279907 .70407107 .6159973 .6900635L.56799319 .6330414C.5419922 .68006899 .48999024 .7050781 .4249878 .7050781 .2979889 .7050781 .17799378 .58999636 .17799378 .4689026 .17799378 .38783265 .23098755 .34179688 .28199769 .32678224L.3889923 .2987671C.42599488 .2897644 .48098756 .27474977 .48098756 .19267273 .48098756 .1026001 .39898683 .008529663 .30099488 .008529663 .23699951 .008529663 .12599182 .030548096 .12599182 .15464783 .12599182 .17866516 .1309967 .2026825 .13198853 .20869446 .1329956 .21269226 .13398743 .21369934 .13398743 .21569824 .13398743 .22570801 .1269989 .22669983 .12199402 .22669983 .116989139 .22669983 .114990238 .22570801 .11199951 .22270203 .10798645 .21870423 .051986696-.009475708 .051986696-.012466431 .051986696-.018463135 .056991579-.022460938 .06298828-.022460938 .067993167-.022460938 .068984989-.021469117 .08099365-.007461548L.12998963 .049560548C.17298889-.008468628 .24099732-.022460938 .29899598-.022460938 .43499757-.022460938 .5529938 .11061096 .5529938 .2347107 .5529938 .30377198 .5189972 .33779908 .5039978 .35180665 .48098756 .37483216 .46598817 .37882997 .3769989 .40185548 .35499574 .40785218 .31900025 .41786195 .30999757 .41986085 .2829895 .42886354 .24899292 .457901 .24899292 .51094058 .24899292 .59199526 .32899476 .677063 .42399598 .677063 .5069885 .677063 .56799319 .6340332 .56799319 .52194216 .56799319 .48991395 .56399539 .47190858 .56399539 .4658966 .56399539 .4649048 .56399539 .45588685 .57598879 .45588685 .58599856 .45588685 .58699038 .45889283 .59098818 .47590638L.644989 .69506838Z"/>
<path id="font_3_2" d="M.4269867 .6066284C.43399049 .63461306 .43798829 .64060977 .44999696 .6436157 .45899964 .6456146 .49198915 .6456146 .5130005 .6456146 .6139984 .6456146 .6589966 .6416168 .6589966 .56365969 .6589966 .54867556 .6549988 .50968936 .651001 .4837036 .6499939 .4797058 .647995 .4677124 .647995 .46472169 .647995 .45872499 .651001 .45173646 .6599884 .45173646 .67099 .45173646 .6729889 .45973207 .6749878 .4747162L.70199587 .64860537C.7029877 .65260317 .70399478 .6626129 .70399478 .66560366 .70399478 .6766052 .69400027 .6766052 .6769867 .6766052H.12199402C.09799194 .6766052 .09700012 .6756134 .08999634 .6566162L.02999878 .4807129C.0289917 .478714 .023986817 .46472169 .023986817 .46272279 .023986817 .45672608 .0289917 .45173646 .035995485 .45173646 .04598999 .45173646 .04699707 .45672608 .052993776 .4727173 .10699463 .6276245 .1329956 .6456146 .2809906 .6456146H.31999208C.34799195 .6456146 .34799195 .6416168 .34799195 .6336212 .34799195 .6276245 .34498597 .6156311 .34399415 .6126251L.20999146 .07896423C.20098877 .041992189 .19799805 .0309906 .09098816 .0309906 .054992677 .0309906 .04899597 .0309906 .04899597 .011993408 .04899597 0 .05999756 0 .06599426 0 .09298706 0 .12098694 .0019989014 .147995 .0019989014 .17599488 .0019989014 .20498657 .0029907227 .23298645 .0029907227 .26098634 .0029907227 .2889862 .0019989014 .31599427 .0019989014 .34498597 .0019989014 .375 0 .40299989 0 .41299439 0 .4249878 0 .4249878 .019989014 .4249878 .0309906 .4169922 .0309906 .3909912 .0309906 .3659973 .0309906 .35299684 .0309906 .32699586 .032989503 .2979889 .035995485 .2899933 .038986207 .2899933 .054977418 .2899933 .05596924 .2899933 .06097412 .2939911 .07595825L.4269867 .6066284Z"/>
<path id="font_5_1" d="M.2899933 .4720459C.2979889 .4890442 .29899598 .49705506 .29899598 .5040436 .29899598 .53504946 .2709961 .5590515 .23999024 .5590515 .20199585 .5590515 .18998719 .52804568 .18499756 .51205447L.052993776 .07901001C.051986696 .07701111 .04798889 .06401062 .04798889 .06300354 .04798889 .05101013 .07899475 .041015626 .08699036 .041015626 .09399414 .041015626 .09498596 .043014528 .101989749 .058013917L.2899933 .4720459Z"/>
</defs>
<g clip-path="url(#clip_1)">
<g inkscape:groupmode="layer" inkscape:label="Layer 2">
<path transform="matrix(.500045,0,0,-.500015,54.401868,28.1091)" stroke-width="3" stroke-linecap="butt" stroke-miterlimit="4" stroke-linejoin="miter" fill="none" stroke="#000000" d="M0 0 64.295-67.664"/>
<path transform="matrix(.500045,0,0,-.500015,86.552219,61.942167)" stroke-width="3" stroke-linecap="butt" stroke-miterlimit="4" stroke-linejoin="miter" fill="none" stroke="#000000" d="M0 0-47.296-90.333"/>
<path transform="matrix(.500045,0,0,-.500015,62.90213,107.11002)" stroke-width="3" stroke-linecap="butt" stroke-miterlimit="4" stroke-linejoin="miter" fill="none" stroke="#000000" d="M0 0-84.999 90.997"/>
<path transform="matrix(.500045,0,0,-.500015,20.398806,61.610105)" stroke-width="3" stroke-linecap="butt" stroke-miterlimit="4" stroke-linejoin="miter" fill="none" stroke="#000000" d="M0 0 68 67"/>
<path transform="matrix(.500045,0,0,-.500015,54.401868,28.1091)" stroke-width="3" stroke-linecap="butt" stroke-miterlimit="4" stroke-linejoin="miter" fill="none" stroke="#000000" d="M0 0 5-79"/>
<path transform="matrix(.500045,0,0,-.500015,56.902093,67.61028)" stroke-width="3" stroke-linecap="butt" stroke-miterlimit="4" stroke-linejoin="miter" fill="none" stroke="#000000" d="M0 0-102-74.327"/>
<path transform="matrix(.500045,0,0,-.500015,127.99272,84.8613)" stroke-width="2" stroke-linecap="butt" stroke-miterlimit="4" stroke-linejoin="miter" fill="none" stroke="#000000" d="M0 0 134.997 90.332"/>
<path transform="matrix(.500045,0,0,-.500015,150.4935,84.8618)" stroke-width="2" stroke-linecap="butt" stroke-miterlimit="4" stroke-linejoin="miter" fill="none" stroke="#000000" d="M0 0 89.999 90.333"/>
<path transform="matrix(.500045,0,0,-.500015,173.16155,84.8618)" stroke-width="5" stroke-linecap="butt" stroke-miterlimit="4" stroke-linejoin="miter" fill="none" stroke="#000000" d="M0 0 44.667 90.333"/>
<path transform="matrix(.500045,0,0,-.500015,217.83257,84.8618)" stroke-width="2" stroke-linecap="butt" stroke-miterlimit="4" stroke-linejoin="miter" fill="none" stroke="#000000" d="M0 0-44.667 90.333"/>
<path transform="matrix(.500045,0,0,-.500015,240.50112,84.8613)" stroke-width="2" stroke-linecap="butt" stroke-miterlimit="4" stroke-linejoin="miter" fill="none" stroke="#000000" d="M0 0-90 90.332"/>
<path transform="matrix(.500045,0,0,-.500015,240.50112,84.8613)" stroke-width="2" stroke-linecap="butt" stroke-miterlimit="4" stroke-linejoin="miter" fill="none" stroke="#000000" d="M0 0-225.663 90.333"/>
<path transform="matrix(.500045,0,0,-.500015,240.50112,84.8613)" stroke-width="2" stroke-linecap="butt" stroke-miterlimit="4" stroke-linejoin="miter" fill="none" stroke="#000000" d="M0 0-180.666 90.332"/>
<path transform="matrix(.500045,0,0,-.500015,217.83257,84.8618)" stroke-width="5" stroke-linecap="butt" stroke-miterlimit="4" stroke-linejoin="miter" fill="none" stroke="#000000" d="M0 0-90 90.333"/>
<path transform="matrix(.500045,0,0,-.500015,184.22655,109.183788)" stroke-width="5" stroke-linecap="butt" stroke-miterlimit="4" stroke-linejoin="miter" fill="none" stroke="#000000" d="M0 0-20.831 46.614"/>
<path transform="matrix(.500045,0,0,-.500015,184.22655,109.183788)" stroke-width="5" stroke-linecap="butt" stroke-miterlimit="4" stroke-linejoin="miter" fill="none" stroke="#000000" d="M0 0 67.206 48.643"/>
<path transform="matrix(.500045,0,0,-.500015,183.7509,15.692978)" stroke-width="5" stroke-linecap="butt" stroke-miterlimit="4" stroke-linejoin="miter" fill="none" stroke="#000000" d="M0 0-21.843-48"/>
<path transform="matrix(.500045,0,0,-.500015,184.49608,14.847443)" stroke-width="5" stroke-linecap="butt" stroke-miterlimit="4" stroke-linejoin="miter" fill="none" stroke="#000000" d="M0 0 22-49.691"/>
<path transform="matrix(.500045,0,0,-.500015,184.35352,14.187027)" stroke-width="2" stroke-linecap="butt" stroke-miterlimit="4" stroke-linejoin="miter" fill="none" stroke="#000000" d="M0 0-69.88-50.603"/>
<path transform="matrix(.500045,0,0,-.500015,127.659458,39.693445)" stroke-width="2" stroke-linecap="butt" stroke-miterlimit="4" stroke-linejoin="miter" fill="none" stroke="#000000" d="M0 0 113.663 49.69"/>
<path transform="matrix(.500045,0,0,-.500015,182.54569,13.584511)" stroke-width="2" stroke-linecap="butt" stroke-miterlimit="4" stroke-linejoin="miter" fill="none" stroke="#000000" d="M0 0 69.9-52.217"/>
<path transform="matrix(.500045,0,0,-.500015,184.35352,14.187027)" stroke-width="2" stroke-linecap="butt" stroke-miterlimit="4" stroke-linejoin="miter" fill="none" stroke="#000000" d="M0 0 110.843-49.397"/>
<path transform="matrix(.500045,0,0,-.500015,184.05219,109.97291)" stroke-width="2" stroke-linecap="butt" stroke-miterlimit="4" stroke-linejoin="miter" fill="none" stroke="#000000" d="M0 0 22.289 51.204"/>
<path transform="matrix(.500045,0,0,-.500015,183.7509,108.1657)" stroke-width="2" stroke-linecap="butt" stroke-miterlimit="4" stroke-linejoin="miter" fill="none" stroke="#000000" d="M0 0 113.253 48.192"/>
<path transform="matrix(.500045,0,0,-.500015,184.22655,109.183788)" stroke-width="2" stroke-linecap="butt" stroke-miterlimit="4" stroke-linejoin="miter" fill="none" stroke="#000000" d="M0 0-67.46 48.643"/>
<path transform="matrix(.500045,0,0,-.500015,184.22655,109.183788)" stroke-width="2" stroke-linecap="butt" stroke-miterlimit="4" stroke-linejoin="miter" fill="none" stroke="#000000" d="M0 0-112.458 48.644"/>
</g>
<g inkscape:groupmode="layer" inkscape:label="Layer 1">
<g clip-path="url(#clip_2)">
<path transform="matrix(.500045,0,0,-.500015,66.41225,107.10952)" d="M0 0C0 3.869-3.143 7.002-7.019 7.002-10.896 7.002-14.039 3.869-14.039 0-14.039-3.867-10.896-7.004-7.019-7.004-3.143-7.004 0-3.867 0 0" fill="#f8cb66"/>
<path transform="matrix(.500045,0,0,-.500015,66.41225,107.10952)" stroke-width="3" stroke-linecap="butt" stroke-miterlimit="4" stroke-linejoin="miter" fill="none" stroke="#000000" d="M0 0C0 3.869-3.143 7.002-7.019 7.002-10.896 7.002-14.039 3.869-14.039 0-14.039-3.867-10.896-7.004-7.019-7.004-3.143-7.004 0-3.867 0 0Z"/>
<path transform="matrix(.500045,0,0,-.500015,60.41216,67.61078)" d="M0 0C0 3.869-3.143 7.004-7.02 7.004-10.896 7.004-14.039 3.869-14.039 0-14.039-3.867-10.896-7.002-7.02-7.002-3.143-7.002 0-3.867 0 0" fill="#f8cb66"/>
<path transform="matrix(.500045,0,0,-.500015,60.41216,67.61078)" stroke-width="3" stroke-linecap="butt" stroke-miterlimit="4" stroke-linejoin="miter" fill="none" stroke="#000000" d="M0 0C0 3.869-3.143 7.004-7.02 7.004-10.896 7.004-14.039 3.869-14.039 0-14.039-3.867-10.896-7.002-7.02-7.002-3.143-7.002 0-3.867 0 0Z"/>
<path transform="matrix(.500045,0,0,-.500015,23.908873,61.610605)" d="M0 0C0 3.869-3.143 7.004-7.02 7.004-10.896 7.004-14.039 3.869-14.039 0-14.039-3.867-10.896-7.002-7.02-7.002-3.143-7.002 0-3.867 0 0" fill="#f8cb66"/>
<path transform="matrix(.500045,0,0,-.500015,23.908873,61.610605)" stroke-width="3" stroke-linecap="butt" stroke-miterlimit="4" stroke-linejoin="miter" fill="none" stroke="#000000" d="M0 0C0 3.869-3.143 7.004-7.02 7.004-10.896 7.004-14.039 3.869-14.039 0-14.039-3.867-10.896-7.002-7.02-7.002-3.143-7.002 0-3.867 0 0Z"/>
<path transform="matrix(.500045,0,0,-.500015,9.407567,104.7745)" d="M0 0C0 3.867-3.143 7.002-7.02 7.002-10.896 7.002-14.039 3.867-14.039 0-14.039-3.867-10.896-7.004-7.02-7.004-3.143-7.004 0-3.867 0 0" fill="#f8cb66"/>
<path transform="matrix(.500045,0,0,-.500015,9.407567,104.7745)" stroke-width="3" stroke-linecap="butt" stroke-miterlimit="4" stroke-linejoin="miter" fill="none" stroke="#000000" d="M0 0C0 3.867-3.143 7.002-7.02 7.002-10.896 7.002-14.039 3.867-14.039 0-14.039-3.867-10.896-7.004-7.02-7.004-3.143-7.004 0-3.867 0 0Z"/>
<path transform="matrix(.500045,0,0,-.500015,90.06233,61.942167)" d="M0 0C0 3.869-3.143 7.004-7.02 7.004-10.896 7.004-14.04 3.869-14.04 0-14.04-3.867-10.896-7.004-7.02-7.004-3.143-7.004 0-3.867 0 0" fill="#f8cb66"/>
<path transform="matrix(.500045,0,0,-.500015,90.06233,61.942167)" stroke-width="3" stroke-linecap="butt" stroke-miterlimit="4" stroke-linejoin="miter" fill="none" stroke="#000000" d="M0 0C0 3.869-3.143 7.004-7.02 7.004-10.896 7.004-14.04 3.869-14.04 0-14.04-3.867-10.896-7.004-7.02-7.004-3.143-7.004 0-3.867 0 0Z"/>
<path transform="matrix(.500045,0,0,-.500015,57.911935,28.109604)" d="M0 0C0 3.869-3.144 7.004-7.02 7.004-10.896 7.004-14.04 3.869-14.04 0-14.04-3.867-10.896-7.002-7.02-7.002-3.144-7.002 0-3.867 0 0" fill="#f8cb66"/>
<path transform="matrix(.500045,0,0,-.500015,57.911935,28.109604)" stroke-width="3" stroke-linecap="butt" stroke-miterlimit="4" stroke-linejoin="miter" fill="none" stroke="#000000" d="M0 0C0 3.869-3.144 7.004-7.02 7.004-10.896 7.004-14.04 3.869-14.04 0-14.04-3.867-10.896-7.002-7.02-7.002-3.144-7.002 0-3.867 0 0Z"/>
<path transform="matrix(.500045,0,0,-.500015,240.50066,81.351398)" d="M0 0C-3.869 0-7.002-3.143-7.002-7.019-7.002-10.896-3.869-14.039 0-14.039 3.867-14.039 7.004-10.896 7.004-7.019 7.004-3.143 3.867 0 0 0" fill="#f8cb66"/>
<path transform="matrix(.500045,0,0,-.500015,240.50066,81.351398)" stroke-width="3" stroke-linecap="butt" stroke-miterlimit="4" stroke-linejoin="miter" fill="none" stroke="#000000" d="M0 0C-3.869 0-7.002-3.143-7.002-7.019-7.002-10.896-3.869-14.039 0-14.039 3.867-14.039 7.004-10.896 7.004-7.019 7.004-3.143 3.867 0 0 0Z"/>
<path transform="matrix(.500045,0,0,-.500015,217.8321,81.3519)" d="M0 0C-3.869 0-7.002-3.143-7.002-7.019-7.002-10.896-3.869-14.039 0-14.039 3.867-14.039 7.004-10.896 7.004-7.019 7.004-3.143 3.867 0 0 0" fill="#f8cb66"/>
<path transform="matrix(.500045,0,0,-.500015,217.8321,81.3519)" stroke-width="3" stroke-linecap="butt" stroke-miterlimit="4" stroke-linejoin="miter" fill="none" stroke="#000000" d="M0 0C-3.869 0-7.002-3.143-7.002-7.019-7.002-10.896-3.869-14.039 0-14.039 3.867-14.039 7.004-10.896 7.004-7.019 7.004-3.143 3.867 0 0 0Z"/>
<path transform="matrix(.500045,0,0,-.500015,195.83014,81.3519)" d="M0 0C-3.869 0-7.002-3.143-7.002-7.019-7.002-10.896-3.869-14.039 0-14.039 3.867-14.039 7.004-10.896 7.004-7.019 7.004-3.143 3.867 0 0 0" fill="#f8cb66"/>
<path transform="matrix(.500045,0,0,-.500015,195.83014,81.3519)" stroke-width="3" stroke-linecap="butt" stroke-miterlimit="4" stroke-linejoin="miter" fill="none" stroke="#000000" d="M0 0C-3.869 0-7.002-3.143-7.002-7.019-7.002-10.896-3.869-14.039 0-14.039 3.867-14.039 7.004-10.896 7.004-7.019 7.004-3.143 3.867 0 0 0Z"/>
<path transform="matrix(.500045,0,0,-.500015,173.1611,81.3519)" d="M0 0C-3.869 0-7.002-3.143-7.002-7.019-7.002-10.896-3.869-14.039 0-14.039 3.867-14.039 7.004-10.896 7.004-7.019 7.004-3.143 3.867 0 0 0" fill="#f8cb66"/>
<path transform="matrix(.500045,0,0,-.500015,173.1611,81.3519)" stroke-width="3" stroke-linecap="butt" stroke-miterlimit="4" stroke-linejoin="miter" fill="none" stroke="#000000" d="M0 0C-3.869 0-7.002-3.143-7.002-7.019-7.002-10.896-3.869-14.039 0-14.039 3.867-14.039 7.004-10.896 7.004-7.019 7.004-3.143 3.867 0 0 0Z"/>
<path transform="matrix(.500045,0,0,-.500015,150.49256,81.3519)" d="M0 0C-3.869 0-7.002-3.143-7.002-7.019-7.002-10.896-3.869-14.039 0-14.039 3.867-14.039 7.004-10.896 7.004-7.019 7.004-3.143 3.867 0 0 0" fill="#f8cb66"/>
<path transform="matrix(.500045,0,0,-.500015,150.49256,81.3519)" stroke-width="3" stroke-linecap="butt" stroke-miterlimit="4" stroke-linejoin="miter" fill="none" stroke="#000000" d="M0 0C-3.869 0-7.002-3.143-7.002-7.019-7.002-10.896-3.869-14.039 0-14.039 3.867-14.039 7.004-10.896 7.004-7.019 7.004-3.143 3.867 0 0 0Z"/>
<path transform="matrix(.500045,0,0,-.500015,127.99223,81.351398)" d="M0 0C-3.869 0-7.002-3.143-7.002-7.019-7.002-10.896-3.869-14.039 0-14.039 3.867-14.039 7.004-10.896 7.004-7.019 7.004-3.143 3.867 0 0 0" fill="#f8cb66"/>
<path transform="matrix(.500045,0,0,-.500015,127.99223,81.351398)" stroke-width="3" stroke-linecap="butt" stroke-miterlimit="4" stroke-linejoin="miter" fill="none" stroke="#000000" d="M0 0C-3.869 0-7.002-3.143-7.002-7.019-7.002-10.896-3.869-14.039 0-14.039 3.867-14.039 7.004-10.896 7.004-7.019 7.004-3.143 3.867 0 0 0Z"/>
<path transform="matrix(.500045,0,0,-.500015,240.16713,36.18354)" d="M0 0C-3.869 0-7.002-3.143-7.002-7.019-7.002-10.896-3.869-14.039 0-14.039 3.867-14.039 7.004-10.896 7.004-7.019 7.004-3.143 3.867 0 0 0" fill="#f8cb66"/>
<path transform="matrix(.500045,0,0,-.500015,240.16713,36.18354)" stroke-width="3" stroke-linecap="butt" stroke-miterlimit="4" stroke-linejoin="miter" fill="none" stroke="#000000" d="M0 0C-3.869 0-7.002-3.143-7.002-7.019-7.002-10.896-3.869-14.039 0-14.039 3.867-14.039 7.004-10.896 7.004-7.019 7.004-3.143 3.867 0 0 0Z"/>
<path transform="matrix(.500045,0,0,-.500015,217.49904,36.184038)" d="M0 0C-3.869 0-7.002-3.143-7.002-7.019-7.002-10.896-3.869-14.039 0-14.039 3.867-14.039 7.004-10.896 7.004-7.019 7.004-3.143 3.867 0 0 0" fill="#f8cb66"/>
<path transform="matrix(.500045,0,0,-.500015,217.49904,36.184038)" stroke-width="3" stroke-linecap="butt" stroke-miterlimit="4" stroke-linejoin="miter" fill="none" stroke="#000000" d="M0 0C-3.869 0-7.002-3.143-7.002-7.019-7.002-10.896-3.869-14.039 0-14.039 3.867-14.039 7.004-10.896 7.004-7.019 7.004-3.143 3.867 0 0 0Z"/>
<path transform="matrix(.500045,0,0,-.500015,195.49707,36.184038)" d="M0 0C-3.869 0-7.002-3.143-7.002-7.019-7.002-10.896-3.869-14.039 0-14.039 3.867-14.039 7.004-10.896 7.004-7.019 7.004-3.143 3.867 0 0 0" fill="#f8cb66"/>
<path transform="matrix(.500045,0,0,-.500015,195.49707,36.184038)" stroke-width="3" stroke-linecap="butt" stroke-miterlimit="4" stroke-linejoin="miter" fill="none" stroke="#000000" d="M0 0C-3.869 0-7.002-3.143-7.002-7.019-7.002-10.896-3.869-14.039 0-14.039 3.867-14.039 7.004-10.896 7.004-7.019 7.004-3.143 3.867 0 0 0Z"/>
<path transform="matrix(.500045,0,0,-.500015,172.82758,36.184038)" d="M0 0C-3.869 0-7.002-3.143-7.002-7.019-7.002-10.896-3.869-14.039 0-14.039 3.867-14.039 7.004-10.896 7.004-7.019 7.004-3.143 3.867 0 0 0" fill="#f8cb66"/>
<path transform="matrix(.500045,0,0,-.500015,172.82758,36.184038)" stroke-width="3" stroke-linecap="butt" stroke-miterlimit="4" stroke-linejoin="miter" fill="none" stroke="#000000" d="M0 0C-3.869 0-7.002-3.143-7.002-7.019-7.002-10.896-3.869-14.039 0-14.039 3.867-14.039 7.004-10.896 7.004-7.019 7.004-3.143 3.867 0 0 0Z"/>
<path transform="matrix(.500045,0,0,-.500015,150.15947,36.184038)" d="M0 0C-3.869 0-7.002-3.143-7.002-7.019-7.002-10.896-3.869-14.039 0-14.039 3.867-14.039 7.004-10.896 7.004-7.019 7.004-3.143 3.867 0 0 0" fill="#f8cb66"/>
<path transform="matrix(.500045,0,0,-.500015,150.15947,36.184038)" stroke-width="3" stroke-linecap="butt" stroke-miterlimit="4" stroke-linejoin="miter" fill="none" stroke="#000000" d="M0 0C-3.869 0-7.002-3.143-7.002-7.019-7.002-10.896-3.869-14.039 0-14.039 3.867-14.039 7.004-10.896 7.004-7.019 7.004-3.143 3.867 0 0 0Z"/>
<path transform="matrix(.500045,0,0,-.500015,127.658969,36.18354)" d="M0 0C-3.869 0-7.002-3.143-7.002-7.019-7.002-10.896-3.869-14.039 0-14.039 3.867-14.039 7.004-10.896 7.004-7.019 7.004-3.143 3.867 0 0 0" fill="#f8cb66"/>
<path transform="matrix(.500045,0,0,-.500015,127.658969,36.18354)" stroke-width="3" stroke-linecap="butt" stroke-miterlimit="4" stroke-linejoin="miter" fill="none" stroke="#000000" d="M0 0C-3.869 0-7.002-3.143-7.002-7.019-7.002-10.896-3.869-14.039 0-14.039 3.867-14.039 7.004-10.896 7.004-7.019 7.004-3.143 3.867 0 0 0Z"/>
<path transform="matrix(.500045,0,0,-.500015,184.22605,105.67393)" d="M0 0C-3.869 0-7.002-3.143-7.002-7.019-7.002-10.896-3.869-14.039 0-14.039 3.867-14.039 7.004-10.896 7.004-7.019 7.004-3.143 3.867 0 0 0" fill="#f8cb66"/>
<path transform="matrix(.500045,0,0,-.500015,184.22605,105.67393)" stroke-width="3" stroke-linecap="butt" stroke-miterlimit="4" stroke-linejoin="miter" fill="none" stroke="#000000" d="M0 0C-3.869 0-7.002-3.143-7.002-7.019-7.002-10.896-3.869-14.039 0-14.039 3.867-14.039 7.004-10.896 7.004-7.019 7.004-3.143 3.867 0 0 0Z"/>
<path transform="matrix(.500045,0,0,-.500015,184.49562,11.337593)" d="M0 0C-3.869 0-7.002-3.143-7.002-7.019-7.002-10.896-3.869-14.039 0-14.039 3.867-14.039 7.004-10.896 7.004-7.019 7.004-3.143 3.867 0 0 0" fill="#f8cb66"/>
<path transform="matrix(.500045,0,0,-.500015,184.49562,11.337593)" stroke-width="3" stroke-linecap="butt" stroke-miterlimit="4" stroke-linejoin="miter" fill="none" stroke="#000000" d="M0 0C-3.869 0-7.002-3.143-7.002-7.019-7.002-10.896-3.869-14.039 0-14.039 3.867-14.039 7.004-10.896 7.004-7.019 7.004-3.143 3.867 0 0 0Z"/>
</g>
</g>
</g>
<use data-text="x" xlink:href="#font_3_3" transform="matrix(9.963496,0,0,-9.962899,5.1179277,62.80114)"/>
<use data-text="1" xlink:href="#font_4_1" transform="matrix(6.9744279,0,0,-6.9740097,10.812439,64.29518)"/>
<use data-text="x" xlink:href="#font_3_3" transform="matrix(9.963496,0,0,-9.962899,83.42398,52.360826)"/>
<use data-text="2" xlink:href="#font_4_2" transform="matrix(6.9744279,0,0,-6.9740097,89.118488,53.854867)"/>
<use data-text="x" xlink:href="#font_3_3" transform="matrix(9.963496,0,0,-9.962899,44.270448,62.80114)"/>
<use data-text="3" xlink:href="#font_4_3" transform="matrix(6.9744279,0,0,-6.9740097,49.96495,64.29518)"/>
<use data-text="x" xlink:href="#font_3_3" transform="matrix(9.963496,0,0,-9.962899,49.490907,18.429806)"/>
<use data-text="4" xlink:href="#font_4_4" transform="matrix(6.9744279,0,0,-6.9740097,55.185426,19.92485)"/>
<use data-text="x" xlink:href="#font_3_3" transform="matrix(9.963496,0,0,-9.962899,2.5076829,115.0017)"/>
<use data-text="5" xlink:href="#font_4_5" transform="matrix(6.9744279,0,0,-6.9740097,8.202194,116.49675)"/>
<use data-text="x" xlink:href="#font_3_3" transform="matrix(9.963496,0,0,-9.962899,59.931856,117.611789)"/>
<use data-text="6" xlink:href="#font_4_6" transform="matrix(6.9744279,0,0,-6.9740097,65.62637,119.106838)"/>
<use data-text="S" xlink:href="#font_3_1" transform="matrix(9.963496,0,0,-9.962899,181.30675,122.83194)"/>
<use data-text="T" xlink:href="#font_3_2" transform="matrix(9.963496,0,0,-9.962899,181.30675,7.9894926)"/>
<use data-text="x" xlink:href="#font_3_3" transform="matrix(9.963496,0,0,-9.962899,125.18771,99.34224)"/>
<use data-text="&#x2032;" xlink:href="#font_5_1" transform="matrix(6.9744279,0,0,-6.9740097,130.88222,95.72613)"/>
<use data-text="1" xlink:href="#font_4_1" transform="matrix(6.9744279,0,0,-6.9740097,130.88222,101.81431)"/>
<use data-text="x" xlink:href="#font_3_3" transform="matrix(9.963496,0,0,-9.962899,237.4268,99.34224)"/>
<use data-text="&#x2032;" xlink:href="#font_5_1" transform="matrix(6.9744279,0,0,-6.9740097,243.12133,95.72613)"/>
<use data-text="6" xlink:href="#font_4_6" transform="matrix(6.9744279,0,0,-6.9740097,243.12133,101.81431)"/>
<use data-text="x" xlink:href="#font_3_3" transform="matrix(9.963496,0,0,-9.962899,125.1877,31.480196)"/>
<use data-text="&#x2032;" xlink:href="#font_5_1" transform="matrix(6.9744279,0,0,-6.9740097,130.8822,27.865088)"/>
<use data-text="&#x2032;" xlink:href="#font_5_1" transform="matrix(6.9744279,0,0,-6.9740097,133.1768,27.865088)"/>
<use data-text="1" xlink:href="#font_4_1" transform="matrix(6.9744279,0,0,-6.9740097,130.8822,33.95327)"/>
<use data-text="x" xlink:href="#font_3_3" transform="matrix(9.963496,0,0,-9.962899,237.4268,31.480196)"/>
<use data-text="&#x2032;" xlink:href="#font_5_1" transform="matrix(6.9744279,0,0,-6.9740097,243.12133,27.865088)"/>
<use data-text="&#x2032;" xlink:href="#font_5_1" transform="matrix(6.9744279,0,0,-6.9740097,245.41591,27.865088)"/>
<use data-text="6" xlink:href="#font_4_6" transform="matrix(6.9744279,0,0,-6.9740097,243.12133,33.95327)"/>
</svg>
