<svg xmlns="http://www.w3.org/2000/svg" xmlns:xlink="http://www.w3.org/1999/xlink" xmlns:inkscape="http://www.inkscape.org/namespaces/inkscape" version="1.1" width="243" height="113" viewBox="0 0 243 113">
<defs>
<clipPath id="clip_1">
<path transform="matrix(.57144,0,0,-.57146856,-8.103336,108.404018)" d="M0 0H504V180H0Z"/>
</clipPath>
<clipPath id="clip_2">
<path transform="matrix(.57144,0,0,-.57146856,-8.103336,108.404018)" d="M0 180H504V0H0Z"/>
</clipPath>
<path id="font_3_2" d="M.2939911 .64004519C.2939911 .66400149 .2939911 .6660156 .2709961 .6660156 .20899964 .60227969 .12098694 .60227969 .08898926 .60227969V.57128909C.10899353 .57128909 .16799927 .57128909 .21998596 .5972748V.07902527C.21998596 .042999269 .21699524 .0309906 .1269989 .0309906H.09498596V0C.12998963 .0029907227 .21699524 .0029907227 .25698854 .0029907227 .29699708 .0029907227 .38398744 .0029907227 .4189911 0V.0309906H.3869934C.29699708 .0309906 .2939911 .041992189 .2939911 .07902527V.64004519Z"/>
<path id="font_3_3" d="M.1269989 .07699585 .23298645 .18003845C.3889923 .31811524 .44898988 .3721466 .44898988 .47216798 .44898988 .5860901 .35899354 .6660156 .23699951 .6660156 .12399292 .6660156 .049987794 .57411196 .049987794 .48516847 .049987794 .4291687 .099990848 .4291687 .102996829 .4291687 .11999512 .4291687 .15499878 .44117738 .15499878 .48217774 .15499878 .5081787 .13699341 .5341797 .101989749 .5341797 .09399414 .5341797 .09199524 .5341797 .08898926 .5331726 .11199951 .59806826 .1659851 .63500979 .22399903 .63500979 .31498719 .63500979 .35798646 .5541382 .35798646 .47216798 .35798646 .39215089 .30799867 .31311036 .25299073 .25108338L.06098938 .036987306C.049987794 .025985718 .049987794 .023986817 .049987794 0H.42099L.44898988 .17404175H.42399598C.4189911 .14402771 .4119873 .1000061 .4019928 .084991458 .394989 .07699585 .32899476 .07699585 .30699159 .07699585H.1269989Z"/>
<path id="font_3_4" d="M.2899933 .35191346C.37199403 .37893678 .42999269 .4490509 .42999269 .52809146 .42999269 .6100464 .34199525 .6660156 .24598694 .6660156 .14498902 .6660156 .068984989 .60606387 .068984989 .53009036 .068984989 .49710084 .09098816 .47808839 .11999512 .47808839 .15098572 .47808839 .17098999 .50009158 .17098999 .5290985 .17098999 .57910159 .12399292 .57910159 .10899353 .57910159 .13999939 .62802127 .20599365 .64100649 .24198914 .64100649 .2829895 .64100649 .33799745 .6190338 .33799745 .5290985 .33799745 .51708987 .33599855 .45906068 .30999757 .4149933 .27999879 .36691285 .24598694 .36390687 .22099304 .36291505 .21299744 .36190797 .18899536 .35990907 .18199158 .35990907 .17399597 .35890199 .16699219 .35791017 .16699219 .3479004 .16699219 .33691407 .17399597 .33691407 .19099427 .33691407H.23498535C.31698609 .33691407 .35398866 .2686615 .35398866 .17037964 .35398866 .034469606 .2849884 .0055389406 .24099732 .0055389406 .19799805 .0055389406 .12298584 .022491456 .08799744 .08137512 .12298584 .07637024 .1539917 .09837341 .1539917 .1363678 .1539917 .17237854 .1269989 .19238281 .09799194 .19238281 .07398987 .19238281 .041992189 .17837525 .041992189 .1343689 .041992189 .043441774 .1349945-.022460938 .24398804-.022460938 .3659973-.022460938 .45700074 .06838989 .45700074 .17037964 .45700074 .252594 .3939972 .33088685 .2899933 .35191346Z"/>
<path id="font_3_5" d="M.2939911 .16503906V.07800293C.2939911 .041992189 .2919922 .0309906 .21798706 .0309906H.19699097V0C.23799134 .0029907227 .2899933 .0029907227 .33198548 .0029907227 .37399293 .0029907227 .4269867 .0029907227 .46798707 0V.0309906H.44699098C.37298585 .0309906 .37098695 .041992189 .37098695 .07800293V.16503906H.47099305V.19602967H.37098695V.65075686C.37098695 .67074587 .37098695 .6767578 .35499574 .6767578 .34599305 .6767578 .34298707 .6767578 .33499146 .66474917L.027999878 .19602967V.16503906H.2939911M.2999878 .19602967H.055999757L.2999878 .5688019V.19602967Z"/>
<path id="font_3_6" d="M.44898988 .20022583C.44898988 .3193512 .36698915 .41944886 .25898744 .41944886 .21099854 .41944886 .16799927 .40345765 .13198853 .36842347V.5637665C.1519928 .5577698 .18499756 .55078127 .21699524 .55078127 .33999635 .55078127 .4099884 .6417694 .4099884 .6547699 .4099884 .6607666 .40699769 .6657715 .3999939 .6657715 .39898683 .6657715 .39698792 .6657715 .3919983 .66278079 .37199403 .6537781 .32299806 .6337738 .2559967 .6337738 .21598816 .6337738 .16999817 .6407776 .12298584 .6617737 .114990238 .66477969 .11299133 .66477969 .11099243 .66477969 .100997928 .66477969 .100997928 .6567688 .100997928 .6407776V.34439088C.100997928 .32637025 .100997928 .31835938 .114990238 .31835938 .12199402 .31835938 .12399292 .32136537 .12799073 .32736207 .13899231 .3433838 .17599488 .39746095 .25698854 .39746095 .30899049 .39746095 .33399964 .35139466 .34199525 .33337403 .35798646 .29632569 .3600006 .25727845 .3600006 .20722962 .3600006 .17222595 .3600006 .11222839 .33599855 .07035828 .31199647 .031463624 .2749939 .0055389406 .22898865 .0055389406 .1559906 .0055389406 .09899902 .058380128 .08198547 .11723328 .084991458 .1162262 .08799744 .115234378 .09899902 .115234378 .13198853 .115234378 .14898682 .14022827 .14898682 .16423035 .14898682 .18823242 .13198853 .21322632 .09899902 .21322632 .084991458 .21322632 .049987794 .20622254 .049987794 .16023255 .049987794 .07434082 .11898804-.022460938 .23098755-.022460938 .34700013-.022460938 .44898988 .073349 .44898988 .20022583Z"/>
<path id="font_3_7" d="M.13198853 .327713V.35173036C.13198853 .6047821 .2559967 .64100649 .30699159 .64100649 .33099366 .64100649 .37298585 .634964 .394989 .6007538 .37998963 .6007538 .33999635 .6007538 .33999635 .5557556 .33999635 .524765 .3639984 .5097656 .38598634 .5097656 .4019928 .5097656 .43199159 .51875308 .43199159 .5577545 .43199159 .6178589 .3880005 .6660156 .30499269 .6660156 .1769867 .6660156 .041992189 .5367584 .041992189 .31570436 .041992189 .048553468 .1579895-.022460938 .25099183-.022460938 .3619995-.022460938 .45700074 .07156372 .45700074 .2036438 .45700074 .33070375 .36799623 .4267578 .25698854 .4267578 .18899536 .4267578 .1519928 .37573243 .13198853 .327713M.25099183 .0055389406C.18798828 .0055389406 .1579895 .06556702 .1519928 .080566409 .13398743 .127594 .13398743 .2076416 .13398743 .22564698 .13398743 .30369569 .1659851 .40374757 .2559967 .40374757 .27198792 .40374757 .31799317 .40374757 .34899903 .34172059 .36698915 .30470277 .36698915 .2536621 .36698915 .20463562 .36698915 .15661621 .36698915 .10658264 .34999085 .0705719 .31999208 .010528564 .27398683 .0055389406 .25099183 .0055389406Z"/>
<path id="font_4_100" d="M.4850006 .6435547H.24198914C.11999512 .6435547 .117996219 .6566467 .11399841 .67578127H.08898926L.055999757 .46954347H.08099365C.083999637 .48554994 .09298706 .54855349 .10598755 .5605469 .11299133 .5665436 .19099427 .5665436 .20399475 .5665436H.41099549L.29899598 .40853883C.20899964 .2735443 .17599488 .13453675 .17599488 .03253174 .17599488 .022537232 .17599488-.022460938 .22200012-.022460938 .2679901-.022460938 .2679901 .022537232 .2679901 .03253174V.08354187C.2679901 .13853455 .2709961 .19354248 .2789917 .24754334 .2829895 .27053834 .29699708 .35653688 .34098817 .41854859L.47599793 .608551C.4850006 .62054446 .4850006 .62254336 .4850006 .6435547Z"/>
<path id="font_3_8" d="M.16299439 .4569702C.116989139 .486969 .11299133 .52098086 .11299133 .5379791 .11299133 .598999 .17799378 .64100649 .24899292 .64100649 .32199098 .64100649 .38598634 .58898928 .38598634 .51698306 .38598634 .45996095 .34700013 .4119568 .2869873 .37695313L.16299439 .4569702M.30899049 .36193849C.3809967 .3989563 .42999269 .45095826 .42999269 .51698306 .42999269 .6090088 .34098817 .6660156 .25 .6660156 .1499939 .6660156 .068984989 .59199526 .068984989 .49897767 .068984989 .4809723 .070999149 .43595887 .11299133 .38894654 .12399292 .37695313 .16099549 .35194398 .18598938 .33494569 .12799073 .30592347 .041992189 .24984741 .041992189 .15072632 .041992189 .04458618 .14399719-.022460938 .24899292-.022460938 .3619995-.022460938 .45700074 .06060791 .45700074 .16773987 .45700074 .20379639 .44599916 .24885559 .4079895 .2909088 .3889923 .31193543 .37298585 .3219452 .30899049 .36193849M.20899964 .3199463 .33198548 .24183655C.3600006 .2228241 .40699769 .19277954 .40699769 .13169861 .40699769 .05760193 .33198548 .0055389406 .25 .0055389406 .1639862 .0055389406 .09199524 .067611698 .09199524 .15072632 .09199524 .20880127 .12399292 .27288819 .20899964 .3199463Z"/>
<path id="font_3_9" d="M.36698915 .31781007V.28579713C.36698915 .05178833 .2630005 .0055389406 .20498657 .0055389406 .18798828 .0055389406 .13398743 .007537842 .10699463 .041778566 .15098572 .041778566 .15899658 .07078552 .15899658 .08778381 .15899658 .118774417 .1349945 .13378906 .11299133 .13378906 .09700012 .13378906 .066986087 .12478638 .066986087 .08578491 .066986087 .018615723 .12098694-.022460938 .20599365-.022460938 .33499146-.022460938 .45700074 .11378479 .45700074 .32881166 .45700074 .5979767 .34199525 .6660156 .25299073 .6660156 .19799805 .6660156 .14898682 .64801028 .10598755 .60298159 .06498718 .5579529 .041992189 .5159302 .041992189 .44088746 .041992189 .31581117 .12998963 .21777344 .24198914 .21777344 .30299378 .21777344 .34399415 .25978089 .36698915 .31781007M.24299622 .24076844C.22698975 .24076844 .18099976 .24076844 .1499939 .3038025 .13198853 .3408203 .13198853 .39085389 .13198853 .43988038 .13198853 .49391175 .13198853 .54093936 .15299988 .5779724 .17999268 .6279907 .21798706 .64100649 .25299073 .64100649 .29899598 .64100649 .33198548 .60697939 .34899903 .5619507 .36099244 .52993777 .36499024 .4669037 .36499024 .42086793 .36499024 .3378296 .33099366 .24076844 .24299622 .24076844Z"/>
<path id="font_3_1" d="M.45999146 .31976319C.45999146 .39982606 .45498658 .47988893 .41999818 .5539398 .37399293 .65000918 .2919922 .6660156 .25 .6660156 .18998719 .6660156 .116989139 .64001467 .07598877 .54693606 .04399109 .47789 .038986207 .39982606 .038986207 .31976319 .038986207 .24472046 .042999269 .15464783 .083999637 .07859802 .1269989-.0024719239 .19999695-.022460938 .24899292-.022460938 .30299378-.022460938 .3789978-.0014648438 .4229889 .09359741 .45498658 .16265869 .45999146 .2407074 .45999146 .31976319M.24899292-.00047302247C.20999146-.00047302247 .15098572 .024551392 .1329956 .12062073 .12199402 .18066406 .12199402 .2727356 .12199402 .3317871 .12199402 .39582826 .12199402 .46188355 .12998963 .5159149 .14898682 .63500979 .22399903 .64401248 .24899292 .64401248 .28199769 .64401248 .34799195 .6259918 .36698915 .52693179 .3769989 .47088624 .3769989 .39482118 .3769989 .3317871 .3769989 .25672914 .3769989 .18867493 .3659973 .12461853 .35099793 .029556275 .2939911-.00047302247 .24899292-.00047302247Z"/>
</defs>
<g clip-path="url(#clip_1)">
<g inkscape:groupmode="layer" inkscape:label="Layer 1">
<path transform="matrix(.57144,0,0,-.57146856,88.43877,14.870392)" stroke-width="4" stroke-linecap="butt" stroke-miterlimit="4" stroke-linejoin="miter" fill="none" stroke="#231f20" d="M0 0 248.634-110.929"/>
<path transform="matrix(.57144,0,0,-.57146856,122.78769,96.687259)" stroke-width="4" stroke-linecap="butt" stroke-miterlimit="4" stroke-linejoin="miter" fill="none" stroke="#231f20" d="M0 0-60.109 143.169"/>
<path transform="matrix(.57144,0,0,-.57146856,122.78769,96.687259)" stroke-width="4" stroke-linecap="butt" stroke-miterlimit="4" stroke-linejoin="miter" fill="none" stroke="#231f20" d="M0 0 187.818 30.866"/>
<path transform="matrix(.57144,0,0,-.57146856,12.559191,92.31529)" stroke-width="4" stroke-linecap="butt" stroke-miterlimit="4" stroke-linejoin="miter" fill="none" stroke="#231f20" d="M0 0 14.207 75.859"/>
<path transform="matrix(.57144,0,0,-.57146856,20.677639,48.964029)" stroke-width="4" stroke-linecap="butt" stroke-miterlimit="4" stroke-linejoin="miter" fill="none" stroke="#231f20" d="M0 0 59.017 14.304"/>
<path transform="matrix(.57144,0,0,-.57146856,12.24667,91.37882)" stroke-width="4" stroke-linecap="butt" stroke-miterlimit="4" stroke-linejoin="miter" fill="none" stroke="#231f20" d="M0 0 107.104 31.694"/>
<path transform="matrix(.57144,0,0,-.57146856,11.934435,92.62782)" stroke-width="4" stroke-linecap="butt" stroke-miterlimit="4" stroke-linejoin="miter" fill="none" stroke="#231f20" d="M0 0 193.989-7.104"/>
<path transform="matrix(.57144,0,0,-.57146856,72.825717,72.32949)" stroke-width="4" stroke-linecap="butt" stroke-miterlimit="4" stroke-linejoin="miter" fill="none" stroke="#231f20" d="M0 0 27.322 100.546"/>
<path transform="matrix(.57144,0,0,-.57146856,55.96326,41.15657)" stroke-width="4" stroke-linecap="butt" stroke-miterlimit="4" stroke-linejoin="miter" fill="none" stroke="#231f20" d="M0 0 216.394 35.615"/>
<path transform="matrix(.57144,0,0,-.57146856,179.61917,20.803833)" stroke-width="4" stroke-linecap="butt" stroke-miterlimit="4" stroke-linejoin="miter" fill="none" stroke="#231f20" d="M0 0-4.918-77.595"/>
<path transform="matrix(.57144,0,0,-.57146856,176.80883,65.14711)" stroke-width="4" stroke-linecap="butt" stroke-miterlimit="4" stroke-linejoin="miter" fill="none" stroke="#231f20" d="M0 0-79.234 2.185"/>
<path transform="matrix(.57144,0,0,-.57146856,230.11457,79.04819)" stroke-width="4" stroke-linecap="butt" stroke-miterlimit="4" stroke-linejoin="miter" fill="none" stroke="#231f20" d="M0 0-59.403-28.681"/>
<path transform="matrix(.57144,0,0,-.57146856,196.16915,95.43825)" stroke-width="4" stroke-linecap="butt" stroke-miterlimit="4" stroke-linejoin="miter" fill="none" stroke="#231f20" d="M0 0-33.88 53.006"/>
<path transform="matrix(.57144,0,0,-.57146856,176.80883,65.14711)" stroke-width="4" stroke-linecap="butt" stroke-miterlimit="4" stroke-linejoin="miter" fill="none" stroke="#231f20" d="M0 0-94.535-55.191"/>
<path transform="matrix(.57144,0,0,-.57146856,130.59418,63.58614)" stroke-width="4" stroke-linecap="butt" stroke-miterlimit="4" stroke-linejoin="miter" fill="none" stroke="#231f20" d="M0 0-98.361-16.939"/>
<path transform="matrix(.57144,0,0,-.57146856,74.38689,73.266529)" stroke-width="4" stroke-linecap="butt" stroke-miterlimit="4" stroke-linejoin="miter" fill="none" stroke="#231f20" d="M0 0 211.475 63.388"/>
<path transform="matrix(.57144,0,0,-.57146856,193.89179,36.891183)" stroke-width="4" stroke-linecap="butt" stroke-miterlimit="4" stroke-linejoin="miter" fill="none" stroke="#231f20" d="M0 0-183.197 37.986"/>
<path transform="matrix(.57144,0,0,-.57146856,230.51807,78.26294)" stroke-width="4" stroke-linecap="butt" stroke-miterlimit="4" stroke-linejoin="miter" fill="none" stroke="#231f20" d="M0 0-93.989 22.951"/>
<g clip-path="url(#clip_2)">
<path transform="matrix(.57144,0,0,-.57146856,60.420377,41.15657)" d="M0 0C0 3.977-3.492 7.2-7.799 7.2-12.107 7.2-15.6 3.977-15.6 0-15.6-3.976-12.107-7.2-7.799-7.2-3.492-7.2 0-3.976 0 0" fill="#f9cd83"/>
<path transform="matrix(.57144,0,0,-.57146856,60.420377,41.15657)" stroke-width="4" stroke-linecap="butt" stroke-miterlimit="4" stroke-linejoin="miter" fill="none" stroke="#231f20" d="M0 0C0 3.977-3.492 7.2-7.799 7.2-12.107 7.2-15.6 3.977-15.6 0-15.6-3.976-12.107-7.2-7.799-7.2-3.492-7.2 0-3.976 0 0Z"/>
<path transform="matrix(.57144,0,0,-.57146856,127.2448,96.687259)" d="M0 0C0 3.977-3.492 7.2-7.799 7.2-12.107 7.2-15.6 3.977-15.6 0-15.6-3.976-12.107-7.2-7.799-7.2-3.492-7.2 0-3.976 0 0" fill="#f9cd83"/>
<path transform="matrix(.57144,0,0,-.57146856,127.2448,96.687259)" stroke-width="4" stroke-linecap="butt" stroke-miterlimit="4" stroke-linejoin="miter" fill="none" stroke="#231f20" d="M0 0C0 3.977-3.492 7.2-7.799 7.2-12.107 7.2-15.6 3.977-15.6 0-15.6-3.976-12.107-7.2-7.799-7.2-3.492-7.2 0-3.976 0 0Z"/>
<path transform="matrix(.57144,0,0,-.57146856,135.9883,63.898675)" d="M0 0C0 3.977-3.492 7.201-7.799 7.201-12.107 7.201-15.6 3.977-15.6 0-15.6-3.975-12.107-7.199-7.799-7.199-3.492-7.199 0-3.975 0 0" fill="#f9cd83"/>
<path transform="matrix(.57144,0,0,-.57146856,135.9883,63.898675)" stroke-width="4" stroke-linecap="butt" stroke-miterlimit="4" stroke-linejoin="miter" fill="none" stroke="#231f20" d="M0 0C0 3.977-3.492 7.201-7.799 7.201-12.107 7.201-15.6 3.977-15.6 0-15.6-3.975-12.107-7.199-7.799-7.199-3.492-7.199 0-3.975 0 0Z"/>
<path transform="matrix(.57144,0,0,-.57146856,184.07685,20.803833)" d="M0 0C0 3.977-3.492 7.2-7.799 7.2-12.107 7.2-15.6 3.977-15.6 0-15.6-3.976-12.107-7.2-7.799-7.2-3.492-7.2 0-3.976 0 0" fill="#f9cd83"/>
<path transform="matrix(.57144,0,0,-.57146856,184.07685,20.803833)" stroke-width="4" stroke-linecap="butt" stroke-miterlimit="4" stroke-linejoin="miter" fill="none" stroke="#231f20" d="M0 0C0 3.977-3.492 7.2-7.799 7.2-12.107 7.2-15.6 3.977-15.6 0-15.6-3.976-12.107-7.2-7.799-7.2-3.492-7.2 0-3.976 0 0Z"/>
<path transform="matrix(.57144,0,0,-.57146856,77.90729,73.266529)" d="M0 0C0 3.977-3.492 7.2-7.799 7.2-12.107 7.2-15.6 3.977-15.6 0-15.6-3.976-12.107-7.2-7.799-7.2-3.492-7.2 0-3.976 0 0" fill="#f9cd83"/>
<path transform="matrix(.57144,0,0,-.57146856,77.90729,73.266529)" stroke-width="4" stroke-linecap="butt" stroke-miterlimit="4" stroke-linejoin="miter" fill="none" stroke="#231f20" d="M0 0C0 3.977-3.492 7.2-7.799 7.2-12.107 7.2-15.6 3.977-15.6 0-15.6-3.976-12.107-7.2-7.799-7.2-3.492-7.2 0-3.976 0 0Z"/>
<path transform="matrix(.57144,0,0,-.57146856,25.134758,48.964029)" d="M0 0C0 3.977-3.492 7.2-7.799 7.2-12.107 7.2-15.6 3.977-15.6 0-15.6-3.976-12.107-7.2-7.799-7.2-3.492-7.2 0-3.976 0 0" fill="#f9cd83"/>
<path transform="matrix(.57144,0,0,-.57146856,25.134758,48.964029)" stroke-width="4" stroke-linecap="butt" stroke-miterlimit="4" stroke-linejoin="miter" fill="none" stroke="#231f20" d="M0 0C0 3.977-3.492 7.2-7.799 7.2-12.107 7.2-15.6 3.977-15.6 0-15.6-3.976-12.107-7.2-7.799-7.2-3.492-7.2 0-3.976 0 0Z"/>
<path transform="matrix(.57144,0,0,-.57146856,198.3489,36.891183)" d="M0 0C0 3.977-3.492 7.2-7.799 7.2-12.107 7.2-15.6 3.977-15.6 0-15.6-3.976-12.107-7.2-7.799-7.2-3.492-7.2 0-3.976 0 0" fill="#f9cd83"/>
<path transform="matrix(.57144,0,0,-.57146856,198.3489,36.891183)" stroke-width="4" stroke-linecap="butt" stroke-miterlimit="4" stroke-linejoin="miter" fill="none" stroke="#231f20" d="M0 0C0 3.977-3.492 7.2-7.799 7.2-12.107 7.2-15.6 3.977-15.6 0-15.6-3.976-12.107-7.2-7.799-7.2-3.492-7.2 0-3.976 0 0Z"/>
<path transform="matrix(.57144,0,0,-.57146856,234.57175,79.04928)" d="M0 0C0 3.977-3.492 7.201-7.799 7.201-12.107 7.201-15.6 3.977-15.6 0-15.6-3.975-12.107-7.199-7.799-7.199-3.492-7.199 0-3.975 0 0" fill="#f9cd83"/>
<path transform="matrix(.57144,0,0,-.57146856,234.57175,79.04928)" stroke-width="4" stroke-linecap="butt" stroke-miterlimit="4" stroke-linejoin="miter" fill="none" stroke="#231f20" d="M0 0C0 3.977-3.492 7.201-7.799 7.201-12.107 7.201-15.6 3.977-15.6 0-15.6-3.975-12.107-7.199-7.799-7.199-3.492-7.199 0-3.975 0 0Z"/>
<path transform="matrix(.57144,0,0,-.57146856,17.016022,92.31586)" d="M0 0C0 3.977-3.492 7.201-7.799 7.201-12.107 7.201-15.6 3.977-15.6 0-15.6-3.975-12.107-7.199-7.799-7.199-3.492-7.199 0-3.975 0 0" fill="#f9cd83"/>
<path transform="matrix(.57144,0,0,-.57146856,17.016022,92.31586)" stroke-width="4" stroke-linecap="butt" stroke-miterlimit="4" stroke-linejoin="miter" fill="none" stroke="#231f20" d="M0 0C0 3.977-3.492 7.201-7.799 7.201-12.107 7.201-15.6 3.977-15.6 0-15.6-3.975-12.107-7.199-7.799-7.199-3.492-7.199 0-3.975 0 0Z"/>
<path transform="matrix(.57144,0,0,-.57146856,181.62812,65.80618)" d="M0 0C0 3.977-3.492 7.199-7.799 7.199-12.107 7.199-15.6 3.977-15.6 0-15.6-3.977-12.107-7.201-7.799-7.201-3.492-7.201 0-3.977 0 0" fill="#f9cd83"/>
<path transform="matrix(.57144,0,0,-.57146856,181.62812,65.80618)" stroke-width="4" stroke-linecap="butt" stroke-miterlimit="4" stroke-linejoin="miter" fill="none" stroke="#231f20" d="M0 0C0 3.977-3.492 7.199-7.799 7.199-12.107 7.199-15.6 3.977-15.6 0-15.6-3.977-12.107-7.201-7.799-7.201-3.492-7.201 0-3.977 0 0Z"/>
<path transform="matrix(.57144,0,0,-.57146856,201.30097,95.472888)" d="M0 0C0 3.977-3.492 7.199-7.799 7.199-12.107 7.199-15.6 3.977-15.6 0-15.6-3.977-12.107-7.201-7.799-7.201-3.492-7.201 0-3.977 0 0" fill="#f9cd83"/>
<path transform="matrix(.57144,0,0,-.57146856,201.30097,95.472888)" stroke-width="4" stroke-linecap="butt" stroke-miterlimit="4" stroke-linejoin="miter" fill="none" stroke="#231f20" d="M0 0C0 3.977-3.492 7.199-7.799 7.199-12.107 7.199-15.6 3.977-15.6 0-15.6-3.977-12.107-7.201-7.799-7.201-3.492-7.201 0-3.977 0 0Z"/>
<path transform="matrix(.57144,0,0,-.57146856,93.66235,15.182922)" d="M0 0C0 3.977-3.492 7.199-7.799 7.199-12.107 7.199-15.599 3.977-15.599 0-15.599-3.977-12.107-7.201-7.799-7.201-3.492-7.201 0-3.977 0 0" fill="#f9cd83"/>
<path transform="matrix(.57144,0,0,-.57146856,93.66235,15.182922)" stroke-width="4" stroke-linecap="butt" stroke-miterlimit="4" stroke-linejoin="miter" fill="none" stroke="#231f20" d="M0 0C0 3.977-3.492 7.199-7.799 7.199-12.107 7.199-15.599 3.977-15.599 0-15.599-3.977-12.107-7.201-7.799-7.201-3.492-7.201 0-3.977 0 0Z"/>
</g>
</g>
</g>
<use data-text="1" xlink:href="#font_3_2" transform="matrix(9.9626,0,0,-9.963098,9.177002,52.24151)"/>
<use data-text="2" xlink:href="#font_3_3" transform="matrix(9.9626,0,0,-9.963098,184.85602,99.763889)"/>
<use data-text="3" xlink:href="#font_3_4" transform="matrix(9.9626,0,0,-9.963098,130.13602,76.72273)"/>
<use data-text="4" xlink:href="#font_3_5" transform="matrix(9.9626,0,0,-9.963098,176.216,13.360567)"/>
<use data-text="5" xlink:href="#font_3_6" transform="matrix(9.9626,0,0,-9.963098,.53700259,96.883739)"/>
<use data-text="6" xlink:href="#font_3_7" transform="matrix(9.9626,0,0,-9.963098,52.376008,33.52157)"/>
<use data-text="7" xlink:href="#font_4_100" transform="matrix(9.9626,0,0,-9.963098,236.69602,82.48302)"/>
<use data-text="8" xlink:href="#font_3_8" transform="matrix(9.9626,0,0,-9.963098,63.032014,71.53847)"/>
<use data-text="9" xlink:href="#font_3_9" transform="matrix(9.9626,0,0,-9.963098,121.49602,111.28446)"/>
<use data-text="1" xlink:href="#font_3_2" transform="matrix(9.9626,0,0,-9.963098,84.056018,7.600277)"/>
<use data-text="0" xlink:href="#font_3_1" transform="matrix(9.9626,0,0,-9.963098,89.03731,7.600277)"/>
<use data-text="1" xlink:href="#font_3_2" transform="matrix(9.9626,0,0,-9.963098,199.25601,39.28186)"/>
<use data-text="1" xlink:href="#font_3_2" transform="matrix(9.9626,0,0,-9.963098,204.2373,39.28186)"/>
<use data-text="1" xlink:href="#font_3_2" transform="matrix(9.9626,0,0,-9.963098,167.57602,79.602878)"/>
<use data-text="2" xlink:href="#font_3_3" transform="matrix(9.9626,0,0,-9.963098,172.55731,79.602878)"/>
</svg>
