<svg xmlns="http://www.w3.org/2000/svg" xmlns:xlink="http://www.w3.org/1999/xlink" xmlns:inkscape="http://www.inkscape.org/namespaces/inkscape" version="1.1" width="189" height="78" viewBox="0 0 189 78">
<defs>
<path id="font_1_1" d="M.46798707 .37236024C.46798707 .42637635 .44198609 .4423828 .42399598 .4423828 .39898683 .4423828 .375 .41636659 .375 .3943634 .375 .38136292 .37998963 .3753662 .3909912 .36434938 .4119873 .3443451 .4249878 .31834413 .4249878 .28233338 .4249878 .24032593 .3639984 .011245728 .24699402 .011245728 .19599915 .011245728 .17298889 .04626465 .17298889 .09828186 .17298889 .15429688 .19999695 .22731018 .23098755 .31033326 .23799134 .3273468 .24299622 .34135438 .24299622 .36035157 .24299622 .405365 .21099854 .4423828 .16099549 .4423828 .066986087 .4423828 .0289917 .29733277 .0289917 .28833009 .0289917 .27833558 .038986207 .27833558 .040985109 .27833558 .050994874 .27833558 .051986696 .28033448 .056991579 .29634095 .085998538 .39736939 .1289978 .42037965 .1579895 .42037965 .1659851 .42037965 .18299866 .42037965 .18299866 .3883667 .18299866 .36335755 .17298889 .3363495 .1659851 .31834413 .12199402 .20230103 .10899353 .15629578 .10899353 .11328125 .10899353 .0052490236 .19699097-.0107421879 .24299622-.0107421879 .41099549-.0107421879 .46798707 .32034303 .46798707 .37236024Z"/>
<path id="font_2_1" d="M.33499146 .63612368C.33499146 .6630554 .33299256 .6640625 .30499269 .6640625 .24099732 .6014404 .1499939 .6004486 .10899353 .6004486V.5644531C.1329956 .5644531 .19898987 .5644531 .2539978 .592453V.08203125C.2539978 .04899597 .2539978 .035995485 .1539917 .035995485H.115997318V0C.13398743 .0009918213 .25698854 .0039978029 .2939911 .0039978029 .32499696 .0039978029 .45098878 .0009918213 .47299195 0V.035995485H.43499757C.33499146 .035995485 .33499146 .04899597 .33499146 .08203125V.63612368Z"/>
<path id="font_2_3" d="M.272995 .33428956C.35099793 .33428956 .40699769 .2803192 .40699769 .1733551 .40699769 .04940796 .33499146 .012466431 .2769928 .012466431 .23699951 .012466431 .14898682 .0234375 .10699463 .082351688 .1539917 .084350589 .16499329 .11735535 .16499329 .13835144 .16499329 .17034912 .14099121 .19335938 .10998535 .19335938 .08198547 .19335938 .053985597 .17634583 .053985597 .13534546 .053985597 .041412355 .1579895-.01953125 .2789917-.01953125 .41799928-.01953125 .5139923 .07336426 .5139923 .1733551 .5139923 .2513275 .44999696 .32929994 .33999635 .35229493 .44499208 .39024354 .48298646 .4650879 .48298646 .5260773 .48298646 .60505679 .3919983 .6640625 .2809906 .6640625 .16999817 .6640625 .084991458 .61006167 .084991458 .5300751 .084991458 .49606324 .10699463 .47706605 .13699341 .47706605 .16799927 .47706605 .18798828 .5000763 .18798828 .5280762 .18798828 .5570679 .16799927 .57806399 .13699341 .5800781 .17199707 .62405398 .24099732 .63505557 .27799989 .63505557 .32299806 .63505557 .38598634 .6130676 .38598634 .5260773 .38598634 .48406983 .37199403 .43814088 .34599305 .4072113 .31298829 .36927796 .2849884 .3672943 .23498535 .36428834 .20999146 .3623047 .20799256 .3623047 .20298767 .3612976 .20098877 .3612976 .19299317 .3592987 .19299317 .34829713 .19299317 .33428956 .20199585 .33428956 .21899414 .33428956H.272995Z"/>
<path id="font_2_5" d="M.15499878 .5588074C.20599365 .5458069 .23599243 .5458069 .2519989 .5458069 .38398744 .5458069 .46199037 .6358032 .46199037 .6508026 .46199037 .6618042 .45498658 .6648102 .44999696 .6648102 .44799806 .6648102 .44599916 .6648102 .44198609 .6618042 .41799928 .6528015 .36499024 .6328125 .29100038 .6328125 .2630005 .6328125 .20999146 .6348114 .14498902 .6598053 .1349945 .6648102 .1329956 .6648102 .13198853 .6648102 .11898804 .6648102 .11898804 .6538086 .11898804 .6378021V.34251405C.11898804 .32548524 .11898804 .3134613 .1349945 .3134613 .14399719 .3134613 .14498902 .3154602 .15499878 .32748414 .19799805 .38259889 .25898744 .390625 .2939911 .390625 .35398866 .390625 .3809967 .34251405 .38598634 .33450318 .4039917 .30143739 .4099884 .26335145 .4099884 .20524597 .4099884 .17524719 .4099884 .116256717 .37998963 .07234192 .35499574 .03640747 .31199647 .012466431 .2630005 .012466431 .19799805 .012466431 .1309967 .04838562 .10598755 .11425781 .14399719 .11125183 .16299439 .13624573 .16299439 .16325379 .16299439 .20625305 .12599182 .21424866 .11299133 .21424866 .11099243 .21424866 .06298828 .21424866 .06298828 .1602478 .06298828 .07034302 .14498902-.01953125 .2649994-.01953125 .3929901-.01953125 .5049896 .07533264 .5049896 .20124817 .5049896 .31445313 .4189911 .41862489 .29499818 .41862489 .25099183 .41862489 .19898987 .4076233 .15499878 .36956788V.5588074Z"/>
<path id="font_2_7" d="M.5349884 .6045227C.54499819 .6165161 .54499819 .6185303 .54499819 .64453127H.2829895C.24299622 .64453127 .23199463 .6455078 .19599915 .6484375 .14399719 .65234377 .14199829 .6592407 .13899231 .676239H.10499573L.069992069 .46250917H.10398865C.10598755 .47750855 .115997318 .54351809 .13198853 .5535126 .13999939 .55952456 .22099304 .55952456 .23599243 .55952456H.45399476C.42199708 .5175171 .37098695 .45550538 .34999085 .4275055 .21899414 .25549317 .20698548 .096466068 .20698548 .037460329 .20698548 .02645874 .20698548-.01953125 .2539978-.01953125 .3019867-.01953125 .3019867 .025466919 .3019867 .038467409V.07847595C.3019867 .27249146 .34199525 .36149598 .3849945 .41551209L.5349884 .6045227Z"/>
<path id="font_2_2" d="M.5049896 .18203736H.47099305C.46798707 .16001892 .45799256 .100997928 .44499208 .09098816 .43699647 .084991458 .3600006 .084991458 .34599305 .084991458H.1619873C.2669983 .17803955 .3019867 .20603943 .3619995 .25306703 .43598939 .312088 .5049896 .374115 .5049896 .46914674 .5049896 .5900879 .39898683 .6640625 .2709961 .6640625 .14698792 .6640625 .06298828 .57710269 .06298828 .4851532 .06298828 .43414308 .10598755 .42915345 .115997318 .42915345 .13999939 .42915345 .16899109 .44615174 .16899109 .48214723 .16899109 .5001526 .1619873 .53515627 .10998535 .53515627 .14099121 .6060791 .20899964 .62805178 .2559967 .62805178 .35598756 .62805178 .4079895 .5501404 .4079895 .46914674 .4079895 .38212586 .34599305 .3130951 .31399537 .27708436L.07299805 .038986207C.06298828 .02999878 .06298828 .027999878 .06298828 0H.47499085L.5049896 .18203736Z"/>
<path id="font_2_4" d="M.5289917 .1640625V.20005799H.41799928V.64582827C.41799928 .66682437 .41799928 .6738281 .3959961 .6738281 .38398744 .6738281 .37998963 .6738281 .36999513 .65982058L.038986207 .20005799V.1640625H.33299256V.08201599C.33299256 .04800415 .33299256 .035995485 .2519989 .035995485H.22499085V0C.2749939 .0019989014 .33898927 .0039978029 .375 .0039978029 .4119873 .0039978029 .47599793 .0019989014 .526001 0V.035995485H.49899293C.41799928 .035995485 .41799928 .04800415 .41799928 .08201599V.1640625H.5289917M.33999635 .5658722V.20005799H.07598877L.33999635 .5658722Z"/>
<path id="font_2_6" d="M.1499939 .3274536C.1499939 .40945436 .15699768 .48303224 .19499207 .543869 .22898865 .5978699 .2829895 .63505557 .34700013 .63505557 .3769989 .63505557 .4169922 .62701418 .43699647 .5998688 .4119873 .5978699 .3909912 .5808716 .3909912 .5518799 .3909912 .5268707 .4079895 .5048828 .43798829 .5048828 .46798707 .5048828 .48599244 .5248718 .48599244 .5538788 .48599244 .6119385 .44400025 .6640625 .34498597 .6640625 .20098877 .6640625 .053985597 .5318756 .053985597 .3174591 .053985597 .05845642 .17599488-.01953125 .28599549-.01953125 .4079895-.01953125 .5139923 .07345581 .5139923 .20445252 .5139923 .33145143 .41299439 .42546083 .29599 .42546083 .21598816 .42546083 .17199707 .37245179 .1499939 .3274536M.28599549 .012466431C.23599243 .012466431 .19699097 .04145813 .17599488 .08546448 .16099549 .11546326 .15299988 .16545105 .15299988 .22544861 .15299988 .32244874 .21099854 .39746095 .29100038 .39746095 .33699037 .39746095 .36799623 .37945558 .3929901 .342453 .4169922 .30445863 .41799928 .26245118 .41799928 .20445252 .41799928 .14746094 .41799928 .10545349 .3909912 .066467288 .36698915 .031463624 .33499146 .012466431 .28599549 .012466431Z"/>
<path id="font_2_8" d="M.35499574 .36123658C.43299867 .3992157 .48298646 .44618226 .48298646 .5151367 .48298646 .6120758 .38198854 .6640625 .2849884 .6640625 .1749878 .6640625 .084991458 .5920868 .084991458 .4971466 .084991458 .45018006 .10699463 .41619874 .125 .39620973 .14299011 .37522889 .1499939 .37123109 .20899964 .33624269 .15299988 .31227113 .053985597 .25830079 .053985597 .15336609 .053985597 .042434694 .16899109-.01953125 .2829895-.01953125 .4099884-.01953125 .5139923 .061431886 .5139923 .1693573 .5139923 .23532105 .47499085 .29127503 .4169922 .32525636 .4039917 .33325196 .36898805 .35324098 .35499574 .36123658M.19198609 .45617677C.1659851 .4711609 .13798523 .49813844 .13798523 .53512576 .13798523 .5980835 .21099854 .63505557 .2829895 .63505557 .36099244 .63505557 .42999269 .5860901 .42999269 .5151367 .42999269 .42619325 .32598878 .3812256 .32398988 .3812256 .32199098 .3812256 .31999208 .3822174 .31298829 .3862152L.19198609 .45617677M.24099732 .31726075 .37799073 .23831177C.4039917 .22332764 .45399476 .19334412 .45399476 .13438416 .45399476 .059432985 .37098695 .012466431 .2849884 .012466431 .19299317 .012466431 .11399841 .07142639 .11399841 .15336609 .11399841 .22732544 .16899109 .2842865 .24099732 .31726075Z"/>
<clipPath id="clip_3">
<path transform="matrix(1.00008,0,0,-1.00006,9.214897,81.60524)" d="M0 0H60V85H0Z"/>
</clipPath>
<clipPath id="clip_4">
<path transform="matrix(1.00008,0,0,-1.00006,10.214977,399.62434)" d="M0 0H500V400H0Z"/>
</clipPath>
<clipPath id="clip_5">
<path transform="matrix(1.00008,0,0,-1.00006,10.214977,399.62434)" d="M0 400H500V0H0Z"/>
</clipPath>
<clipPath id="clip_6">
<path transform="matrix(1.00008,0,0,-1.00006,123.22403,81.60524)" d="M0 0H60V85H0Z"/>
</clipPath>
<clipPath id="clip_7">
<path transform="matrix(1.00008,0,0,-1.00006,124.224109,399.62434)" d="M0 0H500V400H0Z"/>
</clipPath>
<clipPath id="clip_8">
<path transform="matrix(1.00008,0,0,-1.00006,124.224109,399.62434)" d="M0 400H500V0H0Z"/>
</clipPath>
</defs>
<use data-text="v" xlink:href="#font_1_1" transform="matrix(9.963397,0,0,-9.963197,1.247261,5.8846938)"/>
<use data-text="1" xlink:href="#font_2_1" transform="matrix(6.974358,0,0,-6.9742186,6.077652,7.378783)"/>
<use data-text="v" xlink:href="#font_1_1" transform="matrix(9.963397,0,0,-9.963197,1.247261,29.796128)"/>
<use data-text="3" xlink:href="#font_2_3" transform="matrix(6.974358,0,0,-6.9742186,6.077652,31.291218)"/>
<use data-text="v" xlink:href="#font_1_1" transform="matrix(9.963397,0,0,-9.963197,1.247261,52.711503)"/>
<use data-text="5" xlink:href="#font_2_5" transform="matrix(6.974358,0,0,-6.9742186,6.077652,54.20659)"/>
<use data-text="v" xlink:href="#font_1_1" transform="matrix(9.963397,0,0,-9.963197,1.247261,74.63081)"/>
<use data-text="7" xlink:href="#font_2_7" transform="matrix(6.974358,0,0,-6.9742186,6.077652,76.12491)"/>
<use data-text="v" xlink:href="#font_1_1" transform="matrix(9.963397,0,0,-9.963197,66.01045,5.8846938)"/>
<use data-text="2" xlink:href="#font_2_2" transform="matrix(6.974358,0,0,-6.9742186,70.83983,7.378783)"/>
<use data-text="v" xlink:href="#font_1_1" transform="matrix(9.963397,0,0,-9.963197,66.01045,29.796128)"/>
<use data-text="4" xlink:href="#font_2_4" transform="matrix(6.974358,0,0,-6.9742186,70.83983,31.291218)"/>
<use data-text="v" xlink:href="#font_1_1" transform="matrix(9.963397,0,0,-9.963197,66.01045,52.711503)"/>
<use data-text="6" xlink:href="#font_2_6" transform="matrix(6.974358,0,0,-6.9742186,70.83983,54.20659)"/>
<use data-text="v" xlink:href="#font_1_1" transform="matrix(9.963397,0,0,-9.963197,66.01045,74.63081)"/>
<use data-text="8" xlink:href="#font_2_8" transform="matrix(6.974358,0,0,-6.9742186,70.83983,76.12491)"/>
<use data-text="v" xlink:href="#font_1_1" transform="matrix(9.963397,0,0,-9.963197,113.83426,5.8846938)"/>
<use data-text="1" xlink:href="#font_2_1" transform="matrix(6.974358,0,0,-6.9742186,118.66365,7.378783)"/>
<use data-text="v" xlink:href="#font_1_1" transform="matrix(9.963397,0,0,-9.963197,113.83426,29.796128)"/>
<use data-text="2" xlink:href="#font_2_2" transform="matrix(6.974358,0,0,-6.9742186,118.66365,31.291218)"/>
<use data-text="v" xlink:href="#font_1_1" transform="matrix(9.963397,0,0,-9.963197,113.83426,52.711503)"/>
<use data-text="3" xlink:href="#font_2_3" transform="matrix(6.974358,0,0,-6.9742186,118.66365,54.20659)"/>
<use data-text="v" xlink:href="#font_1_1" transform="matrix(9.963397,0,0,-9.963197,113.83426,74.63081)"/>
<use data-text="4" xlink:href="#font_2_4" transform="matrix(6.974358,0,0,-6.9742186,118.66365,76.12491)"/>
<use data-text="v" xlink:href="#font_1_1" transform="matrix(9.963397,0,0,-9.963197,178.59645,5.8846938)"/>
<use data-text="5" xlink:href="#font_2_5" transform="matrix(6.974358,0,0,-6.9742186,183.42684,7.378783)"/>
<use data-text="v" xlink:href="#font_1_1" transform="matrix(9.963397,0,0,-9.963197,178.59644,29.796128)"/>
<use data-text="6" xlink:href="#font_2_6" transform="matrix(6.974358,0,0,-6.9742186,183.42684,31.291218)"/>
<use data-text="v" xlink:href="#font_1_1" transform="matrix(9.963397,0,0,-9.963197,178.59644,52.711503)"/>
<use data-text="7" xlink:href="#font_2_7" transform="matrix(6.974358,0,0,-6.9742186,183.42684,54.20659)"/>
<use data-text="v" xlink:href="#font_1_1" transform="matrix(9.963397,0,0,-9.963197,178.59644,74.63081)"/>
<use data-text="8" xlink:href="#font_2_8" transform="matrix(6.974358,0,0,-6.9742186,183.42684,76.12491)"/>
<g clip-path="url(#clip_3)">
<g clip-path="url(#clip_4)">
<g inkscape:groupmode="layer" inkscape:label="Layer 1">
<g clip-path="url(#clip_5)">
<path transform="matrix(1.00008,0,0,-1.00006,20.579106,4.9487917)" d="M0 0C0-1.381-1.119-2.5-2.5-2.5-3.881-2.5-5-1.381-5 0-5 1.381-3.881 2.5-2.5 2.5-1.119 2.5 0 1.381 0 0" fill="#f9cd83"/>
<path transform="matrix(1.00008,0,0,-1.00006,20.579106,4.9487917)" stroke-width="1" stroke-linecap="butt" stroke-miterlimit="4" stroke-linejoin="miter" fill="none" stroke="#231f20" d="M0 0C0-1.381-1.119-2.5-2.5-2.5-3.881-2.5-5-1.381-5 0-5 1.381-3.881 2.5-2.5 2.5-1.119 2.5 0 1.381 0 0Z"/>
<path transform="matrix(1.00008,0,0,-1.00006,20.579106,27.950165)" d="M0 0C0-1.381-1.119-2.5-2.5-2.5-3.881-2.5-5-1.381-5 0-5 1.381-3.881 2.5-2.5 2.5-1.119 2.5 0 1.381 0 0" fill="#f9cd83"/>
<path transform="matrix(1.00008,0,0,-1.00006,20.579106,27.950165)" stroke-width="1" stroke-linecap="butt" stroke-miterlimit="4" stroke-linejoin="miter" fill="none" stroke="#231f20" d="M0 0C0-1.381-1.119-2.5-2.5-2.5-3.881-2.5-5-1.381-5 0-5 1.381-3.881 2.5-2.5 2.5-1.119 2.5 0 1.381 0 0Z"/>
<path transform="matrix(1.00008,0,0,-1.00006,20.579106,49.951478)" d="M0 0C0-1.381-1.119-2.5-2.5-2.5-3.881-2.5-5-1.381-5 0-5 1.381-3.881 2.5-2.5 2.5-1.119 2.5 0 1.381 0 0" fill="#f9cd83"/>
<path transform="matrix(1.00008,0,0,-1.00006,20.579106,49.951478)" stroke-width="1" stroke-linecap="butt" stroke-miterlimit="4" stroke-linejoin="miter" fill="none" stroke="#231f20" d="M0 0C0-1.381-1.119-2.5-2.5-2.5-3.881-2.5-5-1.381-5 0-5 1.381-3.881 2.5-2.5 2.5-1.119 2.5 0 1.381 0 0Z"/>
<path transform="matrix(1.00008,0,0,-1.00006,20.579106,72.95285)" d="M0 0C0-1.381-1.119-2.5-2.5-2.5-3.881-2.5-5-1.381-5 0-5 1.381-3.881 2.5-2.5 2.5-1.119 2.5 0 1.381 0 0" fill="#f9cd83"/>
<path transform="matrix(1.00008,0,0,-1.00006,20.579106,72.95285)" stroke-width="1" stroke-linecap="butt" stroke-miterlimit="4" stroke-linejoin="miter" fill="none" stroke="#231f20" d="M0 0C0-1.381-1.119-2.5-2.5-2.5-3.881-2.5-5-1.381-5 0-5 1.381-3.881 2.5-2.5 2.5-1.119 2.5 0 1.381 0 0Z"/>
<path transform="matrix(1.00008,0,0,-1.00006,63.082506,4.9487917)" d="M0 0C0-1.381-1.119-2.5-2.5-2.5-3.881-2.5-5-1.381-5 0-5 1.381-3.881 2.5-2.5 2.5-1.119 2.5 0 1.381 0 0" fill="#f9cd83"/>
<path transform="matrix(1.00008,0,0,-1.00006,63.082506,4.9487917)" stroke-width="1" stroke-linecap="butt" stroke-miterlimit="4" stroke-linejoin="miter" fill="none" stroke="#231f20" d="M0 0C0-1.381-1.119-2.5-2.5-2.5-3.881-2.5-5-1.381-5 0-5 1.381-3.881 2.5-2.5 2.5-1.119 2.5 0 1.381 0 0Z"/>
<path transform="matrix(1.00008,0,0,-1.00006,63.082506,27.950165)" d="M0 0C0-1.381-1.119-2.5-2.5-2.5-3.881-2.5-5-1.381-5 0-5 1.381-3.881 2.5-2.5 2.5-1.119 2.5 0 1.381 0 0" fill="#f9cd83"/>
<path transform="matrix(1.00008,0,0,-1.00006,63.082506,27.950165)" stroke-width="1" stroke-linecap="butt" stroke-miterlimit="4" stroke-linejoin="miter" fill="none" stroke="#231f20" d="M0 0C0-1.381-1.119-2.5-2.5-2.5-3.881-2.5-5-1.381-5 0-5 1.381-3.881 2.5-2.5 2.5-1.119 2.5 0 1.381 0 0Z"/>
<path transform="matrix(1.00008,0,0,-1.00006,63.082506,49.951478)" d="M0 0C0-1.381-1.119-2.5-2.5-2.5-3.881-2.5-5-1.381-5 0-5 1.381-3.881 2.5-2.5 2.5-1.119 2.5 0 1.381 0 0" fill="#f9cd83"/>
<path transform="matrix(1.00008,0,0,-1.00006,63.082506,49.951478)" stroke-width="1" stroke-linecap="butt" stroke-miterlimit="4" stroke-linejoin="miter" fill="none" stroke="#231f20" d="M0 0C0-1.381-1.119-2.5-2.5-2.5-3.881-2.5-5-1.381-5 0-5 1.381-3.881 2.5-2.5 2.5-1.119 2.5 0 1.381 0 0Z"/>
<path transform="matrix(1.00008,0,0,-1.00006,63.082506,72.95285)" d="M0 0C0-1.381-1.119-2.5-2.5-2.5-3.881-2.5-5-1.381-5 0-5 1.381-3.881 2.5-2.5 2.5-1.119 2.5 0 1.381 0 0" fill="#f9cd83"/>
<path transform="matrix(1.00008,0,0,-1.00006,63.082506,72.95285)" stroke-width="1" stroke-linecap="butt" stroke-miterlimit="4" stroke-linejoin="miter" fill="none" stroke="#231f20" d="M0 0C0-1.381-1.119-2.5-2.5-2.5-3.881-2.5-5-1.381-5 0-5 1.381-3.881 2.5-2.5 2.5-1.119 2.5 0 1.381 0 0Z"/>
<path transform="matrix(1.00008,0,0,-1.00006,21.406273,6.4479677)" stroke-width="1" stroke-linecap="butt" stroke-miterlimit="4" stroke-linejoin="miter" fill="none" stroke="#231f20" d="M0 0 36.385-20.425"/>
<path transform="matrix(1.00008,0,0,-1.00006,57.793985,26.874482)" stroke-width="1" stroke-linecap="butt" stroke-miterlimit="4" stroke-linejoin="miter" fill="none" stroke="#231f20" d="M0 0-37.212-23.076"/>
<path transform="matrix(1.00008,0,0,-1.00006,20.579106,49.951478)" stroke-width="1" stroke-linecap="butt" stroke-miterlimit="4" stroke-linejoin="miter" fill="none" stroke="#231f20" d="M0 0 37.5-23"/>
<path transform="matrix(1.00008,0,0,-1.00006,58.082109,4.9487917)" stroke-width="1" stroke-linecap="butt" stroke-miterlimit="4" stroke-linejoin="miter" fill="none" stroke="#231f20" d="M0 0-37.5-23"/>
<path transform="matrix(1.00008,0,0,-1.00006,20.579106,27.950165)" stroke-width="1" stroke-linecap="butt" stroke-miterlimit="4" stroke-linejoin="miter" fill="none" stroke="#231f20" d="M0 0 37.5-22"/>
<path transform="matrix(1.00008,0,0,-1.00006,58.082109,49.951478)" stroke-width="1" stroke-linecap="butt" stroke-miterlimit="4" stroke-linejoin="miter" fill="none" stroke="#231f20" d="M0 0-37.5-23"/>
<path transform="matrix(1.00008,0,0,-1.00006,20.579106,4.9487917)" stroke-width="1" stroke-linecap="butt" stroke-miterlimit="4" stroke-linejoin="miter" fill="none" stroke="#231f20" d="M0 0 37.5-45"/>
<path transform="matrix(1.00008,0,0,-1.00006,20.579106,4.9487917)" stroke-width="1" stroke-linecap="butt" stroke-miterlimit="4" stroke-linejoin="miter" fill="none" stroke="#231f20" d="M0 0 37.5-68"/>
<path transform="matrix(1.00008,0,0,-1.00006,58.082109,4.9487917)" stroke-width="1" stroke-linecap="butt" stroke-miterlimit="4" stroke-linejoin="miter" fill="none" stroke="#231f20" d="M0 0-37.5-45"/>
<path transform="matrix(1.00008,0,0,-1.00006,58.082109,4.9487917)" stroke-width="1" stroke-linecap="butt" stroke-miterlimit="4" stroke-linejoin="miter" fill="none" stroke="#231f20" d="M0 0-37.5-68"/>
<path transform="matrix(1.00008,0,0,-1.00006,57.793985,26.874482)" stroke-width="1" stroke-linecap="butt" stroke-miterlimit="4" stroke-linejoin="miter" fill="none" stroke="#231f20" d="M0 0-37.212-46.076"/>
<path transform="matrix(1.00008,0,0,-1.00006,20.579106,27.950165)" stroke-width="1" stroke-linecap="butt" stroke-miterlimit="4" stroke-linejoin="miter" fill="none" stroke="#231f20" d="M0 0 37.5-45"/>
</g>
</g>
</g>
</g>
<g clip-path="url(#clip_6)">
<g clip-path="url(#clip_7)">
<g inkscape:groupmode="layer" inkscape:label="Layer 1">
<g clip-path="url(#clip_8)">
<path transform="matrix(1.00008,0,0,-1.00006,134.58824,4.9487917)" d="M0 0C0-1.381-1.119-2.5-2.5-2.5-3.881-2.5-5-1.381-5 0-5 1.381-3.881 2.5-2.5 2.5-1.119 2.5 0 1.381 0 0" fill="#f9cd83"/>
<path transform="matrix(1.00008,0,0,-1.00006,134.58824,4.9487917)" stroke-width="1" stroke-linecap="butt" stroke-miterlimit="4" stroke-linejoin="miter" fill="none" stroke="#231f20" d="M0 0C0-1.381-1.119-2.5-2.5-2.5-3.881-2.5-5-1.381-5 0-5 1.381-3.881 2.5-2.5 2.5-1.119 2.5 0 1.381 0 0Z"/>
<path transform="matrix(1.00008,0,0,-1.00006,134.58824,27.950165)" d="M0 0C0-1.381-1.119-2.5-2.5-2.5-3.881-2.5-5-1.381-5 0-5 1.381-3.881 2.5-2.5 2.5-1.119 2.5 0 1.381 0 0" fill="#f9cd83"/>
<path transform="matrix(1.00008,0,0,-1.00006,134.58824,27.950165)" stroke-width="1" stroke-linecap="butt" stroke-miterlimit="4" stroke-linejoin="miter" fill="none" stroke="#231f20" d="M0 0C0-1.381-1.119-2.5-2.5-2.5-3.881-2.5-5-1.381-5 0-5 1.381-3.881 2.5-2.5 2.5-1.119 2.5 0 1.381 0 0Z"/>
<path transform="matrix(1.00008,0,0,-1.00006,134.58824,49.951478)" d="M0 0C0-1.381-1.119-2.5-2.5-2.5-3.881-2.5-5-1.381-5 0-5 1.381-3.881 2.5-2.5 2.5-1.119 2.5 0 1.381 0 0" fill="#f9cd83"/>
<path transform="matrix(1.00008,0,0,-1.00006,134.58824,49.951478)" stroke-width="1" stroke-linecap="butt" stroke-miterlimit="4" stroke-linejoin="miter" fill="none" stroke="#231f20" d="M0 0C0-1.381-1.119-2.5-2.5-2.5-3.881-2.5-5-1.381-5 0-5 1.381-3.881 2.5-2.5 2.5-1.119 2.5 0 1.381 0 0Z"/>
<path transform="matrix(1.00008,0,0,-1.00006,134.58824,72.95285)" d="M0 0C0-1.381-1.119-2.5-2.5-2.5-3.881-2.5-5-1.381-5 0-5 1.381-3.881 2.5-2.5 2.5-1.119 2.5 0 1.381 0 0" fill="#f9cd83"/>
<path transform="matrix(1.00008,0,0,-1.00006,134.58824,72.95285)" stroke-width="1" stroke-linecap="butt" stroke-miterlimit="4" stroke-linejoin="miter" fill="none" stroke="#231f20" d="M0 0C0-1.381-1.119-2.5-2.5-2.5-3.881-2.5-5-1.381-5 0-5 1.381-3.881 2.5-2.5 2.5-1.119 2.5 0 1.381 0 0Z"/>
<path transform="matrix(1.00008,0,0,-1.00006,177.09163,4.9487917)" d="M0 0C0-1.381-1.119-2.5-2.5-2.5-3.881-2.5-5-1.381-5 0-5 1.381-3.881 2.5-2.5 2.5-1.119 2.5 0 1.381 0 0" fill="#f9cd83"/>
<path transform="matrix(1.00008,0,0,-1.00006,177.09163,4.9487917)" stroke-width="1" stroke-linecap="butt" stroke-miterlimit="4" stroke-linejoin="miter" fill="none" stroke="#231f20" d="M0 0C0-1.381-1.119-2.5-2.5-2.5-3.881-2.5-5-1.381-5 0-5 1.381-3.881 2.5-2.5 2.5-1.119 2.5 0 1.381 0 0Z"/>
<path transform="matrix(1.00008,0,0,-1.00006,177.09163,27.950165)" d="M0 0C0-1.381-1.119-2.5-2.5-2.5-3.881-2.5-5-1.381-5 0-5 1.381-3.881 2.5-2.5 2.5-1.119 2.5 0 1.381 0 0" fill="#f9cd83"/>
<path transform="matrix(1.00008,0,0,-1.00006,177.09163,27.950165)" stroke-width="1" stroke-linecap="butt" stroke-miterlimit="4" stroke-linejoin="miter" fill="none" stroke="#231f20" d="M0 0C0-1.381-1.119-2.5-2.5-2.5-3.881-2.5-5-1.381-5 0-5 1.381-3.881 2.5-2.5 2.5-1.119 2.5 0 1.381 0 0Z"/>
<path transform="matrix(1.00008,0,0,-1.00006,177.09163,49.951478)" d="M0 0C0-1.381-1.119-2.5-2.5-2.5-3.881-2.5-5-1.381-5 0-5 1.381-3.881 2.5-2.5 2.5-1.119 2.5 0 1.381 0 0" fill="#f9cd83"/>
<path transform="matrix(1.00008,0,0,-1.00006,177.09163,49.951478)" stroke-width="1" stroke-linecap="butt" stroke-miterlimit="4" stroke-linejoin="miter" fill="none" stroke="#231f20" d="M0 0C0-1.381-1.119-2.5-2.5-2.5-3.881-2.5-5-1.381-5 0-5 1.381-3.881 2.5-2.5 2.5-1.119 2.5 0 1.381 0 0Z"/>
<path transform="matrix(1.00008,0,0,-1.00006,177.09163,72.95285)" d="M0 0C0-1.381-1.119-2.5-2.5-2.5-3.881-2.5-5-1.381-5 0-5 1.381-3.881 2.5-2.5 2.5-1.119 2.5 0 1.381 0 0" fill="#f9cd83"/>
<path transform="matrix(1.00008,0,0,-1.00006,177.09163,72.95285)" stroke-width="1" stroke-linecap="butt" stroke-miterlimit="4" stroke-linejoin="miter" fill="none" stroke="#231f20" d="M0 0C0-1.381-1.119-2.5-2.5-2.5-3.881-2.5-5-1.381-5 0-5 1.381-3.881 2.5-2.5 2.5-1.119 2.5 0 1.381 0 0Z"/>
<path transform="matrix(1.00008,0,0,-1.00006,135.4154,6.4479677)" stroke-width="1" stroke-linecap="butt" stroke-miterlimit="4" stroke-linejoin="miter" fill="none" stroke="#231f20" d="M0 0 36.385-20.425"/>
<path transform="matrix(1.00008,0,0,-1.00006,171.80312,26.874482)" stroke-width="1" stroke-linecap="butt" stroke-miterlimit="4" stroke-linejoin="miter" fill="none" stroke="#231f20" d="M0 0-37.212-23.076"/>
<path transform="matrix(1.00008,0,0,-1.00006,134.58824,49.951478)" stroke-width="1" stroke-linecap="butt" stroke-miterlimit="4" stroke-linejoin="miter" fill="none" stroke="#231f20" d="M0 0 37.5-23"/>
<path transform="matrix(1.00008,0,0,-1.00006,172.09123,4.9487917)" stroke-width="1" stroke-linecap="butt" stroke-miterlimit="4" stroke-linejoin="miter" fill="none" stroke="#231f20" d="M0 0-37.5-23"/>
<path transform="matrix(1.00008,0,0,-1.00006,134.58824,27.950165)" stroke-width="1" stroke-linecap="butt" stroke-miterlimit="4" stroke-linejoin="miter" fill="none" stroke="#231f20" d="M0 0 37.5-22"/>
<path transform="matrix(1.00008,0,0,-1.00006,172.09123,49.951478)" stroke-width="1" stroke-linecap="butt" stroke-miterlimit="4" stroke-linejoin="miter" fill="none" stroke="#231f20" d="M0 0-37.5-23"/>
<path transform="matrix(1.00008,0,0,-1.00006,134.58824,4.9487917)" stroke-width="1" stroke-linecap="butt" stroke-miterlimit="4" stroke-linejoin="miter" fill="none" stroke="#231f20" d="M0 0 37.5-45"/>
<path transform="matrix(1.00008,0,0,-1.00006,134.58824,4.9487917)" stroke-width="1" stroke-linecap="butt" stroke-miterlimit="4" stroke-linejoin="miter" fill="none" stroke="#231f20" d="M0 0 37.5-68"/>
<path transform="matrix(1.00008,0,0,-1.00006,172.09123,4.9487917)" stroke-width="1" stroke-linecap="butt" stroke-miterlimit="4" stroke-linejoin="miter" fill="none" stroke="#231f20" d="M0 0-37.5-45"/>
<path transform="matrix(1.00008,0,0,-1.00006,172.09123,4.9487917)" stroke-width="1" stroke-linecap="butt" stroke-miterlimit="4" stroke-linejoin="miter" fill="none" stroke="#231f20" d="M0 0-37.5-68"/>
<path transform="matrix(1.00008,0,0,-1.00006,171.80312,26.874482)" stroke-width="1" stroke-linecap="butt" stroke-miterlimit="4" stroke-linejoin="miter" fill="none" stroke="#231f20" d="M0 0-37.212-46.076"/>
<path transform="matrix(1.00008,0,0,-1.00006,134.58824,27.950165)" stroke-width="1" stroke-linecap="butt" stroke-miterlimit="4" stroke-linejoin="miter" fill="none" stroke="#231f20" d="M0 0 37.5-45"/>
</g>
</g>
</g>
</g>
</svg>
