<svg xmlns="http://www.w3.org/2000/svg" xmlns:xlink="http://www.w3.org/1999/xlink" xmlns:inkscape="http://www.inkscape.org/namespaces/inkscape" version="1.1" width="166" height="95" viewBox="0 0 166 95">
<defs>
<clipPath id="clip_1">
<path transform="matrix(1.00002,0,0,-1.00005,-7.1033327,101.603679)" d="M0 0H180V108H0Z"/>
</clipPath>
<clipPath id="clip_2">
<path transform="matrix(1.00002,0,0,-1.00005,-7.1033327,101.603679)" d="M0 108H180V0H0Z"/>
</clipPath>
<clipPath id="clip_3">
<path transform="matrix(1.00002,0,0,-1.00005,-7.1033327,101.603679)" d="M15.9492 26.2236H111.637V82.8486H15.9492Z"/>
</clipPath>
<clipPath id="clip_4">
<path transform="matrix(1.00002,0,0,-1.00005,-7.1033327,101.603679)" d="M16.4492 26.7236H111.137V82.3486H16.4492Z"/>
</clipPath>
<clipPath id="clip_5">
<path transform="matrix(1.00002,0,0,-1.00005,-7.1033327,101.603679)" d="M58.7617 26.8486H163.199V82.8486H58.7617Z"/>
</clipPath>
<clipPath id="clip_6">
<path transform="matrix(1.00002,0,0,-1.00005,-7.1033327,101.603679)" d="M59.2617 27.3486H162.699V82.3486H59.2617Z"/>
</clipPath>
<path id="font_7_74" d="M.8789978 0V.0309906H.8549957C.7779999 .0309906 .776001 .041992189 .776001 .07795715V.6046295C.776001 .64060977 .7779999 .6516113 .8549957 .6516113H.8789978V.6826172H.70999148C.6839905 .6826172 .6839905 .6816101 .6769867 .66360476L.45799256 .10095215 .24099732 .660614C.23199463 .6826172 .22898865 .6826172 .20599365 .6826172H.036987306V.6516113H.06098938C.13798523 .6516113 .13999939 .64060977 .13999939 .6046295V.10494995C.13999939 .07795715 .13999939 .0309906 .036987306 .0309906V0L.1539917 .0029907227 .2709961 0V.0309906C.16799927 .0309906 .16799927 .07795715 .16799927 .10494995V.6436157H.16899109L.4099884 .021987915C.4149933 .008987427 .41999818 0 .42999269 0 .44099427 0 .44400025 .0079956059 .44799806 .018997193L.69400027 .6516113H.69499209V.07795715C.69499209 .041992189 .69299319 .0309906 .6159973 .0309906H.59199526V0C.6289978 .0029907227 .69699099 .0029907227 .73599246 .0029907227 .7749939 .0029907227 .84199526 .0029907227 .8789978 0Z"/>
<path id="font_7_28" d="M.48298646 .08912659V.14511109H.45799256V.08912659C.45799256 .03112793 .43299867 .025131226 .42199708 .025131226 .3889923 .025131226 .3849945 .070129398 .3849945 .07511902V.27508546C.3849945 .31707765 .3849945 .3560791 .34899903 .39312745 .30999757 .43223573 .2599945 .4482422 .21199036 .4482422 .12998963 .4482422 .06098938 .40115357 .06098938 .335083 .06098938 .30508424 .08099365 .28808595 .10699463 .28808595 .1349945 .28808595 .15299988 .30807496 .15299988 .33407594 .15299988 .3460846 .147995 .37908937 .101989749 .38008119 .1289978 .41519166 .17799378 .426239 .20999146 .426239 .25898744 .426239 .31599427 .38710023 .31599427 .29808045V.26107789C.2649994 .25808717 .19499207 .25508119 .13198853 .22509766 .056991579 .19110108 .03199768 .13911438 .03199768 .09512329 .03199768 .014251709 .1289978-.0107421879 .19198609-.0107421879 .2579956-.0107421879 .3039856 .029251099 .32299806 .07624817 .32699586 .036132814 .35398866-.005859375 .40098573-.005859375 .42199708-.005859375 .48298646 .008132935 .48298646 .08912659M.31599427 .14013672C.31599427 .04525757 .24398804 .011245728 .19898987 .011245728 .1499939 .011245728 .10899353 .04624939 .10899353 .09625244 .10899353 .15124512 .15098572 .23425293 .31599427 .24024964V.14013672Z"/>
<path id="font_7_72" d="M.25498963 0V.0309906C.18798828 .0309906 .1769867 .0309906 .1769867 .07601929V.69433596L.032989503 .6826172V.6516113C.102996829 .6516113 .11099243 .64460757 .11099243 .5956421V.07595825C.11099243 .0309906 .099990848 .0309906 .032989503 .0309906V0L.14399719 .0029907227 .25498963 0Z"/>
<path id="font_7_50" d="M.4149933 .11933899C.4149933 .12934876 .40699769 .13134766 .4019928 .13134766 .3929901 .13134766 .3909912 .12535095 .3889923 .11734009 .35398866 .014251709 .2639923 .014251709 .2539978 .014251709 .20399475 .014251709 .1639862 .044281007 .14099121 .08131409 .11099243 .12934876 .11099243 .19540406 .11099243 .23144531H.3899994C.4119873 .23144531 .4149933 .23144531 .4149933 .2524414 .4149933 .35131837 .36099244 .4482422 .23599243 .4482422 .11999512 .4482422 .027999878 .34532167 .027999878 .22042847 .027999878 .08631897 .1329956-.0107421879 .24798584-.0107421879 .36999513-.0107421879 .4149933 .10032654 .4149933 .11933899M.34899903 .2524414H.11199951C.117996219 .40126039 .20199585 .426239 .23599243 .426239 .33898927 .426239 .34899903 .2913971 .34899903 .2524414Z"/>
<path id="font_7_98" d="M.3600006 .12823487C.3600006 .18122864 .32998658 .21122742 .31799317 .22323609 .2849884 .25523377 .24598694 .26322938 .20399475 .27124024 .147995 .28224183 .08099365 .29522706 .08099365 .35324098 .08099365 .38822938 .10699463 .42922975 .19299317 .42922975 .30299378 .42922975 .30799867 .3392334 .30999757 .30822755 .31098939 .2992401 .32199098 .2992401 .32199098 .2992401 .33499146 .2992401 .33499146 .30422975 .33499146 .32322694V.4242401C.33499146 .4412384 .33499146 .4482422 .32398988 .4482422 .31900025 .4482422 .31698609 .4482422 .3039856 .43623353 .30099488 .43223573 .29100038 .42323304 .2869873 .42022706 .24899292 .4482422 .20799256 .4482422 .19299317 .4482422 .070999149 .4482422 .032989503 .38124085 .032989503 .3252411 .032989503 .29023744 .04899597 .26223756 .07598877 .24023438 .10798645 .2142334 .13598633 .2082367 .20799256 .19422913 .22999573 .19021607 .31199647 .17422486 .31199647 .10221863 .31199647 .051223756 .2769928 .011245728 .19898987 .011245728 .114990238 .011245728 .07899475 .068222049 .05999756 .1532135 .056991579 .16621399 .055999757 .17021179 .04598999 .17021179 .032989503 .17021179 .032989503 .16322327 .032989503 .1452179V.013214111C.032989503-.003753662 .032989503-.0107421879 .04399109-.0107421879 .04899597-.0107421879 .049987794-.009750366 .068984989 .009246826 .070999149 .011245728 .070999149 .013214111 .08898926 .032226564 .1329956-.009750366 .17799378-.0107421879 .19898987-.0107421879 .31399537-.0107421879 .3600006 .05621338 .3600006 .1282196V.12823487Z"/>
<path id="font_7_42" d="M.6649933 .23271179C.6649933 .24272156 .6649933 .24972534 .6519928 .24972534 .6409912 .24972534 .6409912 .24372864 .6399994 .23371887 .6319885 .09059143 .5249939 .008529663 .41600038 .008529663 .35499574 .008529663 .15899658 .042556764 .15899658 .34080506 .15899658 .64004519 .35398866 .67407229 .4149933 .67407229 .5239868 .67407229 .61299136 .58299258 .6329956 .4368744 .6349945 .42286683 .6349945 .41986085 .6489868 .41986085 .6649933 .41986085 .6649933 .42286683 .6649933 .44387818V.68107607C.6649933 .69807437 .6649933 .7050781 .6539917 .7050781 .6499939 .7050781 .6459961 .7050781 .6380005 .69306948L.58799746 .61901858C.5509949 .6550598 .5 .7050781 .4039917 .7050781 .21699524 .7050781 .055999757 .5459595 .055999757 .34179688 .055999757 .1346283 .21798706-.022460938 .4039917-.022460938 .5669861-.022460938 .6649933 .116622928 .6649933 .23271179Z"/>
<path id="font_7_97" d="M.49899293 .18579102C.49899293 .2858429 .43299867 .36791993 .34899903 .38793946L.22099304 .4189453C.15899658 .43388368 .11999512 .48773194 .11999512 .5458069 .11999512 .61595156 .17399597 .677063 .2519989 .677063 .4189911 .677063 .44099427 .5127411 .44699098 .46777345 .44799806 .461792 .44799806 .45581056 .45899964 .45581056 .47200013 .45581056 .47200013 .46080018 .47200013 .47973634V.68107607C.47200013 .69807437 .47200013 .7050781 .46099855 .7050781 .45399476 .7050781 .45298768 .70407107 .44599916 .69207766L.41099549 .63497927C.3809967 .66404727 .33999635 .7050781 .25099183 .7050781 .13999939 .7050781 .055999757 .61694338 .055999757 .5107422 .055999757 .42790223 .10899353 .35490418 .18699646 .32788087 .19799805 .32388307 .24899292 .3118744 .31900025 .29486085 .34599305 .28785707 .37599183 .280838 .4039917 .24382019 .4249878 .2177887 .43499757 .18478394 .43499757 .1517334 .43499757 .0806427 .3849945 .008529663 .30099488 .008529663 .27198792 .008529663 .19599915 .013534546 .14299011 .06260681 .084991458 .11668396 .08198547 .18078614 .08099365 .21679688 .07998657 .22679138 .07199097 .22679138 .068984989 .22679138 .055999757 .22679138 .055999757 .2197876 .055999757 .20178223V.0015258789C.055999757-.015472412 .055999757-.022460938 .066986087-.022460938 .07398987-.022460938 .07499695-.020462037 .08198547-.009475708 .08198547-.009475708 .084991458-.0054626467 .117996219 .047592164 .14898682 .013534546 .21299744-.022460938 .3019867-.022460938 .4189911-.022460938 .49899293 .07562256 .49899293 .18579102Z"/>
<path id="font_7_68" d="M.20999146-.049972536V.4423828L.057998659 .43138124V.40037538C.1349945 .40037538 .14399719 .39337159 .14399719 .34432984V-.051971437C.14399719-.09700012 .1349945-.18309021 .070999149-.18309021 .06599426-.18309021 .042999269-.18309021 .016998291-.17001343 .03199768-.16600037 .051986696-.1519928 .051986696-.125 .051986696-.09899902 .033996583-.07899475 .005996704-.07899475-.022003174-.07899475-.040008546-.09899902-.040008546-.125-.040008546-.17704773 .015991211-.20507813 .07299805-.20507813 .147995-.20507813 .20999146-.14100647 .20999146-.049972536M.20999146 .6042175C.20999146 .6312256 .18699646 .65722659 .15699768 .65722659 .12298584 .65722659 .102996829 .6292114 .102996829 .6042175 .102996829 .57722476 .12599182 .55122378 .1559906 .55122378 .18998719 .55122378 .20999146 .57922366 .20999146 .6042175Z"/>
<path id="font_7_81" d="M.47099305 .21424866C.47099305 .34223939 .37098695 .4482422 .25 .4482422 .125 .4482422 .027999878 .3392334 .027999878 .21424866 .027999878 .085250858 .13198853-.0107421879 .24899292-.0107421879 .36999513-.0107421879 .47099305 .087249759 .47099305 .21424866M.3880005 .22224427C.3880005 .18624878 .3880005 .13224793 .3659973 .08824158 .34399415 .04324341 .2999878 .014251709 .25 .014251709 .20698548 .014251709 .16299439 .035247804 .13598633 .08125305 .11099243 .12524414 .11099243 .18624878 .11099243 .22224427 .11099243 .26124574 .11099243 .31523133 .1349945 .35923768 .1619873 .40522767 .20899964 .426239 .24899292 .426239 .29299928 .426239 .33599855 .40423585 .3619995 .36123658 .3880005 .3182373 .3880005 .26023866 .3880005 .22224427Z"/>
<path id="font_7_96" d="M.3639984 .38137818C.3639984 .41337586 .33299256 .4423828 .2899933 .4423828 .21699524 .4423828 .18099976 .37538148 .16699219 .3323822V.4423828L.027999878 .43066407V.3996582C.09799194 .3996582 .10598755 .39266969 .10598755 .34370423V.07595825C.10598755 .0309906 .09498596 .0309906 .027999878 .0309906V0L.14199829 .0029907227C.18199158 .0029907227 .22898865 .0029907227 .2689972 0V.0309906H.24798584C.17399597 .0309906 .17199707 .04197693 .17199707 .07795715V.23181153C.17199707 .33137513 .21398926 .42037965 .2899933 .42037965 .29699708 .42037965 .29899598 .42037965 .30099488 .41937257 .2979889 .41838075 .27799989 .40637208 .27799989 .3803711 .27799989 .35237123 .29899598 .33737184 .32099916 .33737184 .33898927 .33737184 .3639984 .3493805 .3639984 .38137818Z"/>
<path id="font_7_76" d="M.71598818 .6516113V.6826172L.598999 .6796112 .48199464 .6826172V.6516113C.58499148 .6516113 .58499148 .6046295 .58499148 .577652V.15092469L.23199463 .6696167C.22299195 .6816101 .22200012 .6826172 .20298767 .6826172H.032989503V.6516113H.06199646C.07699585 .6516113 .09700012 .65060427 .11199951 .6496124 .1349945 .64660647 .13598633 .6456146 .13598633 .62661746V.10494995C.13598633 .07795715 .13598633 .0309906 .032989503 .0309906V0L.1499939 .0029907227 .2669983 0V.0309906C.1639862 .0309906 .1639862 .07795715 .1639862 .10494995V.62461856C.16899109 .6196289 .16999817 .6186218 .17399597 .6126251L.58200076 .0129852299C.59098818 .0009918213 .59199526 0 .598999 0 .61299136 0 .61299136 .0069885256 .61299136 .025985718V.577652C.61299136 .6046295 .61299136 .6516113 .71598818 .6516113Z"/>
<path id="font_7_77" d="M.5349884 0V.0309906C.48298646 .0309906 .45799256 .0309906 .45700074 .061019899V.25221253C.45700074 .3383026 .45700074 .36932374 .42599488 .405365 .4119873 .42237855 .3789978 .4423828 .32099916 .4423828 .24798584 .4423828 .20098877 .39935304 .17298889 .33729554V.4423828L.03199768 .43066407V.3996582C.101989749 .3996582 .10998535 .39266969 .10998535 .34370423V.07595825C.10998535 .0309906 .09899902 .0309906 .03199768 .0309906V0L.14498902 .0029907227 .25698854 0V.0309906C.18998719 .0309906 .1789856 .0309906 .1789856 .07595825V.25978089C.1789856 .36431886 .25 .42037965 .31399537 .42037965 .3769989 .42037965 .3880005 .36631776 .3880005 .30926515V.076034549C.3880005 .0309906 .3769989 .0309906 .30999757 .0309906V0L.4229889 .0029907227 .5349884 0Z"/>
<path id="font_7_64" d="M.27598573 .18710327V.24511719H.010986328V.18710327H.27598573Z"/>
<path id="font_7_75" d="M.8129883 0V.0309906C.7609863 .0309906 .73599246 .0309906 .7350006 .061019899V.25221253C.7350006 .3383026 .7350006 .36932374 .70399478 .405365 .6899872 .42237855 .6569977 .4423828 .598999 .4423828 .5149994 .4423828 .47099305 .38233949 .45399476 .34429933 .43998719 .43138124 .3659973 .4423828 .32099916 .4423828 .24798584 .4423828 .20098877 .39935304 .17298889 .33729554V.4423828L.03199768 .43066407V.3996582C.101989749 .3996582 .10998535 .39266969 .10998535 .34370423V.07595825C.10998535 .0309906 .09899902 .0309906 .03199768 .0309906V0L.14498902 .0029907227 .25698854 0V.0309906C.18998719 .0309906 .1789856 .0309906 .1789856 .07595825V.25978089C.1789856 .36431886 .25 .42037965 .31399537 .42037965 .3769989 .42037965 .3880005 .36631776 .3880005 .30926515V.076034549C.3880005 .0309906 .3769989 .0309906 .30999757 .0309906V0L.4229889 .0029907227 .5349884 0V.0309906C.46798707 .0309906 .45700074 .0309906 .45700074 .076034549V.2602234C.45700074 .36431886 .5279999 .42037965 .59199526 .42037965 .6549988 .42037965 .66600039 .36631776 .66600039 .30926515V.076034549C.66600039 .0309906 .6549988 .0309906 .58799746 .0309906V0L.70098879 .0029907227 .8129883 0Z"/>
<path id="font_7_55" d="M.35699464 .63479617C.35699464 .6717987 .31999208 .7050781 .2669983 .7050781 .19699097 .7050781 .11199951 .65179446 .11199951 .5457611V.43066407H.032989503V.3996582H.11199951V.07595825C.11199951 .0309906 .100997928 .0309906 .033996583 .0309906V0L.147995 .0029907227C.18798828 .0029907227 .23498535 .0029907227 .2749939 0V.0309906H.2539978C.17999268 .0309906 .17799378 .04197693 .17799378 .07795715V.3996582H.2919922V.43066407H.1749878V.5467529C.1749878 .63479617 .22299195 .68307498 .2669983 .68307498 .269989 .68307498 .2849884 .68307498 .2999878 .675827 .28799439 .6717987 .269989 .6587982 .269989 .6338043 .269989 .61079409 .28599549 .5907898 .31298829 .5907898 .34199525 .5907898 .35699464 .61079409 .35699464 .63479617Z"/>
</defs>
<g>
<g>
<g clip-path="url(#clip_1)">
<g inkscape:groupmode="layer" inkscape:label="Layer 1">
<g clip-path="url(#clip_2)">
<g style="mix-blend-mode:multiply">
<g clip-path="url(#clip_3)">
<g opacity=".5" style="mix-blend-mode:difference">
<g clip-path="url(#clip_4)">
<path transform="matrix(1.00002,0,0,-1.00005,104.0356,47.064855)" d="M0 0C0-15.36-21.196-27.813-47.344-27.813-73.491-27.813-94.688-15.36-94.688 0-94.688 15.36-73.491 27.813-47.344 27.813-21.196 27.813 0 15.36 0 0" fill="#00aeef"/>
</g>
</g>
<path transform="matrix(1.00002,0,0,-1.00005,104.0356,47.064855)" stroke-width="1" stroke-linecap="butt" stroke-miterlimit="4" stroke-linejoin="miter" fill="none" stroke="#231f20" d="M0 0C0-15.36-21.196-27.813-47.344-27.813-73.491-27.813-94.688-15.36-94.688 0-94.688 15.36-73.491 27.813-47.344 27.813-21.196 27.813 0 15.36 0 0Z"/>
</g>
</g>
<g style="mix-blend-mode:multiply">
<g clip-path="url(#clip_5)">
<g opacity=".5" style="mix-blend-mode:difference">
<g clip-path="url(#clip_6)">
<path transform="matrix(1.00002,0,0,-1.00005,155.59914,46.75234)" d="M0 0C0-15.188-23.155-27.5-51.719-27.5-80.282-27.5-103.438-15.188-103.438 0-103.438 15.188-80.282 27.5-51.719 27.5-23.155 27.5 0 15.188 0 0" fill="#fff200"/>
</g>
</g>
<path transform="matrix(1.00002,0,0,-1.00005,155.59914,46.75234)" stroke-width="1" stroke-linecap="butt" stroke-miterlimit="4" stroke-linejoin="miter" fill="none" stroke="#231f20" d="M0 0C0-15.188-23.155-27.5-51.719-27.5-80.282-27.5-103.438-15.188-103.438 0-103.438 15.188-80.282 27.5-51.719 27.5-23.155 27.5 0 15.188 0 0Z"/>
</g>
</g>
</g>
<path transform="matrix(1.00002,0,0,-1.00005,-7.1033327,101.603679)" stroke-width="1" stroke-linecap="butt" stroke-miterlimit="4" stroke-linejoin="miter" fill="none" stroke="#231f20" d="M171.094 8.867H8.985001V99.297H171.094Z"/>
</g>
</g>
</g>
<use data-text="M" xlink:href="#font_7_74" transform="matrix(9.962799,0,0,-9.963098,19.896203,50.301115)"/>
<use data-text="a" xlink:href="#font_7_28" transform="matrix(9.962799,0,0,-9.963098,29.03209,50.301115)"/>
<use data-text="l" xlink:href="#font_7_72" transform="matrix(9.962799,0,0,-9.963098,34.013498,50.301115)"/>
<use data-text="e" xlink:href="#font_7_50" transform="matrix(9.962799,0,0,-9.963098,36.78315,50.301115)"/>
<use data-text="s" xlink:href="#font_7_98" transform="matrix(9.962799,0,0,-9.963098,41.206636,50.301115)"/>
<use data-text="C" xlink:href="#font_7_42" transform="matrix(9.962799,0,0,-9.963098,106.29794,50.301115)"/>
<use data-text="S" xlink:href="#font_7_97" transform="matrix(9.962799,0,0,-9.963098,113.49107,50.301115)"/>
<use data-text="M" xlink:href="#font_7_74" transform="matrix(9.962799,0,0,-9.963098,122.33804,50.301115)"/>
<use data-text="a" xlink:href="#font_7_28" transform="matrix(9.962799,0,0,-9.963098,131.47394,50.301115)"/>
<use data-text="j" xlink:href="#font_7_68" transform="matrix(9.962799,0,0,-9.963098,136.73429,50.301115)"/>
<use data-text="o" xlink:href="#font_7_81" transform="matrix(9.962799,0,0,-9.963098,139.7829,50.301115)"/>
<use data-text="r" xlink:href="#font_7_96" transform="matrix(9.962799,0,0,-9.963098,144.76428,50.301115)"/>
<use data-text="s" xlink:href="#font_7_98" transform="matrix(9.962799,0,0,-9.963098,148.6697,50.301115)"/>
<use data-text="N" xlink:href="#font_7_76" transform="matrix(9.962799,0,0,-9.963098,32.49646,87.202968)"/>
<use data-text="o" xlink:href="#font_7_81" transform="matrix(9.962799,0,0,-9.963098,39.968568,87.202968)"/>
<use data-text="n" xlink:href="#font_7_77" transform="matrix(9.962799,0,0,-9.963098,44.94995,87.202968)"/>
<use data-text="-" xlink:href="#font_7_64" transform="matrix(9.962799,0,0,-9.963098,50.489259,87.202968)"/>
<use data-text="C" xlink:href="#font_7_42" transform="matrix(9.962799,0,0,-9.963098,53.806886,87.202968)"/>
<use data-text="S" xlink:href="#font_7_97" transform="matrix(9.962799,0,0,-9.963098,61.000017,87.202968)"/>
<use data-text="m" xlink:href="#font_7_75" transform="matrix(9.962799,0,0,-9.963098,69.85695,87.202968)"/>
<use data-text="a" xlink:href="#font_7_28" transform="matrix(9.962799,0,0,-9.963098,78.15596,87.202968)"/>
<use data-text="j" xlink:href="#font_7_68" transform="matrix(9.962799,0,0,-9.963098,83.416309,87.202968)"/>
<use data-text="o" xlink:href="#font_7_81" transform="matrix(9.962799,0,0,-9.963098,86.46492,87.202968)"/>
<use data-text="r" xlink:href="#font_7_96" transform="matrix(9.962799,0,0,-9.963098,91.446308,87.202968)"/>
<use data-text="f" xlink:href="#font_7_55" transform="matrix(9.962799,0,0,-9.963098,98.66934,87.202968)"/>
<use data-text="e" xlink:href="#font_7_50" transform="matrix(9.962799,0,0,-9.963098,101.71796,87.202968)"/>
<use data-text="m" xlink:href="#font_7_75" transform="matrix(9.962799,0,0,-9.963098,106.14143,87.202968)"/>
<use data-text="a" xlink:href="#font_7_28" transform="matrix(9.962799,0,0,-9.963098,114.440448,87.202968)"/>
<use data-text="l" xlink:href="#font_7_72" transform="matrix(9.962799,0,0,-9.963098,119.421848,87.202968)"/>
<use data-text="e" xlink:href="#font_7_50" transform="matrix(9.962799,0,0,-9.963098,122.1915,87.202968)"/>
<use data-text="s" xlink:href="#font_7_98" transform="matrix(9.962799,0,0,-9.963098,126.61499,87.202968)"/>
</g>
</svg>
