<?xml version="1.0" encoding="UTF-8"?>
<svg xmlns="http://www.w3.org/2000/svg" xmlns:xlink="http://www.w3.org/1999/xlink" width="126pt" height="180pt" viewBox="0 0 126 180" version="1.1">
<g id="surface1">
<path style="fill-rule:nonzero;fill:rgb(96.403503%,78.808594%,42.222595%);fill-opacity:1;stroke-width:3;stroke-linecap:butt;stroke-linejoin:miter;stroke:rgb(13.729858%,12.159729%,12.548828%);stroke-opacity:1;stroke-miterlimit:4;" d="M -0.001925 -0.001025 L 32.314481 68.54585 " transform="matrix(1,0,0,-1,10.9863,91.2646)"/>
<path style="fill-rule:nonzero;fill:rgb(96.403503%,78.808594%,42.222595%);fill-opacity:1;stroke-width:3;stroke-linecap:butt;stroke-linejoin:miter;stroke:rgb(13.729858%,12.159729%,12.548828%);stroke-opacity:1;stroke-miterlimit:4;" d="M 0.0015125 -0.00143125 L -31.959425 -41.560025 " transform="matrix(1,0,0,-1,42.9438,49.7056)"/>
<path style="fill:none;stroke-width:3;stroke-linecap:butt;stroke-linejoin:miter;stroke:rgb(13.729858%,12.159729%,12.548828%);stroke-opacity:1;stroke-miterlimit:4;" d="M -0.001925 -0.001025 L 32.275419 14.612256 " transform="matrix(1,0,0,-1,10.9863,91.2646)"/>
<path style="fill-rule:nonzero;fill:rgb(96.403503%,78.808594%,42.222595%);fill-opacity:1;stroke-width:3;stroke-linecap:butt;stroke-linejoin:miter;stroke:rgb(13.729858%,12.159729%,12.548828%);stroke-opacity:1;stroke-miterlimit:4;" d="M 0.0014875 -0.00094375 L -32.002419 12.635775 " transform="matrix(1,0,0,-1,42.9907,103.9014)"/>
<path style="fill:none;stroke-width:1;stroke-linecap:butt;stroke-linejoin:miter;stroke:rgb(13.729858%,12.159729%,12.548828%);stroke-opacity:1;stroke-miterlimit:4;" d="M 0.0009875 -0.00096875 L 31.458019 -38.247062 " transform="matrix(1,0,0,-1,11.8037,92.3545)"/>
<path style="fill-rule:nonzero;fill:rgb(96.403503%,78.808594%,42.222595%);fill-opacity:1;stroke-width:3;stroke-linecap:butt;stroke-linejoin:miter;stroke:rgb(13.729858%,12.159729%,12.548828%);stroke-opacity:1;stroke-miterlimit:4;" d="M -0.00045 0.000975 L -31.609825 65.938475 " transform="matrix(1,0,0,-1,42.5942,157.2041)"/>
<path style="fill-rule:nonzero;fill:rgb(96.403503%,78.808594%,42.222595%);fill-opacity:1;stroke-width:3;stroke-linecap:butt;stroke-linejoin:miter;stroke:rgb(13.729858%,12.159729%,12.548828%);stroke-opacity:1;stroke-miterlimit:4;" d="M -0.00001875 0.00003125 L 29.351544 -82.156219 " transform="matrix(1,0,0,-1,88.1758,9.1055)"/>
<path style="fill:none;stroke-width:3;stroke-linecap:butt;stroke-linejoin:miter;stroke:rgb(13.729858%,12.159729%,12.548828%);stroke-opacity:1;stroke-miterlimit:4;" d="M -0.0009875 -0.00190625 L -30.122081 56.298875 " transform="matrix(1,0,0,-1,118.0713,92.627)"/>
<path style="fill:none;stroke-width:1;stroke-linecap:butt;stroke-linejoin:miter;stroke:rgb(13.729858%,12.159729%,12.548828%);stroke-opacity:1;stroke-miterlimit:4;" d="M -0.00098125 0.000475 L 29.975581 -26.429213 " transform="matrix(1,0,0,-1,87.8252,64.0161)"/>
<path style="fill-rule:nonzero;fill:rgb(96.403503%,78.808594%,42.222595%);fill-opacity:1;stroke-width:3;stroke-linecap:butt;stroke-linejoin:miter;stroke:rgb(13.729858%,12.159729%,12.548828%);stroke-opacity:1;stroke-miterlimit:4;" d="M -0.0009875 -0.00190625 L -29.848644 2.623094 " transform="matrix(1,0,0,-1,118.0713,92.627)"/>
<path style="fill-rule:nonzero;fill:rgb(96.403503%,78.808594%,42.222595%);fill-opacity:1;stroke-width:3;stroke-linecap:butt;stroke-linejoin:miter;stroke:rgb(13.729858%,12.159729%,12.548828%);stroke-opacity:1;stroke-miterlimit:4;" d="M -0.00098125 0.00004375 L 29.702144 27.519575 " transform="matrix(1,0,0,-1,87.8252,118.7852)"/>
<path style="fill-rule:nonzero;fill:rgb(96.403503%,78.808594%,42.222595%);fill-opacity:1;stroke-width:3;stroke-linecap:butt;stroke-linejoin:miter;stroke:rgb(13.729858%,12.159729%,12.548828%);stroke-opacity:1;stroke-miterlimit:4;" d="M 0.00094375 -0.001925 L -29.702181 -53.951144 " transform="matrix(1,0,0,-1,117.5264,91.2637)"/>
<path style="fill:none;stroke-width:1;stroke-linecap:butt;stroke-linejoin:miter;stroke:rgb(13.729858%,12.159729%,12.548828%);stroke-opacity:1;stroke-miterlimit:4;" d="M -0.00095625 -0.00100625 L 29.624044 80.237275 " transform="matrix(1,0,0,-1,87.9033,171.5029)"/>
<path style="fill:none;stroke-width:1;stroke-linecap:butt;stroke-linejoin:miter;stroke:rgb(13.729858%,12.159729%,12.548828%);stroke-opacity:1;stroke-miterlimit:4;" d="M 0.00150625 0.0009375 L 32.677287 12.504844 " transform="matrix(1,0,0,-1,49.5024,130.6025)"/>
<path style="fill-rule:nonzero;fill:rgb(96.403503%,78.808594%,42.222595%);fill-opacity:1;stroke-width:3;stroke-linecap:butt;stroke-linejoin:miter;stroke:rgb(13.729858%,12.159729%,12.548828%);stroke-opacity:1;stroke-miterlimit:4;" d="M -0.0019125 -0.00095625 L -33.2441 13.620137 " transform="matrix(1,0,0,-1,82.1816,118.0967)"/>
<path style="fill:none;stroke-width:1;stroke-linecap:butt;stroke-linejoin:miter;stroke:rgb(13.729858%,12.159729%,12.548828%);stroke-opacity:1;stroke-miterlimit:4;" d="M -0.00001875 -0.00095 L -32.4258 39.510769 " transform="matrix(1,0,0,-1,81.3633,117.2803)"/>
<path style="fill:none;stroke-width:1;stroke-linecap:butt;stroke-linejoin:miter;stroke:rgb(13.729858%,12.159729%,12.548828%);stroke-opacity:1;stroke-miterlimit:4;" d="M -0.00193125 0.00099375 L -33.0449 -14.471663 " transform="matrix(1,0,0,-1,81.9824,90.0049)"/>
<path style="fill:none;stroke-width:3;stroke-linecap:butt;stroke-linejoin:miter;stroke:rgb(13.729858%,12.159729%,12.548828%);stroke-opacity:1;stroke-miterlimit:4;" d="M -0.00193125 0.00099375 L -33.0449 13.051775 " transform="matrix(1,0,0,-1,81.9824,90.0049)"/>
<path style="fill:none;stroke-width:3;stroke-linecap:butt;stroke-linejoin:miter;stroke:rgb(13.729858%,12.159729%,12.548828%);stroke-opacity:1;stroke-miterlimit:4;" d="M -0.0019375 -0.00100625 L 33.24025 12.803681 " transform="matrix(1,0,0,-1,48.666,157.8779)"/>
<path style="fill:none;stroke-width:1;stroke-linecap:butt;stroke-linejoin:miter;stroke:rgb(13.729858%,12.159729%,12.548828%);stroke-opacity:1;stroke-miterlimit:4;" d="M 0.0000375 0.0009875 L 32.453162 -12.807606 " transform="matrix(1,0,0,-1,49.2109,158.6963)"/>
<path style="fill-rule:nonzero;fill:rgb(96.403503%,78.808594%,42.222595%);fill-opacity:1;stroke-width:1;stroke-linecap:butt;stroke-linejoin:miter;stroke:rgb(13.729858%,12.159729%,12.548828%);stroke-opacity:1;stroke-miterlimit:4;" d="M 0.0019125 -0.001 L 31.607381 67.03025 " transform="matrix(1,0,0,-1,49.7559,157.0615)"/>
<path style="fill-rule:nonzero;fill:rgb(96.403503%,78.808594%,42.222595%);fill-opacity:1;stroke-width:1;stroke-linecap:butt;stroke-linejoin:miter;stroke:rgb(13.729858%,12.159729%,12.548828%);stroke-opacity:1;stroke-miterlimit:4;" d="M -0.00195 -0.00101875 L -32.9707 121.252887 " transform="matrix(1,0,0,-1,81.9082,145.0732)"/>
<path style="fill:none;stroke-width:1;stroke-linecap:butt;stroke-linejoin:miter;stroke:rgb(13.729858%,12.159729%,12.548828%);stroke-opacity:1;stroke-miterlimit:4;" d="M 0.00049375 -0.00143125 L 32.453619 -39.509244 " transform="matrix(1,0,0,-1,49.1831,49.7056)"/>
<path style="fill-rule:nonzero;fill:rgb(96.403503%,78.808594%,42.222595%);fill-opacity:1;stroke-width:3;stroke-linecap:butt;stroke-linejoin:miter;stroke:rgb(13.729858%,12.159729%,12.548828%);stroke-opacity:1;stroke-miterlimit:4;" d="M 0.00093125 -0.0014875 L 33.516556 38.14695 " transform="matrix(1,0,0,-1,48.3936,48.6157)"/>
<path style="fill:none;stroke-width:3;stroke-linecap:butt;stroke-linejoin:miter;stroke:rgb(13.729858%,12.159729%,12.548828%);stroke-opacity:1;stroke-miterlimit:4;" d="M 0.0019125 -0.0005125 L 31.955037 -12.508325 " transform="matrix(1,0,0,-1,49.7559,23.8198)"/>
<path style="fill:none;stroke-width:1;stroke-linecap:butt;stroke-linejoin:miter;stroke:rgb(13.729858%,12.159729%,12.548828%);stroke-opacity:1;stroke-miterlimit:4;" d="M 0.00049375 -0.00143125 L 32.797369 -13.32565 " transform="matrix(1,0,0,-1,49.1831,49.7056)"/>
<path style="fill:none;stroke-width:1;stroke-linecap:butt;stroke-linejoin:miter;stroke:rgb(13.729858%,12.159729%,12.548828%);stroke-opacity:1;stroke-miterlimit:4;" d="M 0.0000375 0.00048125 L 32.769569 -38.39405 " transform="matrix(1,0,0,-1,49.2109,24.6372)"/>
<path style="fill:none;stroke-width:1;stroke-linecap:butt;stroke-linejoin:miter;stroke:rgb(13.729858%,12.159729%,12.548828%);stroke-opacity:1;stroke-miterlimit:4;" d="M -0.0009375 0.00045 L 32.36625 12.25045 " transform="matrix(1,0,0,-1,49.54,22.7192)"/>
<path style=" stroke:none;fill-rule:nonzero;fill:rgb(96.403503%,78.808594%,42.222595%);fill-opacity:1;" d="M 49.539062 22.71875 C 49.539062 19.316406 46.746094 16.554688 43.300781 16.554688 C 39.855469 16.554688 37.0625 19.316406 37.0625 22.71875 C 37.0625 26.121094 39.855469 28.882812 43.300781 28.882812 C 46.746094 28.882812 49.539062 26.121094 49.539062 22.71875 "/>
<path style="fill:none;stroke-width:2;stroke-linecap:butt;stroke-linejoin:miter;stroke:rgb(13.729858%,12.159729%,12.548828%);stroke-opacity:1;stroke-miterlimit:4;" d="M -0.0009375 0.00045 C -0.0009375 3.402794 -2.793906 6.164513 -6.239219 6.164513 C -9.684531 6.164513 -12.4775 3.402794 -12.4775 0.00045 C -12.4775 -3.401894 -9.684531 -6.163612 -6.239219 -6.163612 C -2.793906 -6.163612 -0.0009375 -3.401894 -0.0009375 0.00045 Z M -0.0009375 0.00045 " transform="matrix(1,0,0,-1,49.54,22.7192)"/>
<path style=" stroke:none;fill-rule:nonzero;fill:rgb(96.403503%,78.808594%,42.222595%);fill-opacity:1;" d="M 49.183594 49.707031 C 49.183594 46.300781 46.390625 43.542969 42.945312 43.542969 C 39.496094 43.542969 36.703125 46.300781 36.703125 49.707031 C 36.703125 53.109375 39.496094 55.871094 42.945312 55.871094 C 46.390625 55.871094 49.183594 53.109375 49.183594 49.707031 "/>
<path style="fill:none;stroke-width:2;stroke-linecap:butt;stroke-linejoin:miter;stroke:rgb(13.729858%,12.159729%,12.548828%);stroke-opacity:1;stroke-miterlimit:4;" d="M 0.00049375 -0.00143125 C 0.00049375 3.404819 -2.792475 6.162631 -6.237788 6.162631 C -9.687006 6.162631 -12.479975 3.404819 -12.479975 -0.00143125 C -12.479975 -3.403775 -9.687006 -6.165494 -6.237788 -6.165494 C -2.792475 -6.165494 0.00049375 -3.403775 0.00049375 -0.00143125 Z M 0.00049375 -0.00143125 " transform="matrix(1,0,0,-1,49.1831,49.7056)"/>
<path style=" stroke:none;fill-rule:nonzero;fill:rgb(96.403503%,78.808594%,42.222595%);fill-opacity:1;" d="M 49.503906 76.652344 C 49.503906 73.25 46.710938 70.488281 43.265625 70.488281 C 39.816406 70.488281 37.023438 73.25 37.023438 76.652344 C 37.023438 80.054688 39.816406 82.816406 43.265625 82.816406 C 46.710938 82.816406 49.503906 80.054688 49.503906 76.652344 "/>
<path style="fill:none;stroke-width:2;stroke-linecap:butt;stroke-linejoin:miter;stroke:rgb(13.729858%,12.159729%,12.548828%);stroke-opacity:1;stroke-miterlimit:4;" d="M 0.00190625 0.00145625 C 0.00190625 3.4038 -2.791063 6.165519 -6.236375 6.165519 C -9.685594 6.165519 -12.478563 3.4038 -12.478563 0.00145625 C -12.478563 -3.400888 -9.685594 -6.162606 -6.236375 -6.162606 C -2.791063 -6.162606 0.00190625 -3.400888 0.00190625 0.00145625 Z M 0.00190625 0.00145625 " transform="matrix(1,0,0,-1,49.502,76.6538)"/>
<path style=" stroke:none;fill-rule:nonzero;fill:rgb(96.403503%,78.808594%,42.222595%);fill-opacity:1;" d="M 49.230469 103.902344 C 49.230469 100.496094 46.4375 97.738281 42.992188 97.738281 C 39.542969 97.738281 36.75 100.496094 36.75 103.902344 C 36.75 107.304688 39.542969 110.066406 42.992188 110.066406 C 46.4375 110.066406 49.230469 107.304688 49.230469 103.902344 "/>
<path style="fill:none;stroke-width:2;stroke-linecap:butt;stroke-linejoin:miter;stroke:rgb(13.729858%,12.159729%,12.548828%);stroke-opacity:1;stroke-miterlimit:4;" d="M 0.00046875 -0.00004375 C 0.00046875 3.406206 -2.7925 6.164019 -6.237813 6.164019 C -9.687031 6.164019 -12.48 3.406206 -12.48 -0.00004375 C -12.48 -3.402388 -9.687031 -6.164106 -6.237813 -6.164106 C -2.7925 -6.164106 0.00046875 -3.402388 0.00046875 -0.00004375 Z M 0.00046875 -0.00004375 " transform="matrix(1,0,0,-1,49.23,103.9023)"/>
<path style=" stroke:none;fill-rule:nonzero;fill:rgb(96.403503%,78.808594%,42.222595%);fill-opacity:1;" d="M 49.503906 130.601562 C 49.503906 127.199219 46.710938 124.4375 43.265625 124.4375 C 39.816406 124.4375 37.023438 127.199219 37.023438 130.601562 C 37.023438 134.003906 39.816406 136.765625 43.265625 136.765625 C 46.710938 136.765625 49.503906 134.003906 49.503906 130.601562 "/>
<path style="fill:none;stroke-width:2;stroke-linecap:butt;stroke-linejoin:miter;stroke:rgb(13.729858%,12.159729%,12.548828%);stroke-opacity:1;stroke-miterlimit:4;" d="M 0.00150625 0.0009375 C 0.00150625 3.403281 -2.791463 6.165 -6.236775 6.165 C -9.685994 6.165 -12.478963 3.403281 -12.478963 0.0009375 C -12.478963 -3.401406 -9.685994 -6.163125 -6.236775 -6.163125 C -2.791463 -6.163125 0.00150625 -3.401406 0.00150625 0.0009375 Z M 0.00150625 0.0009375 " transform="matrix(1,0,0,-1,49.5024,130.6025)"/>
<path style=" stroke:none;fill-rule:nonzero;fill:rgb(96.403503%,78.808594%,42.222595%);fill-opacity:1;" d="M 49.503906 157.851562 C 49.503906 154.449219 46.710938 151.6875 43.265625 151.6875 C 39.816406 151.6875 37.023438 154.449219 37.023438 157.851562 C 37.023438 161.253906 39.816406 164.015625 43.265625 164.015625 C 46.710938 164.015625 49.503906 161.253906 49.503906 157.851562 "/>
<path style="fill:none;stroke-width:2;stroke-linecap:butt;stroke-linejoin:miter;stroke:rgb(13.729858%,12.159729%,12.548828%);stroke-opacity:1;stroke-miterlimit:4;" d="M 0.00190625 0.0009375 C 0.00190625 3.403281 -2.791063 6.165 -6.236375 6.165 C -9.685594 6.165 -12.478563 3.403281 -12.478563 0.0009375 C -12.478563 -3.401406 -9.685594 -6.163125 -6.236375 -6.163125 C -2.791063 -6.163125 0.00190625 -3.401406 0.00190625 0.0009375 Z M 0.00190625 0.0009375 " transform="matrix(1,0,0,-1,49.502,157.8525)"/>
<path style=" stroke:none;fill-rule:nonzero;fill:rgb(96.403503%,78.808594%,42.222595%);fill-opacity:1;" d="M 94.414062 9.105469 C 94.414062 5.703125 91.621094 2.941406 88.175781 2.941406 C 84.730469 2.941406 81.9375 5.703125 81.9375 9.105469 C 81.9375 12.507812 84.730469 15.269531 88.175781 15.269531 C 91.621094 15.269531 94.414062 12.507812 94.414062 9.105469 "/>
<path style="fill:none;stroke-width:2;stroke-linecap:butt;stroke-linejoin:miter;stroke:rgb(13.729858%,12.159729%,12.548828%);stroke-opacity:1;stroke-miterlimit:4;" d="M -0.0009375 0.00003125 C -0.0009375 3.402375 -2.793906 6.164094 -6.239219 6.164094 C -9.684531 6.164094 -12.4775 3.402375 -12.4775 0.00003125 C -12.4775 -3.402312 -9.684531 -6.164031 -6.239219 -6.164031 C -2.793906 -6.164031 -0.0009375 -3.402312 -0.0009375 0.00003125 Z M -0.0009375 0.00003125 " transform="matrix(1,0,0,-1,94.415,9.1055)"/>
<path style=" stroke:none;fill-rule:nonzero;fill:rgb(96.403503%,78.808594%,42.222595%);fill-opacity:1;" d="M 94.1875 36.328125 C 94.1875 32.921875 91.394531 30.164062 87.949219 30.164062 C 84.503906 30.164062 81.710938 32.921875 81.710938 36.328125 C 81.710938 39.730469 84.503906 42.492188 87.949219 42.492188 C 91.394531 42.492188 94.1875 39.730469 94.1875 36.328125 "/>
<path style="fill:none;stroke-width:2;stroke-linecap:butt;stroke-linejoin:miter;stroke:rgb(13.729858%,12.159729%,12.548828%);stroke-opacity:1;stroke-miterlimit:4;" d="M -0.001 -0.001025 C -0.001 3.405225 -2.793969 6.163038 -6.239281 6.163038 C -9.684594 6.163038 -12.477562 3.405225 -12.477562 -0.001025 C -12.477562 -3.403369 -9.684594 -6.165087 -6.239281 -6.165087 C -2.793969 -6.165087 -0.001 -3.403369 -0.001 -0.001025 Z M -0.001 -0.001025 " transform="matrix(1,0,0,-1,94.1885,36.3271)"/>
<path style=" stroke:none;fill-rule:nonzero;fill:rgb(96.403503%,78.808594%,42.222595%);fill-opacity:1;" d="M 94.460938 63.03125 C 94.460938 59.625 91.667969 56.867188 88.222656 56.867188 C 84.773438 56.867188 81.980469 59.625 81.980469 63.03125 C 81.980469 66.433594 84.773438 69.195312 88.222656 69.195312 C 91.667969 69.195312 94.460938 66.433594 94.460938 63.03125 "/>
<path style="fill:none;stroke-width:2;stroke-linecap:butt;stroke-linejoin:miter;stroke:rgb(13.729858%,12.159729%,12.548828%);stroke-opacity:1;stroke-miterlimit:4;" d="M 0.0000375 -0.00145 C 0.0000375 3.4048 -2.792931 6.162612 -6.238244 6.162612 C -9.687463 6.162612 -12.480431 3.4048 -12.480431 -0.00145 C -12.480431 -3.403794 -9.687463 -6.165513 -6.238244 -6.165513 C -2.792931 -6.165513 0.0000375 -3.403794 0.0000375 -0.00145 Z M 0.0000375 -0.00145 " transform="matrix(1,0,0,-1,94.4609,63.0298)"/>
<path style=" stroke:none;fill-rule:nonzero;fill:rgb(96.403503%,78.808594%,42.222595%);fill-opacity:1;" d="M 94.460938 90.003906 C 94.460938 86.601562 91.667969 83.839844 88.222656 83.839844 C 84.773438 83.839844 81.980469 86.601562 81.980469 90.003906 C 81.980469 93.40625 84.773438 96.167969 88.222656 96.167969 C 91.667969 96.167969 94.460938 93.40625 94.460938 90.003906 "/>
<path style="fill:none;stroke-width:2;stroke-linecap:butt;stroke-linejoin:miter;stroke:rgb(13.729858%,12.159729%,12.548828%);stroke-opacity:1;stroke-miterlimit:4;" d="M 0.0000375 0.00099375 C 0.0000375 3.403337 -2.792931 6.165056 -6.238244 6.165056 C -9.687463 6.165056 -12.480431 3.403337 -12.480431 0.00099375 C -12.480431 -3.40135 -9.687463 -6.163069 -6.238244 -6.163069 C -2.792931 -6.163069 0.0000375 -3.40135 0.0000375 0.00099375 Z M 0.0000375 0.00099375 " transform="matrix(1,0,0,-1,94.4609,90.0049)"/>
<path style=" stroke:none;fill-rule:nonzero;fill:rgb(96.403503%,78.808594%,42.222595%);fill-opacity:1;" d="M 94.460938 117.25 C 94.460938 113.847656 91.667969 111.085938 88.222656 111.085938 C 84.773438 111.085938 81.980469 113.847656 81.980469 117.25 C 81.980469 120.652344 84.773438 123.414062 88.222656 123.414062 C 91.667969 123.414062 94.460938 120.652344 94.460938 117.25 "/>
<path style="fill:none;stroke-width:2;stroke-linecap:butt;stroke-linejoin:miter;stroke:rgb(13.729858%,12.159729%,12.548828%);stroke-opacity:1;stroke-miterlimit:4;" d="M 0.0009375 0.001 C 0.0009375 3.403344 -2.792031 6.165063 -6.237344 6.165063 C -9.686563 6.165063 -12.479531 3.403344 -12.479531 0.001 C -12.479531 -3.401344 -9.686563 -6.163062 -6.237344 -6.163062 C -2.792031 -6.163062 0.0009375 -3.401344 0.0009375 0.001 Z M 0.0009375 0.001 " transform="matrix(1,0,0,-1,94.46,117.251)"/>
<path style=" stroke:none;fill-rule:nonzero;fill:rgb(96.403503%,78.808594%,42.222595%);fill-opacity:1;" d="M 94.460938 144.226562 C 94.460938 140.824219 91.667969 138.0625 88.222656 138.0625 C 84.773438 138.0625 81.980469 140.824219 81.980469 144.226562 C 81.980469 147.628906 84.773438 150.390625 88.222656 150.390625 C 91.667969 150.390625 94.460938 147.628906 94.460938 144.226562 "/>
<path style="fill:none;stroke-width:2;stroke-linecap:butt;stroke-linejoin:miter;stroke:rgb(13.729858%,12.159729%,12.548828%);stroke-opacity:1;stroke-miterlimit:4;" d="M 0.0000375 0.0009375 C 0.0000375 3.403281 -2.792931 6.165 -6.238244 6.165 C -9.687463 6.165 -12.480431 3.403281 -12.480431 0.0009375 C -12.480431 -3.401406 -9.687463 -6.163125 -6.238244 -6.163125 C -2.792931 -6.163125 0.0000375 -3.401406 0.0000375 0.0009375 Z M 0.0000375 0.0009375 " transform="matrix(1,0,0,-1,94.4609,144.2275)"/>
<path style=" stroke:none;fill-rule:nonzero;fill:rgb(96.403503%,78.808594%,42.222595%);fill-opacity:1;" d="M 94.144531 171.503906 C 94.144531 168.097656 91.347656 165.339844 87.90625 165.339844 C 84.457031 165.339844 81.664062 168.097656 81.664062 171.503906 C 81.664062 174.90625 84.457031 177.667969 87.90625 177.667969 C 91.347656 177.667969 94.144531 174.90625 94.144531 171.503906 "/>
<path style="fill:none;stroke-width:2;stroke-linecap:butt;stroke-linejoin:miter;stroke:rgb(13.729858%,12.159729%,12.548828%);stroke-opacity:1;stroke-miterlimit:4;" d="M 0.00193125 -0.00100625 C 0.00193125 3.405244 -2.794944 6.163056 -6.23635 6.163056 C -9.685569 6.163056 -12.478538 3.405244 -12.478538 -0.00100625 C -12.478538 -3.40335 -9.685569 -6.165069 -6.23635 -6.165069 C -2.794944 -6.165069 0.00193125 -3.40335 0.00193125 -0.00100625 Z M 0.00193125 -0.00100625 " transform="matrix(1,0,0,-1,94.1426,171.5029)"/>
<path style=" stroke:none;fill-rule:nonzero;fill:rgb(96.403503%,78.808594%,42.222595%);fill-opacity:1;" d="M 16.757812 90.304688 C 16.757812 86.898438 13.964844 84.140625 10.519531 84.140625 C 7.074219 84.140625 4.28125 86.898438 4.28125 90.304688 C 4.28125 93.707031 7.074219 96.46875 10.519531 96.46875 C 13.964844 96.46875 16.757812 93.707031 16.757812 90.304688 "/>
<path style="fill:none;stroke-width:2;stroke-linecap:butt;stroke-linejoin:miter;stroke:rgb(13.729858%,12.159729%,12.548828%);stroke-opacity:1;stroke-miterlimit:4;" d="M -0.0004875 -0.0009875 C -0.0004875 3.405263 -2.793456 6.163075 -6.238769 6.163075 C -9.684081 6.163075 -12.47705 3.405263 -12.47705 -0.0009875 C -12.47705 -3.403331 -9.684081 -6.16505 -6.238769 -6.16505 C -2.793456 -6.16505 -0.0004875 -3.403331 -0.0004875 -0.0009875 Z M -0.0004875 -0.0009875 " transform="matrix(1,0,0,-1,16.7583,90.3037)"/>
<path style=" stroke:none;fill-rule:nonzero;fill:rgb(96.403503%,78.808594%,42.222595%);fill-opacity:1;" d="M 123.765625 91.265625 C 123.765625 87.859375 120.972656 85.101562 117.527344 85.101562 C 114.078125 85.101562 111.285156 87.859375 111.285156 91.265625 C 111.285156 94.667969 114.078125 97.429688 117.527344 97.429688 C 120.972656 97.429688 123.765625 94.667969 123.765625 91.265625 "/>
<path style="fill:none;stroke-width:2;stroke-linecap:butt;stroke-linejoin:miter;stroke:rgb(13.729858%,12.159729%,12.548828%);stroke-opacity:1;stroke-miterlimit:4;" d="M 0.000025 -0.001925 C 0.000025 3.404325 -2.792944 6.162138 -6.238256 6.162138 C -9.687475 6.162138 -12.480444 3.404325 -12.480444 -0.001925 C -12.480444 -3.404269 -9.687475 -6.165987 -6.238256 -6.165987 C -2.792944 -6.165987 0.000025 -3.404269 0.000025 -0.001925 Z M 0.000025 -0.001925 " transform="matrix(1,0,0,-1,123.7656,91.2637)"/>
</g>
</svg>
