<?xml version="1.0" encoding="UTF-8"?>
<svg xmlns="http://www.w3.org/2000/svg" xmlns:xlink="http://www.w3.org/1999/xlink" width="504pt" height="180pt" viewBox="0 0 504 180" version="1.1">
<g id="surface1">
<path style="fill:none;stroke-width:3;stroke-linecap:butt;stroke-linejoin:miter;stroke:rgb(13.729858%,12.159729%,12.548828%);stroke-opacity:1;stroke-miterlimit:4;" d="M -0.00101875 -0.00093125 L 48.549762 18.635787 " transform="matrix(1,0,0,-1,260.1768,142.9561)"/>
<path style="fill:none;stroke-width:3;stroke-linecap:butt;stroke-linejoin:miter;stroke:rgb(13.729858%,12.159729%,12.548828%);stroke-opacity:1;stroke-miterlimit:4;" d="M -0.001025 0.0000125 L 43.565381 16.722669 " transform="matrix(1,0,0,-1,216.6104,159.6797)"/>
<path style=" stroke:none;fill-rule:nonzero;fill:rgb(13.729858%,12.159729%,12.548828%);fill-opacity:1;" d="M 272.007812 138.414062 C 267.234375 142.617188 261.679688 148.792969 258.832031 154.167969 L 258.625 143.550781 L 251.675781 135.523438 C 257.390625 137.613281 265.648438 138.484375 272.007812 138.414062 "/>
<path style="fill:none;stroke-width:3;stroke-linecap:butt;stroke-linejoin:miter;stroke:rgb(13.729858%,12.159729%,12.548828%);stroke-opacity:1;stroke-miterlimit:4;" d="M 0.00094375 -0.00003125 L 50.227506 -13.457063 " transform="matrix(1,0,0,-1,166.0889,143.6445)"/>
<path style="fill:none;stroke-width:3;stroke-linecap:butt;stroke-linejoin:miter;stroke:rgb(13.729858%,12.159729%,12.548828%);stroke-opacity:1;stroke-miterlimit:4;" d="M -0.00098125 -0.00000625 L 45.077144 -12.078131 " transform="matrix(1,0,0,-1,121.0127,131.5664)"/>
<path style=" stroke:none;fill-rule:nonzero;fill:rgb(13.729858%,12.159729%,12.548828%);fill-opacity:1;" d="M 178.332031 146.925781 C 172 147.519531 163.875 149.25 158.410156 151.925781 L 164.480469 143.214844 L 163.578125 132.636719 C 166.972656 137.683594 173.144531 143.246094 178.332031 146.925781 "/>
<path style="fill:none;stroke-width:3;stroke-linecap:butt;stroke-linejoin:miter;stroke:rgb(13.729858%,12.159729%,12.548828%);stroke-opacity:1;stroke-miterlimit:4;" d="M 0.00101875 0.00098125 L 36.77055 36.770513 " transform="matrix(1,0,0,-1,337.5107,93.8252)"/>
<path style="fill:none;stroke-width:3;stroke-linecap:butt;stroke-linejoin:miter;stroke:rgb(13.729858%,12.159729%,12.548828%);stroke-opacity:1;stroke-miterlimit:4;" d="M -0.00098125 -0.00101875 L 32.999019 32.998981 " transform="matrix(1,0,0,-1,304.5127,126.8232)"/>
<path style=" stroke:none;fill-rule:nonzero;fill:rgb(13.729858%,12.159729%,12.548828%);fill-opacity:1;" d="M 346.472656 84.863281 C 343.820312 90.644531 341.257812 98.546875 340.839844 104.617188 L 336.335938 95 L 326.71875 90.496094 C 332.789062 90.078125 340.691406 87.515625 346.472656 84.863281 "/>
<path style="fill:none;stroke-width:3;stroke-linecap:butt;stroke-linejoin:miter;stroke:rgb(13.729858%,12.159729%,12.548828%);stroke-opacity:1;stroke-miterlimit:4;" d="M -0.00190625 -0.00096875 L 52.002 -0.00096875 " transform="matrix(1,0,0,-1,65.998,129.667)"/>
<path style="fill:none;stroke-width:3;stroke-linecap:butt;stroke-linejoin:miter;stroke:rgb(13.729858%,12.159729%,12.548828%);stroke-opacity:1;stroke-miterlimit:4;" d="M 0.00053125 -0.00096875 L 46.6685 -0.00096875 " transform="matrix(1,0,0,-1,19.3315,129.667)"/>
<path style=" stroke:none;fill-rule:nonzero;fill:rgb(13.729858%,12.159729%,12.548828%);fill-opacity:1;" d="M 78.671875 129.667969 C 72.707031 131.878906 65.308594 135.65625 60.722656 139.652344 L 64.335938 129.667969 L 60.722656 119.683594 C 65.308594 123.679688 72.707031 127.457031 78.671875 129.667969 "/>
<path style="fill:none;stroke-width:3;stroke-linecap:butt;stroke-linejoin:miter;stroke:rgb(13.729858%,12.159729%,12.548828%);stroke-opacity:1;stroke-miterlimit:4;" d="M 0.000975 0.00003125 L 45.032225 26.000031 " transform="matrix(1,0,0,-1,135.3584,41.668)"/>
<path style="fill:none;stroke-width:3;stroke-linecap:butt;stroke-linejoin:miter;stroke:rgb(13.729858%,12.159729%,12.548828%);stroke-opacity:1;stroke-miterlimit:4;" d="M 0.0015125 0.0015 L 40.415575 23.333531 " transform="matrix(1,0,0,-1,94.9438,65.0015)"/>
<path style=" stroke:none;fill-rule:nonzero;fill:rgb(13.729858%,12.159729%,12.548828%);fill-opacity:1;" d="M 146.335938 35.332031 C 142.273438 40.230469 137.757812 47.199219 135.78125 52.953125 L 133.917969 42.5 L 125.796875 35.65625 C 131.769531 36.828125 140.0625 36.398438 146.335938 35.332031 "/>
<path style="fill:none;stroke-width:3;stroke-linecap:butt;stroke-linejoin:miter;stroke:rgb(13.729858%,12.159729%,12.548828%);stroke-opacity:1;stroke-miterlimit:4;" d="M -0.00095 0.000475 L 48.866237 -17.784681 " transform="matrix(1,0,0,-1,226.1572,33.2661)"/>
<path style="fill:none;stroke-width:3;stroke-linecap:butt;stroke-linejoin:miter;stroke:rgb(13.729858%,12.159729%,12.548828%);stroke-opacity:1;stroke-miterlimit:4;" d="M -0.0005125 0.0005125 L 43.85105 -15.960425 " transform="matrix(1,0,0,-1,182.3052,17.3052)"/>
<path style=" stroke:none;fill-rule:nonzero;fill:rgb(13.729858%,12.159729%,12.548828%);fill-opacity:1;" d="M 238.066406 37.601562 C 231.707031 37.640625 223.460938 38.65625 217.785156 40.84375 L 224.59375 32.699219 L 224.617188 22.078125 C 227.558594 27.402344 233.21875 33.484375 238.066406 37.601562 "/>
<path style="fill:none;stroke-width:3;stroke-linecap:butt;stroke-linejoin:miter;stroke:rgb(13.729858%,12.159729%,12.548828%);stroke-opacity:1;stroke-miterlimit:4;" d="M 0.00096875 -0.00046875 L 52.000969 -0.00046875 " transform="matrix(1,0,0,-1,322.667,52.6675)"/>
<path style="fill:none;stroke-width:3;stroke-linecap:butt;stroke-linejoin:miter;stroke:rgb(13.729858%,12.159729%,12.548828%);stroke-opacity:1;stroke-miterlimit:4;" d="M -0.001 -0.00046875 L 46.666969 -0.00046875 " transform="matrix(1,0,0,-1,276.001,52.6675)"/>
<path style=" stroke:none;fill-rule:nonzero;fill:rgb(13.729858%,12.159729%,12.548828%);fill-opacity:1;" d="M 335.339844 52.667969 C 329.378906 54.878906 321.980469 58.65625 317.394531 62.652344 L 321.003906 52.667969 L 317.394531 42.683594 C 321.980469 46.679688 329.378906 50.457031 335.339844 52.667969 "/>
<path style="fill:none;stroke-width:3;stroke-linecap:butt;stroke-linejoin:miter;stroke:rgb(13.729858%,12.159729%,12.548828%);stroke-opacity:1;stroke-miterlimit:4;" d="M 0.000025 -0.00144375 L 48.863306 -17.7866 " transform="matrix(1,0,0,-1,418.8281,69.0884)"/>
<path style="fill:none;stroke-width:3;stroke-linecap:butt;stroke-linejoin:miter;stroke:rgb(13.729858%,12.159729%,12.548828%);stroke-opacity:1;stroke-miterlimit:4;" d="M 0.0009625 -0.00150625 L 43.852525 -15.962444 " transform="matrix(1,0,0,-1,374.9756,53.1274)"/>
<path style=" stroke:none;fill-rule:nonzero;fill:rgb(13.729858%,12.159729%,12.548828%);fill-opacity:1;" d="M 430.738281 73.421875 C 424.378906 73.464844 416.132812 74.480469 410.457031 76.667969 L 417.265625 68.519531 L 417.289062 57.902344 C 420.226562 63.226562 425.890625 69.304688 430.738281 73.421875 "/>
<path style="fill:none;stroke-width:3;stroke-linecap:butt;stroke-linejoin:miter;stroke:rgb(13.729858%,12.159729%,12.548828%);stroke-opacity:1;stroke-miterlimit:4;" d="M -0.00100625 -0.00098125 L 39.834931 33.4248 " transform="matrix(1,0,0,-1,54.6221,98.0498)"/>
<path style="fill:none;stroke-width:3;stroke-linecap:butt;stroke-linejoin:miter;stroke:rgb(13.729858%,12.159729%,12.548828%);stroke-opacity:1;stroke-miterlimit:4;" d="M 0.0015 -0.000975 L 35.747594 29.995119 " transform="matrix(1,0,0,-1,18.8735,128.0459)"/>
<path style=" stroke:none;fill-rule:nonzero;fill:rgb(13.729858%,12.159729%,12.548828%);fill-opacity:1;" d="M 64.332031 89.902344 C 61.183594 95.429688 57.941406 103.078125 57 109.089844 L 53.347656 99.117188 L 44.164062 93.789062 C 50.246094 93.90625 58.339844 92.042969 64.332031 89.902344 "/>
<path style=" stroke:none;fill-rule:nonzero;fill:rgb(96.403503%,78.808594%,42.222595%);fill-opacity:1;" d="M 313.058594 119.832031 C 310.609375 117.46875 306.683594 117.5625 304.289062 120.035156 C 301.898438 122.519531 301.941406 126.441406 304.390625 128.808594 C 306.835938 131.171875 310.761719 131.082031 313.160156 128.601562 C 315.550781 126.121094 315.503906 122.195312 313.058594 119.832031 "/>
<path style="fill:none;stroke-width:2;stroke-linecap:butt;stroke-linejoin:miter;stroke:rgb(13.729858%,12.159729%,12.548828%);stroke-opacity:1;stroke-miterlimit:4;" d="M -0.00000625 -0.00003125 C -2.449225 2.36325 -6.375006 2.2695 -8.769538 -0.203156 C -11.160163 -2.687531 -11.117194 -6.609406 -8.667975 -8.976594 C -6.222663 -11.339875 -2.296881 -11.250031 0.101556 -8.769563 C 2.492181 -6.289094 2.445306 -2.363313 -0.00000625 -0.00003125 Z M -0.00000625 -0.00003125 " transform="matrix(1,0,0,-1,313.0586,119.832)"/>
<path style=" stroke:none;fill-rule:nonzero;fill:rgb(92.306519%,13.475037%,17.376709%);fill-opacity:1;" d="M 23.207031 123.558594 C 20.757812 121.191406 16.832031 121.285156 14.441406 123.761719 C 12.046875 126.242188 12.089844 130.167969 14.539062 132.535156 C 16.988281 134.898438 20.914062 134.804688 23.308594 132.328125 C 25.699219 129.847656 25.65625 125.921875 23.207031 123.558594 "/>
<path style="fill:none;stroke-width:2;stroke-linecap:butt;stroke-linejoin:miter;stroke:rgb(13.729858%,12.159729%,12.548828%);stroke-opacity:1;stroke-miterlimit:4;" d="M -0.00096875 -0.00099375 C -2.450187 2.366194 -6.375969 2.272444 -8.766594 -0.204119 C -11.161125 -2.684587 -11.118156 -6.610369 -8.668937 -8.977556 C -6.219719 -11.340837 -2.293937 -11.247087 0.100594 -8.770525 C 2.491219 -6.290056 2.44825 -2.364275 -0.00096875 -0.00099375 Z M -0.00096875 -0.00099375 " transform="matrix(1,0,0,-1,23.208,123.5576)"/>
<path style=" stroke:none;fill-rule:nonzero;fill:rgb(96.403503%,78.808594%,42.222595%);fill-opacity:1;" d="M 184.726562 11.179688 C 182.277344 8.816406 178.351562 8.910156 175.960938 11.386719 C 173.5625 13.867188 173.609375 17.792969 176.058594 20.160156 C 178.503906 22.523438 182.433594 22.429688 184.828125 19.949219 C 187.21875 17.46875 187.175781 13.542969 184.726562 11.179688 "/>
<path style="fill:none;stroke-width:2;stroke-linecap:butt;stroke-linejoin:miter;stroke:rgb(13.729858%,12.159729%,12.548828%);stroke-opacity:1;stroke-miterlimit:4;" d="M 0.0004625 0.0000125 C -2.448756 2.363294 -6.374538 2.269544 -8.765163 -0.207019 C -11.1636 -2.687488 -11.116725 -6.613269 -8.667506 -8.980456 C -6.222194 -11.343738 -2.292506 -11.249988 0.102025 -8.769519 C 2.49265 -6.28905 2.449681 -2.363269 0.0004625 0.0000125 Z M 0.0004625 0.0000125 " transform="matrix(1,0,0,-1,184.7261,11.1797)"/>
<path style=" stroke:none;fill-rule:nonzero;fill:rgb(96.403503%,78.808594%,42.222595%);fill-opacity:1;" d="M 98.792969 60.136719 C 96.34375 57.769531 92.417969 57.863281 90.023438 60.339844 C 87.628906 62.820312 87.671875 66.746094 90.121094 69.113281 C 92.570312 71.476562 96.496094 71.382812 98.890625 68.90625 C 101.285156 66.425781 101.238281 62.5 98.792969 60.136719 "/>
<path style="fill:none;stroke-width:2;stroke-linecap:butt;stroke-linejoin:miter;stroke:rgb(13.729858%,12.159729%,12.548828%);stroke-opacity:1;stroke-miterlimit:4;" d="M 0.00146875 -0.00141875 C -2.44775 2.365769 -6.373531 2.272019 -8.768063 -0.204544 C -11.162594 -2.685012 -11.119625 -6.610794 -8.670406 -8.977981 C -6.221188 -11.341262 -2.295406 -11.247512 0.099125 -8.77095 C 2.493656 -6.290481 2.446781 -2.3647 0.00146875 -0.00141875 Z M 0.00146875 -0.00141875 " transform="matrix(1,0,0,-1,98.7915,60.1353)"/>
<path style=" stroke:none;fill-rule:nonzero;fill:rgb(18.000793%,70.561218%,27.865601%);fill-opacity:1;" d="M 379.308594 48.640625 C 376.859375 46.273438 372.933594 46.367188 370.539062 48.84375 C 368.148438 51.324219 368.191406 55.25 370.640625 57.617188 C 373.085938 59.980469 377.015625 59.886719 379.410156 57.410156 C 381.800781 54.929688 381.757812 51.003906 379.308594 48.640625 "/>
<path style="fill:none;stroke-width:2;stroke-linecap:butt;stroke-linejoin:miter;stroke:rgb(13.729858%,12.159729%,12.548828%);stroke-opacity:1;stroke-miterlimit:4;" d="M -0.00190625 -0.001425 C -2.451125 2.365762 -6.376906 2.272012 -8.771437 -0.20455 C -11.162062 -2.685019 -11.119094 -6.6108 -8.669875 -8.977988 C -6.224562 -11.341269 -2.294875 -11.247519 0.0996563 -8.770956 C 2.490281 -6.290488 2.447313 -2.364706 -0.00190625 -0.001425 Z M -0.00190625 -0.001425 " transform="matrix(1,0,0,-1,379.3105,48.6392)"/>
<path style=" stroke:none;fill-rule:nonzero;fill:rgb(96.403503%,78.808594%,42.222595%);fill-opacity:1;" d="M 283.335938 49.179688 C 280.886719 46.816406 276.960938 46.90625 274.570312 49.386719 C 272.175781 51.867188 272.21875 55.792969 274.667969 58.15625 C 277.117188 60.519531 281.042969 60.429688 283.4375 57.949219 C 285.828125 55.46875 285.78125 51.542969 283.335938 49.179688 "/>
<path style="fill:none;stroke-width:2;stroke-linecap:butt;stroke-linejoin:miter;stroke:rgb(13.729858%,12.159729%,12.548828%);stroke-opacity:1;stroke-miterlimit:4;" d="M -0.0009625 0.0000125 C -2.450181 2.363294 -6.375962 2.27345 -8.766587 -0.207019 C -11.161119 -2.687488 -11.11815 -6.613269 -8.668931 -8.97655 C -6.219712 -11.339831 -2.293931 -11.249988 0.1006 -8.769519 C 2.491225 -6.28905 2.44435 -2.363269 -0.0009625 0.0000125 Z M -0.0009625 0.0000125 " transform="matrix(1,0,0,-1,283.3369,49.1797)"/>
<path style=" stroke:none;fill-rule:nonzero;fill:rgb(94.706726%,37.997437%,72.03064%);fill-opacity:1;" d="M 472.027344 82.386719 C 469.578125 80.023438 465.652344 80.113281 463.257812 82.59375 C 460.867188 85.070312 460.910156 88.996094 463.359375 91.363281 C 465.808594 93.726562 469.734375 93.636719 472.128906 91.15625 C 474.519531 88.675781 474.476562 84.75 472.027344 82.386719 "/>
<path style="fill:none;stroke-width:2;stroke-linecap:butt;stroke-linejoin:miter;stroke:rgb(13.729858%,12.159729%,12.548828%);stroke-opacity:1;stroke-miterlimit:4;" d="M 0.00004375 -0.00101875 C -2.449175 2.362262 -6.374956 2.272419 -8.769487 -0.20805 C -11.160112 -2.684613 -11.117144 -6.610394 -8.667925 -8.977581 C -6.218706 -11.340863 -2.292925 -11.251019 0.101606 -8.77055 C 2.492231 -6.290081 2.449263 -2.3643 0.00004375 -0.00101875 Z M 0.00004375 -0.00101875 " transform="matrix(1,0,0,-1,472.0273,82.3857)"/>
<path style=" stroke:none;fill-rule:nonzero;fill:rgb(96.403503%,78.808594%,42.222595%);fill-opacity:1;" d="M 223.003906 153.667969 C 220.554688 151.304688 216.628906 151.394531 214.234375 153.871094 C 211.839844 156.351562 211.882812 160.277344 214.332031 162.644531 C 216.78125 165.007812 220.707031 164.914062 223.101562 162.4375 C 225.496094 159.957031 225.449219 156.03125 223.003906 153.667969 "/>
<path style="fill:none;stroke-width:2;stroke-linecap:butt;stroke-linejoin:miter;stroke:rgb(13.729858%,12.159729%,12.548828%);stroke-opacity:1;stroke-miterlimit:4;" d="M 0.00050625 0.00003125 C -2.448712 2.363313 -6.374494 2.273469 -8.769025 -0.203094 C -11.163556 -2.683562 -11.120587 -6.609344 -8.671369 -8.976531 C -6.22215 -11.339812 -2.296369 -11.246062 0.0981625 -8.7695 C 2.492694 -6.289031 2.445819 -2.36325 0.00050625 0.00003125 Z M 0.00050625 0.00003125 " transform="matrix(1,0,0,-1,223.0034,153.668)"/>
<path style=" stroke:none;fill-rule:nonzero;fill:rgb(96.403503%,78.808594%,42.222595%);fill-opacity:1;" d="M 125.347656 127.078125 C 122.898438 124.714844 118.972656 124.804688 116.578125 127.28125 C 114.183594 129.765625 114.230469 133.6875 116.679688 136.054688 C 119.125 138.417969 123.050781 138.324219 125.449219 135.847656 C 127.839844 133.367188 127.792969 129.441406 125.347656 127.078125 "/>
<path style="fill:none;stroke-width:2;stroke-linecap:butt;stroke-linejoin:miter;stroke:rgb(13.729858%,12.159729%,12.548828%);stroke-opacity:1;stroke-miterlimit:4;" d="M 0.00045625 -0.001025 C -2.448763 2.362256 -6.374544 2.272413 -8.769075 -0.20415 C -11.163606 -2.688525 -11.116731 -6.6104 -8.667513 -8.977587 C -6.2222 -11.340869 -2.296419 -11.247119 0.102019 -8.770556 C 2.492644 -6.290087 2.445769 -2.364306 0.00045625 -0.001025 Z M 0.00045625 -0.001025 " transform="matrix(1,0,0,-1,125.3472,127.0771)"/>
</g>
</svg>
