<?xml version="1.0" encoding="utf-8"?>
<!-- Generator: Adobe Illustrator 28.2.0, SVG Export Plug-In . SVG Version: 6.00 Build 0)  -->
<svg version="1.1" id="Layer_1" xmlns="http://www.w3.org/2000/svg" xmlns:xlink="http://www.w3.org/1999/xlink" x="0px" y="0px"
	 viewBox="0 0 223.99 259.16" style="enable-background:new 0 0 223.99 259.16;" xml:space="preserve">
<style type="text/css">
	.st0{fill:none;stroke:#000000;stroke-width:3;}
	.st1{fill:#F7CD83;stroke:#000000;stroke-width:4;}
	.st2{font-family:'Arial-ItalicMT';}
	.st3{font-size:14.4px;}
</style>
<g>
	<line class="st0" x1="44.8" y1="172.89" x2="176" y2="236.89"/>
	<line class="st0" x1="130.4" y1="160.35" x2="91.73" y2="230.49"/>
	<line class="st0" x1="22.4" y1="47.02" x2="103.47" y2="21.42"/>
	<line class="st0" x1="105.6" y1="22.49" x2="149.33" y2="83.29"/>
	<line class="st0" x1="181.6" y1="32.35" x2="152.53" y2="85.42"/>
	<line class="st0" x1="152.53" y1="85.42" x2="130.4" y2="160.35"/>
	<line class="st0" x1="130.4" y1="160.35" x2="194.56" y2="173.15"/>
	<line class="st0" x1="198.4" y1="171.82" x2="176" y2="236.89"/>
	<line class="st0" x1="91.73" y1="230.49" x2="176" y2="236.89"/>
	<line class="st0" x1="41.6" y1="171.82" x2="91.73" y2="230.49"/>
	<line class="st0" x1="22.4" y1="47.02" x2="74.67" y2="92.89"/>
	<line class="st0" x1="77.87" y1="95.02" x2="44.8" y2="172.89"/>
	<line class="st0" x1="77.87" y1="95.02" x2="152.53" y2="85.42"/>
	<line class="st0" x1="105.6" y1="22.49" x2="181.6" y2="32.35"/>
	<path class="st1" d="M28.64,47.02c0-3.18-2.8-5.76-6.24-5.76c-3.45,0-6.24,2.58-6.24,5.76c0,3.18,2.79,5.76,6.24,5.76
		C25.85,52.78,28.64,50.2,28.64,47.02z"/>
	<path class="st1" d="M111.84,22.49c0-3.18-2.79-5.76-6.24-5.76c-3.45,0-6.24,2.58-6.24,5.76c0,3.18,2.79,5.76,6.24,5.76
		C109.05,28.25,111.84,25.67,111.84,22.49z"/>
	<path class="st1" d="M187.84,32.35c0-3.18-2.79-5.76-6.24-5.76c-3.45,0-6.24,2.58-6.24,5.76c0,3.18,2.79,5.76,6.24,5.76
		C185.05,38.11,187.84,35.53,187.84,32.35z"/>
	<path class="st1" d="M84.11,95.02c0-3.18-2.79-5.76-6.24-5.76c-3.45,0-6.24,2.58-6.24,5.76c0,3.18,2.79,5.76,6.24,5.76
		C81.31,100.78,84.11,98.2,84.11,95.02z"/>
	<path class="st1" d="M158.77,85.42c0-3.18-2.79-5.76-6.24-5.76c-3.45,0-6.24,2.58-6.24,5.76c0,3.18,2.79,5.76,6.24,5.76
		C155.98,91.18,158.77,88.6,158.77,85.42z"/>
	<path class="st1" d="M51.04,172.89c0-3.18-2.79-5.76-6.24-5.76c-3.45,0-6.24,2.58-6.24,5.76c0,3.18,2.79,5.76,6.24,5.76
		C48.25,178.65,51.04,176.07,51.04,172.89z"/>
	<path class="st1" d="M136.64,160.35c0-3.18-2.79-5.76-6.24-5.76c-3.45,0-6.24,2.58-6.24,5.76c0,3.18,2.79,5.76,6.24,5.76
		C133.85,166.11,136.64,163.53,136.64,160.35z"/>
	<path class="st1" d="M207.04,173.15c0-3.18-2.8-5.76-6.24-5.76s-6.24,2.58-6.24,5.76c0,3.18,2.79,5.76,6.24,5.76
		S207.04,176.33,207.04,173.15z"/>
	<path class="st1" d="M97.97,230.49c0-3.18-2.79-5.76-6.24-5.76c-3.45,0-6.24,2.58-6.24,5.76c0,3.18,2.79,5.76,6.24,5.76
		C95.18,236.25,97.97,233.67,97.97,230.49z"/>
	<path class="st1" d="M182.24,236.89c0-3.18-2.79-5.76-6.24-5.76c-3.45,0-6.24,2.58-6.24,5.76c0,3.18,2.79,5.76,6.24,5.76
		C179.45,242.65,182.24,240.07,182.24,236.89z"/>
	<text transform="matrix(1 0 0 1 0 46.4865)" class="st2 st3">1</text>
	<text transform="matrix(1 0 0 1 166.3999 90.2204)" class="st2 st3">2</text>
	<text transform="matrix(1 0 0 1 112 171.2873)" class="st2 st3">3</text>
	<text transform="matrix(1 0 0 1 26.668 192.6203)" class="st2 st3">4</text>
	<text transform="matrix(1 0 0 1 90.667 12.3537)" class="st2 st3">5</text>
	<text transform="matrix(1 0 0 1 196.2671 34.7531)" class="st2 st3">6</text>
	<text transform="matrix(1 0 0 1 54.4004 106.2199)" class="st2 st3">7</text>
	<text transform="matrix(1 0 0 1 215.8667 179.9533)" class="st2 st3">8</text>
	<text transform="matrix(1 0 0 1 188.8003 250.2199)" class="st2 st3">9</text>
	<text transform="matrix(1 0 0 1 74.668 254.4865)" class="st2 st3">10</text>
</g>
</svg>
