<?xml version="1.0" encoding="utf-8"?>
<!-- Generator: Adobe Illustrator 28.2.0, SVG Export Plug-In . SVG Version: 6.00 Build 0)  -->
<svg version="1.1" id="Layer_1" xmlns="http://www.w3.org/2000/svg" xmlns:xlink="http://www.w3.org/1999/xlink" x="0px" y="0px"
	 viewBox="0 0 300.94 309.03" style="enable-background:new 0 0 300.94 309.03;" xml:space="preserve">
<style type="text/css">
	.st0{fill:none;stroke:#000000;stroke-width:3;}
	.st1{fill:none;stroke:#000000;stroke-width:4;}
	.st2{fill:#F7CD83;stroke:#000000;stroke-width:4;}
	.st3{font-family:'Arial-ItalicMT';}
	.st4{font-size:14.4px;}
	.st5{font-family:'Palatino-Bold';}
	.st6{font-size:18px;}
	.st7{font-family:'Palatino-Roman';}
</style>
<g>
	<line class="st0" x1="79.34" y1="131.74" x2="106.78" y2="215.39"/>
	<g>
		<line class="st1" x1="62.74" y1="280.2" x2="106.78" y2="215.39"/>
		<line class="st1" x1="239.21" y1="279.7" x2="194.96" y2="215.54"/>
		<line class="st1" x1="222.53" y1="131.15" x2="293.92" y2="111.34"/>
		<line class="st1" x1="7.49" y1="111.34" x2="79.34" y2="131.74"/>
		<line class="st1" x1="150.7" y1="7.29" x2="150.7" y2="79.33"/>
		<polygon class="st0" points="62.19,279.7 7.49,111.34 150.7,7.29 293.92,111.34 239.21,279.7 		"/>
		<path class="st2" d="M68.18,280.2c0-2.77-2.43-5.02-5.44-5.02c-3,0-5.44,2.25-5.44,5.02c0,2.77,2.43,5.02,5.44,5.02
			C65.75,285.22,68.18,282.98,68.18,280.2z"/>
		<path class="st2" d="M12.88,111.98c0-2.77-2.43-5.02-5.44-5.02c-3,0-5.44,2.25-5.44,5.02c0,2.77,2.43,5.02,5.44,5.02
			C10.44,117,12.88,114.75,12.88,111.98z"/>
		<path class="st2" d="M156.14,7.29c0-2.77-2.43-5.02-5.44-5.02c-3,0-5.44,2.25-5.44,5.02c0,2.77,2.43,5.02,5.44,5.02
			C153.71,12.31,156.14,10.06,156.14,7.29z"/>
		<path class="st2" d="M298.94,111.4c0-2.77-2.43-5.02-5.44-5.02c-3,0-5.44,2.25-5.44,5.02c0,2.77,2.44,5.02,5.44,5.02
			C296.51,116.42,298.94,114.17,298.94,111.4z"/>
		<path class="st2" d="M244.1,279.3c0-2.77-2.43-5.02-5.44-5.02c-3,0-5.44,2.25-5.44,5.02c0,2.77,2.43,5.02,5.44,5.02
			C241.66,284.32,244.1,282.07,244.1,279.3z"/>
		<g>
			<line class="st1" x1="79.34" y1="131.74" x2="222.53" y2="131.15"/>
			<line class="st1" x1="222.53" y1="131.15" x2="106.45" y2="215.54"/>
			<path class="st2" d="M227.97,131.15c0-2.77-2.43-5.02-5.44-5.02c-3,0-5.44,2.25-5.44,5.02c0,2.77,2.43,5.02,5.44,5.02
				C225.53,136.17,227.97,133.92,227.97,131.15z"/>
			<line class="st1" x1="150.35" y1="79.19" x2="194.96" y2="215.54"/>
			<line class="st1" x1="194.96" y1="215.54" x2="79.34" y2="131.74"/>
			<path class="st2" d="M200.18,215.28c0-2.77-2.43-5.02-5.44-5.02c-3,0-5.44,2.25-5.44,5.02c0,2.77,2.43,5.02,5.44,5.02
				C197.74,220.3,200.18,218.05,200.18,215.28z"/>
			<line class="st1" x1="106.45" y1="215.54" x2="150.7" y2="79.33"/>
			<path class="st2" d="M112.22,215.39c0-2.77-2.43-5.02-5.44-5.02c-3,0-5.44,2.25-5.44,5.02c0,2.77,2.43,5.02,5.44,5.02
				C109.78,220.41,112.22,218.16,112.22,215.39z"/>
			<path class="st2" d="M84.77,131.74c0-2.77-2.43-5.02-5.44-5.02c-3,0-5.44,2.25-5.44,5.02c0,2.77,2.43,5.02,5.44,5.02
				C82.34,136.75,84.77,134.51,84.77,131.74z"/>
			<path class="st2" d="M155.79,79.19c0-2.77-2.43-5.02-5.44-5.02c-3,0-5.44,2.25-5.44,5.02c0,2.77,2.43,5.02,5.44,5.02
				C153.36,84.21,155.79,81.96,155.79,79.19z"/>
		</g>
	</g>
	<text transform="matrix(1 0 0 1 131.7264 75.6872)" class="st3 st4">1</text>
	<text transform="matrix(1 0 0 1 235.7259 304.3527)" class="st3 st4">8</text>
	<text transform="matrix(1 0 0 1 226.0599 151.0202)" class="st3 st4">9</text>
	<text transform="matrix(1 0 0 1 205.3938 218.3527)" class="st3 st4">5</text>
	<text transform="matrix(1 0 0 1 126.7264 12.3537)" class="st3 st4">3</text>
	<text transform="matrix(1 0 0 1 73.3934 122.3532)" class="st3 st4">10</text>
	<text transform="matrix(1 0 0 1 116.0603 230.3527)" class="st3 st4">7</text>
	<text transform="matrix(1 0 0 1 291.3948 98.3532)" class="st3 st4">2</text>
	<text transform="matrix(1 0 0 1 56.7264 301.6857)" class="st3 st4">4</text>
	<text transform="matrix(1 0 0 1 1.3934 99.6872)" class="st3 st4">6</text>
</g>
<text transform="matrix(1 0 0 1 14.2915 275.1849)" class="st5 st6">G</text>
<text transform="matrix(0.583 0 0 0.583 29.2857 281.179)" class="st7 st6">5</text>
</svg>
