<?xml version="1.0" encoding="utf-8"?>
<!-- Generator: Adobe Illustrator 28.0.0, SVG Export Plug-In . SVG Version: 6.00 Build 0)  -->
<svg version="1.1" id="Layer_1" xmlns="http://www.w3.org/2000/svg" xmlns:xlink="http://www.w3.org/1999/xlink" x="0px" y="0px"
	 viewBox="0 0 447 192" style="enable-background:new 0 0 447 192;" xml:space="preserve">
<style type="text/css">
	.st0{clip-path:url(#SVGID_00000012469682960388483650000010489267439907520907_);fill:none;stroke:#000000;stroke-width:2;}
	.st1{clip-path:url(#SVGID_00000012469682960388483650000010489267439907520907_);}
	.st2{font-family:'Palatino-Roman';}
	.st3{font-size:14px;}
	.st4{clip-path:url(#SVGID_00000012469682960388483650000010489267439907520907_);fill:#FFFFFF;}
</style>
<g>
	<defs>
		<rect id="SVGID_1_" y="0.33" width="446.5" height="191.67"/>
	</defs>
	<clipPath id="SVGID_00000171707527370396641310000013002567852140985756_">
		<use xlink:href="#SVGID_1_"  style="overflow:visible;"/>
	</clipPath>
	
		<line style="clip-path:url(#SVGID_00000171707527370396641310000013002567852140985756_);fill:none;stroke:#000000;stroke-width:2;" x1="371.5" y1="17.84" x2="270.5" y2="55.84"/>
	
		<line style="clip-path:url(#SVGID_00000171707527370396641310000013002567852140985756_);fill:none;stroke:#000000;stroke-width:2;" x1="91.5" y1="40.84" x2="170.5" y2="71.84"/>
	
		<line style="clip-path:url(#SVGID_00000171707527370396641310000013002567852140985756_);fill:none;stroke:#000000;stroke-width:2;" x1="170.5" y1="71.84" x2="105.5" y2="114.84"/>
	
		<line style="clip-path:url(#SVGID_00000171707527370396641310000013002567852140985756_);fill:none;stroke:#000000;stroke-width:2;" x1="105.5" y1="114.84" x2="254.5" y2="175.84"/>
	
		<line style="clip-path:url(#SVGID_00000171707527370396641310000013002567852140985756_);fill:none;stroke:#000000;stroke-width:2;" x1="46.5" y1="82.84" x2="194.5" y2="121.84"/>
	
		<line style="clip-path:url(#SVGID_00000171707527370396641310000013002567852140985756_);fill:none;stroke:#000000;stroke-width:2;" x1="91.5" y1="40.84" x2="26.5" y2="151.84"/>
	
		<line style="clip-path:url(#SVGID_00000171707527370396641310000013002567852140985756_);fill:none;stroke:#000000;stroke-width:2;" x1="3.5" y1="29.84" x2="46.5" y2="82.84"/>
	
		<line style="clip-path:url(#SVGID_00000171707527370396641310000013002567852140985756_);fill:none;stroke:#000000;stroke-width:2;" x1="195.5" y1="23.84" x2="46.5" y2="82.84"/>
	
		<line style="clip-path:url(#SVGID_00000171707527370396641310000013002567852140985756_);fill:none;stroke:#000000;stroke-width:2;" x1="170.5" y1="71.84" x2="289.5" y2="106.84"/>
	
		<line style="clip-path:url(#SVGID_00000171707527370396641310000013002567852140985756_);fill:none;stroke:#000000;stroke-width:2;" x1="289.5" y1="106.84" x2="320.5" y2="147.84"/>
	
		<line style="clip-path:url(#SVGID_00000171707527370396641310000013002567852140985756_);fill:none;stroke:#000000;stroke-width:2;" x1="170.5" y1="71.84" x2="314.5" y2="17.84"/>
	
		<line style="clip-path:url(#SVGID_00000171707527370396641310000013002567852140985756_);fill:none;stroke:#000000;stroke-width:2;" x1="194.5" y1="121.84" x2="270.5" y2="55.84"/>
	
		<line style="clip-path:url(#SVGID_00000171707527370396641310000013002567852140985756_);fill:none;stroke:#000000;stroke-width:2;" x1="195.5" y1="23.84" x2="270.5" y2="55.84"/>
	
		<line style="clip-path:url(#SVGID_00000171707527370396641310000013002567852140985756_);fill:none;stroke:#000000;stroke-width:2;" x1="194.5" y1="121.84" x2="154.5" y2="153.84"/>
	
		<line style="clip-path:url(#SVGID_00000171707527370396641310000013002567852140985756_);fill:none;stroke:#000000;stroke-width:2;" x1="323.5" y1="148.84" x2="392.5" y2="174.84"/>
	
		<line style="clip-path:url(#SVGID_00000171707527370396641310000013002567852140985756_);fill:none;stroke:#000000;stroke-width:2;" x1="377.5" y1="79.84" x2="320.5" y2="147.84"/>
	
		<line style="clip-path:url(#SVGID_00000171707527370396641310000013002567852140985756_);fill:none;stroke:#000000;stroke-width:2;" x1="377.5" y1="79.84" x2="426.5" y2="139.84"/>
	
		<line style="clip-path:url(#SVGID_00000171707527370396641310000013002567852140985756_);fill:none;stroke:#000000;stroke-width:2;" x1="426.5" y1="139.84" x2="392.5" y2="174.84"/>
	
		<line style="clip-path:url(#SVGID_00000171707527370396641310000013002567852140985756_);fill:none;stroke:#000000;stroke-width:2;" x1="289.5" y1="106.84" x2="254.5" y2="175.84"/>
	
		<line style="clip-path:url(#SVGID_00000171707527370396641310000013002567852140985756_);fill:none;stroke:#000000;stroke-width:2;" x1="254.5" y1="175.84" x2="426.5" y2="139.84"/>
	<path style="clip-path:url(#SVGID_00000171707527370396641310000013002567852140985756_);" d="M397.5,173.84c0-3.31-2.69-6-6-6
		c-3.31,0-6,2.69-6,6c0,3.31,2.69,6,6,6C394.82,179.84,397.5,177.15,397.5,173.84"/>
	
		<circle style="clip-path:url(#SVGID_00000171707527370396641310000013002567852140985756_);fill:none;stroke:#000000;stroke-width:2;" cx="391.5" cy="173.84" r="6"/>
	<path style="clip-path:url(#SVGID_00000171707527370396641310000013002567852140985756_);" d="M98.5,40.84c0-3.31-2.69-6-6-6
		s-6,2.69-6,6c0,3.31,2.69,6,6,6S98.5,44.15,98.5,40.84"/>
	
		<circle style="clip-path:url(#SVGID_00000171707527370396641310000013002567852140985756_);fill:none;stroke:#000000;stroke-width:2;" cx="92.5" cy="40.84" r="6"/>
	<path style="clip-path:url(#SVGID_00000171707527370396641310000013002567852140985756_);" d="M176.5,71.84c0-3.31-2.69-6-6-6
		c-3.31,0-6,2.69-6,6c0,3.31,2.69,6,6,6C173.82,77.84,176.5,75.15,176.5,71.84"/>
	
		<circle style="clip-path:url(#SVGID_00000171707527370396641310000013002567852140985756_);fill:none;stroke:#000000;stroke-width:2;" cx="170.5" cy="71.84" r="6"/>
	<path style="clip-path:url(#SVGID_00000171707527370396641310000013002567852140985756_);" d="M295.5,106.84c0-3.31-2.69-6-6-6
		c-3.31,0-6,2.69-6,6c0,3.31,2.69,6,6,6C292.82,112.84,295.5,110.15,295.5,106.84"/>
	
		<circle style="clip-path:url(#SVGID_00000171707527370396641310000013002567852140985756_);fill:none;stroke:#000000;stroke-width:2;" cx="289.5" cy="106.84" r="6"/>
	<path style="clip-path:url(#SVGID_00000171707527370396641310000013002567852140985756_);" d="M325.5,147.84c0-3.31-2.69-6-6-6
		c-3.31,0-6,2.69-6,6c0,3.31,2.69,6,6,6C322.82,153.84,325.5,151.15,325.5,147.84"/>
	
		<circle style="clip-path:url(#SVGID_00000171707527370396641310000013002567852140985756_);fill:none;stroke:#000000;stroke-width:2;" cx="319.5" cy="147.84" r="6"/>
	<g style="clip-path:url(#SVGID_00000171707527370396641310000013002567852140985756_);">
		<text transform="matrix(1 0 0 1 10 158.8369)" class="st2 st3">1</text>
	</g>
	<g style="clip-path:url(#SVGID_00000171707527370396641310000013002567852140985756_);">
		<text transform="matrix(1 0 0 1 140.8369 167.8379)" class="st2 st3">1</text>
	</g>
	<g style="clip-path:url(#SVGID_00000171707527370396641310000013002567852140985756_);">
		<text transform="matrix(1 0 0 1 239.6689 187.9189)" class="st2 st3">1</text>
	</g>
	<g style="clip-path:url(#SVGID_00000171707527370396641310000013002567852140985756_);">
		<text transform="matrix(1 0 0 1 439.5029 141.8379)" class="st2 st3">2</text>
	</g>
	<g style="clip-path:url(#SVGID_00000171707527370396641310000013002567852140985756_);">
		<text transform="matrix(1 0 0 1 211.1699 125.8389)" class="st2 st3">2</text>
	</g>
	<g style="clip-path:url(#SVGID_00000171707527370396641310000013002567852140985756_);">
		<text transform="matrix(1 0 0 1 335.5029 146.3359)" class="st2 st3">2</text>
	</g>
	<g style="clip-path:url(#SVGID_00000171707527370396641310000013002567852140985756_);">
		<text transform="matrix(1 0 0 1 303.5029 107.8379)" class="st2 st3">3</text>
	</g>
	<g style="clip-path:url(#SVGID_00000171707527370396641310000013002567852140985756_);">
		<text transform="matrix(1 0 0 1 91.5029 120.8379)" class="st2 st3">2</text>
	</g>
	<g style="clip-path:url(#SVGID_00000171707527370396641310000013002567852140985756_);">
		<text transform="matrix(1 0 0 1 391.5029 81.3442)" class="st2 st3">3</text>
	</g>
	<g style="clip-path:url(#SVGID_00000171707527370396641310000013002567852140985756_);">
		<text transform="matrix(1 0 0 1 17 29.8379)" class="st2 st3">4</text>
	</g>
	<g style="clip-path:url(#SVGID_00000171707527370396641310000013002567852140985756_);">
		<text transform="matrix(1 0 0 1 204.3232 21.3428)" class="st2 st3">4</text>
	</g>
	<g style="clip-path:url(#SVGID_00000171707527370396641310000013002567852140985756_);">
		<text transform="matrix(1 0 0 1 170.5029 56.8428)" class="st2 st3">4</text>
	</g>
	<g style="clip-path:url(#SVGID_00000171707527370396641310000013002567852140985756_);">
		<text transform="matrix(1 0 0 1 101.5 33.335)" class="st2 st3">5</text>
	</g>
	<path style="clip-path:url(#SVGID_00000171707527370396641310000013002567852140985756_);fill:#FFFFFF;" d="M10,28.83
		c0-2.48-2.01-4.5-4.5-4.5S1,26.35,1,28.83s2.01,4.5,4.5,4.5S10,31.32,10,28.83"/>
	
		<circle style="clip-path:url(#SVGID_00000171707527370396641310000013002567852140985756_);fill:none;stroke:#000000;stroke-width:2;" cx="5.5" cy="28.83" r="4.5"/>
	<path style="clip-path:url(#SVGID_00000171707527370396641310000013002567852140985756_);fill:#FFFFFF;" d="M198.01,23.34
		c0-2.48-2.01-4.5-4.5-4.5c-2.49,0-4.5,2.02-4.5,4.5c0,2.49,2.01,4.5,4.5,4.5C195.99,27.84,198.01,25.83,198.01,23.34"/>
	
		<circle style="clip-path:url(#SVGID_00000171707527370396641310000013002567852140985756_);fill:none;stroke:#000000;stroke-width:2;" cx="193.51" cy="23.34" r="4.5"/>
	<path style="clip-path:url(#SVGID_00000171707527370396641310000013002567852140985756_);fill:#FFFFFF;" d="M319,19.34
		c0-2.49-2.01-4.5-4.5-4.5c-2.49,0-4.5,2.01-4.5,4.5c0,2.48,2.01,4.5,4.5,4.5C316.99,23.84,319,21.83,319,19.34"/>
	
		<circle style="clip-path:url(#SVGID_00000171707527370396641310000013002567852140985756_);fill:none;stroke:#000000;stroke-width:2;" cx="314.5" cy="19.34" r="4.5"/>
	<path style="clip-path:url(#SVGID_00000171707527370396641310000013002567852140985756_);fill:#FFFFFF;" d="M275.5,56.84
		c0-2.48-2.01-4.5-4.5-4.5c-2.48,0-4.5,2.02-4.5,4.5c0,2.48,2.02,4.5,4.5,4.5C273.48,61.34,275.5,59.33,275.5,56.84"/>
	
		<circle style="clip-path:url(#SVGID_00000171707527370396641310000013002567852140985756_);fill:none;stroke:#000000;stroke-width:2;" cx="271" cy="56.84" r="4.5"/>
	<path style="clip-path:url(#SVGID_00000171707527370396641310000013002567852140985756_);fill:#FFFFFF;" d="M374.99,16.84
		c0-2.48-2.01-4.5-4.5-4.5c-2.48,0-4.5,2.02-4.5,4.5c0,2.48,2.02,4.5,4.5,4.5C372.98,21.34,374.99,19.33,374.99,16.84"/>
	
		<circle style="clip-path:url(#SVGID_00000171707527370396641310000013002567852140985756_);fill:none;stroke:#000000;stroke-width:2;" cx="370.49" cy="16.84" r="4.5"/>
	<path style="clip-path:url(#SVGID_00000171707527370396641310000013002567852140985756_);fill:#FFFFFF;" d="M381.49,81.34
		c0-2.48-2.01-4.5-4.5-4.5c-2.48,0-4.5,2.02-4.5,4.5c0,2.49,2.02,4.5,4.5,4.5C379.48,85.84,381.49,83.83,381.49,81.34"/>
	
		<circle style="clip-path:url(#SVGID_00000171707527370396641310000013002567852140985756_);fill:none;stroke:#000000;stroke-width:2;" cx="376.99" cy="81.34" r="4.5"/>
	<path style="clip-path:url(#SVGID_00000171707527370396641310000013002567852140985756_);fill:#FFFFFF;" d="M51.01,82.84
		c0-2.49-2.01-4.5-4.5-4.5c-2.48,0-4.5,2.01-4.5,4.5c0,2.48,2.02,4.5,4.5,4.5C48.99,87.34,51.01,85.32,51.01,82.84"/>
	
		<circle style="clip-path:url(#SVGID_00000171707527370396641310000013002567852140985756_);fill:none;stroke:#000000;stroke-width:2;" cx="46.51" cy="82.84" r="4.5"/>
	<path style="clip-path:url(#SVGID_00000171707527370396641310000013002567852140985756_);fill:#FFFFFF;" d="M201,121.34
		c0-2.49-2.01-4.5-4.5-4.5c-2.48,0-4.5,2.01-4.5,4.5c0,2.48,2.02,4.5,4.5,4.5C198.99,125.84,201,123.82,201,121.34"/>
	
		<circle style="clip-path:url(#SVGID_00000171707527370396641310000013002567852140985756_);fill:none;stroke:#000000;stroke-width:2;" cx="196.5" cy="121.34" r="4.5"/>
	<path style="clip-path:url(#SVGID_00000171707527370396641310000013002567852140985756_);fill:#FFFFFF;" d="M430.99,139.84
		c0-2.49-2.01-4.5-4.5-4.5c-2.49,0-4.5,2.01-4.5,4.5c0,2.48,2.01,4.5,4.5,4.5C428.98,144.34,430.99,142.32,430.99,139.84"/>
	
		<circle style="clip-path:url(#SVGID_00000171707527370396641310000013002567852140985756_);fill:none;stroke:#000000;stroke-width:2;" cx="426.49" cy="139.84" r="4.5"/>
	<path style="clip-path:url(#SVGID_00000171707527370396641310000013002567852140985756_);fill:#FFFFFF;" d="M158.51,154.34
		c0-2.48-2.01-4.5-4.5-4.5c-2.49,0-4.5,2.02-4.5,4.5c0,2.48,2.01,4.5,4.5,4.5C156.49,158.84,158.51,156.82,158.51,154.34"/>
	
		<circle style="clip-path:url(#SVGID_00000171707527370396641310000013002567852140985756_);fill:none;stroke:#000000;stroke-width:2;" cx="154.01" cy="154.34" r="4.5"/>
	<path style="clip-path:url(#SVGID_00000171707527370396641310000013002567852140985756_);fill:#FFFFFF;" d="M110.5,114.84
		c0-2.48-2.01-4.5-4.5-4.5c-2.48,0-4.5,2.02-4.5,4.5c0,2.49,2.02,4.5,4.5,4.5C108.49,119.34,110.5,117.32,110.5,114.84"/>
	
		<circle style="clip-path:url(#SVGID_00000171707527370396641310000013002567852140985756_);fill:none;stroke:#000000;stroke-width:2;" cx="106" cy="114.84" r="4.5"/>
	<path style="clip-path:url(#SVGID_00000171707527370396641310000013002567852140985756_);fill:#FFFFFF;" d="M260.5,177.84
		c0-2.48-2.01-4.5-4.5-4.5c-2.49,0-4.5,2.02-4.5,4.5c0,2.48,2.01,4.5,4.5,4.5C258.49,182.34,260.5,180.32,260.5,177.84"/>
	
		<circle style="clip-path:url(#SVGID_00000171707527370396641310000013002567852140985756_);fill:none;stroke:#000000;stroke-width:2;" cx="256" cy="177.84" r="4.5"/>
	<path style="clip-path:url(#SVGID_00000171707527370396641310000013002567852140985756_);fill:#FFFFFF;" d="M31.01,150.84
		c0-2.48-2.01-4.5-4.5-4.5c-2.48,0-4.5,2.02-4.5,4.5c0,2.49,2.02,4.5,4.5,4.5C29,155.34,31.01,153.32,31.01,150.84"/>
	
		<circle style="clip-path:url(#SVGID_00000171707527370396641310000013002567852140985756_);fill:none;stroke:#000000;stroke-width:2;" cx="26.51" cy="150.84" r="4.5"/>
	<g style="clip-path:url(#SVGID_00000171707527370396641310000013002567852140985756_);">
		<text transform="matrix(1 0 0 1 277.5029 69.334)" class="st2 st3">3</text>
	</g>
	<g style="clip-path:url(#SVGID_00000171707527370396641310000013002567852140985756_);">
		<text transform="matrix(1 0 0 1 31.0098 93.3384)" class="st2 st3">3</text>
	</g>
	<g style="clip-path:url(#SVGID_00000171707527370396641310000013002567852140985756_);">
		<text transform="matrix(1 0 0 1 381.4893 14.8423)" class="st2 st3">4</text>
	</g>
	<g style="clip-path:url(#SVGID_00000171707527370396641310000013002567852140985756_);">
		<text transform="matrix(1 0 0 1 323.502 12.3428)" class="st2 st3">5</text>
	</g>
</g>
<text transform="matrix(1 0 0 1 407 183.0005)" class="st2 st3">1</text>
</svg>
