<?xml version="1.0" encoding="UTF-8"?>
<svg xmlns="http://www.w3.org/2000/svg" xmlns:xlink="http://www.w3.org/1999/xlink" width="500pt" height="400pt" viewBox="0 0 500 400" version="1.1">
<g id="surface1">
<path style=" stroke:none;fill-rule:nonzero;fill:rgb(96.403503%,78.808594%,42.222595%);fill-opacity:1;" d="M 10.363281 5.347656 C 10.363281 6.730469 9.246094 7.847656 7.863281 7.847656 C 6.480469 7.847656 5.363281 6.730469 5.363281 5.347656 C 5.363281 3.96875 6.480469 2.847656 7.863281 2.847656 C 9.246094 2.847656 10.363281 3.96875 10.363281 5.347656 "/>
<path style="fill:none;stroke-width:1;stroke-linecap:butt;stroke-linejoin:miter;stroke:rgb(13.729858%,12.159729%,12.548828%);stroke-opacity:1;stroke-miterlimit:4;" d="M -0.00001875 0.00044375 C -0.00001875 -1.382369 -1.117206 -2.499556 -2.500019 -2.499556 C -3.882831 -2.499556 -5.000019 -1.382369 -5.000019 0.00044375 C -5.000019 1.37935 -3.882831 2.500444 -2.500019 2.500444 C -1.117206 2.500444 -0.00001875 1.37935 -0.00001875 0.00044375 Z M -0.00001875 0.00044375 " transform="matrix(1,0,0,-1,10.3633,5.3481)"/>
<path style=" stroke:none;fill-rule:nonzero;fill:rgb(96.403503%,78.808594%,42.222595%);fill-opacity:1;" d="M 10.363281 28.347656 C 10.363281 29.730469 9.246094 30.847656 7.863281 30.847656 C 6.480469 30.847656 5.363281 29.730469 5.363281 28.347656 C 5.363281 26.96875 6.480469 25.847656 7.863281 25.847656 C 9.246094 25.847656 10.363281 26.96875 10.363281 28.347656 "/>
<path style="fill:none;stroke-width:1;stroke-linecap:butt;stroke-linejoin:miter;stroke:rgb(13.729858%,12.159729%,12.548828%);stroke-opacity:1;stroke-miterlimit:4;" d="M -0.00001875 0.00044375 C -0.00001875 -1.382369 -1.117206 -2.499556 -2.500019 -2.499556 C -3.882831 -2.499556 -5.000019 -1.382369 -5.000019 0.00044375 C -5.000019 1.37935 -3.882831 2.500444 -2.500019 2.500444 C -1.117206 2.500444 -0.00001875 1.37935 -0.00001875 0.00044375 Z M -0.00001875 0.00044375 " transform="matrix(1,0,0,-1,10.3633,28.3481)"/>
<path style=" stroke:none;fill-rule:nonzero;fill:rgb(96.403503%,78.808594%,42.222595%);fill-opacity:1;" d="M 10.363281 50.347656 C 10.363281 51.730469 9.246094 52.847656 7.863281 52.847656 C 6.480469 52.847656 5.363281 51.730469 5.363281 50.347656 C 5.363281 48.96875 6.480469 47.847656 7.863281 47.847656 C 9.246094 47.847656 10.363281 48.96875 10.363281 50.347656 "/>
<path style="fill:none;stroke-width:1;stroke-linecap:butt;stroke-linejoin:miter;stroke:rgb(13.729858%,12.159729%,12.548828%);stroke-opacity:1;stroke-miterlimit:4;" d="M -0.00001875 0.00044375 C -0.00001875 -1.382369 -1.117206 -2.499556 -2.500019 -2.499556 C -3.882831 -2.499556 -5.000019 -1.382369 -5.000019 0.00044375 C -5.000019 1.37935 -3.882831 2.500444 -2.500019 2.500444 C -1.117206 2.500444 -0.00001875 1.37935 -0.00001875 0.00044375 Z M -0.00001875 0.00044375 " transform="matrix(1,0,0,-1,10.3633,50.3481)"/>
<path style=" stroke:none;fill-rule:nonzero;fill:rgb(96.403503%,78.808594%,42.222595%);fill-opacity:1;" d="M 10.363281 73.347656 C 10.363281 74.730469 9.246094 75.847656 7.863281 75.847656 C 6.480469 75.847656 5.363281 74.730469 5.363281 73.347656 C 5.363281 71.96875 6.480469 70.847656 7.863281 70.847656 C 9.246094 70.847656 10.363281 71.96875 10.363281 73.347656 "/>
<path style="fill:none;stroke-width:1;stroke-linecap:butt;stroke-linejoin:miter;stroke:rgb(13.729858%,12.159729%,12.548828%);stroke-opacity:1;stroke-miterlimit:4;" d="M -0.00001875 0.00044375 C -0.00001875 -1.382369 -1.117206 -2.499556 -2.500019 -2.499556 C -3.882831 -2.499556 -5.000019 -1.382369 -5.000019 0.00044375 C -5.000019 1.37935 -3.882831 2.500444 -2.500019 2.500444 C -1.117206 2.500444 -0.00001875 1.37935 -0.00001875 0.00044375 Z M -0.00001875 0.00044375 " transform="matrix(1,0,0,-1,10.3633,73.3481)"/>
<path style=" stroke:none;fill-rule:nonzero;fill:rgb(96.403503%,78.808594%,42.222595%);fill-opacity:1;" d="M 52.863281 5.347656 C 52.863281 6.730469 51.746094 7.847656 50.363281 7.847656 C 48.980469 7.847656 47.863281 6.730469 47.863281 5.347656 C 47.863281 3.96875 48.980469 2.847656 50.363281 2.847656 C 51.746094 2.847656 52.863281 3.96875 52.863281 5.347656 "/>
<path style="fill:none;stroke-width:1;stroke-linecap:butt;stroke-linejoin:miter;stroke:rgb(13.729858%,12.159729%,12.548828%);stroke-opacity:1;stroke-miterlimit:4;" d="M -0.00001875 0.00044375 C -0.00001875 -1.382369 -1.117206 -2.499556 -2.500019 -2.499556 C -3.882831 -2.499556 -5.000019 -1.382369 -5.000019 0.00044375 C -5.000019 1.37935 -3.882831 2.500444 -2.500019 2.500444 C -1.117206 2.500444 -0.00001875 1.37935 -0.00001875 0.00044375 Z M -0.00001875 0.00044375 " transform="matrix(1,0,0,-1,52.8633,5.3481)"/>
<path style=" stroke:none;fill-rule:nonzero;fill:rgb(96.403503%,78.808594%,42.222595%);fill-opacity:1;" d="M 52.863281 28.347656 C 52.863281 29.730469 51.746094 30.847656 50.363281 30.847656 C 48.980469 30.847656 47.863281 29.730469 47.863281 28.347656 C 47.863281 26.96875 48.980469 25.847656 50.363281 25.847656 C 51.746094 25.847656 52.863281 26.96875 52.863281 28.347656 "/>
<path style="fill:none;stroke-width:1;stroke-linecap:butt;stroke-linejoin:miter;stroke:rgb(13.729858%,12.159729%,12.548828%);stroke-opacity:1;stroke-miterlimit:4;" d="M -0.00001875 0.00044375 C -0.00001875 -1.382369 -1.117206 -2.499556 -2.500019 -2.499556 C -3.882831 -2.499556 -5.000019 -1.382369 -5.000019 0.00044375 C -5.000019 1.37935 -3.882831 2.500444 -2.500019 2.500444 C -1.117206 2.500444 -0.00001875 1.37935 -0.00001875 0.00044375 Z M -0.00001875 0.00044375 " transform="matrix(1,0,0,-1,52.8633,28.3481)"/>
<path style=" stroke:none;fill-rule:nonzero;fill:rgb(96.403503%,78.808594%,42.222595%);fill-opacity:1;" d="M 52.863281 50.347656 C 52.863281 51.730469 51.746094 52.847656 50.363281 52.847656 C 48.980469 52.847656 47.863281 51.730469 47.863281 50.347656 C 47.863281 48.96875 48.980469 47.847656 50.363281 47.847656 C 51.746094 47.847656 52.863281 48.96875 52.863281 50.347656 "/>
<path style="fill:none;stroke-width:1;stroke-linecap:butt;stroke-linejoin:miter;stroke:rgb(13.729858%,12.159729%,12.548828%);stroke-opacity:1;stroke-miterlimit:4;" d="M -0.00001875 0.00044375 C -0.00001875 -1.382369 -1.117206 -2.499556 -2.500019 -2.499556 C -3.882831 -2.499556 -5.000019 -1.382369 -5.000019 0.00044375 C -5.000019 1.37935 -3.882831 2.500444 -2.500019 2.500444 C -1.117206 2.500444 -0.00001875 1.37935 -0.00001875 0.00044375 Z M -0.00001875 0.00044375 " transform="matrix(1,0,0,-1,52.8633,50.3481)"/>
<path style=" stroke:none;fill-rule:nonzero;fill:rgb(96.403503%,78.808594%,42.222595%);fill-opacity:1;" d="M 52.863281 73.347656 C 52.863281 74.730469 51.746094 75.847656 50.363281 75.847656 C 48.980469 75.847656 47.863281 74.730469 47.863281 73.347656 C 47.863281 71.96875 48.980469 70.847656 50.363281 70.847656 C 51.746094 70.847656 52.863281 71.96875 52.863281 73.347656 "/>
<path style="fill:none;stroke-width:1;stroke-linecap:butt;stroke-linejoin:miter;stroke:rgb(13.729858%,12.159729%,12.548828%);stroke-opacity:1;stroke-miterlimit:4;" d="M -0.00001875 0.00044375 C -0.00001875 -1.382369 -1.117206 -2.499556 -2.500019 -2.499556 C -3.882831 -2.499556 -5.000019 -1.382369 -5.000019 0.00044375 C -5.000019 1.37935 -3.882831 2.500444 -2.500019 2.500444 C -1.117206 2.500444 -0.00001875 1.37935 -0.00001875 0.00044375 Z M -0.00001875 0.00044375 " transform="matrix(1,0,0,-1,52.8633,73.3481)"/>
<path style="fill:none;stroke-width:1;stroke-linecap:butt;stroke-linejoin:miter;stroke:rgb(13.729858%,12.159729%,12.548828%);stroke-opacity:1;stroke-miterlimit:4;" d="M 0.00100625 -0.00045625 L 36.383819 -20.426238 " transform="matrix(1,0,0,-1,11.1904,6.8472)"/>
<path style="fill:none;stroke-width:1;stroke-linecap:butt;stroke-linejoin:miter;stroke:rgb(13.729858%,12.159729%,12.548828%);stroke-opacity:1;stroke-miterlimit:4;" d="M -0.00098125 -0.0009375 L -37.211919 -23.075156 " transform="matrix(1,0,0,-1,47.5752,27.2725)"/>
<path style="fill:none;stroke-width:1;stroke-linecap:butt;stroke-linejoin:miter;stroke:rgb(13.729858%,12.159729%,12.548828%);stroke-opacity:1;stroke-miterlimit:4;" d="M -0.00001875 0.00044375 L 37.499981 -22.999556 " transform="matrix(1,0,0,-1,10.3633,50.3481)"/>
<path style="fill:none;stroke-width:1;stroke-linecap:butt;stroke-linejoin:miter;stroke:rgb(13.729858%,12.159729%,12.548828%);stroke-opacity:1;stroke-miterlimit:4;" d="M -0.00001875 0.00044375 L -37.500019 -22.999556 " transform="matrix(1,0,0,-1,47.8633,5.3481)"/>
<path style="fill:none;stroke-width:1;stroke-linecap:butt;stroke-linejoin:miter;stroke:rgb(13.729858%,12.159729%,12.548828%);stroke-opacity:1;stroke-miterlimit:4;" d="M -0.00001875 0.00044375 L 37.499981 -21.999556 " transform="matrix(1,0,0,-1,10.3633,28.3481)"/>
<path style="fill:none;stroke-width:1;stroke-linecap:butt;stroke-linejoin:miter;stroke:rgb(13.729858%,12.159729%,12.548828%);stroke-opacity:1;stroke-miterlimit:4;" d="M -0.00001875 0.00044375 L -37.500019 -22.999556 " transform="matrix(1,0,0,-1,47.8633,50.3481)"/>
<path style="fill:none;stroke-width:1;stroke-linecap:butt;stroke-linejoin:miter;stroke:rgb(13.729858%,12.159729%,12.548828%);stroke-opacity:1;stroke-miterlimit:4;" d="M -0.00001875 0.00044375 L 37.499981 -44.999556 " transform="matrix(1,0,0,-1,10.3633,5.3481)"/>
<path style="fill:none;stroke-width:1;stroke-linecap:butt;stroke-linejoin:miter;stroke:rgb(13.729858%,12.159729%,12.548828%);stroke-opacity:1;stroke-miterlimit:4;" d="M -0.00001875 0.00044375 L 37.499981 -67.999556 " transform="matrix(1,0,0,-1,10.3633,5.3481)"/>
<path style="fill:none;stroke-width:1;stroke-linecap:butt;stroke-linejoin:miter;stroke:rgb(13.729858%,12.159729%,12.548828%);stroke-opacity:1;stroke-miterlimit:4;" d="M -0.00001875 0.00044375 L -37.500019 -44.999556 " transform="matrix(1,0,0,-1,47.8633,5.3481)"/>
<path style="fill:none;stroke-width:1;stroke-linecap:butt;stroke-linejoin:miter;stroke:rgb(13.729858%,12.159729%,12.548828%);stroke-opacity:1;stroke-miterlimit:4;" d="M -0.00001875 0.00044375 L -37.500019 -67.999556 " transform="matrix(1,0,0,-1,47.8633,5.3481)"/>
<path style="fill:none;stroke-width:1;stroke-linecap:butt;stroke-linejoin:miter;stroke:rgb(13.729858%,12.159729%,12.548828%);stroke-opacity:1;stroke-miterlimit:4;" d="M -0.00098125 -0.0009375 L -37.211919 -46.075156 " transform="matrix(1,0,0,-1,47.5752,27.2725)"/>
<path style="fill:none;stroke-width:1;stroke-linecap:butt;stroke-linejoin:miter;stroke:rgb(13.729858%,12.159729%,12.548828%);stroke-opacity:1;stroke-miterlimit:4;" d="M -0.00001875 0.00044375 L 37.499981 -44.999556 " transform="matrix(1,0,0,-1,10.3633,28.3481)"/>
</g>
</svg>
