<?xml version="1.0" encoding="UTF-8"?>
<svg xmlns="http://www.w3.org/2000/svg" xmlns:xlink="http://www.w3.org/1999/xlink" width="82.8pt" height="82.8pt" viewBox="0 0 82.8 82.8" version="1.1">
<defs>
<clipPath id="clip1">
  <path d="M 0 4 L 82.800781 4 L 82.800781 82 L 0 82 Z M 0 4 "/>
</clipPath>
<clipPath id="clip2">
  <path d="M 36 45 L 82.800781 45 L 82.800781 81 L 36 81 Z M 36 45 "/>
</clipPath>
<clipPath id="clip3">
  <path d="M 0 67 L 13 67 L 13 82.800781 L 0 82.800781 Z M 0 67 "/>
</clipPath>
<clipPath id="clip4">
  <path d="M 70 67 L 82.800781 67 L 82.800781 82.800781 L 70 82.800781 Z M 70 67 "/>
</clipPath>
</defs>
<g id="surface1">
<g clip-path="url(#clip1)" clip-rule="nonzero">
<path style="fill:none;stroke-width:1;stroke-linecap:butt;stroke-linejoin:miter;stroke:rgb(13.729858%,12.159729%,12.548828%);stroke-opacity:1;stroke-miterlimit:4;" d="M -0.00099375 0.00020625 L 37.413069 64.800987 L 74.823225 0.00020625 Z M -0.00099375 0.00020625 " transform="matrix(1,0,0,-1,4.2549,75.4338)"/>
</g>
<path style="fill:none;stroke-width:1;stroke-linecap:butt;stroke-linejoin:miter;stroke:rgb(13.729858%,12.159729%,12.548828%);stroke-opacity:1;stroke-miterlimit:4;" d="M -0.0005 0.00023125 L 37.65575 24.027575 " transform="matrix(1,0,0,-1,4.0005,75.6682)"/>
<g clip-path="url(#clip2)" clip-rule="nonzero">
<path style="fill:none;stroke-width:1;stroke-linecap:butt;stroke-linejoin:miter;stroke:rgb(13.729858%,12.159729%,12.548828%);stroke-opacity:1;stroke-miterlimit:4;" d="M -0.00005 0.000175 L 37.167919 -23.667794 " transform="matrix(1,0,0,-1,41.6563,51.6408)"/>
</g>
<path style="fill:none;stroke-width:1;stroke-linecap:butt;stroke-linejoin:miter;stroke:rgb(13.729858%,12.159729%,12.548828%);stroke-opacity:1;stroke-miterlimit:4;" d="M 0 -0.00076875 L 0 -40.668737 " transform="matrix(1,0,0,-1,41.5,10.1672)"/>
<path style=" stroke:none;fill-rule:nonzero;fill:rgb(96.403503%,78.808594%,42.222595%);fill-opacity:1;" d="M 44.15625 10.640625 C 44.15625 12.023438 43.039062 13.140625 41.65625 13.140625 C 40.273438 13.140625 39.15625 12.023438 39.15625 10.640625 C 39.15625 9.261719 40.273438 8.140625 41.65625 8.140625 C 43.039062 8.140625 44.15625 9.261719 44.15625 10.640625 "/>
<path style="fill:none;stroke-width:1;stroke-linecap:butt;stroke-linejoin:miter;stroke:rgb(13.729858%,12.159729%,12.548828%);stroke-opacity:1;stroke-miterlimit:4;" d="M -0.00005 0.000175 C -0.00005 -1.382638 -1.117238 -2.499825 -2.50005 -2.499825 C -3.882863 -2.499825 -5.00005 -1.382638 -5.00005 0.000175 C -5.00005 1.379081 -3.882863 2.500175 -2.50005 2.500175 C -1.117238 2.500175 -0.00005 1.379081 -0.00005 0.000175 Z M -0.00005 0.000175 " transform="matrix(1,0,0,-1,44.1563,10.6408)"/>
<path style=" stroke:none;fill-rule:nonzero;fill:rgb(96.403503%,78.808594%,42.222595%);fill-opacity:1;" d="M 6.5 75.667969 C 6.5 77.050781 5.382812 78.167969 4 78.167969 C 2.621094 78.167969 1.5 77.050781 1.5 75.667969 C 1.5 74.289062 2.621094 73.167969 4 73.167969 C 5.382812 73.167969 6.5 74.289062 6.5 75.667969 "/>
<g clip-path="url(#clip3)" clip-rule="nonzero">
<path style="fill:none;stroke-width:1;stroke-linecap:butt;stroke-linejoin:miter;stroke:rgb(13.729858%,12.159729%,12.548828%);stroke-opacity:1;stroke-miterlimit:4;" d="M -0.0005 0.00023125 C -0.0005 -1.382581 -1.117687 -2.499769 -2.5005 -2.499769 C -3.879406 -2.499769 -5.0005 -1.382581 -5.0005 0.00023125 C -5.0005 1.379137 -3.879406 2.500231 -2.5005 2.500231 C -1.117687 2.500231 -0.0005 1.379137 -0.0005 0.00023125 Z M -0.0005 0.00023125 " transform="matrix(1,0,0,-1,6.5005,75.6682)"/>
</g>
<path style=" stroke:none;fill-rule:nonzero;fill:rgb(96.403503%,78.808594%,42.222595%);fill-opacity:1;" d="M 44.15625 51.640625 C 44.15625 53.023438 43.039062 54.140625 41.65625 54.140625 C 40.273438 54.140625 39.15625 53.023438 39.15625 51.640625 C 39.15625 50.261719 40.273438 49.140625 41.65625 49.140625 C 43.039062 49.140625 44.15625 50.261719 44.15625 51.640625 "/>
<path style="fill:none;stroke-width:1;stroke-linecap:butt;stroke-linejoin:miter;stroke:rgb(13.729858%,12.159729%,12.548828%);stroke-opacity:1;stroke-miterlimit:4;" d="M -0.00005 0.000175 C -0.00005 -1.382638 -1.117238 -2.499825 -2.50005 -2.499825 C -3.882863 -2.499825 -5.00005 -1.382638 -5.00005 0.000175 C -5.00005 1.379081 -3.882863 2.500175 -2.50005 2.500175 C -1.117238 2.500175 -0.00005 1.379081 -0.00005 0.000175 Z M -0.00005 0.000175 " transform="matrix(1,0,0,-1,44.1563,51.6408)"/>
<path style=" stroke:none;fill-rule:nonzero;fill:rgb(96.403503%,78.808594%,42.222595%);fill-opacity:1;" d="M 81.324219 75.308594 C 81.324219 76.6875 80.203125 77.808594 78.824219 77.808594 C 77.441406 77.808594 76.324219 76.6875 76.324219 75.308594 C 76.324219 73.925781 77.441406 72.808594 78.824219 72.808594 C 80.203125 72.808594 81.324219 73.925781 81.324219 75.308594 "/>
<g clip-path="url(#clip4)" clip-rule="nonzero">
<path style="fill:none;stroke-width:1;stroke-linecap:butt;stroke-linejoin:miter;stroke:rgb(13.729858%,12.159729%,12.548828%);stroke-opacity:1;stroke-miterlimit:4;" d="M 0.00101875 -0.00079375 C 0.00101875 -1.3797 -1.120075 -2.500794 -2.498981 -2.500794 C -3.881794 -2.500794 -4.998981 -1.3797 -4.998981 -0.00079375 C -4.998981 1.382019 -3.881794 2.499206 -2.498981 2.499206 C -1.120075 2.499206 0.00101875 1.382019 0.00101875 -0.00079375 Z M 0.00101875 -0.00079375 " transform="matrix(1,0,0,-1,81.3232,75.3078)"/>
</g>
</g>
</svg>
