<?xml version="1.0" encoding="UTF-8"?>
<svg xmlns="http://www.w3.org/2000/svg" xmlns:xlink="http://www.w3.org/1999/xlink" width="180pt" height="72pt" viewBox="0 0 180 72" version="1.1">
<g id="surface1">
<path style="fill:none;stroke-width:1;stroke-linecap:butt;stroke-linejoin:miter;stroke:rgb(13.729858%,12.159729%,12.548828%);stroke-opacity:1;stroke-miterlimit:4;" d="M -0.00191875 0.0000125 L 27.521519 52.042981 " transform="matrix(1,0,0,-1,7.7402,61.2422)"/>
<path style="fill:none;stroke-width:1;stroke-linecap:butt;stroke-linejoin:miter;stroke:rgb(13.729858%,12.159729%,12.548828%);stroke-opacity:1;stroke-miterlimit:4;" d="M -0.0014375 0.00190625 L 80.107938 52.861281 " transform="matrix(1,0,0,-1,9.103,62.0605)"/>
<path style="fill:none;stroke-width:1;stroke-linecap:butt;stroke-linejoin:miter;stroke:rgb(13.729858%,12.159729%,12.548828%);stroke-opacity:1;stroke-miterlimit:4;" d="M -0.0014375 0.00190625 L 134.326687 51.794875 " transform="matrix(1,0,0,-1,9.103,62.0605)"/>
<path style="fill:none;stroke-width:1;stroke-linecap:butt;stroke-linejoin:miter;stroke:rgb(13.729858%,12.159729%,12.548828%);stroke-opacity:1;stroke-miterlimit:4;" d="M -0.00190625 0.00096875 L -28.314406 52.0205 " transform="matrix(1,0,0,-1,36.623,62.333)"/>
<path style="fill:none;stroke-width:1;stroke-linecap:butt;stroke-linejoin:miter;stroke:rgb(13.729858%,12.159729%,12.548828%);stroke-opacity:1;stroke-miterlimit:4;" d="M -0.00195 0.00190625 L 53.677737 52.861281 " transform="matrix(1,0,0,-1,35.5332,62.0605)"/>
<path style="fill:none;stroke-width:1;stroke-linecap:butt;stroke-linejoin:miter;stroke:rgb(13.729858%,12.159729%,12.548828%);stroke-opacity:1;stroke-miterlimit:4;" d="M -0.00195 -0.00100625 L 134.740238 52.795869 " transform="matrix(1,0,0,-1,35.5332,62.8779)"/>
<path style="fill:none;stroke-width:1;stroke-linecap:butt;stroke-linejoin:miter;stroke:rgb(13.729858%,12.159729%,12.548828%);stroke-opacity:1;stroke-miterlimit:4;" d="M 0.00094375 0.00095 L -26.43265 50.430638 " transform="matrix(1,0,0,-1,61.9639,60.9697)"/>
<path style="fill:none;stroke-width:1;stroke-linecap:butt;stroke-linejoin:miter;stroke:rgb(13.729858%,12.159729%,12.548828%);stroke-opacity:1;stroke-miterlimit:4;" d="M 0.00000625 0.00003125 L -0.273431 53.132844 " transform="matrix(1,0,0,-1,61.6914,62.6055)"/>
<path style="fill:none;stroke-width:1;stroke-linecap:butt;stroke-linejoin:miter;stroke:rgb(13.729858%,12.159729%,12.548828%);stroke-opacity:1;stroke-miterlimit:4;" d="M 0.00094375 0.00095 L 27.247037 51.770481 " transform="matrix(1,0,0,-1,61.9639,60.9697)"/>
<path style="fill:none;stroke-width:1;stroke-linecap:butt;stroke-linejoin:miter;stroke:rgb(13.729858%,12.159729%,12.548828%);stroke-opacity:1;stroke-miterlimit:4;" d="M 0.00094375 0.00095 L 54.2236 51.770481 " transform="matrix(1,0,0,-1,61.9639,60.9697)"/>
<path style="fill:none;stroke-width:1;stroke-linecap:butt;stroke-linejoin:miter;stroke:rgb(13.729858%,12.159729%,12.548828%);stroke-opacity:1;stroke-miterlimit:4;" d="M -0.000025 -0.00194375 L -82.289088 52.5879 " transform="matrix(1,0,0,-1,89.4844,63.1504)"/>
<path style="fill:none;stroke-width:1;stroke-linecap:butt;stroke-linejoin:miter;stroke:rgb(13.729858%,12.159729%,12.548828%);stroke-opacity:1;stroke-miterlimit:4;" d="M 0 0.0000125 L 26.429688 50.953137 " transform="matrix(1,0,0,-1,116.1875,61.2422)"/>
<path style="fill:none;stroke-width:1;stroke-linecap:butt;stroke-linejoin:miter;stroke:rgb(13.729858%,12.159729%,12.548828%);stroke-opacity:1;stroke-miterlimit:4;" d="M 0 -0.0009625 L 0 52.588881 " transform="matrix(1,0,0,-1,116.1875,61.7881)"/>
<path style="fill:none;stroke-width:1;stroke-linecap:butt;stroke-linejoin:miter;stroke:rgb(13.729858%,12.159729%,12.548828%);stroke-opacity:1;stroke-miterlimit:4;" d="M 0 -0.0009625 L -27.246094 50.682631 " transform="matrix(1,0,0,-1,116.1875,61.7881)"/>
<path style="fill:none;stroke-width:1;stroke-linecap:butt;stroke-linejoin:miter;stroke:rgb(13.729858%,12.159729%,12.548828%);stroke-opacity:1;stroke-miterlimit:4;" d="M -0.00004375 0.00190625 L -52.863325 51.794875 " transform="matrix(1,0,0,-1,115.0977,62.0605)"/>
<path style="fill:none;stroke-width:1;stroke-linecap:butt;stroke-linejoin:miter;stroke:rgb(13.729858%,12.159729%,12.548828%);stroke-opacity:1;stroke-miterlimit:4;" d="M -0.000975 -0.00004375 L 25.616213 51.203081 " transform="matrix(1,0,0,-1,143.7041,60.4023)"/>
<path style="fill:none;stroke-width:1;stroke-linecap:butt;stroke-linejoin:miter;stroke:rgb(13.729858%,12.159729%,12.548828%);stroke-opacity:1;stroke-miterlimit:4;" d="M -0.000975 -0.00004375 L -55.852537 50.113237 " transform="matrix(1,0,0,-1,143.7041,60.4023)"/>
<path style="fill:none;stroke-width:1;stroke-linecap:butt;stroke-linejoin:miter;stroke:rgb(13.729858%,12.159729%,12.548828%);stroke-opacity:1;stroke-miterlimit:4;" d="M -0.000975 -0.00004375 L -134.602537 49.296831 " transform="matrix(1,0,0,-1,143.7041,60.4023)"/>
<path style="fill:none;stroke-width:1;stroke-linecap:butt;stroke-linejoin:miter;stroke:rgb(13.729858%,12.159729%,12.548828%);stroke-opacity:1;stroke-miterlimit:4;" d="M 0.000975 0.00095 L -0.405275 51.020481 " transform="matrix(1,0,0,-1,170.5459,60.2197)"/>
<path style="fill:none;stroke-width:1;stroke-linecap:butt;stroke-linejoin:miter;stroke:rgb(13.729858%,12.159729%,12.548828%);stroke-opacity:1;stroke-miterlimit:4;" d="M 0.00093125 0.0000125 L -81.745163 52.042981 " transform="matrix(1,0,0,-1,170.9561,61.2422)"/>
<path style=" stroke:none;fill-rule:nonzero;fill:rgb(96.403503%,78.808594%,42.222595%);fill-opacity:1;" d="M 8.570312 54.125 C 5.167969 54.125 2.40625 56.917969 2.40625 60.363281 C 2.40625 63.8125 5.167969 66.605469 8.570312 66.605469 C 11.972656 66.605469 14.734375 63.8125 14.734375 60.363281 C 14.734375 56.917969 11.972656 54.125 8.570312 54.125 "/>
<path style="fill:none;stroke-width:2;stroke-linecap:butt;stroke-linejoin:miter;stroke:rgb(13.729858%,12.159729%,12.548828%);stroke-opacity:1;stroke-miterlimit:4;" d="M -0.0009875 0 C -3.403331 0 -6.16505 -2.792969 -6.16505 -6.238281 C -6.16505 -9.6875 -3.403331 -12.480469 -0.0009875 -12.480469 C 3.401356 -12.480469 6.163075 -9.6875 6.163075 -6.238281 C 6.163075 -2.792969 3.401356 0 -0.0009875 0 Z M -0.0009875 0 " transform="matrix(1,0,0,-1,8.5713,54.125)"/>
<path style=" stroke:none;fill-rule:nonzero;fill:rgb(96.403503%,78.808594%,42.222595%);fill-opacity:1;" d="M 35.558594 54.480469 C 32.152344 54.480469 29.394531 57.273438 29.394531 60.71875 C 29.394531 64.167969 32.152344 66.960938 35.558594 66.960938 C 38.960938 66.960938 41.722656 64.167969 41.722656 60.71875 C 41.722656 57.273438 38.960938 54.480469 35.558594 54.480469 "/>
<path style="fill:none;stroke-width:2;stroke-linecap:butt;stroke-linejoin:miter;stroke:rgb(13.729858%,12.159729%,12.548828%);stroke-opacity:1;stroke-miterlimit:4;" d="M 0.00099375 0.00093125 C -3.405256 0.00093125 -6.163069 -2.792037 -6.163069 -6.23735 C -6.163069 -9.686569 -3.405256 -12.479537 0.00099375 -12.479537 C 3.403338 -12.479537 6.165056 -9.686569 6.165056 -6.23735 C 6.165056 -2.792037 3.403338 0.00093125 0.00099375 0.00093125 Z M 0.00099375 0.00093125 " transform="matrix(1,0,0,-1,35.5576,54.4814)"/>
<path style=" stroke:none;fill-rule:nonzero;fill:rgb(96.403503%,78.808594%,42.222595%);fill-opacity:1;" d="M 62.507812 54.164062 C 59.101562 54.164062 56.34375 56.957031 56.34375 60.402344 C 56.34375 63.847656 59.101562 66.640625 62.507812 66.640625 C 65.90625 66.640625 68.667969 63.847656 68.667969 60.402344 C 68.667969 56.957031 65.90625 54.164062 62.507812 54.164062 "/>
<path style="fill:none;stroke-width:2;stroke-linecap:butt;stroke-linejoin:miter;stroke:rgb(13.729858%,12.159729%,12.548828%);stroke-opacity:1;stroke-miterlimit:4;" d="M 0.0019125 -0.0009625 C -3.404338 -0.0009625 -6.16215 -2.793931 -6.16215 -6.239244 C -6.16215 -9.684556 -3.404338 -12.477525 0.0019125 -12.477525 C 3.40035 -12.477525 6.162069 -9.684556 6.162069 -6.239244 C 6.162069 -2.793931 3.40035 -0.0009625 0.0019125 -0.0009625 Z M 0.0019125 -0.0009625 " transform="matrix(1,0,0,-1,62.5059,54.1631)"/>
<path style=" stroke:none;fill-rule:nonzero;fill:rgb(96.403503%,78.808594%,42.222595%);fill-opacity:1;" d="M 89.753906 54.433594 C 86.347656 54.433594 83.589844 57.226562 83.589844 60.671875 C 83.589844 64.121094 86.347656 66.914062 89.753906 66.914062 C 93.15625 66.914062 95.917969 64.121094 95.917969 60.671875 C 95.917969 57.226562 93.15625 54.433594 89.753906 54.433594 "/>
<path style="fill:none;stroke-width:2;stroke-linecap:butt;stroke-linejoin:miter;stroke:rgb(13.729858%,12.159729%,12.548828%);stroke-opacity:1;stroke-miterlimit:4;" d="M -0.00099375 0.00100625 C -3.407244 0.00100625 -6.165056 -2.791962 -6.165056 -6.237275 C -6.165056 -9.686494 -3.407244 -12.479462 -0.00099375 -12.479462 C 3.40135 -12.479462 6.163069 -9.686494 6.163069 -6.237275 C 6.163069 -2.791962 3.40135 0.00100625 -0.00099375 0.00100625 Z M -0.00099375 0.00100625 " transform="matrix(1,0,0,-1,89.7549,54.4346)"/>
<path style=" stroke:none;fill-rule:nonzero;fill:rgb(96.403503%,78.808594%,42.222595%);fill-opacity:1;" d="M 116.453125 54.164062 C 113.050781 54.164062 110.289062 56.957031 110.289062 60.402344 C 110.289062 63.847656 113.050781 66.640625 116.453125 66.640625 C 119.855469 66.640625 122.617188 63.847656 122.617188 60.402344 C 122.617188 56.957031 119.855469 54.164062 116.453125 54.164062 "/>
<path style="fill:none;stroke-width:2;stroke-linecap:butt;stroke-linejoin:miter;stroke:rgb(13.729858%,12.159729%,12.548828%);stroke-opacity:1;stroke-miterlimit:4;" d="M -0.000975 -0.0009625 C -3.403319 -0.0009625 -6.165038 -2.793931 -6.165038 -6.239244 C -6.165038 -9.684556 -3.403319 -12.477525 -0.000975 -12.477525 C 3.401369 -12.477525 6.163087 -9.684556 6.163087 -6.239244 C 6.163087 -2.793931 3.401369 -0.0009625 -0.000975 -0.0009625 Z M -0.000975 -0.0009625 " transform="matrix(1,0,0,-1,116.4541,54.1631)"/>
<path style=" stroke:none;fill-rule:nonzero;fill:rgb(96.403503%,78.808594%,42.222595%);fill-opacity:1;" d="M 143.703125 54.164062 C 140.300781 54.164062 137.539062 56.957031 137.539062 60.402344 C 137.539062 63.847656 140.300781 66.640625 143.703125 66.640625 C 147.105469 66.640625 149.867188 63.847656 149.867188 60.402344 C 149.867188 56.957031 147.105469 54.164062 143.703125 54.164062 "/>
<path style="fill:none;stroke-width:2;stroke-linecap:butt;stroke-linejoin:miter;stroke:rgb(13.729858%,12.159729%,12.548828%);stroke-opacity:1;stroke-miterlimit:4;" d="M -0.000975 -0.0009625 C -3.403319 -0.0009625 -6.165037 -2.793931 -6.165037 -6.239244 C -6.165037 -9.684556 -3.403319 -12.477525 -0.000975 -12.477525 C 3.401369 -12.477525 6.163088 -9.684556 6.163088 -6.239244 C 6.163088 -2.793931 3.401369 -0.0009625 -0.000975 -0.0009625 Z M -0.000975 -0.0009625 " transform="matrix(1,0,0,-1,143.7041,54.1631)"/>
<path style=" stroke:none;fill-rule:nonzero;fill:rgb(96.403503%,78.808594%,42.222595%);fill-opacity:1;" d="M 8.308594 4.074219 C 4.90625 4.074219 2.144531 6.867188 2.144531 10.3125 C 2.144531 13.757812 4.90625 16.550781 8.308594 16.550781 C 11.710938 16.550781 14.472656 13.757812 14.472656 10.3125 C 14.472656 6.867188 11.710938 4.074219 8.308594 4.074219 "/>
<path style="fill:none;stroke-width:2;stroke-linecap:butt;stroke-linejoin:miter;stroke:rgb(13.729858%,12.159729%,12.548828%);stroke-opacity:1;stroke-miterlimit:4;" d="M -0.00050625 -0.00141875 C -3.40285 -0.00141875 -6.164569 -2.794388 -6.164569 -6.2397 C -6.164569 -9.685013 -3.40285 -12.477981 -0.00050625 -12.477981 C 3.401837 -12.477981 6.163556 -9.685013 6.163556 -6.2397 C 6.163556 -2.794388 3.401837 -0.00141875 -0.00050625 -0.00141875 Z M -0.00050625 -0.00141875 " transform="matrix(1,0,0,-1,8.3091,4.0728)"/>
<path style=" stroke:none;fill-rule:nonzero;fill:rgb(96.403503%,78.808594%,42.222595%);fill-opacity:1;" d="M 35.53125 4.300781 C 32.125 4.300781 29.367188 7.09375 29.367188 10.539062 C 29.367188 13.984375 32.125 16.777344 35.53125 16.777344 C 38.933594 16.777344 41.695312 13.984375 41.695312 10.539062 C 41.695312 7.09375 38.933594 4.300781 35.53125 4.300781 "/>
<path style="fill:none;stroke-width:2;stroke-linecap:butt;stroke-linejoin:miter;stroke:rgb(13.729858%,12.159729%,12.548828%);stroke-opacity:1;stroke-miterlimit:4;" d="M 0.00045 -0.00148125 C -3.4058 -0.00148125 -6.163612 -2.79445 -6.163612 -6.239762 C -6.163612 -9.685075 -3.4058 -12.478044 0.00045 -12.478044 C 3.402794 -12.478044 6.164513 -9.685075 6.164513 -6.239762 C 6.164513 -2.79445 3.402794 -0.00148125 0.00045 -0.00148125 Z M 0.00045 -0.00148125 " transform="matrix(1,0,0,-1,35.5308,4.2993)"/>
<path style=" stroke:none;fill-rule:nonzero;fill:rgb(96.403503%,78.808594%,42.222595%);fill-opacity:1;" d="M 62.234375 4.027344 C 58.828125 4.027344 56.070312 6.820312 56.070312 10.265625 C 56.070312 13.714844 58.828125 16.507812 62.234375 16.507812 C 65.636719 16.507812 68.398438 13.714844 68.398438 10.265625 C 68.398438 6.820312 65.636719 4.027344 62.234375 4.027344 "/>
<path style="fill:none;stroke-width:2;stroke-linecap:butt;stroke-linejoin:miter;stroke:rgb(13.729858%,12.159729%,12.548828%);stroke-opacity:1;stroke-miterlimit:4;" d="M 0.000975 -0.00044375 C -3.405275 -0.00044375 -6.163088 -2.793413 -6.163088 -6.238725 C -6.163088 -9.687944 -3.405275 -12.480913 0.000975 -12.480913 C 3.403319 -12.480913 6.165037 -9.687944 6.165037 -6.238725 C 6.165037 -2.793413 3.403319 -0.00044375 0.000975 -0.00044375 Z M 0.000975 -0.00044375 " transform="matrix(1,0,0,-1,62.2334,4.0269)"/>
<path style=" stroke:none;fill-rule:nonzero;fill:rgb(96.403503%,78.808594%,42.222595%);fill-opacity:1;" d="M 89.210938 4.027344 C 85.804688 4.027344 83.046875 6.820312 83.046875 10.265625 C 83.046875 13.714844 85.804688 16.507812 89.210938 16.507812 C 92.609375 16.507812 95.371094 13.714844 95.371094 10.265625 C 95.371094 6.820312 92.609375 4.027344 89.210938 4.027344 "/>
<path style="fill:none;stroke-width:2;stroke-linecap:butt;stroke-linejoin:miter;stroke:rgb(13.729858%,12.159729%,12.548828%);stroke-opacity:1;stroke-miterlimit:4;" d="M 0.0019375 -0.00044375 C -3.404313 -0.00044375 -6.162125 -2.793413 -6.162125 -6.238725 C -6.162125 -9.687944 -3.404313 -12.480913 0.0019375 -12.480913 C 3.400375 -12.480913 6.162094 -9.687944 6.162094 -6.238725 C 6.162094 -2.793413 3.400375 -0.00044375 0.0019375 -0.00044375 Z M 0.0019375 -0.00044375 " transform="matrix(1,0,0,-1,89.209,4.0269)"/>
<path style=" stroke:none;fill-rule:nonzero;fill:rgb(96.403503%,78.808594%,42.222595%);fill-opacity:1;" d="M 116.453125 4.027344 C 113.050781 4.027344 110.289062 6.820312 110.289062 10.265625 C 110.289062 13.714844 113.050781 16.507812 116.453125 16.507812 C 119.855469 16.507812 122.617188 13.714844 122.617188 10.265625 C 122.617188 6.820312 119.855469 4.027344 116.453125 4.027344 "/>
<path style="fill:none;stroke-width:2;stroke-linecap:butt;stroke-linejoin:miter;stroke:rgb(13.729858%,12.159729%,12.548828%);stroke-opacity:1;stroke-miterlimit:4;" d="M -0.000975 0.00045625 C -3.403319 0.00045625 -6.165038 -2.792513 -6.165038 -6.237825 C -6.165038 -9.687044 -3.403319 -12.480013 -0.000975 -12.480013 C 3.401369 -12.480013 6.163087 -9.687044 6.163087 -6.237825 C 6.163087 -2.792513 3.401369 0.00045625 -0.000975 0.00045625 Z M -0.000975 0.00045625 " transform="matrix(1,0,0,-1,116.4541,4.0278)"/>
<path style=" stroke:none;fill-rule:nonzero;fill:rgb(96.403503%,78.808594%,42.222595%);fill-opacity:1;" d="M 143.429688 4.027344 C 140.027344 4.027344 137.265625 6.820312 137.265625 10.265625 C 137.265625 13.714844 140.027344 16.507812 143.429688 16.507812 C 146.832031 16.507812 149.59375 13.714844 149.59375 10.265625 C 149.59375 6.820312 146.832031 4.027344 143.429688 4.027344 "/>
<path style="fill:none;stroke-width:2;stroke-linecap:butt;stroke-linejoin:miter;stroke:rgb(13.729858%,12.159729%,12.548828%);stroke-opacity:1;stroke-miterlimit:4;" d="M -0.0010125 -0.00044375 C -3.403356 -0.00044375 -6.165075 -2.793413 -6.165075 -6.238725 C -6.165075 -9.687944 -3.403356 -12.480913 -0.0010125 -12.480913 C 3.401331 -12.480913 6.16305 -9.687944 6.16305 -6.238725 C 6.16305 -2.793413 3.401331 -0.00044375 -0.0010125 -0.00044375 Z M -0.0010125 -0.00044375 " transform="matrix(1,0,0,-1,143.4307,4.0269)"/>
<path style=" stroke:none;fill-rule:nonzero;fill:rgb(96.403503%,78.808594%,42.222595%);fill-opacity:1;" d="M 170.546875 53.980469 C 167.140625 53.980469 164.382812 56.773438 164.382812 60.21875 C 164.382812 63.667969 167.140625 66.460938 170.546875 66.460938 C 173.949219 66.460938 176.710938 63.667969 176.710938 60.21875 C 176.710938 56.773438 173.949219 53.980469 170.546875 53.980469 "/>
<path style="fill:none;stroke-width:2;stroke-linecap:butt;stroke-linejoin:miter;stroke:rgb(13.729858%,12.159729%,12.548828%);stroke-opacity:1;stroke-miterlimit:4;" d="M 0.000975 0.00003125 C -3.405275 0.00003125 -6.163087 -2.792938 -6.163087 -6.23825 C -6.163087 -9.687469 -3.405275 -12.480438 0.000975 -12.480438 C 3.403319 -12.480438 6.165038 -9.687469 6.165038 -6.23825 C 6.165038 -2.792938 3.403319 0.00003125 0.000975 0.00003125 Z M 0.000975 0.00003125 " transform="matrix(1,0,0,-1,170.5459,53.9805)"/>
<path style=" stroke:none;fill-rule:nonzero;fill:rgb(96.403503%,78.808594%,42.222595%);fill-opacity:1;" d="M 170.273438 3.84375 C 166.867188 3.84375 164.109375 6.636719 164.109375 10.082031 C 164.109375 13.53125 166.867188 16.324219 170.273438 16.324219 C 173.675781 16.324219 176.4375 13.53125 176.4375 10.082031 C 176.4375 6.636719 173.675781 3.84375 170.273438 3.84375 "/>
<path style="fill:none;stroke-width:2;stroke-linecap:butt;stroke-linejoin:miter;stroke:rgb(13.729858%,12.159729%,12.548828%);stroke-opacity:1;stroke-miterlimit:4;" d="M 0.0009375 0.00045 C -3.405312 0.00045 -6.163125 -2.792519 -6.163125 -6.237831 C -6.163125 -9.68705 -3.405312 -12.480019 0.0009375 -12.480019 C 3.403281 -12.480019 6.165 -9.68705 6.165 -6.237831 C 6.165 -2.792519 3.403281 0.00045 0.0009375 0.00045 Z M 0.0009375 0.00045 " transform="matrix(1,0,0,-1,170.2725,3.8442)"/>
</g>
</svg>
