<?xml version="1.0" encoding="UTF-8"?>
<svg xmlns="http://www.w3.org/2000/svg" xmlns:xlink="http://www.w3.org/1999/xlink" width="154.8pt" height="72pt" viewBox="0 0 154.8 72" version="1.1">
<defs>
<clipPath id="clip1">
  <path d="M 126 43 L 154.800781 43 L 154.800781 72 L 126 72 Z M 126 43 "/>
</clipPath>
<clipPath id="clip2">
  <path d="M 125 0 L 154.800781 0 L 154.800781 29 L 125 29 Z M 125 0 "/>
</clipPath>
</defs>
<g id="surface1">
<path style="fill:none;stroke-width:1;stroke-linecap:butt;stroke-linejoin:miter;stroke:rgb(13.729858%,12.159729%,12.548828%);stroke-opacity:1;stroke-miterlimit:4;" d="M -0.00195 -0.00100625 L 26.974612 50.952119 " transform="matrix(1,0,0,-1,8.0957,62.6279)"/>
<path style="fill:none;stroke-width:1;stroke-linecap:butt;stroke-linejoin:miter;stroke:rgb(13.729858%,12.159729%,12.548828%);stroke-opacity:1;stroke-miterlimit:4;" d="M -0.000475 -0.0000125 L 79.565931 51.22655 " transform="matrix(1,0,0,-1,8.6411,63.4453)"/>
<path style="fill:none;stroke-width:1;stroke-linecap:butt;stroke-linejoin:miter;stroke:rgb(13.729858%,12.159729%,12.548828%);stroke-opacity:1;stroke-miterlimit:4;" d="M -0.00195 -0.00100625 L 135.146488 51.795869 " transform="matrix(1,0,0,-1,8.0957,62.6279)"/>
<path style="fill:none;stroke-width:1;stroke-linecap:butt;stroke-linejoin:miter;stroke:rgb(13.729858%,12.159729%,12.548828%);stroke-opacity:1;stroke-miterlimit:4;" d="M 0.00093125 -0.00099375 L -28.585006 53.928694 " transform="matrix(1,0,0,-1,36.7061,64.8076)"/>
<path style="fill:none;stroke-width:1;stroke-linecap:butt;stroke-linejoin:miter;stroke:rgb(13.729858%,12.159729%,12.548828%);stroke-opacity:1;stroke-miterlimit:4;" d="M -0.001925 0.00004375 L 0.271512 52.859419 " transform="matrix(1,0,0,-1,34.7988,64.5352)"/>
<path style="fill:none;stroke-width:1;stroke-linecap:butt;stroke-linejoin:miter;stroke:rgb(13.729858%,12.159729%,12.548828%);stroke-opacity:1;stroke-miterlimit:4;" d="M 0.00000625 0.00003125 L 27.789069 51.523469 " transform="matrix(1,0,0,-1,34.2539,62.3555)"/>
<path style="fill:none;stroke-width:1;stroke-linecap:butt;stroke-linejoin:miter;stroke:rgb(13.729858%,12.159729%,12.548828%);stroke-opacity:1;stroke-miterlimit:4;" d="M -0.000025 0.001025 L -53.925806 52.293994 " transform="matrix(1,0,0,-1,62.0469,63.1729)"/>
<path style="fill:none;stroke-width:1;stroke-linecap:butt;stroke-linejoin:miter;stroke:rgb(13.729858%,12.159729%,12.548828%);stroke-opacity:1;stroke-miterlimit:4;" d="M 0.00190625 0.00100625 L 54.767531 50.407256 " transform="matrix(1,0,0,-1,61.502,61.8096)"/>
<path style="fill:none;stroke-width:1;stroke-linecap:butt;stroke-linejoin:miter;stroke:rgb(13.729858%,12.159729%,12.548828%);stroke-opacity:1;stroke-miterlimit:4;" d="M 0.00190625 0.00100625 L 81.740187 50.977569 " transform="matrix(1,0,0,-1,61.502,61.8096)"/>
<path style="fill:none;stroke-width:1;stroke-linecap:butt;stroke-linejoin:miter;stroke:rgb(13.729858%,12.159729%,12.548828%);stroke-opacity:1;stroke-miterlimit:4;" d="M -0.00193125 -0.00194375 L -26.974588 50.955087 " transform="matrix(1,0,0,-1,89.2949,62.9004)"/>
<path style="fill:none;stroke-width:1;stroke-linecap:butt;stroke-linejoin:miter;stroke:rgb(13.729858%,12.159729%,12.548828%);stroke-opacity:1;stroke-miterlimit:4;" d="M -0.0009375 0.00191875 L -0.270469 51.77145 " transform="matrix(1,0,0,-1,88.4775,63.9902)"/>
<path style="fill:none;stroke-width:1;stroke-linecap:butt;stroke-linejoin:miter;stroke:rgb(13.729858%,12.159729%,12.548828%);stroke-opacity:1;stroke-miterlimit:4;" d="M -0.00099375 -0.00003125 L 26.702131 50.679656 " transform="matrix(1,0,0,-1,89.5674,62.082)"/>
<path style="fill:none;stroke-width:1;stroke-linecap:butt;stroke-linejoin:miter;stroke:rgb(13.729858%,12.159729%,12.548828%);stroke-opacity:1;stroke-miterlimit:4;" d="M -0.0010125 0.00003125 L -53.137731 51.523469 " transform="matrix(1,0,0,-1,115.1807,62.3555)"/>
<path style="fill:none;stroke-width:1;stroke-linecap:butt;stroke-linejoin:miter;stroke:rgb(13.729858%,12.159729%,12.548828%);stroke-opacity:1;stroke-miterlimit:4;" d="M 0.0009625 0.00100625 L -81.471694 49.864288 " transform="matrix(1,0,0,-1,115.7256,61.8096)"/>
<path style="fill:none;stroke-width:1;stroke-linecap:butt;stroke-linejoin:miter;stroke:rgb(13.729858%,12.159729%,12.548828%);stroke-opacity:1;stroke-miterlimit:4;" d="M -0.0010125 0.001025 L 27.522425 53.133837 " transform="matrix(1,0,0,-1,115.1807,63.1729)"/>
<path style="fill:none;stroke-width:1;stroke-linecap:butt;stroke-linejoin:miter;stroke:rgb(13.729858%,12.159729%,12.548828%);stroke-opacity:1;stroke-miterlimit:4;" d="M -0.0019375 -0.00100625 L -27.521469 51.225556 " transform="matrix(1,0,0,-1,143.791,62.6279)"/>
<path style="fill:none;stroke-width:1;stroke-linecap:butt;stroke-linejoin:miter;stroke:rgb(13.729858%,12.159729%,12.548828%);stroke-opacity:1;stroke-miterlimit:4;" d="M -0.0019375 -0.00100625 L -55.041 51.225556 " transform="matrix(1,0,0,-1,143.791,62.6279)"/>
<path style="fill:none;stroke-width:1;stroke-linecap:butt;stroke-linejoin:miter;stroke:rgb(13.729858%,12.159729%,12.548828%);stroke-opacity:1;stroke-miterlimit:4;" d="M -0.00094375 0.00003125 L -107.903287 50.683625 " transform="matrix(1,0,0,-1,142.9736,62.3555)"/>
<path style=" stroke:none;fill-rule:nonzero;fill:rgb(96.403503%,78.808594%,42.222595%);fill-opacity:1;" d="M 8.382812 54.691406 C 4.976562 54.691406 2.21875 57.484375 2.21875 60.929688 C 2.21875 64.378906 4.976562 67.171875 8.382812 67.171875 C 11.785156 67.171875 14.546875 64.378906 14.546875 60.929688 C 14.546875 57.484375 11.785156 54.691406 8.382812 54.691406 "/>
<path style="fill:none;stroke-width:2;stroke-linecap:butt;stroke-linejoin:miter;stroke:rgb(13.729858%,12.159729%,12.548828%);stroke-opacity:1;stroke-miterlimit:4;" d="M 0.0010125 0.00099375 C -3.405238 0.00099375 -6.16305 -2.791975 -6.16305 -6.237288 C -6.16305 -9.686506 -3.405238 -12.479475 0.0010125 -12.479475 C 3.403356 -12.479475 6.165075 -9.686506 6.165075 -6.237288 C 6.165075 -2.791975 3.403356 0.00099375 0.0010125 0.00099375 Z M 0.0010125 0.00099375 " transform="matrix(1,0,0,-1,8.3818,54.6924)"/>
<path style=" stroke:none;fill-rule:nonzero;fill:rgb(96.403503%,78.808594%,42.222595%);fill-opacity:1;" d="M 35.367188 55.046875 C 31.964844 55.046875 29.203125 57.84375 29.203125 61.285156 C 29.203125 64.734375 31.964844 67.527344 35.367188 67.527344 C 38.769531 67.527344 41.53125 64.734375 41.53125 61.285156 C 41.53125 57.84375 38.769531 55.046875 35.367188 55.046875 "/>
<path style="fill:none;stroke-width:2;stroke-linecap:butt;stroke-linejoin:miter;stroke:rgb(13.729858%,12.159729%,12.548828%);stroke-opacity:1;stroke-miterlimit:4;" d="M -0.0010125 0.001925 C -3.403356 0.001925 -6.165075 -2.79495 -6.165075 -6.236356 C -6.165075 -9.685575 -3.403356 -12.478544 -0.0010125 -12.478544 C 3.401331 -12.478544 6.16305 -9.685575 6.16305 -6.236356 C 6.16305 -2.79495 3.401331 0.001925 -0.0010125 0.001925 Z M -0.0010125 0.001925 " transform="matrix(1,0,0,-1,35.3682,55.0488)"/>
<path style=" stroke:none;fill-rule:nonzero;fill:rgb(96.403503%,78.808594%,42.222595%);fill-opacity:1;" d="M 62.316406 54.730469 C 58.914062 54.730469 56.152344 57.523438 56.152344 60.96875 C 56.152344 64.417969 58.914062 67.210938 62.316406 67.210938 C 65.71875 67.210938 68.480469 64.417969 68.480469 60.96875 C 68.480469 57.523438 65.71875 54.730469 62.316406 54.730469 "/>
<path style="fill:none;stroke-width:2;stroke-linecap:butt;stroke-linejoin:miter;stroke:rgb(13.729858%,12.159729%,12.548828%);stroke-opacity:1;stroke-miterlimit:4;" d="M 0.00000625 0.00003125 C -3.402337 0.00003125 -6.164056 -2.792937 -6.164056 -6.23825 C -6.164056 -9.687469 -3.402337 -12.480437 0.00000625 -12.480437 C 3.40235 -12.480437 6.164069 -9.687469 6.164069 -6.23825 C 6.164069 -2.792937 3.40235 0.00003125 0.00000625 0.00003125 Z M 0.00000625 0.00003125 " transform="matrix(1,0,0,-1,62.3164,54.7305)"/>
<path style=" stroke:none;fill-rule:nonzero;fill:rgb(96.403503%,78.808594%,42.222595%);fill-opacity:1;" d="M 89.566406 55.003906 C 86.160156 55.003906 83.398438 57.796875 83.398438 61.238281 C 83.398438 64.6875 86.160156 67.480469 89.566406 67.480469 C 92.96875 67.480469 95.726562 64.6875 95.726562 61.238281 C 95.726562 57.796875 92.96875 55.003906 89.566406 55.003906 "/>
<path style="fill:none;stroke-width:2;stroke-linecap:butt;stroke-linejoin:miter;stroke:rgb(13.729858%,12.159729%,12.548828%);stroke-opacity:1;stroke-miterlimit:4;" d="M 0.00100625 -0.00190625 C -3.405244 -0.00190625 -6.166962 -2.794875 -6.166962 -6.236281 C -6.166962 -9.6855 -3.405244 -12.478469 0.00100625 -12.478469 C 3.40335 -12.478469 6.161163 -9.6855 6.161163 -6.236281 C 6.161163 -2.794875 3.40335 -0.00190625 0.00100625 -0.00190625 Z M 0.00100625 -0.00190625 " transform="matrix(1,0,0,-1,89.5654,55.002)"/>
<path style=" stroke:none;fill-rule:nonzero;fill:rgb(96.403503%,78.808594%,42.222595%);fill-opacity:1;" d="M 116.265625 54.730469 C 112.859375 54.730469 110.101562 57.523438 110.101562 60.96875 C 110.101562 64.417969 112.859375 67.210938 116.265625 67.210938 C 119.667969 67.210938 122.429688 64.417969 122.429688 60.96875 C 122.429688 57.523438 119.667969 54.730469 116.265625 54.730469 "/>
<path style="fill:none;stroke-width:2;stroke-linecap:butt;stroke-linejoin:miter;stroke:rgb(13.729858%,12.159729%,12.548828%);stroke-opacity:1;stroke-miterlimit:4;" d="M 0.001025 0.00003125 C -3.405225 0.00003125 -6.163038 -2.792937 -6.163038 -6.23825 C -6.163038 -9.687469 -3.405225 -12.480437 0.001025 -12.480437 C 3.403369 -12.480437 6.165087 -9.687469 6.165087 -6.23825 C 6.165087 -2.792937 3.403369 0.00003125 0.001025 0.00003125 Z M 0.001025 0.00003125 " transform="matrix(1,0,0,-1,116.2646,54.7305)"/>
<path style=" stroke:none;fill-rule:nonzero;fill:rgb(96.403503%,78.808594%,42.222595%);fill-opacity:1;" d="M 143.515625 54.730469 C 140.109375 54.730469 137.351562 57.523438 137.351562 60.96875 C 137.351562 64.417969 140.109375 67.210938 143.515625 67.210938 C 146.917969 67.210938 149.679688 64.417969 149.679688 60.96875 C 149.679688 57.523438 146.917969 54.730469 143.515625 54.730469 "/>
<g clip-path="url(#clip1)" clip-rule="nonzero">
<path style="fill:none;stroke-width:2;stroke-linecap:butt;stroke-linejoin:miter;stroke:rgb(13.729858%,12.159729%,12.548828%);stroke-opacity:1;stroke-miterlimit:4;" d="M 0.001025 0.00003125 C -3.405225 0.00003125 -6.163037 -2.792937 -6.163037 -6.23825 C -6.163037 -9.687469 -3.405225 -12.480437 0.001025 -12.480437 C 3.403369 -12.480437 6.165088 -9.687469 6.165088 -6.23825 C 6.165088 -2.792937 3.403369 0.00003125 0.001025 0.00003125 Z M 0.001025 0.00003125 " transform="matrix(1,0,0,-1,143.5146,54.7305)"/>
</g>
<path style=" stroke:none;fill-rule:nonzero;fill:rgb(96.403503%,78.808594%,42.222595%);fill-opacity:1;" d="M 8.121094 4.640625 C 4.714844 4.640625 1.957031 7.433594 1.957031 10.878906 C 1.957031 14.324219 4.714844 17.117188 8.121094 17.117188 C 11.523438 17.117188 14.285156 14.324219 14.285156 10.878906 C 14.285156 7.433594 11.523438 4.640625 8.121094 4.640625 "/>
<path style="fill:none;stroke-width:2;stroke-linecap:butt;stroke-linejoin:miter;stroke:rgb(13.729858%,12.159729%,12.548828%);stroke-opacity:1;stroke-miterlimit:4;" d="M 0.00149375 -0.000525 C -3.404756 -0.000525 -6.162569 -2.793494 -6.162569 -6.238806 C -6.162569 -9.684119 -3.404756 -12.477087 0.00149375 -12.477087 C 3.403837 -12.477087 6.165556 -9.684119 6.165556 -6.238806 C 6.165556 -2.793494 3.403837 -0.000525 0.00149375 -0.000525 Z M 0.00149375 -0.000525 " transform="matrix(1,0,0,-1,8.1196,4.6401)"/>
<path style=" stroke:none;fill-rule:nonzero;fill:rgb(96.403503%,78.808594%,42.222595%);fill-opacity:1;" d="M 35.339844 4.867188 C 31.9375 4.867188 29.175781 7.660156 29.175781 11.105469 C 29.175781 14.550781 31.9375 17.34375 35.339844 17.34375 C 38.742188 17.34375 41.503906 14.550781 41.503906 11.105469 C 41.503906 7.660156 38.742188 4.867188 35.339844 4.867188 "/>
<path style="fill:none;stroke-width:2;stroke-linecap:butt;stroke-linejoin:miter;stroke:rgb(13.729858%,12.159729%,12.548828%);stroke-opacity:1;stroke-miterlimit:4;" d="M -0.00145625 -0.0004875 C -3.4038 -0.0004875 -6.165519 -2.793456 -6.165519 -6.238769 C -6.165519 -9.684081 -3.4038 -12.47705 -0.00145625 -12.47705 C 3.400888 -12.47705 6.162606 -9.684081 6.162606 -6.238769 C 6.162606 -2.793456 3.400888 -0.0004875 -0.00145625 -0.0004875 Z M -0.00145625 -0.0004875 " transform="matrix(1,0,0,-1,35.3413,4.8667)"/>
<path style=" stroke:none;fill-rule:nonzero;fill:rgb(96.403503%,78.808594%,42.222595%);fill-opacity:1;" d="M 62.042969 4.59375 C 58.640625 4.59375 55.878906 7.386719 55.878906 10.832031 C 55.878906 14.28125 58.640625 17.074219 62.042969 17.074219 C 65.445312 17.074219 68.207031 14.28125 68.207031 10.832031 C 68.207031 7.386719 65.445312 4.59375 62.042969 4.59375 "/>
<path style="fill:none;stroke-width:2;stroke-linecap:butt;stroke-linejoin:miter;stroke:rgb(13.729858%,12.159729%,12.548828%);stroke-opacity:1;stroke-miterlimit:4;" d="M -0.00093125 0.00045 C -3.403275 0.00045 -6.164994 -2.792519 -6.164994 -6.237831 C -6.164994 -9.68705 -3.403275 -12.480019 -0.00093125 -12.480019 C 3.401412 -12.480019 6.163131 -9.68705 6.163131 -6.237831 C 6.163131 -2.792519 3.401412 0.00045 -0.00093125 0.00045 Z M -0.00093125 0.00045 " transform="matrix(1,0,0,-1,62.0439,4.5942)"/>
<path style=" stroke:none;fill-rule:nonzero;fill:rgb(96.403503%,78.808594%,42.222595%);fill-opacity:1;" d="M 89.019531 4.59375 C 85.617188 4.59375 82.855469 7.386719 82.855469 10.832031 C 82.855469 14.28125 85.617188 17.074219 89.019531 17.074219 C 92.421875 17.074219 95.183594 14.28125 95.183594 10.832031 C 95.183594 7.386719 92.421875 4.59375 89.019531 4.59375 "/>
<path style="fill:none;stroke-width:2;stroke-linecap:butt;stroke-linejoin:miter;stroke:rgb(13.729858%,12.159729%,12.548828%);stroke-opacity:1;stroke-miterlimit:4;" d="M 0.00003125 0.00045 C -3.402313 0.00045 -6.164031 -2.792519 -6.164031 -6.237831 C -6.164031 -9.68705 -3.402313 -12.480019 0.00003125 -12.480019 C 3.402375 -12.480019 6.164094 -9.68705 6.164094 -6.237831 C 6.164094 -2.792519 3.402375 0.00045 0.00003125 0.00045 Z M 0.00003125 0.00045 " transform="matrix(1,0,0,-1,89.0195,4.5942)"/>
<path style=" stroke:none;fill-rule:nonzero;fill:rgb(96.403503%,78.808594%,42.222595%);fill-opacity:1;" d="M 116.265625 4.59375 C 112.859375 4.59375 110.101562 7.386719 110.101562 10.832031 C 110.101562 14.28125 112.859375 17.074219 116.265625 17.074219 C 119.667969 17.074219 122.429688 14.28125 122.429688 10.832031 C 122.429688 7.386719 119.667969 4.59375 116.265625 4.59375 "/>
<path style="fill:none;stroke-width:2;stroke-linecap:butt;stroke-linejoin:miter;stroke:rgb(13.729858%,12.159729%,12.548828%);stroke-opacity:1;stroke-miterlimit:4;" d="M 0.001025 0.00145 C -3.405225 0.00145 -6.163038 -2.791519 -6.163038 -6.236831 C -6.163038 -9.68605 -3.405225 -12.479019 0.001025 -12.479019 C 3.403369 -12.479019 6.165087 -9.68605 6.165087 -6.236831 C 6.165087 -2.791519 3.403369 0.00145 0.001025 0.00145 Z M 0.001025 0.00145 " transform="matrix(1,0,0,-1,116.2646,4.5952)"/>
<path style=" stroke:none;fill-rule:nonzero;fill:rgb(96.403503%,78.808594%,42.222595%);fill-opacity:1;" d="M 143.242188 4.59375 C 139.835938 4.59375 137.078125 7.386719 137.078125 10.832031 C 137.078125 14.28125 139.835938 17.074219 143.242188 17.074219 C 146.644531 17.074219 149.40625 14.28125 149.40625 10.832031 C 149.40625 7.386719 146.644531 4.59375 143.242188 4.59375 "/>
<g clip-path="url(#clip2)" clip-rule="nonzero">
<path style="fill:none;stroke-width:2;stroke-linecap:butt;stroke-linejoin:miter;stroke:rgb(13.729858%,12.159729%,12.548828%);stroke-opacity:1;stroke-miterlimit:4;" d="M 0.0009875 0.00045 C -3.405262 0.00045 -6.163075 -2.792519 -6.163075 -6.237831 C -6.163075 -9.68705 -3.405262 -12.480019 0.0009875 -12.480019 C 3.403331 -12.480019 6.16505 -9.68705 6.16505 -6.237831 C 6.16505 -2.792519 3.403331 0.00045 0.0009875 0.00045 Z M 0.0009875 0.00045 " transform="matrix(1,0,0,-1,143.2412,4.5942)"/>
</g>
</g>
</svg>
