<?xml version="1.0" encoding="UTF-8" standalone="no"?>
<svg
   width="481pt"
   height="113pt"
   viewBox="0 0 481 113"
   version="1.1"
   id="svg59"
   sodipodi:docname="necklaces.svg"
   inkscape:version="1.2.1 (9c6d41e410, 2022-07-14)"
   inkscape:export-filename="necklaces.pdf"
   inkscape:export-xdpi="96"
   inkscape:export-ydpi="96"
   xmlns:inkscape="http://www.inkscape.org/namespaces/inkscape"
   xmlns:sodipodi="http://sodipodi.sourceforge.net/DTD/sodipodi-0.dtd"
   xmlns="http://www.w3.org/2000/svg"
   xmlns:svg="http://www.w3.org/2000/svg">
  <defs
     id="defs63" />
  <sodipodi:namedview
     id="namedview61"
     pagecolor="#ffffff"
     bordercolor="#000000"
     borderopacity="0.25"
     inkscape:showpageshadow="2"
     inkscape:pageopacity="0.0"
     inkscape:pagecheckerboard="0"
     inkscape:deskcolor="#d1d1d1"
     inkscape:document-units="pt"
     showgrid="false"
     inkscape:zoom="2.0426195"
     inkscape:cx="318.95318"
     inkscape:cy="87.877354"
     inkscape:window-width="1920"
     inkscape:window-height="991"
     inkscape:window-x="-9"
     inkscape:window-y="-9"
     inkscape:window-maximized="1"
     inkscape:current-layer="svg59" />
  <path
     style="fill:none;stroke:#000000;stroke-width:0.7168;stroke-linecap:butt;stroke-linejoin:miter;stroke-miterlimit:4;stroke-opacity:1"
     d="m 90.621091,53.753809 c 0,23.277341 -18.894529,42.171863 -42.175781,42.171863 -23.277343,0 -42.1718727,-18.894522 -42.1718727,-42.171863 0,-23.28125 18.8945297,-42.175771 42.1718727,-42.175771 23.281252,0 42.175781,18.894521 42.175781,42.175771 z m 0,0"
     id="path2" />
  <path
     style="fill:#dc0000;fill-opacity:1;fill-rule:nonzero;stroke:#000000;stroke-width:0.7168;stroke-linecap:butt;stroke-linejoin:miter;stroke-miterlimit:4;stroke-opacity:1"
     d="m 55.148437,11.480468 c 0,3.113282 -2.527344,5.636719 -5.636718,5.636719 -3.113281,0 -5.636718,-2.523437 -5.636718,-5.636719 0,-3.109374 2.523437,-5.6367176 5.636718,-5.6367176 3.109374,0 5.636718,2.5273436 5.636718,5.6367176 z m 0,0"
     id="path4" />
  <path
     style="fill:#dc0000;fill-opacity:1;fill-rule:nonzero;stroke:#000000;stroke-width:0.7168;stroke-linecap:butt;stroke-linejoin:miter;stroke-miterlimit:4;stroke-opacity:1"
     d="m 18.507812,76.484376 c 0,3.109374 -2.523437,5.636718 -5.636718,5.636718 -3.1132812,0 -5.6367183,-2.527344 -5.6367183,-5.636718 0,-3.113281 2.5234371,-5.636718 5.6367183,-5.636718 3.113281,0 5.636718,2.523437 5.636718,5.636718 z m 0,0"
     id="path10" />
  <path
     style="fill:none;stroke:#000000;stroke-width:0.7168;stroke-linecap:butt;stroke-linejoin:miter;stroke-miterlimit:4;stroke-opacity:1"
     d="m 156.36348,19.719025 c 20.16392,-11.640885 45.97267,-4.726565 57.61329,15.433573 11.64063,20.160143 4.72265,45.972627 -15.43751,57.613247 -20.16025,11.636565 -45.97267,4.72266 -57.6133,-15.437483 -11.63699,-20.159978 -4.72265,-45.968717 15.43752,-57.609337 z m 0,0"
     id="path14" />
  <path
     style="fill:#dc0000;fill-opacity:1;fill-rule:nonzero;stroke:#000000;stroke-width:0.716799;stroke-linecap:butt;stroke-linejoin:miter;stroke-miterlimit:4;stroke-opacity:1"
     d="m 137.49213,71.570356 c 2.6954,-1.554536 6.14453,-0.628909 7.70312,2.0664 1.55454,2.6954 0.62891,6.144531 -2.0664,7.699216 -2.6914,1.554707 -6.14062,0.632815 -7.69922,-2.062497 -1.55453,-2.695397 -0.62891,-6.144527 2.0625,-7.703119 z m 0,0"
     id="path16" />
  <path
     style="fill:#dc0000;fill-opacity:1;fill-rule:nonzero;stroke:#000000;stroke-width:0.716799;stroke-linecap:butt;stroke-linejoin:miter;stroke-miterlimit:4;stroke-opacity:1"
     d="m 211.05072,72.566446 c 2.6914,-1.5586 6.14453,-0.632812 7.69922,2.062497 1.55454,2.6954 0.63281,6.144531 -2.0625,7.699215 -2.6954,1.554537 -6.14453,0.632817 -7.70312,-2.062496 -1.55453,-2.695397 -0.62891,-6.144527 2.0664,-7.699216 z m 0,0"
     id="path22" />
  <path
     style="fill:none;stroke:#000000;stroke-width:0.7168;stroke-linecap:butt;stroke-linejoin:miter;stroke-miterlimit:4;stroke-opacity:1"
     d="m 327.81231,94.847381 c -20.16004,11.640849 -45.97268,4.722664 -57.6094,-15.437479 -11.64063,-20.160138 -4.72656,-45.968722 15.43752,-57.609337 20.16003,-11.640846 45.96877,-4.726569 57.60939,15.437474 11.64063,20.160143 4.72265,45.968727 -15.43751,57.609342 z m 0,0"
     id="path26" />
  <path
     style="fill:#dc0000;fill-opacity:1;fill-rule:nonzero;stroke:#000000;stroke-width:0.716799;stroke-linecap:butt;stroke-linejoin:miter;stroke-miterlimit:4;stroke-opacity:1"
     d="m 346.68365,42.992146 c -2.6954,1.554535 -6.14453,0.632815 -7.69922,-2.062497 -1.55453,-2.695397 -0.63281,-6.144529 2.0625,-7.699216 2.6953,-1.558617 6.14453,-0.632812 7.69922,2.062497 1.55861,2.695299 0.63281,6.14453 -2.0625,7.699216 z m 0,0"
     id="path28" />
  <path
     style="fill:#dc0000;fill-opacity:1;fill-rule:nonzero;stroke:#000000;stroke-width:0.716799;stroke-linecap:butt;stroke-linejoin:miter;stroke-miterlimit:4;stroke-opacity:1"
     d="m 273.63287,41.527301 c -2.6953,1.558617 -6.14453,0.632815 -7.70312,-2.062494 -1.55454,-2.6954 -0.62891,-6.144532 2.0664,-7.699219 2.6954,-1.554535 6.14453,-0.632812 7.69922,2.062497 1.55453,2.6954 0.63281,6.144532 -2.0625,7.699216 z m 0,0"
     id="path32" />
  <path
     style="fill:#dc0000;fill-opacity:1;fill-rule:nonzero;stroke:#000000;stroke-width:0.7168;stroke-linecap:butt;stroke-linejoin:miter;stroke-miterlimit:4;stroke-opacity:1"
     d="m 54.558595,95.464843 c 0,3.109374 -2.527344,5.636717 -5.636722,5.636717 -3.113281,0 -5.636718,-2.527343 -5.636718,-5.636717 0,-3.113281 2.523437,-5.636718 5.636718,-5.636718 3.109378,0 5.636722,2.523437 5.636722,5.636718 z m 0,0"
     id="path38" />
  <path
     style="fill:#dc0000;fill-opacity:1;fill-rule:nonzero;stroke:#000000;stroke-width:0.7168;stroke-linecap:butt;stroke-linejoin:miter;stroke-miterlimit:4;stroke-opacity:1"
     d="m 220.18359,37.515627 c 0,3.109374 -2.52734,5.636718 -5.63671,5.636718 -3.11329,0 -5.63672,-2.527344 -5.63672,-5.636718 0,-3.113285 2.52343,-5.636722 5.63672,-5.636722 3.10937,0 5.63671,2.523437 5.63671,5.636722 z m 0,0"
     id="path40" />
  <path
     style="fill:#dc0000;fill-opacity:1;fill-rule:nonzero;stroke:#000000;stroke-width:0.7168;stroke-linecap:butt;stroke-linejoin:miter;stroke-miterlimit:4;stroke-opacity:1"
     d="m 349.90625,78.250001 c 0,3.113281 -2.52344,5.636718 -5.63672,5.636718 -3.10937,0 -5.63672,-2.523437 -5.63672,-5.636718 0,-3.109375 2.52735,-5.636718 5.63672,-5.636718 3.11328,0 5.63672,2.527343 5.63672,5.636718 z m 0,0"
     id="path42" />
  <path
     style="fill:none;stroke:#000000;stroke-width:0.7168;stroke-linecap:butt;stroke-linejoin:miter;stroke-miterlimit:4;stroke-opacity:1"
     d="m 454.21465,95.96457 c -20.16004,11.64085 -45.96877,4.72656 -57.60939,-15.437484 -11.64063,-20.160138 -4.72265,-45.968717 15.43752,-57.609337 20.16003,-11.640846 45.96876,-4.722659 57.60938,15.437479 11.64063,20.160143 4.72656,45.968721 -15.43751,57.609342 z m 0,0"
     id="path44" />
  <path
     style="fill:#dc0000;fill-opacity:1;fill-rule:nonzero;stroke:#000000;stroke-width:0.716799;stroke-linecap:butt;stroke-linejoin:miter;stroke-miterlimit:4;stroke-opacity:1"
     d="m 471.51568,85.789021 c -2.6953,1.558616 -6.14453,0.632816 -7.70312,-2.062496 -1.55454,-2.695397 -0.62891,-6.144529 2.0664,-7.699216 2.6914,-1.554708 6.14453,-0.632812 7.69922,2.062497 1.55453,2.6954 0.62891,6.144526 -2.0625,7.699215 z m 0,0"
     id="path46" />
  <path
     style="fill:#dc0000;fill-opacity:1;fill-rule:nonzero;stroke:#000000;stroke-width:0.716799;stroke-linecap:butt;stroke-linejoin:miter;stroke-miterlimit:4;stroke-opacity:1"
     d="m 400.03521,85.898396 c -2.6954,1.554537 -6.14453,0.632814 -7.69921,-2.062497 -1.55862,-2.6953 -0.63282,-6.144527 2.0625,-7.699216 2.69529,-1.558615 6.14452,-0.632815 7.69921,2.062497 1.55454,2.695397 0.63281,6.144529 -2.0625,7.699216 z m 0,0"
     id="path50" />
  <path
     style="fill:#dc0000;fill-opacity:1;fill-rule:nonzero;stroke:#000000;stroke-width:0.7168;stroke-linecap:butt;stroke-linejoin:miter;stroke-miterlimit:4;stroke-opacity:1"
     d="m 438.5625,17.242188 c 0,3.113281 -2.52344,5.636718 -5.63672,5.636718 -3.10937,0 -5.63672,-2.523437 -5.63672,-5.636718 0,-3.109374 2.52735,-5.636718 5.63672,-5.636718 3.11328,0 5.63672,2.527344 5.63672,5.636718 z m 0,0"
     id="path56" />
  <rect
     style="fill:#00b305;fill-opacity:1;stroke:#000000;stroke-width:0.717;stroke-linejoin:round;stroke-dasharray:none"
     id="rect980"
     width="9.9137402"
     height="9.9137402"
     x="8.6286249"
     y="26.895613" />
  <rect
     style="fill:#00b305;fill-opacity:1;stroke:#000000;stroke-width:0.717;stroke-linejoin:round;stroke-dasharray:none"
     id="rect980-8"
     width="9.9137402"
     height="9.9137402"
     x="172.89128"
     y="92.989426" />
  <rect
     style="fill:#00b305;fill-opacity:1;stroke:#000000;stroke-width:0.717;stroke-linejoin:round;stroke-dasharray:none"
     id="rect980-6"
     width="9.9137402"
     height="9.9137402"
     x="302.58417"
     y="11.223562" />
  <rect
     style="fill:#00b305;fill-opacity:1;stroke:#000000;stroke-width:0.717;stroke-linejoin:round;stroke-dasharray:none"
     id="rect980-85"
     width="9.9137402"
     height="9.9137402"
     x="393.31055"
     y="32.259647" />
  <path
     sodipodi:type="star"
     style="fill:#007aff;fill-opacity:1;stroke:#000000;stroke-width:0.717;stroke-linejoin:round;stroke-dasharray:none"
     id="path1860"
     inkscape:flatsided="false"
     sodipodi:sides="3"
     sodipodi:cx="63.869556"
     sodipodi:cy="39.464115"
     sodipodi:r1="8.2634907"
     sodipodi:r2="4.1317449"
     sodipodi:arg1="-0.78539816"
     sodipodi:arg2="0.26179939"
     inkscape:rounded="0"
     inkscape:randomized="0"
     d="m 69.712727,33.620945 -1.852212,6.912544 -1.85221,6.912545 -5.060333,-5.060334 -5.060335,-5.060334 6.912545,-1.85221 z"
     inkscape:transform-center-x="1.0693743"
     inkscape:transform-center-y="1.0693743"
     transform="translate(20.510955,-6.9451651)" />
  <path
     sodipodi:type="star"
     style="fill:#007aff;fill-opacity:1;stroke:#000000;stroke-width:0.717;stroke-linejoin:round;stroke-dasharray:none"
     id="path1860-0"
     inkscape:flatsided="false"
     sodipodi:sides="3"
     sodipodi:cx="63.869556"
     sodipodi:cy="39.464115"
     sodipodi:r1="8.2634907"
     sodipodi:r2="4.1317449"
     sodipodi:arg1="-0.78539816"
     sodipodi:arg2="0.26179939"
     inkscape:rounded="0"
     inkscape:randomized="0"
     d="m 69.712727,33.620945 -1.852212,6.912544 -1.85221,6.912545 -5.060333,-5.060334 -5.060335,-5.060334 6.912545,-1.85221 z"
     inkscape:transform-center-x="1.0693743"
     inkscape:transform-center-y="1.0693743"
     transform="translate(19.308536,38.39475)" />
  <path
     sodipodi:type="star"
     style="fill:#007aff;fill-opacity:1;stroke:#000000;stroke-width:0.717;stroke-linejoin:round;stroke-dasharray:none"
     id="path1860-0-4"
     inkscape:flatsided="false"
     sodipodi:sides="3"
     sodipodi:cx="63.869556"
     sodipodi:cy="39.464115"
     sodipodi:r1="8.2634907"
     sodipodi:r2="4.1317449"
     sodipodi:arg1="-0.78539816"
     sodipodi:arg2="0.26179939"
     inkscape:rounded="0"
     inkscape:randomized="0"
     d="m 69.712727,33.620945 -1.852212,6.912544 -1.85221,6.912545 -5.060333,-5.060334 -5.060335,-5.060334 6.912545,-1.85221 z"
     inkscape:transform-center-x="1.0693743"
     inkscape:transform-center-y="1.0693743"
     transform="translate(76.622374,-3.7305964)" />
  <path
     sodipodi:type="star"
     style="fill:#007aff;fill-opacity:1;stroke:#000000;stroke-width:0.717;stroke-linejoin:round;stroke-dasharray:none"
     id="path1860-0-4-0"
     inkscape:flatsided="false"
     sodipodi:sides="3"
     sodipodi:cx="63.869556"
     sodipodi:cy="39.464115"
     sodipodi:r1="8.2634907"
     sodipodi:r2="4.1317449"
     sodipodi:arg1="-0.78539816"
     sodipodi:arg2="0.26179939"
     inkscape:rounded="0"
     inkscape:randomized="0"
     d="m 69.712727,33.620945 -1.852212,6.912544 -1.85221,6.912545 -5.060333,-5.060334 -5.060335,-5.060334 6.912545,-1.85221 z"
     inkscape:transform-center-x="1.0693743"
     inkscape:transform-center-y="1.0693743"
     transform="translate(113.81471,-24.760816)" />
  <path
     sodipodi:type="star"
     style="fill:#007aff;fill-opacity:1;stroke:#000000;stroke-width:0.717;stroke-linejoin:round;stroke-dasharray:none"
     id="path1860-0-4-7"
     inkscape:flatsided="false"
     sodipodi:sides="3"
     sodipodi:cx="63.869556"
     sodipodi:cy="39.464115"
     sodipodi:r1="8.2634907"
     sodipodi:r2="4.1317449"
     sodipodi:arg1="-0.78539816"
     sodipodi:arg2="0.26179939"
     inkscape:rounded="0"
     inkscape:randomized="0"
     d="m 69.712727,33.620945 -1.852212,6.912544 -1.85221,6.912545 -5.060333,-5.060334 -5.060335,-5.060334 6.912545,-1.85221 z"
     inkscape:transform-center-x="1.0693743"
     inkscape:transform-center-y="1.0693743"
     transform="translate(205.80092,38.531554)" />
  <path
     sodipodi:type="star"
     style="fill:#007aff;fill-opacity:1;stroke:#000000;stroke-width:0.717;stroke-linejoin:round;stroke-dasharray:none"
     id="path1860-0-4-1"
     inkscape:flatsided="false"
     sodipodi:sides="3"
     sodipodi:cx="63.869556"
     sodipodi:cy="39.464115"
     sodipodi:r1="8.2634907"
     sodipodi:r2="4.1317449"
     sodipodi:arg1="-0.78539816"
     sodipodi:arg2="0.26179939"
     inkscape:rounded="0"
     inkscape:randomized="0"
     d="m 69.712727,33.620945 -1.852212,6.912544 -1.85221,6.912545 -5.060333,-5.060334 -5.060335,-5.060334 6.912545,-1.85221 z"
     inkscape:transform-center-x="1.0693743"
     inkscape:transform-center-y="1.0693743"
     transform="translate(243.0413,60.466665)" />
  <path
     sodipodi:type="star"
     style="fill:#007aff;fill-opacity:1;stroke:#000000;stroke-width:0.717;stroke-linejoin:round;stroke-dasharray:none"
     id="path1860-0-4-9"
     inkscape:flatsided="false"
     sodipodi:sides="3"
     sodipodi:cx="63.869556"
     sodipodi:cy="39.464115"
     sodipodi:r1="8.2634907"
     sodipodi:r2="4.1317449"
     sodipodi:arg1="-0.78539816"
     sodipodi:arg2="0.26179939"
     inkscape:rounded="0"
     inkscape:randomized="0"
     d="m 69.712727,33.620945 -1.852212,6.912544 -1.85221,6.912545 -5.060333,-5.060334 -5.060335,-5.060334 6.912545,-1.85221 z"
     inkscape:transform-center-x="1.0693743"
     inkscape:transform-center-y="1.0693743"
     transform="translate(369.91971,62.409973)" />
  <path
     sodipodi:type="star"
     style="fill:#007aff;fill-opacity:1;stroke:#000000;stroke-width:0.717;stroke-linejoin:round;stroke-dasharray:none"
     id="path1860-0-4-4"
     inkscape:flatsided="false"
     sodipodi:sides="3"
     sodipodi:cx="63.869556"
     sodipodi:cy="39.464115"
     sodipodi:r1="8.2634907"
     sodipodi:r2="4.1317449"
     sodipodi:arg1="-0.78539816"
     sodipodi:arg2="0.26179939"
     inkscape:rounded="0"
     inkscape:randomized="0"
     d="m 69.712727,33.620945 -1.852212,6.912544 -1.85221,6.912545 -5.060333,-5.060334 -5.060335,-5.060334 6.912545,-1.85221 z"
     inkscape:transform-center-x="1.0693743"
     inkscape:transform-center-y="1.0693743"
     transform="translate(405.57712,-1.1162057)" />
</svg>
