<?xml version="1.0" encoding="UTF-8"?>
<svg xmlns="http://www.w3.org/2000/svg" xmlns:xlink="http://www.w3.org/1999/xlink" width="118pt" height="119pt" viewBox="0 0 118 119" version="1.1">
<defs>
<clipPath id="clip1">
  <path d="M 46 0.667969 L 117.164062 0.667969 L 117.164062 119 L 46 119 Z M 46 0.667969 "/>
</clipPath>
<clipPath id="clip2">
  <path d="M 0 0.667969 L 69 0.667969 L 69 119 L 0 119 Z M 0 0.667969 "/>
</clipPath>
<clipPath id="clip3">
  <path d="M 41 0.667969 L 74 0.667969 L 74 22 L 41 22 Z M 41 0.667969 "/>
</clipPath>
<clipPath id="clip4">
  <path d="M 95 97 L 117.164062 97 L 117.164062 119 L 95 119 Z M 95 97 "/>
</clipPath>
</defs>
<g id="surface1">
<path style="fill:none;stroke-width:20;stroke-linecap:butt;stroke-linejoin:miter;stroke:rgb(13.729858%,12.159729%,12.548828%);stroke-opacity:1;stroke-miterlimit:4;" d="M 576.640625 55 L 300 608.320312 " transform="matrix(0.1,0,0,-0.1,0,119)"/>
<g clip-path="url(#clip1)" clip-rule="nonzero">
<path style="fill:none;stroke-width:20;stroke-linecap:butt;stroke-linejoin:miter;stroke:rgb(13.729858%,12.159729%,12.548828%);stroke-opacity:1;stroke-miterlimit:4;" d="M 576.640625 1128.320312 L 1116.640625 55 " transform="matrix(0.1,0,0,-0.1,0,119)"/>
</g>
<path style="fill:none;stroke-width:20;stroke-linecap:butt;stroke-linejoin:miter;stroke:rgb(13.729858%,12.159729%,12.548828%);stroke-opacity:1;stroke-miterlimit:4;" d="M 55 55 L 1116.640625 55 " transform="matrix(0.1,0,0,-0.1,0,119)"/>
<g clip-path="url(#clip2)" clip-rule="nonzero">
<path style="fill:none;stroke-width:20;stroke-linecap:butt;stroke-linejoin:miter;stroke:rgb(13.729858%,12.159729%,12.548828%);stroke-opacity:1;stroke-miterlimit:4;" d="M 576.640625 1128.320312 L 55 55 " transform="matrix(0.1,0,0,-0.1,0,119)"/>
</g>
<path style="fill:none;stroke-width:20;stroke-linecap:butt;stroke-linejoin:miter;stroke:rgb(13.729858%,12.159729%,12.548828%);stroke-opacity:1;stroke-miterlimit:4;" d="M 300 608.320312 L 838.28125 608.320312 " transform="matrix(0.1,0,0,-0.1,0,119)"/>
<path style="fill:none;stroke-width:20;stroke-linecap:butt;stroke-linejoin:miter;stroke:rgb(13.729858%,12.159729%,12.548828%);stroke-opacity:1;stroke-miterlimit:4;" d="M 838.28125 608.320312 L 576.640625 55 " transform="matrix(0.1,0,0,-0.1,0,119)"/>
<path style=" stroke:none;fill-rule:nonzero;fill:rgb(100%,100%,100%);fill-opacity:1;" d="M 36.082031 58.167969 C 36.082031 55.683594 34.070312 53.667969 31.582031 53.667969 C 29.097656 53.667969 27.082031 55.683594 27.082031 58.167969 C 27.082031 60.652344 29.097656 62.667969 31.582031 62.667969 C 34.070312 62.667969 36.082031 60.652344 36.082031 58.167969 "/>
<path style="fill:none;stroke-width:20;stroke-linecap:butt;stroke-linejoin:miter;stroke:rgb(13.729858%,12.159729%,12.548828%);stroke-opacity:1;stroke-miterlimit:4;" d="M 360.820312 608.320312 C 360.820312 633.164062 340.703125 653.320312 315.820312 653.320312 C 290.976562 653.320312 270.820312 633.164062 270.820312 608.320312 C 270.820312 583.476562 290.976562 563.320312 315.820312 563.320312 C 340.703125 563.320312 360.820312 583.476562 360.820312 608.320312 Z M 360.820312 608.320312 " transform="matrix(0.1,0,0,-0.1,0,119)"/>
<path style=" stroke:none;fill-rule:nonzero;fill:rgb(100%,100%,100%);fill-opacity:1;" d="M 62.164062 6.167969 C 62.164062 3.683594 60.152344 1.667969 57.664062 1.667969 C 55.179688 1.667969 53.164062 3.683594 53.164062 6.167969 C 53.164062 8.652344 55.179688 10.667969 57.664062 10.667969 C 60.152344 10.667969 62.164062 8.652344 62.164062 6.167969 "/>
<g clip-path="url(#clip3)" clip-rule="nonzero">
<path style="fill:none;stroke-width:20;stroke-linecap:butt;stroke-linejoin:miter;stroke:rgb(13.729858%,12.159729%,12.548828%);stroke-opacity:1;stroke-miterlimit:4;" d="M 621.640625 1128.320312 C 621.640625 1153.164062 601.523438 1173.320312 576.640625 1173.320312 C 551.796875 1173.320312 531.640625 1153.164062 531.640625 1128.320312 C 531.640625 1103.476562 551.796875 1083.320312 576.640625 1083.320312 C 601.523438 1083.320312 621.640625 1103.476562 621.640625 1128.320312 Z M 621.640625 1128.320312 " transform="matrix(0.1,0,0,-0.1,0,119)"/>
</g>
<path style=" stroke:none;fill-rule:nonzero;fill:rgb(100%,100%,100%);fill-opacity:1;" d="M 87.832031 58.167969 C 87.832031 55.683594 85.820312 53.667969 83.332031 53.667969 C 80.847656 53.667969 78.832031 55.683594 78.832031 58.167969 C 78.832031 60.652344 80.847656 62.667969 83.332031 62.667969 C 85.820312 62.667969 87.832031 60.652344 87.832031 58.167969 "/>
<path style="fill:none;stroke-width:20;stroke-linecap:butt;stroke-linejoin:miter;stroke:rgb(13.729858%,12.159729%,12.548828%);stroke-opacity:1;stroke-miterlimit:4;" d="M 878.320312 608.320312 C 878.320312 633.164062 858.203125 653.320312 833.320312 653.320312 C 808.476562 653.320312 788.320312 633.164062 788.320312 608.320312 C 788.320312 583.476562 808.476562 563.320312 833.320312 563.320312 C 858.203125 563.320312 878.320312 583.476562 878.320312 608.320312 Z M 878.320312 608.320312 " transform="matrix(0.1,0,0,-0.1,0,119)"/>
<path style=" stroke:none;fill-rule:nonzero;fill:rgb(100%,100%,100%);fill-opacity:1;" d="M 62.164062 113.5 C 62.164062 111.015625 60.152344 109 57.664062 109 C 55.179688 109 53.164062 111.015625 53.164062 113.5 C 53.164062 115.984375 55.179688 118 57.664062 118 C 60.152344 118 62.164062 115.984375 62.164062 113.5 "/>
<path style="fill:none;stroke-width:20;stroke-linecap:butt;stroke-linejoin:miter;stroke:rgb(13.729858%,12.159729%,12.548828%);stroke-opacity:1;stroke-miterlimit:4;" d="M 621.640625 55 C 621.640625 79.84375 601.523438 100 576.640625 100 C 551.796875 100 531.640625 79.84375 531.640625 55 C 531.640625 30.15625 551.796875 10 576.640625 10 C 601.523438 10 621.640625 30.15625 621.640625 55 Z M 621.640625 55 " transform="matrix(0.1,0,0,-0.1,0,119)"/>
<path style=" stroke:none;fill-rule:nonzero;fill:rgb(100%,100%,100%);fill-opacity:1;" d="M 116.164062 113.5 C 116.164062 111.015625 114.148438 109 111.664062 109 C 109.183594 109 107.164062 111.015625 107.164062 113.5 C 107.164062 115.984375 109.183594 118 111.664062 118 C 114.148438 118 116.164062 115.984375 116.164062 113.5 "/>
<g clip-path="url(#clip4)" clip-rule="nonzero">
<path style="fill:none;stroke-width:20;stroke-linecap:butt;stroke-linejoin:miter;stroke:rgb(13.729858%,12.159729%,12.548828%);stroke-opacity:1;stroke-miterlimit:4;" d="M 1161.640625 55 C 1161.640625 79.84375 1141.484375 100 1116.640625 100 C 1091.835938 100 1071.640625 79.84375 1071.640625 55 C 1071.640625 30.15625 1091.835938 10 1116.640625 10 C 1141.484375 10 1161.640625 30.15625 1161.640625 55 Z M 1161.640625 55 " transform="matrix(0.1,0,0,-0.1,0,119)"/>
</g>
<path style=" stroke:none;fill-rule:nonzero;fill:rgb(100%,100%,100%);fill-opacity:1;" d="M 10 113.5 C 10 111.015625 7.984375 109 5.5 109 C 3.015625 109 1 111.015625 1 113.5 C 1 115.984375 3.015625 118 5.5 118 C 7.984375 118 10 115.984375 10 113.5 "/>
<path style="fill:none;stroke-width:20;stroke-linecap:butt;stroke-linejoin:miter;stroke:rgb(13.729858%,12.159729%,12.548828%);stroke-opacity:1;stroke-miterlimit:4;" d="M 100 55 C 100 79.84375 79.84375 100 55 100 C 30.15625 100 10 79.84375 10 55 C 10 30.15625 30.15625 10 55 10 C 79.84375 10 100 30.15625 100 55 Z M 100 55 " transform="matrix(0.1,0,0,-0.1,0,119)"/>
</g>
</svg>
