<?xml version="1.0" encoding="UTF-8"?>
<svg xmlns="http://www.w3.org/2000/svg" xmlns:xlink="http://www.w3.org/1999/xlink" width="504pt" height="144pt" viewBox="0 0 504 144" version="1.1">
<g id="surface1">
<path style=" stroke:none;fill-rule:nonzero;fill:rgb(96.403503%,78.808594%,42.222595%);fill-opacity:1;" d="M 55.464844 71 C 55.464844 67.023438 51.972656 63.800781 47.667969 63.800781 C 43.359375 63.800781 39.867188 67.023438 39.867188 71 C 39.867188 74.976562 43.359375 78.199219 47.667969 78.199219 C 51.972656 78.199219 55.464844 74.976562 55.464844 71 "/>
<path style="fill:none;stroke-width:4;stroke-linecap:butt;stroke-linejoin:miter;stroke:rgb(13.729858%,12.159729%,12.548828%);stroke-opacity:1;stroke-miterlimit:4;" d="M -0.00145625 0 C -0.00145625 3.976562 -3.493644 7.199219 -7.798331 7.199219 C -12.106925 7.199219 -15.599113 3.976562 -15.599113 0 C -15.599113 -3.976562 -12.106925 -7.199219 -7.798331 -7.199219 C -3.493644 -7.199219 -0.00145625 -3.976562 -0.00145625 0 Z M -0.00145625 0 " transform="matrix(1,0,0,-1,55.4663,71)"/>
<path style="fill:none;stroke-width:3;stroke-linecap:butt;stroke-linejoin:miter;stroke:rgb(13.729858%,12.159729%,12.548828%);stroke-opacity:1;stroke-miterlimit:4;" d="M -0.00098125 -0.0019375 L 54.131831 53.334 " transform="matrix(1,0,0,-1,280.2002,98.334)"/>
<path style="fill:none;stroke-width:3;stroke-linecap:butt;stroke-linejoin:miter;stroke:rgb(13.729858%,12.159729%,12.548828%);stroke-opacity:1;stroke-miterlimit:4;" d="M -0.0000125 -0.00046875 L -0.0000125 -55.3325 " transform="matrix(1,0,0,-1,334.8672,44.6675)"/>
<path style="fill:none;stroke-width:3;stroke-linecap:butt;stroke-linejoin:miter;stroke:rgb(13.729858%,12.159729%,12.548828%);stroke-opacity:1;stroke-miterlimit:4;" d="M -0.00195 -0.00046875 L -0.00195 -55.3325 " transform="matrix(1,0,0,-1,280.5332,44.6675)"/>
<path style=" stroke:none;fill-rule:nonzero;fill:rgb(96.403503%,78.808594%,42.222595%);fill-opacity:1;" d="M 288.335938 45.867188 C 288.335938 41.890625 284.84375 38.667969 280.535156 38.667969 C 276.226562 38.667969 272.734375 41.890625 272.734375 45.867188 C 272.734375 49.84375 276.226562 53.066406 280.535156 53.066406 C 284.84375 53.066406 288.335938 49.84375 288.335938 45.867188 "/>
<path style="fill:none;stroke-width:4;stroke-linecap:butt;stroke-linejoin:miter;stroke:rgb(13.729858%,12.159729%,12.548828%);stroke-opacity:1;stroke-miterlimit:4;" d="M 0.0019375 0.0000125 C 0.0019375 3.976575 -3.49025 7.199231 -7.798844 7.199231 C -12.107438 7.199231 -15.599625 3.976575 -15.599625 0.0000125 C -15.599625 -3.97655 -12.107438 -7.199206 -7.798844 -7.199206 C -3.49025 -7.199206 0.0019375 -3.97655 0.0019375 0.0000125 Z M 0.0019375 0.0000125 " transform="matrix(1,0,0,-1,288.334,45.8672)"/>
<path style=" stroke:none;fill-rule:nonzero;fill:rgb(96.403503%,78.808594%,42.222595%);fill-opacity:1;" d="M 288.332031 99.136719 C 288.332031 95.15625 284.839844 91.933594 280.53125 91.933594 C 276.226562 91.933594 272.730469 95.15625 272.730469 99.136719 C 272.730469 103.109375 276.226562 106.332031 280.53125 106.332031 C 284.839844 106.332031 288.332031 103.109375 288.332031 99.136719 "/>
<path style="fill:none;stroke-width:4;stroke-linecap:butt;stroke-linejoin:miter;stroke:rgb(13.729858%,12.159729%,12.548828%);stroke-opacity:1;stroke-miterlimit:4;" d="M 0.00003125 -0.00191875 C 0.00003125 3.97855 -3.492156 7.201206 -7.80075 7.201206 C -12.105437 7.201206 -15.601531 3.97855 -15.601531 -0.00191875 C -15.601531 -3.974575 -12.105437 -7.197231 -7.80075 -7.197231 C -3.492156 -7.197231 0.00003125 -3.974575 0.00003125 -0.00191875 Z M 0.00003125 -0.00191875 " transform="matrix(1,0,0,-1,288.332,99.1348)"/>
<path style=" stroke:none;fill-rule:nonzero;fill:rgb(96.403503%,78.808594%,42.222595%);fill-opacity:1;" d="M 342.132812 45 C 342.132812 41.023438 338.640625 37.800781 334.332031 37.800781 C 330.027344 37.800781 326.53125 41.023438 326.53125 45 C 326.53125 48.976562 330.027344 52.199219 334.332031 52.199219 C 338.640625 52.199219 342.132812 48.976562 342.132812 45 "/>
<path style="fill:none;stroke-width:4;stroke-linecap:butt;stroke-linejoin:miter;stroke:rgb(13.729858%,12.159729%,12.548828%);stroke-opacity:1;stroke-miterlimit:4;" d="M 0.0000125 0.0005 C 0.0000125 3.977062 -3.492175 7.199719 -7.800769 7.199719 C -12.105456 7.199719 -15.60155 3.977062 -15.60155 0.0005 C -15.60155 -3.976063 -12.105456 -7.198719 -7.800769 -7.198719 C -3.492175 -7.198719 0.0000125 -3.976063 0.0000125 0.0005 Z M 0.0000125 0.0005 " transform="matrix(1,0,0,-1,342.1328,45.0005)"/>
<path style=" stroke:none;fill-rule:nonzero;fill:rgb(96.403503%,78.808594%,42.222595%);fill-opacity:1;" d="M 342.132812 99 C 342.132812 95.023438 338.640625 91.800781 334.332031 91.800781 C 330.027344 91.800781 326.53125 95.023438 326.53125 99 C 326.53125 102.976562 330.027344 106.199219 334.332031 106.199219 C 338.640625 106.199219 342.132812 102.976562 342.132812 99 "/>
<path style="fill:none;stroke-width:4;stroke-linecap:butt;stroke-linejoin:miter;stroke:rgb(13.729858%,12.159729%,12.548828%);stroke-opacity:1;stroke-miterlimit:4;" d="M 0.0000125 0 C 0.0000125 3.976562 -3.492175 7.199219 -7.800769 7.199219 C -12.105456 7.199219 -15.60155 3.976562 -15.60155 0 C -15.60155 -3.976562 -12.105456 -7.199219 -7.800769 -7.199219 C -3.492175 -7.199219 0.0000125 -3.976562 0.0000125 0 Z M 0.0000125 0 " transform="matrix(1,0,0,-1,342.1328,99)"/>
<path style="fill:none;stroke-width:4;stroke-linecap:butt;stroke-linejoin:miter;stroke:rgb(13.729858%,12.159729%,12.548828%);stroke-opacity:1;stroke-miterlimit:4;" d="M 0.00053125 -0.00099375 L -0.3315 -108.731463 " transform="matrix(1,0,0,-1,207.3315,16.9326)"/>
<path style=" stroke:none;fill-rule:nonzero;fill:rgb(96.403503%,78.808594%,42.222595%);fill-opacity:1;" d="M 215.132812 16.933594 C 215.132812 12.957031 211.640625 9.734375 207.332031 9.734375 C 203.023438 9.734375 199.53125 12.957031 199.53125 16.933594 C 199.53125 20.910156 203.023438 24.132812 207.332031 24.132812 C 211.640625 24.132812 215.132812 20.910156 215.132812 16.933594 "/>
<path style="fill:none;stroke-width:4;stroke-linecap:butt;stroke-linejoin:miter;stroke:rgb(13.729858%,12.159729%,12.548828%);stroke-opacity:1;stroke-miterlimit:4;" d="M 0.0015125 -0.00099375 C 0.0015125 3.975569 -3.490675 7.198225 -7.799269 7.198225 C -12.107863 7.198225 -15.60005 3.975569 -15.60005 -0.00099375 C -15.60005 -3.977556 -12.107863 -7.200213 -7.799269 -7.200213 C -3.490675 -7.200213 0.0015125 -3.977556 0.0015125 -0.00099375 Z M 0.0015125 -0.00099375 " transform="matrix(1,0,0,-1,215.1313,16.9326)"/>
<path style=" stroke:none;fill-rule:nonzero;fill:rgb(96.403503%,78.808594%,42.222595%);fill-opacity:1;" d="M 214.800781 71.667969 C 214.800781 67.6875 211.308594 64.464844 207 64.464844 C 202.691406 64.464844 199.199219 67.6875 199.199219 71.667969 C 199.199219 75.640625 202.691406 78.867188 207 78.867188 C 211.308594 78.867188 214.800781 75.640625 214.800781 71.667969 "/>
<path style="fill:none;stroke-width:4;stroke-linecap:butt;stroke-linejoin:miter;stroke:rgb(13.729858%,12.159729%,12.548828%);stroke-opacity:1;stroke-miterlimit:4;" d="M 0.00098125 -0.00096875 C 0.00098125 3.9795 -3.491206 7.202156 -7.7998 7.202156 C -12.108394 7.202156 -15.600581 3.9795 -15.600581 -0.00096875 C -15.600581 -3.973625 -12.108394 -7.200187 -7.7998 -7.200187 C -3.491206 -7.200187 0.00098125 -3.973625 0.00098125 -0.00096875 Z M 0.00098125 -0.00096875 " transform="matrix(1,0,0,-1,214.7998,71.667)"/>
<path style=" stroke:none;fill-rule:nonzero;fill:rgb(96.403503%,78.808594%,42.222595%);fill-opacity:1;" d="M 214.800781 125.664062 C 214.800781 121.6875 211.308594 118.46875 207 118.46875 C 202.691406 118.46875 199.199219 121.6875 199.199219 125.664062 C 199.199219 129.644531 202.691406 132.867188 207 132.867188 C 211.308594 132.867188 214.800781 129.644531 214.800781 125.664062 "/>
<path style="fill:none;stroke-width:4;stroke-linecap:butt;stroke-linejoin:miter;stroke:rgb(13.729858%,12.159729%,12.548828%);stroke-opacity:1;stroke-miterlimit:4;" d="M 0.00098125 0.0019375 C 0.00098125 3.9785 -3.491206 7.19725 -7.7998 7.19725 C -12.108394 7.19725 -15.600581 3.9785 -15.600581 0.0019375 C -15.600581 -3.978531 -12.108394 -7.201188 -7.7998 -7.201188 C -3.491206 -7.201188 0.00098125 -3.978531 0.00098125 0.0019375 Z M 0.00098125 0.0019375 " transform="matrix(1,0,0,-1,214.7998,125.666)"/>
<path style="fill:none;stroke-width:4;stroke-linecap:butt;stroke-linejoin:miter;stroke:rgb(13.729858%,12.159729%,12.548828%);stroke-opacity:1;stroke-miterlimit:4;" d="M 0.00146875 0.00146875 L 0.00146875 -55.334469 " transform="matrix(1,0,0,-1,126.6665,43.3335)"/>
<path style=" stroke:none;fill-rule:nonzero;fill:rgb(96.403503%,78.808594%,42.222595%);fill-opacity:1;" d="M 135.132812 44.132812 C 135.132812 40.15625 131.640625 36.933594 127.332031 36.933594 C 123.023438 36.933594 119.53125 40.15625 119.53125 44.132812 C 119.53125 48.109375 123.023438 51.332031 127.332031 51.332031 C 131.640625 51.332031 135.132812 48.109375 135.132812 44.132812 "/>
<path style="fill:none;stroke-width:4;stroke-linecap:butt;stroke-linejoin:miter;stroke:rgb(13.729858%,12.159729%,12.548828%);stroke-opacity:1;stroke-miterlimit:4;" d="M 0.0005125 0.0014875 C 0.0005125 3.97805 -3.491675 7.200706 -7.800269 7.200706 C -12.108863 7.200706 -15.60105 3.97805 -15.60105 0.0014875 C -15.60105 -3.975075 -12.108863 -7.197731 -7.800269 -7.197731 C -3.491675 -7.197731 0.0005125 -3.975075 0.0005125 0.0014875 Z M 0.0005125 0.0014875 " transform="matrix(1,0,0,-1,135.1323,44.1343)"/>
<path style=" stroke:none;fill-rule:nonzero;fill:rgb(96.403503%,78.808594%,42.222595%);fill-opacity:1;" d="M 133.800781 98.53125 C 133.800781 94.554688 130.308594 91.335938 126 91.335938 C 121.691406 91.335938 118.199219 94.554688 118.199219 98.53125 C 118.199219 102.511719 121.691406 105.730469 126 105.730469 C 130.308594 105.730469 133.800781 102.511719 133.800781 98.53125 "/>
<path style="fill:none;stroke-width:4;stroke-linecap:butt;stroke-linejoin:miter;stroke:rgb(13.729858%,12.159729%,12.548828%);stroke-opacity:1;stroke-miterlimit:4;" d="M 0.00048125 0.00195 C 0.00048125 3.978512 -3.491706 7.197262 -7.8003 7.197262 C -12.108894 7.197262 -15.601081 3.978512 -15.601081 0.00195 C -15.601081 -3.978519 -12.108894 -7.197269 -7.8003 -7.197269 C -3.491706 -7.197269 0.00048125 -3.978519 0.00048125 0.00195 Z M 0.00048125 0.00195 " transform="matrix(1,0,0,-1,133.8003,98.5332)"/>
<path style="fill:none;stroke-width:3;stroke-linecap:butt;stroke-linejoin:miter;stroke:rgb(13.729858%,12.159729%,12.548828%);stroke-opacity:1;stroke-miterlimit:4;" d="M 0 0.00046875 L 26.332031 -50.335469 " transform="matrix(1,0,0,-1,439,19.3325)"/>
<path style="fill:none;stroke-width:3;stroke-linecap:butt;stroke-linejoin:miter;stroke:rgb(13.729858%,12.159729%,12.548828%);stroke-opacity:1;stroke-miterlimit:4;" d="M 0 0 L 57.339844 0 " transform="matrix(1,0,0,-1,411,125)"/>
<path style=" stroke:none;fill-rule:nonzero;fill:rgb(96.403503%,78.808594%,42.222595%);fill-opacity:1;" d="M 446.800781 19.332031 C 446.800781 15.355469 443.308594 12.132812 439 12.132812 C 434.691406 12.132812 431.199219 15.355469 431.199219 19.332031 C 431.199219 23.308594 434.691406 26.53125 439 26.53125 C 443.308594 26.53125 446.800781 23.308594 446.800781 19.332031 "/>
<path style="fill:none;stroke-width:4;stroke-linecap:butt;stroke-linejoin:miter;stroke:rgb(13.729858%,12.159729%,12.548828%);stroke-opacity:1;stroke-miterlimit:4;" d="M 0.00098125 0.00096875 C 0.00098125 3.977531 -3.491206 7.200187 -7.7998 7.200187 C -12.108394 7.200187 -15.600581 3.977531 -15.600581 0.00096875 C -15.600581 -3.975594 -12.108394 -7.19825 -7.7998 -7.19825 C -3.491206 -7.19825 0.00098125 -3.975594 0.00098125 0.00096875 Z M 0.00098125 0.00096875 " transform="matrix(1,0,0,-1,446.7998,19.333)"/>
<path style="fill:none;stroke-width:3;stroke-linecap:butt;stroke-linejoin:miter;stroke:rgb(13.729858%,12.159729%,12.548828%);stroke-opacity:1;stroke-miterlimit:4;" d="M -0.00096875 -0.00096875 L -0.00096875 -55.333 " transform="matrix(1,0,0,-1,465.333,69.667)"/>
<path style="fill:none;stroke-width:3;stroke-linecap:butt;stroke-linejoin:miter;stroke:rgb(13.729858%,12.159729%,12.548828%);stroke-opacity:1;stroke-miterlimit:4;" d="M 0 -0.00096875 L 0 -55.333 " transform="matrix(1,0,0,-1,411,69.667)"/>
<path style=" stroke:none;fill-rule:nonzero;fill:rgb(96.403503%,78.808594%,42.222595%);fill-opacity:1;" d="M 418.800781 70.867188 C 418.800781 66.890625 415.308594 63.667969 411 63.667969 C 406.695312 63.667969 403.199219 66.890625 403.199219 70.867188 C 403.199219 74.839844 406.695312 78.066406 411 78.066406 C 415.308594 78.066406 418.800781 74.839844 418.800781 70.867188 "/>
<path style="fill:none;stroke-width:4;stroke-linecap:butt;stroke-linejoin:miter;stroke:rgb(13.729858%,12.159729%,12.548828%);stroke-opacity:1;stroke-miterlimit:4;" d="M -0.00001875 -0.0004875 C -0.00001875 3.976075 -3.492206 7.198731 -7.8008 7.198731 C -12.105488 7.198731 -15.601581 3.976075 -15.601581 -0.0004875 C -15.601581 -3.973144 -12.105488 -7.199706 -7.8008 -7.199706 C -3.492206 -7.199706 -0.00001875 -3.973144 -0.00001875 -0.0004875 Z M -0.00001875 -0.0004875 " transform="matrix(1,0,0,-1,418.8008,70.8667)"/>
<path style=" stroke:none;fill-rule:nonzero;fill:rgb(96.403503%,78.808594%,42.222595%);fill-opacity:1;" d="M 418.796875 124.136719 C 418.796875 120.15625 415.308594 116.933594 411 116.933594 C 406.691406 116.933594 403.199219 120.15625 403.199219 124.136719 C 403.199219 128.109375 406.691406 131.332031 411 131.332031 C 415.308594 131.332031 418.796875 128.109375 418.796875 124.136719 "/>
<path style="fill:none;stroke-width:4;stroke-linecap:butt;stroke-linejoin:miter;stroke:rgb(13.729858%,12.159729%,12.548828%);stroke-opacity:1;stroke-miterlimit:4;" d="M -0.001925 -0.00191875 C -0.001925 3.97855 -3.490206 7.201206 -7.7988 7.201206 C -12.107394 7.201206 -15.599581 3.97855 -15.599581 -0.00191875 C -15.599581 -3.974575 -12.107394 -7.197231 -7.7988 -7.197231 C -3.490206 -7.197231 -0.001925 -3.974575 -0.001925 -0.00191875 Z M -0.001925 -0.00191875 " transform="matrix(1,0,0,-1,418.7988,124.1348)"/>
<path style=" stroke:none;fill-rule:nonzero;fill:rgb(96.403503%,78.808594%,42.222595%);fill-opacity:1;" d="M 472.597656 70 C 472.597656 66.023438 469.105469 62.800781 464.800781 62.800781 C 460.492188 62.800781 457 66.023438 457 70 C 457 73.976562 460.492188 77.199219 464.800781 77.199219 C 469.105469 77.199219 472.597656 73.976562 472.597656 70 "/>
<path style="fill:none;stroke-width:4;stroke-linecap:butt;stroke-linejoin:miter;stroke:rgb(13.729858%,12.159729%,12.548828%);stroke-opacity:1;stroke-miterlimit:4;" d="M -0.00094375 0 C -0.00094375 3.976562 -3.493131 7.199219 -7.797819 7.199219 C -12.106412 7.199219 -15.5986 3.976562 -15.5986 0 C -15.5986 -3.976562 -12.106412 -7.199219 -7.797819 -7.199219 C -3.493131 -7.199219 -0.00094375 -3.976562 -0.00094375 0 Z M -0.00094375 0 " transform="matrix(1,0,0,-1,472.5986,70)"/>
<path style=" stroke:none;fill-rule:nonzero;fill:rgb(96.403503%,78.808594%,42.222595%);fill-opacity:1;" d="M 472.597656 124 C 472.597656 120.023438 469.105469 116.800781 464.800781 116.800781 C 460.492188 116.800781 457 120.023438 457 124 C 457 127.976562 460.492188 131.199219 464.800781 131.199219 C 469.105469 131.199219 472.597656 127.976562 472.597656 124 "/>
<path style="fill:none;stroke-width:4;stroke-linecap:butt;stroke-linejoin:miter;stroke:rgb(13.729858%,12.159729%,12.548828%);stroke-opacity:1;stroke-miterlimit:4;" d="M -0.00094375 0 C -0.00094375 3.976562 -3.493131 7.199219 -7.797819 7.199219 C -12.106412 7.199219 -15.5986 3.976562 -15.5986 0 C -15.5986 -3.976562 -12.106412 -7.199219 -7.797819 -7.199219 C -3.493131 -7.199219 -0.00094375 -3.976562 -0.00094375 0 Z M -0.00094375 0 " transform="matrix(1,0,0,-1,472.5986,124)"/>
</g>
</svg>
