<?xml version="1.0" encoding="UTF-8"?>
<svg xmlns="http://www.w3.org/2000/svg" xmlns:xlink="http://www.w3.org/1999/xlink" width="110.16pt" height="108pt" viewBox="0 0 110.16 108" version="1.1">
<defs>
<clipPath id="clip1">
  <path d="M 84 27 L 110.160156 27 L 110.160156 63 L 84 63 Z M 84 27 "/>
</clipPath>
</defs>
<g id="surface1">
<path style="fill:none;stroke-width:2;stroke-linecap:butt;stroke-linejoin:miter;stroke:rgb(13.729858%,12.159729%,12.548828%);stroke-opacity:1;stroke-miterlimit:4;" d="M -0.0004875 -0.00005 L -18.16455 55.902294 L 29.390137 90.449169 L 76.940919 55.902294 L 58.776856 -0.00005 Z M -0.0004875 -0.00005 " transform="matrix(1,0,0,-1,25.8208,100.2812)"/>
<path style=" stroke:none;fill-rule:nonzero;fill:rgb(100%,100%,100%);fill-opacity:1;" d="M 60.453125 9.164062 C 60.453125 5.757812 57.65625 3 54.214844 3 C 50.765625 3 47.972656 5.757812 47.972656 9.164062 C 47.972656 12.566406 50.765625 15.328125 54.214844 15.328125 C 57.65625 15.328125 60.453125 12.566406 60.453125 9.164062 "/>
<path style="fill:none;stroke-width:2;stroke-linecap:butt;stroke-linejoin:miter;stroke:rgb(13.729858%,12.159729%,12.548828%);stroke-opacity:1;stroke-miterlimit:4;" d="M 0.001925 -0.0004625 C 0.001925 3.405788 -2.79495 6.1636 -6.236356 6.1636 C -9.685575 6.1636 -12.478544 3.405788 -12.478544 -0.0004625 C -12.478544 -3.402806 -9.685575 -6.164525 -6.236356 -6.164525 C -2.79495 -6.164525 0.001925 -3.402806 0.001925 -0.0004625 Z M 0.001925 -0.0004625 " transform="matrix(1,0,0,-1,60.4512,9.1636)"/>
<path style=" stroke:none;fill-rule:nonzero;fill:rgb(100%,100%,100%);fill-opacity:1;" d="M 90.25 98 C 90.25 94.597656 87.457031 91.835938 84.011719 91.835938 C 80.566406 91.835938 77.773438 94.597656 77.773438 98 C 77.773438 101.402344 80.566406 104.164062 84.011719 104.164062 C 87.457031 104.164062 90.25 101.402344 90.25 98 "/>
<path style="fill:none;stroke-width:2;stroke-linecap:butt;stroke-linejoin:miter;stroke:rgb(13.729858%,12.159729%,12.548828%);stroke-opacity:1;stroke-miterlimit:4;" d="M 0 0 C 0 3.402344 -2.792969 6.164062 -6.238281 6.164062 C -9.683594 6.164062 -12.476562 3.402344 -12.476562 0 C -12.476562 -3.402344 -9.683594 -6.164062 -6.238281 -6.164062 C -2.792969 -6.164062 0 -3.402344 0 0 Z M 0 0 " transform="matrix(1,0,0,-1,90.25,98)"/>
<path style=" stroke:none;fill-rule:nonzero;fill:rgb(100%,100%,100%);fill-opacity:1;" d="M 33.023438 99.832031 C 33.023438 96.425781 30.230469 93.667969 26.785156 93.667969 C 23.335938 93.667969 20.542969 96.425781 20.542969 99.832031 C 20.542969 103.230469 23.335938 105.992188 26.785156 105.992188 C 30.230469 105.992188 33.023438 103.230469 33.023438 99.832031 "/>
<path style="fill:none;stroke-width:2;stroke-linecap:butt;stroke-linejoin:miter;stroke:rgb(13.729858%,12.159729%,12.548828%);stroke-opacity:1;stroke-miterlimit:4;" d="M 0.0014375 -0.00193125 C 0.0014375 3.404319 -2.791531 6.162131 -6.236844 6.162131 C -9.686063 6.162131 -12.479031 3.404319 -12.479031 -0.00193125 C -12.479031 -3.400369 -9.686063 -6.162087 -6.236844 -6.162087 C -2.791531 -6.162087 0.0014375 -3.400369 0.0014375 -0.00193125 Z M 0.0014375 -0.00193125 " transform="matrix(1,0,0,-1,33.022,99.8301)"/>
<path style=" stroke:none;fill-rule:nonzero;fill:rgb(100%,100%,100%);fill-opacity:1;" d="M 108.617188 45.164062 C 108.617188 41.757812 105.824219 39 102.378906 39 C 98.933594 39 96.140625 41.757812 96.140625 45.164062 C 96.140625 48.566406 98.933594 51.328125 102.378906 51.328125 C 105.824219 51.328125 108.617188 48.566406 108.617188 45.164062 "/>
<g clip-path="url(#clip1)" clip-rule="nonzero">
<path style="fill:none;stroke-width:2;stroke-linecap:butt;stroke-linejoin:miter;stroke:rgb(13.729858%,12.159729%,12.548828%);stroke-opacity:1;stroke-miterlimit:4;" d="M -0.0010125 -0.0004625 C -0.0010125 3.405788 -2.793981 6.1636 -6.239294 6.1636 C -9.684606 6.1636 -12.477575 3.405788 -12.477575 -0.0004625 C -12.477575 -3.402806 -9.684606 -6.164525 -6.239294 -6.164525 C -2.793981 -6.164525 -0.0010125 -3.402806 -0.0010125 -0.0004625 Z M -0.0010125 -0.0004625 " transform="matrix(1,0,0,-1,108.6182,45.1636)"/>
</g>
<path style=" stroke:none;fill-rule:nonzero;fill:rgb(100%,100%,100%);fill-opacity:1;" d="M 14.542969 45.164062 C 14.542969 41.757812 11.75 39 8.304688 39 C 4.859375 39 2.066406 41.757812 2.066406 45.164062 C 2.066406 48.566406 4.859375 51.328125 8.304688 51.328125 C 11.75 51.328125 14.542969 48.566406 14.542969 45.164062 "/>
<path style="fill:none;stroke-width:2;stroke-linecap:butt;stroke-linejoin:miter;stroke:rgb(13.729858%,12.159729%,12.548828%);stroke-opacity:1;stroke-miterlimit:4;" d="M -0.00053125 -0.0004625 C -0.00053125 3.405788 -2.7935 6.1636 -6.238812 6.1636 C -9.684125 6.1636 -12.477094 3.405788 -12.477094 -0.0004625 C -12.477094 -3.402806 -9.684125 -6.164525 -6.238812 -6.164525 C -2.7935 -6.164525 -0.00053125 -3.402806 -0.00053125 -0.0004625 Z M -0.00053125 -0.0004625 " transform="matrix(1,0,0,-1,14.5435,45.1636)"/>
</g>
</svg>
