<?xml version="1.0" encoding="UTF-8"?>
<svg xmlns="http://www.w3.org/2000/svg" xmlns:xlink="http://www.w3.org/1999/xlink" width="432pt" height="115.2pt" viewBox="0 0 432 115.2" version="1.1">
<defs>
<clipPath id="clip1">
  <path d="M 4 0 L 127 0 L 127 115.199219 L 4 115.199219 Z M 4 0 "/>
</clipPath>
<clipPath id="clip2">
  <path d="M 59 88 L 95 88 L 95 115.199219 L 59 115.199219 Z M 59 88 "/>
</clipPath>
<clipPath id="clip3">
  <path d="M 34 88 L 70 88 L 70 115.199219 L 34 115.199219 Z M 34 88 "/>
</clipPath>
<clipPath id="clip4">
  <path d="M 158 0 L 282 0 L 282 115.199219 L 158 115.199219 Z M 158 0 "/>
</clipPath>
<clipPath id="clip5">
  <path d="M 214 89 L 250 89 L 250 115.199219 L 214 115.199219 Z M 214 89 "/>
</clipPath>
<clipPath id="clip6">
  <path d="M 188 88 L 225 88 L 225 115.199219 L 188 115.199219 Z M 188 88 "/>
</clipPath>
<clipPath id="clip7">
  <path d="M 308 0 L 432 0 L 432 115.199219 L 308 115.199219 Z M 308 0 "/>
</clipPath>
<clipPath id="clip8">
  <path d="M 363 87 L 399 87 L 399 115.199219 L 363 115.199219 Z M 363 87 "/>
</clipPath>
<clipPath id="clip9">
  <path d="M 338 87 L 374 87 L 374 115.199219 L 338 115.199219 Z M 338 87 "/>
</clipPath>
</defs>
<g id="surface1">
<g clip-path="url(#clip1)" clip-rule="nonzero">
<path style="fill:none;stroke-width:2;stroke-linecap:butt;stroke-linejoin:miter;stroke:rgb(13.729858%,12.159729%,12.548828%);stroke-opacity:1;stroke-miterlimit:4;" d="M 0.00050625 -0.00170625 C 0.00050625 -27.614988 -22.386212 -50.001706 -49.999494 -50.001706 C -77.616681 -50.001706 -99.999494 -27.614988 -99.999494 -0.00170625 C -99.999494 27.615481 -77.616681 49.998294 -49.999494 49.998294 C -22.386212 49.998294 0.00050625 27.615481 0.00050625 -0.00170625 Z M 0.00050625 -0.00170625 " transform="matrix(1,0,0,-1,115.6284,57.5647)"/>
</g>
<path style=" stroke:none;fill-rule:nonzero;fill:rgb(100%,100%,100%);fill-opacity:1;" d="M 83.5 106.222656 C 83.5 102.820312 80.707031 100.058594 77.261719 100.058594 C 73.816406 100.058594 71.023438 102.820312 71.023438 106.222656 C 71.023438 109.625 73.816406 112.386719 77.261719 112.386719 C 80.707031 112.386719 83.5 109.625 83.5 106.222656 "/>
<g clip-path="url(#clip2)" clip-rule="nonzero">
<path style="fill:none;stroke-width:2;stroke-linecap:butt;stroke-linejoin:miter;stroke:rgb(13.729858%,12.159729%,12.548828%);stroke-opacity:1;stroke-miterlimit:4;" d="M -0.0005 0.00174375 C -0.0005 3.404088 -2.793469 6.165806 -6.238781 6.165806 C -9.684094 6.165806 -12.477063 3.404088 -12.477063 0.00174375 C -12.477063 -3.4006 -9.684094 -6.162319 -6.238781 -6.162319 C -2.793469 -6.162319 -0.0005 -3.4006 -0.0005 0.00174375 Z M -0.0005 0.00174375 " transform="matrix(1,0,0,-1,83.5005,106.2244)"/>
</g>
<path style=" stroke:none;fill-rule:nonzero;fill:rgb(13.729858%,12.159729%,12.548828%);fill-opacity:1;" d="M 106.867188 93.230469 C 106.867188 89.828125 104.074219 87.066406 100.628906 87.066406 C 97.183594 87.066406 94.390625 89.828125 94.390625 93.230469 C 94.390625 96.632812 97.183594 99.394531 100.628906 99.394531 C 104.074219 99.394531 106.867188 96.632812 106.867188 93.230469 "/>
<path style="fill:none;stroke-width:2;stroke-linecap:butt;stroke-linejoin:miter;stroke:rgb(13.729858%,12.159729%,12.548828%);stroke-opacity:1;stroke-miterlimit:4;" d="M -0.0015125 0.00073125 C -0.0015125 3.403075 -2.794481 6.164794 -6.239794 6.164794 C -9.685106 6.164794 -12.478075 3.403075 -12.478075 0.00073125 C -12.478075 -3.401612 -9.685106 -6.163331 -6.239794 -6.163331 C -2.794481 -6.163331 -0.0015125 -3.401612 -0.0015125 0.00073125 Z M -0.0015125 0.00073125 " transform="matrix(1,0,0,-1,106.8687,93.2312)"/>
<path style=" stroke:none;fill-rule:nonzero;fill:rgb(13.729858%,12.159729%,12.548828%);fill-opacity:1;" d="M 120 71.054688 C 120 67.652344 117.207031 64.890625 113.761719 64.890625 C 110.316406 64.890625 107.523438 67.652344 107.523438 71.054688 C 107.523438 74.460938 110.316406 77.222656 113.761719 77.222656 C 117.207031 77.222656 120 74.460938 120 71.054688 "/>
<path style="fill:none;stroke-width:2;stroke-linecap:butt;stroke-linejoin:miter;stroke:rgb(13.729858%,12.159729%,12.548828%);stroke-opacity:1;stroke-miterlimit:4;" d="M -0.0005 0.0017125 C -0.0005 3.404056 -2.793469 6.165775 -6.238781 6.165775 C -9.684094 6.165775 -12.477063 3.404056 -12.477063 0.0017125 C -12.477063 -3.404538 -9.684094 -6.166256 -6.238781 -6.166256 C -2.793469 -6.166256 -0.0005 -3.404538 -0.0005 0.0017125 Z M -0.0005 0.0017125 " transform="matrix(1,0,0,-1,120.0005,71.0564)"/>
<path style=" stroke:none;fill-rule:nonzero;fill:rgb(100%,100%,100%);fill-opacity:1;" d="M 119.367188 45.230469 C 119.367188 41.828125 116.574219 39.066406 113.128906 39.066406 C 109.683594 39.066406 106.890625 41.828125 106.890625 45.230469 C 106.890625 48.632812 109.683594 51.394531 113.128906 51.394531 C 116.574219 51.394531 119.367188 48.632812 119.367188 45.230469 "/>
<path style="fill:none;stroke-width:2;stroke-linecap:butt;stroke-linejoin:miter;stroke:rgb(13.729858%,12.159729%,12.548828%);stroke-opacity:1;stroke-miterlimit:4;" d="M -0.0015125 0.00123125 C -0.0015125 3.403575 -2.794481 6.165294 -6.239794 6.165294 C -9.685106 6.165294 -12.478075 3.403575 -12.478075 0.00123125 C -12.478075 -3.401112 -9.685106 -6.162831 -6.239794 -6.162831 C -2.794481 -6.162831 -0.0015125 -3.401112 -0.0015125 0.00123125 Z M -0.0015125 0.00123125 " transform="matrix(1,0,0,-1,119.3687,45.2317)"/>
<path style=" stroke:none;fill-rule:nonzero;fill:rgb(100%,100%,100%);fill-opacity:1;" d="M 107.203125 22.898438 C 107.203125 19.496094 104.410156 16.734375 100.964844 16.734375 C 97.515625 16.734375 94.722656 19.496094 94.722656 22.898438 C 94.722656 26.300781 97.515625 29.0625 100.964844 29.0625 C 104.410156 29.0625 107.203125 26.300781 107.203125 22.898438 "/>
<path style="fill:none;stroke-width:2;stroke-linecap:butt;stroke-linejoin:miter;stroke:rgb(13.729858%,12.159729%,12.548828%);stroke-opacity:1;stroke-miterlimit:4;" d="M 0.000525 -0.0002375 C 0.000525 3.402106 -2.792444 6.163825 -6.237756 6.163825 C -9.686975 6.163825 -12.479944 3.402106 -12.479944 -0.0002375 C -12.479944 -3.402581 -9.686975 -6.1643 -6.237756 -6.1643 C -2.792444 -6.1643 0.000525 -3.402581 0.000525 -0.0002375 Z M 0.000525 -0.0002375 " transform="matrix(1,0,0,-1,107.2026,22.8982)"/>
<path style=" stroke:none;fill-rule:nonzero;fill:rgb(100%,100%,100%);fill-opacity:1;" d="M 36.109375 22.566406 C 36.109375 19.160156 33.316406 16.402344 29.871094 16.402344 C 26.421875 16.402344 23.628906 19.160156 23.628906 22.566406 C 23.628906 25.964844 26.421875 28.730469 29.871094 28.730469 C 33.316406 28.730469 36.109375 25.964844 36.109375 22.566406 "/>
<path style="fill:none;stroke-width:2;stroke-linecap:butt;stroke-linejoin:miter;stroke:rgb(13.729858%,12.159729%,12.548828%);stroke-opacity:1;stroke-miterlimit:4;" d="M 0.001475 -0.00170625 C 0.001475 3.404544 -2.791494 6.162356 -6.236806 6.162356 C -9.686025 6.162356 -12.478994 3.404544 -12.478994 -0.00170625 C -12.478994 -3.400144 -9.686025 -6.165769 -6.236806 -6.165769 C -2.791494 -6.165769 0.001475 -3.400144 0.001475 -0.00170625 Z M 0.001475 -0.00170625 " transform="matrix(1,0,0,-1,36.1079,22.5647)"/>
<path style=" stroke:none;fill-rule:nonzero;fill:rgb(100%,100%,100%);fill-opacity:1;" d="M 58.742188 9.722656 C 58.742188 6.320312 55.949219 3.558594 52.503906 3.558594 C 49.054688 3.558594 46.261719 6.320312 46.261719 9.722656 C 46.261719 13.125 49.054688 15.886719 52.503906 15.886719 C 55.949219 15.886719 58.742188 13.125 58.742188 9.722656 "/>
<path style="fill:none;stroke-width:2;stroke-linecap:butt;stroke-linejoin:miter;stroke:rgb(13.729858%,12.159729%,12.548828%);stroke-opacity:1;stroke-miterlimit:4;" d="M 0.0014875 0.00074375 C 0.0014875 3.403087 -2.791481 6.164806 -6.236794 6.164806 C -9.686013 6.164806 -12.478981 3.403087 -12.478981 0.00074375 C -12.478981 -3.4016 -9.686013 -6.163319 -6.236794 -6.163319 C -2.791481 -6.163319 0.0014875 -3.4016 0.0014875 0.00074375 Z M 0.0014875 0.00074375 " transform="matrix(1,0,0,-1,58.7407,9.7234)"/>
<path style=" stroke:none;fill-rule:nonzero;fill:rgb(100%,100%,100%);fill-opacity:1;" d="M 23.273438 45.398438 C 23.273438 41.996094 20.480469 39.234375 17.035156 39.234375 C 13.589844 39.234375 10.796875 41.996094 10.796875 45.398438 C 10.796875 48.800781 13.589844 51.5625 17.035156 51.5625 C 20.480469 51.5625 23.273438 48.800781 23.273438 45.398438 "/>
<path style="fill:none;stroke-width:2;stroke-linecap:butt;stroke-linejoin:miter;stroke:rgb(13.729858%,12.159729%,12.548828%);stroke-opacity:1;stroke-miterlimit:4;" d="M -0.0014625 -0.0002375 C -0.0014625 3.402106 -2.794431 6.163825 -6.239744 6.163825 C -9.685056 6.163825 -12.478025 3.402106 -12.478025 -0.0002375 C -12.478025 -3.402581 -9.685056 -6.1643 -6.239744 -6.1643 C -2.794431 -6.1643 -0.0014625 -3.402581 -0.0014625 -0.0002375 Z M -0.0014625 -0.0002375 " transform="matrix(1,0,0,-1,23.2749,45.3982)"/>
<path style=" stroke:none;fill-rule:nonzero;fill:rgb(13.729858%,12.159729%,12.548828%);fill-opacity:1;" d="M 36.535156 93.398438 C 36.535156 89.996094 33.742188 87.234375 30.296875 87.234375 C 26.847656 87.234375 24.054688 89.996094 24.054688 93.398438 C 24.054688 96.800781 26.847656 99.5625 30.296875 99.5625 C 33.742188 99.5625 36.535156 96.800781 36.535156 93.398438 "/>
<path style="fill:none;stroke-width:2;stroke-linecap:butt;stroke-linejoin:miter;stroke:rgb(13.729858%,12.159729%,12.548828%);stroke-opacity:1;stroke-miterlimit:4;" d="M -0.00044375 -0.0002375 C -0.00044375 3.402106 -2.793413 6.163825 -6.238725 6.163825 C -9.687944 6.163825 -12.480913 3.402106 -12.480913 -0.0002375 C -12.480913 -3.402581 -9.687944 -6.1643 -6.238725 -6.1643 C -2.793413 -6.1643 -0.00044375 -3.402581 -0.00044375 -0.0002375 Z M -0.00044375 -0.0002375 " transform="matrix(1,0,0,-1,36.5356,93.3982)"/>
<path style=" stroke:none;fill-rule:nonzero;fill:rgb(13.729858%,12.159729%,12.548828%);fill-opacity:1;" d="M 23.667969 71.222656 C 23.667969 67.820312 20.875 65.058594 17.429688 65.058594 C 13.984375 65.058594 11.191406 67.820312 11.191406 71.222656 C 11.191406 74.625 13.984375 77.386719 17.429688 77.386719 C 20.875 77.386719 23.667969 74.625 23.667969 71.222656 "/>
<path style="fill:none;stroke-width:2;stroke-linecap:butt;stroke-linejoin:miter;stroke:rgb(13.729858%,12.159729%,12.548828%);stroke-opacity:1;stroke-miterlimit:4;" d="M -0.00053125 0.00174375 C -0.00053125 3.404088 -2.7935 6.165806 -6.238812 6.165806 C -9.684125 6.165806 -12.477094 3.404088 -12.477094 0.00174375 C -12.477094 -3.4006 -9.684125 -6.162319 -6.238812 -6.162319 C -2.7935 -6.162319 -0.00053125 -3.4006 -0.00053125 0.00174375 Z M -0.00053125 0.00174375 " transform="matrix(1,0,0,-1,23.6685,71.2244)"/>
<path style=" stroke:none;fill-rule:nonzero;fill:rgb(13.729858%,12.159729%,12.548828%);fill-opacity:1;" d="M 84.535156 9.898438 C 84.535156 6.492188 81.742188 3.734375 78.296875 3.734375 C 74.851562 3.734375 72.058594 6.492188 72.058594 9.898438 C 72.058594 13.300781 74.851562 16.0625 78.296875 16.0625 C 81.742188 16.0625 84.535156 13.300781 84.535156 9.898438 "/>
<path style="fill:none;stroke-width:2;stroke-linecap:butt;stroke-linejoin:miter;stroke:rgb(13.729858%,12.159729%,12.548828%);stroke-opacity:1;stroke-miterlimit:4;" d="M -0.00144375 -0.0006375 C -0.00144375 3.405613 -2.794413 6.163425 -6.239725 6.163425 C -9.685038 6.163425 -12.478006 3.405613 -12.478006 -0.0006375 C -12.478006 -3.402981 -9.685038 -6.1647 -6.239725 -6.1647 C -2.794413 -6.1647 -0.00144375 -3.402981 -0.00144375 -0.0006375 Z M -0.00144375 -0.0006375 " transform="matrix(1,0,0,-1,84.5366,9.8978)"/>
<path style=" stroke:none;fill-rule:nonzero;fill:rgb(100%,100%,100%);fill-opacity:1;" d="M 58.371094 105.898438 C 58.371094 102.496094 55.578125 99.734375 52.132812 99.734375 C 48.683594 99.734375 45.890625 102.496094 45.890625 105.898438 C 45.890625 109.300781 48.683594 112.0625 52.132812 112.0625 C 55.578125 112.0625 58.371094 109.300781 58.371094 105.898438 "/>
<g clip-path="url(#clip3)" clip-rule="nonzero">
<path style="fill:none;stroke-width:2;stroke-linecap:butt;stroke-linejoin:miter;stroke:rgb(13.729858%,12.159729%,12.548828%);stroke-opacity:1;stroke-miterlimit:4;" d="M 0.00149375 -0.0002375 C 0.00149375 3.402106 -2.791475 6.163825 -6.236787 6.163825 C -9.686006 6.163825 -12.478975 3.402106 -12.478975 -0.0002375 C -12.478975 -3.402581 -9.686006 -6.1643 -6.236787 -6.1643 C -2.791475 -6.1643 0.00149375 -3.402581 0.00149375 -0.0002375 Z M 0.00149375 -0.0002375 " transform="matrix(1,0,0,-1,58.3696,105.8982)"/>
</g>
<g clip-path="url(#clip4)" clip-rule="nonzero">
<path style="fill:none;stroke-width:2;stroke-linecap:butt;stroke-linejoin:miter;stroke:rgb(13.729858%,12.159729%,12.548828%);stroke-opacity:1;stroke-miterlimit:4;" d="M 0.0000375 0.00129375 C 0.0000375 -27.615894 -22.386681 -49.998706 -49.999962 -49.998706 C -77.613244 -49.998706 -99.999962 -27.615894 -99.999962 0.00129375 C -99.999962 27.614575 -77.613244 50.001294 -49.999962 50.001294 C -22.386681 50.001294 0.0000375 27.614575 0.0000375 0.00129375 Z M 0.0000375 0.00129375 " transform="matrix(1,0,0,-1,269.9609,58.0052)"/>
</g>
<path style=" stroke:none;fill-rule:nonzero;fill:rgb(100%,100%,100%);fill-opacity:1;" d="M 237.835938 106.664062 C 237.835938 103.261719 235.039062 100.5 231.597656 100.5 C 228.148438 100.5 225.355469 103.261719 225.355469 106.664062 C 225.355469 110.066406 228.148438 112.828125 231.597656 112.828125 C 235.039062 112.828125 237.835938 110.066406 237.835938 106.664062 "/>
<g clip-path="url(#clip5)" clip-rule="nonzero">
<path style="fill:none;stroke-width:2;stroke-linecap:butt;stroke-linejoin:miter;stroke:rgb(13.729858%,12.159729%,12.548828%);stroke-opacity:1;stroke-miterlimit:4;" d="M 0.0019375 0.0007375 C 0.0019375 3.403081 -2.794938 6.1648 -6.236344 6.1648 C -9.685563 6.1648 -12.478531 3.403081 -12.478531 0.0007375 C -12.478531 -3.401606 -9.685563 -6.163325 -6.236344 -6.163325 C -2.794938 -6.163325 0.0019375 -3.401606 0.0019375 0.0007375 Z M 0.0019375 0.0007375 " transform="matrix(1,0,0,-1,237.834,106.6648)"/>
</g>
<path style=" stroke:none;fill-rule:nonzero;fill:rgb(100%,100%,100%);fill-opacity:1;" d="M 261.203125 93.671875 C 261.203125 90.269531 258.40625 87.507812 254.964844 87.507812 C 251.515625 87.507812 248.722656 90.269531 248.722656 93.671875 C 248.722656 97.074219 251.515625 99.835938 254.964844 99.835938 C 258.40625 99.835938 261.203125 97.074219 261.203125 93.671875 "/>
<path style="fill:none;stroke-width:2;stroke-linecap:butt;stroke-linejoin:miter;stroke:rgb(13.729858%,12.159729%,12.548828%);stroke-opacity:1;stroke-miterlimit:4;" d="M 0.001925 -0.000175 C 0.001925 3.402169 -2.79495 6.163888 -6.236356 6.163888 C -9.685575 6.163888 -12.478544 3.402169 -12.478544 -0.000175 C -12.478544 -3.402519 -9.685575 -6.164237 -6.236356 -6.164237 C -2.79495 -6.164237 0.001925 -3.402519 0.001925 -0.000175 Z M 0.001925 -0.000175 " transform="matrix(1,0,0,-1,261.2012,93.6717)"/>
<path style=" stroke:none;fill-rule:nonzero;fill:rgb(13.729858%,12.159729%,12.548828%);fill-opacity:1;" d="M 274.335938 71.496094 C 274.335938 68.09375 271.539062 65.332031 268.097656 65.332031 C 264.648438 65.332031 261.855469 68.09375 261.855469 71.496094 C 261.855469 74.898438 264.648438 77.660156 268.097656 77.660156 C 271.539062 77.660156 274.335938 74.898438 274.335938 71.496094 "/>
<path style="fill:none;stroke-width:2;stroke-linecap:butt;stroke-linejoin:miter;stroke:rgb(13.729858%,12.159729%,12.548828%);stroke-opacity:1;stroke-miterlimit:4;" d="M 0.0019375 0.00080625 C 0.0019375 3.40315 -2.794938 6.164869 -6.236344 6.164869 C -9.685563 6.164869 -12.478531 3.40315 -12.478531 0.00080625 C -12.478531 -3.401538 -9.685563 -6.163256 -6.236344 -6.163256 C -2.794938 -6.163256 0.0019375 -3.401538 0.0019375 0.00080625 Z M 0.0019375 0.00080625 " transform="matrix(1,0,0,-1,274.334,71.4969)"/>
<path style=" stroke:none;fill-rule:nonzero;fill:rgb(13.729858%,12.159729%,12.548828%);fill-opacity:1;" d="M 273.703125 45.671875 C 273.703125 42.269531 270.90625 39.507812 267.464844 39.507812 C 264.015625 39.507812 261.222656 42.269531 261.222656 45.671875 C 261.222656 49.074219 264.015625 51.835938 267.464844 51.835938 C 270.90625 51.835938 273.703125 49.074219 273.703125 45.671875 "/>
<path style="fill:none;stroke-width:2;stroke-linecap:butt;stroke-linejoin:miter;stroke:rgb(13.729858%,12.159729%,12.548828%);stroke-opacity:1;stroke-miterlimit:4;" d="M 0.001925 0.000325 C 0.001925 3.402669 -2.79495 6.164388 -6.236356 6.164388 C -9.685575 6.164388 -12.478544 3.402669 -12.478544 0.000325 C -12.478544 -3.402019 -9.685575 -6.163737 -6.236356 -6.163737 C -2.79495 -6.163737 0.001925 -3.402019 0.001925 0.000325 Z M 0.001925 0.000325 " transform="matrix(1,0,0,-1,273.7012,45.6722)"/>
<path style=" stroke:none;fill-rule:nonzero;fill:rgb(100%,100%,100%);fill-opacity:1;" d="M 261.535156 23.339844 C 261.535156 19.933594 258.742188 17.175781 255.296875 17.175781 C 251.847656 17.175781 249.054688 19.933594 249.054688 23.339844 C 249.054688 26.742188 251.847656 29.503906 255.296875 29.503906 C 258.742188 29.503906 261.535156 26.742188 261.535156 23.339844 "/>
<path style="fill:none;stroke-width:2;stroke-linecap:butt;stroke-linejoin:miter;stroke:rgb(13.729858%,12.159729%,12.548828%);stroke-opacity:1;stroke-miterlimit:4;" d="M -0.00004375 -0.00114375 C -0.00004375 3.405106 -2.793012 6.162919 -6.238325 6.162919 C -9.687544 6.162919 -12.480512 3.405106 -12.480512 -0.00114375 C -12.480512 -3.403487 -9.687544 -6.165206 -6.238325 -6.165206 C -2.793012 -6.165206 -0.00004375 -3.403487 -0.00004375 -0.00114375 Z M -0.00004375 -0.00114375 " transform="matrix(1,0,0,-1,261.5352,23.3387)"/>
<path style=" stroke:none;fill-rule:nonzero;fill:rgb(13.729858%,12.159729%,12.548828%);fill-opacity:1;" d="M 190.441406 23.003906 C 190.441406 19.601562 187.648438 16.839844 184.203125 16.839844 C 180.753906 16.839844 177.960938 19.601562 177.960938 23.003906 C 177.960938 26.40625 180.753906 29.167969 184.203125 29.167969 C 187.648438 29.167969 190.441406 26.40625 190.441406 23.003906 "/>
<path style="fill:none;stroke-width:2;stroke-linecap:butt;stroke-linejoin:miter;stroke:rgb(13.729858%,12.159729%,12.548828%);stroke-opacity:1;stroke-miterlimit:4;" d="M 0.00000625 0.00129375 C 0.00000625 3.403638 -2.792963 6.165356 -6.238275 6.165356 C -9.687494 6.165356 -12.480463 3.403638 -12.480463 0.00129375 C -12.480463 -3.40105 -9.687494 -6.162769 -6.238275 -6.162769 C -2.792963 -6.162769 0.00000625 -3.40105 0.00000625 0.00129375 Z M 0.00000625 0.00129375 " transform="matrix(1,0,0,-1,190.4414,23.0052)"/>
<path style=" stroke:none;fill-rule:nonzero;fill:rgb(13.729858%,12.159729%,12.548828%);fill-opacity:1;" d="M 213.074219 10.164062 C 213.074219 6.761719 210.28125 4 206.835938 4 C 203.390625 4 200.59375 6.761719 200.59375 10.164062 C 200.59375 13.566406 203.390625 16.328125 206.835938 16.328125 C 210.28125 16.328125 213.074219 13.566406 213.074219 10.164062 "/>
<path style="fill:none;stroke-width:2;stroke-linecap:butt;stroke-linejoin:miter;stroke:rgb(13.729858%,12.159729%,12.548828%);stroke-opacity:1;stroke-miterlimit:4;" d="M -0.00048125 -0.0001625 C -0.00048125 3.402181 -2.79345 6.1639 -6.238762 6.1639 C -9.684075 6.1639 -12.48095 3.402181 -12.48095 -0.0001625 C -12.48095 -3.402506 -9.684075 -6.164225 -6.238762 -6.164225 C -2.79345 -6.164225 -0.00048125 -3.402506 -0.00048125 -0.0001625 Z M -0.00048125 -0.0001625 " transform="matrix(1,0,0,-1,213.0747,10.1639)"/>
<path style=" stroke:none;fill-rule:nonzero;fill:rgb(100%,100%,100%);fill-opacity:1;" d="M 177.609375 45.839844 C 177.609375 42.433594 174.816406 39.675781 171.371094 39.675781 C 167.921875 39.675781 165.128906 42.433594 165.128906 45.839844 C 165.128906 49.242188 167.921875 52.003906 171.371094 52.003906 C 174.816406 52.003906 177.609375 49.242188 177.609375 45.839844 "/>
<path style="fill:none;stroke-width:2;stroke-linecap:butt;stroke-linejoin:miter;stroke:rgb(13.729858%,12.159729%,12.548828%);stroke-opacity:1;stroke-miterlimit:4;" d="M 0.000975 -0.00114375 C 0.000975 3.405106 -2.791994 6.162919 -6.237306 6.162919 C -9.686525 6.162919 -12.479494 3.405106 -12.479494 -0.00114375 C -12.479494 -3.403487 -9.686525 -6.165206 -6.237306 -6.165206 C -2.791994 -6.165206 0.000975 -3.403487 0.000975 -0.00114375 Z M 0.000975 -0.00114375 " transform="matrix(1,0,0,-1,177.6084,45.8387)"/>
<path style=" stroke:none;fill-rule:nonzero;fill:rgb(13.729858%,12.159729%,12.548828%);fill-opacity:1;" d="M 190.867188 93.839844 C 190.867188 90.433594 188.074219 87.675781 184.632812 87.675781 C 181.183594 87.675781 178.390625 90.433594 178.390625 93.839844 C 178.390625 97.242188 181.183594 100.003906 184.632812 100.003906 C 188.074219 100.003906 190.867188 97.242188 190.867188 93.839844 "/>
<path style="fill:none;stroke-width:2;stroke-linecap:butt;stroke-linejoin:miter;stroke:rgb(13.729858%,12.159729%,12.548828%);stroke-opacity:1;stroke-miterlimit:4;" d="M -0.0019125 -0.00114375 C -0.0019125 3.405106 -2.794881 6.162919 -6.236288 6.162919 C -9.685506 6.162919 -12.478475 3.405106 -12.478475 -0.00114375 C -12.478475 -3.403487 -9.685506 -6.165206 -6.236288 -6.165206 C -2.794881 -6.165206 -0.0019125 -3.403487 -0.0019125 -0.00114375 Z M -0.0019125 -0.00114375 " transform="matrix(1,0,0,-1,190.8691,93.8387)"/>
<path style=" stroke:none;fill-rule:nonzero;fill:rgb(100%,100%,100%);fill-opacity:1;" d="M 178.003906 71.664062 C 178.003906 68.261719 175.210938 65.5 171.765625 65.5 C 168.316406 65.5 165.523438 68.261719 165.523438 71.664062 C 165.523438 75.066406 168.316406 77.828125 171.765625 77.828125 C 175.210938 77.828125 178.003906 75.066406 178.003906 71.664062 "/>
<path style="fill:none;stroke-width:2;stroke-linecap:butt;stroke-linejoin:miter;stroke:rgb(13.729858%,12.159729%,12.548828%);stroke-opacity:1;stroke-miterlimit:4;" d="M 0.00190625 0.0007375 C 0.00190625 3.403081 -2.791063 6.1648 -6.236375 6.1648 C -9.685594 6.1648 -12.478563 3.403081 -12.478563 0.0007375 C -12.478563 -3.401606 -9.685594 -6.163325 -6.236375 -6.163325 C -2.791063 -6.163325 0.00190625 -3.401606 0.00190625 0.0007375 Z M 0.00190625 0.0007375 " transform="matrix(1,0,0,-1,178.002,71.6648)"/>
<path style=" stroke:none;fill-rule:nonzero;fill:rgb(100%,100%,100%);fill-opacity:1;" d="M 238.867188 10.339844 C 238.867188 6.933594 236.074219 4.175781 232.632812 4.175781 C 229.183594 4.175781 226.390625 6.933594 226.390625 10.339844 C 226.390625 13.738281 229.183594 16.503906 232.632812 16.503906 C 236.074219 16.503906 238.867188 13.738281 238.867188 10.339844 "/>
<path style="fill:none;stroke-width:2;stroke-linecap:butt;stroke-linejoin:miter;stroke:rgb(13.729858%,12.159729%,12.548828%);stroke-opacity:1;stroke-miterlimit:4;" d="M -0.0019125 -0.00164375 C -0.0019125 3.404606 -2.794881 6.162419 -6.236288 6.162419 C -9.685506 6.162419 -12.478475 3.404606 -12.478475 -0.00164375 C -12.478475 -3.400081 -9.685506 -6.165706 -6.236288 -6.165706 C -2.794881 -6.165706 -0.0019125 -3.400081 -0.0019125 -0.00164375 Z M -0.0019125 -0.00164375 " transform="matrix(1,0,0,-1,238.8691,10.3382)"/>
<path style=" stroke:none;fill-rule:nonzero;fill:rgb(100%,100%,100%);fill-opacity:1;" d="M 212.703125 106.339844 C 212.703125 102.933594 209.910156 100.175781 206.464844 100.175781 C 203.019531 100.175781 200.222656 102.933594 200.222656 106.339844 C 200.222656 109.742188 203.019531 112.503906 206.464844 112.503906 C 209.910156 112.503906 212.703125 109.742188 212.703125 106.339844 "/>
<g clip-path="url(#clip6)" clip-rule="nonzero">
<path style="fill:none;stroke-width:2;stroke-linecap:butt;stroke-linejoin:miter;stroke:rgb(13.729858%,12.159729%,12.548828%);stroke-opacity:1;stroke-miterlimit:4;" d="M -0.000475 -0.00114375 C -0.000475 3.405106 -2.793444 6.162919 -6.238756 6.162919 C -9.684069 6.162919 -12.480944 3.405106 -12.480944 -0.00114375 C -12.480944 -3.403487 -9.684069 -6.165206 -6.238756 -6.165206 C -2.793444 -6.165206 -0.000475 -3.403487 -0.000475 -0.00114375 Z M -0.000475 -0.00114375 " transform="matrix(1,0,0,-1,212.7036,106.3387)"/>
</g>
<g clip-path="url(#clip7)" clip-rule="nonzero">
<path style="fill:none;stroke-width:2;stroke-linecap:butt;stroke-linejoin:miter;stroke:rgb(13.729858%,12.159729%,12.548828%);stroke-opacity:1;stroke-miterlimit:4;" d="M -0.00191875 0.0003 C -0.00191875 -27.616887 -22.388638 -49.9997 -50.001919 -49.9997 C -77.6152 -49.9997 -100.001919 -27.616887 -100.001919 0.0003 C -100.001919 27.613581 -77.6152 50.0003 -50.001919 50.0003 C -22.388638 50.0003 -0.00191875 27.613581 -0.00191875 0.0003 Z M -0.00191875 0.0003 " transform="matrix(1,0,0,-1,419.8027,56.7503)"/>
</g>
<path style=" stroke:none;fill-rule:nonzero;fill:rgb(13.729858%,12.159729%,12.548828%);fill-opacity:1;" d="M 387.675781 105.410156 C 387.675781 102.007812 384.882812 99.246094 381.4375 99.246094 C 377.988281 99.246094 375.195312 102.007812 375.195312 105.410156 C 375.195312 108.8125 377.988281 111.574219 381.4375 111.574219 C 384.882812 111.574219 387.675781 108.8125 387.675781 105.410156 "/>
<g clip-path="url(#clip8)" clip-rule="nonzero">
<path style="fill:none;stroke-width:2;stroke-linecap:butt;stroke-linejoin:miter;stroke:rgb(13.729858%,12.159729%,12.548828%);stroke-opacity:1;stroke-miterlimit:4;" d="M -0.00001875 -0.00015625 C -0.00001875 3.402187 -2.792988 6.163906 -6.2383 6.163906 C -9.687519 6.163906 -12.480488 3.402187 -12.480488 -0.00015625 C -12.480488 -3.4025 -9.687519 -6.164219 -6.2383 -6.164219 C -2.792988 -6.164219 -0.00001875 -3.4025 -0.00001875 -0.00015625 Z M -0.00001875 -0.00015625 " transform="matrix(1,0,0,-1,387.6758,105.41)"/>
</g>
<path style=" stroke:none;fill-rule:nonzero;fill:rgb(13.729858%,12.159729%,12.548828%);fill-opacity:1;" d="M 411.042969 92.417969 C 411.042969 89.011719 408.25 86.253906 404.804688 86.253906 C 401.355469 86.253906 398.5625 89.011719 398.5625 92.417969 C 398.5625 95.820312 401.355469 98.582031 404.804688 98.582031 C 408.25 98.582031 411.042969 95.820312 411.042969 92.417969 "/>
<path style="fill:none;stroke-width:2;stroke-linecap:butt;stroke-linejoin:miter;stroke:rgb(13.729858%,12.159729%,12.548828%);stroke-opacity:1;stroke-miterlimit:4;" d="M -0.00003125 -0.00116875 C -0.00003125 3.405081 -2.793 6.162894 -6.238313 6.162894 C -9.687531 6.162894 -12.4805 3.405081 -12.4805 -0.00116875 C -12.4805 -3.403512 -9.687531 -6.165231 -6.238313 -6.165231 C -2.793 -6.165231 -0.00003125 -3.403512 -0.00003125 -0.00116875 Z M -0.00003125 -0.00116875 " transform="matrix(1,0,0,-1,411.043,92.4168)"/>
<path style=" stroke:none;fill-rule:nonzero;fill:rgb(100%,100%,100%);fill-opacity:1;" d="M 424.175781 70.242188 C 424.175781 66.839844 421.382812 64.078125 417.9375 64.078125 C 414.488281 64.078125 411.695312 66.839844 411.695312 70.242188 C 411.695312 73.644531 414.488281 76.40625 417.9375 76.40625 C 421.382812 76.40625 424.175781 73.644531 424.175781 70.242188 "/>
<path style="fill:none;stroke-width:2;stroke-linecap:butt;stroke-linejoin:miter;stroke:rgb(13.729858%,12.159729%,12.548828%);stroke-opacity:1;stroke-miterlimit:4;" d="M -0.00001875 -0.0001875 C -0.00001875 3.402156 -2.792988 6.163875 -6.2383 6.163875 C -9.687519 6.163875 -12.480488 3.402156 -12.480488 -0.0001875 C -12.480488 -3.402531 -9.687519 -6.16425 -6.2383 -6.16425 C -2.792988 -6.16425 -0.00001875 -3.402531 -0.00001875 -0.0001875 Z M -0.00001875 -0.0001875 " transform="matrix(1,0,0,-1,424.1758,70.242)"/>
<path style=" stroke:none;fill-rule:nonzero;fill:rgb(100%,100%,100%);fill-opacity:1;" d="M 423.542969 44.417969 C 423.542969 41.011719 420.75 38.253906 417.304688 38.253906 C 413.855469 38.253906 411.0625 41.011719 411.0625 44.417969 C 411.0625 47.820312 413.855469 50.582031 417.304688 50.582031 C 420.75 50.582031 423.542969 47.820312 423.542969 44.417969 "/>
<path style="fill:none;stroke-width:2;stroke-linecap:butt;stroke-linejoin:miter;stroke:rgb(13.729858%,12.159729%,12.548828%);stroke-opacity:1;stroke-miterlimit:4;" d="M -0.00003125 -0.00066875 C -0.00003125 3.405581 -2.793 6.163394 -6.238313 6.163394 C -9.687531 6.163394 -12.4805 3.405581 -12.4805 -0.00066875 C -12.4805 -3.403012 -9.687531 -6.164731 -6.238313 -6.164731 C -2.793 -6.164731 -0.00003125 -3.403012 -0.00003125 -0.00066875 Z M -0.00003125 -0.00066875 " transform="matrix(1,0,0,-1,423.543,44.4173)"/>
<path style=" stroke:none;fill-rule:nonzero;fill:rgb(13.729858%,12.159729%,12.548828%);fill-opacity:1;" d="M 411.378906 22.082031 C 411.378906 18.679688 408.585938 15.917969 405.140625 15.917969 C 401.691406 15.917969 398.898438 18.679688 398.898438 22.082031 C 398.898438 25.484375 401.691406 28.246094 405.140625 28.246094 C 408.585938 28.246094 411.378906 25.484375 411.378906 22.082031 "/>
<path style="fill:none;stroke-width:2;stroke-linecap:butt;stroke-linejoin:miter;stroke:rgb(13.729858%,12.159729%,12.548828%);stroke-opacity:1;stroke-miterlimit:4;" d="M 0.00190625 0.00176875 C 0.00190625 3.404112 -2.791063 6.165831 -6.236375 6.165831 C -9.685594 6.165831 -12.478563 3.404112 -12.478563 0.00176875 C -12.478563 -3.400575 -9.685594 -6.162294 -6.236375 -6.162294 C -2.791063 -6.162294 0.00190625 -3.400575 0.00190625 0.00176875 Z M 0.00190625 0.00176875 " transform="matrix(1,0,0,-1,411.377,22.0838)"/>
<path style=" stroke:none;fill-rule:nonzero;fill:rgb(100%,100%,100%);fill-opacity:1;" d="M 340.28125 21.75 C 340.28125 18.347656 337.488281 15.585938 334.046875 15.585938 C 330.597656 15.585938 327.804688 18.347656 327.804688 21.75 C 327.804688 25.152344 330.597656 27.914062 334.046875 27.914062 C 337.488281 27.914062 340.28125 25.152344 340.28125 21.75 "/>
<path style="fill:none;stroke-width:2;stroke-linecap:butt;stroke-linejoin:miter;stroke:rgb(13.729858%,12.159729%,12.548828%);stroke-opacity:1;stroke-miterlimit:4;" d="M -0.00195 0.0003 C -0.00195 3.402644 -2.794919 6.164362 -6.236325 6.164362 C -9.685544 6.164362 -12.478512 3.402644 -12.478512 0.0003 C -12.478512 -3.402044 -9.685544 -6.163763 -6.236325 -6.163763 C -2.794919 -6.163763 -0.00195 -3.402044 -0.00195 0.0003 Z M -0.00195 0.0003 " transform="matrix(1,0,0,-1,340.2832,21.7503)"/>
<path style=" stroke:none;fill-rule:nonzero;fill:rgb(100%,100%,100%);fill-opacity:1;" d="M 362.914062 8.910156 C 362.914062 5.503906 360.121094 2.746094 356.679688 2.746094 C 353.230469 2.746094 350.4375 5.503906 350.4375 8.910156 C 350.4375 12.3125 353.230469 15.074219 356.679688 15.074219 C 360.121094 15.074219 362.914062 12.3125 362.914062 8.910156 "/>
<path style="fill:none;stroke-width:2;stroke-linecap:butt;stroke-linejoin:miter;stroke:rgb(13.729858%,12.159729%,12.548828%);stroke-opacity:1;stroke-miterlimit:4;" d="M -0.0019375 -0.00115625 C -0.0019375 3.405094 -2.794906 6.162906 -6.236312 6.162906 C -9.685531 6.162906 -12.4785 3.405094 -12.4785 -0.00115625 C -12.4785 -3.4035 -9.685531 -6.165219 -6.236312 -6.165219 C -2.794906 -6.165219 -0.0019375 -3.4035 -0.0019375 -0.00115625 Z M -0.0019375 -0.00115625 " transform="matrix(1,0,0,-1,362.916,8.909)"/>
<path style=" stroke:none;fill-rule:nonzero;fill:rgb(100%,100%,100%);fill-opacity:1;" d="M 327.449219 44.582031 C 327.449219 41.179688 324.65625 38.417969 321.210938 38.417969 C 317.761719 38.417969 314.96875 41.179688 314.96875 44.582031 C 314.96875 47.984375 317.761719 50.746094 321.210938 50.746094 C 324.65625 50.746094 327.449219 47.984375 327.449219 44.582031 "/>
<path style="fill:none;stroke-width:2;stroke-linecap:butt;stroke-linejoin:miter;stroke:rgb(13.729858%,12.159729%,12.548828%);stroke-opacity:1;stroke-miterlimit:4;" d="M 0.00001875 0.00176875 C 0.00001875 3.404112 -2.79295 6.165831 -6.238263 6.165831 C -9.687481 6.165831 -12.48045 3.404112 -12.48045 0.00176875 C -12.48045 -3.400575 -9.687481 -6.162294 -6.238263 -6.162294 C -2.79295 -6.162294 0.00001875 -3.400575 0.00001875 0.00176875 Z M 0.00001875 0.00176875 " transform="matrix(1,0,0,-1,327.4492,44.5838)"/>
<path style=" stroke:none;fill-rule:nonzero;fill:rgb(100%,100%,100%);fill-opacity:1;" d="M 340.710938 92.582031 C 340.710938 89.179688 337.917969 86.417969 334.472656 86.417969 C 331.023438 86.417969 328.230469 89.179688 328.230469 92.582031 C 328.230469 95.984375 331.023438 98.746094 334.472656 98.746094 C 337.917969 98.746094 340.710938 95.984375 340.710938 92.582031 "/>
<path style="fill:none;stroke-width:2;stroke-linecap:butt;stroke-linejoin:miter;stroke:rgb(13.729858%,12.159729%,12.548828%);stroke-opacity:1;stroke-miterlimit:4;" d="M 0.0000375 0.00176875 C 0.0000375 3.404112 -2.792931 6.165831 -6.238244 6.165831 C -9.687462 6.165831 -12.480431 3.404112 -12.480431 0.00176875 C -12.480431 -3.400575 -9.687462 -6.162294 -6.238244 -6.162294 C -2.792931 -6.162294 0.0000375 -3.400575 0.0000375 0.00176875 Z M 0.0000375 0.00176875 " transform="matrix(1,0,0,-1,340.7109,92.5838)"/>
<path style=" stroke:none;fill-rule:nonzero;fill:rgb(13.729858%,12.159729%,12.548828%);fill-opacity:1;" d="M 327.84375 70.410156 C 327.84375 67.007812 325.050781 64.246094 321.605469 64.246094 C 318.15625 64.246094 315.363281 67.007812 315.363281 70.410156 C 315.363281 73.8125 318.15625 76.574219 321.605469 76.574219 C 325.050781 76.574219 327.84375 73.8125 327.84375 70.410156 "/>
<path style="fill:none;stroke-width:2;stroke-linecap:butt;stroke-linejoin:miter;stroke:rgb(13.729858%,12.159729%,12.548828%);stroke-opacity:1;stroke-miterlimit:4;" d="M -0.00005 -0.00015625 C -0.00005 3.402187 -2.793019 6.163906 -6.238331 6.163906 C -9.68755 6.163906 -12.480519 3.402187 -12.480519 -0.00015625 C -12.480519 -3.4025 -9.68755 -6.164219 -6.238331 -6.164219 C -2.793019 -6.164219 -0.00005 -3.4025 -0.00005 -0.00015625 Z M -0.00005 -0.00015625 " transform="matrix(1,0,0,-1,327.8438,70.41)"/>
<path style=" stroke:none;fill-rule:nonzero;fill:rgb(13.729858%,12.159729%,12.548828%);fill-opacity:1;" d="M 388.710938 9.082031 C 388.710938 5.679688 385.917969 2.917969 382.472656 2.917969 C 379.023438 2.917969 376.230469 5.679688 376.230469 9.082031 C 376.230469 12.484375 379.023438 15.246094 382.472656 15.246094 C 385.917969 15.246094 388.710938 12.484375 388.710938 9.082031 "/>
<path style="fill:none;stroke-width:2;stroke-linecap:butt;stroke-linejoin:miter;stroke:rgb(13.729858%,12.159729%,12.548828%);stroke-opacity:1;stroke-miterlimit:4;" d="M 0.0000375 0.00126875 C 0.0000375 3.403613 -2.792931 6.165331 -6.238244 6.165331 C -9.687462 6.165331 -12.480431 3.403613 -12.480431 0.00126875 C -12.480431 -3.401075 -9.687462 -6.162794 -6.238244 -6.162794 C -2.792931 -6.162794 0.0000375 -3.401075 0.0000375 0.00126875 Z M 0.0000375 0.00126875 " transform="matrix(1,0,0,-1,388.7109,9.0833)"/>
<path style=" stroke:none;fill-rule:nonzero;fill:rgb(100%,100%,100%);fill-opacity:1;" d="M 362.542969 105.082031 C 362.542969 101.679688 359.75 98.917969 356.308594 98.917969 C 352.859375 98.917969 350.066406 101.679688 350.066406 105.082031 C 350.066406 108.484375 352.859375 111.246094 356.308594 111.246094 C 359.75 111.246094 362.542969 108.484375 362.542969 105.082031 "/>
<g clip-path="url(#clip9)" clip-rule="nonzero">
<path style="fill:none;stroke-width:2;stroke-linecap:butt;stroke-linejoin:miter;stroke:rgb(13.729858%,12.159729%,12.548828%);stroke-opacity:1;stroke-miterlimit:4;" d="M -0.00193125 0.00176875 C -0.00193125 3.404112 -2.7949 6.165831 -6.236306 6.165831 C -9.685525 6.165831 -12.478494 3.404112 -12.478494 0.00176875 C -12.478494 -3.400575 -9.685525 -6.162294 -6.236306 -6.162294 C -2.7949 -6.162294 -0.00193125 -3.400575 -0.00193125 0.00176875 Z M -0.00193125 0.00176875 " transform="matrix(1,0,0,-1,362.5449,105.0838)"/>
</g>
</g>
</svg>
