<?xml version="1.0" encoding="UTF-8"?>
<svg xmlns="http://www.w3.org/2000/svg" xmlns:xlink="http://www.w3.org/1999/xlink" width="468pt" height="115.2pt" viewBox="0 0 468 115.2" version="1.1">
<g id="surface1">
<path style="fill:none;stroke-width:2;stroke-linecap:butt;stroke-linejoin:miter;stroke:rgb(13.729858%,12.159729%,12.548828%);stroke-opacity:1;stroke-miterlimit:4;" d="M -0.001475 0.001775 L 41.146963 72.814275 " transform="matrix(1,0,0,-1,9.0796,95.0174)"/>
<path style="fill:none;stroke-width:2;stroke-linecap:butt;stroke-linejoin:miter;stroke:rgb(13.729858%,12.159729%,12.548828%);stroke-opacity:1;stroke-miterlimit:4;" d="M -0.0005375 -0.000225 L 43.780712 -71.414288 " transform="matrix(1,0,0,-1,50.2271,22.2029)"/>
<path style="fill:none;stroke-width:2;stroke-linecap:butt;stroke-linejoin:miter;stroke:rgb(13.729858%,12.159729%,12.548828%);stroke-opacity:1;stroke-miterlimit:4;" d="M -0.0014875 -0.0001875 L -84.931175 -1.398625 " transform="matrix(1,0,0,-1,94.0093,93.617)"/>
<path style="fill:none;stroke-width:2;stroke-linecap:butt;stroke-linejoin:miter;stroke:rgb(13.729858%,12.159729%,12.548828%);stroke-opacity:1;stroke-miterlimit:4;" d="M -0.001475 0.001775 L 41.557119 30.419744 " transform="matrix(1,0,0,-1,9.0796,95.0174)"/>
<path style="fill:none;stroke-width:2;stroke-linecap:butt;stroke-linejoin:miter;stroke:rgb(13.729858%,12.159729%,12.548828%);stroke-opacity:1;stroke-miterlimit:4;" d="M -0.00190625 0.0012625 L 0.127 -40.404987 " transform="matrix(1,0,0,-1,168.998,22.3372)"/>
<path style="fill:none;stroke-width:2;stroke-linecap:butt;stroke-linejoin:miter;stroke:rgb(13.729858%,12.159729%,12.548828%);stroke-opacity:1;stroke-miterlimit:4;" d="M 0.001 -0.0001875 L 43.426781 -32.004094 " transform="matrix(1,0,0,-1,169.124,62.742)"/>
<path style="fill:none;stroke-width:2;stroke-linecap:butt;stroke-linejoin:miter;stroke:rgb(13.729858%,12.159729%,12.548828%);stroke-opacity:1;stroke-miterlimit:4;" d="M 0.00098125 0.00180625 L -43.553706 72.411963 " transform="matrix(1,0,0,-1,212.5498,94.7479)"/>
<path style="fill:none;stroke-width:2;stroke-linecap:butt;stroke-linejoin:miter;stroke:rgb(13.729858%,12.159729%,12.548828%);stroke-opacity:1;stroke-miterlimit:4;" d="M -0.00195 -0.001175 L -41.556638 -30.419144 " transform="matrix(1,0,0,-1,169.4082,64.7332)"/>
<path style="fill:none;stroke-width:2;stroke-linecap:butt;stroke-linejoin:miter;stroke:rgb(13.729858%,12.159729%,12.548828%);stroke-opacity:1;stroke-miterlimit:4;" d="M 0.00099375 0.000775 L 0.41115 -42.397662 " transform="matrix(1,0,0,-1,286.4951,22.3289)"/>
<path style="fill:none;stroke-width:2;stroke-linecap:butt;stroke-linejoin:miter;stroke:rgb(13.729858%,12.159729%,12.548828%);stroke-opacity:1;stroke-miterlimit:4;" d="M 0.00099375 0.000775 L -41.147444 -72.815631 " transform="matrix(1,0,0,-1,286.4951,22.3289)"/>
<path style="fill:none;stroke-width:2;stroke-linecap:butt;stroke-linejoin:miter;stroke:rgb(13.729858%,12.159729%,12.548828%);stroke-opacity:1;stroke-miterlimit:4;" d="M -0.00004375 -0.00113125 L 84.605425 -0.317538 " transform="matrix(1,0,0,-1,245.3477,95.1434)"/>
<path style="fill:none;stroke-width:2;stroke-linecap:butt;stroke-linejoin:miter;stroke:rgb(13.729858%,12.159729%,12.548828%);stroke-opacity:1;stroke-miterlimit:4;" d="M 0.000025 -0.0002375 L -43.457006 73.132575 " transform="matrix(1,0,0,-1,329.9531,95.4607)"/>
<path style="fill:none;stroke-width:2;stroke-linecap:butt;stroke-linejoin:miter;stroke:rgb(13.729858%,12.159729%,12.548828%);stroke-opacity:1;stroke-miterlimit:4;" d="M 0.00094375 0.0018 L 0.4111 -42.396637 " transform="matrix(1,0,0,-1,404.2139,21.4393)"/>
<path style="fill:none;stroke-width:2;stroke-linecap:butt;stroke-linejoin:miter;stroke:rgb(13.729858%,12.159729%,12.548828%);stroke-opacity:1;stroke-miterlimit:4;" d="M 0.001 -0.0002375 L -42.846656 -31.078362 " transform="matrix(1,0,0,-1,404.624,63.8357)"/>
<path style="fill:none;stroke-width:2;stroke-linecap:butt;stroke-linejoin:miter;stroke:rgb(13.729858%,12.159729%,12.548828%);stroke-opacity:1;stroke-miterlimit:4;" d="M 0.0019125 -0.0001875 L 42.697225 -31.105656 " transform="matrix(1,0,0,-1,405.0684,62.742)"/>
<path style=" stroke:none;fill-rule:nonzero;fill:rgb(96.310425%,78.785706%,42.234802%);fill-opacity:1;" d="M 56.875 64.597656 C 56.875 61.195312 54.082031 58.433594 50.636719 58.433594 C 47.191406 58.433594 44.398438 61.195312 44.398438 64.597656 C 44.398438 68 47.191406 70.761719 50.636719 70.761719 C 54.082031 70.761719 56.875 68 56.875 64.597656 "/>
<path style="fill:none;stroke-width:2;stroke-linecap:butt;stroke-linejoin:miter;stroke:rgb(13.729858%,12.159729%,12.548828%);stroke-opacity:1;stroke-miterlimit:4;" d="M -0.0015 0.00174375 C -0.0015 3.404088 -2.794469 6.165806 -6.239781 6.165806 C -9.685094 6.165806 -12.478063 3.404088 -12.478063 0.00174375 C -12.478063 -3.4006 -9.685094 -6.162319 -6.239781 -6.162319 C -2.794469 -6.162319 -0.0015 -3.4006 -0.0015 0.00174375 Z M -0.0015 0.00174375 " transform="matrix(1,0,0,-1,56.8765,64.5994)"/>
<path style=" stroke:none;fill-rule:nonzero;fill:rgb(96.310425%,78.785706%,42.234802%);fill-opacity:1;" d="M 100.019531 94.613281 C 100.019531 91.210938 97.226562 88.449219 93.78125 88.449219 C 90.332031 88.449219 87.539062 91.210938 87.539062 94.613281 C 87.539062 98.015625 90.332031 100.777344 93.78125 100.777344 C 97.226562 100.777344 100.019531 98.015625 100.019531 94.613281 "/>
<path style="fill:none;stroke-width:2;stroke-linecap:butt;stroke-linejoin:miter;stroke:rgb(13.729858%,12.159729%,12.548828%);stroke-opacity:1;stroke-miterlimit:4;" d="M 0.00143125 -0.00018125 C 0.00143125 3.402163 -2.791538 6.163881 -6.23685 6.163881 C -9.686069 6.163881 -12.479038 3.402163 -12.479038 -0.00018125 C -12.479038 -3.402525 -9.686069 -6.164244 -6.23685 -6.164244 C -2.791538 -6.164244 0.00143125 -3.402525 0.00143125 -0.00018125 Z M 0.00143125 -0.00018125 " transform="matrix(1,0,0,-1,100.0181,94.6131)"/>
<path style=" stroke:none;fill-rule:nonzero;fill:rgb(96.310425%,78.785706%,42.234802%);fill-opacity:1;" d="M 56.464844 22.203125 C 56.464844 18.800781 53.671875 16.039062 50.226562 16.039062 C 46.78125 16.039062 43.988281 18.800781 43.988281 22.203125 C 43.988281 25.605469 46.78125 28.367188 50.226562 28.367188 C 53.671875 28.367188 56.464844 25.605469 56.464844 22.203125 "/>
<path style="fill:none;stroke-width:2;stroke-linecap:butt;stroke-linejoin:miter;stroke:rgb(13.729858%,12.159729%,12.548828%);stroke-opacity:1;stroke-miterlimit:4;" d="M -0.00145625 -0.000225 C -0.00145625 3.402119 -2.794425 6.163837 -6.239738 6.163837 C -9.68505 6.163837 -12.478019 3.402119 -12.478019 -0.000225 C -12.478019 -3.402569 -9.68505 -6.164288 -6.239738 -6.164288 C -2.794425 -6.164288 -0.00145625 -3.402569 -0.00145625 -0.000225 Z M -0.00145625 -0.000225 " transform="matrix(1,0,0,-1,56.4663,22.2029)"/>
<path style=" stroke:none;fill-rule:nonzero;fill:rgb(96.310425%,78.785706%,42.234802%);fill-opacity:1;" d="M 15.320312 95.015625 C 15.320312 91.613281 12.527344 88.851562 9.082031 88.851562 C 5.632812 88.851562 2.839844 91.613281 2.839844 95.015625 C 2.839844 98.417969 5.632812 101.179688 9.082031 101.179688 C 12.527344 101.179688 15.320312 98.417969 15.320312 95.015625 "/>
<path style="fill:none;stroke-width:2;stroke-linecap:butt;stroke-linejoin:miter;stroke:rgb(13.729858%,12.159729%,12.548828%);stroke-opacity:1;stroke-miterlimit:4;" d="M 0.0015125 0.001775 C 0.0015125 3.404119 -2.791456 6.165838 -6.236769 6.165838 C -9.685987 6.165838 -12.478956 3.404119 -12.478956 0.001775 C -12.478956 -3.400569 -9.685987 -6.162287 -6.236769 -6.162287 C -2.791456 -6.162287 0.0015125 -3.400569 0.0015125 0.001775 Z M 0.0015125 0.001775 " transform="matrix(1,0,0,-1,15.3188,95.0174)"/>
<path style=" stroke:none;fill-rule:nonzero;fill:rgb(96.310425%,78.785706%,42.234802%);fill-opacity:1;" d="M 175.648438 64.734375 C 175.648438 61.332031 172.855469 58.570312 169.410156 58.570312 C 165.960938 58.570312 163.167969 61.332031 163.167969 64.734375 C 163.167969 68.136719 165.960938 70.898438 169.410156 70.898438 C 172.855469 70.898438 175.648438 68.136719 175.648438 64.734375 "/>
<path style="fill:none;stroke-width:2;stroke-linecap:butt;stroke-linejoin:miter;stroke:rgb(13.729858%,12.159729%,12.548828%);stroke-opacity:1;stroke-miterlimit:4;" d="M 0.0009375 -0.000175 C 0.0009375 3.402169 -2.792031 6.163888 -6.237344 6.163888 C -9.686562 6.163888 -12.479531 3.402169 -12.479531 -0.000175 C -12.479531 -3.402519 -9.686562 -6.164237 -6.237344 -6.164237 C -2.792031 -6.164237 0.0009375 -3.402519 0.0009375 -0.000175 Z M 0.0009375 -0.000175 " transform="matrix(1,0,0,-1,175.6475,64.7342)"/>
<path style=" stroke:none;fill-rule:nonzero;fill:rgb(96.310425%,78.785706%,42.234802%);fill-opacity:1;" d="M 218.789062 94.746094 C 218.789062 91.34375 215.996094 88.582031 212.550781 88.582031 C 209.101562 88.582031 206.308594 91.34375 206.308594 94.746094 C 206.308594 98.148438 209.101562 100.910156 212.550781 100.910156 C 215.996094 100.910156 218.789062 98.148438 218.789062 94.746094 "/>
<path style="fill:none;stroke-width:2;stroke-linecap:butt;stroke-linejoin:miter;stroke:rgb(13.729858%,12.159729%,12.548828%);stroke-opacity:1;stroke-miterlimit:4;" d="M -0.0000375 0.00180625 C -0.0000375 3.40415 -2.793006 6.165869 -6.238319 6.165869 C -9.687537 6.165869 -12.480506 3.40415 -12.480506 0.00180625 C -12.480506 -3.400537 -9.687537 -6.162256 -6.238319 -6.162256 C -2.793006 -6.162256 -0.0000375 -3.400537 -0.0000375 0.00180625 Z M -0.0000375 0.00180625 " transform="matrix(1,0,0,-1,218.7891,94.7479)"/>
<path style=" stroke:none;fill-rule:nonzero;fill:rgb(96.310425%,78.785706%,42.234802%);fill-opacity:1;" d="M 175.238281 22.335938 C 175.238281 18.933594 172.445312 16.171875 169 16.171875 C 165.550781 16.171875 162.757812 18.933594 162.757812 22.335938 C 162.757812 25.738281 165.550781 28.5 169 28.5 C 172.445312 28.5 175.238281 25.738281 175.238281 22.335938 "/>
<path style="fill:none;stroke-width:2;stroke-linecap:butt;stroke-linejoin:miter;stroke:rgb(13.729858%,12.159729%,12.548828%);stroke-opacity:1;stroke-miterlimit:4;" d="M 0.00098125 0.0012625 C 0.00098125 3.403606 -2.791988 6.165325 -6.2373 6.165325 C -9.686519 6.165325 -12.479488 3.403606 -12.479488 0.0012625 C -12.479488 -3.401081 -9.686519 -6.1628 -6.2373 -6.1628 C -2.791988 -6.1628 0.00098125 -3.401081 0.00098125 0.0012625 Z M 0.00098125 0.0012625 " transform="matrix(1,0,0,-1,175.2373,22.3372)"/>
<path style=" stroke:none;fill-rule:nonzero;fill:rgb(96.310425%,78.785706%,42.234802%);fill-opacity:1;" d="M 134.089844 95.152344 C 134.089844 91.75 131.296875 88.988281 127.851562 88.988281 C 124.402344 88.988281 121.609375 91.75 121.609375 95.152344 C 121.609375 98.554688 124.402344 101.316406 127.851562 101.316406 C 131.296875 101.316406 134.089844 98.554688 134.089844 95.152344 "/>
<path style="fill:none;stroke-width:2;stroke-linecap:butt;stroke-linejoin:miter;stroke:rgb(13.729858%,12.159729%,12.548828%);stroke-opacity:1;stroke-miterlimit:4;" d="M 0.00004375 -0.00024375 C 0.00004375 3.4021 -2.792925 6.163819 -6.238237 6.163819 C -9.687456 6.163819 -12.480425 3.4021 -12.480425 -0.00024375 C -12.480425 -3.402587 -9.687456 -6.164306 -6.238237 -6.164306 C -2.792925 -6.164306 0.00004375 -3.402587 0.00004375 -0.00024375 Z M 0.00004375 -0.00024375 " transform="matrix(1,0,0,-1,134.0898,95.1521)"/>
<path style=" stroke:none;fill-rule:nonzero;fill:rgb(96.310425%,78.785706%,42.234802%);fill-opacity:1;" d="M 293.144531 64.726562 C 293.144531 61.320312 290.351562 58.5625 286.90625 58.5625 C 283.457031 58.5625 280.664062 61.320312 280.664062 64.726562 C 280.664062 68.128906 283.457031 70.890625 286.90625 70.890625 C 290.351562 70.890625 293.144531 68.128906 293.144531 64.726562 "/>
<path style="fill:none;stroke-width:2;stroke-linecap:butt;stroke-linejoin:miter;stroke:rgb(13.729858%,12.159729%,12.548828%);stroke-opacity:1;stroke-miterlimit:4;" d="M 0.00003125 -0.0011625 C 0.00003125 3.405088 -2.792938 6.1629 -6.23825 6.1629 C -9.687469 6.1629 -12.480438 3.405088 -12.480438 -0.0011625 C -12.480438 -3.403506 -9.687469 -6.165225 -6.23825 -6.165225 C -2.792938 -6.165225 0.00003125 -3.403506 0.00003125 -0.0011625 Z M 0.00003125 -0.0011625 " transform="matrix(1,0,0,-1,293.1445,64.7254)"/>
<path style=" stroke:none;fill-rule:nonzero;fill:rgb(96.310425%,78.785706%,42.234802%);fill-opacity:1;" d="M 292.734375 22.328125 C 292.734375 18.925781 289.941406 16.164062 286.496094 16.164062 C 283.046875 16.164062 280.253906 18.925781 280.253906 22.328125 C 280.253906 25.730469 283.046875 28.492188 286.496094 28.492188 C 289.941406 28.492188 292.734375 25.730469 292.734375 22.328125 "/>
<path style="fill:none;stroke-width:2;stroke-linecap:butt;stroke-linejoin:miter;stroke:rgb(13.729858%,12.159729%,12.548828%);stroke-opacity:1;stroke-miterlimit:4;" d="M -0.000025 0.000775 C -0.000025 3.403119 -2.792994 6.164838 -6.238306 6.164838 C -9.687525 6.164838 -12.480494 3.403119 -12.480494 0.000775 C -12.480494 -3.401569 -9.687525 -6.163287 -6.238306 -6.163287 C -2.792994 -6.163287 -0.000025 -3.401569 -0.000025 0.000775 Z M -0.000025 0.000775 " transform="matrix(1,0,0,-1,292.7344,22.3289)"/>
<path style=" stroke:none;fill-rule:nonzero;fill:rgb(96.310425%,78.785706%,42.234802%);fill-opacity:1;" d="M 251.585938 95.144531 C 251.585938 91.738281 248.792969 88.980469 245.347656 88.980469 C 241.902344 88.980469 239.109375 91.738281 239.109375 95.144531 C 239.109375 98.546875 241.902344 101.308594 245.347656 101.308594 C 248.792969 101.308594 251.585938 98.546875 251.585938 95.144531 "/>
<path style="fill:none;stroke-width:2;stroke-linecap:butt;stroke-linejoin:miter;stroke:rgb(13.729858%,12.159729%,12.548828%);stroke-opacity:1;stroke-miterlimit:4;" d="M -0.0009625 -0.00113125 C -0.0009625 3.405119 -2.793931 6.162931 -6.239244 6.162931 C -9.684556 6.162931 -12.477525 3.405119 -12.477525 -0.00113125 C -12.477525 -3.403475 -9.684556 -6.165194 -6.239244 -6.165194 C -2.793931 -6.165194 -0.0009625 -3.403475 -0.0009625 -0.00113125 Z M -0.0009625 -0.00113125 " transform="matrix(1,0,0,-1,251.5869,95.1434)"/>
<path style=" stroke:none;fill-rule:nonzero;fill:rgb(96.310425%,78.785706%,42.234802%);fill-opacity:1;" d="M 410.863281 63.835938 C 410.863281 60.433594 408.070312 57.671875 404.625 57.671875 C 401.175781 57.671875 398.382812 60.433594 398.382812 63.835938 C 398.382812 67.238281 401.175781 70 404.625 70 C 408.070312 70 410.863281 67.238281 410.863281 63.835938 "/>
<path style="fill:none;stroke-width:2;stroke-linecap:butt;stroke-linejoin:miter;stroke:rgb(13.729858%,12.159729%,12.548828%);stroke-opacity:1;stroke-miterlimit:4;" d="M -0.00001875 -0.0002375 C -0.00001875 3.402106 -2.792987 6.163825 -6.2383 6.163825 C -9.687519 6.163825 -12.480487 3.402106 -12.480487 -0.0002375 C -12.480487 -3.402581 -9.687519 -6.1643 -6.2383 -6.1643 C -2.792987 -6.1643 -0.00001875 -3.402581 -0.00001875 -0.0002375 Z M -0.00001875 -0.0002375 " transform="matrix(1,0,0,-1,410.8633,63.8357)"/>
<path style=" stroke:none;fill-rule:nonzero;fill:rgb(96.310425%,78.785706%,42.234802%);fill-opacity:1;" d="M 454.003906 93.847656 C 454.003906 90.445312 451.210938 87.683594 447.765625 87.683594 C 444.320312 87.683594 441.527344 90.445312 441.527344 93.847656 C 441.527344 97.25 444.320312 100.011719 447.765625 100.011719 C 451.210938 100.011719 454.003906 97.25 454.003906 93.847656 "/>
<path style="fill:none;stroke-width:2;stroke-linecap:butt;stroke-linejoin:miter;stroke:rgb(13.729858%,12.159729%,12.548828%);stroke-opacity:1;stroke-miterlimit:4;" d="M -0.00099375 0.00174375 C -0.00099375 3.404088 -2.793963 6.165806 -6.239275 6.165806 C -9.684588 6.165806 -12.477556 3.404088 -12.477556 0.00174375 C -12.477556 -3.4006 -9.684588 -6.162319 -6.239275 -6.162319 C -2.793963 -6.162319 -0.00099375 -3.4006 -0.00099375 0.00174375 Z M -0.00099375 0.00174375 " transform="matrix(1,0,0,-1,454.0049,93.8494)"/>
<path style=" stroke:none;fill-rule:nonzero;fill:rgb(96.310425%,78.785706%,42.234802%);fill-opacity:1;" d="M 410.453125 21.4375 C 410.453125 18.035156 407.660156 15.273438 404.214844 15.273438 C 400.765625 15.273438 397.972656 18.035156 397.972656 21.4375 C 397.972656 24.839844 400.765625 27.601562 404.214844 27.601562 C 407.660156 27.601562 410.453125 24.839844 410.453125 21.4375 "/>
<path style="fill:none;stroke-width:2;stroke-linecap:butt;stroke-linejoin:miter;stroke:rgb(13.729858%,12.159729%,12.548828%);stroke-opacity:1;stroke-miterlimit:4;" d="M 0.000025 0.0018 C 0.000025 3.404144 -2.792944 6.165863 -6.238256 6.165863 C -9.687475 6.165863 -12.480444 3.404144 -12.480444 0.0018 C -12.480444 -3.400544 -9.687475 -6.162262 -6.238256 -6.162262 C -2.792944 -6.162262 0.000025 -3.400544 0.000025 0.0018 Z M 0.000025 0.0018 " transform="matrix(1,0,0,-1,410.4531,21.4393)"/>
<path style=" stroke:none;fill-rule:nonzero;fill:rgb(96.310425%,78.785706%,42.234802%);fill-opacity:1;" d="M 336.191406 95.460938 C 336.191406 92.058594 333.398438 89.296875 329.953125 89.296875 C 326.507812 89.296875 323.714844 92.058594 323.714844 95.460938 C 323.714844 98.863281 326.507812 101.625 329.953125 101.625 C 333.398438 101.625 336.191406 98.863281 336.191406 95.460938 "/>
<path style="fill:none;stroke-width:2;stroke-linecap:butt;stroke-linejoin:miter;stroke:rgb(13.729858%,12.159729%,12.548828%);stroke-opacity:1;stroke-miterlimit:4;" d="M -0.00099375 -0.0002375 C -0.00099375 3.402106 -2.793963 6.163825 -6.239275 6.163825 C -9.684588 6.163825 -12.477556 3.402106 -12.477556 -0.0002375 C -12.477556 -3.402581 -9.684588 -6.1643 -6.239275 -6.1643 C -2.793963 -6.1643 -0.00099375 -3.402581 -0.00099375 -0.0002375 Z M -0.00099375 -0.0002375 " transform="matrix(1,0,0,-1,336.1924,95.4607)"/>
<path style=" stroke:none;fill-rule:nonzero;fill:rgb(96.310425%,78.785706%,42.234802%);fill-opacity:1;" d="M 368.015625 94.914062 C 368.015625 91.511719 365.222656 88.75 361.777344 88.75 C 358.332031 88.75 355.539062 91.511719 355.539062 94.914062 C 355.539062 98.316406 358.332031 101.078125 361.777344 101.078125 C 365.222656 101.078125 368.015625 98.316406 368.015625 94.914062 "/>
<path style="fill:none;stroke-width:2;stroke-linecap:butt;stroke-linejoin:miter;stroke:rgb(13.729858%,12.159729%,12.548828%);stroke-opacity:1;stroke-miterlimit:4;" d="M -0.000975 0.0007375 C -0.000975 3.403081 -2.793944 6.1648 -6.239256 6.1648 C -9.684569 6.1648 -12.477537 3.403081 -12.477537 0.0007375 C -12.477537 -3.401606 -9.684569 -6.163325 -6.239256 -6.163325 C -2.793944 -6.163325 -0.000975 -3.401606 -0.000975 0.0007375 Z M -0.000975 0.0007375 " transform="matrix(1,0,0,-1,368.0166,94.9148)"/>
</g>
</svg>
