<?xml version="1.0" encoding="UTF-8"?>
<svg xmlns="http://www.w3.org/2000/svg" xmlns:xlink="http://www.w3.org/1999/xlink" width="108pt" height="108pt" viewBox="0 0 108 108" version="1.1">
<g id="surface1">
<path style="fill:none;stroke-width:2;stroke-linecap:butt;stroke-linejoin:miter;stroke:rgb(13.729858%,12.159729%,12.548828%);stroke-opacity:1;stroke-miterlimit:4;" d="M -0.00099375 0.0019125 L 41.5576 30.419881 " transform="matrix(1,0,0,-1,11.5674,90.5566)"/>
<path style="fill:none;stroke-width:2;stroke-linecap:butt;stroke-linejoin:miter;stroke:rgb(13.729858%,12.159729%,12.548828%);stroke-opacity:1;stroke-miterlimit:4;" d="M 0.00144375 0.00191875 L 43.302225 75.001919 L 86.603006 0.00191875 Z M 0.00144375 0.00191875 " transform="matrix(1,0,0,-1,10.3384,91.1152)"/>
<path style="fill:none;stroke-width:2;stroke-linecap:butt;stroke-linejoin:miter;stroke:rgb(13.729858%,12.159729%,12.548828%);stroke-opacity:1;stroke-miterlimit:4;" d="M -0.000000000000007105 -0.001925 L -0.410156 42.396513 " transform="matrix(1,0,0,-1,53.125,60.1387)"/>
<path style="fill:none;stroke-width:2;stroke-linecap:butt;stroke-linejoin:miter;stroke:rgb(13.729858%,12.159729%,12.548828%);stroke-opacity:1;stroke-miterlimit:4;" d="M -0.000000000000007105 -0.001925 L 42.910156 -29.01755 " transform="matrix(1,0,0,-1,53.125,60.1387)"/>
<path style=" stroke:none;fill-rule:nonzero;fill:rgb(96.310425%,78.785706%,42.234802%);fill-opacity:1;" d="M 59.363281 60.140625 C 59.363281 56.734375 56.570312 53.972656 53.125 53.972656 C 49.679688 53.972656 46.886719 56.734375 46.886719 60.140625 C 46.886719 63.539062 49.679688 66.300781 53.125 66.300781 C 56.570312 66.300781 59.363281 63.539062 59.363281 60.140625 "/>
<path style="fill:none;stroke-width:2;stroke-linecap:butt;stroke-linejoin:miter;stroke:rgb(13.729858%,12.159729%,12.548828%);stroke-opacity:1;stroke-miterlimit:4;" d="M -0.00101875 -0.001925 C -0.00101875 3.404325 -2.793988 6.166044 -6.2393 6.166044 C -9.684613 6.166044 -12.477581 3.404325 -12.477581 -0.001925 C -12.477581 -3.400362 -9.684613 -6.162081 -6.2393 -6.162081 C -2.793988 -6.162081 -0.00101875 -3.400362 -0.00101875 -0.001925 Z M -0.00101875 -0.001925 " transform="matrix(1,0,0,-1,59.3643,60.1387)"/>
<path style=" stroke:none;fill-rule:nonzero;fill:rgb(96.310425%,78.785706%,42.234802%);fill-opacity:1;" d="M 102.507812 90.152344 C 102.507812 86.75 99.714844 83.988281 96.269531 83.988281 C 92.820312 83.988281 90.027344 86.75 90.027344 90.152344 C 90.027344 93.554688 92.820312 96.316406 96.269531 96.316406 C 99.714844 96.316406 102.507812 93.554688 102.507812 90.152344 "/>
<path style="fill:none;stroke-width:2;stroke-linecap:butt;stroke-linejoin:miter;stroke:rgb(13.729858%,12.159729%,12.548828%);stroke-opacity:1;stroke-miterlimit:4;" d="M 0.0019125 -0.00004375 C 0.0019125 3.4023 -2.791056 6.164019 -6.236369 6.164019 C -9.685587 6.164019 -12.478556 3.4023 -12.478556 -0.00004375 C -12.478556 -3.402388 -9.685587 -6.164106 -6.236369 -6.164106 C -2.791056 -6.164106 0.0019125 -3.402388 0.0019125 -0.00004375 Z M 0.0019125 -0.00004375 " transform="matrix(1,0,0,-1,102.5059,90.1523)"/>
<path style=" stroke:none;fill-rule:nonzero;fill:rgb(96.310425%,78.785706%,42.234802%);fill-opacity:1;" d="M 58.953125 17.742188 C 58.953125 14.339844 56.160156 11.578125 52.714844 11.578125 C 49.269531 11.578125 46.476562 14.339844 46.476562 17.742188 C 46.476562 21.144531 49.269531 23.90625 52.714844 23.90625 C 56.160156 23.90625 58.953125 21.144531 58.953125 17.742188 "/>
<path style="fill:none;stroke-width:2;stroke-linecap:butt;stroke-linejoin:miter;stroke:rgb(13.729858%,12.159729%,12.548828%);stroke-opacity:1;stroke-miterlimit:4;" d="M -0.000975 0.0000125 C -0.000975 3.402356 -2.793944 6.164075 -6.239256 6.164075 C -9.684569 6.164075 -12.477537 3.402356 -12.477537 0.0000125 C -12.477537 -3.402331 -9.684569 -6.16405 -6.239256 -6.16405 C -2.793944 -6.16405 -0.000975 -3.402331 -0.000975 0.0000125 Z M -0.000975 0.0000125 " transform="matrix(1,0,0,-1,58.9541,17.7422)"/>
<path style=" stroke:none;fill-rule:nonzero;fill:rgb(96.310425%,78.785706%,42.234802%);fill-opacity:1;" d="M 17.804688 90.554688 C 17.804688 87.152344 15.011719 84.394531 11.570312 84.394531 C 8.121094 84.394531 5.328125 87.152344 5.328125 90.554688 C 5.328125 93.957031 8.121094 96.71875 11.570312 96.71875 C 15.011719 96.71875 17.804688 93.957031 17.804688 90.554688 "/>
<path style="fill:none;stroke-width:2;stroke-linecap:butt;stroke-linejoin:miter;stroke:rgb(13.729858%,12.159729%,12.548828%);stroke-opacity:1;stroke-miterlimit:4;" d="M -0.0019125 0.0019125 C -0.0019125 3.404256 -2.794881 6.162069 -6.236287 6.162069 C -9.685506 6.162069 -12.478475 3.404256 -12.478475 0.0019125 C -12.478475 -3.400431 -9.685506 -6.16215 -6.236287 -6.16215 C -2.794881 -6.16215 -0.0019125 -3.400431 -0.0019125 0.0019125 Z M -0.0019125 0.0019125 " transform="matrix(1,0,0,-1,17.8066,90.5566)"/>
</g>
</svg>
