<?xml version="1.0" encoding="UTF-8"?>
<svg xmlns="http://www.w3.org/2000/svg" xmlns:xlink="http://www.w3.org/1999/xlink" width="65.5453pt" height="89.9956pt" viewBox="0 0 65.5453 89.9956" version="1.1">
<defs>
<clipPath id="clip1">
  <path d="M 3 0 L 65.546875 0 L 65.546875 49 L 3 49 Z M 3 0 "/>
</clipPath>
<clipPath id="clip2">
  <path d="M 4 42 L 65.546875 42 L 65.546875 89.996094 L 4 89.996094 Z M 4 42 "/>
</clipPath>
<clipPath id="clip3">
  <path d="M 0 41 L 11 41 L 11 89.996094 L 0 89.996094 Z M 0 41 "/>
</clipPath>
<clipPath id="clip4">
  <path d="M 4 41 L 21 41 L 21 89.996094 L 4 89.996094 Z M 4 41 "/>
</clipPath>
<clipPath id="clip5">
  <path d="M 0 68 L 24 68 L 24 89.996094 L 0 89.996094 Z M 0 68 "/>
</clipPath>
<clipPath id="clip6">
  <path d="M 44 29 L 65.546875 29 L 65.546875 61 L 44 61 Z M 44 29 "/>
</clipPath>
</defs>
<g id="surface1">
<path style="fill:none;stroke-width:1;stroke-linecap:butt;stroke-linejoin:miter;stroke:rgb(13.729858%,12.159729%,12.548828%);stroke-opacity:1;stroke-miterlimit:4;" d="M 0.00158125 -0.0009375 L 48.501581 -0.0009375 " transform="matrix(1,0,0,-1,10.1117,45.71)"/>
<g clip-path="url(#clip1)" clip-rule="nonzero">
<path style="fill:none;stroke-width:1;stroke-linecap:butt;stroke-linejoin:miter;stroke:rgb(13.729858%,12.159729%,12.548828%);stroke-opacity:1;stroke-miterlimit:4;" d="M 0.00158125 -0.0009375 L 51.501581 -39.500937 " transform="matrix(1,0,0,-1,9.1117,3.71)"/>
</g>
<g clip-path="url(#clip2)" clip-rule="nonzero">
<path style="fill:none;stroke-width:1;stroke-linecap:butt;stroke-linejoin:miter;stroke:rgb(13.729858%,12.159729%,12.548828%);stroke-opacity:1;stroke-miterlimit:4;" d="M 0.00158125 -0.0009375 L -50.498419 -37.500937 " transform="matrix(1,0,0,-1,60.6117,48.21)"/>
</g>
<path style="fill:none;stroke-width:1;stroke-linecap:butt;stroke-linejoin:miter;stroke:rgb(13.729858%,12.159729%,12.548828%);stroke-opacity:1;stroke-miterlimit:4;" d="M 0.00161875 0.00048125 C -5.396819 -12.386237 -5.396819 -26.386237 0.314119 -37.007331 " transform="matrix(1,0,0,-1,4.5101,6.3247)"/>
<g clip-path="url(#clip3)" clip-rule="nonzero">
<path style="fill:none;stroke-width:1;stroke-linecap:butt;stroke-linejoin:miter;stroke:rgb(13.729858%,12.159729%,12.548828%);stroke-opacity:1;stroke-miterlimit:4;" d="M 0.00161875 0.00048125 C -5.396819 -12.386237 -5.396819 -26.386237 0.314119 -37.007331 " transform="matrix(1,0,0,-1,4.5101,47.3247)"/>
</g>
<path style="fill:none;stroke-width:1;stroke-linecap:butt;stroke-linejoin:miter;stroke:rgb(13.729858%,12.159729%,12.548828%);stroke-opacity:1;stroke-miterlimit:4;" d="M 0.00158125 -0.00188125 C 5.212519 -12.462819 5.005487 -26.462819 -0.865606 -36.997975 " transform="matrix(1,0,0,-1,9.9867,5.2989)"/>
<g clip-path="url(#clip4)" clip-rule="nonzero">
<path style="fill:none;stroke-width:1;stroke-linecap:butt;stroke-linejoin:miter;stroke:rgb(13.729858%,12.159729%,12.548828%);stroke-opacity:1;stroke-miterlimit:4;" d="M 0.00158125 -0.00188125 C 5.212519 -12.462819 5.005487 -26.462819 -0.865606 -36.997975 " transform="matrix(1,0,0,-1,10.9867,47.2989)"/>
</g>
<path style=" stroke:none;fill-rule:nonzero;fill:rgb(96.403503%,78.808594%,42.222595%);fill-opacity:1;" d="M 11.171875 5.453125 C 11.171875 2.992188 9.152344 1 6.664062 1 C 4.171875 1 2.152344 2.992188 2.152344 5.453125 C 2.152344 7.910156 4.171875 9.90625 6.664062 9.90625 C 9.152344 9.90625 11.171875 7.910156 11.171875 5.453125 "/>
<path style="fill:none;stroke-width:2;stroke-linecap:butt;stroke-linejoin:miter;stroke:rgb(13.729858%,12.159729%,12.548828%);stroke-opacity:1;stroke-miterlimit:4;" d="M 0.001075 0.000575 C 0.001075 2.461512 -2.018456 4.4537 -4.506737 4.4537 C -6.998925 4.4537 -9.018456 2.461512 -9.018456 0.000575 C -9.018456 -2.456456 -6.998925 -4.45255 -4.506737 -4.45255 C -2.018456 -4.45255 0.001075 -2.456456 0.001075 0.000575 Z M 0.001075 0.000575 " transform="matrix(1,0,0,-1,11.1708,5.4537)"/>
<path style=" stroke:none;fill-rule:nonzero;fill:rgb(96.403503%,78.808594%,42.222595%);fill-opacity:1;" d="M 12.042969 84.542969 C 12.042969 82.082031 10.027344 80.089844 7.539062 80.089844 C 5.046875 80.089844 3.03125 82.082031 3.03125 84.542969 C 3.03125 87 5.046875 88.996094 7.539062 88.996094 C 10.027344 88.996094 12.042969 87 12.042969 84.542969 "/>
<g clip-path="url(#clip5)" clip-rule="nonzero">
<path style="fill:none;stroke-width:2;stroke-linecap:butt;stroke-linejoin:miter;stroke:rgb(13.729858%,12.159729%,12.548828%);stroke-opacity:1;stroke-miterlimit:4;" d="M -0.00183125 -0.00046875 C -0.00183125 2.460469 -2.017456 4.452656 -4.505737 4.452656 C -6.997925 4.452656 -9.01355 2.460469 -9.01355 -0.00046875 C -9.01355 -2.4575 -6.997925 -4.453594 -4.505737 -4.453594 C -2.017456 -4.453594 -0.00183125 -2.4575 -0.00183125 -0.00046875 Z M -0.00183125 -0.00046875 " transform="matrix(1,0,0,-1,12.0448,84.5425)"/>
</g>
<path style=" stroke:none;fill-rule:nonzero;fill:rgb(96.403503%,78.808594%,42.222595%);fill-opacity:1;" d="M 12.042969 45.042969 C 12.042969 42.582031 10.027344 40.589844 7.539062 40.589844 C 5.046875 40.589844 3.03125 42.582031 3.03125 45.042969 C 3.03125 47.5 5.046875 49.496094 7.539062 49.496094 C 10.027344 49.496094 12.042969 47.5 12.042969 45.042969 "/>
<path style="fill:none;stroke-width:2;stroke-linecap:butt;stroke-linejoin:miter;stroke:rgb(13.729858%,12.159729%,12.548828%);stroke-opacity:1;stroke-miterlimit:4;" d="M -0.00183125 -0.00046875 C -0.00183125 2.460469 -2.017456 4.452656 -4.505737 4.452656 C -6.997925 4.452656 -9.01355 2.460469 -9.01355 -0.00046875 C -9.01355 -2.4575 -6.997925 -4.453594 -4.505737 -4.453594 C -2.017456 -4.453594 -0.00183125 -2.4575 -0.00183125 -0.00046875 Z M -0.00183125 -0.00046875 " transform="matrix(1,0,0,-1,12.0448,45.0425)"/>
<path style=" stroke:none;fill-rule:nonzero;fill:rgb(96.403503%,78.808594%,42.222595%);fill-opacity:1;" d="M 64.546875 45.042969 C 64.546875 42.582031 62.527344 40.589844 60.039062 40.589844 C 57.546875 40.589844 55.53125 42.582031 55.53125 45.042969 C 55.53125 47.5 57.546875 49.496094 60.039062 49.496094 C 62.527344 49.496094 64.546875 47.5 64.546875 45.042969 "/>
<g clip-path="url(#clip6)" clip-rule="nonzero">
<path style="fill:none;stroke-width:2;stroke-linecap:butt;stroke-linejoin:miter;stroke:rgb(13.729858%,12.159729%,12.548828%);stroke-opacity:1;stroke-miterlimit:4;" d="M 0.001575 -0.00046875 C 0.001575 2.460469 -2.017956 4.452656 -4.506237 4.452656 C -6.998425 4.452656 -9.01405 2.460469 -9.01405 -0.00046875 C -9.01405 -2.4575 -6.998425 -4.453594 -4.506237 -4.453594 C -2.017956 -4.453594 0.001575 -2.4575 0.001575 -0.00046875 Z M 0.001575 -0.00046875 " transform="matrix(1,0,0,-1,64.5453,45.0425)"/>
</g>
</g>
</svg>
