<?xml version="1.0" encoding="UTF-8"?>
<svg xmlns="http://www.w3.org/2000/svg" xmlns:xlink="http://www.w3.org/1999/xlink" width="198.694pt" height="89.4162pt" viewBox="0 0 198.694 89.4162" version="1.1">
<defs>
<clipPath id="clip1">
  <path d="M 137 18 L 198.695312 18 L 198.695312 69 L 137 69 Z M 137 18 "/>
</clipPath>
<clipPath id="clip2">
  <path d="M 0 0 L 198.695312 0 L 198.695312 32 L 0 32 Z M 0 0 "/>
</clipPath>
<clipPath id="clip3">
  <path d="M 2 68 L 198.695312 68 L 198.695312 81 L 2 81 Z M 2 68 "/>
</clipPath>
<clipPath id="clip4">
  <path d="M 39 52 L 71 52 L 71 89.417969 L 39 89.417969 Z M 39 52 "/>
</clipPath>
<clipPath id="clip5">
  <path d="M 38 79 L 53 79 L 53 89.417969 L 38 89.417969 Z M 38 79 "/>
</clipPath>
<clipPath id="clip6">
  <path d="M 33 75 L 48 75 L 48 89.417969 L 33 89.417969 Z M 33 75 "/>
</clipPath>
<clipPath id="clip7">
  <path d="M 92 56 L 116 56 L 116 89.417969 L 92 89.417969 Z M 92 56 "/>
</clipPath>
<clipPath id="clip8">
  <path d="M 101 82 L 116 82 L 116 89.417969 L 101 89.417969 Z M 101 82 "/>
</clipPath>
<clipPath id="clip9">
  <path d="M 95 54 L 119 54 L 119 89.417969 L 95 89.417969 Z M 95 54 "/>
</clipPath>
<clipPath id="clip10">
  <path d="M 106 79 L 121 79 L 121 89.417969 L 106 89.417969 Z M 106 79 "/>
</clipPath>
<clipPath id="clip11">
  <path d="M 155 46 L 181 46 L 181 89.417969 L 155 89.417969 Z M 155 46 "/>
</clipPath>
<clipPath id="clip12">
  <path d="M 153 76 L 168 76 L 168 89.417969 L 153 89.417969 Z M 153 76 "/>
</clipPath>
<clipPath id="clip13">
  <path d="M 159 48 L 184 48 L 184 89.417969 L 159 89.417969 Z M 159 48 "/>
</clipPath>
<clipPath id="clip14">
  <path d="M 159 80 L 174 80 L 174 89.417969 L 159 89.417969 Z M 159 80 "/>
</clipPath>
</defs>
<g id="surface1">
<path style=" stroke:none;fill-rule:nonzero;fill:rgb(100%,100%,100%);fill-opacity:1;" d="M 120.253906 46.386719 C 120.253906 56.984375 103.746094 65.578125 83.382812 65.578125 C 63.023438 65.578125 46.515625 56.984375 46.515625 46.386719 C 46.515625 35.785156 63.023438 27.195312 83.382812 27.195312 C 103.746094 27.195312 120.253906 35.785156 120.253906 46.386719 "/>
<path style="fill:none;stroke-width:1;stroke-linecap:butt;stroke-linejoin:miter;stroke:rgb(13.729858%,12.159729%,12.548828%);stroke-opacity:1;stroke-miterlimit:4;" d="M 0.00030625 -0.00041875 C 0.00030625 -10.598075 -16.507506 -19.191825 -36.870788 -19.191825 C -57.230163 -19.191825 -73.737975 -10.598075 -73.737975 -0.00041875 C -73.737975 10.601144 -57.230163 19.190988 -36.870788 19.190988 C -16.507506 19.190988 0.00030625 10.601144 0.00030625 -0.00041875 Z M 0.00030625 -0.00041875 " transform="matrix(1,0,0,-1,120.2536,46.3863)"/>
<g clip-path="url(#clip1)" clip-rule="nonzero">
<path style="fill:none;stroke-width:1;stroke-linecap:butt;stroke-linejoin:miter;stroke:rgb(13.729858%,12.159729%,12.548828%);stroke-opacity:1;stroke-miterlimit:4;" d="M 0.00079375 0.0011 C -19.553894 -5.244994 -43.139831 -10.022337 -43.139831 -18.776244 C -43.139831 -28.330931 -7.760925 -32.3114 11.793763 -38.670775 " transform="matrix(1,0,0,-1,186.7453,23.8761)"/>
</g>
<g clip-path="url(#clip2)" clip-rule="nonzero">
<path style="fill:none;stroke-width:1;stroke-linecap:butt;stroke-linejoin:miter;stroke:rgb(13.729858%,12.159729%,12.548828%);stroke-opacity:1;stroke-miterlimit:4;" d="M 0.0002875 -0.0003875 L 193.937788 21.21055 " transform="matrix(1,0,0,-1,0.0544,25.6793)"/>
</g>
<g clip-path="url(#clip3)" clip-rule="nonzero">
<path style="fill:none;stroke-width:1;stroke-linecap:butt;stroke-linejoin:miter;stroke:rgb(13.729858%,12.159729%,12.548828%);stroke-opacity:1;stroke-miterlimit:4;" d="M 0.000325 -0.00135625 L 187.371419 -1.513075 " transform="matrix(1,0,0,-1,8.6403,73.6588)"/>
</g>
<path style="fill:none;stroke-width:1;stroke-linecap:butt;stroke-linejoin:miter;stroke:rgb(13.729858%,12.159729%,12.548828%);stroke-opacity:1;stroke-miterlimit:4;" d="M -0.00068125 -0.0019 L 45.378225 -0.0019 " transform="matrix(1,0,0,-1,108.6374,46.7481)"/>
<path style="fill:none;stroke-width:1;stroke-linecap:butt;stroke-linejoin:miter;stroke:rgb(13.729858%,12.159729%,12.548828%);stroke-opacity:1;stroke-miterlimit:4;" d="M -0.000675 0.0010625 L -0.000675 4.176844 " transform="matrix(1,0,0,-1,154.0163,50.462)"/>
<path style="fill:none;stroke-width:1;stroke-linecap:butt;stroke-linejoin:miter;stroke:rgb(13.729858%,12.159729%,12.548828%);stroke-opacity:1;stroke-miterlimit:4;" d="M -0.0006875 -0.0009125 L -0.0006875 4.178775 " transform="matrix(1,0,0,-1,109.1335,50.6944)"/>
<path style="fill:none;stroke-width:1;stroke-linecap:butt;stroke-linejoin:miter;stroke:rgb(13.729858%,12.159729%,12.548828%);stroke-opacity:1;stroke-miterlimit:4;" d="M -0.000675 0.00061875 L 45.378231 0.00061875 " transform="matrix(1,0,0,-1,108.1413,41.1764)"/>
<path style="fill:none;stroke-width:1;stroke-linecap:butt;stroke-linejoin:miter;stroke:rgb(13.729858%,12.159729%,12.548828%);stroke-opacity:1;stroke-miterlimit:4;" d="M -0.00066875 0.0010625 L -0.00066875 -4.178625 " transform="matrix(1,0,0,-1,153.5202,37.462)"/>
<path style="fill:none;stroke-width:1;stroke-linecap:butt;stroke-linejoin:miter;stroke:rgb(13.729858%,12.159729%,12.548828%);stroke-opacity:1;stroke-miterlimit:4;" d="M -0.00068125 -0.00036875 L -0.00068125 -4.180056 " transform="matrix(1,0,0,-1,108.6374,37.2301)"/>
<path style="fill:none;stroke-width:1;stroke-linecap:butt;stroke-linejoin:miter;stroke:rgb(13.729858%,12.159729%,12.548828%);stroke-opacity:1;stroke-miterlimit:4;" d="M -0.00071875 -0.0013875 L 11.491469 -26.212325 " transform="matrix(1,0,0,-1,52.1765,12.1783)"/>
<path style="fill:none;stroke-width:1;stroke-linecap:butt;stroke-linejoin:miter;stroke:rgb(13.729858%,12.159729%,12.548828%);stroke-opacity:1;stroke-miterlimit:4;" d="M 0.00123125 -0.00093125 L 2.4192 1.053756 " transform="matrix(1,0,0,-1,61.5183,39.3311)"/>
<path style="fill:none;stroke-width:1;stroke-linecap:butt;stroke-linejoin:miter;stroke:rgb(13.729858%,12.159729%,12.548828%);stroke-opacity:1;stroke-miterlimit:4;" d="M -0.000675 0.0010625 L 2.4212 1.05575 " transform="matrix(1,0,0,-1,50.0163,13.462)"/>
<path style="fill:none;stroke-width:1;stroke-linecap:butt;stroke-linejoin:miter;stroke:rgb(13.729858%,12.159729%,12.548828%);stroke-opacity:1;stroke-miterlimit:4;" d="M -0.00115625 0.000125 L 11.494937 -26.214719 " transform="matrix(1,0,0,-1,55.2785,10.4845)"/>
<path style="fill:none;stroke-width:1;stroke-linecap:butt;stroke-linejoin:miter;stroke:rgb(13.729858%,12.159729%,12.548828%);stroke-opacity:1;stroke-miterlimit:4;" d="M -0.000725 -0.00091875 L -2.4226 -1.055606 " transform="matrix(1,0,0,-1,68.9226,35.7608)"/>
<path style="fill:none;stroke-width:1;stroke-linecap:butt;stroke-linejoin:miter;stroke:rgb(13.729858%,12.159729%,12.548828%);stroke-opacity:1;stroke-miterlimit:4;" d="M 0.00130625 0.0010625 L -2.420569 -1.053625 " transform="matrix(1,0,0,-1,57.6901,9.7745)"/>
<g clip-path="url(#clip4)" clip-rule="nonzero">
<path style="fill:none;stroke-width:1;stroke-linecap:butt;stroke-linejoin:miter;stroke:rgb(13.729858%,12.159729%,12.548828%);stroke-opacity:1;stroke-miterlimit:4;" d="M 0.00026875 -0.0019125 L -19.69895 -27.224569 " transform="matrix(1,0,0,-1,64.4802,58.6309)"/>
</g>
<g clip-path="url(#clip5)" clip-rule="nonzero">
<path style="fill:none;stroke-width:1;stroke-linecap:butt;stroke-linejoin:miter;stroke:rgb(13.729858%,12.159729%,12.548828%);stroke-opacity:1;stroke-miterlimit:4;" d="M -0.000675 0.0010625 L -2.5163 1.809656 " transform="matrix(1,0,0,-1,47.0163,87.462)"/>
</g>
<path style="fill:none;stroke-width:1;stroke-linecap:butt;stroke-linejoin:miter;stroke:rgb(13.729858%,12.159729%,12.548828%);stroke-opacity:1;stroke-miterlimit:4;" d="M -0.000175 -0.00091875 L -2.5158 1.807675 " transform="matrix(1,0,0,-1,66.6408,60.6358)"/>
<path style="fill:none;stroke-width:1;stroke-linecap:butt;stroke-linejoin:miter;stroke:rgb(13.729858%,12.159729%,12.548828%);stroke-opacity:1;stroke-miterlimit:4;" d="M -0.00165625 0.001025 L -19.700875 -27.225537 " transform="matrix(1,0,0,-1,61.3415,55.9229)"/>
<g clip-path="url(#clip6)" clip-rule="nonzero">
<path style="fill:none;stroke-width:1;stroke-linecap:butt;stroke-linejoin:miter;stroke:rgb(13.729858%,12.159729%,12.548828%);stroke-opacity:1;stroke-miterlimit:4;" d="M 0.00125 0.0015375 L 2.516875 -1.807056 " transform="matrix(1,0,0,-1,39.405,81.5406)"/>
</g>
<path style="fill:none;stroke-width:1;stroke-linecap:butt;stroke-linejoin:miter;stroke:rgb(13.729858%,12.159729%,12.548828%);stroke-opacity:1;stroke-miterlimit:4;" d="M 0.0008 -0.001825 L 2.516425 -1.806512 " transform="matrix(1,0,0,-1,58.7492,54.5138)"/>
<g clip-path="url(#clip7)" clip-rule="nonzero">
<path style="fill:none;stroke-width:1;stroke-linecap:butt;stroke-linejoin:miter;stroke:rgb(13.729858%,12.159729%,12.548828%);stroke-opacity:1;stroke-miterlimit:4;" d="M -0.0001625 -0.000375 L 10.909994 -26.285531 " transform="matrix(1,0,0,-1,98.6486,61.734)"/>
</g>
<g clip-path="url(#clip8)" clip-rule="nonzero">
<path style="fill:none;stroke-width:1;stroke-linecap:butt;stroke-linejoin:miter;stroke:rgb(13.729858%,12.159729%,12.548828%);stroke-opacity:1;stroke-miterlimit:4;" d="M -0.000675 0.0010625 L 2.2962 1.059656 " transform="matrix(1,0,0,-1,107.5163,88.962)"/>
</g>
<path style="fill:none;stroke-width:1;stroke-linecap:butt;stroke-linejoin:miter;stroke:rgb(13.729858%,12.159729%,12.548828%);stroke-opacity:1;stroke-miterlimit:4;" d="M -0.00014375 0.00156875 L 2.296731 1.060163 " transform="matrix(1,0,0,-1,96.5978,63.0211)"/>
<g clip-path="url(#clip9)" clip-rule="nonzero">
<path style="fill:none;stroke-width:1;stroke-linecap:butt;stroke-linejoin:miter;stroke:rgb(13.729858%,12.159729%,12.548828%);stroke-opacity:1;stroke-miterlimit:4;" d="M 0.00075 0.00004375 L 10.910906 -26.289019 " transform="matrix(1,0,0,-1,101.593,60.0352)"/>
</g>
<g clip-path="url(#clip10)" clip-rule="nonzero">
<path style="fill:none;stroke-width:1;stroke-linecap:butt;stroke-linejoin:miter;stroke:rgb(13.729858%,12.159729%,12.548828%);stroke-opacity:1;stroke-miterlimit:4;" d="M 0.001775 -0.0009125 L -2.2951 -1.059506 " transform="matrix(1,0,0,-1,114.5451,85.3819)"/>
</g>
<path style="fill:none;stroke-width:1;stroke-linecap:butt;stroke-linejoin:miter;stroke:rgb(13.729858%,12.159729%,12.548828%);stroke-opacity:1;stroke-miterlimit:4;" d="M 0.0008125 -0.00091875 L -2.296062 -1.059512 " transform="matrix(1,0,0,-1,103.882,59.3233)"/>
<path style="fill:none;stroke-width:1;stroke-linecap:butt;stroke-linejoin:miter;stroke:rgb(13.729858%,12.159729%,12.548828%);stroke-opacity:1;stroke-miterlimit:4;" d="M -0.0006625 -0.0003625 L -9.43035 -27.609737 " transform="matrix(1,0,0,-1,103.6491,9.2887)"/>
<path style="fill:none;stroke-width:1;stroke-linecap:butt;stroke-linejoin:miter;stroke:rgb(13.729858%,12.159729%,12.548828%);stroke-opacity:1;stroke-miterlimit:4;" d="M -0.0011625 -0.00086875 L -3.790225 0.581163 " transform="matrix(1,0,0,-1,97.5871,37.4171)"/>
<path style="fill:none;stroke-width:1;stroke-linecap:butt;stroke-linejoin:miter;stroke:rgb(13.729858%,12.159729%,12.548828%);stroke-opacity:1;stroke-miterlimit:4;" d="M -0.0002 0.000075 L -3.789262 0.582106 " transform="matrix(1,0,0,-1,107.1252,10.1407)"/>
<path style="fill:none;stroke-width:1;stroke-linecap:butt;stroke-linejoin:miter;stroke:rgb(13.729858%,12.159729%,12.548828%);stroke-opacity:1;stroke-miterlimit:4;" d="M 0.00081875 -0.0004375 L -9.428869 -27.609812 " transform="matrix(1,0,0,-1,98.6984,8.2105)"/>
<path style="fill:none;stroke-width:1;stroke-linecap:butt;stroke-linejoin:miter;stroke:rgb(13.729858%,12.159729%,12.548828%);stroke-opacity:1;stroke-miterlimit:4;" d="M -0.0011625 -0.0018875 L 3.791806 -0.583919 " transform="matrix(1,0,0,-1,85.8996,35.3028)"/>
<path style="fill:none;stroke-width:1;stroke-linecap:butt;stroke-linejoin:miter;stroke:rgb(13.729858%,12.159729%,12.548828%);stroke-opacity:1;stroke-miterlimit:4;" d="M -0.000675 0.0010625 L 3.788387 -0.584875 " transform="matrix(1,0,0,-1,95.0163,7.962)"/>
<path style="fill:none;stroke-width:1;stroke-linecap:butt;stroke-linejoin:miter;stroke:rgb(13.729858%,12.159729%,12.548828%);stroke-opacity:1;stroke-miterlimit:4;" d="M -0.0006625 0.00005 L 13.272775 -28.703075 " transform="matrix(1,0,0,-1,159.1491,3.0938)"/>
<path style="fill:none;stroke-width:1;stroke-linecap:butt;stroke-linejoin:miter;stroke:rgb(13.729858%,12.159729%,12.548828%);stroke-opacity:1;stroke-miterlimit:4;" d="M 0.0003 -0.00091875 L 2.793269 1.155331 " transform="matrix(1,0,0,-1,169.9372,32.8233)"/>
<path style="fill:none;stroke-width:1;stroke-linecap:butt;stroke-linejoin:miter;stroke:rgb(13.729858%,12.159729%,12.548828%);stroke-opacity:1;stroke-miterlimit:4;" d="M -0.00165625 -0.0004 L 2.795219 1.15585 " transform="matrix(1,0,0,-1,156.654,4.4996)"/>
<path style="fill:none;stroke-width:1;stroke-linecap:butt;stroke-linejoin:miter;stroke:rgb(13.729858%,12.159729%,12.548828%);stroke-opacity:1;stroke-miterlimit:4;" d="M -0.00063125 0.00101875 L 13.272806 -28.702106 " transform="matrix(1,0,0,-1,162.7311,1.2393)"/>
<path style="fill:none;stroke-width:1;stroke-linecap:butt;stroke-linejoin:miter;stroke:rgb(13.729858%,12.159729%,12.548828%);stroke-opacity:1;stroke-miterlimit:4;" d="M -0.00021875 0.0000375 L -2.793188 -1.156212 " transform="matrix(1,0,0,-1,178.4885,28.9141)"/>
<path style="fill:none;stroke-width:1;stroke-linecap:butt;stroke-linejoin:miter;stroke:rgb(13.729858%,12.159729%,12.548828%);stroke-opacity:1;stroke-miterlimit:4;" d="M -0.000675 0.0010625 L -2.79755 -1.155187 " transform="matrix(1,0,0,-1,165.5163,0.462)"/>
<g clip-path="url(#clip11)" clip-rule="nonzero">
<path style="fill:none;stroke-width:1;stroke-linecap:butt;stroke-linejoin:miter;stroke:rgb(13.729858%,12.159729%,12.548828%);stroke-opacity:1;stroke-miterlimit:4;" d="M -0.0006625 0.00059375 L 13.272775 32.250594 " transform="matrix(1,0,0,-1,161.1491,84.0045)"/>
</g>
<path style="fill:none;stroke-width:1;stroke-linecap:butt;stroke-linejoin:miter;stroke:rgb(13.729858%,12.159729%,12.548828%);stroke-opacity:1;stroke-miterlimit:4;" d="M -0.0002 -0.0008625 L 2.796675 -1.297737 " transform="matrix(1,0,0,-1,171.9377,50.6007)"/>
<g clip-path="url(#clip12)" clip-rule="nonzero">
<path style="fill:none;stroke-width:1;stroke-linecap:butt;stroke-linejoin:miter;stroke:rgb(13.729858%,12.159729%,12.548828%);stroke-opacity:1;stroke-miterlimit:4;" d="M 0.00175 -0.00038125 L 2.794719 -1.297256 " transform="matrix(1,0,0,-1,158.6545,82.4254)"/>
</g>
<g clip-path="url(#clip13)" clip-rule="nonzero">
<path style="fill:none;stroke-width:1;stroke-linecap:butt;stroke-linejoin:miter;stroke:rgb(13.729858%,12.159729%,12.548828%);stroke-opacity:1;stroke-miterlimit:4;" d="M -0.00063125 -0.00134375 L 13.272806 32.248656 " transform="matrix(1,0,0,-1,164.7311,86.0885)"/>
</g>
<path style="fill:none;stroke-width:1;stroke-linecap:butt;stroke-linejoin:miter;stroke:rgb(13.729858%,12.159729%,12.548828%);stroke-opacity:1;stroke-miterlimit:4;" d="M -0.00071875 0.0010125 L -2.797594 1.297888 " transform="matrix(1,0,0,-1,180.489,54.9932)"/>
<g clip-path="url(#clip14)" clip-rule="nonzero">
<path style="fill:none;stroke-width:1;stroke-linecap:butt;stroke-linejoin:miter;stroke:rgb(13.729858%,12.159729%,12.548828%);stroke-opacity:1;stroke-miterlimit:4;" d="M -0.000675 0.0010625 L -2.793644 1.297938 " transform="matrix(1,0,0,-1,167.5163,86.962)"/>
</g>
</g>
</svg>
