<?xml version="1.0" encoding="UTF-8"?>
<svg xmlns="http://www.w3.org/2000/svg" xmlns:xlink="http://www.w3.org/1999/xlink" width="446pt" height="213pt" viewBox="0 0 446 213" version="1.1">
<g id="surface1">
<path style="fill:none;stroke-width:6;stroke-linecap:butt;stroke-linejoin:miter;stroke:rgb(0%,0%,0%);stroke-opacity:1;stroke-miterlimit:4;" d="M 31.441476 486.640509 L 484.699643 486.640509 L 484.699643 33.843989 L 31.441476 33.843989 Z M 31.441476 486.640509 " transform="matrix(0.44,0,0,0.44,-6.595968,-8.34448)"/>
<path style="fill:none;stroke-width:6;stroke-linecap:butt;stroke-linejoin:miter;stroke:rgb(0%,0%,0%);stroke-opacity:1;stroke-miterlimit:4;" d="M 32.240481 185.823747 L 484.690765 185.823747 " transform="matrix(0.44,0,0,0.44,-6.595968,-8.34448)"/>
<path style="fill:none;stroke-width:6;stroke-linecap:butt;stroke-linejoin:miter;stroke:rgb(0%,0%,0%);stroke-opacity:1;stroke-miterlimit:4;" d="M 182.20497 31.446972 L 183.217044 484.53646 " transform="matrix(0.44,0,0,0.44,-6.595968,-8.34448)"/>
<path style="fill:none;stroke-width:6;stroke-linecap:butt;stroke-linejoin:miter;stroke:rgb(0%,0%,0%);stroke-opacity:1;stroke-miterlimit:4;" d="M 333.714203 33.843989 L 333.714203 487.155423 " transform="matrix(0.44,0,0,0.44,-6.595968,-8.34448)"/>
<path style="fill:none;stroke-width:6;stroke-linecap:butt;stroke-linejoin:miter;stroke:rgb(0%,0%,0%);stroke-opacity:1;stroke-miterlimit:4;" d="M 31.441476 337.031134 L 483.900637 337.031134 " transform="matrix(0.44,0,0,0.44,-6.595968,-8.34448)"/>
<path style="fill:none;stroke-width:2;stroke-linecap:butt;stroke-linejoin:miter;stroke:rgb(0%,0%,0%);stroke-opacity:1;stroke-miterlimit:4;" d="M 80.695737 34.642994 L 80.695737 485.042497 " transform="matrix(0.44,0,0,0.44,-6.595968,-8.34448)"/>
<path style="fill:none;stroke-width:2;stroke-linecap:butt;stroke-linejoin:miter;stroke:rgb(0%,0%,0%);stroke-opacity:1;stroke-miterlimit:4;" d="M 131.09524 33.843989 L 131.09524 484.243491 " transform="matrix(0.44,0,0,0.44,-6.595968,-8.34448)"/>
<path style="fill:none;stroke-width:2;stroke-linecap:butt;stroke-linejoin:miter;stroke:rgb(0%,0%,0%);stroke-opacity:1;stroke-miterlimit:4;" d="M 232.702129 35.442 L 232.702129 485.841503 " transform="matrix(0.44,0,0,0.44,-6.595968,-8.34448)"/>
<path style="fill:none;stroke-width:2;stroke-linecap:butt;stroke-linejoin:miter;stroke:rgb(0%,0%,0%);stroke-opacity:1;stroke-miterlimit:4;" d="M 383.092754 35.442 L 383.092754 485.841503 " transform="matrix(0.44,0,0,0.44,-6.595968,-8.34448)"/>
<path style="fill:none;stroke-width:2;stroke-linecap:butt;stroke-linejoin:miter;stroke:rgb(0%,0%,0%);stroke-opacity:1;stroke-miterlimit:4;" d="M 433.501135 36.249884 L 433.501135 486.640509 " transform="matrix(0.44,0,0,0.44,-6.595968,-8.34448)"/>
<path style="fill:none;stroke-width:2;stroke-linecap:butt;stroke-linejoin:miter;stroke:rgb(0%,0%,0%);stroke-opacity:1;stroke-miterlimit:4;" d="M 283.900638 33.843989 L 283.900638 484.243491 " transform="matrix(0.44,0,0,0.44,-6.595968,-8.34448)"/>
<path style="fill:none;stroke-width:2;stroke-linecap:butt;stroke-linejoin:miter;stroke:rgb(0%,0%,0%);stroke-opacity:1;stroke-miterlimit:4;" d="M 31.09524 436.249884 L 485.498649 436.249884 " transform="matrix(0.44,0,0,0.44,-6.595968,-8.34448)"/>
<path style="fill:none;stroke-width:2;stroke-linecap:butt;stroke-linejoin:miter;stroke:rgb(0%,0%,0%);stroke-opacity:1;stroke-miterlimit:4;" d="M 30.296234 285.850381 L 484.699643 285.850381 " transform="matrix(0.44,0,0,0.44,-6.595968,-8.34448)"/>
<path style="fill:none;stroke-width:2;stroke-linecap:butt;stroke-linejoin:miter;stroke:rgb(0%,0%,0%);stroke-opacity:1;stroke-miterlimit:4;" d="M 30.296234 234.642994 L 484.699643 234.642994 " transform="matrix(0.44,0,0,0.44,-6.595968,-8.34448)"/>
<path style="fill:none;stroke-width:2;stroke-linecap:butt;stroke-linejoin:miter;stroke:rgb(0%,0%,0%);stroke-opacity:1;stroke-miterlimit:4;" d="M 29.497228 385.850381 L 483.900637 385.850381 " transform="matrix(0.44,0,0,0.44,-6.595968,-8.34448)"/>
<path style="fill:none;stroke-width:2;stroke-linecap:butt;stroke-linejoin:miter;stroke:rgb(0%,0%,0%);stroke-opacity:1;stroke-miterlimit:4;" d="M 33.802981 132.148321 L 488.197512 132.148321 " transform="matrix(0.44,0,0,0.44,-6.595968,-8.34448)"/>
<path style="fill:none;stroke-width:2;stroke-linecap:butt;stroke-linejoin:miter;stroke:rgb(0%,0%,0%);stroke-opacity:1;stroke-miterlimit:4;" d="M 33.802981 85.655068 L 488.197512 85.655068 " transform="matrix(0.44,0,0,0.44,-6.595968,-8.34448)"/>
<path style=" stroke:none;fill-rule:evenodd;fill:rgb(0%,0%,0%);fill-opacity:1;" d="M 58.167969 13.851562 L 58.167969 14.992188 L 63.207031 14.992188 L 63.207031 15.027344 L 58.757812 24.144531 L 60.179688 24.144531 L 64.65625 14.769531 L 64.65625 13.851562 Z M 58.167969 13.851562 "/>
<path style=" stroke:none;fill-rule:evenodd;fill:rgb(0%,0%,0%);fill-opacity:1;" d="M 37.007812 44.785156 C 37.324219 44.796875 37.78125 44.765625 38.289062 44.703125 C 39.394531 44.578125 40.488281 44.085938 41.277344 43.324219 C 42.289062 42.328125 43.050781 40.746094 43.050781 38.480469 C 43.050781 35.835938 41.75 34.136719 39.636719 34.136719 C 37.527344 34.136719 36.097656 35.847656 36.097656 37.785156 C 36.097656 39.558594 37.289062 40.957031 39.148438 40.957031 C 40.195312 40.957031 41.023438 40.542969 41.59375 39.839844 L 41.640625 39.839844 C 41.453125 41.066406 40.960938 41.972656 40.28125 42.59375 C 39.695312 43.167969 38.933594 43.5 38.128906 43.597656 C 37.65625 43.65625 37.308594 43.671875 37.003906 43.65625 Z M 39.539062 35.191406 C 40.996094 35.191406 41.664062 36.527344 41.644531 38.308594 C 41.644531 38.53125 41.597656 38.691406 41.535156 38.816406 C 41.152344 39.4375 40.425781 39.898438 39.492188 39.898438 C 38.289062 39.898438 37.511719 38.992188 37.511719 37.703125 C 37.511719 36.242188 38.347656 35.191406 39.523438 35.191406 Z M 39.539062 35.191406 "/>
<path style=" stroke:none;fill-rule:evenodd;fill:rgb(0%,0%,0%);fill-opacity:1;" d="M 64.523438 122.574219 C 64.269531 122.574219 63.921875 122.589844 63.507812 122.65625 C 62.207031 122.8125 61.0625 123.335938 60.203125 124.175781 C 59.171875 125.203125 58.457031 126.804688 58.457031 128.832031 C 58.457031 131.511719 59.902344 133.21875 62.09375 133.21875 C 64.253906 133.21875 65.539062 131.484375 65.539062 129.589844 C 65.539062 127.597656 64.253906 126.269531 62.425781 126.269531 C 61.285156 126.269531 60.410156 126.800781 59.917969 127.453125 L 59.886719 127.453125 C 60.125 125.75 61.269531 124.152344 63.476562 123.804688 C 63.871094 123.742188 64.238281 123.710938 64.523438 123.726562 Z M 62.101562 132.167969 C 60.632812 132.167969 59.835938 130.898438 59.820312 129.203125 C 59.820312 128.949219 59.882812 128.757812 59.960938 128.601562 C 60.34375 127.839844 61.144531 127.328125 61.992188 127.328125 C 63.28125 127.328125 64.128906 128.21875 64.128906 129.695312 C 64.128906 131.167969 63.316406 132.171875 62.121094 132.171875 Z M 62.101562 132.167969 "/>
<path style=" stroke:none;fill-rule:evenodd;fill:rgb(0%,0%,0%);fill-opacity:1;" d="M 59.253906 110.746094 C 59.757812 111.078125 60.769531 111.445312 61.921875 111.445312 C 64.371094 111.445312 65.671875 110.003906 65.671875 108.355469 C 65.671875 106.914062 64.644531 105.960938 63.386719 105.726562 L 63.386719 105.695312 C 64.628906 105.234375 65.273438 104.332031 65.273438 103.253906 C 65.273438 102.003906 64.355469 100.800781 62.335938 100.800781 C 61.230469 100.800781 60.1875 101.195312 59.632812 101.589844 L 60.011719 102.605469 C 60.453125 102.296875 61.242188 101.941406 62.066406 101.941406 C 63.34375 101.941406 63.867188 102.664062 63.867188 103.476562 C 63.867188 104.679688 62.589844 105.195312 61.578125 105.195312 L 60.804688 105.195312 L 60.804688 106.25 L 61.574219 106.25 C 62.910156 106.25 64.203125 106.867188 64.21875 108.308594 C 64.257812 109.175781 63.6875 110.300781 61.914062 110.300781 C 60.933594 110.300781 60.03125 109.914062 59.632812 109.683594 Z M 59.253906 110.746094 "/>
<path style=" stroke:none;fill-rule:evenodd;fill:rgb(0%,0%,0%);fill-opacity:1;" d="M 107.570312 145.675781 C 105.769531 145.675781 104.390625 146.785156 104.390625 148.417969 C 104.390625 149.304688 104.882812 150.191406 106.035156 150.730469 L 106.035156 150.773438 C 104.777344 151.3125 103.996094 152.25 103.996094 153.546875 C 103.996094 155.050781 105.300781 156.320312 107.46875 156.320312 C 109.445312 156.320312 110.992188 155.132812 110.992188 153.324219 C 110.992188 152.089844 110.1875 151.171875 108.886719 150.664062 L 108.886719 150.621094 C 110.152344 150.035156 110.59375 149.082031 110.59375 148.210938 C 110.59375 146.914062 109.582031 145.675781 107.589844 145.675781 Z M 107.5 155.3125 C 106.195312 155.3125 105.402344 154.394531 105.445312 153.363281 C 105.445312 152.382812 106.097656 151.570312 107.304688 151.222656 C 108.703125 151.617188 109.578125 152.234375 109.578125 153.472656 C 109.578125 154.535156 108.769531 155.3125 107.511719 155.3125 Z M 107.554688 146.6875 C 108.785156 146.6875 109.273438 147.539062 109.273438 148.359375 C 109.273438 149.289062 108.59375 149.921875 107.710938 150.222656 C 106.523438 149.90625 105.734375 149.355469 105.753906 148.328125 C 105.753906 147.445312 106.386719 146.6875 107.539062 146.6875 Z M 107.554688 146.6875 "/>
<path style=" stroke:none;fill-rule:evenodd;fill:rgb(0%,0%,0%);fill-opacity:1;" d="M 41.824219 65.066406 L 41.824219 62.253906 L 43.261719 62.253906 L 43.261719 61.199219 L 41.824219 61.199219 L 41.824219 54.773438 L 40.3125 54.773438 L 35.710938 61.351562 L 35.710938 62.253906 L 40.503906 62.253906 L 40.503906 65.066406 Z M 37.113281 61.195312 L 37.113281 61.164062 L 39.644531 57.671875 C 39.929688 57.179688 40.183594 56.738281 40.5 56.136719 L 40.546875 56.136719 C 40.515625 56.675781 40.5 57.210938 40.5 57.75 L 40.5 61.195312 Z M 37.113281 61.195312 "/>
<path style=" stroke:none;fill-rule:evenodd;fill:rgb(0%,0%,0%);fill-opacity:1;" d="M 175.640625 146.511719 L 170.699219 146.511719 L 170.03125 151.421875 C 170.414062 151.355469 170.875 151.304688 171.480469 151.304688 C 173.53125 151.304688 174.4375 152.238281 174.4375 153.597656 C 174.433594 154.984375 173.292969 155.835938 171.992188 155.835938 C 171.046875 155.835938 170.203125 155.53125 169.777344 155.285156 L 169.429688 156.347656 C 169.9375 156.664062 170.875 156.980469 172.003906 156.980469 C 174.242188 156.980469 175.847656 155.480469 175.847656 153.472656 C 175.847656 152.148438 175.179688 151.246094 174.371094 150.804688 C 173.734375 150.425781 172.957031 150.25 172.144531 150.25 C 171.765625 150.25 171.542969 150.273438 171.304688 150.296875 L 171.703125 147.699219 L 175.640625 147.699219 Z M 175.640625 146.511719 "/>
<path style=" stroke:none;fill-rule:evenodd;fill:rgb(0%,0%,0%);fill-opacity:1;" d="M 172.0625 177.269531 L 173.425781 177.269531 L 173.425781 166.972656 L 172.230469 166.972656 L 169.96875 168.175781 L 170.238281 169.238281 L 172.027344 168.292969 L 172.058594 168.292969 Z M 172.0625 177.269531 "/>
<path style=" stroke:none;fill-rule:evenodd;fill:rgb(0%,0%,0%);fill-opacity:1;" d="M 42.992188 199.269531 L 42.992188 198.125 L 38.386719 198.125 L 38.386719 198.09375 L 39.191406 197.332031 C 41.367188 195.238281 42.746094 193.703125 42.746094 191.796875 C 42.746094 190.324219 41.808594 188.800781 39.605469 188.800781 C 38.417969 188.800781 37.386719 189.261719 36.6875 189.847656 L 37.128906 190.828125 C 37.601562 190.425781 38.378906 189.941406 39.3125 189.941406 C 40.84375 189.941406 41.335938 190.910156 41.335938 191.957031 C 41.335938 193.511719 40.136719 194.84375 37.511719 197.351562 L 36.421875 198.414062 L 36.421875 199.269531 Z M 42.992188 199.269531 "/>
<path style=" stroke:none;fill-rule:evenodd;fill:rgb(0%,0%,0%);fill-opacity:1;" d="M 104.105469 56.972656 L 104.105469 58.113281 L 109.140625 58.113281 L 109.140625 58.148438 L 104.691406 67.265625 L 106.113281 67.265625 L 110.59375 57.890625 L 110.59375 56.972656 Z M 104.105469 56.972656 "/>
<path style=" stroke:none;fill-rule:evenodd;fill:rgb(0%,0%,0%);fill-opacity:1;" d="M 83.605469 66.785156 C 83.921875 66.796875 84.378906 66.765625 84.882812 66.703125 C 85.992188 66.578125 87.085938 66.085938 87.875 65.324219 C 88.886719 64.328125 89.648438 62.746094 89.648438 60.480469 C 89.648438 57.835938 88.347656 56.136719 86.234375 56.136719 C 84.125 56.136719 82.695312 57.847656 82.695312 59.785156 C 82.695312 61.558594 83.886719 62.957031 85.746094 62.957031 C 86.792969 62.957031 87.617188 62.542969 88.191406 61.839844 L 88.238281 61.839844 C 88.050781 63.066406 87.558594 63.972656 86.878906 64.59375 C 86.292969 65.167969 85.53125 65.5 84.726562 65.597656 C 84.25 65.65625 83.90625 65.671875 83.601562 65.65625 Z M 86.136719 57.191406 C 87.59375 57.191406 88.261719 58.527344 88.242188 60.308594 C 88.242188 60.53125 88.191406 60.691406 88.128906 60.816406 C 87.75 61.4375 87.019531 61.898438 86.085938 61.898438 C 84.882812 61.898438 84.105469 60.992188 84.105469 59.703125 C 84.105469 58.242188 84.945312 57.191406 86.117188 57.191406 Z M 86.136719 57.191406 "/>
<path style=" stroke:none;fill-rule:evenodd;fill:rgb(0%,0%,0%);fill-opacity:1;" d="M 87.359375 167.675781 C 87.105469 167.675781 86.757812 167.691406 86.339844 167.753906 C 85.039062 167.914062 83.894531 168.4375 83.039062 169.273438 C 82.007812 170.304688 81.292969 171.902344 81.292969 173.933594 C 81.292969 176.609375 82.734375 178.320312 84.929688 178.320312 C 87.089844 178.320312 88.375 176.585938 88.375 174.6875 C 88.375 172.699219 87.089844 171.371094 85.261719 171.371094 C 84.121094 171.371094 83.246094 171.898438 82.753906 172.554688 L 82.722656 172.554688 C 82.960938 170.847656 84.105469 169.253906 86.3125 168.90625 C 86.707031 168.839844 87.074219 168.808594 87.359375 168.824219 Z M 84.9375 177.269531 C 83.472656 177.269531 82.671875 176 82.65625 174.300781 C 82.65625 174.050781 82.71875 173.859375 82.800781 173.699219 C 83.179688 172.9375 83.980469 172.429688 84.828125 172.429688 C 86.121094 172.429688 86.96875 173.320312 86.96875 174.796875 C 86.96875 176.269531 86.152344 177.269531 84.957031 177.269531 Z M 84.9375 177.269531 "/>
<path style=" stroke:none;fill-rule:evenodd;fill:rgb(0%,0%,0%);fill-opacity:1;" d="M 65.320312 199.269531 L 65.320312 196.453125 L 66.761719 196.453125 L 66.761719 195.398438 L 65.320312 195.398438 L 65.320312 188.976562 L 63.8125 188.976562 L 59.207031 195.550781 L 59.207031 196.453125 L 64 196.453125 L 64 199.269531 Z M 60.609375 195.394531 L 60.609375 195.363281 L 63.140625 191.871094 C 63.425781 191.378906 63.679688 190.9375 63.996094 190.335938 L 64.042969 190.335938 C 64.011719 190.875 63.996094 191.410156 63.996094 191.949219 L 63.996094 195.394531 Z M 60.609375 195.394531 "/>
<path style=" stroke:none;fill-rule:evenodd;fill:rgb(0%,0%,0%);fill-opacity:1;" d="M 131.859375 79.410156 L 126.917969 79.410156 L 126.25 84.320312 C 126.632812 84.253906 127.09375 84.207031 127.699219 84.207031 C 129.75 84.207031 130.65625 85.136719 130.65625 86.496094 C 130.652344 87.886719 129.511719 88.738281 128.214844 88.738281 C 127.265625 88.738281 126.425781 88.429688 125.996094 88.183594 L 125.648438 89.246094 C 126.15625 89.5625 127.09375 89.878906 128.222656 89.878906 C 130.460938 89.878906 132.066406 88.378906 132.066406 86.375 C 132.066406 85.046875 131.398438 84.144531 130.589844 83.703125 C 129.953125 83.328125 129.175781 83.152344 128.363281 83.152344 C 127.984375 83.152344 127.761719 83.171875 127.523438 83.195312 L 127.921875 80.597656 L 131.859375 80.597656 Z M 131.859375 79.410156 "/>
<path style=" stroke:none;fill-rule:evenodd;fill:rgb(0%,0%,0%);fill-opacity:1;" d="M 129.601562 45.488281 L 130.964844 45.488281 L 130.964844 35.191406 L 129.769531 35.191406 L 127.507812 36.394531 L 127.777344 37.457031 L 129.570312 36.511719 L 129.597656 36.511719 Z M 129.601562 45.488281 "/>
<path style=" stroke:none;fill-rule:evenodd;fill:rgb(0%,0%,0%);fill-opacity:1;" d="M 81.003906 123.632812 L 81.003906 124.773438 L 86.042969 124.773438 L 86.042969 124.808594 L 81.589844 133.925781 L 83.015625 133.925781 L 87.492188 124.550781 L 87.492188 123.632812 Z M 81.003906 123.632812 "/>
<path style=" stroke:none;fill-rule:evenodd;fill:rgb(0%,0%,0%);fill-opacity:1;" d="M 198.238281 79.894531 C 197.984375 79.894531 197.636719 79.910156 197.222656 79.976562 C 195.921875 80.132812 194.777344 80.65625 193.917969 81.496094 C 192.886719 82.523438 192.171875 84.125 192.171875 86.152344 C 192.171875 88.828125 193.617188 90.539062 195.808594 90.539062 C 197.96875 90.539062 199.253906 88.804688 199.253906 86.910156 C 199.253906 84.917969 197.96875 83.589844 196.140625 83.589844 C 195 83.589844 194.125 84.117188 193.632812 84.773438 L 193.601562 84.773438 C 193.839844 83.070312 194.984375 81.472656 197.191406 81.125 C 197.585938 81.0625 197.953125 81.03125 198.238281 81.046875 Z M 195.820312 89.488281 C 194.351562 89.488281 193.550781 88.21875 193.535156 86.523438 C 193.535156 86.269531 193.601562 86.078125 193.679688 85.921875 C 194.0625 85.160156 194.859375 84.648438 195.707031 84.648438 C 197 84.648438 197.847656 85.539062 197.847656 87.015625 C 197.847656 88.488281 197.03125 89.488281 195.835938 89.488281 Z M 195.820312 89.488281 "/>
<path style=" stroke:none;fill-rule:evenodd;fill:rgb(0%,0%,0%);fill-opacity:1;" d="M 152.230469 13.234375 C 150.429688 13.234375 149.050781 14.347656 149.050781 15.976562 C 149.050781 16.863281 149.542969 17.75 150.695312 18.289062 L 150.695312 18.335938 C 149.4375 18.875 148.65625 19.808594 148.65625 21.109375 C 148.65625 22.613281 149.960938 23.878906 152.128906 23.878906 C 154.101562 23.878906 155.652344 22.691406 155.652344 20.886719 C 155.652344 19.648438 154.847656 18.734375 153.546875 18.226562 L 153.546875 18.179688 C 154.8125 17.59375 155.253906 16.644531 155.253906 15.769531 C 155.253906 14.472656 154.242188 13.234375 152.25 13.234375 Z M 152.160156 22.871094 C 150.855469 22.871094 150.0625 21.953125 150.105469 20.921875 C 150.105469 19.941406 150.757812 19.132812 151.964844 18.78125 C 153.363281 19.175781 154.238281 19.796875 154.238281 21.035156 C 154.238281 22.09375 153.429688 22.871094 152.171875 22.871094 Z M 152.214844 14.25 C 153.445312 14.25 153.933594 15.097656 153.933594 15.921875 C 153.933594 16.851562 153.253906 17.484375 152.371094 17.78125 C 151.183594 17.46875 150.394531 16.914062 150.414062 15.886719 C 150.414062 15.003906 151.046875 14.246094 152.199219 14.246094 Z M 152.214844 14.25 "/>
<path style=" stroke:none;fill-rule:evenodd;fill:rgb(0%,0%,0%);fill-opacity:1;" d="M 154.417969 89.046875 L 154.417969 86.234375 L 155.859375 86.234375 L 155.859375 85.175781 L 154.417969 85.175781 L 154.417969 78.753906 L 152.910156 78.753906 L 148.304688 85.332031 L 148.304688 86.234375 L 153.101562 86.234375 L 153.101562 89.046875 Z M 149.710938 85.175781 L 149.710938 85.144531 L 152.238281 81.652344 C 152.523438 81.160156 152.777344 80.71875 153.097656 80.117188 L 153.144531 80.117188 C 153.113281 80.652344 153.097656 81.191406 153.097656 81.730469 L 153.097656 85.175781 Z M 149.710938 85.175781 "/>
<path style=" stroke:none;fill-rule:evenodd;fill:rgb(0%,0%,0%);fill-opacity:1;" d="M 20.320312 122.3125 L 15.378906 122.3125 L 14.710938 127.21875 C 15.09375 127.15625 15.554688 127.105469 16.160156 127.105469 C 18.210938 127.105469 19.117188 128.039062 19.117188 129.394531 C 19.113281 130.785156 17.972656 131.636719 16.675781 131.636719 C 15.726562 131.636719 14.886719 131.332031 14.457031 131.085938 L 14.109375 132.148438 C 14.617188 132.464844 15.554688 132.78125 16.683594 132.78125 C 18.921875 132.78125 20.527344 131.28125 20.527344 129.273438 C 20.527344 127.945312 19.859375 127.046875 19.050781 126.605469 C 18.414062 126.226562 17.636719 126.050781 16.824219 126.050781 C 16.445312 126.050781 16.222656 126.074219 15.984375 126.097656 L 16.382812 123.5 L 20.320312 123.5 Z M 20.320312 122.3125 "/>
<path style=" stroke:none;fill-rule:evenodd;fill:rgb(0%,0%,0%);fill-opacity:1;" d="M 176.707031 23.269531 L 176.707031 22.125 L 172.101562 22.125 L 172.101562 22.09375 L 172.910156 21.332031 C 175.082031 19.238281 176.460938 17.703125 176.460938 15.796875 C 176.460938 14.324219 175.523438 12.800781 173.320312 12.800781 C 172.132812 12.800781 171.101562 13.261719 170.402344 13.847656 L 170.847656 14.828125 C 171.320312 14.425781 172.09375 13.941406 173.027344 13.941406 C 174.558594 13.941406 175.050781 14.910156 175.050781 15.957031 C 175.050781 17.511719 173.851562 18.84375 171.226562 21.351562 L 170.136719 22.414062 L 170.136719 23.269531 Z M 176.707031 23.269531 "/>
<path style=" stroke:none;fill-rule:evenodd;fill:rgb(0%,0%,0%);fill-opacity:1;" d="M 148.984375 101.851562 L 148.984375 102.992188 L 154.019531 102.992188 L 154.019531 103.027344 L 149.570312 112.144531 L 150.996094 112.144531 L 155.472656 102.769531 L 155.472656 101.851562 Z M 148.984375 101.851562 "/>
<path style=" stroke:none;fill-rule:evenodd;fill:rgb(0%,0%,0%);fill-opacity:1;" d="M 154.019531 189.457031 C 153.765625 189.457031 153.417969 189.472656 153 189.535156 C 151.699219 189.691406 150.554688 190.214844 149.699219 191.054688 C 148.667969 192.082031 147.953125 193.683594 147.953125 195.710938 C 147.953125 198.390625 149.394531 200.101562 151.589844 200.101562 C 153.746094 200.101562 155.035156 198.363281 155.035156 196.46875 C 155.035156 194.476562 153.746094 193.148438 151.921875 193.148438 C 150.78125 193.148438 149.90625 193.679688 149.414062 194.332031 L 149.382812 194.332031 C 149.621094 192.628906 150.765625 191.035156 152.972656 190.683594 C 153.367188 190.621094 153.734375 190.589844 154.019531 190.605469 Z M 151.597656 199.046875 C 150.132812 199.046875 149.332031 197.78125 149.316406 196.082031 C 149.316406 195.828125 149.378906 195.636719 149.460938 195.480469 C 149.839844 194.71875 150.640625 194.210938 151.488281 194.210938 C 152.78125 194.210938 153.628906 195.097656 153.628906 196.574219 C 153.628906 198.050781 152.8125 199.050781 151.617188 199.050781 Z M 151.597656 199.046875 "/>
<path style=" stroke:none;fill-rule:evenodd;fill:rgb(0%,0%,0%);fill-opacity:1;" d="M 131.320312 156.367188 L 131.320312 153.554688 L 132.761719 153.554688 L 132.761719 152.496094 L 131.320312 152.496094 L 131.320312 146.074219 L 129.8125 146.074219 L 125.207031 152.652344 L 125.207031 153.554688 L 130 153.554688 L 130 156.367188 Z M 126.609375 152.496094 L 126.609375 152.464844 L 129.140625 148.972656 C 129.425781 148.480469 129.679688 148.039062 129.996094 147.4375 L 130.042969 147.4375 C 130.011719 147.972656 129.996094 148.511719 129.996094 149.050781 L 129.996094 152.496094 Z M 126.609375 152.496094 "/>
<path style="fill:none;stroke-width:6;stroke-linecap:butt;stroke-linejoin:miter;stroke:rgb(0%,0%,0%);stroke-opacity:1;stroke-miterlimit:4;" d="M 31.447864 486.640509 L 484.697153 486.640509 L 484.697153 33.843989 L 31.447864 33.843989 Z M 31.447864 486.640509 " transform="matrix(0.44,0,0,0.44,225.97544,-8.34448)"/>
<path style="fill:none;stroke-width:6;stroke-linecap:butt;stroke-linejoin:miter;stroke:rgb(0%,0%,0%);stroke-opacity:1;stroke-miterlimit:4;" d="M 32.237991 185.823747 L 484.697153 185.823747 " transform="matrix(0.44,0,0,0.44,225.97544,-8.34448)"/>
<path style="fill:none;stroke-width:6;stroke-linecap:butt;stroke-linejoin:miter;stroke:rgb(0%,0%,0%);stroke-opacity:1;stroke-miterlimit:4;" d="M 182.211358 31.446972 L 183.214554 484.53646 " transform="matrix(0.44,0,0,0.44,225.97544,-8.34448)"/>
<path style="fill:none;stroke-width:6;stroke-linecap:butt;stroke-linejoin:miter;stroke:rgb(0%,0%,0%);stroke-opacity:1;stroke-miterlimit:4;" d="M 333.711713 33.843989 L 333.711713 487.155423 " transform="matrix(0.44,0,0,0.44,225.97544,-8.34448)"/>
<path style="fill:none;stroke-width:6;stroke-linecap:butt;stroke-linejoin:miter;stroke:rgb(0%,0%,0%);stroke-opacity:1;stroke-miterlimit:4;" d="M 31.447864 337.031134 L 483.898148 337.031134 " transform="matrix(0.44,0,0,0.44,225.97544,-8.34448)"/>
<path style="fill:none;stroke-width:2;stroke-linecap:butt;stroke-linejoin:miter;stroke:rgb(0%,0%,0%);stroke-opacity:1;stroke-miterlimit:4;" d="M 80.702125 34.642994 L 80.702125 485.042497 " transform="matrix(0.44,0,0,0.44,225.97544,-8.34448)"/>
<path style="fill:none;stroke-width:2;stroke-linecap:butt;stroke-linejoin:miter;stroke:rgb(0%,0%,0%);stroke-opacity:1;stroke-miterlimit:4;" d="M 131.09275 33.843989 L 131.09275 484.243491 " transform="matrix(0.44,0,0,0.44,225.97544,-8.34448)"/>
<path style="fill:none;stroke-width:2;stroke-linecap:butt;stroke-linejoin:miter;stroke:rgb(0%,0%,0%);stroke-opacity:1;stroke-miterlimit:4;" d="M 232.699639 35.442 L 232.699639 485.841503 " transform="matrix(0.44,0,0,0.44,225.97544,-8.34448)"/>
<path style="fill:none;stroke-width:2;stroke-linecap:butt;stroke-linejoin:miter;stroke:rgb(0%,0%,0%);stroke-opacity:1;stroke-miterlimit:4;" d="M 383.099142 35.442 L 383.099142 485.841503 " transform="matrix(0.44,0,0,0.44,225.97544,-8.34448)"/>
<path style="fill:none;stroke-width:2;stroke-linecap:butt;stroke-linejoin:miter;stroke:rgb(0%,0%,0%);stroke-opacity:1;stroke-miterlimit:4;" d="M 433.498645 36.249884 L 433.498645 486.640509 " transform="matrix(0.44,0,0,0.44,225.97544,-8.34448)"/>
<path style="fill:none;stroke-width:2;stroke-linecap:butt;stroke-linejoin:miter;stroke:rgb(0%,0%,0%);stroke-opacity:1;stroke-miterlimit:4;" d="M 283.898148 33.843989 L 283.898148 484.243491 " transform="matrix(0.44,0,0,0.44,225.97544,-8.34448)"/>
<path style="fill:none;stroke-width:2;stroke-linecap:butt;stroke-linejoin:miter;stroke:rgb(0%,0%,0%);stroke-opacity:1;stroke-miterlimit:4;" d="M 31.101628 436.249884 L 485.496159 436.249884 " transform="matrix(0.44,0,0,0.44,225.97544,-8.34448)"/>
<path style="fill:none;stroke-width:2;stroke-linecap:butt;stroke-linejoin:miter;stroke:rgb(0%,0%,0%);stroke-opacity:1;stroke-miterlimit:4;" d="M 30.302622 285.850381 L 484.697153 285.850381 " transform="matrix(0.44,0,0,0.44,225.97544,-8.34448)"/>
<path style="fill:none;stroke-width:2;stroke-linecap:butt;stroke-linejoin:miter;stroke:rgb(0%,0%,0%);stroke-opacity:1;stroke-miterlimit:4;" d="M 30.302622 234.642994 L 484.697153 234.642994 " transform="matrix(0.44,0,0,0.44,225.97544,-8.34448)"/>
<path style="fill:none;stroke-width:2;stroke-linecap:butt;stroke-linejoin:miter;stroke:rgb(0%,0%,0%);stroke-opacity:1;stroke-miterlimit:4;" d="M 29.503616 385.850381 L 483.898148 385.850381 " transform="matrix(0.44,0,0,0.44,225.97544,-8.34448)"/>
<path style="fill:none;stroke-width:2;stroke-linecap:butt;stroke-linejoin:miter;stroke:rgb(0%,0%,0%);stroke-opacity:1;stroke-miterlimit:4;" d="M 33.800491 132.148321 L 488.195023 132.148321 " transform="matrix(0.44,0,0,0.44,225.97544,-8.34448)"/>
<path style="fill:none;stroke-width:2;stroke-linecap:butt;stroke-linejoin:miter;stroke:rgb(0%,0%,0%);stroke-opacity:1;stroke-miterlimit:4;" d="M 33.800491 85.655068 L 488.195023 85.655068 " transform="matrix(0.44,0,0,0.44,225.97544,-8.34448)"/>
<path style=" stroke:none;fill-rule:evenodd;fill:rgb(0%,0%,0%);fill-opacity:1;" d="M 381.777344 79.191406 L 381.777344 80.335938 L 386.8125 80.335938 L 386.8125 80.367188 L 382.363281 89.484375 L 383.785156 89.484375 L 388.261719 80.109375 L 388.261719 79.191406 Z M 381.777344 79.191406 "/>
<path style=" stroke:none;fill-rule:evenodd;fill:rgb(0%,0%,0%);fill-opacity:1;" d="M 292.019531 44.125 C 292.335938 44.136719 292.792969 44.105469 293.296875 44.042969 C 294.40625 43.917969 295.5 43.425781 296.289062 42.667969 C 297.300781 41.667969 298.0625 40.085938 298.0625 37.820312 C 298.0625 35.175781 296.761719 33.476562 294.648438 33.476562 C 292.539062 33.476562 291.109375 35.191406 291.109375 37.125 C 291.109375 38.898438 292.300781 40.296875 294.160156 40.296875 C 295.207031 40.296875 296.03125 39.882812 296.605469 39.179688 L 296.652344 39.179688 C 296.464844 40.40625 295.972656 41.3125 295.292969 41.933594 C 294.707031 42.507812 293.945312 42.839844 293.140625 42.9375 C 292.667969 42.996094 292.320312 43.011719 292.015625 42.996094 Z M 294.550781 34.53125 C 296.007812 34.53125 296.675781 35.867188 296.65625 37.648438 C 296.65625 37.871094 296.609375 38.03125 296.546875 38.15625 C 296.164062 38.777344 295.4375 39.238281 294.5 39.238281 C 293.296875 39.238281 292.523438 38.332031 292.523438 37.042969 C 292.523438 35.582031 293.359375 34.53125 294.535156 34.53125 Z M 294.550781 34.53125 "/>
<path style=" stroke:none;fill-rule:evenodd;fill:rgb(0%,0%,0%);fill-opacity:1;" d="M 253.535156 34.796875 C 253.28125 34.796875 252.933594 34.8125 252.519531 34.875 C 251.21875 35.03125 250.070312 35.554688 249.214844 36.394531 C 248.183594 37.425781 247.46875 39.023438 247.46875 41.050781 C 247.46875 43.730469 248.910156 45.441406 251.105469 45.441406 C 253.265625 45.441406 254.550781 43.703125 254.550781 41.808594 C 254.550781 39.816406 253.265625 38.488281 251.4375 38.488281 C 250.296875 38.488281 249.421875 39.019531 248.929688 39.671875 L 248.898438 39.671875 C 249.136719 37.96875 250.28125 36.375 252.488281 36.023438 C 252.882812 35.960938 253.25 35.929688 253.535156 35.945312 Z M 251.113281 44.386719 C 249.644531 44.386719 248.847656 43.121094 248.832031 41.421875 C 248.832031 41.167969 248.894531 40.976562 248.972656 40.820312 C 249.355469 40.058594 250.15625 39.550781 251.003906 39.550781 C 252.292969 39.550781 253.140625 40.4375 253.140625 41.914062 C 253.140625 43.390625 252.328125 44.390625 251.132812 44.390625 Z M 251.113281 44.386719 "/>
<path style=" stroke:none;fill-rule:evenodd;fill:rgb(0%,0%,0%);fill-opacity:1;" d="M 269.382812 65.207031 C 269.890625 65.539062 270.898438 65.902344 272.054688 65.902344 C 274.503906 65.902344 275.800781 64.464844 275.800781 62.816406 C 275.800781 61.375 274.777344 60.421875 273.519531 60.183594 L 273.519531 60.152344 C 274.761719 59.695312 275.40625 58.792969 275.40625 57.714844 C 275.40625 56.464844 274.488281 55.257812 272.464844 55.257812 C 271.359375 55.257812 270.316406 55.65625 269.765625 56.050781 L 270.140625 57.066406 C 270.582031 56.757812 271.371094 56.402344 272.195312 56.402344 C 273.476562 56.402344 273.996094 57.121094 273.996094 57.933594 C 273.996094 59.140625 272.71875 59.65625 271.710938 59.65625 L 270.9375 59.65625 L 270.9375 60.710938 L 271.707031 60.710938 C 273.042969 60.710938 274.335938 61.328125 274.347656 62.765625 C 274.386719 63.636719 273.820312 64.757812 272.042969 64.757812 C 271.0625 64.757812 270.160156 64.375 269.765625 64.144531 Z M 269.382812 65.207031 "/>
<path style=" stroke:none;fill-rule:evenodd;fill:rgb(0%,0%,0%);fill-opacity:1;" d="M 274.1875 14.335938 C 272.386719 14.335938 271.007812 15.445312 271.007812 17.078125 C 271.007812 17.964844 271.5 18.851562 272.652344 19.390625 L 272.652344 19.433594 C 271.394531 19.972656 270.609375 20.910156 270.609375 22.207031 C 270.609375 23.710938 271.917969 24.980469 274.085938 24.980469 C 276.058594 24.980469 277.605469 23.792969 277.605469 21.984375 C 277.605469 20.75 276.804688 19.832031 275.503906 19.324219 L 275.503906 19.277344 C 276.769531 18.695312 277.210938 17.742188 277.210938 16.871094 C 277.210938 15.574219 276.199219 14.335938 274.207031 14.335938 Z M 274.117188 23.972656 C 272.8125 23.972656 272.019531 23.054688 272.0625 22.023438 C 272.0625 21.039062 272.714844 20.230469 273.921875 19.882812 C 275.320312 20.277344 276.195312 20.894531 276.195312 22.132812 C 276.195312 23.195312 275.386719 23.972656 274.128906 23.972656 Z M 274.167969 15.347656 C 275.398438 15.347656 275.886719 16.199219 275.886719 17.019531 C 275.886719 17.949219 275.207031 18.582031 274.324219 18.882812 C 273.140625 18.566406 272.351562 18.015625 272.371094 16.988281 C 272.371094 16.105469 273 15.347656 274.152344 15.347656 Z M 274.167969 15.347656 "/>
<path style=" stroke:none;fill-rule:evenodd;fill:rgb(0%,0%,0%);fill-opacity:1;" d="M 253.933594 133.707031 L 253.933594 130.894531 L 255.375 130.894531 L 255.375 129.835938 L 253.933594 129.835938 L 253.933594 123.414062 L 252.425781 123.414062 L 247.820312 129.992188 L 247.820312 130.894531 L 252.617188 130.894531 L 252.617188 133.707031 Z M 249.226562 129.835938 L 249.226562 129.804688 L 251.753906 126.3125 C 252.039062 125.820312 252.292969 125.378906 252.613281 124.777344 L 252.660156 124.777344 C 252.628906 125.3125 252.613281 125.851562 252.613281 126.390625 L 252.613281 129.835938 Z M 249.226562 129.835938 "/>
<path style=" stroke:none;fill-rule:evenodd;fill:rgb(0%,0%,0%);fill-opacity:1;" d="M 321.089844 34.972656 L 316.148438 34.972656 L 315.484375 39.878906 C 315.863281 39.816406 316.324219 39.765625 316.929688 39.765625 C 318.980469 39.765625 319.890625 40.699219 319.890625 42.054688 C 319.882812 43.445312 318.746094 44.296875 317.445312 44.296875 C 316.496094 44.296875 315.65625 43.992188 315.226562 43.746094 L 314.882812 44.808594 C 315.386719 45.125 316.328125 45.441406 317.453125 45.441406 C 319.695312 45.441406 321.296875 43.941406 321.296875 41.933594 C 321.296875 40.605469 320.628906 39.707031 319.820312 39.265625 C 319.1875 38.886719 318.40625 38.710938 317.597656 38.710938 C 317.21875 38.710938 316.992188 38.734375 316.757812 38.753906 L 317.152344 36.160156 L 321.09375 36.160156 Z M 321.089844 34.972656 "/>
<path style=" stroke:none;fill-rule:evenodd;fill:rgb(0%,0%,0%);fill-opacity:1;" d="M 293.796875 24.808594 L 295.160156 24.808594 L 295.160156 14.511719 L 293.96875 14.511719 L 291.707031 15.714844 L 291.972656 16.777344 L 293.765625 15.832031 L 293.796875 15.832031 Z M 293.796875 24.808594 "/>
<path style=" stroke:none;fill-rule:evenodd;fill:rgb(0%,0%,0%);fill-opacity:1;" d="M 252.464844 65.949219 L 252.464844 64.804688 L 247.855469 64.804688 L 247.855469 64.773438 L 248.664062 64.011719 C 250.835938 61.917969 252.21875 60.382812 252.21875 58.480469 C 252.21875 57.003906 251.28125 55.480469 249.078125 55.480469 C 247.890625 55.480469 246.859375 55.941406 246.160156 56.527344 L 246.601562 57.507812 C 247.074219 57.105469 247.851562 56.621094 248.78125 56.621094 C 250.316406 56.621094 250.808594 57.589844 250.808594 58.636719 C 250.808594 60.191406 249.605469 61.523438 246.980469 64.03125 L 245.890625 65.09375 L 245.890625 65.949219 Z M 252.464844 65.949219 "/>
<path style=" stroke:none;fill-rule:evenodd;fill:rgb(0%,0%,0%);fill-opacity:1;" d="M 315.554688 167.851562 L 315.554688 168.992188 L 320.59375 168.992188 L 320.59375 169.027344 L 316.140625 178.144531 L 317.566406 178.144531 L 322.042969 168.769531 L 322.042969 167.851562 Z M 315.554688 167.851562 "/>
<path style=" stroke:none;fill-rule:evenodd;fill:rgb(0%,0%,0%);fill-opacity:1;" d="M 427.714844 89.882812 C 428.03125 89.898438 428.492188 89.867188 428.996094 89.804688 C 430.101562 89.675781 431.195312 89.1875 431.988281 88.425781 C 433 87.429688 433.757812 85.84375 433.757812 83.578125 C 433.757812 80.933594 432.457031 79.238281 430.347656 79.238281 C 428.234375 79.238281 426.808594 80.949219 426.808594 82.882812 C 426.808594 84.660156 427.996094 86.054688 429.855469 86.054688 C 430.902344 86.054688 431.730469 85.644531 432.300781 84.941406 L 432.351562 84.941406 C 432.160156 86.164062 431.671875 87.070312 430.988281 87.695312 C 430.40625 88.265625 429.644531 88.601562 428.835938 88.695312 C 428.363281 88.757812 428.015625 88.773438 427.714844 88.757812 Z M 430.246094 80.292969 C 431.703125 80.292969 432.371094 81.625 432.351562 83.410156 C 432.351562 83.632812 432.304688 83.789062 432.242188 83.917969 C 431.859375 84.535156 431.132812 84.996094 430.195312 84.996094 C 428.992188 84.996094 428.21875 84.089844 428.21875 82.804688 C 428.21875 81.339844 429.054688 80.292969 430.230469 80.292969 Z M 430.246094 80.292969 "/>
<path style=" stroke:none;fill-rule:evenodd;fill:rgb(0%,0%,0%);fill-opacity:1;" d="M 386.589844 13.894531 C 386.335938 13.894531 385.988281 13.910156 385.574219 13.976562 C 384.273438 14.132812 383.128906 14.65625 382.269531 15.496094 C 381.238281 16.523438 380.523438 18.125 380.523438 20.152344 C 380.523438 22.828125 381.96875 24.539062 384.160156 24.539062 C 386.320312 24.539062 387.605469 22.804688 387.605469 20.910156 C 387.605469 18.917969 386.320312 17.589844 384.492188 17.589844 C 383.351562 17.589844 382.476562 18.117188 381.984375 18.773438 L 381.953125 18.773438 C 382.191406 17.070312 383.335938 15.472656 385.542969 15.125 C 385.9375 15.0625 386.304688 15.03125 386.589844 15.046875 Z M 384.171875 23.488281 C 382.703125 23.488281 381.902344 22.21875 381.886719 20.523438 C 381.886719 20.269531 381.953125 20.078125 382.03125 19.921875 C 382.414062 19.160156 383.210938 18.648438 384.058594 18.648438 C 385.351562 18.648438 386.199219 19.539062 386.199219 21.015625 C 386.199219 22.488281 385.382812 23.488281 384.1875 23.488281 Z M 384.171875 23.488281 "/>
<path style=" stroke:none;fill-rule:evenodd;fill:rgb(0%,0%,0%);fill-opacity:1;" d="M 314.660156 23.847656 C 315.164062 24.175781 316.175781 24.542969 317.332031 24.542969 C 319.78125 24.542969 321.078125 23.101562 321.078125 21.453125 C 321.078125 20.015625 320.050781 19.0625 318.792969 18.824219 L 318.792969 18.792969 C 320.035156 18.335938 320.679688 17.433594 320.679688 16.355469 C 320.679688 15.105469 319.761719 13.898438 317.742188 13.898438 C 316.636719 13.898438 315.59375 14.292969 315.039062 14.691406 L 315.417969 15.707031 C 315.859375 15.398438 316.648438 15.042969 317.472656 15.042969 C 318.75 15.042969 319.273438 15.761719 319.273438 16.574219 C 319.273438 17.78125 317.996094 18.296875 316.984375 18.296875 L 316.210938 18.296875 L 316.210938 19.351562 L 316.980469 19.351562 C 318.320312 19.351562 319.609375 19.96875 319.625 21.40625 C 319.664062 22.277344 319.09375 23.398438 317.320312 23.398438 C 316.339844 23.398438 315.4375 23.015625 315.039062 22.785156 Z M 314.660156 23.847656 "/>
<path style=" stroke:none;fill-rule:evenodd;fill:rgb(0%,0%,0%);fill-opacity:1;" d="M 340.582031 122.796875 C 338.78125 122.796875 337.402344 123.90625 337.402344 125.539062 C 337.402344 126.425781 337.894531 127.3125 339.046875 127.847656 L 339.046875 127.894531 C 337.789062 128.433594 337.007812 129.367188 337.007812 130.667969 C 337.007812 132.171875 338.3125 133.441406 340.480469 133.441406 C 342.453125 133.441406 344 132.253906 344 130.445312 C 344 129.210938 343.199219 128.292969 341.898438 127.785156 L 341.898438 127.738281 C 343.164062 127.15625 343.605469 126.203125 343.605469 125.332031 C 343.605469 124.035156 342.59375 122.796875 340.601562 122.796875 Z M 340.511719 132.429688 C 339.207031 132.429688 338.414062 131.511719 338.457031 130.480469 C 338.457031 129.5 339.109375 128.691406 340.316406 128.34375 C 341.714844 128.738281 342.589844 129.355469 342.589844 130.59375 C 342.589844 131.652344 341.78125 132.429688 340.523438 132.429688 Z M 340.566406 123.808594 C 341.796875 123.808594 342.285156 124.660156 342.285156 125.480469 C 342.285156 126.410156 341.605469 127.042969 340.722656 127.34375 C 339.535156 127.027344 338.746094 126.472656 338.765625 125.449219 C 338.765625 124.566406 339.398438 123.804688 340.546875 123.804688 Z M 340.566406 123.808594 "/>
<path style=" stroke:none;fill-rule:evenodd;fill:rgb(0%,0%,0%);fill-opacity:1;" d="M 408.769531 199.929688 L 408.769531 197.113281 L 410.210938 197.113281 L 410.210938 196.058594 L 408.769531 196.058594 L 408.769531 189.636719 L 407.261719 189.636719 L 402.65625 196.210938 L 402.65625 197.113281 L 407.453125 197.113281 L 407.453125 199.929688 Z M 404.0625 196.054688 L 404.0625 196.023438 L 406.589844 192.53125 C 406.875 192.039062 407.128906 191.597656 407.449219 190.996094 L 407.496094 190.996094 C 407.464844 191.535156 407.449219 192.070312 407.449219 192.609375 L 407.449219 196.054688 Z M 404.0625 196.054688 "/>
<path style=" stroke:none;fill-rule:evenodd;fill:rgb(0%,0%,0%);fill-opacity:1;" d="M 253.550781 79.410156 L 248.609375 79.410156 L 247.941406 84.320312 C 248.324219 84.253906 248.785156 84.207031 249.390625 84.207031 C 251.441406 84.207031 252.347656 85.136719 252.347656 86.496094 C 252.34375 87.886719 251.203125 88.738281 249.90625 88.738281 C 248.957031 88.738281 248.117188 88.429688 247.6875 88.183594 L 247.339844 89.246094 C 247.847656 89.5625 248.785156 89.878906 249.914062 89.878906 C 252.152344 89.878906 253.757812 88.378906 253.757812 86.375 C 253.757812 85.046875 253.089844 84.144531 252.28125 83.703125 C 251.648438 83.328125 250.867188 83.152344 250.058594 83.152344 C 249.675781 83.152344 249.453125 83.171875 249.214844 83.195312 L 249.613281 80.597656 L 253.550781 80.597656 Z M 253.550781 79.410156 "/>
<path style=" stroke:none;fill-rule:evenodd;fill:rgb(0%,0%,0%);fill-opacity:1;" d="M 363.496094 44.167969 L 364.855469 44.167969 L 364.855469 33.875 L 363.664062 33.875 L 361.402344 35.074219 L 361.667969 36.136719 L 363.460938 35.191406 L 363.492188 35.191406 Z M 363.496094 44.167969 "/>
<path style=" stroke:none;fill-rule:evenodd;fill:rgb(0%,0%,0%);fill-opacity:1;" d="M 366.378906 23.929688 L 366.378906 22.785156 L 361.773438 22.785156 L 361.773438 22.753906 L 362.578125 21.992188 C 364.753906 19.898438 366.132812 18.363281 366.132812 16.457031 C 366.132812 14.984375 365.195312 13.460938 362.992188 13.460938 C 361.804688 13.460938 360.773438 13.921875 360.074219 14.507812 L 360.515625 15.488281 C 360.988281 15.085938 361.765625 14.601562 362.699219 14.601562 C 364.230469 14.601562 364.722656 15.570312 364.722656 16.617188 C 364.722656 18.171875 363.523438 19.503906 360.898438 22.011719 L 359.808594 23.074219 L 359.808594 23.929688 Z M 366.378906 23.929688 "/>
<path style=" stroke:none;fill-rule:evenodd;fill:rgb(0%,0%,0%);fill-opacity:1;" d="M 360.394531 178.324219 C 360.710938 178.335938 361.171875 178.304688 361.675781 178.242188 C 362.78125 178.117188 363.875 177.625 364.667969 176.867188 C 365.679688 175.867188 366.4375 174.285156 366.4375 172.019531 C 366.4375 169.375 365.136719 167.675781 363.027344 167.675781 C 360.914062 167.675781 359.488281 169.390625 359.488281 171.324219 C 359.488281 173.101562 360.675781 174.496094 362.535156 174.496094 C 363.582031 174.496094 364.410156 174.082031 364.984375 173.378906 L 365.03125 173.378906 C 364.839844 174.605469 364.351562 175.511719 363.667969 176.132812 C 363.085938 176.707031 362.324219 177.039062 361.515625 177.136719 C 361.042969 177.199219 360.695312 177.214844 360.394531 177.199219 Z M 362.925781 168.730469 C 364.382812 168.730469 365.050781 170.066406 365.03125 171.847656 C 365.03125 172.070312 364.984375 172.230469 364.921875 172.359375 C 364.542969 172.976562 363.8125 173.4375 362.878906 173.4375 C 361.675781 173.4375 360.898438 172.53125 360.898438 171.246094 C 360.898438 169.78125 361.734375 168.730469 362.910156 168.730469 Z M 362.925781 168.730469 "/>
<path style=" stroke:none;fill-rule:evenodd;fill:rgb(0%,0%,0%);fill-opacity:1;" d="M 274.390625 123.457031 C 274.136719 123.457031 273.789062 123.472656 273.375 123.535156 C 272.070312 123.691406 270.925781 124.214844 270.070312 125.054688 C 269.039062 126.082031 268.324219 127.683594 268.324219 129.710938 C 268.324219 132.390625 269.765625 134.101562 271.960938 134.101562 C 274.121094 134.101562 275.40625 132.363281 275.40625 130.46875 C 275.40625 128.476562 274.121094 127.148438 272.292969 127.148438 C 271.152344 127.148438 270.277344 127.679688 269.785156 128.332031 L 269.753906 128.332031 C 269.992188 126.628906 271.136719 125.035156 273.34375 124.683594 C 273.738281 124.621094 274.105469 124.589844 274.390625 124.605469 Z M 271.972656 133.046875 C 270.503906 133.046875 269.703125 131.78125 269.6875 130.082031 C 269.6875 129.828125 269.75 129.636719 269.832031 129.480469 C 270.210938 128.71875 271.011719 128.210938 271.859375 128.210938 C 273.152344 128.210938 274 129.097656 274 130.574219 C 274 132.050781 273.183594 133.050781 271.988281 133.050781 Z M 271.972656 133.046875 "/>
<path style=" stroke:none;fill-rule:evenodd;fill:rgb(0%,0%,0%);fill-opacity:1;" d="M 291.558594 133.40625 C 292.066406 133.738281 293.074219 134.105469 294.230469 134.105469 C 296.679688 134.105469 297.976562 132.664062 297.976562 131.015625 C 297.976562 129.574219 296.953125 128.621094 295.691406 128.386719 L 295.691406 128.355469 C 296.9375 127.894531 297.582031 126.992188 297.582031 125.914062 C 297.582031 124.664062 296.664062 123.460938 294.640625 123.460938 C 293.535156 123.460938 292.492188 123.855469 291.9375 124.25 L 292.316406 125.265625 C 292.757812 124.957031 293.546875 124.601562 294.371094 124.601562 C 295.648438 124.601562 296.171875 125.324219 296.171875 126.136719 C 296.171875 127.339844 294.894531 127.855469 293.886719 127.855469 L 293.113281 127.855469 L 293.113281 128.910156 L 293.882812 128.910156 C 295.21875 128.910156 296.507812 129.527344 296.523438 130.96875 C 296.5625 131.835938 295.992188 132.957031 294.21875 132.957031 C 293.238281 132.957031 292.335938 132.574219 291.9375 132.34375 Z M 291.558594 133.40625 "/>
<path style=" stroke:none;fill-rule:evenodd;fill:rgb(0%,0%,0%);fill-opacity:1;" d="M 406.582031 78.574219 C 404.78125 78.574219 403.402344 79.6875 403.402344 81.316406 C 403.402344 82.203125 403.894531 83.089844 405.046875 83.628906 L 405.046875 83.675781 C 403.789062 84.214844 403.007812 85.148438 403.007812 86.449219 C 403.007812 87.953125 404.3125 89.21875 406.480469 89.21875 C 408.453125 89.21875 410 88.03125 410 86.226562 C 410 84.988281 409.199219 84.074219 407.898438 83.566406 L 407.898438 83.519531 C 409.164062 82.933594 409.605469 81.984375 409.605469 81.109375 C 409.605469 79.8125 408.59375 78.574219 406.601562 78.574219 Z M 406.511719 88.210938 C 405.207031 88.210938 404.414062 87.292969 404.457031 86.261719 C 404.457031 85.28125 405.109375 84.472656 406.316406 84.121094 C 407.714844 84.515625 408.589844 85.136719 408.589844 86.375 C 408.589844 87.433594 407.78125 88.210938 406.523438 88.210938 Z M 406.566406 79.589844 C 407.796875 79.589844 408.285156 80.4375 408.285156 81.261719 C 408.285156 82.191406 407.605469 82.824219 406.722656 83.121094 C 405.535156 82.808594 404.746094 82.253906 404.765625 81.226562 C 404.765625 80.34375 405.398438 79.585938 406.546875 79.585938 Z M 406.566406 79.589844 "/>
<path style=" stroke:none;fill-rule:evenodd;fill:rgb(0%,0%,0%);fill-opacity:1;" d="M 387.53125 169.171875 L 382.589844 169.171875 L 381.921875 174.078125 C 382.304688 174.015625 382.765625 173.964844 383.371094 173.964844 C 385.421875 173.964844 386.328125 174.898438 386.328125 176.253906 C 386.324219 177.644531 385.183594 178.496094 383.886719 178.496094 C 382.9375 178.496094 382.097656 178.191406 381.667969 177.945312 L 381.320312 179.007812 C 381.828125 179.324219 382.765625 179.640625 383.894531 179.640625 C 386.132812 179.640625 387.738281 178.140625 387.738281 176.132812 C 387.738281 174.808594 387.070312 173.90625 386.261719 173.464844 C 385.625 173.085938 384.847656 172.910156 384.035156 172.910156 C 383.65625 172.910156 383.433594 172.933594 383.195312 172.957031 L 383.59375 170.359375 L 387.53125 170.359375 Z M 387.53125 169.171875 "/>
<path style=" stroke:none;fill-rule:evenodd;fill:rgb(0%,0%,0%);fill-opacity:1;" d="M 428.835938 132.609375 L 430.195312 132.609375 L 430.195312 122.3125 L 429.003906 122.3125 L 426.742188 123.515625 L 427.007812 124.578125 L 428.800781 123.632812 L 428.832031 123.632812 Z M 428.835938 132.609375 "/>
<path style=" stroke:none;fill-rule:evenodd;fill:rgb(0%,0%,0%);fill-opacity:1;" d="M 409.941406 45.707031 L 409.941406 44.566406 L 405.332031 44.566406 L 405.332031 44.535156 L 406.140625 43.773438 C 408.3125 41.679688 409.691406 40.140625 409.691406 38.238281 C 409.691406 36.765625 408.753906 35.242188 406.550781 35.242188 C 405.363281 35.242188 404.332031 35.699219 403.636719 36.285156 L 404.078125 37.269531 C 404.550781 36.863281 405.324219 36.382812 406.257812 36.382812 C 407.792969 36.382812 408.285156 37.351562 408.285156 38.398438 C 408.285156 39.949219 407.082031 41.28125 404.457031 43.789062 L 403.367188 44.851562 L 403.367188 45.707031 Z M 409.941406 45.707031 "/>
<path style=" stroke:none;fill-rule:evenodd;fill:rgb(0%,0%,0%);fill-opacity:1;" d="M 382.835938 198.785156 C 383.152344 198.796875 383.609375 198.765625 384.117188 198.703125 C 385.222656 198.578125 386.316406 198.085938 387.105469 197.324219 C 388.117188 196.328125 388.878906 194.746094 388.878906 192.480469 C 388.878906 189.835938 387.578125 188.136719 385.464844 188.136719 C 383.355469 188.136719 381.925781 189.847656 381.925781 191.785156 C 381.925781 193.558594 383.117188 194.957031 384.976562 194.957031 C 386.023438 194.957031 386.851562 194.542969 387.421875 193.839844 L 387.472656 193.839844 C 387.28125 195.066406 386.789062 195.972656 386.109375 196.59375 C 385.523438 197.167969 384.765625 197.5 383.957031 197.597656 C 383.484375 197.65625 383.136719 197.671875 382.832031 197.65625 Z M 385.367188 189.191406 C 386.824219 189.191406 387.492188 190.527344 387.472656 192.308594 C 387.472656 192.53125 387.425781 192.691406 387.359375 192.816406 C 386.980469 193.4375 386.253906 193.898438 385.316406 193.898438 C 384.113281 193.898438 383.335938 192.992188 383.335938 191.703125 C 383.335938 190.242188 384.175781 189.191406 385.351562 189.191406 Z M 385.367188 189.191406 "/>
<path style=" stroke:none;fill-rule:evenodd;fill:rgb(0%,0%,0%);fill-opacity:1;" d="M 296.828125 189.457031 C 296.578125 189.457031 296.226562 189.472656 295.8125 189.535156 C 294.511719 189.691406 293.367188 190.214844 292.511719 191.054688 C 291.480469 192.082031 290.765625 193.683594 290.765625 195.710938 C 290.765625 198.390625 292.207031 200.101562 294.398438 200.101562 C 296.558594 200.101562 297.847656 198.363281 297.847656 196.46875 C 297.847656 194.476562 296.558594 193.148438 294.734375 193.148438 C 293.589844 193.148438 292.71875 193.679688 292.222656 194.332031 L 292.195312 194.332031 C 292.429688 192.628906 293.574219 191.035156 295.78125 190.683594 C 296.175781 190.621094 296.542969 190.589844 296.828125 190.605469 Z M 294.410156 199.046875 C 292.941406 199.046875 292.144531 197.78125 292.128906 196.082031 C 292.128906 195.828125 292.191406 195.636719 292.269531 195.480469 C 292.652344 194.71875 293.453125 194.210938 294.300781 194.210938 C 295.589844 194.210938 296.4375 195.097656 296.4375 196.574219 C 296.4375 198.050781 295.625 199.050781 294.429688 199.050781 Z M 294.410156 199.046875 "/>
<path style=" stroke:none;fill-rule:evenodd;fill:rgb(0%,0%,0%);fill-opacity:1;" d="M 335.777344 88.527344 C 336.285156 88.859375 337.296875 89.222656 338.449219 89.222656 C 340.898438 89.222656 342.195312 87.78125 342.195312 86.136719 C 342.195312 84.695312 341.171875 83.742188 339.914062 83.503906 L 339.914062 83.472656 C 341.15625 83.015625 341.800781 82.113281 341.800781 81.035156 C 341.800781 79.785156 340.882812 78.578125 338.859375 78.578125 C 337.757812 78.578125 336.710938 78.976562 336.160156 79.371094 L 336.539062 80.386719 C 336.980469 80.078125 337.769531 79.722656 338.589844 79.722656 C 339.871094 79.722656 340.394531 80.441406 340.394531 81.253906 C 340.394531 82.460938 339.117188 82.976562 338.105469 82.976562 L 337.332031 82.976562 L 337.332031 84.03125 L 338.101562 84.03125 C 339.4375 84.03125 340.730469 84.648438 340.746094 86.085938 C 340.78125 86.957031 340.214844 88.078125 338.441406 88.078125 C 337.457031 88.078125 336.554688 87.695312 336.160156 87.464844 Z M 335.777344 88.527344 "/>
<path style=" stroke:none;fill-rule:evenodd;fill:rgb(0%,0%,0%);fill-opacity:1;" d="M 318.804688 189.457031 C 317 189.457031 315.625 190.566406 315.625 192.199219 C 315.625 193.085938 316.113281 193.972656 317.269531 194.507812 L 317.269531 194.554688 C 316.007812 195.09375 315.226562 196.027344 315.226562 197.328125 C 315.226562 198.832031 316.53125 200.101562 318.699219 200.101562 C 320.675781 200.101562 322.222656 198.914062 322.222656 197.105469 C 322.222656 195.871094 321.417969 194.953125 320.121094 194.445312 L 320.121094 194.398438 C 321.382812 193.816406 321.828125 192.863281 321.828125 191.992188 C 321.828125 190.695312 320.8125 189.457031 318.820312 189.457031 Z M 318.730469 199.089844 C 317.429688 199.089844 316.632812 198.171875 316.675781 197.140625 C 316.675781 196.160156 317.328125 195.351562 318.535156 195.003906 C 319.9375 195.398438 320.8125 196.015625 320.8125 197.253906 C 320.8125 198.3125 320 199.089844 318.746094 199.089844 Z M 318.785156 190.46875 C 320.015625 190.46875 320.503906 191.320312 320.503906 192.140625 C 320.503906 193.070312 319.824219 193.703125 318.941406 194 C 317.757812 193.6875 316.96875 193.132812 316.988281 192.109375 C 316.988281 191.222656 317.617188 190.464844 318.769531 190.464844 Z M 318.785156 190.46875 "/>
<path style=" stroke:none;fill-rule:evenodd;fill:rgb(0%,0%,0%);fill-opacity:1;" d="M 298.398438 89.269531 L 298.398438 88.125 L 293.792969 88.125 L 293.792969 88.09375 L 294.601562 87.332031 C 296.773438 85.238281 298.152344 83.703125 298.152344 81.796875 C 298.152344 80.324219 297.214844 78.800781 295.011719 78.800781 C 293.824219 78.800781 292.792969 79.261719 292.09375 79.847656 L 292.539062 80.828125 C 293.011719 80.425781 293.785156 79.941406 294.71875 79.941406 C 296.25 79.941406 296.742188 80.910156 296.742188 81.957031 C 296.742188 83.511719 295.542969 84.84375 292.917969 87.351562 L 291.828125 88.414062 L 291.828125 89.269531 Z M 298.398438 89.269531 "/>
<path style=" stroke:none;fill-rule:evenodd;fill:rgb(0%,0%,0%);fill-opacity:1;" d="M 407.710938 147.214844 C 407.457031 147.214844 407.109375 147.230469 406.691406 147.296875 C 405.390625 147.453125 404.246094 147.976562 403.390625 148.8125 C 402.359375 149.84375 401.644531 151.445312 401.644531 153.472656 C 401.644531 156.148438 403.085938 157.859375 405.28125 157.859375 C 407.4375 157.859375 408.726562 156.125 408.726562 154.226562 C 408.726562 152.238281 407.4375 150.910156 405.613281 150.910156 C 404.472656 150.910156 403.597656 151.4375 403.105469 152.09375 L 403.074219 152.09375 C 403.3125 150.386719 404.457031 148.792969 406.664062 148.445312 C 407.058594 148.382812 407.425781 148.351562 407.710938 148.367188 Z M 405.289062 156.808594 C 403.824219 156.808594 403.023438 155.539062 403.007812 153.839844 C 403.007812 153.589844 403.070312 153.398438 403.152344 153.242188 C 403.53125 152.480469 404.332031 151.96875 405.179688 151.96875 C 406.472656 151.96875 407.320312 152.859375 407.320312 154.335938 C 407.320312 155.808594 406.503906 156.808594 405.308594 156.808594 Z M 405.289062 156.808594 "/>
<path style=" stroke:none;fill-rule:evenodd;fill:rgb(0%,0%,0%);fill-opacity:1;" d="M 358.878906 198.746094 C 359.382812 199.078125 360.394531 199.445312 361.550781 199.445312 C 364 199.445312 365.296875 198.003906 365.296875 196.355469 C 365.296875 194.914062 364.273438 193.960938 363.011719 193.726562 L 363.011719 193.695312 C 364.253906 193.234375 364.898438 192.332031 364.898438 191.253906 C 364.898438 190.003906 363.980469 188.800781 361.960938 188.800781 C 360.855469 188.800781 359.8125 189.195312 359.257812 189.589844 L 359.636719 190.605469 C 360.078125 190.296875 360.867188 189.941406 361.691406 189.941406 C 362.96875 189.941406 363.492188 190.664062 363.492188 191.476562 C 363.492188 192.679688 362.214844 193.195312 361.203125 193.195312 L 360.429688 193.195312 L 360.429688 194.25 L 361.203125 194.25 C 362.539062 194.25 363.828125 194.867188 363.84375 196.308594 C 363.882812 197.175781 363.3125 198.300781 361.539062 198.300781 C 360.558594 198.300781 359.65625 197.914062 359.257812 197.683594 Z M 358.878906 198.746094 "/>
<path style=" stroke:none;fill-rule:evenodd;fill:rgb(0%,0%,0%);fill-opacity:1;" d="M 386.839844 132.167969 L 386.839844 131.023438 L 382.230469 131.023438 L 382.230469 130.996094 L 383.039062 130.234375 C 385.210938 128.140625 386.59375 126.601562 386.59375 124.699219 C 386.59375 123.222656 385.65625 121.699219 383.453125 121.699219 C 382.265625 121.699219 381.234375 122.160156 380.535156 122.746094 L 380.976562 123.726562 C 381.449219 123.324219 382.226562 122.84375 383.160156 122.84375 C 384.691406 122.84375 385.183594 123.808594 385.183594 124.855469 C 385.183594 126.410156 383.980469 127.742188 381.355469 130.25 L 380.269531 131.3125 L 380.269531 132.167969 Z M 386.839844 132.167969 "/>
<path style=" stroke:none;fill-rule:evenodd;fill:rgb(0%,0%,0%);fill-opacity:1;" d="M 426.199219 178.945312 C 426.703125 179.277344 427.714844 179.644531 428.871094 179.644531 C 431.320312 179.644531 432.617188 178.203125 432.617188 176.554688 C 432.617188 175.113281 431.59375 174.164062 430.332031 173.925781 L 430.332031 173.894531 C 431.574219 173.433594 432.21875 172.53125 432.21875 171.457031 C 432.21875 170.203125 431.300781 169 429.28125 169 C 428.175781 169 427.132812 169.394531 426.578125 169.792969 L 426.957031 170.804688 C 427.398438 170.496094 428.1875 170.140625 429.011719 170.140625 C 430.289062 170.140625 430.8125 170.863281 430.8125 171.675781 C 430.8125 172.878906 429.535156 173.394531 428.523438 173.394531 L 427.75 173.394531 L 427.75 174.453125 L 428.523438 174.453125 C 429.859375 174.453125 431.148438 175.066406 431.164062 176.507812 C 431.203125 177.375 430.632812 178.5 428.859375 178.5 C 427.878906 178.5 426.976562 178.113281 426.578125 177.882812 Z M 426.199219 178.945312 "/>
<path style=" stroke:none;fill-rule:evenodd;fill:rgb(0%,0%,0%);fill-opacity:1;" d="M 275.960938 177.046875 L 275.960938 175.90625 L 271.351562 175.90625 L 271.351562 175.875 L 272.160156 175.113281 C 274.332031 173.019531 275.710938 171.480469 275.710938 169.578125 C 275.710938 168.105469 274.777344 166.582031 272.574219 166.582031 C 271.382812 166.582031 270.351562 167.039062 269.65625 167.625 L 270.097656 168.609375 C 270.570312 168.207031 271.34375 167.722656 272.277344 167.722656 C 273.8125 167.722656 274.304688 168.691406 274.304688 169.738281 C 274.304688 171.289062 273.101562 172.621094 270.476562 175.128906 L 269.386719 176.191406 L 269.386719 177.046875 Z M 275.960938 177.046875 "/>
<path style=" stroke:none;fill-rule:evenodd;fill:rgb(0%,0%,0%);fill-opacity:1;" d="M 431.71875 156.589844 L 431.71875 155.445312 L 427.113281 155.445312 L 427.113281 155.414062 L 427.921875 154.652344 C 430.09375 152.558594 431.472656 151.019531 431.472656 149.117188 C 431.472656 147.644531 430.535156 146.121094 428.332031 146.121094 C 427.144531 146.121094 426.113281 146.578125 425.414062 147.167969 L 425.855469 148.148438 C 426.328125 147.746094 427.105469 147.261719 428.039062 147.261719 C 429.570312 147.261719 430.0625 148.230469 430.0625 149.277344 C 430.0625 150.832031 428.863281 152.164062 426.238281 154.671875 L 425.148438 155.730469 L 425.148438 156.589844 Z M 431.71875 156.589844 "/>
</g>
</svg>
