<?xml version="1.0" encoding="UTF-8"?>
<svg xmlns="http://www.w3.org/2000/svg" xmlns:xlink="http://www.w3.org/1999/xlink" width="144pt" height="90pt" viewBox="0 0 144 90" version="1.1">
<g id="surface1">
<path style="fill-rule:nonzero;fill:rgb(100%,100%,100%);fill-opacity:1;stroke-width:2;stroke-linecap:butt;stroke-linejoin:miter;stroke:rgb(13.729858%,12.159729%,12.548828%);stroke-opacity:1;stroke-miterlimit:4;" d="M 77.355469 76.382812 L 13.164062 76.382812 L 13.164062 12.191406 L 77.355469 12.191406 Z M 77.355469 76.382812 " transform="matrix(1,0,0,-1,0,90)"/>
<path style="fill:none;stroke-width:2;stroke-linecap:butt;stroke-linejoin:miter;stroke:rgb(13.729858%,12.159729%,12.548828%);stroke-opacity:1;stroke-miterlimit:4;" d="M -0.00094375 0.00095 L 5.7139 22.06345 " transform="matrix(1,0,0,-1,127.0361,64.1572)"/>
<path style=" stroke:none;fill-rule:nonzero;fill:rgb(13.729858%,12.159729%,12.548828%);fill-opacity:1;" d="M 134.261719 36.253906 C 134.570312 39.265625 135.425781 43.125 136.722656 45.71875 L 132.550781 42.859375 L 127.515625 43.332031 C 129.90625 41.695312 132.53125 38.738281 134.261719 36.253906 "/>
<path style="fill:none;stroke-width:2;stroke-linecap:butt;stroke-linejoin:miter;stroke:rgb(13.729858%,12.159729%,12.548828%);stroke-opacity:1;stroke-miterlimit:4;" d="M -0.00094375 0.00095 L 9.284212 36.348606 " transform="matrix(1,0,0,-1,127.0361,64.1572)"/>
<path style="fill:none;stroke-width:2;stroke-linecap:butt;stroke-linejoin:miter;stroke:rgb(13.729858%,12.159729%,12.548828%);stroke-opacity:1;stroke-miterlimit:4;" d="M -0.000025 -0.0000375 L -8.632838 35.714806 " transform="matrix(1,0,0,-1,126.7969,63.5234)"/>
<path style="fill:none;stroke-width:2;stroke-linecap:butt;stroke-linejoin:miter;stroke:rgb(13.729858%,12.159729%,12.548828%);stroke-opacity:1;stroke-miterlimit:4;" d="M 0.0000125 0.00050625 C 0.0000125 4.770037 -4.124988 8.629412 -9.22655 8.629412 " transform="matrix(1,0,0,-1,136.3203,27.8091)"/>
<path style="fill:none;stroke-width:2;stroke-linecap:butt;stroke-linejoin:miter;stroke:rgb(13.729858%,12.159729%,12.548828%);stroke-opacity:1;stroke-miterlimit:4;" d="M -0.0019375 0.00050625 C -0.0019375 4.770037 3.994156 8.629412 8.92775 8.629412 " transform="matrix(1,0,0,-1,118.166,27.8091)"/>
<path style=" stroke:none;fill-rule:nonzero;fill:rgb(96.403503%,78.808594%,42.222595%);fill-opacity:1;" d="M 133.277344 64.15625 C 133.277344 60.753906 130.480469 57.992188 127.039062 57.992188 C 123.589844 57.992188 120.796875 60.753906 120.796875 64.15625 C 120.796875 67.558594 123.589844 70.320312 127.039062 70.320312 C 130.480469 70.320312 133.277344 67.558594 133.277344 64.15625 "/>
<path style="fill:none;stroke-width:2;stroke-linecap:butt;stroke-linejoin:miter;stroke:rgb(13.729858%,12.159729%,12.548828%);stroke-opacity:1;stroke-miterlimit:4;" d="M 0.00194375 -0.00005 C 0.00194375 3.402294 -2.794931 6.164012 -6.236337 6.164012 C -9.685556 6.164012 -12.478525 3.402294 -12.478525 -0.00005 C -12.478525 -3.402394 -9.685556 -6.164113 -6.236337 -6.164113 C -2.794931 -6.164113 0.00194375 -3.402394 0.00194375 -0.00005 Z M 0.00194375 -0.00005 " transform="matrix(1,0,0,-1,133.2754,64.1562)"/>
<path style="fill:none;stroke-width:2;stroke-linecap:butt;stroke-linejoin:miter;stroke:rgb(13.729858%,12.159729%,12.548828%);stroke-opacity:1;stroke-miterlimit:4;" d="M -0.001425 -0.000025 L 33.104044 -0.152369 " transform="matrix(1,0,0,-1,12.7983,77.5781)"/>
<path style=" stroke:none;fill-rule:nonzero;fill:rgb(13.729858%,12.159729%,12.548828%);fill-opacity:1;" d="M 51.9375 77.757812 C 49.09375 78.796875 45.5625 80.578125 43.371094 82.476562 L 45.113281 77.726562 L 43.414062 72.964844 C 45.589844 74.875 49.101562 76.695312 51.9375 77.757812 "/>
<path style="fill:none;stroke-width:2;stroke-linecap:butt;stroke-linejoin:miter;stroke:rgb(13.729858%,12.159729%,12.548828%);stroke-opacity:1;stroke-miterlimit:4;" d="M -0.0019375 0.00000625 L 0.0957188 30.953131 " transform="matrix(1,0,0,-1,77.3535,77.8086)"/>
<path style=" stroke:none;fill-rule:nonzero;fill:rgb(13.729858%,12.159729%,12.548828%);fill-opacity:1;" d="M 77.46875 40.820312 C 78.515625 43.664062 80.300781 47.191406 82.199219 49.378906 L 77.449219 47.648438 L 72.6875 49.351562 C 74.597656 47.171875 76.40625 43.65625 77.46875 40.820312 "/>
<path style="fill:none;stroke-width:2;stroke-linecap:butt;stroke-linejoin:miter;stroke:rgb(13.729858%,12.159729%,12.548828%);stroke-opacity:1;stroke-miterlimit:4;" d="M -0.0019375 0.0000125 L -31.154281 0.390638 " transform="matrix(1,0,0,-1,77.3535,13.6172)"/>
<path style=" stroke:none;fill-rule:nonzero;fill:rgb(13.729858%,12.159729%,12.548828%);fill-opacity:1;" d="M 40.164062 13.148438 C 43.015625 12.132812 46.5625 10.378906 48.769531 8.5 L 46.992188 13.234375 L 48.648438 18.011719 C 46.492188 16.082031 42.988281 14.238281 40.164062 13.148438 "/>
<path style="fill:none;stroke-width:2;stroke-linecap:butt;stroke-linejoin:miter;stroke:rgb(13.729858%,12.159729%,12.548828%);stroke-opacity:1;stroke-miterlimit:4;" d="M 0.0004625 0.0000125 L -0.296413 -33.238269 " transform="matrix(1,0,0,-1,13.1636,13.6172)"/>
<path style=" stroke:none;fill-rule:nonzero;fill:rgb(13.729858%,12.159729%,12.548828%);fill-opacity:1;" d="M 12.8125 52.890625 C 11.785156 50.042969 10.019531 46.503906 8.132812 44.304688 L 12.875 46.066406 L 17.644531 44.386719 C 15.722656 46.554688 13.890625 50.0625 12.8125 52.890625 "/>
<path style=" stroke:none;fill-rule:nonzero;fill:rgb(96.403503%,78.808594%,42.222595%);fill-opacity:1;" d="M 19.894531 13.683594 C 19.894531 10.277344 17.101562 7.519531 13.65625 7.519531 C 10.207031 7.519531 7.414062 10.277344 7.414062 13.683594 C 7.414062 17.085938 10.207031 19.847656 13.65625 19.847656 C 17.101562 19.847656 19.894531 17.085938 19.894531 13.683594 "/>
<path style="fill:none;stroke-width:2;stroke-linecap:butt;stroke-linejoin:miter;stroke:rgb(13.729858%,12.159729%,12.548828%);stroke-opacity:1;stroke-miterlimit:4;" d="M 0.00053125 -0.00149375 C 0.00053125 3.404756 -2.792438 6.162569 -6.23775 6.162569 C -9.686969 6.162569 -12.479938 3.404756 -12.479938 -0.00149375 C -12.479938 -3.403838 -9.686969 -6.165556 -6.23775 -6.165556 C -2.792438 -6.165556 0.00053125 -3.403838 0.00053125 -0.00149375 Z M 0.00053125 -0.00149375 " transform="matrix(1,0,0,-1,19.894,13.6821)"/>
<path style=" stroke:none;fill-rule:nonzero;fill:rgb(96.403503%,78.808594%,42.222595%);fill-opacity:1;" d="M 83.527344 14.359375 C 83.527344 10.953125 80.730469 8.195312 77.289062 8.195312 C 73.839844 8.195312 71.046875 10.953125 71.046875 14.359375 C 71.046875 17.761719 73.839844 20.523438 77.289062 20.523438 C 80.730469 20.523438 83.527344 17.761719 83.527344 14.359375 "/>
<path style="fill:none;stroke-width:2;stroke-linecap:butt;stroke-linejoin:miter;stroke:rgb(13.729858%,12.159729%,12.548828%);stroke-opacity:1;stroke-miterlimit:4;" d="M 0.00194375 -0.000975 C 0.00194375 3.405275 -2.794931 6.163087 -6.236337 6.163087 C -9.685556 6.163087 -12.478525 3.405275 -12.478525 -0.000975 C -12.478525 -3.403319 -9.685556 -6.165038 -6.236337 -6.165038 C -2.794931 -6.165038 0.00194375 -3.403319 0.00194375 -0.000975 Z M 0.00194375 -0.000975 " transform="matrix(1,0,0,-1,83.5254,14.3584)"/>
<path style=" stroke:none;fill-rule:nonzero;fill:rgb(96.403503%,78.808594%,42.222595%);fill-opacity:1;" d="M 83.144531 78.179688 C 83.144531 74.777344 80.347656 72.015625 76.90625 72.015625 C 73.457031 72.015625 70.664062 74.777344 70.664062 78.179688 C 70.664062 81.582031 73.457031 84.34375 76.90625 84.34375 C 80.347656 84.34375 83.144531 81.582031 83.144531 78.179688 "/>
<path style="fill:none;stroke-width:2;stroke-linecap:butt;stroke-linejoin:miter;stroke:rgb(13.729858%,12.159729%,12.548828%);stroke-opacity:1;stroke-miterlimit:4;" d="M 0.00193125 0.0000125 C 0.00193125 3.402356 -2.794944 6.164075 -6.23635 6.164075 C -9.685569 6.164075 -12.478538 3.402356 -12.478538 0.0000125 C -12.478538 -3.402331 -9.685569 -6.16405 -6.23635 -6.16405 C -2.794944 -6.16405 0.00193125 -3.402331 0.00193125 0.0000125 Z M 0.00193125 0.0000125 " transform="matrix(1,0,0,-1,83.1426,78.1797)"/>
<path style=" stroke:none;fill-rule:nonzero;fill:rgb(96.403503%,78.808594%,42.222595%);fill-opacity:1;" d="M 18.738281 77.953125 C 18.738281 74.550781 15.945312 71.789062 12.5 71.789062 C 9.054688 71.789062 6.261719 74.550781 6.261719 77.953125 C 6.261719 81.355469 9.054688 84.117188 12.5 84.117188 C 15.945312 84.117188 18.738281 81.355469 18.738281 77.953125 "/>
<path style="fill:none;stroke-width:2;stroke-linecap:butt;stroke-linejoin:miter;stroke:rgb(13.729858%,12.159729%,12.548828%);stroke-opacity:1;stroke-miterlimit:4;" d="M -0.00141875 -0.000025 C -0.00141875 3.402319 -2.794387 6.164038 -6.2397 6.164038 C -9.685012 6.164038 -12.477981 3.402319 -12.477981 -0.000025 C -12.477981 -3.402369 -9.685012 -6.164087 -6.2397 -6.164087 C -2.794387 -6.164087 -0.00141875 -3.402369 -0.00141875 -0.000025 Z M -0.00141875 -0.000025 " transform="matrix(1,0,0,-1,18.7397,77.9531)"/>
</g>
</svg>
