<?xml version="1.0" encoding="UTF-8"?>
<svg xmlns="http://www.w3.org/2000/svg" xmlns:xlink="http://www.w3.org/1999/xlink" width="504pt" height="432pt" viewBox="0 0 504 432" version="1.1">
<g id="surface1">
<path style="fill:none;stroke-width:4;stroke-linecap:butt;stroke-linejoin:miter;stroke:rgb(13.729858%,12.159729%,12.548828%);stroke-opacity:1;stroke-miterlimit:4;" d="M -0.0019375 0.00053125 L -66.318344 55.656781 " transform="matrix(1,0,0,-1,259.666,213.6685)"/>
<path style="fill:none;stroke-width:4;stroke-linecap:butt;stroke-linejoin:miter;stroke:rgb(13.729858%,12.159729%,12.548828%);stroke-opacity:1;stroke-miterlimit:4;" d="M -0.0019375 0.00053125 L 47.533219 55.332562 " transform="matrix(1,0,0,-1,259.666,213.6685)"/>
<path style="fill:none;stroke-width:4;stroke-linecap:butt;stroke-linejoin:miter;stroke:rgb(13.729858%,12.159729%,12.548828%);stroke-opacity:1;stroke-miterlimit:4;" d="M 0.0019375 -0.0019375 L 0.521469 66.478531 " transform="matrix(1,0,0,-1,259.1465,280.1465)"/>
<path style="fill:none;stroke-width:6;stroke-linecap:butt;stroke-linejoin:miter;stroke:rgb(13.729858%,12.159729%,12.548828%);stroke-opacity:1;stroke-miterlimit:4;" d="M -0.00098125 -0.0014375 L 56.764644 -247.208469 " transform="matrix(1,0,0,-1,307.2002,158.3345)"/>
<path style="fill:none;stroke-width:6;stroke-linecap:butt;stroke-linejoin:miter;stroke:rgb(13.729858%,12.159729%,12.548828%);stroke-opacity:1;stroke-miterlimit:4;" d="M 0.00044375 0.00003125 L 159.234819 -126.917937 " transform="matrix(1,0,0,-1,147.9644,31.418)"/>
<path style="fill:none;stroke-width:6;stroke-linecap:butt;stroke-linejoin:miter;stroke:rgb(13.729858%,12.159729%,12.548828%);stroke-opacity:1;stroke-miterlimit:4;" d="M 0.0019375 -0.0019375 L -219.334 60.666031 " transform="matrix(1,0,0,-1,259.1465,280.1465)"/>
<path style="fill:none;stroke-width:6;stroke-linecap:butt;stroke-linejoin:miter;stroke:rgb(13.729858%,12.159729%,12.548828%);stroke-opacity:1;stroke-miterlimit:4;" d="M 0.00195 0.0019125 L -213.134769 -61.466838 " transform="matrix(1,0,0,-1,472.2793,218.6816)"/>
<path style="fill:none;stroke-width:6;stroke-linecap:butt;stroke-linejoin:miter;stroke:rgb(13.729858%,12.159729%,12.548828%);stroke-opacity:1;stroke-miterlimit:4;" d="M -0.00004375 0.00098125 L 170.617144 126.594731 " transform="matrix(1,0,0,-1,193.3477,158.0127)"/>
<path style="fill:none;stroke-width:6;stroke-linecap:butt;stroke-linejoin:miter;stroke:rgb(13.729858%,12.159729%,12.548828%);stroke-opacity:1;stroke-miterlimit:4;" d="M 0.00000625 -0.00190625 L 45.781256 247.427781 " transform="matrix(1,0,0,-1,147.5664,405.4395)"/>
<path style=" stroke:none;fill-rule:nonzero;fill:rgb(100%,100%,100%);fill-opacity:1;" d="M 266.945312 280.148438 C 266.945312 276.167969 263.453125 272.945312 259.144531 272.945312 C 254.839844 272.945312 251.347656 276.167969 251.347656 280.148438 C 251.347656 284.121094 254.839844 287.347656 259.144531 287.347656 C 263.453125 287.347656 266.945312 284.121094 266.945312 280.148438 "/>
<path style="fill:none;stroke-width:4;stroke-linecap:butt;stroke-linejoin:miter;stroke:rgb(13.729858%,12.159729%,12.548828%);stroke-opacity:1;stroke-miterlimit:4;" d="M 0.0000125 -0.0019375 C 0.0000125 3.978531 -3.492175 7.201188 -7.800769 7.201188 C -12.105456 7.201188 -15.597644 3.978531 -15.597644 -0.0019375 C -15.597644 -3.974594 -12.105456 -7.201156 -7.800769 -7.201156 C -3.492175 -7.201156 0.0000125 -3.974594 0.0000125 -0.0019375 Z M 0.0000125 -0.0019375 " transform="matrix(1,0,0,-1,266.9453,280.1465)"/>
<path style=" stroke:none;fill-rule:nonzero;fill:rgb(100%,100%,100%);fill-opacity:1;" d="M 201.148438 158.015625 C 201.148438 154.035156 197.65625 150.8125 193.347656 150.8125 C 189.039062 150.8125 185.546875 154.035156 185.546875 158.015625 C 185.546875 161.988281 189.039062 165.210938 193.347656 165.210938 C 197.65625 165.210938 201.148438 161.988281 201.148438 158.015625 "/>
<path style="fill:none;stroke-width:4;stroke-linecap:butt;stroke-linejoin:miter;stroke:rgb(13.729858%,12.159729%,12.548828%);stroke-opacity:1;stroke-miterlimit:4;" d="M 0.0009375 -0.001925 C 0.0009375 3.978544 -3.49125 7.2012 -7.799844 7.2012 C -12.108437 7.2012 -15.600625 3.978544 -15.600625 -0.001925 C -15.600625 -3.974581 -12.108437 -7.197237 -7.799844 -7.197237 C -3.49125 -7.197237 0.0009375 -3.974581 0.0009375 -0.001925 Z M 0.0009375 -0.001925 " transform="matrix(1,0,0,-1,201.1475,158.0137)"/>
<path style=" stroke:none;fill-rule:nonzero;fill:rgb(100%,100%,100%);fill-opacity:1;" d="M 315 158.335938 C 315 154.355469 311.507812 151.132812 307.199219 151.132812 C 302.894531 151.132812 299.398438 154.355469 299.398438 158.335938 C 299.398438 162.308594 302.894531 165.535156 307.199219 165.535156 C 311.507812 165.535156 315 162.308594 315 158.335938 "/>
<path style="fill:none;stroke-width:4;stroke-linecap:butt;stroke-linejoin:miter;stroke:rgb(13.729858%,12.159729%,12.548828%);stroke-opacity:1;stroke-miterlimit:4;" d="M 0 -0.0005375 C 0 3.979931 -3.492188 7.202587 -7.800781 7.202587 C -12.105469 7.202587 -15.601562 3.979931 -15.601562 -0.0005375 C -15.601562 -3.973194 -12.105469 -7.199756 -7.800781 -7.199756 C -3.492188 -7.199756 0 -3.973194 0 -0.0005375 Z M 0 -0.0005375 " transform="matrix(1,0,0,-1,315,158.3354)"/>
<path style=" stroke:none;fill-rule:nonzero;fill:rgb(13.729858%,12.159729%,12.548828%);fill-opacity:1;" d="M 266.132812 213.136719 C 266.132812 209.160156 262.640625 205.933594 258.332031 205.933594 C 254.027344 205.933594 250.53125 209.160156 250.53125 213.136719 C 250.53125 217.109375 254.027344 220.335938 258.332031 220.335938 C 262.640625 220.335938 266.132812 217.109375 266.132812 213.136719 "/>
<path style="fill:none;stroke-width:4;stroke-linecap:butt;stroke-linejoin:miter;stroke:rgb(13.729858%,12.159729%,12.548828%);stroke-opacity:1;stroke-miterlimit:4;" d="M 0.0000125 -0.00141875 C 0.0000125 3.975144 -3.492175 7.201706 -7.800769 7.201706 C -12.105456 7.201706 -15.60155 3.975144 -15.60155 -0.00141875 C -15.60155 -3.974075 -12.105456 -7.200637 -7.800769 -7.200637 C -3.492175 -7.200637 0.0000125 -3.974075 0.0000125 -0.00141875 Z M 0.0000125 -0.00141875 " transform="matrix(1,0,0,-1,266.1328,213.1353)"/>
<path style="fill:none;stroke-width:3;stroke-linecap:butt;stroke-linejoin:miter;stroke:rgb(13.729858%,12.159729%,12.548828%);stroke-opacity:1;stroke-miterlimit:4;" d="M 0.00044375 0.0019375 L -107.999556 187.060531 L 0.00044375 374.123031 L 216.000444 374.123031 L 324.000444 187.060531 L 216.000444 0.0019375 Z M 0.00044375 0.0019375 " transform="matrix(1,0,0,-1,147.9644,405.541)"/>
<path style=" stroke:none;fill-rule:nonzero;fill:rgb(96.403503%,78.808594%,42.222595%);fill-opacity:1;" d="M 47.613281 219.480469 C 47.613281 215.503906 44.121094 212.28125 39.8125 212.28125 C 35.503906 212.28125 32.011719 215.503906 32.011719 219.480469 C 32.011719 223.457031 35.503906 226.679688 39.8125 226.679688 C 44.121094 226.679688 47.613281 223.457031 47.613281 219.480469 "/>
<path style="fill:none;stroke-width:4;stroke-linecap:butt;stroke-linejoin:miter;stroke:rgb(13.729858%,12.159729%,12.548828%);stroke-opacity:1;stroke-miterlimit:4;" d="M 0.00098125 0.00093125 C 0.00098125 3.977494 -3.491206 7.20015 -7.7998 7.20015 C -12.108394 7.20015 -15.600581 3.977494 -15.600581 0.00093125 C -15.600581 -3.975631 -12.108394 -7.198287 -7.7998 -7.198287 C -3.491206 -7.198287 0.00098125 -3.975631 0.00098125 0.00093125 Z M 0.00098125 0.00093125 " transform="matrix(1,0,0,-1,47.6123,219.4814)"/>
<path style=" stroke:none;fill-rule:nonzero;fill:rgb(96.403503%,78.808594%,42.222595%);fill-opacity:1;" d="M 155.367188 405.4375 C 155.367188 401.460938 151.875 398.238281 147.566406 398.238281 C 143.257812 398.238281 139.765625 401.460938 139.765625 405.4375 C 139.765625 409.414062 143.257812 412.636719 147.566406 412.636719 C 151.875 412.636719 155.367188 409.414062 155.367188 405.4375 "/>
<path style="fill:none;stroke-width:4;stroke-linecap:butt;stroke-linejoin:miter;stroke:rgb(13.729858%,12.159729%,12.548828%);stroke-opacity:1;stroke-miterlimit:4;" d="M 0.0009875 0 C 0.0009875 3.976562 -3.4912 7.199219 -7.799794 7.199219 C -12.108388 7.199219 -15.600575 3.976562 -15.600575 0 C -15.600575 -3.976562 -12.108388 -7.199219 -7.799794 -7.199219 C -3.4912 -7.199219 0.0009875 -3.976562 0.0009875 0 Z M 0.0009875 0 " transform="matrix(1,0,0,-1,155.3662,405.4375)"/>
<path style=" stroke:none;fill-rule:nonzero;fill:rgb(96.403503%,78.808594%,42.222595%);fill-opacity:1;" d="M 371.03125 405.769531 C 371.03125 401.792969 367.539062 398.570312 363.230469 398.570312 C 358.921875 398.570312 355.429688 401.792969 355.429688 405.769531 C 355.429688 409.746094 358.921875 412.972656 363.230469 412.972656 C 367.539062 412.972656 371.03125 409.746094 371.03125 405.769531 "/>
<path style="fill:none;stroke-width:4;stroke-linecap:butt;stroke-linejoin:miter;stroke:rgb(13.729858%,12.159729%,12.548828%);stroke-opacity:1;stroke-miterlimit:4;" d="M 0.00095 0.00096875 C 0.00095 3.977531 -3.491237 7.200188 -7.799831 7.200188 C -12.108425 7.200188 -15.600612 3.977531 -15.600612 0.00096875 C -15.600612 -3.975594 -12.108425 -7.202156 -7.799831 -7.202156 C -3.491237 -7.202156 0.00095 -3.975594 0.00095 0.00096875 Z M 0.00095 0.00096875 " transform="matrix(1,0,0,-1,371.0303,405.7705)"/>
<path style=" stroke:none;fill-rule:nonzero;fill:rgb(96.403503%,78.808594%,42.222595%);fill-opacity:1;" d="M 480.082031 218.679688 C 480.082031 214.703125 476.589844 211.480469 472.28125 211.480469 C 467.972656 211.480469 464.480469 214.703125 464.480469 218.679688 C 464.480469 222.65625 467.972656 225.882812 472.28125 225.882812 C 476.589844 225.882812 480.082031 222.65625 480.082031 218.679688 "/>
<path style="fill:none;stroke-width:4;stroke-linecap:butt;stroke-linejoin:miter;stroke:rgb(13.729858%,12.159729%,12.548828%);stroke-opacity:1;stroke-miterlimit:4;" d="M 0.00193125 0.0010125 C 0.00193125 3.977575 -3.490256 7.200231 -7.79885 7.200231 C -12.107444 7.200231 -15.599631 3.977575 -15.599631 0.0010125 C -15.599631 -3.97555 -12.107444 -7.202112 -7.79885 -7.202112 C -3.490256 -7.202112 0.00193125 -3.97555 0.00193125 0.0010125 Z M 0.00193125 0.0010125 " transform="matrix(1,0,0,-1,480.0801,218.6807)"/>
<path style=" stroke:none;fill-rule:nonzero;fill:rgb(96.403503%,78.808594%,42.222595%);fill-opacity:1;" d="M 371.09375 31.15625 C 371.09375 27.179688 367.601562 23.957031 363.292969 23.957031 C 358.984375 23.957031 355.492188 27.179688 355.492188 31.15625 C 355.492188 35.132812 358.984375 38.355469 363.292969 38.355469 C 367.601562 38.355469 371.09375 35.132812 371.09375 31.15625 "/>
<path style="fill:none;stroke-width:4;stroke-linecap:butt;stroke-linejoin:miter;stroke:rgb(13.729858%,12.159729%,12.548828%);stroke-opacity:1;stroke-miterlimit:4;" d="M 0.00095 -0.00005 C 0.00095 3.976512 -3.491238 7.199169 -7.799831 7.199169 C -12.108425 7.199169 -15.600613 3.976512 -15.600613 -0.00005 C -15.600613 -3.976613 -12.108425 -7.199269 -7.799831 -7.199269 C -3.491238 -7.199269 0.00095 -3.976613 0.00095 -0.00005 Z M 0.00095 -0.00005 " transform="matrix(1,0,0,-1,371.0928,31.1562)"/>
<path style=" stroke:none;fill-rule:nonzero;fill:rgb(96.403503%,78.808594%,42.222595%);fill-opacity:1;" d="M 155.765625 31.417969 C 155.765625 27.441406 152.273438 24.21875 147.964844 24.21875 C 143.65625 24.21875 140.164062 27.441406 140.164062 31.417969 C 140.164062 35.394531 143.65625 38.617188 147.964844 38.617188 C 152.273438 38.617188 155.765625 35.394531 155.765625 31.417969 "/>
<path style="fill:none;stroke-width:4;stroke-linecap:butt;stroke-linejoin:miter;stroke:rgb(13.729858%,12.159729%,12.548828%);stroke-opacity:1;stroke-miterlimit:4;" d="M 0.001425 0.00003125 C 0.001425 3.976594 -3.490762 7.19925 -7.799356 7.19925 C -12.10795 7.19925 -15.600137 3.976594 -15.600137 0.00003125 C -15.600137 -3.976531 -12.10795 -7.199187 -7.799356 -7.199187 C -3.490762 -7.199187 0.001425 -3.976531 0.001425 0.00003125 Z M 0.001425 0.00003125 " transform="matrix(1,0,0,-1,155.7642,31.418)"/>
</g>
</svg>
