<?xml version="1.0" encoding="UTF-8"?>
<svg xmlns="http://www.w3.org/2000/svg" xmlns:xlink="http://www.w3.org/1999/xlink" width="82.8pt" height="82.8pt" viewBox="0 0 82.8 82.8" version="1.1">
<defs>
<clipPath id="clip1">
  <path d="M 0 29 L 24 29 L 24 82.800781 L 0 82.800781 Z M 0 29 "/>
</clipPath>
<clipPath id="clip2">
  <path d="M 11 62 L 80 62 L 80 82.800781 L 11 82.800781 Z M 11 62 "/>
</clipPath>
<clipPath id="clip3">
  <path d="M 66 0 L 82.800781 0 L 82.800781 14 L 66 14 Z M 66 0 "/>
</clipPath>
<clipPath id="clip4">
  <path d="M 66 28 L 82.800781 28 L 82.800781 45 L 66 45 Z M 66 28 "/>
</clipPath>
<clipPath id="clip5">
  <path d="M 66 59 L 82.800781 59 L 82.800781 76 L 66 76 Z M 66 59 "/>
</clipPath>
</defs>
<g id="surface1">
<path style="fill:none;stroke-width:1;stroke-linecap:butt;stroke-linejoin:miter;stroke:rgb(13.729858%,12.159729%,12.548828%);stroke-opacity:1;stroke-miterlimit:4;" d="M 0.0019375 0.0002 L -19.541031 -30.331831 " transform="matrix(1,0,0,-1,23.834,5.5002)"/>
<g clip-path="url(#clip1)" clip-rule="nonzero">
<path style="fill:none;stroke-width:1;stroke-linecap:butt;stroke-linejoin:miter;stroke:rgb(13.729858%,12.159729%,12.548828%);stroke-opacity:1;stroke-miterlimit:4;" d="M 0.0019375 0.00116875 L 13.333969 -43.334769 " transform="matrix(1,0,0,-1,4.334,35.3332)"/>
</g>
<g clip-path="url(#clip2)" clip-rule="nonzero">
<path style="fill:none;stroke-width:1;stroke-linecap:butt;stroke-linejoin:miter;stroke:rgb(13.729858%,12.159729%,12.548828%);stroke-opacity:1;stroke-miterlimit:4;" d="M 0.00096875 -0.00076875 L 56.98925 10.858606 " transform="matrix(1,0,0,-1,17.167,78.6672)"/>
</g>
<path style="fill:none;stroke-width:1;stroke-linecap:butt;stroke-linejoin:miter;stroke:rgb(13.729858%,12.159729%,12.548828%);stroke-opacity:1;stroke-miterlimit:4;" d="M 0.0019375 0.0002 L 0.0019375 -61.667769 " transform="matrix(1,0,0,-1,23.834,5.5002)"/>
<path style="fill:none;stroke-width:1;stroke-linecap:butt;stroke-linejoin:miter;stroke:rgb(13.729858%,12.159729%,12.548828%);stroke-opacity:1;stroke-miterlimit:4;" d="M 0.00101875 0.00114375 L -0.155231 -62.694169 " transform="matrix(1,0,0,-1,74.3232,5.4738)"/>
<path style="fill:none;stroke-width:1;stroke-linecap:butt;stroke-linejoin:miter;stroke:rgb(13.729858%,12.159729%,12.548828%);stroke-opacity:1;stroke-miterlimit:4;" d="M 0.0019375 0.0002 L 51.001937 0.0002 " transform="matrix(1,0,0,-1,23.834,5.5002)"/>
<path style="fill:none;stroke-width:1;stroke-linecap:butt;stroke-linejoin:miter;stroke:rgb(13.729858%,12.159729%,12.548828%);stroke-opacity:1;stroke-miterlimit:4;" d="M -0.00005 -0.00079375 L -50.00005 -0.00079375 " transform="matrix(1,0,0,-1,74.1563,67.8078)"/>
<path style="fill:none;stroke-width:1;stroke-linecap:butt;stroke-linejoin:miter;stroke:rgb(13.729858%,12.159729%,12.548828%);stroke-opacity:1;stroke-miterlimit:4;" d="M -0.00005 -0.00079375 L 50.167919 31.167175 " transform="matrix(1,0,0,-1,24.1563,67.8078)"/>
<path style="fill:none;stroke-width:1;stroke-linecap:butt;stroke-linejoin:miter;stroke:rgb(13.729858%,12.159729%,12.548828%);stroke-opacity:1;stroke-miterlimit:4;" d="M 0.00101875 -0.000325 L -48.655231 0.1403 " transform="matrix(1,0,0,-1,74.3232,36.6403)"/>
<path style=" stroke:none;fill-rule:nonzero;fill:rgb(96.403503%,78.808594%,42.222595%);fill-opacity:1;" d="M 26.824219 5.472656 C 26.824219 6.855469 25.703125 7.972656 24.324219 7.972656 C 22.941406 7.972656 21.824219 6.855469 21.824219 5.472656 C 21.824219 4.09375 22.941406 2.972656 24.324219 2.972656 C 25.703125 2.972656 26.824219 4.09375 26.824219 5.472656 "/>
<path style="fill:none;stroke-width:1;stroke-linecap:butt;stroke-linejoin:miter;stroke:rgb(13.729858%,12.159729%,12.548828%);stroke-opacity:1;stroke-miterlimit:4;" d="M 0.00101875 0.00164375 C 0.00101875 -1.381169 -1.120075 -2.498356 -2.498981 -2.498356 C -3.881794 -2.498356 -4.998981 -1.381169 -4.998981 0.00164375 C -4.998981 1.38055 -3.881794 2.501644 -2.498981 2.501644 C -1.120075 2.501644 0.00101875 1.38055 0.00101875 0.00164375 Z M 0.00101875 0.00164375 " transform="matrix(1,0,0,-1,26.8232,5.4743)"/>
<path style=" stroke:none;fill-rule:nonzero;fill:rgb(96.403503%,78.808594%,42.222595%);fill-opacity:1;" d="M 26.824219 36.640625 C 26.824219 38.023438 25.703125 39.140625 24.324219 39.140625 C 22.941406 39.140625 21.824219 38.023438 21.824219 36.640625 C 21.824219 35.261719 22.941406 34.140625 24.324219 34.140625 C 25.703125 34.140625 26.824219 35.261719 26.824219 36.640625 "/>
<path style="fill:none;stroke-width:1;stroke-linecap:butt;stroke-linejoin:miter;stroke:rgb(13.729858%,12.159729%,12.548828%);stroke-opacity:1;stroke-miterlimit:4;" d="M 0.00101875 0.000175 C 0.00101875 -1.382638 -1.120075 -2.499825 -2.498981 -2.499825 C -3.881794 -2.499825 -4.998981 -1.382638 -4.998981 0.000175 C -4.998981 1.379081 -3.881794 2.500175 -2.498981 2.500175 C -1.120075 2.500175 0.00101875 1.379081 0.00101875 0.000175 Z M 0.00101875 0.000175 " transform="matrix(1,0,0,-1,26.8232,36.6408)"/>
<path style=" stroke:none;fill-rule:nonzero;fill:rgb(96.403503%,78.808594%,42.222595%);fill-opacity:1;" d="M 26.65625 67.808594 C 26.65625 69.1875 25.539062 70.308594 24.15625 70.308594 C 22.773438 70.308594 21.65625 69.1875 21.65625 67.808594 C 21.65625 66.425781 22.773438 65.308594 24.15625 65.308594 C 25.539062 65.308594 26.65625 66.425781 26.65625 67.808594 "/>
<path style="fill:none;stroke-width:1;stroke-linecap:butt;stroke-linejoin:miter;stroke:rgb(13.729858%,12.159729%,12.548828%);stroke-opacity:1;stroke-miterlimit:4;" d="M -0.00005 -0.00079375 C -0.00005 -1.3797 -1.117238 -2.500794 -2.50005 -2.500794 C -3.882863 -2.500794 -5.00005 -1.3797 -5.00005 -0.00079375 C -5.00005 1.382019 -3.882863 2.499206 -2.50005 2.499206 C -1.117238 2.499206 -0.00005 1.382019 -0.00005 -0.00079375 Z M -0.00005 -0.00079375 " transform="matrix(1,0,0,-1,26.6563,67.8078)"/>
<path style=" stroke:none;fill-rule:nonzero;fill:rgb(96.403503%,78.808594%,42.222595%);fill-opacity:1;" d="M 76.824219 5.472656 C 76.824219 6.855469 75.703125 7.972656 74.324219 7.972656 C 72.941406 7.972656 71.824219 6.855469 71.824219 5.472656 C 71.824219 4.09375 72.941406 2.972656 74.324219 2.972656 C 75.703125 2.972656 76.824219 4.09375 76.824219 5.472656 "/>
<g clip-path="url(#clip3)" clip-rule="nonzero">
<path style="fill:none;stroke-width:1;stroke-linecap:butt;stroke-linejoin:miter;stroke:rgb(13.729858%,12.159729%,12.548828%);stroke-opacity:1;stroke-miterlimit:4;" d="M 0.00101875 0.00114375 C 0.00101875 -1.381669 -1.120075 -2.498856 -2.498981 -2.498856 C -3.881794 -2.498856 -4.998981 -1.381669 -4.998981 0.00114375 C -4.998981 1.38005 -3.881794 2.501144 -2.498981 2.501144 C -1.120075 2.501144 0.00101875 1.38005 0.00101875 0.00114375 Z M 0.00101875 0.00114375 " transform="matrix(1,0,0,-1,76.8232,5.4738)"/>
</g>
<path style=" stroke:none;fill-rule:nonzero;fill:rgb(96.403503%,78.808594%,42.222595%);fill-opacity:1;" d="M 76.824219 36.640625 C 76.824219 38.019531 75.703125 39.140625 74.324219 39.140625 C 72.941406 39.140625 71.824219 38.019531 71.824219 36.640625 C 71.824219 35.257812 72.941406 34.140625 74.324219 34.140625 C 75.703125 34.140625 76.824219 35.257812 76.824219 36.640625 "/>
<g clip-path="url(#clip4)" clip-rule="nonzero">
<path style="fill:none;stroke-width:1;stroke-linecap:butt;stroke-linejoin:miter;stroke:rgb(13.729858%,12.159729%,12.548828%);stroke-opacity:1;stroke-miterlimit:4;" d="M 0.00101875 -0.000325 C 0.00101875 -1.379231 -1.120075 -2.500325 -2.498981 -2.500325 C -3.881794 -2.500325 -4.998981 -1.379231 -4.998981 -0.000325 C -4.998981 1.382487 -3.881794 2.499675 -2.498981 2.499675 C -1.120075 2.499675 0.00101875 1.382487 0.00101875 -0.000325 Z M 0.00101875 -0.000325 " transform="matrix(1,0,0,-1,76.8232,36.6403)"/>
</g>
<path style=" stroke:none;fill-rule:nonzero;fill:rgb(96.403503%,78.808594%,42.222595%);fill-opacity:1;" d="M 76.65625 67.808594 C 76.65625 69.1875 75.539062 70.308594 74.15625 70.308594 C 72.773438 70.308594 71.65625 69.1875 71.65625 67.808594 C 71.65625 66.425781 72.773438 65.308594 74.15625 65.308594 C 75.539062 65.308594 76.65625 66.425781 76.65625 67.808594 "/>
<g clip-path="url(#clip5)" clip-rule="nonzero">
<path style="fill:none;stroke-width:1;stroke-linecap:butt;stroke-linejoin:miter;stroke:rgb(13.729858%,12.159729%,12.548828%);stroke-opacity:1;stroke-miterlimit:4;" d="M -0.00005 -0.00079375 C -0.00005 -1.3797 -1.117237 -2.500794 -2.50005 -2.500794 C -3.882862 -2.500794 -5.00005 -1.3797 -5.00005 -0.00079375 C -5.00005 1.382019 -3.882862 2.499206 -2.50005 2.499206 C -1.117237 2.499206 -0.00005 1.382019 -0.00005 -0.00079375 Z M -0.00005 -0.00079375 " transform="matrix(1,0,0,-1,76.6563,67.8078)"/>
</g>
</g>
</svg>
