<?xml version="1.0" encoding="UTF-8"?>
<svg xmlns="http://www.w3.org/2000/svg" xmlns:xlink="http://www.w3.org/1999/xlink" width="244.8pt" height="262.8pt" viewBox="0 0 244.8 262.8" version="1.1">
<defs>
<clipPath id="clip1">
  <path d="M 0 117 L 88 117 L 88 262.800781 L 0 262.800781 Z M 0 117 "/>
</clipPath>
<clipPath id="clip2">
  <path d="M 162 0 L 244.800781 0 L 244.800781 143 L 162 143 Z M 162 0 "/>
</clipPath>
<clipPath id="clip3">
  <path d="M 162 25 L 244.800781 25 L 244.800781 143 L 162 143 Z M 162 25 "/>
</clipPath>
<clipPath id="clip4">
  <path d="M 162 52 L 244.800781 52 L 244.800781 143 L 162 143 Z M 162 52 "/>
</clipPath>
<clipPath id="clip5">
  <path d="M 162 78 L 244.800781 78 L 244.800781 143 L 162 143 Z M 162 78 "/>
</clipPath>
<clipPath id="clip6">
  <path d="M 162 106 L 244.800781 106 L 244.800781 143 L 162 143 Z M 162 106 "/>
</clipPath>
<clipPath id="clip7">
  <path d="M 162 120 L 244.800781 120 L 244.800781 156 L 162 156 Z M 162 120 "/>
</clipPath>
<clipPath id="clip8">
  <path d="M 162 119 L 244.800781 119 L 244.800781 184 L 162 184 Z M 162 119 "/>
</clipPath>
<clipPath id="clip9">
  <path d="M 162 119 L 244.800781 119 L 244.800781 212 L 162 212 Z M 162 119 "/>
</clipPath>
<clipPath id="clip10">
  <path d="M 162 119 L 244.800781 119 L 244.800781 239 L 162 239 Z M 162 119 "/>
</clipPath>
<clipPath id="clip11">
  <path d="M 162 119 L 244.800781 119 L 244.800781 262.800781 L 162 262.800781 Z M 162 119 "/>
</clipPath>
<clipPath id="clip12">
  <path d="M 65 215 L 184 215 L 184 262.800781 L 65 262.800781 Z M 65 215 "/>
</clipPath>
<clipPath id="clip13">
  <path d="M 65 0 L 185 0 L 185 262.800781 L 65 262.800781 Z M 65 0 "/>
</clipPath>
<clipPath id="clip14">
  <path d="M 65 50 L 185 50 L 185 262.800781 L 65 262.800781 Z M 65 50 "/>
</clipPath>
<clipPath id="clip15">
  <path d="M 65 188 L 185 188 L 185 262.800781 L 65 262.800781 Z M 65 188 "/>
</clipPath>
<clipPath id="clip16">
  <path d="M 217 113 L 244.800781 113 L 244.800781 149 L 217 149 Z M 217 113 "/>
</clipPath>
<clipPath id="clip17">
  <path d="M 155 236 L 191 236 L 191 262.800781 L 155 262.800781 Z M 155 236 "/>
</clipPath>
<clipPath id="clip18">
  <path d="M 58 236 L 95 236 L 95 262.800781 L 58 262.800781 Z M 58 236 "/>
</clipPath>
</defs>
<g id="surface1">
<path style="fill:none;stroke-width:2;stroke-linecap:butt;stroke-linejoin:miter;stroke:rgb(92.939758%,10.978699%,14.118958%);stroke-opacity:1;stroke-miterlimit:4;" d="M -0.0014875 -0.0007375 L -66.411644 -120.336675 " transform="matrix(1,0,0,-1,77.0093,8.7727)"/>
<path style="fill:none;stroke-width:2;stroke-linecap:butt;stroke-linejoin:miter;stroke:rgb(92.939758%,10.978699%,14.118958%);stroke-opacity:1;stroke-miterlimit:4;" d="M -0.00094375 -0.001775 L 66.18265 93.111506 " transform="matrix(1,0,0,-1,10.5986,129.1076)"/>
<path style="fill:none;stroke-width:2;stroke-linecap:butt;stroke-linejoin:miter;stroke:rgb(13.729858%,12.159729%,12.548828%);stroke-opacity:1;stroke-miterlimit:4;" d="M -0.0005125 0.0016875 L -66.457544 -66.412375 " transform="matrix(1,0,0,-1,77.0552,62.697)"/>
<path style="fill:none;stroke-width:2;stroke-linecap:butt;stroke-linejoin:miter;stroke:rgb(92.939758%,10.978699%,14.118958%);stroke-opacity:1;stroke-miterlimit:4;" d="M -0.00094375 -0.001775 L 66.456087 39.435725 " transform="matrix(1,0,0,-1,10.5986,129.1076)"/>
<path style="fill:none;stroke-width:2;stroke-linecap:butt;stroke-linejoin:miter;stroke:rgb(13.729858%,12.159729%,12.548828%);stroke-opacity:1;stroke-miterlimit:4;" d="M 0.0004875 0.00023125 L -66.456544 -12.187269 " transform="matrix(1,0,0,-1,77.0542,116.9182)"/>
<path style="fill:none;stroke-width:2;stroke-linecap:butt;stroke-linejoin:miter;stroke:rgb(13.729858%,12.159729%,12.548828%);stroke-opacity:1;stroke-miterlimit:4;" d="M -0.00094375 -0.001775 L 66.456087 -14.786931 " transform="matrix(1,0,0,-1,10.5986,129.1076)"/>
<path style="fill:none;stroke-width:2;stroke-linecap:butt;stroke-linejoin:miter;stroke:rgb(92.939758%,10.978699%,14.118958%);stroke-opacity:1;stroke-miterlimit:4;" d="M 0.00148125 -0.001775 L -66.139144 42.064631 " transform="matrix(1,0,0,-1,76.7368,171.1701)"/>
<path style="fill:none;stroke-width:2;stroke-linecap:butt;stroke-linejoin:miter;stroke:rgb(92.939758%,10.978699%,14.118958%);stroke-opacity:1;stroke-miterlimit:4;" d="M -0.00094375 -0.001775 L 66.233431 -70.228338 " transform="matrix(1,0,0,-1,10.5986,129.1076)"/>
<path style="fill:none;stroke-width:2;stroke-linecap:butt;stroke-linejoin:miter;stroke:rgb(13.729858%,12.159729%,12.548828%);stroke-opacity:1;stroke-miterlimit:4;" d="M -0.0005 0.0012 L -65.902844 96.895731 " transform="matrix(1,0,0,-1,76.5005,226.0012)"/>
<g clip-path="url(#clip1)" clip-rule="nonzero">
<path style="fill:none;stroke-width:2;stroke-linecap:butt;stroke-linejoin:miter;stroke:rgb(92.939758%,10.978699%,14.118958%);stroke-opacity:1;stroke-miterlimit:4;" d="M -0.00094375 -0.001775 L 65.9014 -124.3924 " transform="matrix(1,0,0,-1,10.5986,129.1076)"/>
</g>
<g clip-path="url(#clip2)" clip-rule="nonzero">
<path style="fill:none;stroke-width:2;stroke-linecap:butt;stroke-linejoin:miter;stroke:rgb(92.939758%,10.978699%,14.118958%);stroke-opacity:1;stroke-miterlimit:4;" d="M -0.00095 0.00161875 L 62.366238 -121.842131 " transform="matrix(1,0,0,-1,174.2197,9.5524)"/>
</g>
<g clip-path="url(#clip3)" clip-rule="nonzero">
<path style="fill:none;stroke-width:2;stroke-linecap:butt;stroke-linejoin:miter;stroke:rgb(13.729858%,12.159729%,12.548828%);stroke-opacity:1;stroke-miterlimit:4;" d="M 0.00194375 -0.00083125 L -62.595713 94.620262 " transform="matrix(1,0,0,-1,236.5879,131.3937)"/>
</g>
<g clip-path="url(#clip4)" clip-rule="nonzero">
<path style="fill:none;stroke-width:2;stroke-linecap:butt;stroke-linejoin:miter;stroke:rgb(92.939758%,10.978699%,14.118958%);stroke-opacity:1;stroke-miterlimit:4;" d="M 0.000025 0.0002375 L 62.320338 -67.917731 " transform="matrix(1,0,0,-1,174.2656,63.4768)"/>
</g>
<g clip-path="url(#clip5)" clip-rule="nonzero">
<path style="fill:none;stroke-width:2;stroke-linecap:butt;stroke-linejoin:miter;stroke:rgb(92.939758%,10.978699%,14.118958%);stroke-opacity:1;stroke-miterlimit:4;" d="M 0.00194375 -0.00083125 L -62.544931 41.948387 " transform="matrix(1,0,0,-1,236.5879,131.3937)"/>
</g>
<g clip-path="url(#clip6)" clip-rule="nonzero">
<path style="fill:none;stroke-width:2;stroke-linecap:butt;stroke-linejoin:miter;stroke:rgb(92.939758%,10.978699%,14.118958%);stroke-opacity:1;stroke-miterlimit:4;" d="M 0.001025 -0.00131875 L 62.321338 -13.696631 " transform="matrix(1,0,0,-1,174.2646,117.6979)"/>
</g>
<g clip-path="url(#clip7)" clip-rule="nonzero">
<path style="fill:none;stroke-width:2;stroke-linecap:butt;stroke-linejoin:miter;stroke:rgb(13.729858%,12.159729%,12.548828%);stroke-opacity:1;stroke-miterlimit:4;" d="M 0.00194375 -0.00083125 L -62.322275 -13.278175 " transform="matrix(1,0,0,-1,236.5879,131.3937)"/>
</g>
<g clip-path="url(#clip8)" clip-rule="nonzero">
<path style="fill:none;stroke-width:2;stroke-linecap:butt;stroke-linejoin:miter;stroke:rgb(13.729858%,12.159729%,12.548828%);stroke-opacity:1;stroke-miterlimit:4;" d="M 0.00191875 0.00018125 L 61.595669 41.000181 " transform="matrix(1,0,0,-1,173.9473,171.9494)"/>
</g>
<g clip-path="url(#clip9)" clip-rule="nonzero">
<path style="fill:none;stroke-width:2;stroke-linecap:butt;stroke-linejoin:miter;stroke:rgb(92.939758%,10.978699%,14.118958%);stroke-opacity:1;stroke-miterlimit:4;" d="M -0.00093125 0.0016875 L -61.500931 -69.166281 " transform="matrix(1,0,0,-1,235.5439,130.947)"/>
</g>
<g clip-path="url(#clip10)" clip-rule="nonzero">
<path style="fill:none;stroke-width:2;stroke-linecap:butt;stroke-linejoin:miter;stroke:rgb(92.939758%,10.978699%,14.118958%);stroke-opacity:1;stroke-miterlimit:4;" d="M 0.0000375 0.00015 L 61.832069 95.832181 " transform="matrix(1,0,0,-1,173.7109,226.7814)"/>
</g>
<g clip-path="url(#clip11)" clip-rule="nonzero">
<path style="fill:none;stroke-width:2;stroke-linecap:butt;stroke-linejoin:miter;stroke:rgb(13.729858%,12.159729%,12.548828%);stroke-opacity:1;stroke-miterlimit:4;" d="M -0.00093125 0.0016875 L -61.832962 -123.33425 " transform="matrix(1,0,0,-1,235.5439,130.947)"/>
</g>
<path style="fill:none;stroke-width:2;stroke-linecap:butt;stroke-linejoin:miter;stroke:rgb(13.729858%,12.159729%,12.548828%);stroke-opacity:1;stroke-miterlimit:4;" d="M -0.00145 -0.00179375 L 96.439956 -27.03695 " transform="matrix(1,0,0,-1,76.7827,35.9943)"/>
<path style="fill:none;stroke-width:2;stroke-linecap:butt;stroke-linejoin:miter;stroke:rgb(13.729858%,12.159729%,12.548828%);stroke-opacity:1;stroke-miterlimit:4;" d="M -0.0005125 0.000225 L 95.612769 -136.663837 " transform="matrix(1,0,0,-1,77.0552,89.6721)"/>
<path style="fill:none;stroke-width:2;stroke-linecap:butt;stroke-linejoin:miter;stroke:rgb(13.729858%,12.159729%,12.548828%);stroke-opacity:1;stroke-miterlimit:4;" d="M 0.0004875 0.00023125 L 95.613769 -109.417738 " transform="matrix(1,0,0,-1,77.0542,116.9182)"/>
<path style="fill:none;stroke-width:2;stroke-linecap:butt;stroke-linejoin:miter;stroke:rgb(13.729858%,12.159729%,12.548828%);stroke-opacity:1;stroke-miterlimit:4;" d="M -0.0005125 0.00016875 L 95.9448 54.8947 " transform="matrix(1,0,0,-1,77.0552,143.8947)"/>
<path style="fill:none;stroke-width:2;stroke-linecap:butt;stroke-linejoin:miter;stroke:rgb(13.729858%,12.159729%,12.548828%);stroke-opacity:1;stroke-miterlimit:4;" d="M -0.0005125 0.00016875 L 97.4448 27.8947 " transform="matrix(1,0,0,-1,77.0552,143.8947)"/>
<path style="fill:none;stroke-width:2;stroke-linecap:butt;stroke-linejoin:miter;stroke:rgb(13.729858%,12.159729%,12.548828%);stroke-opacity:1;stroke-miterlimit:4;" d="M -0.0005125 0.00016875 L 95.9448 -84.1053 " transform="matrix(1,0,0,-1,77.0552,143.8947)"/>
<path style="fill:none;stroke-width:2;stroke-linecap:butt;stroke-linejoin:miter;stroke:rgb(13.729858%,12.159729%,12.548828%);stroke-opacity:1;stroke-miterlimit:4;" d="M -0.00195 0.0012 L -96.482419 -53.920675 " transform="matrix(1,0,0,-1,173.2207,117.2512)"/>
<path style="fill:none;stroke-width:2;stroke-linecap:butt;stroke-linejoin:miter;stroke:rgb(13.729858%,12.159729%,12.548828%);stroke-opacity:1;stroke-miterlimit:4;" d="M 0.00148125 -0.001775 L 96.2632 -56.8299 " transform="matrix(1,0,0,-1,76.7368,171.1701)"/>
<path style="fill:none;stroke-width:2;stroke-linecap:butt;stroke-linejoin:miter;stroke:rgb(13.729858%,12.159729%,12.548828%);stroke-opacity:1;stroke-miterlimit:4;" d="M 0.00148125 -0.001775 L 96.7632 163.6701 " transform="matrix(1,0,0,-1,76.7368,171.1701)"/>
<path style="fill:none;stroke-width:2;stroke-linecap:butt;stroke-linejoin:miter;stroke:rgb(13.729858%,12.159729%,12.548828%);stroke-opacity:1;stroke-miterlimit:4;" d="M 0.00001875 -0.000825 L -96.210919 -134.844575 " transform="matrix(1,0,0,-1,172.9492,36.3273)"/>
<path style="fill:none;stroke-width:2;stroke-linecap:butt;stroke-linejoin:miter;stroke:rgb(13.729858%,12.159729%,12.548828%);stroke-opacity:1;stroke-miterlimit:4;" d="M 0.00148125 -0.001775 L 96.2632 109.1701 " transform="matrix(1,0,0,-1,76.7368,171.1701)"/>
<g clip-path="url(#clip12)" clip-rule="nonzero">
<path style="fill:none;stroke-width:2;stroke-linecap:butt;stroke-linejoin:miter;stroke:rgb(13.729858%,12.159729%,12.548828%);stroke-opacity:1;stroke-miterlimit:4;" d="M -0.0005 0.0012 L 96.167469 27.165263 " transform="matrix(1,0,0,-1,76.5005,253.5012)"/>
</g>
<g clip-path="url(#clip13)" clip-rule="nonzero">
<path style="fill:none;stroke-width:2;stroke-linecap:butt;stroke-linejoin:miter;stroke:rgb(13.729858%,12.159729%,12.548828%);stroke-opacity:1;stroke-miterlimit:4;" d="M -0.0005 0.0012 L 96.9995 246.0012 " transform="matrix(1,0,0,-1,76.5005,253.5012)"/>
</g>
<g clip-path="url(#clip14)" clip-rule="nonzero">
<path style="fill:none;stroke-width:2;stroke-linecap:butt;stroke-linejoin:miter;stroke:rgb(13.729858%,12.159729%,12.548828%);stroke-opacity:1;stroke-miterlimit:4;" d="M -0.0005 0.0012 L 96.4995 191.5012 " transform="matrix(1,0,0,-1,76.5005,253.5012)"/>
</g>
<path style="fill:none;stroke-width:2;stroke-linecap:butt;stroke-linejoin:miter;stroke:rgb(13.729858%,12.159729%,12.548828%);stroke-opacity:1;stroke-miterlimit:4;" d="M -0.0005125 0.000225 L 96.167456 26.64085 " transform="matrix(1,0,0,-1,77.0552,89.6721)"/>
<path style="fill:none;stroke-width:2;stroke-linecap:butt;stroke-linejoin:miter;stroke:rgb(13.729858%,12.159729%,12.548828%);stroke-opacity:1;stroke-miterlimit:4;" d="M -0.0005125 0.00016875 L 96.167456 80.86345 " transform="matrix(1,0,0,-1,77.0552,143.8947)"/>
<path style="fill:none;stroke-width:2;stroke-linecap:butt;stroke-linejoin:miter;stroke:rgb(92.939758%,10.978699%,14.118958%);stroke-opacity:1;stroke-miterlimit:4;" d="M -0.0014875 -0.0007375 L 95.9907 -55.7273 " transform="matrix(1,0,0,-1,77.0093,8.7727)"/>
<path style="fill:none;stroke-width:2;stroke-linecap:butt;stroke-linejoin:miter;stroke:rgb(92.939758%,10.978699%,14.118958%);stroke-opacity:1;stroke-miterlimit:4;" d="M -0.00145 -0.00179375 L 96.7173 28.4943 " transform="matrix(1,0,0,-1,76.7827,35.9943)"/>
<path style="fill:none;stroke-width:2;stroke-linecap:butt;stroke-linejoin:miter;stroke:rgb(92.939758%,10.978699%,14.118958%);stroke-opacity:1;stroke-miterlimit:4;" d="M -0.0005125 0.000225 L 95.4448 -28.8279 " transform="matrix(1,0,0,-1,77.0552,89.6721)"/>
<path style="fill:none;stroke-width:2;stroke-linecap:butt;stroke-linejoin:miter;stroke:rgb(13.729858%,12.159729%,12.548828%);stroke-opacity:1;stroke-miterlimit:4;" d="M 0.0004875 0.00023125 L 96.168456 53.88695 " transform="matrix(1,0,0,-1,77.0542,116.9182)"/>
<path style="fill:none;stroke-width:2;stroke-linecap:butt;stroke-linejoin:miter;stroke:rgb(92.939758%,10.978699%,14.118958%);stroke-opacity:1;stroke-miterlimit:4;" d="M 0.00148125 -0.001775 L 96.485856 81.166194 " transform="matrix(1,0,0,-1,76.7368,171.1701)"/>
<path style="fill:none;stroke-width:2;stroke-linecap:butt;stroke-linejoin:miter;stroke:rgb(92.939758%,10.978699%,14.118958%);stroke-opacity:1;stroke-miterlimit:4;" d="M -0.00146875 -0.0017375 L 96.1665 -28.6658 " transform="matrix(1,0,0,-1,76.8335,199.3342)"/>
<g clip-path="url(#clip15)" clip-rule="nonzero">
<path style="fill:none;stroke-width:2;stroke-linecap:butt;stroke-linejoin:miter;stroke:rgb(92.939758%,10.978699%,14.118958%);stroke-opacity:1;stroke-miterlimit:4;" d="M -0.0005 0.0012 L 96.4995 53.833231 " transform="matrix(1,0,0,-1,76.5005,253.5012)"/>
</g>
<path style=" stroke:none;fill-rule:nonzero;fill:rgb(96.403503%,78.808594%,42.222595%);fill-opacity:1;" d="M 16.839844 129.109375 C 16.839844 125.703125 14.042969 122.945312 10.601562 122.945312 C 7.152344 122.945312 4.359375 125.703125 4.359375 129.109375 C 4.359375 132.507812 7.152344 135.273438 10.601562 135.273438 C 14.042969 135.273438 16.839844 132.507812 16.839844 129.109375 "/>
<path style="fill:none;stroke-width:2;stroke-linecap:butt;stroke-linejoin:miter;stroke:rgb(13.729858%,12.159729%,12.548828%);stroke-opacity:1;stroke-miterlimit:4;" d="M 0.00194375 -0.001775 C 0.00194375 3.404475 -2.794931 6.162287 -6.236338 6.162287 C -9.685556 6.162287 -12.478525 3.404475 -12.478525 -0.001775 C -12.478525 -3.400213 -9.685556 -6.165838 -6.236338 -6.165838 C -2.794931 -6.165838 0.00194375 -3.400213 0.00194375 -0.001775 Z M 0.00194375 -0.001775 " transform="matrix(1,0,0,-1,16.8379,129.1076)"/>
<path style=" stroke:none;fill-rule:nonzero;fill:rgb(96.403503%,78.808594%,42.222595%);fill-opacity:1;" d="M 83.292969 62.695312 C 83.292969 59.292969 80.5 56.53125 77.054688 56.53125 C 73.609375 56.53125 70.816406 59.292969 70.816406 62.695312 C 70.816406 66.097656 73.609375 68.859375 77.054688 68.859375 C 80.5 68.859375 83.292969 66.097656 83.292969 62.695312 "/>
<path style="fill:none;stroke-width:2;stroke-linecap:butt;stroke-linejoin:miter;stroke:rgb(13.729858%,12.159729%,12.548828%);stroke-opacity:1;stroke-miterlimit:4;" d="M -0.00143125 0.0016875 C -0.00143125 3.404031 -2.7944 6.16575 -6.239713 6.16575 C -9.685025 6.16575 -12.477994 3.404031 -12.477994 0.0016875 C -12.477994 -3.400656 -9.685025 -6.162375 -6.239713 -6.162375 C -2.7944 -6.162375 -0.00143125 -3.400656 -0.00143125 0.0016875 Z M -0.00143125 0.0016875 " transform="matrix(1,0,0,-1,83.2944,62.697)"/>
<path style=" stroke:none;fill-rule:nonzero;fill:rgb(96.403503%,78.808594%,42.222595%);fill-opacity:1;" d="M 82.976562 171.171875 C 82.976562 167.765625 80.183594 165.007812 76.738281 165.007812 C 73.289062 165.007812 70.496094 167.765625 70.496094 171.171875 C 70.496094 174.570312 73.289062 177.335938 76.738281 177.335938 C 80.183594 177.335938 82.976562 174.570312 82.976562 171.171875 "/>
<path style="fill:none;stroke-width:2;stroke-linecap:butt;stroke-linejoin:miter;stroke:rgb(13.729858%,12.159729%,12.548828%);stroke-opacity:1;stroke-miterlimit:4;" d="M 0.0004625 -0.001775 C 0.0004625 3.404475 -2.792506 6.162288 -6.237819 6.162288 C -9.687038 6.162288 -12.480006 3.404475 -12.480006 -0.001775 C -12.480006 -3.400212 -9.687038 -6.165837 -6.237819 -6.165837 C -2.792506 -6.165837 0.0004625 -3.400212 0.0004625 -0.001775 Z M 0.0004625 -0.001775 " transform="matrix(1,0,0,-1,82.9761,171.1701)"/>
<path style=" stroke:none;fill-rule:nonzero;fill:rgb(96.403503%,78.808594%,42.222595%);fill-opacity:1;" d="M 83.292969 89.671875 C 83.292969 86.269531 80.5 83.507812 77.054688 83.507812 C 73.609375 83.507812 70.816406 86.269531 70.816406 89.671875 C 70.816406 93.074219 73.609375 95.835938 77.054688 95.835938 C 80.5 95.835938 83.292969 93.074219 83.292969 89.671875 "/>
<path style="fill:none;stroke-width:2;stroke-linecap:butt;stroke-linejoin:miter;stroke:rgb(13.729858%,12.159729%,12.548828%);stroke-opacity:1;stroke-miterlimit:4;" d="M -0.00143125 0.000225 C -0.00143125 3.402569 -2.7944 6.164288 -6.239713 6.164288 C -9.685025 6.164288 -12.477994 3.402569 -12.477994 0.000225 C -12.477994 -3.402119 -9.685025 -6.163837 -6.239713 -6.163837 C -2.7944 -6.163837 -0.00143125 -3.402119 -0.00143125 0.000225 Z M -0.00143125 0.000225 " transform="matrix(1,0,0,-1,83.2944,89.6721)"/>
<path style=" stroke:none;fill-rule:nonzero;fill:rgb(96.403503%,78.808594%,42.222595%);fill-opacity:1;" d="M 83.25 8.773438 C 83.25 5.367188 80.457031 2.609375 77.011719 2.609375 C 73.5625 2.609375 70.769531 5.367188 70.769531 8.773438 C 70.769531 12.175781 73.5625 14.9375 77.011719 14.9375 C 80.457031 14.9375 83.25 12.175781 83.25 8.773438 "/>
<path style="fill:none;stroke-width:2;stroke-linecap:butt;stroke-linejoin:miter;stroke:rgb(13.729858%,12.159729%,12.548828%);stroke-opacity:1;stroke-miterlimit:4;" d="M 0.0015 -0.0007375 C 0.0015 3.405512 -2.791469 6.163325 -6.236781 6.163325 C -9.686 6.163325 -12.478969 3.405512 -12.478969 -0.0007375 C -12.478969 -3.403081 -9.686 -6.1648 -6.236781 -6.1648 C -2.791469 -6.1648 0.0015 -3.403081 0.0015 -0.0007375 Z M 0.0015 -0.0007375 " transform="matrix(1,0,0,-1,83.2485,8.7727)"/>
<path style=" stroke:none;fill-rule:nonzero;fill:rgb(96.403503%,78.808594%,42.222595%);fill-opacity:1;" d="M 83.023438 35.996094 C 83.023438 32.589844 80.230469 29.832031 76.785156 29.832031 C 73.335938 29.832031 70.542969 32.589844 70.542969 35.996094 C 70.542969 39.394531 73.335938 42.160156 76.785156 42.160156 C 80.230469 42.160156 83.023438 39.394531 83.023438 35.996094 "/>
<path style="fill:none;stroke-width:2;stroke-linecap:butt;stroke-linejoin:miter;stroke:rgb(13.729858%,12.159729%,12.548828%);stroke-opacity:1;stroke-miterlimit:4;" d="M 0.0014375 -0.00179375 C 0.0014375 3.404456 -2.791531 6.162269 -6.236844 6.162269 C -9.686062 6.162269 -12.479031 3.404456 -12.479031 -0.00179375 C -12.479031 -3.400231 -9.686062 -6.165856 -6.236844 -6.165856 C -2.791531 -6.165856 0.0014375 -3.400231 0.0014375 -0.00179375 Z M 0.0014375 -0.00179375 " transform="matrix(1,0,0,-1,83.022,35.9943)"/>
<path style=" stroke:none;fill-rule:nonzero;fill:rgb(96.403503%,78.808594%,42.222595%);fill-opacity:1;" d="M 83.292969 116.917969 C 83.292969 113.515625 80.5 110.753906 77.054688 110.753906 C 73.609375 110.753906 70.816406 113.515625 70.816406 116.917969 C 70.816406 120.320312 73.609375 123.082031 77.054688 123.082031 C 80.5 123.082031 83.292969 120.320312 83.292969 116.917969 "/>
<path style="fill:none;stroke-width:2;stroke-linecap:butt;stroke-linejoin:miter;stroke:rgb(13.729858%,12.159729%,12.548828%);stroke-opacity:1;stroke-miterlimit:4;" d="M -0.00053125 0.00023125 C -0.00053125 3.402575 -2.7935 6.164294 -6.238813 6.164294 C -9.684125 6.164294 -12.477094 3.402575 -12.477094 0.00023125 C -12.477094 -3.402113 -9.684125 -6.163831 -6.238813 -6.163831 C -2.7935 -6.163831 -0.00053125 -3.402113 -0.00053125 0.00023125 Z M -0.00053125 0.00023125 " transform="matrix(1,0,0,-1,83.2935,116.9182)"/>
<path style=" stroke:none;fill-rule:nonzero;fill:rgb(96.403503%,78.808594%,42.222595%);fill-opacity:1;" d="M 83.292969 143.894531 C 83.292969 140.492188 80.5 137.730469 77.054688 137.730469 C 73.609375 137.730469 70.816406 140.492188 70.816406 143.894531 C 70.816406 147.296875 73.609375 150.058594 77.054688 150.058594 C 80.5 150.058594 83.292969 147.296875 83.292969 143.894531 "/>
<path style="fill:none;stroke-width:2;stroke-linecap:butt;stroke-linejoin:miter;stroke:rgb(13.729858%,12.159729%,12.548828%);stroke-opacity:1;stroke-miterlimit:4;" d="M -0.00143125 0.00016875 C -0.00143125 3.402513 -2.7944 6.164231 -6.239713 6.164231 C -9.685025 6.164231 -12.477994 3.402513 -12.477994 0.00016875 C -12.477994 -3.402175 -9.685025 -6.163894 -6.239713 -6.163894 C -2.7944 -6.163894 -0.00143125 -3.402175 -0.00143125 0.00016875 Z M -0.00143125 0.00016875 " transform="matrix(1,0,0,-1,83.2944,143.8947)"/>
<path style=" stroke:none;fill-rule:nonzero;fill:rgb(96.403503%,78.808594%,42.222595%);fill-opacity:1;" d="M 83.074219 199.335938 C 83.074219 195.929688 80.28125 193.171875 76.835938 193.171875 C 73.386719 193.171875 70.59375 195.929688 70.59375 199.335938 C 70.59375 202.734375 73.386719 205.5 76.835938 205.5 C 80.28125 205.5 83.074219 202.734375 83.074219 199.335938 "/>
<path style="fill:none;stroke-width:2;stroke-linecap:butt;stroke-linejoin:miter;stroke:rgb(13.729858%,12.159729%,12.548828%);stroke-opacity:1;stroke-miterlimit:4;" d="M 0.00141875 -0.0017375 C 0.00141875 3.404513 -2.79155 6.162325 -6.236862 6.162325 C -9.686081 6.162325 -12.47905 3.404513 -12.47905 -0.0017375 C -12.47905 -3.400175 -9.686081 -6.1658 -6.236862 -6.1658 C -2.79155 -6.1658 0.00141875 -3.400175 0.00141875 -0.0017375 Z M 0.00141875 -0.0017375 " transform="matrix(1,0,0,-1,83.0728,199.3342)"/>
<path style=" stroke:none;fill-rule:nonzero;fill:rgb(96.403503%,78.808594%,42.222595%);fill-opacity:1;" d="M 82.738281 226 C 82.738281 222.597656 79.945312 219.835938 76.5 219.835938 C 73.054688 219.835938 70.261719 222.597656 70.261719 226 C 70.261719 229.402344 73.054688 232.164062 76.5 232.164062 C 79.945312 232.164062 82.738281 229.402344 82.738281 226 "/>
<path style="fill:none;stroke-width:2;stroke-linecap:butt;stroke-linejoin:miter;stroke:rgb(13.729858%,12.159729%,12.548828%);stroke-opacity:1;stroke-miterlimit:4;" d="M -0.00141875 0.0012 C -0.00141875 3.403544 -2.794387 6.165263 -6.2397 6.165263 C -9.685012 6.165263 -12.477981 3.403544 -12.477981 0.0012 C -12.477981 -3.401144 -9.685012 -6.162862 -6.2397 -6.162862 C -2.794387 -6.162862 -0.00141875 -3.401144 -0.00141875 0.0012 Z M -0.00141875 0.0012 " transform="matrix(1,0,0,-1,82.7397,226.0012)"/>
<path style=" stroke:none;fill-rule:nonzero;fill:rgb(96.403503%,78.808594%,42.222595%);fill-opacity:1;" d="M 241.78125 130.945312 C 241.78125 127.542969 238.988281 124.78125 235.546875 124.78125 C 232.097656 124.78125 229.304688 127.542969 229.304688 130.945312 C 229.304688 134.347656 232.097656 137.113281 235.546875 137.113281 C 238.988281 137.113281 241.78125 134.347656 241.78125 130.945312 "/>
<g clip-path="url(#clip16)" clip-rule="nonzero">
<path style="fill:none;stroke-width:2;stroke-linecap:butt;stroke-linejoin:miter;stroke:rgb(13.729858%,12.159729%,12.548828%);stroke-opacity:1;stroke-miterlimit:4;" d="M -0.00195 0.0011875 C -0.00195 3.403531 -2.794919 6.16525 -6.236325 6.16525 C -9.685544 6.16525 -12.478512 3.403531 -12.478512 0.0011875 C -12.478512 -3.401156 -9.685544 -6.166781 -6.236325 -6.166781 C -2.794919 -6.166781 -0.00195 -3.401156 -0.00195 0.0011875 Z M -0.00195 0.0011875 " transform="matrix(1,0,0,-1,241.7832,130.9465)"/>
</g>
<path style=" stroke:none;fill-rule:nonzero;fill:rgb(96.403503%,78.808594%,42.222595%);fill-opacity:1;" d="M 179.460938 63.03125 C 179.460938 59.625 176.667969 56.867188 173.222656 56.867188 C 169.773438 56.867188 166.980469 59.625 166.980469 63.03125 C 166.980469 66.433594 169.773438 69.195312 173.222656 69.195312 C 176.667969 69.195312 179.460938 66.433594 179.460938 63.03125 "/>
<path style="fill:none;stroke-width:2;stroke-linecap:butt;stroke-linejoin:miter;stroke:rgb(13.729858%,12.159729%,12.548828%);stroke-opacity:1;stroke-miterlimit:4;" d="M 0.0000375 -0.00125 C 0.0000375 3.405 -2.792931 6.162813 -6.238244 6.162813 C -9.687463 6.162813 -12.480431 3.405 -12.480431 -0.00125 C -12.480431 -3.403594 -9.687463 -6.165312 -6.238244 -6.165312 C -2.792931 -6.165312 0.0000375 -3.403594 0.0000375 -0.00125 Z M 0.0000375 -0.00125 " transform="matrix(1,0,0,-1,179.4609,63.03)"/>
<path style=" stroke:none;fill-rule:nonzero;fill:rgb(96.403503%,78.808594%,42.222595%);fill-opacity:1;" d="M 179.144531 171.503906 C 179.144531 168.097656 176.347656 165.339844 172.90625 165.339844 C 169.457031 165.339844 166.664062 168.097656 166.664062 171.503906 C 166.664062 174.90625 169.457031 177.667969 172.90625 177.667969 C 176.347656 177.667969 179.144531 174.90625 179.144531 171.503906 "/>
<path style="fill:none;stroke-width:2;stroke-linecap:butt;stroke-linejoin:miter;stroke:rgb(13.729858%,12.159729%,12.548828%);stroke-opacity:1;stroke-miterlimit:4;" d="M 0.00193125 -0.00080625 C 0.00193125 3.405444 -2.794944 6.163256 -6.23635 6.163256 C -9.685569 6.163256 -12.478537 3.405444 -12.478537 -0.00080625 C -12.478537 -3.40315 -9.685569 -6.164869 -6.23635 -6.164869 C -2.794944 -6.164869 0.00193125 -3.40315 0.00193125 -0.00080625 Z M 0.00193125 -0.00080625 " transform="matrix(1,0,0,-1,179.1426,171.5031)"/>
<path style=" stroke:none;fill-rule:nonzero;fill:rgb(96.403503%,78.808594%,42.222595%);fill-opacity:1;" d="M 179.460938 90.003906 C 179.460938 86.601562 176.667969 83.839844 173.222656 83.839844 C 169.773438 83.839844 166.980469 86.601562 166.980469 90.003906 C 166.980469 93.40625 169.773438 96.167969 173.222656 96.167969 C 176.667969 96.167969 179.460938 93.40625 179.460938 90.003906 "/>
<path style="fill:none;stroke-width:2;stroke-linecap:butt;stroke-linejoin:miter;stroke:rgb(13.729858%,12.159729%,12.548828%);stroke-opacity:1;stroke-miterlimit:4;" d="M 0.0000375 0.00119375 C 0.0000375 3.403538 -2.792931 6.165256 -6.238244 6.165256 C -9.687463 6.165256 -12.480431 3.403538 -12.480431 0.00119375 C -12.480431 -3.40115 -9.687463 -6.162869 -6.238244 -6.162869 C -2.792931 -6.162869 0.0000375 -3.40115 0.0000375 0.00119375 Z M 0.0000375 0.00119375 " transform="matrix(1,0,0,-1,179.4609,90.0051)"/>
<path style=" stroke:none;fill-rule:nonzero;fill:rgb(96.403503%,78.808594%,42.222595%);fill-opacity:1;" d="M 179.414062 9.105469 C 179.414062 5.703125 176.621094 2.941406 173.175781 2.941406 C 169.730469 2.941406 166.9375 5.703125 166.9375 9.105469 C 166.9375 12.507812 169.730469 15.269531 173.175781 15.269531 C 176.621094 15.269531 179.414062 12.507812 179.414062 9.105469 "/>
<path style="fill:none;stroke-width:2;stroke-linecap:butt;stroke-linejoin:miter;stroke:rgb(13.729858%,12.159729%,12.548828%);stroke-opacity:1;stroke-miterlimit:4;" d="M -0.0009375 0.00023125 C -0.0009375 3.402575 -2.793906 6.164294 -6.239219 6.164294 C -9.684531 6.164294 -12.4775 3.402575 -12.4775 0.00023125 C -12.4775 -3.402112 -9.684531 -6.163831 -6.239219 -6.163831 C -2.793906 -6.163831 -0.0009375 -3.402112 -0.0009375 0.00023125 Z M -0.0009375 0.00023125 " transform="matrix(1,0,0,-1,179.415,9.1057)"/>
<path style=" stroke:none;fill-rule:nonzero;fill:rgb(96.403503%,78.808594%,42.222595%);fill-opacity:1;" d="M 179.1875 36.328125 C 179.1875 32.921875 176.394531 30.164062 172.949219 30.164062 C 169.503906 30.164062 166.710938 32.921875 166.710938 36.328125 C 166.710938 39.730469 169.503906 42.492188 172.949219 42.492188 C 176.394531 42.492188 179.1875 39.730469 179.1875 36.328125 "/>
<path style="fill:none;stroke-width:2;stroke-linecap:butt;stroke-linejoin:miter;stroke:rgb(13.729858%,12.159729%,12.548828%);stroke-opacity:1;stroke-miterlimit:4;" d="M -0.001 -0.000825 C -0.001 3.405425 -2.793969 6.163238 -6.239281 6.163238 C -9.684594 6.163238 -12.477563 3.405425 -12.477563 -0.000825 C -12.477563 -3.403169 -9.684594 -6.164887 -6.239281 -6.164887 C -2.793969 -6.164887 -0.001 -3.403169 -0.001 -0.000825 Z M -0.001 -0.000825 " transform="matrix(1,0,0,-1,179.1885,36.3273)"/>
<path style=" stroke:none;fill-rule:nonzero;fill:rgb(96.403503%,78.808594%,42.222595%);fill-opacity:1;" d="M 179.460938 117.25 C 179.460938 113.847656 176.667969 111.085938 173.222656 111.085938 C 169.773438 111.085938 166.980469 113.847656 166.980469 117.25 C 166.980469 120.652344 169.773438 123.414062 173.222656 123.414062 C 176.667969 123.414062 179.460938 120.652344 179.460938 117.25 "/>
<path style="fill:none;stroke-width:2;stroke-linecap:butt;stroke-linejoin:miter;stroke:rgb(13.729858%,12.159729%,12.548828%);stroke-opacity:1;stroke-miterlimit:4;" d="M 0.0009375 0.0012 C 0.0009375 3.403544 -2.792031 6.165263 -6.237344 6.165263 C -9.686563 6.165263 -12.479531 3.403544 -12.479531 0.0012 C -12.479531 -3.401144 -9.686563 -6.162862 -6.237344 -6.162862 C -2.792031 -6.162862 0.0009375 -3.401144 0.0009375 0.0012 Z M 0.0009375 0.0012 " transform="matrix(1,0,0,-1,179.46,117.2512)"/>
<path style=" stroke:none;fill-rule:nonzero;fill:rgb(96.403503%,78.808594%,42.222595%);fill-opacity:1;" d="M 179.460938 144.226562 C 179.460938 140.824219 176.667969 138.0625 173.222656 138.0625 C 169.773438 138.0625 166.980469 140.824219 166.980469 144.226562 C 166.980469 147.628906 169.773438 150.390625 173.222656 150.390625 C 176.667969 150.390625 179.460938 147.628906 179.460938 144.226562 "/>
<path style="fill:none;stroke-width:2;stroke-linecap:butt;stroke-linejoin:miter;stroke:rgb(13.729858%,12.159729%,12.548828%);stroke-opacity:1;stroke-miterlimit:4;" d="M 0.0000375 0.0011375 C 0.0000375 3.403481 -2.792931 6.1652 -6.238244 6.1652 C -9.687463 6.1652 -12.480431 3.403481 -12.480431 0.0011375 C -12.480431 -3.401206 -9.687463 -6.162925 -6.238244 -6.162925 C -2.792931 -6.162925 0.0000375 -3.401206 0.0000375 0.0011375 Z M 0.0000375 0.0011375 " transform="matrix(1,0,0,-1,179.4609,144.2277)"/>
<path style=" stroke:none;fill-rule:nonzero;fill:rgb(96.403503%,78.808594%,42.222595%);fill-opacity:1;" d="M 179.238281 199.667969 C 179.238281 196.261719 176.445312 193.503906 173 193.503906 C 169.554688 193.503906 166.761719 196.261719 166.761719 199.667969 C 166.761719 203.070312 169.554688 205.832031 173 205.832031 C 176.445312 205.832031 179.238281 203.070312 179.238281 199.667969 "/>
<path style="fill:none;stroke-width:2;stroke-linecap:butt;stroke-linejoin:miter;stroke:rgb(13.729858%,12.159729%,12.548828%);stroke-opacity:1;stroke-miterlimit:4;" d="M -0.00101875 -0.00076875 C -0.00101875 3.405481 -2.793987 6.163294 -6.2393 6.163294 C -9.684612 6.163294 -12.477581 3.405481 -12.477581 -0.00076875 C -12.477581 -3.403112 -9.684612 -6.164831 -6.2393 -6.164831 C -2.793987 -6.164831 -0.00101875 -3.403112 -0.00101875 -0.00076875 Z M -0.00101875 -0.00076875 " transform="matrix(1,0,0,-1,179.2393,199.6672)"/>
<path style=" stroke:none;fill-rule:nonzero;fill:rgb(96.403503%,78.808594%,42.222595%);fill-opacity:1;" d="M 178.90625 226.335938 C 178.90625 222.929688 176.113281 220.171875 172.667969 220.171875 C 169.21875 220.171875 166.425781 222.929688 166.425781 226.335938 C 166.425781 229.734375 169.21875 232.5 172.667969 232.5 C 176.113281 232.5 178.90625 229.734375 178.90625 226.335938 "/>
<path style="fill:none;stroke-width:2;stroke-linecap:butt;stroke-linejoin:miter;stroke:rgb(13.729858%,12.159729%,12.548828%);stroke-opacity:1;stroke-miterlimit:4;" d="M -0.00005 -0.0017375 C -0.00005 3.404513 -2.793019 6.162325 -6.238331 6.162325 C -9.68755 6.162325 -12.480519 3.404513 -12.480519 -0.0017375 C -12.480519 -3.400175 -9.68755 -6.1658 -6.238331 -6.1658 C -2.793019 -6.1658 -0.00005 -3.400175 -0.00005 -0.0017375 Z M -0.00005 -0.0017375 " transform="matrix(1,0,0,-1,178.9063,226.3342)"/>
<path style=" stroke:none;fill-rule:nonzero;fill:rgb(96.403503%,78.808594%,42.222595%);fill-opacity:1;" d="M 178.90625 253.835938 C 178.90625 250.429688 176.113281 247.671875 172.667969 247.671875 C 169.21875 247.671875 166.425781 250.429688 166.425781 253.835938 C 166.425781 257.234375 169.21875 260 172.667969 260 C 176.113281 260 178.90625 257.234375 178.90625 253.835938 "/>
<g clip-path="url(#clip17)" clip-rule="nonzero">
<path style="fill:none;stroke-width:2;stroke-linecap:butt;stroke-linejoin:miter;stroke:rgb(13.729858%,12.159729%,12.548828%);stroke-opacity:1;stroke-miterlimit:4;" d="M -0.00005 -0.0017375 C -0.00005 3.404513 -2.793019 6.162325 -6.238331 6.162325 C -9.68755 6.162325 -12.480519 3.404513 -12.480519 -0.0017375 C -12.480519 -3.400175 -9.68755 -6.1658 -6.238331 -6.1658 C -2.793019 -6.1658 -0.00005 -3.400175 -0.00005 -0.0017375 Z M -0.00005 -0.0017375 " transform="matrix(1,0,0,-1,178.9063,253.8342)"/>
</g>
<path style=" stroke:none;fill-rule:nonzero;fill:rgb(96.403503%,78.808594%,42.222595%);fill-opacity:1;" d="M 82.738281 253.5 C 82.738281 250.097656 79.945312 247.335938 76.5 247.335938 C 73.054688 247.335938 70.261719 250.097656 70.261719 253.5 C 70.261719 256.902344 73.054688 259.664062 76.5 259.664062 C 79.945312 259.664062 82.738281 256.902344 82.738281 253.5 "/>
<g clip-path="url(#clip18)" clip-rule="nonzero">
<path style="fill:none;stroke-width:2;stroke-linecap:butt;stroke-linejoin:miter;stroke:rgb(13.729858%,12.159729%,12.548828%);stroke-opacity:1;stroke-miterlimit:4;" d="M -0.00141875 0.0012 C -0.00141875 3.403544 -2.794387 6.165263 -6.2397 6.165263 C -9.685012 6.165263 -12.477981 3.403544 -12.477981 0.0012 C -12.477981 -3.401144 -9.685012 -6.162862 -6.2397 -6.162862 C -2.794387 -6.162862 -0.00141875 -3.401144 -0.00141875 0.0012 Z M -0.00141875 0.0012 " transform="matrix(1,0,0,-1,82.7397,253.5012)"/>
</g>
</g>
</svg>
