<?xml version="1.0" encoding="UTF-8"?>
<svg xmlns="http://www.w3.org/2000/svg" xmlns:xlink="http://www.w3.org/1999/xlink" width="216pt" height="129.6pt" viewBox="0 0 216 129.6" version="1.1">
<defs>
<clipPath id="clip1">
  <path d="M 77 53 L 126 53 L 126 129.601562 L 77 129.601562 Z M 77 53 "/>
</clipPath>
<clipPath id="clip2">
  <path d="M 73 107 L 105 107 L 105 129.601562 L 73 129.601562 Z M 73 107 "/>
</clipPath>
</defs>
<g id="surface1">
<path style="fill:none;stroke-width:2;stroke-linecap:butt;stroke-linejoin:miter;stroke:rgb(13.729858%,12.159729%,12.548828%);stroke-opacity:1;stroke-miterlimit:4;" d="M 0.0005 0.0004125 L -57.706531 -15.3824 " transform="matrix(1,0,0,-1,66.4995,84.1176)"/>
<g clip-path="url(#clip1)" clip-rule="nonzero">
<path style="fill:none;stroke-width:2;stroke-linecap:butt;stroke-linejoin:miter;stroke:rgb(13.729858%,12.159729%,12.548828%);stroke-opacity:1;stroke-miterlimit:4;" d="M 0.001 0.0004125 L -25.706031 -57.8824 " transform="matrix(1,0,0,-1,114.499,65.1176)"/>
</g>
<path style="fill:none;stroke-width:2;stroke-linecap:butt;stroke-linejoin:miter;stroke:rgb(13.729858%,12.159729%,12.548828%);stroke-opacity:1;stroke-miterlimit:4;" d="M -0.00093125 0.0004 L -55.7939 -25.4996 " transform="matrix(1,0,0,-1,126.7939,6.5004)"/>
<path style="fill:none;stroke-width:2;stroke-linecap:butt;stroke-linejoin:miter;stroke:rgb(13.729858%,12.159729%,12.548828%);stroke-opacity:1;stroke-miterlimit:4;" d="M -0.00093125 0.0004 L -45.000931 66.0004 " transform="matrix(1,0,0,-1,171.7939,72.5004)"/>
<path style="fill:none;stroke-width:2;stroke-linecap:butt;stroke-linejoin:miter;stroke:rgb(13.729858%,12.159729%,12.548828%);stroke-opacity:1;stroke-miterlimit:4;" d="M -0.00093125 0.0004 L 35.2061 27.5004 " transform="matrix(1,0,0,-1,171.7939,72.5004)"/>
<path style="fill:none;stroke-width:2;stroke-linecap:butt;stroke-linejoin:miter;stroke:rgb(13.729858%,12.159729%,12.548828%);stroke-opacity:1;stroke-miterlimit:4;" d="M 0.001 0.0004125 L 57.293969 -7.3824 " transform="matrix(1,0,0,-1,114.499,65.1176)"/>
<path style="fill:none;stroke-width:2;stroke-linecap:butt;stroke-linejoin:miter;stroke:rgb(13.729858%,12.159729%,12.548828%);stroke-opacity:1;stroke-miterlimit:4;" d="M 0.0005 0.0004125 L 48.0005 19.000412 " transform="matrix(1,0,0,-1,66.4995,84.1176)"/>
<path style=" stroke:none;fill-rule:nonzero;fill:rgb(96.403503%,78.808594%,42.222595%);fill-opacity:1;" d="M 13 99.5 C 13 97.355469 11.117188 95.617188 8.792969 95.617188 C 6.472656 95.617188 4.589844 97.355469 4.589844 99.5 C 4.589844 101.644531 6.472656 103.382812 8.792969 103.382812 C 11.117188 103.382812 13 101.644531 13 99.5 "/>
<path style="fill:none;stroke-width:2;stroke-linecap:butt;stroke-linejoin:miter;stroke:rgb(13.729858%,12.159729%,12.548828%);stroke-opacity:1;stroke-miterlimit:4;" d="M 0 0.0004 C 0 2.144931 -1.882812 3.883212 -4.207031 3.883212 C -6.527344 3.883212 -8.410156 2.144931 -8.410156 0.0004 C -8.410156 -2.144131 -6.527344 -3.882413 -4.207031 -3.882413 C -1.882812 -3.882413 0 -2.144131 0 0.0004 Z M 0 0.0004 " transform="matrix(1,0,0,-1,13,99.5004)"/>
<path style=" stroke:none;fill-rule:nonzero;fill:rgb(96.403503%,78.808594%,42.222595%);fill-opacity:1;" d="M 176 72.5 C 176 70.355469 174.117188 68.617188 171.796875 68.617188 C 169.472656 68.617188 167.589844 70.355469 167.589844 72.5 C 167.589844 74.644531 169.472656 76.382812 171.796875 76.382812 C 174.117188 76.382812 176 74.644531 176 72.5 "/>
<path style="fill:none;stroke-width:2;stroke-linecap:butt;stroke-linejoin:miter;stroke:rgb(13.729858%,12.159729%,12.548828%);stroke-opacity:1;stroke-miterlimit:4;" d="M 0 0.0004 C 0 2.144931 -1.882812 3.883212 -4.203125 3.883212 C -6.527344 3.883212 -8.410156 2.144931 -8.410156 0.0004 C -8.410156 -2.144131 -6.527344 -3.882413 -4.203125 -3.882413 C -1.882812 -3.882413 0 -2.144131 0 0.0004 Z M 0 0.0004 " transform="matrix(1,0,0,-1,176,72.5004)"/>
<path style=" stroke:none;fill-rule:nonzero;fill:rgb(96.403503%,78.808594%,42.222595%);fill-opacity:1;" d="M 75.207031 32 C 75.207031 29.855469 73.324219 28.117188 71 28.117188 C 68.675781 28.117188 66.792969 29.855469 66.792969 32 C 66.792969 34.144531 68.675781 35.882812 71 35.882812 C 73.324219 35.882812 75.207031 34.144531 75.207031 32 "/>
<path style="fill:none;stroke-width:2;stroke-linecap:butt;stroke-linejoin:miter;stroke:rgb(13.729858%,12.159729%,12.548828%);stroke-opacity:1;stroke-miterlimit:4;" d="M 0.00093125 0.0004 C 0.00093125 2.144931 -1.881881 3.883212 -4.2061 3.883212 C -6.530319 3.883212 -8.413131 2.144931 -8.413131 0.0004 C -8.413131 -2.144131 -6.530319 -3.882413 -4.2061 -3.882413 C -1.881881 -3.882413 0.00093125 -2.144131 0.00093125 0.0004 Z M 0.00093125 0.0004 " transform="matrix(1,0,0,-1,75.2061,32.0004)"/>
<path style=" stroke:none;fill-rule:nonzero;fill:rgb(96.403503%,78.808594%,42.222595%);fill-opacity:1;" d="M 70.707031 84.117188 C 70.707031 81.972656 68.824219 80.234375 66.5 80.234375 C 64.175781 80.234375 62.292969 81.972656 62.292969 84.117188 C 62.292969 86.261719 64.175781 88 66.5 88 C 68.824219 88 70.707031 86.261719 70.707031 84.117188 "/>
<path style="fill:none;stroke-width:2;stroke-linecap:butt;stroke-linejoin:miter;stroke:rgb(13.729858%,12.159729%,12.548828%);stroke-opacity:1;stroke-miterlimit:4;" d="M 0.00143125 0.0004125 C 0.00143125 2.144944 -1.881381 3.883225 -4.2056 3.883225 C -6.529819 3.883225 -8.412631 2.144944 -8.412631 0.0004125 C -8.412631 -2.144119 -6.529819 -3.8824 -4.2056 -3.8824 C -1.881381 -3.8824 0.00143125 -2.144119 0.00143125 0.0004125 Z M 0.00143125 0.0004125 " transform="matrix(1,0,0,-1,70.7056,84.1176)"/>
<path style=" stroke:none;fill-rule:nonzero;fill:rgb(96.403503%,78.808594%,42.222595%);fill-opacity:1;" d="M 131 6.5 C 131 4.355469 129.117188 2.617188 126.796875 2.617188 C 124.472656 2.617188 122.589844 4.355469 122.589844 6.5 C 122.589844 8.644531 124.472656 10.382812 126.796875 10.382812 C 129.117188 10.382812 131 8.644531 131 6.5 "/>
<path style="fill:none;stroke-width:2;stroke-linecap:butt;stroke-linejoin:miter;stroke:rgb(13.729858%,12.159729%,12.548828%);stroke-opacity:1;stroke-miterlimit:4;" d="M 0 0.0004 C 0 2.144931 -1.882812 3.883212 -4.203125 3.883212 C -6.527344 3.883212 -8.410156 2.144931 -8.410156 0.0004 C -8.410156 -2.144131 -6.527344 -3.882413 -4.203125 -3.882413 C -1.882812 -3.882413 0 -2.144131 0 0.0004 Z M 0 0.0004 " transform="matrix(1,0,0,-1,131,6.5004)"/>
<path style=" stroke:none;fill-rule:nonzero;fill:rgb(96.403503%,78.808594%,42.222595%);fill-opacity:1;" d="M 211.207031 45 C 211.207031 42.855469 209.324219 41.117188 207 41.117188 C 204.675781 41.117188 202.792969 42.855469 202.792969 45 C 202.792969 47.144531 204.675781 48.882812 207 48.882812 C 209.324219 48.882812 211.207031 47.144531 211.207031 45 "/>
<path style="fill:none;stroke-width:2;stroke-linecap:butt;stroke-linejoin:miter;stroke:rgb(13.729858%,12.159729%,12.548828%);stroke-opacity:1;stroke-miterlimit:4;" d="M 0.00093125 0.0004 C 0.00093125 2.144931 -1.881881 3.883212 -4.2061 3.883212 C -6.530319 3.883212 -8.413131 2.144931 -8.413131 0.0004 C -8.413131 -2.144131 -6.530319 -3.882413 -4.2061 -3.882413 C -1.881881 -3.882413 0.00093125 -2.144131 0.00093125 0.0004 Z M 0.00093125 0.0004 " transform="matrix(1,0,0,-1,211.2061,45.0004)"/>
<path style=" stroke:none;fill-rule:nonzero;fill:rgb(96.403503%,78.808594%,42.222595%);fill-opacity:1;" d="M 93 123 C 93 120.855469 91.117188 119.117188 88.796875 119.117188 C 86.472656 119.117188 84.589844 120.855469 84.589844 123 C 84.589844 125.144531 86.472656 126.882812 88.796875 126.882812 C 91.117188 126.882812 93 125.144531 93 123 "/>
<g clip-path="url(#clip2)" clip-rule="nonzero">
<path style="fill:none;stroke-width:2;stroke-linecap:butt;stroke-linejoin:miter;stroke:rgb(13.729858%,12.159729%,12.548828%);stroke-opacity:1;stroke-miterlimit:4;" d="M 0 0.0004 C 0 2.144931 -1.882812 3.883212 -4.203125 3.883212 C -6.527344 3.883212 -8.410156 2.144931 -8.410156 0.0004 C -8.410156 -2.144131 -6.527344 -3.882413 -4.203125 -3.882413 C -1.882812 -3.882413 0 -2.144131 0 0.0004 Z M 0 0.0004 " transform="matrix(1,0,0,-1,93,123.0004)"/>
</g>
<path style=" stroke:none;fill-rule:nonzero;fill:rgb(96.403503%,78.808594%,42.222595%);fill-opacity:1;" d="M 118.707031 65.117188 C 118.707031 62.972656 116.824219 61.234375 114.5 61.234375 C 112.175781 61.234375 110.292969 62.972656 110.292969 65.117188 C 110.292969 67.261719 112.175781 69 114.5 69 C 116.824219 69 118.707031 67.261719 118.707031 65.117188 "/>
<path style="fill:none;stroke-width:2;stroke-linecap:butt;stroke-linejoin:miter;stroke:rgb(13.729858%,12.159729%,12.548828%);stroke-opacity:1;stroke-miterlimit:4;" d="M 0.00093125 0.0004125 C 0.00093125 2.144944 -1.881881 3.883225 -4.2061 3.883225 C -6.530319 3.883225 -8.413131 2.144944 -8.413131 0.0004125 C -8.413131 -2.144119 -6.530319 -3.8824 -4.2061 -3.8824 C -1.881881 -3.8824 0.00093125 -2.144119 0.00093125 0.0004125 Z M 0.00093125 0.0004125 " transform="matrix(1,0,0,-1,118.7061,65.1176)"/>
</g>
</svg>
