<svg xmlns="http://www.w3.org/2000/svg" id="img-nonsubgraph-1-figure" width="210" height="310" viewBox="0 0 210 310">
  <defs>
    <clipPath id="img-nonsubgraph-1-__clipPath-0">
      <rect x="5.0" y="5.0" width="200.0" height="300.0"/>
    </clipPath>
    <clipPath id="img-nonsubgraph-1-__clipPath-1">
      <rect x="5.0" y="5.0" width="200.0" height="300.0"/>
    </clipPath>
    <clipPath id="img-nonsubgraph-1-__clipPath-2">
      <rect x="5.0" y="5.0" width="200.0" height="300.0"/>
    </clipPath>
  </defs>
  <g id="img-nonsubgraph-1-__group-0">
    <path id="img-nonsubgraph-1-edge-1-5" d="M 164.0 179.0 Q 169.3 187.7 174.5 196.5 Q 179.8 205.2 185.0 213.9" stroke="black" stroke-width="2" stroke-dasharray="none" fill="none" clip-path="url(#img-nonsubgraph-1-__clipPath-2)"/>
    <path id="img-nonsubgraph-1-edge-1-7" d="M 164.0 179.0 Q 144.8 177.4 125.6 175.8 Q 106.4 174.1 87.2 172.5" stroke="black" stroke-width="2" stroke-dasharray="none" fill="none" clip-path="url(#img-nonsubgraph-1-__clipPath-2)"/>
    <path id="img-nonsubgraph-1-edge-2-3" d="M 137.0 218.9 Q 138.9 198.9 140.9 178.9 Q 142.8 158.9 144.7 138.9" stroke="black" stroke-width="2" stroke-dasharray="none" fill="none" clip-path="url(#img-nonsubgraph-1-__clipPath-2)"/>
    <path id="img-nonsubgraph-1-edge-2-5" d="M 137.0 218.9 Q 149.0 217.6 161.0 216.4 Q 173.0 215.2 185.0 213.9" stroke="black" stroke-width="2" stroke-dasharray="none" fill="none" clip-path="url(#img-nonsubgraph-1-__clipPath-2)"/>
    <path id="img-nonsubgraph-1-edge-2-6" d="M 137.0 218.9 Q 146.9 232.9 156.8 246.9 Q 166.7 261.0 176.6 275.0" stroke="black" stroke-width="2" stroke-dasharray="none" fill="none" clip-path="url(#img-nonsubgraph-1-__clipPath-2)"/>
    <path id="img-nonsubgraph-1-edge-2-7" d="M 137.0 218.9 Q 124.6 207.3 112.1 195.7 Q 99.7 184.1 87.2 172.5" stroke="black" stroke-width="2" stroke-dasharray="none" fill="none" clip-path="url(#img-nonsubgraph-1-__clipPath-2)"/>
    <path id="img-nonsubgraph-1-edge-3-5" d="M 144.7 138.9 Q 154.8 157.7 164.9 176.4 Q 174.9 195.2 185.0 213.9" stroke="black" stroke-width="2" stroke-dasharray="none" fill="none" clip-path="url(#img-nonsubgraph-1-__clipPath-2)"/>
    <path id="img-nonsubgraph-1-edge-3-8" d="M 144.7 138.9 Q 144.8 118.3 144.8 97.7 Q 144.9 77.0 144.9 56.4" stroke="black" stroke-width="2" stroke-dasharray="none" fill="none" clip-path="url(#img-nonsubgraph-1-__clipPath-2)"/>
    <path id="img-nonsubgraph-1-edge-3-10" d="M 144.7 138.9 Q 127.5 131.2 110.2 123.5 Q 93.0 115.9 75.7 108.2" stroke="black" stroke-width="2" stroke-dasharray="none" fill="none" clip-path="url(#img-nonsubgraph-1-__clipPath-2)"/>
    <path id="img-nonsubgraph-1-edge-4-7" d="M 25.0 144.7 Q 40.6 151.7 56.1 158.6 Q 71.7 165.6 87.2 172.5" stroke="black" stroke-width="2" stroke-dasharray="none" fill="none" clip-path="url(#img-nonsubgraph-1-__clipPath-2)"/>
    <path id="img-nonsubgraph-1-edge-4-10" d="M 25.0 144.7 Q 37.7 135.6 50.4 126.5 Q 63.1 117.3 75.7 108.2" stroke="black" stroke-width="2" stroke-dasharray="none" fill="none" clip-path="url(#img-nonsubgraph-1-__clipPath-2)"/>
    <path id="img-nonsubgraph-1-edge-5-6" d="M 185.0 213.9 Q 182.9 229.2 180.8 244.5 Q 178.7 259.7 176.6 275.0" stroke="black" stroke-width="2" stroke-dasharray="none" fill="none" clip-path="url(#img-nonsubgraph-1-__clipPath-2)"/>
    <path id="img-nonsubgraph-1-edge-7-10" d="M 87.2 172.5 Q 84.3 156.4 81.5 140.3 Q 78.6 124.3 75.7 108.2" stroke="black" stroke-width="2" stroke-dasharray="none" fill="none" clip-path="url(#img-nonsubgraph-1-__clipPath-2)"/>
    <path id="img-nonsubgraph-1-edge-8-9" d="M 144.9 56.4 Q 130.8 51.1 116.8 45.7 Q 102.7 40.4 88.6 35.0" stroke="black" stroke-width="2" stroke-dasharray="none" fill="none" clip-path="url(#img-nonsubgraph-1-__clipPath-2)"/>
    <path id="img-nonsubgraph-1-edge-9-10" d="M 88.6 35.0 Q 85.4 53.3 82.2 71.6 Q 79.0 89.9 75.7 108.2" stroke="black" stroke-width="2" stroke-dasharray="none" fill="none" clip-path="url(#img-nonsubgraph-1-__clipPath-2)"/>
  </g>
  <g id="img-nonsubgraph-1-__group-1">
    <circle id="img-nonsubgraph-1-node-1" cx="164.0" cy="179.0" r="12" stroke="black" stroke-width="1" fill="#ddd"/>
    <g id="img-nonsubgraph-1-__label-0" transform="translate(164.0,179.0) translate(-4.5,-6.0)">
      <g id="img-nonsubgraph-1-__g-0">
        <svg xmlns:xlink="http://www.w3.org/1999/xlink" style="vertical-align: 0.000px" width="9.048px" height="12.056px" role="img" focusable="false" viewBox="0 -666 500 666" x="0.0" y="0.0">
          <defs>
            <path id="img-nonsubgraph-1-MJX-2-NCM-N-31" d="M269 666C228 624 168 603 89 603L89 564C141 564 184 572 217 588L217 82C217 64 213 52 204 47C195 42 170 39 130 39L95 39L95 0C120 2 174 3 257 3C340 3 394 2 419 0L419 39L384 39C343 39 318 42 310 47C302 52 297 64 297 82L297 636C297 660 295 666 269 666Z"/>
          </defs>
          <g stroke="currentColor" fill="currentColor" stroke-width="0" transform="scale(1,-1)">
            <g data-mml-node="math">
              <g data-mml-node="mn" data-semantic-type="number" data-semantic-role="integer" data-semantic-font="normal" data-semantic-annotation="clearspeak:simple;nemeth:number;depth:1" data-semantic-id="0" data-semantic-attributes="latex:1" data-semantic-speech="1">
                <use data-c="31" xlink:href="#img-nonsubgraph-1-MJX-2-NCM-N-31"/>
              </g>
            </g>
          </g>
        </svg>
      </g>
    </g>
    <circle id="img-nonsubgraph-1-node-2" cx="137.0" cy="218.9" r="12" stroke="black" stroke-width="1" fill="#ddd"/>
    <g id="img-nonsubgraph-1-__label-1" transform="translate(137.0,218.9) translate(-4.5,-6.0)">
      <g id="img-nonsubgraph-1-__g-1">
        <svg xmlns:xlink="http://www.w3.org/1999/xlink" style="vertical-align: 0.000px" width="9.048px" height="12.056px" role="img" focusable="false" viewBox="0 -666 500 666" x="0.0" y="0.0">
          <defs>
            <path id="img-nonsubgraph-1-MJX-3-NCM-N-32" d="M237 666C186 666 143 648 106 612C69 576 50 534 50 483C50 449 75 424 106 424C136 424 161 450 161 480C161 513 137 536 105 536C102 536 100 536 98 535C117 584 161 627 224 627C306 627 352 556 352 470C352 403 318 331 250 255L62 43C49 28 50 29 50 0L421 0L450 180L417 180C409 129 402 100 396 91C391 86 361 84 306 84L139 84L236 179C304 243 390 312 419 365C439 400 449 435 449 470C449 588 357 666 237 666Z"/>
          </defs>
          <g stroke="currentColor" fill="currentColor" stroke-width="0" transform="scale(1,-1)">
            <g data-mml-node="math">
              <g data-mml-node="mn" data-semantic-type="number" data-semantic-role="integer" data-semantic-font="normal" data-semantic-annotation="clearspeak:simple;nemeth:number;depth:1" data-semantic-id="0" data-semantic-attributes="latex:2" data-semantic-speech="2">
                <use data-c="32" xlink:href="#img-nonsubgraph-1-MJX-3-NCM-N-32"/>
              </g>
            </g>
          </g>
        </svg>
      </g>
    </g>
    <circle id="img-nonsubgraph-1-node-3" cx="144.7" cy="138.9" r="12" stroke="black" stroke-width="1" fill="#ddd"/>
    <g id="img-nonsubgraph-1-__label-2" transform="translate(144.7,138.9) translate(-4.5,-6.2)">
      <g id="img-nonsubgraph-1-__g-2">
        <svg xmlns:xlink="http://www.w3.org/1999/xlink" style="vertical-align: -0.400px" width="9.048px" height="12.456px" role="img" focusable="false" viewBox="0 -666 500 688" x="0.0" y="0.0">
          <defs>
            <path id="img-nonsubgraph-1-MJX-4-NCM-N-33" d="M303 353C369 378 431 441 431 526C431 569 410 604 369 631C333 654 292 666 246 666C201 666 162 654 127 631C88 605 68 571 68 528C68 495 90 472 122 472C154 472 176 495 176 527C176 560 157 578 119 580C145 615 186 633 242 633C302 633 332 598 332 527C332 485 324 450 309 421C282 373 245 364 183 364C171 362 165 357 165 348C165 333 172 333 192 333L235 333C310 333 348 280 348 173C348 88 317 14 241 14C176 14 128 36 99 80C134 79 160 105 160 139C160 173 135 198 101 198C62 198 42 178 42 137C42 88 64 49 108 18C147-9 193-22 244-22C301-22 350-3 393 34C436 71 457 117 457 173C457 267 383 332 303 353Z"/>
          </defs>
          <g stroke="currentColor" fill="currentColor" stroke-width="0" transform="scale(1,-1)">
            <g data-mml-node="math">
              <g data-mml-node="mn" data-semantic-type="number" data-semantic-role="integer" data-semantic-font="normal" data-semantic-annotation="clearspeak:simple;nemeth:number;depth:1" data-semantic-id="0" data-semantic-attributes="latex:3" data-semantic-speech="3">
                <use data-c="33" xlink:href="#img-nonsubgraph-1-MJX-4-NCM-N-33"/>
              </g>
            </g>
          </g>
        </svg>
      </g>
    </g>
    <circle id="img-nonsubgraph-1-node-4" cx="25.0" cy="144.7" r="12" stroke="black" stroke-width="1" fill="#ddd"/>
    <g id="img-nonsubgraph-1-__label-3" transform="translate(25.0,144.7) translate(-4.5,-6.1)">
      <g id="img-nonsubgraph-1-__g-3">
        <svg xmlns:xlink="http://www.w3.org/1999/xlink" style="vertical-align: 0.000px" width="9.048px" height="12.256px" role="img" focusable="false" viewBox="0 -677 500 677" x="0.0" y="0.0">
          <defs>
            <path id="img-nonsubgraph-1-MJX-5-NCM-N-34" d="M353 677C344 677 336 672 330 663L28 199L28 163L289 163L289 81C289 63 285 51 278 46C271 41 252 39 219 39L194 39L194 0C223 2 269 3 331 3C393 3 439 2 468 0L468 39L443 39C410 39 391 41 384 46C377 51 373 63 373 81L373 163L471 163L471 202L373 202L373 660C373 670 366 677 353 677M295 553L295 202L67 202Z"/>
          </defs>
          <g stroke="currentColor" fill="currentColor" stroke-width="0" transform="scale(1,-1)">
            <g data-mml-node="math">
              <g data-mml-node="mn" data-semantic-type="number" data-semantic-role="integer" data-semantic-font="normal" data-semantic-annotation="clearspeak:simple;nemeth:number;depth:1" data-semantic-id="0" data-semantic-attributes="latex:4" data-semantic-speech="4">
                <use data-c="34" xlink:href="#img-nonsubgraph-1-MJX-5-NCM-N-34"/>
              </g>
            </g>
          </g>
        </svg>
      </g>
    </g>
    <circle id="img-nonsubgraph-1-node-5" cx="185.0" cy="213.9" r="12" stroke="black" stroke-width="1" fill="#ddd"/>
    <g id="img-nonsubgraph-1-__label-4" transform="translate(185.0,213.9) translate(-4.5,-6.2)">
      <g id="img-nonsubgraph-1-__g-4">
        <svg xmlns:xlink="http://www.w3.org/1999/xlink" style="vertical-align: -0.400px" width="9.048px" height="12.456px" role="img" focusable="false" viewBox="0 -666 500 688" x="0.0" y="0.0">
          <defs>
            <path id="img-nonsubgraph-1-MJX-6-NCM-N-35" d="M118 315C123 315 129 319 134 326C164 371 205 393 257 393C292 393 319 373 337 332C348 305 354 264 354 209C354 146 346 102 331 76C306 35 272 14 229 14C162 14 109 62 91 114C94 113 96 114 100 114C130 114 155 137 155 167C155 198 130 219 100 219C65 219 50 200 50 163C50 63 131-22 231-22C292-22 344 0 386 44C428 88 449 141 449 202C449 260 432 310 398 353C361 400 315 423 259 423C212 423 171 408 138 378L138 556C165 548 191 544 218 544C264 544 304 555 338 578C369 597 390 616 402 634C408 642 411 648 411 651C411 661 406 666 396 666C341 645 294 634 256 634C211 634 168 643 127 662C122 664 118 665 114 665C105 665 100 656 100 637L100 345C100 324 100 315 118 315Z"/>
          </defs>
          <g stroke="currentColor" fill="currentColor" stroke-width="0" transform="scale(1,-1)">
            <g data-mml-node="math">
              <g data-mml-node="mn" data-semantic-type="number" data-semantic-role="integer" data-semantic-font="normal" data-semantic-annotation="clearspeak:simple;nemeth:number;depth:1" data-semantic-id="0" data-semantic-attributes="latex:5" data-semantic-speech="5">
                <use data-c="35" xlink:href="#img-nonsubgraph-1-MJX-6-NCM-N-35"/>
              </g>
            </g>
          </g>
        </svg>
      </g>
    </g>
    <circle id="img-nonsubgraph-1-node-7" cx="87.2" cy="172.5" r="12" stroke="black" stroke-width="1" fill="#ddd"/>
    <g id="img-nonsubgraph-1-__label-5" transform="translate(87.2,172.5) translate(-4.5,-6.3)">
      <g id="img-nonsubgraph-1-__g-5">
        <svg xmlns:xlink="http://www.w3.org/1999/xlink" style="vertical-align: -0.400px" width="9.048px" height="12.632px" role="img" focusable="false" viewBox="0 -676 500 698" x="0.0" y="0.0">
          <defs>
            <path id="img-nonsubgraph-1-MJX-7-NCM-N-37" d="M475 604C482 613 485 626 485 644L243 644C174 644 135 648 128 657C125 660 122 667 120 676L89 676L55 464L88 464C98 520 106 550 112 555C115 558 146 560 205 560L401 560L295 410C214 295 174 171 174 36C174-3 190-22 223-22C256-22 272-3 272 36L272 87C272 239 296 349 343 416Z"/>
          </defs>
          <g stroke="currentColor" fill="currentColor" stroke-width="0" transform="scale(1,-1)">
            <g data-mml-node="math">
              <g data-mml-node="mn" data-semantic-type="number" data-semantic-role="integer" data-semantic-font="normal" data-semantic-annotation="clearspeak:simple;nemeth:number;depth:1" data-semantic-id="0" data-semantic-attributes="latex:7" data-semantic-speech="7">
                <use data-c="37" xlink:href="#img-nonsubgraph-1-MJX-7-NCM-N-37"/>
              </g>
            </g>
          </g>
        </svg>
      </g>
    </g>
    <circle id="img-nonsubgraph-1-node-8" cx="144.9" cy="56.4" r="12" stroke="black" stroke-width="1" fill="#ddd"/>
    <g id="img-nonsubgraph-1-__label-6" transform="translate(144.9,56.4) translate(-4.5,-6.2)">
      <g id="img-nonsubgraph-1-__g-6">
        <svg xmlns:xlink="http://www.w3.org/1999/xlink" style="vertical-align: -0.400px" width="9.048px" height="12.456px" role="img" focusable="false" viewBox="0 -666 500 688" x="0.0" y="0.0">
          <defs>
            <path id="img-nonsubgraph-1-MJX-8-NCM-N-38" d="M250 666C201 666 158 650 122 618C86 586 68 546 68 497C68 456 83 419 113 386C120 378 142 361 179 335C88 288 42 227 42 153C42 100 64 57 107 24C147-7 194-22 249-22C305-22 354-4 395 32C436 68 457 115 457 170C457 216 441 257 408 294C396 307 365 330 316 361C393 402 431 454 431 515C431 606 344 666 250 666M379 515C379 463 348 418 286 381L167 459C136 479 120 505 120 536C120 596 185 633 249 633C318 633 379 584 379 515M250 14C168 14 99 73 99 153C99 220 136 274 210 315L328 240C376 209 400 174 400 134C400 62 325 14 250 14Z"/>
          </defs>
          <g stroke="currentColor" fill="currentColor" stroke-width="0" transform="scale(1,-1)">
            <g data-mml-node="math">
              <g data-mml-node="mn" data-semantic-type="number" data-semantic-role="integer" data-semantic-font="normal" data-semantic-annotation="clearspeak:simple;nemeth:number;depth:1" data-semantic-id="0" data-semantic-attributes="latex:8" data-semantic-speech="8">
                <use data-c="38" xlink:href="#img-nonsubgraph-1-MJX-8-NCM-N-38"/>
              </g>
            </g>
          </g>
        </svg>
      </g>
    </g>
    <circle id="img-nonsubgraph-1-node-9" cx="88.6" cy="35.0" r="12" stroke="black" stroke-width="1" fill="#ddd"/>
    <g id="img-nonsubgraph-1-__label-7" transform="translate(88.6,35.0) translate(-4.5,-6.2)">
      <g id="img-nonsubgraph-1-__g-7">
        <svg xmlns:xlink="http://www.w3.org/1999/xlink" style="vertical-align: -0.400px" width="9.048px" height="12.456px" role="img" focusable="false" viewBox="0 -666 500 688" x="0.0" y="0.0">
          <defs>
            <path id="img-nonsubgraph-1-MJX-9-NCM-N-39" d="M116 140C83 140 67 123 67 89C67 14 128-22 207-22C287-22 351 18 398 99C437 166 457 243 457 329C457 456 434 546 388 599C349 644 304 666 253 666C194 666 145 645 106 602C63 557 42 503 42 440C42 379 60 327 96 284C134 238 183 215 242 215C294 215 334 243 361 299L361 286C361 177 342 103 303 63C272 30 239 14 206 14C166 14 137 23 118 42C149 42 165 60 165 91C165 119 144 140 116 140M243 246C204 246 175 266 155 306C144 329 138 374 138 439C138 504 145 548 158 573C180 613 212 633 253 633C294 633 324 608 343 558C354 531 361 485 361 420C361 333 322 246 243 246Z"/>
          </defs>
          <g stroke="currentColor" fill="currentColor" stroke-width="0" transform="scale(1,-1)">
            <g data-mml-node="math">
              <g data-mml-node="mn" data-semantic-type="number" data-semantic-role="integer" data-semantic-font="normal" data-semantic-annotation="clearspeak:simple;nemeth:number;depth:1" data-semantic-id="0" data-semantic-attributes="latex:9" data-semantic-speech="9">
                <use data-c="39" xlink:href="#img-nonsubgraph-1-MJX-9-NCM-N-39"/>
              </g>
            </g>
          </g>
        </svg>
      </g>
    </g>
    <circle id="img-nonsubgraph-1-node-6" cx="176.6" cy="275.0" r="12" stroke="black" stroke-width="1" fill="#ddd"/>
    <g id="img-nonsubgraph-1-__label-8" transform="translate(176.6,275.0) translate(-4.5,-6.2)">
      <g id="img-nonsubgraph-1-__g-8">
        <svg xmlns:xlink="http://www.w3.org/1999/xlink" style="vertical-align: -0.400px" width="9.048px" height="12.456px" role="img" focusable="false" viewBox="0 -666 500 688" x="0.0" y="0.0">
          <defs>
            <path id="img-nonsubgraph-1-MJX-10-NCM-N-36" d="M383 504C416 504 432 521 432 555C432 627 378 666 304 666C221 666 155 627 106 548C63 480 42 403 42 316C42 189 65 100 112 47C152 1 198-22 251-22C312-22 362 1 401 47C438 91 457 144 457 205C457 266 439 318 403 361C365 407 316 431 257 431C205 431 165 402 138 346L138 352C138 465 166 561 226 605C252 624 279 633 306 633C342 633 368 623 385 602C351 602 334 583 334 553C334 525 355 504 383 504M344 340C355 317 361 272 361 206C361 141 356 98 345 76C325 35 294 14 251 14C222 14 200 24 184 44C171 60 162 74 158 85C146 116 140 163 140 227C140 255 144 282 151 308C164 355 201 399 256 399C295 399 325 379 344 340Z"/>
          </defs>
          <g stroke="currentColor" fill="currentColor" stroke-width="0" transform="scale(1,-1)">
            <g data-mml-node="math">
              <g data-mml-node="mn" data-semantic-type="number" data-semantic-role="integer" data-semantic-font="normal" data-semantic-annotation="clearspeak:simple;nemeth:number;depth:1" data-semantic-id="0" data-semantic-attributes="latex:6" data-semantic-speech="6">
                <use data-c="36" xlink:href="#img-nonsubgraph-1-MJX-10-NCM-N-36"/>
              </g>
            </g>
          </g>
        </svg>
      </g>
    </g>
    <circle id="img-nonsubgraph-1-node-10" cx="75.7" cy="108.2" r="12" stroke="black" stroke-width="1" fill="#ddd"/>
    <g id="img-nonsubgraph-1-__label-9" transform="translate(75.7,108.2) translate(-9.0,-6.2)">
      <g id="img-nonsubgraph-1-__g-9">
        <svg xmlns:xlink="http://www.w3.org/1999/xlink" style="vertical-align: -0.400px" width="18.096px" height="12.456px" role="img" focusable="false" viewBox="0 -666 1000 688" x="0.0" y="0.0">
          <defs>
            <path id="img-nonsubgraph-1-MJX-11-NCM-N-31" d="M269 666C228 624 168 603 89 603L89 564C141 564 184 572 217 588L217 82C217 64 213 52 204 47C195 42 170 39 130 39L95 39L95 0C120 2 174 3 257 3C340 3 394 2 419 0L419 39L384 39C343 39 318 42 310 47C302 52 297 64 297 82L297 636C297 660 295 666 269 666Z"/>
            <path id="img-nonsubgraph-1-MJX-11-NCM-N-30" d="M249-22C390-22 460 92 460 320C460 473 428 575 365 625C330 652 291 666 250 666C109 666 39 551 39 320C39 136 88-22 249-22M361 524C368 489 371 425 371 332C371 240 367 172 360 128C347 48 310 8 249 8C226 8 203 17 182 34C155 57 139 104 132 176C129 201 128 253 128 332C128 419 131 480 136 513C145 568 163 603 191 618C213 630 232 636 249 636C314 636 350 583 361 524Z"/>
          </defs>
          <g stroke="currentColor" fill="currentColor" stroke-width="0" transform="scale(1,-1)">
            <g data-mml-node="math">
              <g data-mml-node="mn" data-semantic-type="number" data-semantic-role="integer" data-semantic-font="normal" data-semantic-annotation="clearspeak:simple;nemeth:number;depth:1" data-semantic-id="0" data-semantic-attributes="latex:10" data-semantic-speech="10">
                <use data-c="31" xlink:href="#img-nonsubgraph-1-MJX-11-NCM-N-31"/>
                <use data-c="30" xlink:href="#img-nonsubgraph-1-MJX-11-NCM-N-30" transform="translate(500,0)"/>
              </g>
            </g>
          </g>
        </svg>
      </g>
    </g>
  </g>
  <g id="img-nonsubgraph-1-__label-10" transform="translate(105.0,297.5) translate(-8.2,-6.4)">
    <g id="img-nonsubgraph-1-__g-10">
      <svg xmlns:xlink="http://www.w3.org/1999/xlink" style="vertical-align: -0.200px" width="16.360px" height="12.816px" role="img" focusable="false" viewBox="0 -697 904 708" x="0.0" y="0.0">
        <defs>
          <path id="img-nonsubgraph-1-MJX-12-NCM-B-1D406" d="M845 229L845 276C810 273 723 273 684 273C626 273 533 273 479 276L479 229L623 229L623 128C623 109 623 80 584 57C558 42 526 36 494 36C408 36 322 65 273 127C230 182 217 253 217 344C217 456 237 514 274 563C314 613 391 650 487 650C594 650 689 574 711 447C714 428 715 426 738 426C764 426 765 428 765 454L765 669C765 688 765 697 747 697C738 697 736 695 728 688L662 629C589 687 517 697 465 697C219 697 64 550 64 343C64 144 209-11 467-11C500-11 603-9 653 53C684 26 744 0 751 0C765 0 765 13 765 28L765 229Z"/>
        </defs>
        <g stroke="currentColor" fill="currentColor" stroke-width="0" transform="scale(1,-1)">
          <g data-mml-node="math">
            <g data-mml-node="TeXAtom" data-mjx-texclass="ORD">
              <g data-mml-node="mi" data-semantic-type="identifier" data-semantic-role="latinletter" data-semantic-font="bold" data-semantic-annotation="clearspeak:simple;nemeth:number;depth:1" data-semantic-id="0" data-semantic-attributes="latex:\mathbf{G};texclass:ORD" data-semantic-speech="bold upper G">
                <use data-c="1D406" xlink:href="#img-nonsubgraph-1-MJX-12-NCM-B-1D406"/>
              </g>
            </g>
          </g>
        </g>
      </svg>
    </g>
  </g>
</svg>
