<svg xmlns="http://www.w3.org/2000/svg" id="intord-to-diagram-exercise1-figure" width="330" height="330" viewBox="0 0 330 330">
  <defs>
    <clipPath id="intord-to-diagram-exercise1-clipPath-0">
      <rect x="15.0" y="15.0" width="300.0" height="300.0"/>
    </clipPath>
    <clipPath id="intord-to-diagram-exercise1-clipPath-1">
      <rect x="15.0" y="15.0" width="300.0" height="300.0"/>
    </clipPath>
  </defs>
  <g id="intord-to-diagram-exercise1-group-0">
    <g id="intord-to-diagram-exercise1-group-1">
      <path id="intord-to-diagram-exercise1-edge-2-1" d="M 15.0 120.0 Q 15.0 93.8 15.0 67.5 Q 15.0 41.2 15.0 15.0" stroke="black" stroke-width="2" stroke-dasharray="none" fill="none" clip-path="url(#intord-to-diagram-exercise1-clipPath-1)"/>
      <path id="intord-to-diagram-exercise1-edge-3-1" d="M 135.0 82.5 Q 105.0 65.6 75.0 48.8 Q 45.0 31.9 15.0 15.0" stroke="black" stroke-width="2" stroke-dasharray="none" fill="none" clip-path="url(#intord-to-diagram-exercise1-clipPath-1)"/>
      <path id="intord-to-diagram-exercise1-edge-4-2" d="M 15.0 315.0 Q 15.0 266.2 15.0 217.5 Q 15.0 168.8 15.0 120.0" stroke="black" stroke-width="2" stroke-dasharray="none" fill="none" clip-path="url(#intord-to-diagram-exercise1-clipPath-1)"/>
      <path id="intord-to-diagram-exercise1-edge-4-9" d="M 15.0 315.0 Q 39.4 273.8 63.8 232.5 Q 88.1 191.2 112.5 150.0" stroke="black" stroke-width="2" stroke-dasharray="none" fill="none" clip-path="url(#intord-to-diagram-exercise1-clipPath-1)"/>
      <path id="intord-to-diagram-exercise1-edge-5-2" d="M 165.0 315.0 Q 127.5 266.2 90.0 217.5 Q 52.5 168.8 15.0 120.0" stroke="black" stroke-width="2" stroke-dasharray="none" fill="none" clip-path="url(#intord-to-diagram-exercise1-clipPath-1)"/>
      <path id="intord-to-diagram-exercise1-edge-5-3" d="M 165.0 315.0 Q 157.5 256.9 150.0 198.8 Q 142.5 140.6 135.0 82.5" stroke="black" stroke-width="2" stroke-dasharray="none" fill="none" clip-path="url(#intord-to-diagram-exercise1-clipPath-1)"/>
      <path id="intord-to-diagram-exercise1-edge-5-8" d="M 165.0 315.0 Q 202.5 255.0 240.0 195.0 Q 277.5 135.0 315.0 75.0" stroke="black" stroke-width="2" stroke-dasharray="none" fill="none" clip-path="url(#intord-to-diagram-exercise1-clipPath-1)"/>
      <path id="intord-to-diagram-exercise1-edge-6-9" d="M 315.0 315.0 Q 264.4 273.8 213.8 232.5 Q 163.1 191.2 112.5 150.0" stroke="black" stroke-width="2" stroke-dasharray="none" fill="none" clip-path="url(#intord-to-diagram-exercise1-clipPath-1)"/>
      <path id="intord-to-diagram-exercise1-edge-6-2" d="M 315.0 315.0 Q 240.0 266.2 165.0 217.5 Q 90.0 168.8 15.0 120.0" stroke="black" stroke-width="2" stroke-dasharray="none" fill="none" clip-path="url(#intord-to-diagram-exercise1-clipPath-1)"/>
      <path id="intord-to-diagram-exercise1-edge-8-1" d="M 315.0 75.0 Q 240.0 60.0 165.0 45.0 Q 90.0 30.0 15.0 15.0" stroke="black" stroke-width="2" stroke-dasharray="none" fill="none" clip-path="url(#intord-to-diagram-exercise1-clipPath-1)"/>
      <path id="intord-to-diagram-exercise1-edge-8-7" d="M 315.0 75.0 Q 315.0 60.0 315.0 45.0 Q 315.0 30.0 315.0 15.0" stroke="black" stroke-width="2" stroke-dasharray="none" fill="none" clip-path="url(#intord-to-diagram-exercise1-clipPath-1)"/>
      <path id="intord-to-diagram-exercise1-edge-9-3" d="M 112.5 150.0 Q 118.1 133.1 123.8 116.2 Q 129.4 99.4 135.0 82.5" stroke="black" stroke-width="2" stroke-dasharray="none" fill="none" clip-path="url(#intord-to-diagram-exercise1-clipPath-1)"/>
      <path id="intord-to-diagram-exercise1-edge-9-8" d="M 112.5 150.0 Q 163.1 131.2 213.8 112.5 Q 264.4 93.8 315.0 75.0" stroke="black" stroke-width="2" stroke-dasharray="none" fill="none" clip-path="url(#intord-to-diagram-exercise1-clipPath-1)"/>
    </g>
    <g id="intord-to-diagram-exercise1-group-2">
      <circle id="intord-to-diagram-exercise1-node-1" cx="15.0" cy="15.0" r="12" stroke="black" stroke-width="1" fill="#ddd"/>
      <g id="intord-to-diagram-exercise1-label-0" transform="translate(15.0,15.0) translate(-3.7,-7.8)">
        <g id="intord-to-diagram-exercise1-g-0">
          <svg xmlns:xlink="http://www.w3.org/1999/xlink" style="vertical-align: -3.696px" width="7.456px" height="15.656px" role="img" focusable="false" viewBox="0 -661 412 865" x="0.0" y="0.0">
            <defs>
              <path id="intord-to-diagram-exercise1-MJX-2-TEX-I-1D457" d="M297 596Q297 627 318 644T361 661Q378 661 389 651T403 623Q403 595 384 576T340 557Q322 557 310 567T297 596ZM288 376Q288 405 262 405Q240 405 220 393T185 362T161 325T144 293L137 279Q135 278 121 278H107Q101 284 101 286T105 299Q126 348 164 391T252 441Q253 441 260 441T272 442Q296 441 316 432Q341 418 354 401T367 348V332L318 133Q267 -67 264 -75Q246 -125 194 -164T75 -204Q25 -204 7 -183T-12 -137Q-12 -110 7 -91T53 -71Q70 -71 82 -81T95 -112Q95 -148 63 -167Q69 -168 77 -168Q111 -168 139 -140T182 -74L193 -32Q204 11 219 72T251 197T278 308T289 365Q289 372 288 376Z"/>
            </defs>
            <g stroke="currentColor" fill="currentColor" stroke-width="0" transform="scale(1,-1)">
              <g data-mml-node="math">
                <g data-mml-node="mi" data-semantic-type="identifier" data-semantic-role="latinletter" data-semantic-font="italic" data-semantic-annotation="clearspeak:simple" data-semantic-id="0" data-semantic-speech="j">
                  <use data-c="1D457" xlink:href="#intord-to-diagram-exercise1-MJX-2-TEX-I-1D457"/>
                </g>
              </g>
            </g>
          </svg>
        </g>
      </g>
      <circle id="intord-to-diagram-exercise1-node-2" cx="15.0" cy="120.0" r="12" stroke="black" stroke-width="1" fill="#ddd"/>
      <g id="intord-to-diagram-exercise1-label-1" transform="translate(15.0,120.0) translate(-4.7,-6.4)">
        <g id="intord-to-diagram-exercise1-g-1">
          <svg xmlns:xlink="http://www.w3.org/1999/xlink" style="vertical-align: -0.200px" width="9.432px" height="12.760px" role="img" focusable="false" viewBox="0 -694 521 705" x="0.0" y="0.0">
            <defs>
              <path id="intord-to-diagram-exercise1-MJX-3-TEX-I-1D458" d="M121 647Q121 657 125 670T137 683Q138 683 209 688T282 694Q294 694 294 686Q294 679 244 477Q194 279 194 272Q213 282 223 291Q247 309 292 354T362 415Q402 442 438 442Q468 442 485 423T503 369Q503 344 496 327T477 302T456 291T438 288Q418 288 406 299T394 328Q394 353 410 369T442 390L458 393Q446 405 434 405H430Q398 402 367 380T294 316T228 255Q230 254 243 252T267 246T293 238T320 224T342 206T359 180T365 147Q365 130 360 106T354 66Q354 26 381 26Q429 26 459 145Q461 153 479 153H483Q499 153 499 144Q499 139 496 130Q455 -11 378 -11Q333 -11 305 15T277 90Q277 108 280 121T283 145Q283 167 269 183T234 206T200 217T182 220H180Q168 178 159 139T145 81T136 44T129 20T122 7T111 -2Q98 -11 83 -11Q66 -11 57 -1T48 16Q48 26 85 176T158 471L195 616Q196 629 188 632T149 637H144Q134 637 131 637T124 640T121 647Z"/>
            </defs>
            <g stroke="currentColor" fill="currentColor" stroke-width="0" transform="scale(1,-1)">
              <g data-mml-node="math">
                <g data-mml-node="mi" data-semantic-type="identifier" data-semantic-role="latinletter" data-semantic-font="italic" data-semantic-annotation="clearspeak:simple" data-semantic-id="0" data-semantic-speech="k">
                  <use data-c="1D458" xlink:href="#intord-to-diagram-exercise1-MJX-3-TEX-I-1D458"/>
                </g>
              </g>
            </g>
          </svg>
        </g>
      </g>
      <circle id="intord-to-diagram-exercise1-node-3" cx="135.0" cy="82.5" r="12" stroke="black" stroke-width="1" fill="#ddd"/>
      <g id="intord-to-diagram-exercise1-label-2" transform="translate(135.0,82.5) translate(-3.9,-4.1)">
        <g id="intord-to-diagram-exercise1-g-2">
          <svg xmlns:xlink="http://www.w3.org/1999/xlink" style="vertical-align: -0.200px" width="7.840px" height="8.200px" role="img" focusable="false" viewBox="0 -442 433 453" x="0.0" y="0.0">
            <defs>
              <path id="intord-to-diagram-exercise1-MJX-4-TEX-I-1D450" d="M34 159Q34 268 120 355T306 442Q362 442 394 418T427 355Q427 326 408 306T360 285Q341 285 330 295T319 325T330 359T352 380T366 386H367Q367 388 361 392T340 400T306 404Q276 404 249 390Q228 381 206 359Q162 315 142 235T121 119Q121 73 147 50Q169 26 205 26H209Q321 26 394 111Q403 121 406 121Q410 121 419 112T429 98T420 83T391 55T346 25T282 0T202 -11Q127 -11 81 37T34 159Z"/>
            </defs>
            <g stroke="currentColor" fill="currentColor" stroke-width="0" transform="scale(1,-1)">
              <g data-mml-node="math">
                <g data-mml-node="mi" data-semantic-type="identifier" data-semantic-role="latinletter" data-semantic-font="italic" data-semantic-annotation="clearspeak:simple" data-semantic-id="0" data-semantic-speech="c">
                  <use data-c="1D450" xlink:href="#intord-to-diagram-exercise1-MJX-4-TEX-I-1D450"/>
                </g>
              </g>
            </g>
          </svg>
        </g>
      </g>
      <circle id="intord-to-diagram-exercise1-node-4" cx="15.0" cy="315.0" r="12" stroke="black" stroke-width="1" fill="#ddd"/>
      <g id="intord-to-diagram-exercise1-label-3" transform="translate(15.0,315.0) translate(-4.7,-6.4)">
        <g id="intord-to-diagram-exercise1-g-3">
          <svg xmlns:xlink="http://www.w3.org/1999/xlink" style="vertical-align: -0.184px" width="9.408px" height="12.744px" role="img" focusable="false" viewBox="0 -694 520 704" x="0.0" y="0.0">
            <defs>
              <path id="intord-to-diagram-exercise1-MJX-5-TEX-I-1D451" d="M366 683Q367 683 438 688T511 694Q523 694 523 686Q523 679 450 384T375 83T374 68Q374 26 402 26Q411 27 422 35Q443 55 463 131Q469 151 473 152Q475 153 483 153H487H491Q506 153 506 145Q506 140 503 129Q490 79 473 48T445 8T417 -8Q409 -10 393 -10Q359 -10 336 5T306 36L300 51Q299 52 296 50Q294 48 292 46Q233 -10 172 -10Q117 -10 75 30T33 157Q33 205 53 255T101 341Q148 398 195 420T280 442Q336 442 364 400Q369 394 369 396Q370 400 396 505T424 616Q424 629 417 632T378 637H357Q351 643 351 645T353 664Q358 683 366 683ZM352 326Q329 405 277 405Q242 405 210 374T160 293Q131 214 119 129Q119 126 119 118T118 106Q118 61 136 44T179 26Q233 26 290 98L298 109L352 326Z"/>
            </defs>
            <g stroke="currentColor" fill="currentColor" stroke-width="0" transform="scale(1,-1)">
              <g data-mml-node="math">
                <g data-mml-node="mi" data-semantic-type="identifier" data-semantic-role="latinletter" data-semantic-font="italic" data-semantic-annotation="clearspeak:simple" data-semantic-id="0" data-semantic-speech="d">
                  <use data-c="1D451" xlink:href="#intord-to-diagram-exercise1-MJX-5-TEX-I-1D451"/>
                </g>
              </g>
            </g>
          </svg>
        </g>
      </g>
      <circle id="intord-to-diagram-exercise1-node-5" cx="165.0" cy="315.0" r="12" stroke="black" stroke-width="1" fill="#ddd"/>
      <g id="intord-to-diagram-exercise1-label-4" transform="translate(165.0,315.0) translate(-4.2,-4.1)">
        <g id="intord-to-diagram-exercise1-g-4">
          <svg xmlns:xlink="http://www.w3.org/1999/xlink" style="vertical-align: -0.200px" width="8.432px" height="8.200px" role="img" focusable="false" viewBox="0 -442 466 453" x="0.0" y="0.0">
            <defs>
              <path id="intord-to-diagram-exercise1-MJX-6-TEX-I-1D452" d="M39 168Q39 225 58 272T107 350T174 402T244 433T307 442H310Q355 442 388 420T421 355Q421 265 310 237Q261 224 176 223Q139 223 138 221Q138 219 132 186T125 128Q125 81 146 54T209 26T302 45T394 111Q403 121 406 121Q410 121 419 112T429 98T420 82T390 55T344 24T281 -1T205 -11Q126 -11 83 42T39 168ZM373 353Q367 405 305 405Q272 405 244 391T199 357T170 316T154 280T149 261Q149 260 169 260Q282 260 327 284T373 353Z"/>
            </defs>
            <g stroke="currentColor" fill="currentColor" stroke-width="0" transform="scale(1,-1)">
              <g data-mml-node="math">
                <g data-mml-node="mi" data-semantic-type="identifier" data-semantic-role="latinletter" data-semantic-font="italic" data-semantic-annotation="clearspeak:simple" data-semantic-id="0" data-semantic-speech="e">
                  <use data-c="1D452" xlink:href="#intord-to-diagram-exercise1-MJX-6-TEX-I-1D452"/>
                </g>
              </g>
            </g>
          </svg>
        </g>
      </g>
      <circle id="intord-to-diagram-exercise1-node-6" cx="315.0" cy="315.0" r="12" stroke="black" stroke-width="1" fill="#ddd"/>
      <g id="intord-to-diagram-exercise1-label-5" transform="translate(315.0,315.0) translate(-5.0,-8.2)">
        <g id="intord-to-diagram-exercise1-g-5">
          <svg xmlns:xlink="http://www.w3.org/1999/xlink" style="vertical-align: -3.712px" width="9.952px" height="16.472px" role="img" focusable="false" viewBox="0 -705 550 910" x="0.0" y="0.0">
            <defs>
              <path id="intord-to-diagram-exercise1-MJX-7-TEX-I-1D453" d="M118 -162Q120 -162 124 -164T135 -167T147 -168Q160 -168 171 -155T187 -126Q197 -99 221 27T267 267T289 382V385H242Q195 385 192 387Q188 390 188 397L195 425Q197 430 203 430T250 431Q298 431 298 432Q298 434 307 482T319 540Q356 705 465 705Q502 703 526 683T550 630Q550 594 529 578T487 561Q443 561 443 603Q443 622 454 636T478 657L487 662Q471 668 457 668Q445 668 434 658T419 630Q412 601 403 552T387 469T380 433Q380 431 435 431Q480 431 487 430T498 424Q499 420 496 407T491 391Q489 386 482 386T428 385H372L349 263Q301 15 282 -47Q255 -132 212 -173Q175 -205 139 -205Q107 -205 81 -186T55 -132Q55 -95 76 -78T118 -61Q162 -61 162 -103Q162 -122 151 -136T127 -157L118 -162Z"/>
            </defs>
            <g stroke="currentColor" fill="currentColor" stroke-width="0" transform="scale(1,-1)">
              <g data-mml-node="math">
                <g data-mml-node="mi" data-semantic-type="identifier" data-semantic-role="latinletter" data-semantic-font="italic" data-semantic-annotation="clearspeak:simple" data-semantic-id="0" data-semantic-speech="f">
                  <use data-c="1D453" xlink:href="#intord-to-diagram-exercise1-MJX-7-TEX-I-1D453"/>
                </g>
              </g>
            </g>
          </svg>
        </g>
      </g>
      <circle id="intord-to-diagram-exercise1-node-7" cx="315.0" cy="15.0" r="12" stroke="black" stroke-width="1" fill="#ddd"/>
      <g id="intord-to-diagram-exercise1-label-6" transform="translate(315.0,15.0) translate(-4.3,-5.9)">
        <g id="intord-to-diagram-exercise1-g-6">
          <svg xmlns:xlink="http://www.w3.org/1999/xlink" style="vertical-align: -3.712px" width="8.632px" height="11.712px" role="img" focusable="false" viewBox="0 -442 477 647" x="0.0" y="0.0">
            <defs>
              <path id="intord-to-diagram-exercise1-MJX-8-TEX-I-1D454" d="M311 43Q296 30 267 15T206 0Q143 0 105 45T66 160Q66 265 143 353T314 442Q361 442 401 394L404 398Q406 401 409 404T418 412T431 419T447 422Q461 422 470 413T480 394Q480 379 423 152T363 -80Q345 -134 286 -169T151 -205Q10 -205 10 -137Q10 -111 28 -91T74 -71Q89 -71 102 -80T116 -111Q116 -121 114 -130T107 -144T99 -154T92 -162L90 -164H91Q101 -167 151 -167Q189 -167 211 -155Q234 -144 254 -122T282 -75Q288 -56 298 -13Q311 35 311 43ZM384 328L380 339Q377 350 375 354T369 368T359 382T346 393T328 402T306 405Q262 405 221 352Q191 313 171 233T151 117Q151 38 213 38Q269 38 323 108L331 118L384 328Z"/>
            </defs>
            <g stroke="currentColor" fill="currentColor" stroke-width="0" transform="scale(1,-1)">
              <g data-mml-node="math">
                <g data-mml-node="mi" data-semantic-type="identifier" data-semantic-role="latinletter" data-semantic-font="italic" data-semantic-annotation="clearspeak:simple" data-semantic-id="0" data-semantic-speech="g">
                  <use data-c="1D454" xlink:href="#intord-to-diagram-exercise1-MJX-8-TEX-I-1D454"/>
                </g>
              </g>
            </g>
          </svg>
        </g>
      </g>
      <circle id="intord-to-diagram-exercise1-node-8" cx="315.0" cy="75.0" r="12" stroke="black" stroke-width="1" fill="#ddd"/>
      <g id="intord-to-diagram-exercise1-label-7" transform="translate(315.0,75.0) translate(-5.2,-6.4)">
        <g id="intord-to-diagram-exercise1-g-7">
          <svg xmlns:xlink="http://www.w3.org/1999/xlink" style="vertical-align: -0.200px" width="10.424px" height="12.760px" role="img" focusable="false" viewBox="0 -694 576 705" x="0.0" y="0.0">
            <defs>
              <path id="intord-to-diagram-exercise1-MJX-9-TEX-I-210E" d="M137 683Q138 683 209 688T282 694Q294 694 294 685Q294 674 258 534Q220 386 220 383Q220 381 227 388Q288 442 357 442Q411 442 444 415T478 336Q478 285 440 178T402 50Q403 36 407 31T422 26Q450 26 474 56T513 138Q516 149 519 151T535 153Q555 153 555 145Q555 144 551 130Q535 71 500 33Q466 -10 419 -10H414Q367 -10 346 17T325 74Q325 90 361 192T398 345Q398 404 354 404H349Q266 404 205 306L198 293L164 158Q132 28 127 16Q114 -11 83 -11Q69 -11 59 -2T48 16Q48 30 121 320L195 616Q195 629 188 632T149 637H128Q122 643 122 645T124 664Q129 683 137 683Z"/>
            </defs>
            <g stroke="currentColor" fill="currentColor" stroke-width="0" transform="scale(1,-1)">
              <g data-mml-node="math">
                <g data-mml-node="mi" data-semantic-type="identifier" data-semantic-role="latinletter" data-semantic-font="italic" data-semantic-annotation="clearspeak:simple" data-semantic-id="0" data-semantic-speech="h">
                  <use data-c="210E" xlink:href="#intord-to-diagram-exercise1-MJX-9-TEX-I-210E"/>
                </g>
              </g>
            </g>
          </svg>
        </g>
      </g>
      <circle id="intord-to-diagram-exercise1-node-9" cx="112.5" cy="150.0" r="12" stroke="black" stroke-width="1" fill="#ddd"/>
      <g id="intord-to-diagram-exercise1-label-8" transform="translate(112.5,150.0) translate(-3.1,-6.1)">
        <g id="intord-to-diagram-exercise1-g-8">
          <svg xmlns:xlink="http://www.w3.org/1999/xlink" style="vertical-align: -0.200px" width="6.248px" height="12.160px" role="img" focusable="false" viewBox="0 -661 345 672" x="0.0" y="0.0">
            <defs>
              <path id="intord-to-diagram-exercise1-MJX-10-TEX-I-1D456" d="M184 600Q184 624 203 642T247 661Q265 661 277 649T290 619Q290 596 270 577T226 557Q211 557 198 567T184 600ZM21 287Q21 295 30 318T54 369T98 420T158 442Q197 442 223 419T250 357Q250 340 236 301T196 196T154 83Q149 61 149 51Q149 26 166 26Q175 26 185 29T208 43T235 78T260 137Q263 149 265 151T282 153Q302 153 302 143Q302 135 293 112T268 61T223 11T161 -11Q129 -11 102 10T74 74Q74 91 79 106T122 220Q160 321 166 341T173 380Q173 404 156 404H154Q124 404 99 371T61 287Q60 286 59 284T58 281T56 279T53 278T49 278T41 278H27Q21 284 21 287Z"/>
            </defs>
            <g stroke="currentColor" fill="currentColor" stroke-width="0" transform="scale(1,-1)">
              <g data-mml-node="math">
                <g data-mml-node="mi" data-semantic-type="identifier" data-semantic-role="latinletter" data-semantic-font="italic" data-semantic-annotation="clearspeak:simple" data-semantic-id="0" data-semantic-speech="i">
                  <use data-c="1D456" xlink:href="#intord-to-diagram-exercise1-MJX-10-TEX-I-1D456"/>
                </g>
              </g>
            </g>
          </svg>
        </g>
      </g>
    </g>
  </g>
</svg>
