<?xml version="1.0" encoding="UTF-8"?>
<svg xmlns="http://www.w3.org/2000/svg" xmlns:xlink="http://www.w3.org/1999/xlink" width="72pt" height="72pt" viewBox="0 0 72 72" version="1.1">
<g id="surface1">
<path style="fill:none;stroke-width:1;stroke-linecap:butt;stroke-linejoin:miter;stroke:rgb(13.729858%,12.159729%,12.548828%);stroke-opacity:1;stroke-miterlimit:4;" d="M 0.00096875 -0.00096875 L 51.000969 -0.00096875 " transform="matrix(1,0,0,-1,11.667,3.667)"/>
<path style="fill:none;stroke-width:1;stroke-linecap:butt;stroke-linejoin:miter;stroke:rgb(13.729858%,12.159729%,12.548828%);stroke-opacity:1;stroke-miterlimit:4;" d="M 0.00096875 -0.00096875 L -50.51075 -31.141594 " transform="matrix(1,0,0,-1,62.667,3.667)"/>
<path style="fill:none;stroke-width:1;stroke-linecap:butt;stroke-linejoin:miter;stroke:rgb(13.729858%,12.159729%,12.548828%);stroke-opacity:1;stroke-miterlimit:4;" d="M -0.00005 -0.00099375 L 49.831981 -31.165056 " transform="matrix(1,0,0,-1,12.1563,34.8076)"/>
<path style="fill:none;stroke-width:1;stroke-linecap:butt;stroke-linejoin:miter;stroke:rgb(13.729858%,12.159729%,12.548828%);stroke-opacity:1;stroke-miterlimit:4;" d="M -0.00101875 0.00194375 L -50.001019 0.00194375 " transform="matrix(1,0,0,-1,61.9893,65.9746)"/>
<path style="fill:none;stroke-width:1;stroke-linecap:butt;stroke-linejoin:miter;stroke:rgb(13.729858%,12.159729%,12.548828%);stroke-opacity:1;stroke-miterlimit:4;" d="M -0.00101875 0.00194375 L 50.16695 31.166006 " transform="matrix(1,0,0,-1,11.9893,65.9746)"/>
<path style="fill:none;stroke-width:1;stroke-linecap:butt;stroke-linejoin:miter;stroke:rgb(13.729858%,12.159729%,12.548828%);stroke-opacity:1;stroke-miterlimit:4;" d="M -0.00005 -0.00149375 L -48.6563 0.139131 " transform="matrix(1,0,0,-1,62.1563,34.8071)"/>
<path style="fill:none;stroke-width:1;stroke-linecap:butt;stroke-linejoin:miter;stroke:rgb(13.729858%,12.159729%,12.548828%);stroke-opacity:1;stroke-miterlimit:4;" d="M 0.00096875 -0.00096875 L 50.333 -31.500969 " transform="matrix(1,0,0,-1,11.667,3.667)"/>
<path style="fill:none;stroke-width:1;stroke-linecap:butt;stroke-linejoin:miter;stroke:rgb(13.729858%,12.159729%,12.548828%);stroke-opacity:1;stroke-miterlimit:4;" d="M -0.00005 -0.000025 L -50.168019 -62.332056 " transform="matrix(1,0,0,-1,62.1563,3.6406)"/>
<path style="fill:none;stroke-width:1;stroke-linecap:butt;stroke-linejoin:miter;stroke:rgb(13.729858%,12.159729%,12.548828%);stroke-opacity:1;stroke-miterlimit:4;" d="M 0.0019375 -0.0019375 L -50.17775 62.693375 " transform="matrix(1,0,0,-1,62.334,66.334)"/>
<path style=" stroke:none;fill-rule:nonzero;fill:rgb(96.403503%,78.808594%,42.222595%);fill-opacity:1;" d="M 14.65625 3.640625 C 14.65625 5.023438 13.539062 6.140625 12.15625 6.140625 C 10.773438 6.140625 9.65625 5.023438 9.65625 3.640625 C 9.65625 2.261719 10.773438 1.140625 12.15625 1.140625 C 13.539062 1.140625 14.65625 2.261719 14.65625 3.640625 "/>
<path style="fill:none;stroke-width:1;stroke-linecap:butt;stroke-linejoin:miter;stroke:rgb(13.729858%,12.159729%,12.548828%);stroke-opacity:1;stroke-miterlimit:4;" d="M -0.00005 0.000475 C -0.00005 -1.382337 -1.117237 -2.499525 -2.50005 -2.499525 C -3.882862 -2.499525 -5.00005 -1.382337 -5.00005 0.000475 C -5.00005 1.379381 -3.882862 2.500475 -2.50005 2.500475 C -1.117237 2.500475 -0.00005 1.379381 -0.00005 0.000475 Z M -0.00005 0.000475 " transform="matrix(1,0,0,-1,14.6563,3.6411)"/>
<path style=" stroke:none;fill-rule:nonzero;fill:rgb(96.403503%,78.808594%,42.222595%);fill-opacity:1;" d="M 14.65625 34.808594 C 14.65625 36.1875 13.539062 37.308594 12.15625 37.308594 C 10.773438 37.308594 9.65625 36.1875 9.65625 34.808594 C 9.65625 33.425781 10.773438 32.308594 12.15625 32.308594 C 13.539062 32.308594 14.65625 33.425781 14.65625 34.808594 "/>
<path style="fill:none;stroke-width:1;stroke-linecap:butt;stroke-linejoin:miter;stroke:rgb(13.729858%,12.159729%,12.548828%);stroke-opacity:1;stroke-miterlimit:4;" d="M -0.00005 -0.00099375 C -0.00005 -1.3799 -1.117237 -2.500994 -2.50005 -2.500994 C -3.882862 -2.500994 -5.00005 -1.3799 -5.00005 -0.00099375 C -5.00005 1.381819 -3.882862 2.499006 -2.50005 2.499006 C -1.117237 2.499006 -0.00005 1.381819 -0.00005 -0.00099375 Z M -0.00005 -0.00099375 " transform="matrix(1,0,0,-1,14.6563,34.8076)"/>
<path style=" stroke:none;fill-rule:nonzero;fill:rgb(96.403503%,78.808594%,42.222595%);fill-opacity:1;" d="M 14.488281 65.972656 C 14.488281 67.355469 13.371094 68.472656 11.988281 68.472656 C 10.609375 68.472656 9.488281 67.355469 9.488281 65.972656 C 9.488281 64.59375 10.609375 63.472656 11.988281 63.472656 C 13.371094 63.472656 14.488281 64.59375 14.488281 65.972656 "/>
<path style="fill:none;stroke-width:1;stroke-linecap:butt;stroke-linejoin:miter;stroke:rgb(13.729858%,12.159729%,12.548828%);stroke-opacity:1;stroke-miterlimit:4;" d="M -0.00101875 0.00194375 C -0.00101875 -1.380869 -1.118206 -2.498056 -2.501019 -2.498056 C -3.879925 -2.498056 -5.001019 -1.380869 -5.001019 0.00194375 C -5.001019 1.38085 -3.879925 2.501944 -2.501019 2.501944 C -1.118206 2.501944 -0.00101875 1.38085 -0.00101875 0.00194375 Z M -0.00101875 0.00194375 " transform="matrix(1,0,0,-1,14.4893,65.9746)"/>
<path style=" stroke:none;fill-rule:nonzero;fill:rgb(96.403503%,78.808594%,42.222595%);fill-opacity:1;" d="M 64.65625 3.640625 C 64.65625 5.023438 63.539062 6.140625 62.15625 6.140625 C 60.773438 6.140625 59.65625 5.023438 59.65625 3.640625 C 59.65625 2.257812 60.773438 1.140625 62.15625 1.140625 C 63.539062 1.140625 64.65625 2.257812 64.65625 3.640625 "/>
<path style="fill:none;stroke-width:1;stroke-linecap:butt;stroke-linejoin:miter;stroke:rgb(13.729858%,12.159729%,12.548828%);stroke-opacity:1;stroke-miterlimit:4;" d="M -0.00005 -0.000025 C -0.00005 -1.382837 -1.117237 -2.500025 -2.50005 -2.500025 C -3.882862 -2.500025 -5.00005 -1.382837 -5.00005 -0.000025 C -5.00005 1.382788 -3.882862 2.499975 -2.50005 2.499975 C -1.117237 2.499975 -0.00005 1.382788 -0.00005 -0.000025 Z M -0.00005 -0.000025 " transform="matrix(1,0,0,-1,64.6563,3.6406)"/>
<path style=" stroke:none;fill-rule:nonzero;fill:rgb(96.403503%,78.808594%,42.222595%);fill-opacity:1;" d="M 64.65625 34.808594 C 64.65625 36.1875 63.539062 37.308594 62.15625 37.308594 C 60.773438 37.308594 59.65625 36.1875 59.65625 34.808594 C 59.65625 33.425781 60.773438 32.308594 62.15625 32.308594 C 63.539062 32.308594 64.65625 33.425781 64.65625 34.808594 "/>
<path style="fill:none;stroke-width:1;stroke-linecap:butt;stroke-linejoin:miter;stroke:rgb(13.729858%,12.159729%,12.548828%);stroke-opacity:1;stroke-miterlimit:4;" d="M -0.00005 -0.00149375 C -0.00005 -1.3804 -1.117237 -2.501494 -2.50005 -2.501494 C -3.882862 -2.501494 -5.00005 -1.3804 -5.00005 -0.00149375 C -5.00005 1.381319 -3.882862 2.498506 -2.50005 2.498506 C -1.117237 2.498506 -0.00005 1.381319 -0.00005 -0.00149375 Z M -0.00005 -0.00149375 " transform="matrix(1,0,0,-1,64.6563,34.8071)"/>
<path style=" stroke:none;fill-rule:nonzero;fill:rgb(96.403503%,78.808594%,42.222595%);fill-opacity:1;" d="M 64.488281 65.972656 C 64.488281 67.355469 63.371094 68.472656 61.988281 68.472656 C 60.609375 68.472656 59.488281 67.355469 59.488281 65.972656 C 59.488281 64.59375 60.609375 63.472656 61.988281 63.472656 C 63.371094 63.472656 64.488281 64.59375 64.488281 65.972656 "/>
<path style="fill:none;stroke-width:1;stroke-linecap:butt;stroke-linejoin:miter;stroke:rgb(13.729858%,12.159729%,12.548828%);stroke-opacity:1;stroke-miterlimit:4;" d="M -0.00101875 0.00194375 C -0.00101875 -1.380869 -1.118206 -2.498056 -2.501019 -2.498056 C -3.879925 -2.498056 -5.001019 -1.380869 -5.001019 0.00194375 C -5.001019 1.38085 -3.879925 2.501944 -2.501019 2.501944 C -1.118206 2.501944 -0.00101875 1.38085 -0.00101875 0.00194375 Z M -0.00101875 0.00194375 " transform="matrix(1,0,0,-1,64.4893,65.9746)"/>
</g>
</svg>
