<?xml version="1.0" encoding="UTF-8"?>
<svg xmlns="http://www.w3.org/2000/svg" xmlns:xlink="http://www.w3.org/1999/xlink" width="68.334pt" height="56.167pt" viewBox="0 0 68.334 56.167" version="1.1">
<defs>
<clipPath id="clip1">
  <path d="M 0 0 L 40 0 L 40 56.167969 L 0 56.167969 Z M 0 0 "/>
</clipPath>
<clipPath id="clip2">
  <path d="M 28 0 L 68.335938 0 L 68.335938 56.167969 L 28 56.167969 Z M 28 0 "/>
</clipPath>
<clipPath id="clip3">
  <path d="M 28 0 L 68.335938 0 L 68.335938 56.167969 L 28 56.167969 Z M 28 0 "/>
</clipPath>
<clipPath id="clip4">
  <path d="M 28 0 L 40 0 L 40 56.167969 L 28 56.167969 Z M 28 0 "/>
</clipPath>
<clipPath id="clip5">
  <path d="M 0 0 L 41 0 L 41 56.167969 L 0 56.167969 Z M 0 0 "/>
</clipPath>
<clipPath id="clip6">
  <path d="M 0 44 L 12 44 L 12 56.167969 L 0 56.167969 Z M 0 44 "/>
</clipPath>
<clipPath id="clip7">
  <path d="M 26 44 L 43 44 L 43 56.167969 L 26 56.167969 Z M 26 44 "/>
</clipPath>
<clipPath id="clip8">
  <path d="M 57 45 L 68.335938 45 L 68.335938 56.167969 L 57 56.167969 Z M 57 45 "/>
</clipPath>
<clipPath id="clip9">
  <path d="M 57 0 L 68.335938 0 L 68.335938 12 L 57 12 Z M 57 0 "/>
</clipPath>
</defs>
<g id="surface1">
<path style="fill:none;stroke-width:1;stroke-linecap:butt;stroke-linejoin:miter;stroke:rgb(13.729858%,12.159729%,12.548828%);stroke-opacity:1;stroke-miterlimit:4;" d="M 0.00094375 0.00101875 L 0.00094375 51.001019 " transform="matrix(1,0,0,-1,3.0264,53.4893)"/>
<g clip-path="url(#clip1)" clip-rule="nonzero">
<path style="fill:none;stroke-width:1;stroke-linecap:butt;stroke-linejoin:miter;stroke:rgb(13.729858%,12.159729%,12.548828%);stroke-opacity:1;stroke-miterlimit:4;" d="M 0.00094375 0.00101875 L 31.141569 -50.5107 " transform="matrix(1,0,0,-1,3.0264,2.4893)"/>
</g>
<g clip-path="url(#clip2)" clip-rule="nonzero">
<path style="fill:none;stroke-width:1;stroke-linecap:butt;stroke-linejoin:miter;stroke:rgb(13.729858%,12.159729%,12.548828%);stroke-opacity:1;stroke-miterlimit:4;" d="M 0.00096875 0 L 31.168937 49.832031 " transform="matrix(1,0,0,-1,34.167,53)"/>
</g>
<path style="fill:none;stroke-width:1;stroke-linecap:butt;stroke-linejoin:miter;stroke:rgb(13.729858%,12.159729%,12.548828%);stroke-opacity:1;stroke-miterlimit:4;" d="M 0.0019375 -0.00096875 L 0.0019375 -50.000969 " transform="matrix(1,0,0,-1,65.334,3.167)"/>
<g clip-path="url(#clip3)" clip-rule="nonzero">
<path style="fill:none;stroke-width:1;stroke-linecap:butt;stroke-linejoin:miter;stroke:rgb(13.729858%,12.159729%,12.548828%);stroke-opacity:1;stroke-miterlimit:4;" d="M 0.0019375 -0.00096875 L -31.166031 50.167 " transform="matrix(1,0,0,-1,65.334,53.167)"/>
</g>
<g clip-path="url(#clip4)" clip-rule="nonzero">
<path style="fill:none;stroke-width:1;stroke-linecap:butt;stroke-linejoin:miter;stroke:rgb(13.729858%,12.159729%,12.548828%);stroke-opacity:1;stroke-miterlimit:4;" d="M 0.00146875 0 L -0.139156 -48.65625 " transform="matrix(1,0,0,-1,34.1665,3)"/>
</g>
<g clip-path="url(#clip5)" clip-rule="nonzero">
<path style="fill:none;stroke-width:1;stroke-linecap:butt;stroke-linejoin:miter;stroke:rgb(13.729858%,12.159729%,12.548828%);stroke-opacity:1;stroke-miterlimit:4;" d="M 0.00094375 0.00101875 L 31.500944 50.33305 " transform="matrix(1,0,0,-1,3.0264,53.4893)"/>
</g>
<path style="fill:none;stroke-width:1;stroke-linecap:butt;stroke-linejoin:miter;stroke:rgb(13.729858%,12.159729%,12.548828%);stroke-opacity:1;stroke-miterlimit:4;" d="M 0 0 L 62.335938 -50.167969 " transform="matrix(1,0,0,-1,3,3)"/>
<path style="fill:none;stroke-width:1;stroke-linecap:butt;stroke-linejoin:miter;stroke:rgb(13.729858%,12.159729%,12.548828%);stroke-opacity:1;stroke-miterlimit:4;" d="M 0.0019125 -0.00191875 L -62.6934 -50.1777 " transform="matrix(1,0,0,-1,65.6934,2.8223)"/>
<path style=" stroke:none;fill-rule:nonzero;fill:rgb(96.403503%,78.808594%,42.222595%);fill-opacity:1;" d="M 3 50.5 C 4.382812 50.5 5.5 51.617188 5.5 53 C 5.5 54.382812 4.382812 55.5 3 55.5 C 1.621094 55.5 0.5 54.382812 0.5 53 C 0.5 51.617188 1.621094 50.5 3 50.5 "/>
<g clip-path="url(#clip6)" clip-rule="nonzero">
<path style="fill:none;stroke-width:1;stroke-linecap:butt;stroke-linejoin:miter;stroke:rgb(13.729858%,12.159729%,12.548828%);stroke-opacity:1;stroke-miterlimit:4;" d="M -0.0005 0 C 1.382312 0 2.4995 -1.117188 2.4995 -2.5 C 2.4995 -3.882812 1.382312 -5 -0.0005 -5 C -1.379406 -5 -2.5005 -3.882812 -2.5005 -2.5 C -2.5005 -1.117188 -1.379406 0 -0.0005 0 Z M -0.0005 0 " transform="matrix(1,0,0,-1,3.0005,50.5)"/>
</g>
<path style=" stroke:none;fill-rule:nonzero;fill:rgb(96.403503%,78.808594%,42.222595%);fill-opacity:1;" d="M 34.167969 50.5 C 35.546875 50.5 36.667969 51.617188 36.667969 53 C 36.667969 54.382812 35.546875 55.5 34.167969 55.5 C 32.785156 55.5 31.667969 54.382812 31.667969 53 C 31.667969 51.617188 32.785156 50.5 34.167969 50.5 "/>
<g clip-path="url(#clip7)" clip-rule="nonzero">
<path style="fill:none;stroke-width:1;stroke-linecap:butt;stroke-linejoin:miter;stroke:rgb(13.729858%,12.159729%,12.548828%);stroke-opacity:1;stroke-miterlimit:4;" d="M 0.00096875 0 C 1.379875 0 2.500969 -1.117188 2.500969 -2.5 C 2.500969 -3.882812 1.379875 -5 0.00096875 -5 C -1.381844 -5 -2.499031 -3.882812 -2.499031 -2.5 C -2.499031 -1.117188 -1.381844 0 0.00096875 0 Z M 0.00096875 0 " transform="matrix(1,0,0,-1,34.167,50.5)"/>
</g>
<path style=" stroke:none;fill-rule:nonzero;fill:rgb(96.403503%,78.808594%,42.222595%);fill-opacity:1;" d="M 65.335938 50.667969 C 66.714844 50.667969 67.835938 51.785156 67.835938 53.167969 C 67.835938 54.546875 66.714844 55.667969 65.335938 55.667969 C 63.953125 55.667969 62.835938 54.546875 62.835938 53.167969 C 62.835938 51.785156 63.953125 50.667969 65.335938 50.667969 "/>
<g clip-path="url(#clip8)" clip-rule="nonzero">
<path style="fill:none;stroke-width:1;stroke-linecap:butt;stroke-linejoin:miter;stroke:rgb(13.729858%,12.159729%,12.548828%);stroke-opacity:1;stroke-miterlimit:4;" d="M 0.0019375 -0.00096875 C 1.380844 -0.00096875 2.501937 -1.118156 2.501937 -2.500969 C 2.501937 -3.879875 1.380844 -5.000969 0.0019375 -5.000969 C -1.380875 -5.000969 -2.498063 -3.879875 -2.498063 -2.500969 C -2.498063 -1.118156 -1.380875 -0.00096875 0.0019375 -0.00096875 Z M 0.0019375 -0.00096875 " transform="matrix(1,0,0,-1,65.334,50.667)"/>
</g>
<path style=" stroke:none;fill-rule:nonzero;fill:rgb(96.403503%,78.808594%,42.222595%);fill-opacity:1;" d="M 3 0.5 C 4.382812 0.5 5.5 1.617188 5.5 3 C 5.5 4.382812 4.382812 5.5 3 5.5 C 1.617188 5.5 0.5 4.382812 0.5 3 C 0.5 1.617188 1.617188 0.5 3 0.5 "/>
<path style="fill:none;stroke-width:1;stroke-linecap:butt;stroke-linejoin:miter;stroke:rgb(13.729858%,12.159729%,12.548828%);stroke-opacity:1;stroke-miterlimit:4;" d="M 0 0 C 1.382812 0 2.5 -1.117188 2.5 -2.5 C 2.5 -3.882812 1.382812 -5 0 -5 C -1.382812 -5 -2.5 -3.882812 -2.5 -2.5 C -2.5 -1.117188 -1.382812 0 0 0 Z M 0 0 " transform="matrix(1,0,0,-1,3,0.5)"/>
<path style=" stroke:none;fill-rule:nonzero;fill:rgb(96.403503%,78.808594%,42.222595%);fill-opacity:1;" d="M 34.167969 0.5 C 35.546875 0.5 36.664062 1.617188 36.664062 3 C 36.664062 4.382812 35.546875 5.5 34.167969 5.5 C 32.785156 5.5 31.667969 4.382812 31.667969 3 C 31.667969 1.617188 32.785156 0.5 34.167969 0.5 "/>
<path style="fill:none;stroke-width:1;stroke-linecap:butt;stroke-linejoin:miter;stroke:rgb(13.729858%,12.159729%,12.548828%);stroke-opacity:1;stroke-miterlimit:4;" d="M 0.00146875 0 C 1.380375 0 2.497562 -1.117188 2.497562 -2.5 C 2.497562 -3.882812 1.380375 -5 0.00146875 -5 C -1.381344 -5 -2.498531 -3.882812 -2.498531 -2.5 C -2.498531 -1.117188 -1.381344 0 0.00146875 0 Z M 0.00146875 0 " transform="matrix(1,0,0,-1,34.1665,0.5)"/>
<path style=" stroke:none;fill-rule:nonzero;fill:rgb(96.403503%,78.808594%,42.222595%);fill-opacity:1;" d="M 65.335938 0.667969 C 66.714844 0.667969 67.835938 1.785156 67.835938 3.167969 C 67.835938 4.546875 66.714844 5.667969 65.335938 5.667969 C 63.953125 5.667969 62.835938 4.546875 62.835938 3.167969 C 62.835938 1.785156 63.953125 0.667969 65.335938 0.667969 "/>
<g clip-path="url(#clip9)" clip-rule="nonzero">
<path style="fill:none;stroke-width:1;stroke-linecap:butt;stroke-linejoin:miter;stroke:rgb(13.729858%,12.159729%,12.548828%);stroke-opacity:1;stroke-miterlimit:4;" d="M 0.0019375 -0.00096875 C 1.380844 -0.00096875 2.501937 -1.118156 2.501937 -2.500969 C 2.501937 -3.879875 1.380844 -5.000969 0.0019375 -5.000969 C -1.380875 -5.000969 -2.498063 -3.879875 -2.498063 -2.500969 C -2.498063 -1.118156 -1.380875 -0.00096875 0.0019375 -0.00096875 Z M 0.0019375 -0.00096875 " transform="matrix(1,0,0,-1,65.334,0.667)"/>
</g>
</g>
</svg>
