<?xml version="1.0" encoding="UTF-8"?>
<svg xmlns="http://www.w3.org/2000/svg" xmlns:xlink="http://www.w3.org/1999/xlink" width="500pt" height="400pt" viewBox="0 0 500 400" version="1.1">
<g id="surface1">
<path style=" stroke:none;fill-rule:nonzero;fill:rgb(100%,100%,100%);fill-opacity:1;" d="M 126.738281 50.425781 C 126.738281 61.023438 110.230469 69.617188 89.867188 69.617188 C 69.507812 69.617188 53 61.023438 53 50.425781 C 53 39.824219 69.507812 31.230469 89.867188 31.230469 C 110.230469 31.230469 126.738281 39.824219 126.738281 50.425781 "/>
<path style="fill:none;stroke-width:1;stroke-linecap:butt;stroke-linejoin:miter;stroke:rgb(13.729858%,12.159729%,12.548828%);stroke-opacity:1;stroke-miterlimit:4;" d="M 0.00098125 -0.00148125 C 0.00098125 -10.599137 -16.506831 -19.192887 -36.870113 -19.192887 C -57.229488 -19.192887 -73.7373 -10.599137 -73.7373 -0.00148125 C -73.7373 10.600081 -57.229488 19.193831 -36.870113 19.193831 C -16.506831 19.193831 0.00098125 10.600081 0.00098125 -0.00148125 Z M 0.00098125 -0.00148125 " transform="matrix(1,0,0,-1,126.7373,50.4243)"/>
<path style="fill:none;stroke-width:1;stroke-linecap:butt;stroke-linejoin:miter;stroke:rgb(13.729858%,12.159729%,12.548828%);stroke-opacity:1;stroke-miterlimit:4;" d="M 0.00146875 0.0000375 C -19.553219 -5.246056 -43.139156 -10.0234 -43.139156 -18.777306 C -43.139156 -28.328087 -7.76025 -32.308556 11.794438 -38.671837 " transform="matrix(1,0,0,-1,193.229,27.9141)"/>
<path style="fill:none;stroke-width:1;stroke-linecap:butt;stroke-linejoin:miter;stroke:rgb(13.729858%,12.159729%,12.548828%);stroke-opacity:1;stroke-miterlimit:4;" d="M 0.0009625 -0.00145 L 193.938463 21.213394 " transform="matrix(1,0,0,-1,6.5381,29.7173)"/>
<path style="fill:none;stroke-width:1;stroke-linecap:butt;stroke-linejoin:miter;stroke:rgb(13.729858%,12.159729%,12.548828%);stroke-opacity:1;stroke-miterlimit:4;" d="M 0.001 0.0014875 L 187.372094 -1.514138 " transform="matrix(1,0,0,-1,15.124,77.6968)"/>
<path style="fill:none;stroke-width:1;stroke-linecap:butt;stroke-linejoin:miter;stroke:rgb(13.729858%,12.159729%,12.548828%);stroke-opacity:1;stroke-miterlimit:4;" d="M -0.00000625 0.00094375 L 45.3789 0.00094375 " transform="matrix(1,0,0,-1,115.1211,50.7861)"/>
<path style="fill:none;stroke-width:1;stroke-linecap:butt;stroke-linejoin:miter;stroke:rgb(13.729858%,12.159729%,12.548828%);stroke-opacity:1;stroke-miterlimit:4;" d="M 0 0 L 0 4.179688 " transform="matrix(1,0,0,-1,160.5,54.5)"/>
<path style="fill:none;stroke-width:1;stroke-linecap:butt;stroke-linejoin:miter;stroke:rgb(13.729858%,12.159729%,12.548828%);stroke-opacity:1;stroke-miterlimit:4;" d="M -0.0000125 0.00193125 L -0.0000125 4.177712 " transform="matrix(1,0,0,-1,115.6172,54.7324)"/>
<path style="fill:none;stroke-width:1;stroke-linecap:butt;stroke-linejoin:miter;stroke:rgb(13.729858%,12.159729%,12.548828%);stroke-opacity:1;stroke-miterlimit:4;" d="M 0.000000000000014211 -0.00044375 L 45.378906 -0.00044375 " transform="matrix(1,0,0,-1,114.625,45.2144)"/>
<path style="fill:none;stroke-width:1;stroke-linecap:butt;stroke-linejoin:miter;stroke:rgb(13.729858%,12.159729%,12.548828%);stroke-opacity:1;stroke-miterlimit:4;" d="M 0.00000625 0 L 0.00000625 -4.179688 " transform="matrix(1,0,0,-1,160.0039,41.5)"/>
<path style="fill:none;stroke-width:1;stroke-linecap:butt;stroke-linejoin:miter;stroke:rgb(13.729858%,12.159729%,12.548828%);stroke-opacity:1;stroke-miterlimit:4;" d="M -0.00000625 -0.00143125 L -0.00000625 -4.177212 " transform="matrix(1,0,0,-1,115.1211,41.2681)"/>
<path style="fill:none;stroke-width:1;stroke-linecap:butt;stroke-linejoin:miter;stroke:rgb(13.729858%,12.159729%,12.548828%);stroke-opacity:1;stroke-miterlimit:4;" d="M -0.00004375 0.00145625 L 11.492144 -26.213387 " transform="matrix(1,0,0,-1,58.6602,16.2163)"/>
<path style="fill:none;stroke-width:1;stroke-linecap:butt;stroke-linejoin:miter;stroke:rgb(13.729858%,12.159729%,12.548828%);stroke-opacity:1;stroke-miterlimit:4;" d="M 0.00190625 0.0019125 L 2.419875 1.0566 " transform="matrix(1,0,0,-1,68.002,43.3691)"/>
<path style="fill:none;stroke-width:1;stroke-linecap:butt;stroke-linejoin:miter;stroke:rgb(13.729858%,12.159729%,12.548828%);stroke-opacity:1;stroke-miterlimit:4;" d="M 0 0 L 2.421875 1.054688 " transform="matrix(1,0,0,-1,56.5,17.5)"/>
<path style="fill:none;stroke-width:1;stroke-linecap:butt;stroke-linejoin:miter;stroke:rgb(13.729858%,12.159729%,12.548828%);stroke-opacity:1;stroke-miterlimit:4;" d="M -0.00048125 -0.0009375 L 11.491706 -26.215781 " transform="matrix(1,0,0,-1,61.7622,14.5225)"/>
<path style="fill:none;stroke-width:1;stroke-linecap:butt;stroke-linejoin:miter;stroke:rgb(13.729858%,12.159729%,12.548828%);stroke-opacity:1;stroke-miterlimit:4;" d="M -0.00005 0.001925 L -2.421925 -1.056669 " transform="matrix(1,0,0,-1,75.4063,39.7988)"/>
<path style="fill:none;stroke-width:1;stroke-linecap:butt;stroke-linejoin:miter;stroke:rgb(13.729858%,12.159729%,12.548828%);stroke-opacity:1;stroke-miterlimit:4;" d="M -0.001925 0 L -2.419894 -1.054688 " transform="matrix(1,0,0,-1,64.1738,13.8125)"/>
<path style="fill:none;stroke-width:1;stroke-linecap:butt;stroke-linejoin:miter;stroke:rgb(13.729858%,12.159729%,12.548828%);stroke-opacity:1;stroke-miterlimit:4;" d="M 0.00094375 0.00093125 L -19.698275 -27.225631 " transform="matrix(1,0,0,-1,70.9639,62.6689)"/>
<path style="fill:none;stroke-width:1;stroke-linecap:butt;stroke-linejoin:miter;stroke:rgb(13.729858%,12.159729%,12.548828%);stroke-opacity:1;stroke-miterlimit:4;" d="M 0 0 L -2.515625 1.808594 " transform="matrix(1,0,0,-1,53.5,91.5)"/>
<path style="fill:none;stroke-width:1;stroke-linecap:butt;stroke-linejoin:miter;stroke:rgb(13.729858%,12.159729%,12.548828%);stroke-opacity:1;stroke-miterlimit:4;" d="M 0.0005 0.001925 L -2.515125 1.806613 " transform="matrix(1,0,0,-1,73.1245,64.6738)"/>
<path style="fill:none;stroke-width:1;stroke-linecap:butt;stroke-linejoin:miter;stroke:rgb(13.729858%,12.159729%,12.548828%);stroke-opacity:1;stroke-miterlimit:4;" d="M -0.00098125 -0.0000375 L -19.7002 -27.2266 " transform="matrix(1,0,0,-1,67.8252,59.9609)"/>
<path style="fill:none;stroke-width:1;stroke-linecap:butt;stroke-linejoin:miter;stroke:rgb(13.729858%,12.159729%,12.548828%);stroke-opacity:1;stroke-miterlimit:4;" d="M 0.001925 0.000475 L 2.51755 -1.808119 " transform="matrix(1,0,0,-1,45.8887,85.5786)"/>
<path style="fill:none;stroke-width:1;stroke-linecap:butt;stroke-linejoin:miter;stroke:rgb(13.729858%,12.159729%,12.548828%);stroke-opacity:1;stroke-miterlimit:4;" d="M 0.001475 0.00101875 L 2.5171 -1.807575 " transform="matrix(1,0,0,-1,65.2329,58.5518)"/>
<path style="fill:none;stroke-width:1;stroke-linecap:butt;stroke-linejoin:miter;stroke:rgb(13.729858%,12.159729%,12.548828%);stroke-opacity:1;stroke-miterlimit:4;" d="M 0.0005125 -0.0014375 L 10.910669 -26.286594 " transform="matrix(1,0,0,-1,105.1323,65.772)"/>
<path style="fill:none;stroke-width:1;stroke-linecap:butt;stroke-linejoin:miter;stroke:rgb(13.729858%,12.159729%,12.548828%);stroke-opacity:1;stroke-miterlimit:4;" d="M 0 0 L 2.296875 1.058594 " transform="matrix(1,0,0,-1,114,93)"/>
<path style="fill:none;stroke-width:1;stroke-linecap:butt;stroke-linejoin:miter;stroke:rgb(13.729858%,12.159729%,12.548828%);stroke-opacity:1;stroke-miterlimit:4;" d="M 0.00053125 0.00050625 L 2.297406 1.0591 " transform="matrix(1,0,0,-1,103.0815,67.0591)"/>
<path style="fill:none;stroke-width:1;stroke-linecap:butt;stroke-linejoin:miter;stroke:rgb(13.729858%,12.159729%,12.548828%);stroke-opacity:1;stroke-miterlimit:4;" d="M 0.001425 -0.00101875 L 10.911581 -26.286175 " transform="matrix(1,0,0,-1,108.0767,64.0732)"/>
<path style="fill:none;stroke-width:1;stroke-linecap:butt;stroke-linejoin:miter;stroke:rgb(13.729858%,12.159729%,12.548828%);stroke-opacity:1;stroke-miterlimit:4;" d="M -0.00145625 0.00193125 L -2.298331 -1.056662 " transform="matrix(1,0,0,-1,121.0288,89.4199)"/>
<path style="fill:none;stroke-width:1;stroke-linecap:butt;stroke-linejoin:miter;stroke:rgb(13.729858%,12.159729%,12.548828%);stroke-opacity:1;stroke-miterlimit:4;" d="M 0.0014875 0.001925 L -2.299294 -1.060575 " transform="matrix(1,0,0,-1,110.3657,63.3613)"/>
<path style="fill:none;stroke-width:1;stroke-linecap:butt;stroke-linejoin:miter;stroke:rgb(13.729858%,12.159729%,12.548828%);stroke-opacity:1;stroke-miterlimit:4;" d="M 0.0000125 -0.001425 L -9.429675 -27.6108 " transform="matrix(1,0,0,-1,110.1328,13.3267)"/>
<path style="fill:none;stroke-width:1;stroke-linecap:butt;stroke-linejoin:miter;stroke:rgb(13.729858%,12.159729%,12.548828%);stroke-opacity:1;stroke-miterlimit:4;" d="M -0.0004875 -0.00193125 L -3.78955 0.5801 " transform="matrix(1,0,0,-1,104.0708,41.4551)"/>
<path style="fill:none;stroke-width:1;stroke-linecap:butt;stroke-linejoin:miter;stroke:rgb(13.729858%,12.159729%,12.548828%);stroke-opacity:1;stroke-miterlimit:4;" d="M 0.000475 -0.0009875 L -3.788587 0.58495 " transform="matrix(1,0,0,-1,113.6089,14.1787)"/>
<path style="fill:none;stroke-width:1;stroke-linecap:butt;stroke-linejoin:miter;stroke:rgb(13.729858%,12.159729%,12.548828%);stroke-opacity:1;stroke-miterlimit:4;" d="M 0.00149375 -0.0015 L -9.428194 -27.610875 " transform="matrix(1,0,0,-1,105.1821,12.2485)"/>
<path style="fill:none;stroke-width:1;stroke-linecap:butt;stroke-linejoin:miter;stroke:rgb(13.729858%,12.159729%,12.548828%);stroke-opacity:1;stroke-miterlimit:4;" d="M -0.0004875 0.00095625 L 3.788575 -0.581075 " transform="matrix(1,0,0,-1,92.3833,39.3408)"/>
<path style="fill:none;stroke-width:1;stroke-linecap:butt;stroke-linejoin:miter;stroke:rgb(13.729858%,12.159729%,12.548828%);stroke-opacity:1;stroke-miterlimit:4;" d="M 0 0 L 3.789062 -0.582031 " transform="matrix(1,0,0,-1,101.5,12)"/>
<path style="fill:none;stroke-width:1;stroke-linecap:butt;stroke-linejoin:miter;stroke:rgb(13.729858%,12.159729%,12.548828%);stroke-opacity:1;stroke-miterlimit:4;" d="M 0.0000125 -0.0010125 L 13.27345 -28.700231 " transform="matrix(1,0,0,-1,165.6328,7.1318)"/>
<path style="fill:none;stroke-width:1;stroke-linecap:butt;stroke-linejoin:miter;stroke:rgb(13.729858%,12.159729%,12.548828%);stroke-opacity:1;stroke-miterlimit:4;" d="M 0.000975 0.001925 L 2.793944 1.154269 " transform="matrix(1,0,0,-1,176.4209,36.8613)"/>
<path style="fill:none;stroke-width:1;stroke-linecap:butt;stroke-linejoin:miter;stroke:rgb(13.729858%,12.159729%,12.548828%);stroke-opacity:1;stroke-miterlimit:4;" d="M -0.00098125 -0.0014625 L 2.795894 1.154787 " transform="matrix(1,0,0,-1,163.1377,8.5376)"/>
<path style="fill:none;stroke-width:1;stroke-linecap:butt;stroke-linejoin:miter;stroke:rgb(13.729858%,12.159729%,12.548828%);stroke-opacity:1;stroke-miterlimit:4;" d="M 0.00004375 -0.00004375 L 13.273481 -28.703169 " transform="matrix(1,0,0,-1,169.2148,5.2773)"/>
<path style="fill:none;stroke-width:1;stroke-linecap:butt;stroke-linejoin:miter;stroke:rgb(13.729858%,12.159729%,12.548828%);stroke-opacity:1;stroke-miterlimit:4;" d="M 0.00045625 -0.001025 L -2.796419 -1.153369 " transform="matrix(1,0,0,-1,184.9722,32.9521)"/>
<path style="fill:none;stroke-width:1;stroke-linecap:butt;stroke-linejoin:miter;stroke:rgb(13.729858%,12.159729%,12.548828%);stroke-opacity:1;stroke-miterlimit:4;" d="M 0 0 L -2.796875 -1.15625 " transform="matrix(1,0,0,-1,172,4.5)"/>
<path style="fill:none;stroke-width:1;stroke-linecap:butt;stroke-linejoin:miter;stroke:rgb(13.729858%,12.159729%,12.548828%);stroke-opacity:1;stroke-miterlimit:4;" d="M 0.0000125 -0.00046875 L 13.27345 32.249531 " transform="matrix(1,0,0,-1,167.6328,88.0425)"/>
<path style="fill:none;stroke-width:1;stroke-linecap:butt;stroke-linejoin:miter;stroke:rgb(13.729858%,12.159729%,12.548828%);stroke-opacity:1;stroke-miterlimit:4;" d="M 0.000475 -0.001925 L 2.793444 -1.2988 " transform="matrix(1,0,0,-1,178.4214,54.6387)"/>
<path style="fill:none;stroke-width:1;stroke-linecap:butt;stroke-linejoin:miter;stroke:rgb(13.729858%,12.159729%,12.548828%);stroke-opacity:1;stroke-miterlimit:4;" d="M -0.00148125 -0.00144375 L 2.795394 -1.298319 " transform="matrix(1,0,0,-1,165.1382,86.4634)"/>
<path style="fill:none;stroke-width:1;stroke-linecap:butt;stroke-linejoin:miter;stroke:rgb(13.729858%,12.159729%,12.548828%);stroke-opacity:1;stroke-miterlimit:4;" d="M 0.00004375 0.0015 L 13.273481 32.2515 " transform="matrix(1,0,0,-1,171.2148,90.1265)"/>
<path style="fill:none;stroke-width:1;stroke-linecap:butt;stroke-linejoin:miter;stroke:rgb(13.729858%,12.159729%,12.548828%);stroke-opacity:1;stroke-miterlimit:4;" d="M -0.00004375 -0.00005 L -2.796919 1.296825 " transform="matrix(1,0,0,-1,186.9727,59.0312)"/>
<path style="fill:none;stroke-width:1;stroke-linecap:butt;stroke-linejoin:miter;stroke:rgb(13.729858%,12.159729%,12.548828%);stroke-opacity:1;stroke-miterlimit:4;" d="M 0 0 L -2.796875 1.296875 " transform="matrix(1,0,0,-1,174,91)"/>
<path style="fill:none;stroke-width:1;stroke-linecap:butt;stroke-linejoin:miter;stroke:rgb(13.729858%,12.159729%,12.548828%);stroke-opacity:1;stroke-miterlimit:4;" d="M 0 0 L 48.5 0 " transform="matrix(1,0,0,-1,241,49)"/>
<path style="fill:none;stroke-width:1;stroke-linecap:butt;stroke-linejoin:miter;stroke:rgb(13.729858%,12.159729%,12.548828%);stroke-opacity:1;stroke-miterlimit:4;" d="M 0 0 L 51.5 -39.5 " transform="matrix(1,0,0,-1,240,7)"/>
<path style="fill:none;stroke-width:1;stroke-linecap:butt;stroke-linejoin:miter;stroke:rgb(13.729858%,12.159729%,12.548828%);stroke-opacity:1;stroke-miterlimit:4;" d="M 0 0 L -50.5 -37.5 " transform="matrix(1,0,0,-1,291.5,51.5)"/>
<path style="fill:none;stroke-width:1;stroke-linecap:butt;stroke-linejoin:miter;stroke:rgb(13.729858%,12.159729%,12.548828%);stroke-opacity:1;stroke-miterlimit:4;" d="M 0.0000375 0.00141875 C -5.3984 -12.3853 -5.3984 -26.3853 0.316444 -37.006394 " transform="matrix(1,0,0,-1,235.3984,9.6147)"/>
<path style="fill:none;stroke-width:1;stroke-linecap:butt;stroke-linejoin:miter;stroke:rgb(13.729858%,12.159729%,12.548828%);stroke-opacity:1;stroke-miterlimit:4;" d="M 0.0000375 0.00141875 C -5.3984 -12.3853 -5.3984 -26.3853 0.316444 -37.006394 " transform="matrix(1,0,0,-1,235.3984,50.6147)"/>
<path style="fill:none;stroke-width:1;stroke-linecap:butt;stroke-linejoin:miter;stroke:rgb(13.729858%,12.159729%,12.548828%);stroke-opacity:1;stroke-miterlimit:4;" d="M 0 -0.00094375 C 5.214844 -12.465787 5.003906 -26.461881 -0.867188 -37.000944 " transform="matrix(1,0,0,-1,240.875,8.5889)"/>
<path style="fill:none;stroke-width:1;stroke-linecap:butt;stroke-linejoin:miter;stroke:rgb(13.729858%,12.159729%,12.548828%);stroke-opacity:1;stroke-miterlimit:4;" d="M 0 -0.00094375 C 5.214844 -12.465787 5.003906 -26.461881 -0.867188 -37.000944 " transform="matrix(1,0,0,-1,241.875,50.5889)"/>
<path style=" stroke:none;fill-rule:nonzero;fill:rgb(96.403503%,78.808594%,42.222595%);fill-opacity:1;" d="M 242.058594 8.742188 C 242.058594 6.285156 240.042969 4.289062 237.550781 4.289062 C 235.058594 4.289062 233.042969 6.285156 233.042969 8.742188 C 233.042969 11.203125 235.058594 13.199219 237.550781 13.199219 C 240.042969 13.199219 242.058594 11.203125 242.058594 8.742188 "/>
<path style="fill:none;stroke-width:2;stroke-linecap:butt;stroke-linejoin:miter;stroke:rgb(13.729858%,12.159729%,12.548828%);stroke-opacity:1;stroke-miterlimit:4;" d="M -0.00050625 0.0015125 C -0.00050625 2.458544 -2.016131 4.454638 -4.508319 4.454638 C -7.000506 4.454638 -9.016131 2.458544 -9.016131 0.0015125 C -9.016131 -2.459425 -7.000506 -4.455519 -4.508319 -4.455519 C -2.016131 -4.455519 -0.00050625 -2.459425 -0.00050625 0.0015125 Z M -0.00050625 0.0015125 " transform="matrix(1,0,0,-1,242.0591,8.7437)"/>
<path style=" stroke:none;fill-rule:nonzero;fill:rgb(96.403503%,78.808594%,42.222595%);fill-opacity:1;" d="M 242.933594 87.832031 C 242.933594 85.375 240.914062 83.378906 238.425781 83.378906 C 235.9375 83.378906 233.917969 85.375 233.917969 87.832031 C 233.917969 90.289062 235.9375 92.285156 238.425781 92.285156 C 240.914062 92.285156 242.933594 90.289062 242.933594 87.832031 "/>
<path style="fill:none;stroke-width:2;stroke-linecap:butt;stroke-linejoin:miter;stroke:rgb(13.729858%,12.159729%,12.548828%);stroke-opacity:1;stroke-miterlimit:4;" d="M 0.00049375 0.00046875 C 0.00049375 2.4575 -2.019037 4.453594 -4.507319 4.453594 C -6.9956 4.453594 -9.015131 2.4575 -9.015131 0.00046875 C -9.015131 -2.456563 -6.9956 -4.452656 -4.507319 -4.452656 C -2.019037 -4.452656 0.00049375 -2.456563 0.00049375 0.00046875 Z M 0.00049375 0.00046875 " transform="matrix(1,0,0,-1,242.9331,87.8325)"/>
<path style=" stroke:none;fill-rule:nonzero;fill:rgb(96.403503%,78.808594%,42.222595%);fill-opacity:1;" d="M 242.933594 48.332031 C 242.933594 45.875 240.914062 43.878906 238.425781 43.878906 C 235.9375 43.878906 233.917969 45.875 233.917969 48.332031 C 233.917969 50.789062 235.9375 52.785156 238.425781 52.785156 C 240.914062 52.785156 242.933594 50.789062 242.933594 48.332031 "/>
<path style="fill:none;stroke-width:2;stroke-linecap:butt;stroke-linejoin:miter;stroke:rgb(13.729858%,12.159729%,12.548828%);stroke-opacity:1;stroke-miterlimit:4;" d="M 0.00049375 0.00046875 C 0.00049375 2.4575 -2.019037 4.453594 -4.507319 4.453594 C -6.9956 4.453594 -9.015131 2.4575 -9.015131 0.00046875 C -9.015131 -2.456563 -6.9956 -4.452656 -4.507319 -4.452656 C -2.019037 -4.452656 0.00049375 -2.456563 0.00049375 0.00046875 Z M 0.00049375 0.00046875 " transform="matrix(1,0,0,-1,242.9331,48.3325)"/>
<path style=" stroke:none;fill-rule:nonzero;fill:rgb(96.403503%,78.808594%,42.222595%);fill-opacity:1;" d="M 295.433594 48.332031 C 295.433594 45.875 293.414062 43.878906 290.925781 43.878906 C 288.4375 43.878906 286.417969 45.875 286.417969 48.332031 C 286.417969 50.789062 288.4375 52.785156 290.925781 52.785156 C 293.414062 52.785156 295.433594 50.789062 295.433594 48.332031 "/>
<path style="fill:none;stroke-width:2;stroke-linecap:butt;stroke-linejoin:miter;stroke:rgb(13.729858%,12.159729%,12.548828%);stroke-opacity:1;stroke-miterlimit:4;" d="M -0.00000625 0.00046875 C -0.00000625 2.4575 -2.019537 4.453594 -4.507819 4.453594 C -6.9961 4.453594 -9.015631 2.4575 -9.015631 0.00046875 C -9.015631 -2.456563 -6.9961 -4.452656 -4.507819 -4.452656 C -2.019537 -4.452656 -0.00000625 -2.456563 -0.00000625 0.00046875 Z M -0.00000625 0.00046875 " transform="matrix(1,0,0,-1,295.4336,48.3325)"/>
</g>
</svg>
