<?xml version="1.0" encoding="UTF-8"?>
<svg xmlns="http://www.w3.org/2000/svg" xmlns:xlink="http://www.w3.org/1999/xlink" width="504pt" height="432pt" viewBox="0 0 504 432" version="1.1">
<g id="surface1">
<path style="fill:none;stroke-width:4;stroke-linecap:butt;stroke-linejoin:miter;stroke:rgb(13.729858%,12.159729%,12.548828%);stroke-opacity:1;stroke-miterlimit:4;" d="M 0.0014375 -0.000025 L 63.1655 92.964819 " transform="matrix(1,0,0,-1,123.0845,411.8906)"/>
<path style="fill:none;stroke-width:4;stroke-linecap:butt;stroke-linejoin:miter;stroke:rgb(13.729858%,12.159729%,12.548828%);stroke-opacity:1;stroke-miterlimit:4;" d="M 0.00094375 0.000025 L -63.479525 92.039087 " transform="matrix(1,0,0,-1,376.2139,411.1719)"/>
<path style="fill:none;stroke-width:4;stroke-linecap:butt;stroke-linejoin:miter;stroke:rgb(13.729858%,12.159729%,12.548828%);stroke-opacity:1;stroke-miterlimit:4;" d="M -0.00094375 0.00145625 L 102.393588 28.415519 " transform="matrix(1,0,0,-1,352.2861,198.0913)"/>
<path style="fill:none;stroke-width:4;stroke-linecap:butt;stroke-linejoin:miter;stroke:rgb(13.729858%,12.159729%,12.548828%);stroke-opacity:1;stroke-miterlimit:4;" d="M 0.00051875 0.00141875 L 103.059112 -29.248581 " transform="matrix(1,0,0,-1,43.8237,169.6772)"/>
<path style="fill:none;stroke-width:4;stroke-linecap:butt;stroke-linejoin:miter;stroke:rgb(13.729858%,12.159729%,12.548828%);stroke-opacity:1;stroke-miterlimit:4;" d="M 0.00190625 0.001925 L 0.00190625 -103.334012 " transform="matrix(1,0,0,-1,249.252,20.4238)"/>
<path style="fill:none;stroke-width:3;stroke-linecap:butt;stroke-linejoin:miter;stroke:rgb(13.729858%,12.159729%,12.548828%);stroke-opacity:1;stroke-miterlimit:4;" d="M -0.0014375 0.000025 L -78.466281 241.496119 L 126.9595 390.746119 L 332.389187 241.496119 L 253.924344 0.000025 Z M -0.0014375 0.000025 " transform="matrix(1,0,0,-1,122.2905,411.1719)"/>
<path style=" stroke:none;fill-rule:nonzero;fill:rgb(96.403503%,78.808594%,42.222595%);fill-opacity:1;" d="M 130.882812 411.890625 C 130.882812 407.914062 127.390625 404.691406 123.085938 404.691406 C 118.777344 404.691406 115.285156 407.914062 115.285156 411.890625 C 115.285156 415.867188 118.777344 419.089844 123.085938 419.089844 C 127.390625 419.089844 130.882812 415.867188 130.882812 411.890625 "/>
<path style="fill:none;stroke-width:4;stroke-linecap:butt;stroke-linejoin:miter;stroke:rgb(13.729858%,12.159729%,12.548828%);stroke-opacity:1;stroke-miterlimit:4;" d="M -0.0014875 -0.000025 C -0.0014875 3.976538 -3.493675 7.199194 -7.798363 7.199194 C -12.106956 7.199194 -15.599144 3.976538 -15.599144 -0.000025 C -15.599144 -3.976587 -12.106956 -7.199244 -7.798363 -7.199244 C -3.493675 -7.199244 -0.0014875 -3.976587 -0.0014875 -0.000025 Z M -0.0014875 -0.000025 " transform="matrix(1,0,0,-1,130.8843,411.8906)"/>
<path style=" stroke:none;fill-rule:nonzero;fill:rgb(96.403503%,78.808594%,42.222595%);fill-opacity:1;" d="M 51.550781 170.589844 C 51.550781 166.613281 48.058594 163.390625 43.753906 163.390625 C 39.445312 163.390625 35.953125 166.613281 35.953125 170.589844 C 35.953125 174.566406 39.445312 177.792969 43.753906 177.792969 C 48.058594 177.792969 51.550781 174.566406 51.550781 170.589844 "/>
<path style="fill:none;stroke-width:4;stroke-linecap:butt;stroke-linejoin:miter;stroke:rgb(13.729858%,12.159729%,12.548828%);stroke-opacity:1;stroke-miterlimit:4;" d="M -0.00141875 0.00145625 C -0.00141875 3.978019 -3.493606 7.200675 -7.798294 7.200675 C -12.106887 7.200675 -15.599075 3.978019 -15.599075 0.00145625 C -15.599075 -3.975106 -12.106887 -7.201669 -7.798294 -7.201669 C -3.493606 -7.201669 -0.00141875 -3.975106 -0.00141875 0.00145625 Z M -0.00141875 0.00145625 " transform="matrix(1,0,0,-1,51.5522,170.5913)"/>
<path style=" stroke:none;fill-rule:nonzero;fill:rgb(96.403503%,78.808594%,42.222595%);fill-opacity:1;" d="M 257.050781 20.421875 C 257.050781 16.445312 253.558594 13.222656 249.253906 13.222656 C 244.945312 13.222656 241.453125 16.445312 241.453125 20.421875 C 241.453125 24.398438 244.945312 27.625 249.253906 27.625 C 253.558594 27.625 257.050781 24.398438 257.050781 20.421875 "/>
<path style="fill:none;stroke-width:4;stroke-linecap:butt;stroke-linejoin:miter;stroke:rgb(13.729858%,12.159729%,12.548828%);stroke-opacity:1;stroke-miterlimit:4;" d="M -0.00101875 0.001925 C -0.00101875 3.978488 -3.493206 7.201144 -7.797894 7.201144 C -12.106488 7.201144 -15.598675 3.978488 -15.598675 0.001925 C -15.598675 -3.974637 -12.106488 -7.2012 -7.797894 -7.2012 C -3.493206 -7.2012 -0.00101875 -3.974637 -0.00101875 0.001925 Z M -0.00101875 0.001925 " transform="matrix(1,0,0,-1,257.0518,20.4238)"/>
<path style=" stroke:none;fill-rule:nonzero;fill:rgb(96.403503%,78.808594%,42.222595%);fill-opacity:1;" d="M 461.886719 169.757812 C 461.886719 165.78125 458.394531 162.558594 454.085938 162.558594 C 449.777344 162.558594 446.285156 165.78125 446.285156 169.757812 C 446.285156 173.734375 449.777344 176.957031 454.085938 176.957031 C 458.394531 176.957031 461.886719 173.734375 461.886719 169.757812 "/>
<path style="fill:none;stroke-width:4;stroke-linecap:butt;stroke-linejoin:miter;stroke:rgb(13.729858%,12.159729%,12.548828%);stroke-opacity:1;stroke-miterlimit:4;" d="M 0.00101875 -0.0005125 C 0.00101875 3.97605 -3.491169 7.198706 -7.799762 7.198706 C -12.108356 7.198706 -15.600544 3.97605 -15.600544 -0.0005125 C -15.600544 -3.977075 -12.108356 -7.199731 -7.799762 -7.199731 C -3.491169 -7.199731 0.00101875 -3.977075 0.00101875 -0.0005125 Z M 0.00101875 -0.0005125 " transform="matrix(1,0,0,-1,461.8857,169.7573)"/>
<path style=" stroke:none;fill-rule:nonzero;fill:rgb(96.403503%,78.808594%,42.222595%);fill-opacity:1;" d="M 383.21875 410.59375 C 383.21875 406.613281 379.726562 403.390625 375.417969 403.390625 C 371.109375 403.390625 367.617188 406.613281 367.617188 410.59375 C 367.617188 414.566406 371.109375 417.789062 375.417969 417.789062 C 379.726562 417.789062 383.21875 414.566406 383.21875 410.59375 "/>
<path style="fill:none;stroke-width:4;stroke-linecap:butt;stroke-linejoin:miter;stroke:rgb(13.729858%,12.159729%,12.548828%);stroke-opacity:1;stroke-miterlimit:4;" d="M 0.00095 -0.00195 C 0.00095 3.978519 -3.491238 7.201175 -7.799831 7.201175 C -12.108425 7.201175 -15.600613 3.978519 -15.600613 -0.00195 C -15.600613 -3.974606 -12.108425 -7.197263 -7.799831 -7.197263 C -3.491238 -7.197263 0.00095 -3.974606 0.00095 -0.00195 Z M 0.00095 -0.00195 " transform="matrix(1,0,0,-1,383.2178,410.5918)"/>
<path style="fill:none;stroke-width:4;stroke-linecap:butt;stroke-linejoin:miter;stroke:rgb(13.729858%,12.159729%,12.548828%);stroke-opacity:1;stroke-miterlimit:4;" d="M 0.00191875 -0.00048125 L 205.400356 0.835456 " transform="matrix(1,0,0,-1,146.8848,198.9253)"/>
<path style="fill:none;stroke-width:4;stroke-linecap:butt;stroke-linejoin:miter;stroke:rgb(13.729858%,12.159729%,12.548828%);stroke-opacity:1;stroke-miterlimit:4;" d="M -0.00094375 0.00145625 L -166.516569 -121.041513 " transform="matrix(1,0,0,-1,352.2861,198.0913)"/>
<path style=" stroke:none;fill-rule:nonzero;fill:rgb(96.403503%,78.808594%,42.222595%);fill-opacity:1;" d="M 360.085938 198.089844 C 360.085938 194.113281 356.59375 190.890625 352.285156 190.890625 C 347.976562 190.890625 344.484375 194.113281 344.484375 198.089844 C 344.484375 202.066406 347.976562 205.292969 352.285156 205.292969 C 356.59375 205.292969 360.085938 202.066406 360.085938 198.089844 "/>
<path style="fill:none;stroke-width:4;stroke-linecap:butt;stroke-linejoin:miter;stroke:rgb(13.729858%,12.159729%,12.548828%);stroke-opacity:1;stroke-miterlimit:4;" d="M 0.0009375 0.00145625 C 0.0009375 3.978019 -3.49125 7.200675 -7.799844 7.200675 C -12.108437 7.200675 -15.600625 3.978019 -15.600625 0.00145625 C -15.600625 -3.975106 -12.108437 -7.201669 -7.799844 -7.201669 C -3.49125 -7.201669 0.0009375 -3.975106 0.0009375 0.00145625 Z M 0.0009375 0.00145625 " transform="matrix(1,0,0,-1,360.085,198.0913)"/>
<path style="fill:none;stroke-width:4;stroke-linecap:butt;stroke-linejoin:miter;stroke:rgb(13.729858%,12.159729%,12.548828%);stroke-opacity:1;stroke-miterlimit:4;" d="M -0.001 -0.00149375 L 63.983375 -195.575713 " transform="matrix(1,0,0,-1,248.751,123.5571)"/>
<path style="fill:none;stroke-width:4;stroke-linecap:butt;stroke-linejoin:miter;stroke:rgb(13.729858%,12.159729%,12.548828%);stroke-opacity:1;stroke-miterlimit:4;" d="M 0.000975 -0.0019125 L -165.850587 120.205119 " transform="matrix(1,0,0,-1,312.7334,319.1309)"/>
<path style=" stroke:none;fill-rule:nonzero;fill:rgb(96.403503%,78.808594%,42.222595%);fill-opacity:1;" d="M 320.21875 318.757812 C 320.21875 314.78125 316.726562 311.558594 312.417969 311.558594 C 308.109375 311.558594 304.617188 314.78125 304.617188 318.757812 C 304.617188 322.734375 308.109375 325.957031 312.417969 325.957031 C 316.726562 325.957031 320.21875 322.734375 320.21875 318.757812 "/>
<path style="fill:none;stroke-width:4;stroke-linecap:butt;stroke-linejoin:miter;stroke:rgb(13.729858%,12.159729%,12.548828%);stroke-opacity:1;stroke-miterlimit:4;" d="M 0.00095 -0.0000125 C 0.00095 3.97655 -3.491238 7.199206 -7.799831 7.199206 C -12.108425 7.199206 -15.600613 3.97655 -15.600613 -0.0000125 C -15.600613 -3.976575 -12.108425 -7.199231 -7.799831 -7.199231 C -3.491238 -7.199231 0.00095 -3.976575 0.00095 -0.0000125 Z M 0.00095 -0.0000125 " transform="matrix(1,0,0,-1,320.2178,318.7578)"/>
<path style="fill:none;stroke-width:4;stroke-linecap:butt;stroke-linejoin:miter;stroke:rgb(13.729858%,12.159729%,12.548828%);stroke-opacity:1;stroke-miterlimit:4;" d="M -0.00146875 -0.0019125 L 63.482906 195.373087 " transform="matrix(1,0,0,-1,185.771,319.1309)"/>
<path style=" stroke:none;fill-rule:nonzero;fill:rgb(96.403503%,78.808594%,42.222595%);fill-opacity:1;" d="M 194.050781 318.925781 C 194.050781 314.945312 190.558594 311.726562 186.253906 311.726562 C 181.945312 311.726562 178.453125 314.945312 178.453125 318.925781 C 178.453125 322.902344 181.945312 326.125 186.253906 326.125 C 190.558594 326.125 194.050781 322.902344 194.050781 318.925781 "/>
<path style="fill:none;stroke-width:4;stroke-linecap:butt;stroke-linejoin:miter;stroke:rgb(13.729858%,12.159729%,12.548828%);stroke-opacity:1;stroke-miterlimit:4;" d="M -0.00101875 0.00001875 C -0.00101875 3.980487 -3.493206 7.199237 -7.797894 7.199237 C -12.106488 7.199237 -15.598675 3.980487 -15.598675 0.00001875 C -15.598675 -3.976544 -12.106488 -7.1992 -7.797894 -7.1992 C -3.493206 -7.1992 -0.00101875 -3.976544 -0.00101875 0.00001875 Z M -0.00101875 0.00001875 " transform="matrix(1,0,0,-1,194.0518,318.9258)"/>
<path style=" stroke:none;fill-rule:nonzero;fill:rgb(96.403503%,78.808594%,42.222595%);fill-opacity:1;" d="M 154.683594 198.925781 C 154.683594 194.949219 151.191406 191.722656 146.886719 191.722656 C 142.578125 191.722656 139.085938 194.949219 139.085938 198.925781 C 139.085938 202.898438 142.578125 206.125 146.886719 206.125 C 151.191406 206.125 154.683594 202.898438 154.683594 198.925781 "/>
<path style="fill:none;stroke-width:4;stroke-linecap:butt;stroke-linejoin:miter;stroke:rgb(13.729858%,12.159729%,12.548828%);stroke-opacity:1;stroke-miterlimit:4;" d="M -0.00100625 -0.00048125 C -0.00100625 3.976081 -3.493194 7.202644 -7.797881 7.202644 C -12.106475 7.202644 -15.598662 3.976081 -15.598662 -0.00048125 C -15.598662 -3.973137 -12.106475 -7.1997 -7.797881 -7.1997 C -3.493194 -7.1997 -0.00100625 -3.973137 -0.00100625 -0.00048125 Z M -0.00100625 -0.00048125 " transform="matrix(1,0,0,-1,154.6846,198.9253)"/>
<path style=" stroke:none;fill-rule:nonzero;fill:rgb(96.403503%,78.808594%,42.222595%);fill-opacity:1;" d="M 256.550781 123.558594 C 256.550781 119.582031 253.058594 116.355469 248.75 116.355469 C 244.445312 116.355469 240.949219 119.582031 240.949219 123.558594 C 240.949219 127.53125 244.445312 130.757812 248.75 130.757812 C 253.058594 130.757812 256.550781 127.53125 256.550781 123.558594 "/>
<path style="fill:none;stroke-width:4;stroke-linecap:butt;stroke-linejoin:miter;stroke:rgb(13.729858%,12.159729%,12.548828%);stroke-opacity:1;stroke-miterlimit:4;" d="M -0.00001875 -0.00149375 C -0.00001875 3.975069 -3.492206 7.201631 -7.8008 7.201631 C -12.105488 7.201631 -15.601581 3.975069 -15.601581 -0.00149375 C -15.601581 -3.97415 -12.105488 -7.200713 -7.8008 -7.200713 C -3.492206 -7.200713 -0.00001875 -3.97415 -0.00001875 -0.00149375 Z M -0.00001875 -0.00149375 " transform="matrix(1,0,0,-1,256.5508,123.5571)"/>
</g>
</svg>
