<?xml version="1.0" encoding="UTF-8"?>
<svg xmlns="http://www.w3.org/2000/svg" xmlns:xlink="http://www.w3.org/1999/xlink" width="288pt" height="72pt" viewBox="0 0 288 72" version="1.1">
<g id="surface1">
<path style="fill:none;stroke-width:2;stroke-linecap:butt;stroke-linejoin:miter;stroke:rgb(13.729858%,12.159729%,12.548828%);stroke-opacity:1;stroke-miterlimit:4;" d="M 0.001 0.0000125 L -54.499 -15.8828 " transform="matrix(1,0,0,-1,251.999,36.6172)"/>
<path style="fill:none;stroke-width:2;stroke-linecap:butt;stroke-linejoin:miter;stroke:rgb(13.729858%,12.159729%,12.548828%);stroke-opacity:1;stroke-miterlimit:4;" d="M -0.00093125 0 L 71.2061 -0.117188 " transform="matrix(1,0,0,-1,180.7939,36.5)"/>
<path style="fill:none;stroke-width:2;stroke-linecap:butt;stroke-linejoin:miter;stroke:rgb(13.729858%,12.159729%,12.548828%);stroke-opacity:1;stroke-miterlimit:4;" d="M -0.00093125 0 L 35.2061 27.5 " transform="matrix(1,0,0,-1,180.7939,36.5)"/>
<path style="fill:none;stroke-width:2;stroke-linecap:butt;stroke-linejoin:miter;stroke:rgb(13.729858%,12.159729%,12.548828%);stroke-opacity:1;stroke-miterlimit:4;" d="M 0 0 L 77.792969 9 " transform="matrix(1,0,0,-1,103,45.5)"/>
<path style="fill:none;stroke-width:2;stroke-linecap:butt;stroke-linejoin:miter;stroke:rgb(13.729858%,12.159729%,12.548828%);stroke-opacity:1;stroke-miterlimit:4;" d="M 0 0 L 23.292969 -18 " transform="matrix(1,0,0,-1,103,45.5)"/>
<path style="fill:none;stroke-width:2;stroke-linecap:butt;stroke-linejoin:miter;stroke:rgb(13.729858%,12.159729%,12.548828%);stroke-opacity:1;stroke-miterlimit:4;" d="M 0.0005 0.0000125 L 41.5005 -9.8828 " transform="matrix(1,0,0,-1,61.4995,35.6172)"/>
<path style="fill:none;stroke-width:2;stroke-linecap:butt;stroke-linejoin:miter;stroke:rgb(13.729858%,12.159729%,12.548828%);stroke-opacity:1;stroke-miterlimit:4;" d="M 0.0005 0.0000125 L -43.706531 -27.8828 " transform="matrix(1,0,0,-1,61.4995,35.6172)"/>
<path style="fill:none;stroke-width:2;stroke-linecap:butt;stroke-linejoin:miter;stroke:rgb(13.729858%,12.159729%,12.548828%);stroke-opacity:1;stroke-miterlimit:4;" d="M 0.0005 0.0000125 L -35.4995 11.6172 " transform="matrix(1,0,0,-1,61.4995,35.6172)"/>
<path style="fill:none;stroke-width:2;stroke-linecap:butt;stroke-linejoin:miter;stroke:rgb(13.729858%,12.159729%,12.548828%);stroke-opacity:1;stroke-miterlimit:4;" d="M 0.0005 0.0000125 L 4.293469 27.1172 " transform="matrix(1,0,0,-1,61.4995,35.6172)"/>
<path style=" stroke:none;fill-rule:nonzero;fill:rgb(96.403503%,78.808594%,42.222595%);fill-opacity:1;" d="M 22 63.5 C 22 61.355469 20.117188 59.617188 17.792969 59.617188 C 15.472656 59.617188 13.589844 61.355469 13.589844 63.5 C 13.589844 65.644531 15.472656 67.382812 17.792969 67.382812 C 20.117188 67.382812 22 65.644531 22 63.5 "/>
<path style="fill:none;stroke-width:2;stroke-linecap:butt;stroke-linejoin:miter;stroke:rgb(13.729858%,12.159729%,12.548828%);stroke-opacity:1;stroke-miterlimit:4;" d="M 0 0 C 0 2.144531 -1.882812 3.882812 -4.207031 3.882812 C -6.527344 3.882812 -8.410156 2.144531 -8.410156 0 C -8.410156 -2.144531 -6.527344 -3.882812 -4.207031 -3.882812 C -1.882812 -3.882812 0 -2.144531 0 0 Z M 0 0 " transform="matrix(1,0,0,-1,22,63.5)"/>
<path style=" stroke:none;fill-rule:nonzero;fill:rgb(96.403503%,78.808594%,42.222595%);fill-opacity:1;" d="M 256.207031 36.617188 C 256.207031 34.472656 254.320312 32.734375 252 32.734375 C 249.675781 32.734375 247.792969 34.472656 247.792969 36.617188 C 247.792969 38.761719 249.675781 40.5 252 40.5 C 254.320312 40.5 256.207031 38.761719 256.207031 36.617188 "/>
<path style="fill:none;stroke-width:2;stroke-linecap:butt;stroke-linejoin:miter;stroke:rgb(13.729858%,12.159729%,12.548828%);stroke-opacity:1;stroke-miterlimit:4;" d="M 0.00193125 0.0000125 C 0.00193125 2.144544 -1.884787 3.882825 -4.2051 3.882825 C -6.529319 3.882825 -8.412131 2.144544 -8.412131 0.0000125 C -8.412131 -2.144519 -6.529319 -3.8828 -4.2051 -3.8828 C -1.884787 -3.8828 0.00193125 -2.144519 0.00193125 0.0000125 Z M 0.00193125 0.0000125 " transform="matrix(1,0,0,-1,256.2051,36.6172)"/>
<path style=" stroke:none;fill-rule:nonzero;fill:rgb(96.403503%,78.808594%,42.222595%);fill-opacity:1;" d="M 185 36.5 C 185 34.355469 183.117188 32.617188 180.796875 32.617188 C 178.472656 32.617188 176.589844 34.355469 176.589844 36.5 C 176.589844 38.644531 178.472656 40.382812 180.796875 40.382812 C 183.117188 40.382812 185 38.644531 185 36.5 "/>
<path style="fill:none;stroke-width:2;stroke-linecap:butt;stroke-linejoin:miter;stroke:rgb(13.729858%,12.159729%,12.548828%);stroke-opacity:1;stroke-miterlimit:4;" d="M 0 0 C 0 2.144531 -1.882812 3.882812 -4.203125 3.882812 C -6.527344 3.882812 -8.410156 2.144531 -8.410156 0 C -8.410156 -2.144531 -6.527344 -3.882812 -4.203125 -3.882812 C -1.882812 -3.882812 0 -2.144531 0 0 Z M 0 0 " transform="matrix(1,0,0,-1,185,36.5)"/>
<path style=" stroke:none;fill-rule:nonzero;fill:rgb(96.403503%,78.808594%,42.222595%);fill-opacity:1;" d="M 107.207031 45.5 C 107.207031 43.355469 105.324219 41.617188 103 41.617188 C 100.675781 41.617188 98.792969 43.355469 98.792969 45.5 C 98.792969 47.644531 100.675781 49.382812 103 49.382812 C 105.324219 49.382812 107.207031 47.644531 107.207031 45.5 "/>
<path style="fill:none;stroke-width:2;stroke-linecap:butt;stroke-linejoin:miter;stroke:rgb(13.729858%,12.159729%,12.548828%);stroke-opacity:1;stroke-miterlimit:4;" d="M 0.00093125 0 C 0.00093125 2.144531 -1.881881 3.882812 -4.2061 3.882812 C -6.530319 3.882812 -8.413131 2.144531 -8.413131 0 C -8.413131 -2.144531 -6.530319 -3.882812 -4.2061 -3.882812 C -1.881881 -3.882812 0.00093125 -2.144531 0.00093125 0 Z M 0.00093125 0 " transform="matrix(1,0,0,-1,107.2061,45.5)"/>
<path style=" stroke:none;fill-rule:nonzero;fill:rgb(96.403503%,78.808594%,42.222595%);fill-opacity:1;" d="M 30.207031 24 C 30.207031 21.855469 28.324219 20.117188 26 20.117188 C 23.675781 20.117188 21.792969 21.855469 21.792969 24 C 21.792969 26.144531 23.675781 27.882812 26 27.882812 C 28.324219 27.882812 30.207031 26.144531 30.207031 24 "/>
<path style="fill:none;stroke-width:2;stroke-linecap:butt;stroke-linejoin:miter;stroke:rgb(13.729858%,12.159729%,12.548828%);stroke-opacity:1;stroke-miterlimit:4;" d="M 0.00093125 0 C 0.00093125 2.144531 -1.881881 3.882812 -4.2061 3.882812 C -6.530319 3.882812 -8.413131 2.144531 -8.413131 0 C -8.413131 -2.144531 -6.530319 -3.882812 -4.2061 -3.882812 C -1.881881 -3.882812 0.00093125 -2.144531 0.00093125 0 Z M 0.00093125 0 " transform="matrix(1,0,0,-1,30.2061,24)"/>
<path style=" stroke:none;fill-rule:nonzero;fill:rgb(96.403503%,78.808594%,42.222595%);fill-opacity:1;" d="M 70 8.5 C 70 6.355469 68.117188 4.617188 65.796875 4.617188 C 63.472656 4.617188 61.589844 6.355469 61.589844 8.5 C 61.589844 10.644531 63.472656 12.382812 65.796875 12.382812 C 68.117188 12.382812 70 10.644531 70 8.5 "/>
<path style="fill:none;stroke-width:2;stroke-linecap:butt;stroke-linejoin:miter;stroke:rgb(13.729858%,12.159729%,12.548828%);stroke-opacity:1;stroke-miterlimit:4;" d="M 0 0 C 0 2.144531 -1.882812 3.882812 -4.203125 3.882812 C -6.527344 3.882812 -8.410156 2.144531 -8.410156 0 C -8.410156 -2.144531 -6.527344 -3.882812 -4.203125 -3.882812 C -1.882812 -3.882812 0 -2.144531 0 0 Z M 0 0 " transform="matrix(1,0,0,-1,70,8.5)"/>
<path style=" stroke:none;fill-rule:nonzero;fill:rgb(96.403503%,78.808594%,42.222595%);fill-opacity:1;" d="M 220.207031 9 C 220.207031 6.855469 218.324219 5.117188 216 5.117188 C 213.675781 5.117188 211.792969 6.855469 211.792969 9 C 211.792969 11.144531 213.675781 12.882812 216 12.882812 C 218.324219 12.882812 220.207031 11.144531 220.207031 9 "/>
<path style="fill:none;stroke-width:2;stroke-linecap:butt;stroke-linejoin:miter;stroke:rgb(13.729858%,12.159729%,12.548828%);stroke-opacity:1;stroke-miterlimit:4;" d="M 0.00093125 0 C 0.00093125 2.144531 -1.881881 3.882812 -4.2061 3.882812 C -6.530319 3.882812 -8.413131 2.144531 -8.413131 0 C -8.413131 -2.144531 -6.530319 -3.882812 -4.2061 -3.882812 C -1.881881 -3.882812 0.00093125 -2.144531 0.00093125 0 Z M 0.00093125 0 " transform="matrix(1,0,0,-1,220.2061,9)"/>
<path style=" stroke:none;fill-rule:nonzero;fill:rgb(96.403503%,78.808594%,42.222595%);fill-opacity:1;" d="M 130.5 63.5 C 130.5 61.355469 128.617188 59.617188 126.296875 59.617188 C 123.972656 59.617188 122.089844 61.355469 122.089844 63.5 C 122.089844 65.644531 123.972656 67.382812 126.296875 67.382812 C 128.617188 67.382812 130.5 65.644531 130.5 63.5 "/>
<path style="fill:none;stroke-width:2;stroke-linecap:butt;stroke-linejoin:miter;stroke:rgb(13.729858%,12.159729%,12.548828%);stroke-opacity:1;stroke-miterlimit:4;" d="M 0 0 C 0 2.144531 -1.882812 3.882812 -4.203125 3.882812 C -6.527344 3.882812 -8.410156 2.144531 -8.410156 0 C -8.410156 -2.144531 -6.527344 -3.882812 -4.203125 -3.882812 C -1.882812 -3.882812 0 -2.144531 0 0 Z M 0 0 " transform="matrix(1,0,0,-1,130.5,63.5)"/>
<path style=" stroke:none;fill-rule:nonzero;fill:rgb(96.403503%,78.808594%,42.222595%);fill-opacity:1;" d="M 65.707031 35.617188 C 65.707031 33.472656 63.824219 31.734375 61.5 31.734375 C 59.175781 31.734375 57.292969 33.472656 57.292969 35.617188 C 57.292969 37.761719 59.175781 39.5 61.5 39.5 C 63.824219 39.5 65.707031 37.761719 65.707031 35.617188 "/>
<path style="fill:none;stroke-width:2;stroke-linecap:butt;stroke-linejoin:miter;stroke:rgb(13.729858%,12.159729%,12.548828%);stroke-opacity:1;stroke-miterlimit:4;" d="M 0.00143125 0.0000125 C 0.00143125 2.144544 -1.881381 3.882825 -4.2056 3.882825 C -6.529819 3.882825 -8.412631 2.144544 -8.412631 0.0000125 C -8.412631 -2.144519 -6.529819 -3.8828 -4.2056 -3.8828 C -1.881381 -3.8828 0.00143125 -2.144519 0.00143125 0.0000125 Z M 0.00143125 0.0000125 " transform="matrix(1,0,0,-1,65.7056,35.6172)"/>
<path style=" stroke:none;fill-rule:nonzero;fill:rgb(96.403503%,78.808594%,42.222595%);fill-opacity:1;" d="M 201.707031 52.5 C 201.707031 50.355469 199.820312 48.617188 197.5 48.617188 C 195.175781 48.617188 193.292969 50.355469 193.292969 52.5 C 193.292969 54.644531 195.175781 56.382812 197.5 56.382812 C 199.820312 56.382812 201.707031 54.644531 201.707031 52.5 "/>
<path style="fill:none;stroke-width:2;stroke-linecap:butt;stroke-linejoin:miter;stroke:rgb(13.729858%,12.159729%,12.548828%);stroke-opacity:1;stroke-miterlimit:4;" d="M 0.00193125 0 C 0.00193125 2.144531 -1.884787 3.882812 -4.2051 3.882812 C -6.529319 3.882812 -8.412131 2.144531 -8.412131 0 C -8.412131 -2.144531 -6.529319 -3.882812 -4.2051 -3.882812 C -1.884787 -3.882812 0.00193125 -2.144531 0.00193125 0 Z M 0.00193125 0 " transform="matrix(1,0,0,-1,201.7051,52.5)"/>
</g>
</svg>
