<svg xmlns="http://www.w3.org/2000/svg" xmlns:xlink="http://www.w3.org/1999/xlink" version="1.1" width="84pt" height="74pt" viewBox="0 0 84 74">
<defs>
<clipPath id="clip_1">
<path transform="matrix(1.00008,0,0,-1.00003,5.8976366,77.60073)" d="M0 0H72V72H0Z"/>
</clipPath>
<clipPath id="clip_2">
<path transform="matrix(1.00008,0,0,-1.00003,5.8976366,77.60073)" d="M0 72H72V0H0Z"/>
</clipPath>
<path id="font_3_1" d="M.37298585 .37835694C.35499574 .41537477 .32598878 .4423828 .2809906 .4423828 .1639862 .4423828 .039993287 .29533387 .039993287 .14929199 .039993287 .055267335 .09498596-.0107421879 .17298889-.0107421879 .19299317-.0107421879 .24299622-.0067443849 .30299378 .06427002 .31098939 .022247315 .34599305-.0107421879 .3939972-.0107421879 .42900086-.0107421879 .45199586 .012252808 .46798707 .044265748 .4850006 .08027649 .49798585 .14129639 .49798585 .14329529 .49798585 .1532898 .4889984 .1532898 .48599244 .1532898 .47599793 .1532898 .47499085 .14929199 .47200013 .13528443 .45498658 .07026672 .43699647 .011245728 .3959961 .011245728 .36898805 .011245728 .3659973 .037261964 .3659973 .057266237 .3659973 .07926941 .36799623 .08728027 .3789978 .13128662 .3899994 .17329407 .3919983 .18330384 .40098573 .22131348L.43699647 .36135865C.44400025 .38935853 .44400025 .39135743 .44400025 .39537049 .44400025 .41236878 .43199159 .42237855 .4149933 .42237855 .3909912 .42237855 .37599183 .4003601 .37298585 .37835694M.30799867 .119277957C.30299378 .10127258 .30299378 .09927368 .28799439 .08227539 .24398804 .027252198 .20298767 .011245728 .1749878 .011245728 .125 .011245728 .11099243 .06626892 .11099243 .105285648 .11099243 .1552887 .14299011 .27833558 .1659851 .32434083 .19699097 .38336183 .24198914 .42037965 .28199769 .42037965 .34700013 .42037965 .36099244 .3383484 .36099244 .33235169 .36099244 .32633973 .35899354 .32034303 .35798646 .31533814L.30799867 .119277957Z"/>
<path id="font_3_2" d="M.23899842 .68333438C.23899842 .6843262 .23899842 .69433596 .22599793 .69433596 .20298767 .69433596 .12998963 .6863251 .10398865 .6843262 .09599304 .68333438 .084991458 .6823273 .084991458 .6643219 .084991458 .6523285 .09399414 .6523285 .10899353 .6523285 .15699768 .6523285 .15899658 .6453247 .15899658 .6353302 .15899658 .6283264 .1499939 .5943451 .14498902 .573349L.06298828 .24731446C.050994874 .1973114 .04699707 .18130493 .04699707 .14628601 .04699707 .05126953 .099990848-.0107421879 .17399597-.0107421879 .2919922-.0107421879 .4149933 .1382904 .4149933 .28233338 .4149933 .37335206 .3619995 .4423828 .28199769 .4423828 .23599243 .4423828 .19499207 .41337586 .16499329 .38235475L.23899842 .68333438M.14498902 .30534364C.15098572 .3273468 .15098572 .3293457 .1599884 .3403473 .20899964 .405365 .2539978 .42037965 .27999879 .42037965 .31599427 .42037965 .34298707 .3903656 .34298707 .32633973 .34298707 .26733399 .30999757 .15229798 .2919922 .11428833 .25898744 .04725647 .21299744 .011245728 .17399597 .011245728 .13999939 .011245728 .10699463 .038253786 .10699463 .11227417 .10699463 .13128662 .10699463 .15029907 .12298584 .21331787L.14498902 .30534364Z"/>
<path id="font_3_3" d="M.3959961 .37998963C.37998963 .37998963 .3659973 .37998963 .35198976 .36598207 .33599855 .35098268 .33399964 .33398438 .33399964 .3269806 .33399964 .30297853 .35198976 .2919922 .37098695 .2919922 .3999939 .2919922 .4269867 .315979 .4269867 .35598756 .4269867 .40522767 .37998963 .4423828 .30899049 .4423828 .17399597 .4423828 .040985109 .2989807 .040985109 .15811157 .040985109 .06819153 .09899902-.0107421879 .20298767-.0107421879 .34599305-.0107421879 .42999269 .09516907 .42999269 .107162479 .42999269 .11315918 .42399598 .120147708 .41799928 .120147708 .41299439 .120147708 .41099549 .1181488 .40499879 .1101532 .32598878 .011245728 .21699524 .011245728 .20498657 .011245728 .14199829 .011245728 .114990238 .06021118 .114990238 .120147708 .114990238 .1611023 .1349945 .25801087 .16899109 .31999208 .19999695 .37698365 .25498963 .42037965 .30999757 .42037965 .34399415 .42037965 .38198854 .40724183 .3959961 .37998963Z"/>
<path id="font_3_4" d="M.5159912 .68333438C.5159912 .6843262 .5159912 .69433596 .5029907 .69433596 .48799134 .69433596 .3929901 .68533328 .37599183 .68333438 .36799623 .6823273 .3619995 .6773224 .3619995 .6643219 .3619995 .6523285 .37098695 .6523285 .38598634 .6523285 .43399049 .6523285 .43598939 .6453247 .43598939 .6353302L.43299867 .6153412 .37298585 .37835694C.35499574 .41537477 .32598878 .4423828 .2809906 .4423828 .1639862 .4423828 .039993287 .29533387 .039993287 .14929199 .039993287 .055267335 .09498596-.0107421879 .17298889-.0107421879 .19299317-.0107421879 .24299622-.0067443849 .30299378 .06427002 .31098939 .022247315 .34599305-.0107421879 .3939972-.0107421879 .42900086-.0107421879 .45199586 .012252808 .46798707 .044265748 .4850006 .08027649 .49798585 .14129639 .49798585 .14329529 .49798585 .1532898 .4889984 .1532898 .48599244 .1532898 .47599793 .1532898 .47499085 .14929199 .47200013 .13528443 .45498658 .07026672 .43699647 .011245728 .3959961 .011245728 .36898805 .011245728 .3659973 .037261964 .3659973 .057266237 .3659973 .08126831 .36799623 .088272098 .37199403 .105285648L.5159912 .68333438M.30799867 .119277957C.30299378 .10127258 .30299378 .09927368 .28799439 .08227539 .24398804 .027252198 .20298767 .011245728 .1749878 .011245728 .125 .011245728 .11099243 .06626892 .11099243 .105285648 .11099243 .1552887 .14299011 .27833558 .1659851 .32434083 .19699097 .38336183 .24198914 .42037965 .28199769 .42037965 .34700013 .42037965 .36099244 .3383484 .36099244 .33235169 .36099244 .32633973 .35899354 .32034303 .35798646 .31533814L.30799867 .119277957Z"/>
<path id="font_3_5" d="M.18699646 .23144531C.21598816 .23144531 .2899933 .23344422 .33999635 .2544403 .4099884 .28442384 .4149933 .34339906 .4149933 .35740663 .4149933 .40138246 .3769989 .4423828 .30799867 .4423828 .19699097 .4423828 .04598999 .34539796 .04598999 .17037964 .04598999 .06829834 .10499573-.0107421879 .20298767-.0107421879 .34599305-.0107421879 .42999269 .095321658 .42999269 .10733032 .42999269 .113342288 .42399598 .12034607 .41799928 .12034607 .41299439 .12034607 .41099549 .11834717 .40499879 .1103363 .32598878 .011245728 .21699524 .011245728 .20498657 .011245728 .1269989 .011245728 .117996219 .095321658 .117996219 .12734986 .117996219 .13935852 .11898804 .17037964 .13398743 .23144531H.18699646M.13999939 .25343324C.1789856 .40538026 .28199769 .42037965 .30799867 .42037965 .35499574 .42037965 .38198854 .39138795 .38198854 .35740663 .38198854 .25343324 .22200012 .25343324 .18099976 .25343324H.13999939Z"/>
</defs>
<g clip-path="url(#clip_1)">
<g id="layer_1" data-name="Layer 1">
<path transform="matrix(1.00008,0,0,-1.00003,31.399676,40.59962)" stroke-width="2" stroke-linecap="butt" stroke-miterlimit="4" stroke-linejoin="miter" fill="none" stroke="#231f20" d="M0 0 18 27"/>
<path transform="matrix(1.00008,0,0,-1.00003,49.401117,13.598305)" stroke-width="2" stroke-linecap="butt" stroke-miterlimit="4" stroke-linejoin="miter" fill="none" stroke="#231f20" d="M0 0 18-27"/>
<g clip-path="url(#clip_2)">
<path transform="matrix(1.00008,0,0,-1.00003,53.60755,13.598808)" d="M0 0C0 2.145-1.883 3.883-4.205 3.883-6.529 3.883-8.412 2.145-8.412 0-8.412-2.144-6.529-3.883-4.205-3.883-1.883-3.883 0-2.144 0 0" fill="#f9cd83"/>
<path transform="matrix(1.00008,0,0,-1.00003,53.60755,13.598808)" stroke-width="2" stroke-linecap="butt" stroke-miterlimit="4" stroke-linejoin="miter" fill="none" stroke="#231f20" d="M0 0C0 2.145-1.883 3.883-4.205 3.883-6.529 3.883-8.412 2.145-8.412 0-8.412-2.144-6.529-3.883-4.205-3.883-1.883-3.883 0-2.144 0 0Z"/>
<path transform="matrix(1.00008,0,0,-1.00003,35.606115,40.59962)" d="M0 0C0 2.145-1.883 3.883-4.205 3.883-6.529 3.883-8.412 2.145-8.412 0-8.412-2.144-6.529-3.883-4.205-3.883-1.883-3.883 0-2.144 0 0" fill="#f9cd83"/>
<path transform="matrix(1.00008,0,0,-1.00003,35.606115,40.59962)" stroke-width="2" stroke-linecap="butt" stroke-miterlimit="4" stroke-linejoin="miter" fill="none" stroke="#231f20" d="M0 0C0 2.145-1.883 3.883-4.205 3.883-6.529 3.883-8.412 2.145-8.412 0-8.412-2.144-6.529-3.883-4.205-3.883-1.883-3.883 0-2.144 0 0Z"/>
<path transform="matrix(1.00008,0,0,-1.00003,71.60899,40.59962)" d="M0 0C0 2.145-1.883 3.883-4.205 3.883-6.529 3.883-8.412 2.145-8.412 0-8.412-2.144-6.529-3.883-4.205-3.883-1.883-3.883 0-2.144 0 0" fill="#f9cd83"/>
<path transform="matrix(1.00008,0,0,-1.00003,71.60899,40.59962)" stroke-width="2" stroke-linecap="butt" stroke-miterlimit="4" stroke-linejoin="miter" fill="none" stroke="#231f20" d="M0 0C0 2.145-1.883 3.883-4.205 3.883-6.529 3.883-8.412 2.145-8.412 0-8.412-2.144-6.529-3.883-4.205-3.883-1.883-3.883 0-2.144 0 0Z"/>
<path transform="matrix(1.00008,0,0,-1.00003,13.398236,67.60043)" stroke-width="2" stroke-linecap="butt" stroke-miterlimit="4" stroke-linejoin="miter" fill="none" stroke="#231f20" d="M0 0 18 27"/>
<path transform="matrix(1.00008,0,0,-1.00003,35.606115,40.59962)" d="M0 0C0 2.145-1.883 3.883-4.205 3.883-6.529 3.883-8.412 2.145-8.412 0-8.412-2.144-6.529-3.883-4.205-3.883-1.883-3.883 0-2.144 0 0" fill="#f9cd83"/>
<path transform="matrix(1.00008,0,0,-1.00003,35.606115,40.59962)" stroke-width="2" stroke-linecap="butt" stroke-miterlimit="4" stroke-linejoin="miter" fill="none" stroke="#231f20" d="M0 0C0 2.145-1.883 3.883-4.205 3.883-6.529 3.883-8.412 2.145-8.412 0-8.412-2.144-6.529-3.883-4.205-3.883-1.883-3.883 0-2.144 0 0Z"/>
<path transform="matrix(1.00008,0,0,-1.00003,17.604674,67.60043)" d="M0 0C0 2.145-1.883 3.883-4.205 3.883-6.529 3.883-8.412 2.145-8.412 0-8.412-2.144-6.529-3.883-4.205-3.883-1.883-3.883 0-2.144 0 0" fill="#f9cd83"/>
<path transform="matrix(1.00008,0,0,-1.00003,17.604674,67.60043)" stroke-width="2" stroke-linecap="butt" stroke-miterlimit="4" stroke-linejoin="miter" fill="none" stroke="#231f20" d="M0 0C0 2.145-1.883 3.883-4.205 3.883-6.529 3.883-8.412 2.145-8.412 0-8.412-2.144-6.529-3.883-4.205-3.883-1.883-3.883 0-2.144 0 0Z"/>
<path transform="matrix(1.00008,0,0,-1.00003,53.60755,67.60043)" d="M0 0C0 2.145-1.883 3.883-4.205 3.883-6.529 3.883-8.412 2.145-8.412 0-8.412-2.144-6.529-3.883-4.205-3.883-1.883-3.883 0-2.144 0 0" fill="#f9cd83"/>
<path transform="matrix(1.00008,0,0,-1.00003,53.60755,67.60043)" stroke-width="2" stroke-linecap="butt" stroke-miterlimit="4" stroke-linejoin="miter" fill="none" stroke="#231f20" d="M0 0C0 2.145-1.883 3.883-4.205 3.883-6.529 3.883-8.412 2.145-8.412 0-8.412-2.144-6.529-3.883-4.205-3.883-1.883-3.883 0-2.144 0 0Z"/>
</g>
</g>
</g>
<use data-text="a" xlink:href="#font_3_1" transform="matrix(9.963397,0,0,-9.962899,47.659975,5.5995666)"/>
<use data-text="b" xlink:href="#font_3_2" transform="matrix(9.963397,0,0,-9.962899,77.9014,43.039693)"/>
<use data-text="c" xlink:href="#font_3_3" transform="matrix(9.963397,0,0,-9.962899,.85723116,70.40051)"/>
<use data-text="d" xlink:href="#font_3_4" transform="matrix(9.963397,0,0,-9.962899,16.697495,41.600648)"/>
<use data-text="e" xlink:href="#font_3_5" transform="matrix(9.963397,0,0,-9.962899,56.30066,69.68049)"/>
</svg>
