<svg xmlns="http://www.w3.org/2000/svg" xmlns:xlink="http://www.w3.org/1999/xlink" version="1.1" width="58pt" height="96pt" viewBox="0 0 58 96">
<defs>
<clipPath id="clip_1">
<path transform="matrix(.40000803,0,0,-.4,3.8964616,95.9968)" d="M0 0H111V236H0Z"/>
</clipPath>
<clipPath id="clip_2">
<path transform="matrix(.40000803,0,0,-.4,3.8964616,95.9968)" d="M0 236H111V0H0Z"/>
</clipPath>
<path id="font_3_6" d="M.1329956 .08345032C.18699646 .14138794 .21598816 .16636658 .2519989 .19732666 .2519989 .19833374 .31399537 .25128175 .34999085 .2872467 .44499208 .3803711 .46699525 .42837525 .46699525 .43237306 .46699525 .4423828 .45799256 .4423828 .45599366 .4423828 .44898988 .4423828 .44599916 .44036866 .44099427 .43138124 .41099549 .38337709 .3899994 .3671875 .3659973 .3671875 .34199525 .3671875 .32998658 .38237 .31498719 .3993683 .29599 .42237855 .2789917 .4423828 .24598694 .4423828 .17098999 .4423828 .125 .34918214 .125 .3282013 .125 .3231964 .12799073 .31721498 .13699341 .31721498 .1459961 .31721498 .147995 .3222046 .1499939 .3282013 .16899109 .37434388 .22698975 .37538148 .23498535 .37538148 .2559967 .37538148 .2749939 .36820985 .2979889 .36018373 .33799745 .34518434 .34899903 .34518434 .375 .34518434 .33898927 .30223084 .25498963 .2303009 .23599243 .21430969L.1459961 .13040161C.07798767 .06341553 .042999269 .0062561037 .042999269-.00074768069 .042999269-.0107421879 .052993776-.0107421879 .054992677-.0107421879 .06298828-.0107421879 .06498718-.008743286 .070999149 .002243042 .09399414 .037246705 .12399292 .064453128 .1559906 .064453128 .1789856 .064453128 .18899536 .055252077 .21398926 .026245118 .23098755 .0052490236 .24899292-.0107421879 .27799989-.0107421879 .3769989-.0107421879 .43499757 .1164093 .43499757 .14338684 .43499757 .14837647 .43099977 .15338135 .4229889 .15338135 .4139862 .15338135 .4119873 .14738465 .40899659 .14039612 .38598634 .07543945 .32199098 .056243898 .2889862 .056243898 .2689972 .056243898 .25099183 .06239319 .22999573 .06944275 .19599915 .08244324 .18099976 .08644104 .1599884 .08644104 .1579895 .08644104 .14199829 .08644104 .1329956 .08345032Z"/>
<path id="font_3_5" d="M.46199037 .33935548C.46699525 .36135865 .47698976 .3983612 .47698976 .40437318 .47698976 .42237855 .46299745 .43138124 .44799806 .43138124 .43598939 .43138124 .41799928 .42337037 .41099549 .4033661 .4079895 .3963623 .36099244 .205307 .35398866 .17930603 .34700013 .14929199 .34498597 .13128662 .34498597 .11328125 .34498597 .10227966 .34498597 .10028076 .34599305 .09527588 .32299806 .042266847 .29299928 .011245728 .2539978 .011245728 .17399597 .011245728 .17399597 .08526611 .17399597 .10227966 .17399597 .1342926 .1789856 .17329407 .22599793 .29634095 .23699951 .32633973 .24299622 .3403473 .24299622 .36035157 .24299622 .405365 .20999146 .4423828 .16099549 .4423828 .06599426 .4423828 .0289917 .29733277 .0289917 .28833009 .0289917 .27833558 .038986207 .27833558 .040985109 .27833558 .050994874 .27833558 .051986696 .28033448 .056991579 .29634095 .083999637 .38935853 .12298584 .42037965 .1579895 .42037965 .16699219 .42037965 .18299866 .41937257 .18299866 .38735963 .18299866 .36235047 .17199707 .3343506 .16499329 .31733705 .12098694 .1993103 .10899353 .1532898 .10899353 .11528015 .10899353 .024261475 .17599488-.0107421879 .25099183-.0107421879 .2679901-.0107421879 .31498719-.0107421879 .35499574 .059265138 .3809967-.0047454836 .44999696-.0107421879 .47999574-.0107421879 .5549927-.0107421879 .598999 .052261354 .625 .11227417 .6589966 .19030762 .69099429 .32434083 .69099429 .37236024 .69099429 .42736817 .6639862 .4423828 .6469879 .4423828 .621994 .4423828 .5970001 .41636659 .5970001 .3943634 .5970001 .38136292 .6029968 .3753662 .6119995 .36735536 .6230011 .35635377 .647995 .33035279 .647995 .28233338 .647995 .24832154 .61898806 .15029907 .59298709 .09927368 .5669861 .04626465 .5319977 .011245728 .48298646 .011245728 .43598939 .011245728 .40899659 .041259767 .40899659 .09828186 .40899659 .12628174 .41600038 .1572876 .41999818 .17129517L.46199037 .33935548Z"/>
<path id="font_3_1" d="M.37298585 .37835694C.35499574 .41537477 .32598878 .4423828 .2809906 .4423828 .1639862 .4423828 .039993287 .29533387 .039993287 .14929199 .039993287 .055267335 .09498596-.0107421879 .17298889-.0107421879 .19299317-.0107421879 .24299622-.0067443849 .30299378 .06427002 .31098939 .022247315 .34599305-.0107421879 .3939972-.0107421879 .42900086-.0107421879 .45199586 .012252808 .46798707 .044265748 .4850006 .08027649 .49798585 .14129639 .49798585 .14329529 .49798585 .1532898 .4889984 .1532898 .48599244 .1532898 .47599793 .1532898 .47499085 .14929199 .47200013 .13528443 .45498658 .07026672 .43699647 .011245728 .3959961 .011245728 .36898805 .011245728 .3659973 .037261964 .3659973 .057266237 .3659973 .07926941 .36799623 .08728027 .3789978 .13128662 .3899994 .17329407 .3919983 .18330384 .40098573 .22131348L.43699647 .36135865C.44400025 .38935853 .44400025 .39135743 .44400025 .39537049 .44400025 .41236878 .43199159 .42237855 .4149933 .42237855 .3909912 .42237855 .37599183 .4003601 .37298585 .37835694M.30799867 .119277957C.30299378 .10127258 .30299378 .09927368 .28799439 .08227539 .24398804 .027252198 .20298767 .011245728 .1749878 .011245728 .125 .011245728 .11099243 .06626892 .11099243 .105285648 .11099243 .1552887 .14299011 .27833558 .1659851 .32434083 .19699097 .38336183 .24198914 .42037965 .28199769 .42037965 .34700013 .42037965 .36099244 .3383484 .36099244 .33235169 .36099244 .32633973 .35899354 .32034303 .35798646 .31533814L.30799867 .119277957Z"/>
<path id="font_3_2" d="M.23899842 .68333438C.23899842 .6843262 .23899842 .69433596 .22599793 .69433596 .20298767 .69433596 .12998963 .6863251 .10398865 .6843262 .09599304 .68333438 .084991458 .6823273 .084991458 .6643219 .084991458 .6523285 .09399414 .6523285 .10899353 .6523285 .15699768 .6523285 .15899658 .6453247 .15899658 .6353302 .15899658 .6283264 .1499939 .5943451 .14498902 .573349L.06298828 .24731446C.050994874 .1973114 .04699707 .18130493 .04699707 .14628601 .04699707 .05126953 .099990848-.0107421879 .17399597-.0107421879 .2919922-.0107421879 .4149933 .1382904 .4149933 .28233338 .4149933 .37335206 .3619995 .4423828 .28199769 .4423828 .23599243 .4423828 .19499207 .41337586 .16499329 .38235475L.23899842 .68333438M.14498902 .30534364C.15098572 .3273468 .15098572 .3293457 .1599884 .3403473 .20899964 .405365 .2539978 .42037965 .27999879 .42037965 .31599427 .42037965 .34298707 .3903656 .34298707 .32633973 .34298707 .26733399 .30999757 .15229798 .2919922 .11428833 .25898744 .04725647 .21299744 .011245728 .17399597 .011245728 .13999939 .011245728 .10699463 .038253786 .10699463 .11227417 .10699463 .13128662 .10699463 .15029907 .12298584 .21331787L.14498902 .30534364Z"/>
<path id="font_3_3" d="M.3959961 .37998963C.37998963 .37998963 .3659973 .37998963 .35198976 .36598207 .33599855 .35098268 .33399964 .33398438 .33399964 .3269806 .33399964 .30297853 .35198976 .2919922 .37098695 .2919922 .3999939 .2919922 .4269867 .315979 .4269867 .35598756 .4269867 .40522767 .37998963 .4423828 .30899049 .4423828 .17399597 .4423828 .040985109 .2989807 .040985109 .15811157 .040985109 .06819153 .09899902-.0107421879 .20298767-.0107421879 .34599305-.0107421879 .42999269 .09516907 .42999269 .107162479 .42999269 .11315918 .42399598 .120147708 .41799928 .120147708 .41299439 .120147708 .41099549 .1181488 .40499879 .1101532 .32598878 .011245728 .21699524 .011245728 .20498657 .011245728 .14199829 .011245728 .114990238 .06021118 .114990238 .120147708 .114990238 .1611023 .1349945 .25801087 .16899109 .31999208 .19999695 .37698365 .25498963 .42037965 .30999757 .42037965 .34399415 .42037965 .38198854 .40724183 .3959961 .37998963Z"/>
<path id="font_3_4" d="M.5159912 .68333438C.5159912 .6843262 .5159912 .69433596 .5029907 .69433596 .48799134 .69433596 .3929901 .68533328 .37599183 .68333438 .36799623 .6823273 .3619995 .6773224 .3619995 .6643219 .3619995 .6523285 .37098695 .6523285 .38598634 .6523285 .43399049 .6523285 .43598939 .6453247 .43598939 .6353302L.43299867 .6153412 .37298585 .37835694C.35499574 .41537477 .32598878 .4423828 .2809906 .4423828 .1639862 .4423828 .039993287 .29533387 .039993287 .14929199 .039993287 .055267335 .09498596-.0107421879 .17298889-.0107421879 .19299317-.0107421879 .24299622-.0067443849 .30299378 .06427002 .31098939 .022247315 .34599305-.0107421879 .3939972-.0107421879 .42900086-.0107421879 .45199586 .012252808 .46798707 .044265748 .4850006 .08027649 .49798585 .14129639 .49798585 .14329529 .49798585 .1532898 .4889984 .1532898 .48599244 .1532898 .47599793 .1532898 .47499085 .14929199 .47200013 .13528443 .45498658 .07026672 .43699647 .011245728 .3959961 .011245728 .36898805 .011245728 .3659973 .037261964 .3659973 .057266237 .3659973 .08126831 .36799623 .088272098 .37199403 .105285648L.5159912 .68333438M.30799867 .119277957C.30299378 .10127258 .30299378 .09927368 .28799439 .08227539 .24398804 .027252198 .20298767 .011245728 .1749878 .011245728 .125 .011245728 .11099243 .06626892 .11099243 .105285648 .11099243 .1552887 .14299011 .27833558 .1659851 .32434083 .19699097 .38336183 .24198914 .42037965 .28199769 .42037965 .34700013 .42037965 .36099244 .3383484 .36099244 .33235169 .36099244 .32633973 .35899354 .32034303 .35798646 .31533814L.30799867 .119277957Z"/>
</defs>
<g clip-path="url(#clip_1)">
<g id="layer_1" data-name="Layer 1">
<path transform="matrix(.40000803,0,0,-.4,43.497259,34.796804)" stroke-width="2" stroke-linecap="butt" stroke-miterlimit="4" stroke-linejoin="miter" fill="none" stroke="#231f20" d="M0 0-86-143.6"/>
<path transform="matrix(.40000803,0,0,-.4,9.0967659,62.636644)" stroke-width="2" stroke-linecap="butt" stroke-miterlimit="4" stroke-linejoin="miter" fill="none" stroke="#231f20" d="M0 0 86-75.4"/>
<path transform="matrix(.40000803,0,0,-.4,9.096966,62.3968)" stroke-width="2" stroke-linecap="butt" stroke-miterlimit="4" stroke-linejoin="miter" fill="none" stroke="#231f20" d="M0 0V-76"/>
<g clip-path="url(#clip_2)">
<path transform="matrix(.40000803,0,0,-.4,11.256769,92.23664)" d="M0 0C0-2.982-2.417-5.4-5.399-5.4-8.382-5.4-10.8-2.982-10.8 0-10.8 2.982-8.382 5.4-5.399 5.4-2.417 5.4 0 2.982 0 0" fill="#ffffff"/>
<path transform="matrix(.40000803,0,0,-.4,11.256769,92.23664)" stroke-width="2" stroke-linecap="butt" stroke-miterlimit="4" stroke-linejoin="miter" fill="none" stroke="#231f20" d="M0 0C0-2.982-2.417-5.4-5.399-5.4-8.382-5.4-10.8-2.982-10.8 0-10.8 2.982-8.382 5.4-5.399 5.4-2.417 5.4 0 2.982 0 0Z"/>
<path transform="matrix(.40000803,0,0,-.4,11.256769,62.636644)" d="M0 0C0-2.982-2.417-5.4-5.399-5.4-8.382-5.4-10.8-2.982-10.8 0-10.8 2.982-8.382 5.4-5.399 5.4-2.417 5.4 0 2.982 0 0" fill="#ffffff"/>
<path transform="matrix(.40000803,0,0,-.4,11.256769,62.636644)" stroke-width="2" stroke-linecap="butt" stroke-miterlimit="4" stroke-linejoin="miter" fill="none" stroke="#231f20" d="M0 0C0-2.982-2.417-5.4-5.399-5.4-8.382-5.4-10.8-2.982-10.8 0-10.8 2.982-8.382 5.4-5.399 5.4-2.417 5.4 0 2.982 0 0Z"/>
<path transform="matrix(.40000803,0,0,-.4,43.497259,5.5968019)" stroke-width="2" stroke-linecap="butt" stroke-miterlimit="4" stroke-linejoin="miter" fill="none" stroke="#231f20" d="M0 0V-218"/>
<path transform="matrix(.40000803,0,0,-.4,45.65746,34.796804)" d="M0 0C0-2.982-2.417-5.4-5.399-5.4-8.382-5.4-10.8-2.982-10.8 0-10.8 2.982-8.382 5.4-5.399 5.4-2.417 5.4 0 2.982 0 0" fill="#ffffff"/>
<path transform="matrix(.40000803,0,0,-.4,45.65746,34.796804)" stroke-width="2" stroke-linecap="butt" stroke-miterlimit="4" stroke-linejoin="miter" fill="none" stroke="#231f20" d="M0 0C0-2.982-2.417-5.4-5.399-5.4-8.382-5.4-10.8-2.982-10.8 0-10.8 2.982-8.382 5.4-5.399 5.4-2.417 5.4 0 2.982 0 0Z"/>
<path transform="matrix(.40000803,0,0,-.4,45.817224,92.23664)" d="M0 0C0-2.982-2.417-5.4-5.399-5.4-8.382-5.4-10.8-2.982-10.8 0-10.8 2.982-8.382 5.4-5.399 5.4-2.417 5.4 0 2.982 0 0" fill="#ffffff"/>
<path transform="matrix(.40000803,0,0,-.4,45.817224,92.23664)" stroke-width="2" stroke-linecap="butt" stroke-miterlimit="4" stroke-linejoin="miter" fill="none" stroke="#231f20" d="M0 0C0-2.982-2.417-5.4-5.399-5.4-8.382-5.4-10.8-2.982-10.8 0-10.8 2.982-8.382 5.4-5.399 5.4-2.417 5.4 0 2.982 0 0Z"/>
<path transform="matrix(.40000803,0,0,-.4,45.65746,63.196805)" d="M0 0C0-2.982-2.418-5.4-5.4-5.4-8.383-5.4-10.801-2.982-10.801 0-10.801 2.982-8.383 5.4-5.4 5.4-2.418 5.4 0 2.982 0 0" fill="#ffffff"/>
<path transform="matrix(.40000803,0,0,-.4,45.65746,63.196805)" stroke-width="2" stroke-linecap="butt" stroke-miterlimit="4" stroke-linejoin="miter" fill="none" stroke="#231f20" d="M0 0C0-2.982-2.418-5.4-5.4-5.4-8.383-5.4-10.801-2.982-10.801 0-10.801 2.982-8.383 5.4-5.4 5.4-2.418 5.4 0 2.982 0 0Z"/>
<path transform="matrix(.40000803,0,0,-.4,45.65746,5.5968019)" d="M0 0C0-2.982-2.418-5.4-5.4-5.4-8.383-5.4-10.801-2.982-10.801 0-10.801 2.982-8.383 5.4-5.4 5.4-2.418 5.4 0 2.982 0 0" fill="#ffffff"/>
<path transform="matrix(.40000803,0,0,-.4,45.65746,5.5968019)" stroke-width="2" stroke-linecap="butt" stroke-miterlimit="4" stroke-linejoin="miter" fill="none" stroke="#231f20" d="M0 0C0-2.982-2.418-5.4-5.4-5.4-8.383-5.4-10.801-2.982-10.801 0-10.801 2.982-8.383 5.4-5.4 5.4-2.418 5.4 0 2.982 0 0Z"/>
</g>
</g>
</g>
<use data-text="z" xlink:href="#font_3_6" transform="matrix(9.962799,0,0,-9.9626,1.0646057,94.109)"/>
<use data-text="w" xlink:href="#font_3_5" transform="matrix(9.962799,0,0,-9.9626,49.207567,65.318)"/>
<use data-text="a" xlink:href="#font_3_1" transform="matrix(9.962799,0,0,-9.9626,49.207567,94.109)"/>
<use data-text="b" xlink:href="#font_3_2" transform="matrix(9.962799,0,0,-9.9626,1.0646057,65.318)"/>
<use data-text="c" xlink:href="#font_3_3" transform="matrix(9.962799,0,0,-9.9626,49.207567,36.527)"/>
<use data-text="d" xlink:href="#font_3_4" transform="matrix(9.962799,0,0,-9.9626,49.207567,8.208)"/>
</svg>
