<svg xmlns="http://www.w3.org/2000/svg" xmlns:xlink="http://www.w3.org/1999/xlink" version="1.1" width="249pt" height="63pt" viewBox="0 0 249 63">
<defs>
<clipPath id="clip_1">
<path transform="matrix(.54283,0,0,-.54283,.8969765,63.571138)" d="M0 0H468V115.2H0Z"/>
</clipPath>
<clipPath id="clip_2">
<path transform="matrix(.54283,0,0,-.54283,.8969765,63.571138)" d="M0 115.2H468V0H0Z"/>
</clipPath>
<path id="font_3_1" d="M.2939911 .64004519C.2939911 .66400149 .2939911 .6660156 .2709961 .6660156 .20899964 .60227969 .12098694 .60227969 .08898926 .60227969V.57128909C.10899353 .57128909 .16799927 .57128909 .21998596 .5972748V.07902527C.21998596 .042999269 .21699524 .0309906 .1269989 .0309906H.09498596V0C.12998963 .0029907227 .21699524 .0029907227 .25698854 .0029907227 .29699708 .0029907227 .38398744 .0029907227 .4189911 0V.0309906H.3869934C.29699708 .0309906 .2939911 .041992189 .2939911 .07902527V.64004519Z"/>
<path id="font_3_2" d="M.1269989 .07699585 .23298645 .18003845C.3889923 .31811524 .44898988 .3721466 .44898988 .47216798 .44898988 .5860901 .35899354 .6660156 .23699951 .6660156 .12399292 .6660156 .049987794 .57411196 .049987794 .48516847 .049987794 .4291687 .099990848 .4291687 .102996829 .4291687 .11999512 .4291687 .15499878 .44117738 .15499878 .48217774 .15499878 .5081787 .13699341 .5341797 .101989749 .5341797 .09399414 .5341797 .09199524 .5341797 .08898926 .5331726 .11199951 .59806826 .1659851 .63500979 .22399903 .63500979 .31498719 .63500979 .35798646 .5541382 .35798646 .47216798 .35798646 .39215089 .30799867 .31311036 .25299073 .25108338L.06098938 .036987306C.049987794 .025985718 .049987794 .023986817 .049987794 0H.42099L.44898988 .17404175H.42399598C.4189911 .14402771 .4119873 .1000061 .4019928 .084991458 .394989 .07699585 .32899476 .07699585 .30699159 .07699585H.1269989Z"/>
<path id="font_3_3" d="M.2899933 .35191346C.37199403 .37893678 .42999269 .4490509 .42999269 .52809146 .42999269 .6100464 .34199525 .6660156 .24598694 .6660156 .14498902 .6660156 .068984989 .60606387 .068984989 .53009036 .068984989 .49710084 .09098816 .47808839 .11999512 .47808839 .15098572 .47808839 .17098999 .50009158 .17098999 .5290985 .17098999 .57910159 .12399292 .57910159 .10899353 .57910159 .13999939 .62802127 .20599365 .64100649 .24198914 .64100649 .2829895 .64100649 .33799745 .6190338 .33799745 .5290985 .33799745 .51708987 .33599855 .45906068 .30999757 .4149933 .27999879 .36691285 .24598694 .36390687 .22099304 .36291505 .21299744 .36190797 .18899536 .35990907 .18199158 .35990907 .17399597 .35890199 .16699219 .35791017 .16699219 .3479004 .16699219 .33691407 .17399597 .33691407 .19099427 .33691407H.23498535C.31698609 .33691407 .35398866 .2686615 .35398866 .17037964 .35398866 .034469606 .2849884 .0055389406 .24099732 .0055389406 .19799805 .0055389406 .12298584 .022491456 .08799744 .08137512 .12298584 .07637024 .1539917 .09837341 .1539917 .1363678 .1539917 .17237854 .1269989 .19238281 .09799194 .19238281 .07398987 .19238281 .041992189 .17837525 .041992189 .1343689 .041992189 .043441774 .1349945-.022460938 .24398804-.022460938 .3659973-.022460938 .45700074 .06838989 .45700074 .17037964 .45700074 .252594 .3939972 .33088685 .2899933 .35191346Z"/>
<path id="font_3_4" d="M.2939911 .16503906V.07800293C.2939911 .041992189 .2919922 .0309906 .21798706 .0309906H.19699097V0C.23799134 .0029907227 .2899933 .0029907227 .33198548 .0029907227 .37399293 .0029907227 .4269867 .0029907227 .46798707 0V.0309906H.44699098C.37298585 .0309906 .37098695 .041992189 .37098695 .07800293V.16503906H.47099305V.19602967H.37098695V.65075686C.37098695 .67074587 .37098695 .6767578 .35499574 .6767578 .34599305 .6767578 .34298707 .6767578 .33499146 .66474917L.027999878 .19602967V.16503906H.2939911M.2999878 .19602967H.055999757L.2999878 .5688019V.19602967Z"/>
</defs>
<g clip-path="url(#clip_1)">
<g id="layer_1" data-name="Edges">
<path transform="matrix(.54283,0,0,-.54283,5.825656,52.615419)" stroke-width="2" stroke-linecap="butt" stroke-miterlimit="4" stroke-linejoin="miter" fill="none" stroke="#231f20" d="M0 0 41.147 72.814"/>
<path transform="matrix(.54283,0,0,-.54283,28.161753,13.0895199)" stroke-width="2" stroke-linecap="butt" stroke-miterlimit="4" stroke-linejoin="miter" fill="none" stroke="#231f20" d="M0 0 43.782-71.414"/>
<path transform="matrix(.54283,0,0,-.54283,51.928045,51.855237)" stroke-width="2" stroke-linecap="butt" stroke-miterlimit="4" stroke-linejoin="miter" fill="none" stroke="#231f20" d="M0 0-84.93-1.4"/>
<path transform="matrix(.54283,0,0,-.54283,5.825656,52.615419)" stroke-width="2" stroke-linecap="butt" stroke-miterlimit="4" stroke-linejoin="miter" fill="none" stroke="#231f20" d="M0 0 41.558 30.418"/>
<path transform="matrix(.54283,0,0,-.54283,92.634159,13.162422)" stroke-width="2" stroke-linecap="butt" stroke-miterlimit="4" stroke-linejoin="miter" fill="none" stroke="#231f20" d="M0 0 .126-40.405"/>
<path transform="matrix(.54283,0,0,-.54283,92.702548,35.09536)" stroke-width="2" stroke-linecap="butt" stroke-miterlimit="4" stroke-linejoin="miter" fill="none" stroke="#231f20" d="M0 0 43.426-32.006"/>
<path transform="matrix(.54283,0,0,-.54283,116.27539,52.469125)" stroke-width="2" stroke-linecap="butt" stroke-miterlimit="4" stroke-linejoin="miter" fill="none" stroke="#231f20" d="M0 0-43.552 72.411"/>
<path transform="matrix(.54283,0,0,-.54283,92.85683,36.176244)" stroke-width="2" stroke-linecap="butt" stroke-miterlimit="4" stroke-linejoin="miter" fill="none" stroke="#231f20" d="M0 0-41.558-30.419"/>
<path transform="matrix(.54283,0,0,-.54283,156.4151,13.157917)" stroke-width="2" stroke-linecap="butt" stroke-miterlimit="4" stroke-linejoin="miter" fill="none" stroke="#231f20" d="M0 0 .41-42.396"/>
<path transform="matrix(.54283,0,0,-.54283,156.4151,13.157917)" stroke-width="2" stroke-linecap="butt" stroke-miterlimit="4" stroke-linejoin="miter" fill="none" stroke="#231f20" d="M0 0-41.147-72.814"/>
<path transform="matrix(.54283,0,0,-.54283,134.07906,52.68381)" stroke-width="2" stroke-linecap="butt" stroke-miterlimit="4" stroke-linejoin="miter" fill="none" stroke="#231f20" d="M0 0 84.605-.317"/>
<path transform="matrix(.54283,0,0,-.54283,180.0054,52.856054)" stroke-width="2" stroke-linecap="butt" stroke-miterlimit="4" stroke-linejoin="miter" fill="none" stroke="#231f20" d="M0 0-43.458 73.132"/>
<path transform="matrix(.54283,0,0,-.54283,220.3164,12.675018)" stroke-width="2" stroke-linecap="butt" stroke-miterlimit="4" stroke-linejoin="miter" fill="none" stroke="#231f20" d="M0 0 .41-42.396"/>
<path transform="matrix(.54283,0,0,-.54283,220.53902,35.689058)" stroke-width="2" stroke-linecap="butt" stroke-miterlimit="4" stroke-linejoin="miter" fill="none" stroke="#231f20" d="M0 0-42.847-31.079"/>
<path transform="matrix(.54283,0,0,-.54283,220.78025,35.09536)" stroke-width="2" stroke-linecap="butt" stroke-miterlimit="4" stroke-linejoin="miter" fill="none" stroke="#231f20" d="M0 0 42.697-31.107"/>
</g>
<g id="layer_1" data-name="Vertices">
<g clip-path="url(#clip_2)">
<path transform="matrix(.54283,0,0,-.54283,31.771246,36.103616)" d="M0 0C0 3.404-2.793 6.165-6.238 6.165-9.686 6.165-12.479 3.404-12.479 0-12.479-3.402-9.686-6.164-6.238-6.164-2.793-6.164 0-3.402 0 0" fill="#f8cd83"/>
<path transform="matrix(.54283,0,0,-.54283,31.771246,36.103616)" stroke-width="2" stroke-linecap="butt" stroke-miterlimit="4" stroke-linejoin="miter" fill="none" stroke="#231f20" d="M0 0C0 3.404-2.793 6.165-6.238 6.165-9.686 6.165-12.479 3.404-12.479 0-12.479-3.402-9.686-6.164-6.238-6.164-2.793-6.164 0-3.402 0 0Z"/>
<path transform="matrix(.54283,0,0,-.54283,55.1898,52.39595)" d="M0 0C0 3.404-2.793 6.164-6.238 6.164-9.686 6.164-12.479 3.404-12.479 0-12.479-3.402-9.686-6.164-6.238-6.164-2.793-6.164 0-3.402 0 0" fill="#f8cd83"/>
<path transform="matrix(.54283,0,0,-.54283,55.1898,52.39595)" stroke-width="2" stroke-linecap="butt" stroke-miterlimit="4" stroke-linejoin="miter" fill="none" stroke="#231f20" d="M0 0C0 3.404-2.793 6.164-6.238 6.164-9.686 6.164-12.479 3.404-12.479 0-12.479-3.402-9.686-6.164-6.238-6.164-2.793-6.164 0-3.402 0 0Z"/>
<path transform="matrix(.54283,0,0,-.54283,31.548579,13.0895199)" d="M0 0C0 3.404-2.793 6.164-6.238 6.164-9.686 6.164-12.479 3.404-12.479 0-12.479-3.402-9.686-6.164-6.238-6.164-2.793-6.164 0-3.402 0 0" fill="#f8cd83"/>
<path transform="matrix(.54283,0,0,-.54283,31.548579,13.0895199)" stroke-width="2" stroke-linecap="butt" stroke-miterlimit="4" stroke-linejoin="miter" fill="none" stroke="#231f20" d="M0 0C0 3.404-2.793 6.164-6.238 6.164-9.686 6.164-12.479 3.404-12.479 0-12.479-3.402-9.686-6.164-6.238-6.164-2.793-6.164 0-3.402 0 0Z"/>
<path transform="matrix(.54283,0,0,-.54283,9.212481,52.615419)" d="M0 0C0 3.404-2.793 6.164-6.238 6.164-9.686 6.164-12.479 3.404-12.479 0-12.479-3.402-9.686-6.164-6.238-6.164-2.793-6.164 0-3.402 0 0" fill="#f8cd83"/>
<path transform="matrix(.54283,0,0,-.54283,9.212481,52.615419)" stroke-width="2" stroke-linecap="butt" stroke-miterlimit="4" stroke-linejoin="miter" fill="none" stroke="#231f20" d="M0 0C0 3.404-2.793 6.164-6.238 6.164-9.686 6.164-12.479 3.404-12.479 0-12.479-3.402-9.686-6.164-6.238-6.164-2.793-6.164 0-3.402 0 0Z"/>
<path transform="matrix(.54283,0,0,-.54283,96.24371,36.17679)" d="M0 0C0 3.404-2.793 6.165-6.238 6.165-9.686 6.165-12.479 3.404-12.479 0-12.479-3.402-9.686-6.164-6.238-6.164-2.793-6.164 0-3.402 0 0" fill="#f8cd83"/>
<path transform="matrix(.54283,0,0,-.54283,96.24371,36.17679)" stroke-width="2" stroke-linecap="butt" stroke-miterlimit="4" stroke-linejoin="miter" fill="none" stroke="#231f20" d="M0 0C0 3.404-2.793 6.165-6.238 6.165-9.686 6.165-12.479 3.404-12.479 0-12.479-3.402-9.686-6.164-6.238-6.164-2.793-6.164 0-3.402 0 0Z"/>
<path transform="matrix(.54283,0,0,-.54283,119.66226,52.469125)" d="M0 0C0 3.404-2.793 6.164-6.238 6.164-9.686 6.164-12.479 3.404-12.479 0-12.479-3.402-9.686-6.164-6.238-6.164-2.793-6.164 0-3.402 0 0" fill="#f8cd83"/>
<path transform="matrix(.54283,0,0,-.54283,119.66226,52.469125)" stroke-width="2" stroke-linecap="butt" stroke-miterlimit="4" stroke-linejoin="miter" fill="none" stroke="#231f20" d="M0 0C0 3.404-2.793 6.164-6.238 6.164-9.686 6.164-12.479 3.404-12.479 0-12.479-3.402-9.686-6.164-6.238-6.164-2.793-6.164 0-3.402 0 0Z"/>
<path transform="matrix(.54283,0,0,-.54283,96.02104,13.162422)" d="M0 0C0 3.404-2.793 6.164-6.238 6.164-9.686 6.164-12.479 3.404-12.479 0-12.479-3.402-9.686-6.164-6.238-6.164-2.793-6.164 0-3.402 0 0" fill="#f8cd83"/>
<path transform="matrix(.54283,0,0,-.54283,96.02104,13.162422)" stroke-width="2" stroke-linecap="butt" stroke-miterlimit="4" stroke-linejoin="miter" fill="none" stroke="#231f20" d="M0 0C0 3.404-2.793 6.164-6.238 6.164-9.686 6.164-12.479 3.404-12.479 0-12.479-3.402-9.686-6.164-6.238-6.164-2.793-6.164 0-3.402 0 0Z"/>
<path transform="matrix(.54283,0,0,-.54283,73.68494,52.688539)" d="M0 0C0 3.404-2.793 6.164-6.238 6.164-9.686 6.164-12.479 3.404-12.479 0-12.479-3.402-9.686-6.164-6.238-6.164-2.793-6.164 0-3.402 0 0" fill="#f8cd83"/>
<path transform="matrix(.54283,0,0,-.54283,73.68494,52.688539)" stroke-width="2" stroke-linecap="butt" stroke-miterlimit="4" stroke-linejoin="miter" fill="none" stroke="#231f20" d="M0 0C0 3.404-2.793 6.164-6.238 6.164-9.686 6.164-12.479 3.404-12.479 0-12.479-3.402-9.686-6.164-6.238-6.164-2.793-6.164 0-3.402 0 0Z"/>
<path transform="matrix(.54283,0,0,-.54283,160.0246,36.17201)" d="M0 0C0 3.404-2.793 6.164-6.238 6.164-9.686 6.164-12.479 3.404-12.479 0-12.479-3.402-9.686-6.164-6.238-6.164-2.793-6.164 0-3.402 0 0" fill="#f8cd83"/>
<path transform="matrix(.54283,0,0,-.54283,160.0246,36.17201)" stroke-width="2" stroke-linecap="butt" stroke-miterlimit="4" stroke-linejoin="miter" fill="none" stroke="#231f20" d="M0 0C0 3.404-2.793 6.164-6.238 6.164-9.686 6.164-12.479 3.404-12.479 0-12.479-3.402-9.686-6.164-6.238-6.164-2.793-6.164 0-3.402 0 0Z"/>
<path transform="matrix(.54283,0,0,-.54283,159.80199,13.157917)" d="M0 0C0 3.404-2.793 6.164-6.238 6.164-9.686 6.164-12.479 3.404-12.479 0-12.479-3.402-9.686-6.164-6.238-6.164-2.793-6.164 0-3.402 0 0" fill="#f8cd83"/>
<path transform="matrix(.54283,0,0,-.54283,159.80199,13.157917)" stroke-width="2" stroke-linecap="butt" stroke-miterlimit="4" stroke-linejoin="miter" fill="none" stroke="#231f20" d="M0 0C0 3.404-2.793 6.164-6.238 6.164-9.686 6.164-12.479 3.404-12.479 0-12.479-3.402-9.686-6.164-6.238-6.164-2.793-6.164 0-3.402 0 0Z"/>
<path transform="matrix(.54283,0,0,-.54283,137.46588,52.68381)" d="M0 0C0 3.404-2.793 6.164-6.238 6.164-9.686 6.164-12.479 3.404-12.479 0-12.479-3.402-9.686-6.164-6.238-6.164-2.793-6.164 0-3.402 0 0" fill="#f8cd83"/>
<path transform="matrix(.54283,0,0,-.54283,137.46588,52.68381)" stroke-width="2" stroke-linecap="butt" stroke-miterlimit="4" stroke-linejoin="miter" fill="none" stroke="#231f20" d="M0 0C0 3.404-2.793 6.164-6.238 6.164-9.686 6.164-12.479 3.404-12.479 0-12.479-3.402-9.686-6.164-6.238-6.164-2.793-6.164 0-3.402 0 0Z"/>
<path transform="matrix(.54283,0,0,-.54283,223.9259,35.689058)" d="M0 0C0 3.404-2.793 6.164-6.238 6.164-9.686 6.164-12.479 3.404-12.479 0-12.479-3.402-9.686-6.164-6.238-6.164-2.793-6.164 0-3.402 0 0" fill="#f8cd83"/>
<path transform="matrix(.54283,0,0,-.54283,223.9259,35.689058)" stroke-width="2" stroke-linecap="butt" stroke-miterlimit="4" stroke-linejoin="miter" fill="none" stroke="#231f20" d="M0 0C0 3.404-2.793 6.164-6.238 6.164-9.686 6.164-12.479 3.404-12.479 0-12.479-3.402-9.686-6.164-6.238-6.164-2.793-6.164 0-3.402 0 0Z"/>
<path transform="matrix(.54283,0,0,-.54283,247.34445,51.98139)" d="M0 0C0 3.404-2.793 6.164-6.238 6.164-9.686 6.164-12.479 3.404-12.479 0-12.479-3.402-9.686-6.164-6.238-6.164-2.793-6.164 0-3.402 0 0" fill="#f8cd83"/>
<path transform="matrix(.54283,0,0,-.54283,247.34445,51.98139)" stroke-width="2" stroke-linecap="butt" stroke-miterlimit="4" stroke-linejoin="miter" fill="none" stroke="#231f20" d="M0 0C0 3.404-2.793 6.164-6.238 6.164-9.686 6.164-12.479 3.404-12.479 0-12.479-3.402-9.686-6.164-6.238-6.164-2.793-6.164 0-3.402 0 0Z"/>
<path transform="matrix(.54283,0,0,-.54283,223.70322,12.675018)" d="M0 0C0 3.404-2.793 6.164-6.238 6.164-9.686 6.164-12.479 3.404-12.479 0-12.479-3.402-9.686-6.164-6.238-6.164-2.793-6.164 0-3.402 0 0" fill="#f8cd83"/>
<path transform="matrix(.54283,0,0,-.54283,223.70322,12.675018)" stroke-width="2" stroke-linecap="butt" stroke-miterlimit="4" stroke-linejoin="miter" fill="none" stroke="#231f20" d="M0 0C0 3.404-2.793 6.164-6.238 6.164-9.686 6.164-12.479 3.404-12.479 0-12.479-3.402-9.686-6.164-6.238-6.164-2.793-6.164 0-3.402 0 0Z"/>
<path transform="matrix(.54283,0,0,-.54283,183.3923,52.856054)" d="M0 0C0 3.404-2.793 6.164-6.238 6.164-9.686 6.164-12.479 3.404-12.479 0-12.479-3.402-9.686-6.164-6.238-6.164-2.793-6.164 0-3.402 0 0" fill="#f8cd83"/>
<path transform="matrix(.54283,0,0,-.54283,183.3923,52.856054)" stroke-width="2" stroke-linecap="butt" stroke-miterlimit="4" stroke-linejoin="miter" fill="none" stroke="#231f20" d="M0 0C0 3.404-2.793 6.164-6.238 6.164-9.686 6.164-12.479 3.404-12.479 0-12.479-3.402-9.686-6.164-6.238-6.164-2.793-6.164 0-3.402 0 0Z"/>
<path transform="matrix(.54283,0,0,-.54283,200.66742,52.559724)" d="M0 0C0 3.404-2.793 6.164-6.238 6.164-9.686 6.164-12.479 3.404-12.479 0-12.479-3.402-9.686-6.164-6.238-6.164-2.793-6.164 0-3.402 0 0" fill="#f8cd83"/>
<path transform="matrix(.54283,0,0,-.54283,200.66742,52.559724)" stroke-width="2" stroke-linecap="butt" stroke-miterlimit="4" stroke-linejoin="miter" fill="none" stroke="#231f20" d="M0 0C0 3.404-2.793 6.164-6.238 6.164-9.686 6.164-12.479 3.404-12.479 0-12.479-3.402-9.686-6.164-6.238-6.164-2.793-6.164 0-3.402 0 0Z"/>
</g>
</g>
</g>
<use data-text="1" xlink:href="#font_3_1" transform="matrix(9.9626,0,0,-9.9626,3.9449998,61.793)"/>
<use data-text="2" xlink:href="#font_3_2" transform="matrix(9.9626,0,0,-9.9626,50.944,61.793)"/>
<use data-text="3" xlink:href="#font_3_3" transform="matrix(9.9626,0,0,-9.9626,26.808999,7.6809999)"/>
<use data-text="4" xlink:href="#font_3_4" transform="matrix(9.9626,0,0,-9.9626,26.808999,45.28)"/>
<use data-text="1" xlink:href="#font_3_1" transform="matrix(9.9626,0,0,-9.9626,68.72699,61.793)"/>
<use data-text="2" xlink:href="#font_3_2" transform="matrix(9.9626,0,0,-9.9626,115.72499,61.793)"/>
<use data-text="3" xlink:href="#font_3_3" transform="matrix(9.9626,0,0,-9.9626,91.59099,7.6809999)"/>
<use data-text="4" xlink:href="#font_3_4" transform="matrix(9.9626,0,0,-9.9626,91.59099,45.28)"/>
<use data-text="1" xlink:href="#font_3_1" transform="matrix(9.9626,0,0,-9.9626,132.23799,61.793)"/>
<use data-text="2" xlink:href="#font_3_2" transform="matrix(9.9626,0,0,-9.9626,179.237,61.793)"/>
<use data-text="3" xlink:href="#font_3_3" transform="matrix(9.9626,0,0,-9.9626,155.103,7.6809999)"/>
<use data-text="4" xlink:href="#font_3_4" transform="matrix(9.9626,0,0,-9.9626,155.103,45.28)"/>
<use data-text="1" xlink:href="#font_3_1" transform="matrix(9.9626,0,0,-9.9626,195.75,61.793)"/>
<use data-text="2" xlink:href="#font_3_2" transform="matrix(9.9626,0,0,-9.9626,242.749,61.793)"/>
<use data-text="3" xlink:href="#font_3_3" transform="matrix(9.9626,0,0,-9.9626,218.61399,7.6809999)"/>
<use data-text="4" xlink:href="#font_3_4" transform="matrix(9.9626,0,0,-9.9626,218.61399,45.28)"/>
</svg>
