<svg xmlns="http://www.w3.org/2000/svg" xmlns:xlink="http://www.w3.org/1999/xlink" version="1.1" width="96pt" height="103pt" viewBox="0 0 96 103">
<defs>
<clipPath id="clip_1">
<path transform="matrix(.60001209,0,0,-.60003,-1.1031342,94.13956)" d="M0 0H158.4V144H0Z"/>
</clipPath>
<clipPath id="clip_2">
<path transform="matrix(.60001209,0,0,-.60003,-1.1031342,94.13956)" d="M0 144H158.4V0H0Z"/>
</clipPath>
<path id="font_3_1" d="M.644989 .69506838C.644989 .69807437 .6429901 .7050781 .6339874 .7050781 .6289978 .7050781 .6279907 .70407107 .6159973 .6900635L.56799319 .6330414C.5419922 .68006899 .48999024 .7050781 .4249878 .7050781 .2979889 .7050781 .17799378 .58999636 .17799378 .4689026 .17799378 .38783265 .23098755 .34179688 .28199769 .32678224L.3889923 .2987671C.42599488 .2897644 .48098756 .27474977 .48098756 .19267273 .48098756 .1026001 .39898683 .008529663 .30099488 .008529663 .23699951 .008529663 .12599182 .030548096 .12599182 .15464783 .12599182 .17866516 .1309967 .2026825 .13198853 .20869446 .1329956 .21269226 .13398743 .21369934 .13398743 .21569824 .13398743 .22570801 .1269989 .22669983 .12199402 .22669983 .116989139 .22669983 .114990238 .22570801 .11199951 .22270203 .10798645 .21870423 .051986696-.009475708 .051986696-.012466431 .051986696-.018463135 .056991579-.022460938 .06298828-.022460938 .067993167-.022460938 .068984989-.021469117 .08099365-.007461548L.12998963 .049560548C.17298889-.008468628 .24099732-.022460938 .29899598-.022460938 .43499757-.022460938 .5529938 .11061096 .5529938 .2347107 .5529938 .30377198 .5189972 .33779908 .5039978 .35180665 .48098756 .37483216 .46598817 .37882997 .3769989 .40185548 .35499574 .40785218 .31900025 .41786195 .30999757 .41986085 .2829895 .42886354 .24899292 .457901 .24899292 .51094058 .24899292 .59199526 .32899476 .677063 .42399598 .677063 .5069885 .677063 .56799319 .6340332 .56799319 .52194216 .56799319 .48991395 .56399539 .47190858 .56399539 .4658966 .56399539 .4649048 .56399539 .45588685 .57598879 .45588685 .58599856 .45588685 .58699038 .45889283 .59098818 .47590638L.644989 .69506838Z"/>
<path id="font_3_2" d="M.4269867 .6066284C.43399049 .63461306 .43798829 .64060977 .44999696 .6436157 .45899964 .6456146 .49198915 .6456146 .5130005 .6456146 .6139984 .6456146 .6589966 .6416168 .6589966 .56365969 .6589966 .54867556 .6549988 .50968936 .651001 .4837036 .6499939 .4797058 .647995 .4677124 .647995 .46472169 .647995 .45872499 .651001 .45173646 .6599884 .45173646 .67099 .45173646 .6729889 .45973207 .6749878 .4747162L.70199587 .64860537C.7029877 .65260317 .70399478 .6626129 .70399478 .66560366 .70399478 .6766052 .69400027 .6766052 .6769867 .6766052H.12199402C.09799194 .6766052 .09700012 .6756134 .08999634 .6566162L.02999878 .4807129C.0289917 .478714 .023986817 .46472169 .023986817 .46272279 .023986817 .45672608 .0289917 .45173646 .035995485 .45173646 .04598999 .45173646 .04699707 .45672608 .052993776 .4727173 .10699463 .6276245 .1329956 .6456146 .2809906 .6456146H.31999208C.34799195 .6456146 .34799195 .6416168 .34799195 .6336212 .34799195 .6276245 .34498597 .6156311 .34399415 .6126251L.20999146 .07896423C.20098877 .041992189 .19799805 .0309906 .09098816 .0309906 .054992677 .0309906 .04899597 .0309906 .04899597 .011993408 .04899597 0 .05999756 0 .06599426 0 .09298706 0 .12098694 .0019989014 .147995 .0019989014 .17599488 .0019989014 .20498657 .0029907227 .23298645 .0029907227 .26098634 .0029907227 .2889862 .0019989014 .31599427 .0019989014 .34498597 .0019989014 .375 0 .40299989 0 .41299439 0 .4249878 0 .4249878 .019989014 .4249878 .0309906 .4169922 .0309906 .3909912 .0309906 .3659973 .0309906 .35299684 .0309906 .32699586 .032989503 .2979889 .035995485 .2899933 .038986207 .2899933 .054977418 .2899933 .05596924 .2899933 .06097412 .2939911 .07595825L.4269867 .6066284Z"/>
<path id="font_3_3" d="M.33399964 .30233766C.33999635 .32835389 .36299134 .42037965 .43299867 .42037965 .43798829 .42037965 .46199037 .42037965 .48298646 .40734864 .45498658 .402359 .43499757 .37734986 .43499757 .35334779 .43499757 .33735658 .44599916 .31835938 .47299195 .31835938 .49499513 .31835938 .5269928 .3363495 .5269928 .37635804 .5269928 .42837525 .46798707 .4423828 .43399049 .4423828 .37599183 .4423828 .34098817 .38935853 .32899476 .36634828 .3039856 .43237306 .25 .4423828 .22099304 .4423828 .116989139 .4423828 .05999756 .3133545 .05999756 .28834535 .05999756 .27833558 .069992069 .27833558 .07199097 .27833558 .07998657 .27833558 .08299255 .28033448 .084991458 .28933717 .11898804 .39535523 .18499756 .42037965 .21899414 .42037965 .23799134 .42037965 .272995 .4113617 .272995 .35334779 .272995 .32235719 .2559967 .25532533 .21899414 .11528015 .20298767 .053268434 .16799927 .011245728 .12399292 .011245728 .117996219 .011245728 .09498596 .011245728 .07398987 .024276734 .09899902 .029266358 .12098694 .05027771 .12098694 .07827759 .12098694 .105270389 .09899902 .11328125 .083999637 .11328125 .053985597 .11328125 .0289917 .08728027 .0289917 .055267335 .0289917 .009246826 .07899475-.0107421879 .12298584-.0107421879 .18899536-.0107421879 .22499085 .059280397 .22799683 .0652771 .23999024 .028274537 .27598573-.0107421879 .33599855-.0107421879 .43899537-.0107421879 .49598695 .118270877 .49598695 .14328003 .49598695 .1532898 .4869995 .1532898 .48399354 .1532898 .47499085 .1532898 .47299195 .14929199 .47099305 .14228821 .43798829 .03527832 .36999513 .011245728 .33799745 .011245728 .29899598 .011245728 .2829895 .043273927 .2829895 .07727051 .2829895 .09927368 .2889862 .121276859 .2999878 .16529846L.33399964 .30233766Z"/>
<path id="font_4_1" d="M.2899933 .4720459C.2979889 .4890442 .29899598 .49705506 .29899598 .5040436 .29899598 .53504946 .2709961 .5590515 .23999024 .5590515 .20199585 .5590515 .18998719 .52804568 .18499756 .51205447L.052993776 .07901001C.051986696 .07701111 .04798889 .06401062 .04798889 .06300354 .04798889 .05101013 .07899475 .041015626 .08699036 .041015626 .09399414 .041015626 .09498596 .043014528 .101989749 .058013917L.2899933 .4720459Z"/>
<path id="font_5_1" d="M.33499146 .63612368C.33499146 .6630554 .33299256 .6640625 .30499269 .6640625 .24099732 .6014404 .1499939 .6004486 .10899353 .6004486V.5644531C.1329956 .5644531 .19898987 .5644531 .2539978 .592453V.08203125C.2539978 .04899597 .2539978 .035995485 .1539917 .035995485H.115997318V0C.13398743 .0009918213 .25698854 .0039978029 .2939911 .0039978029 .32499696 .0039978029 .45098878 .0009918213 .47299195 0V.035995485H.43499757C.33499146 .035995485 .33499146 .04899597 .33499146 .08203125V.63612368Z"/>
<path id="font_5_2" d="M.1499939 .3274536C.1499939 .40945436 .15699768 .48303224 .19499207 .543869 .22898865 .5978699 .2829895 .63505557 .34700013 .63505557 .3769989 .63505557 .4169922 .62701418 .43699647 .5998688 .4119873 .5978699 .3909912 .5808716 .3909912 .5518799 .3909912 .5268707 .4079895 .5048828 .43798829 .5048828 .46798707 .5048828 .48599244 .5248718 .48599244 .5538788 .48599244 .6119385 .44400025 .6640625 .34498597 .6640625 .20098877 .6640625 .053985597 .5318756 .053985597 .3174591 .053985597 .05845642 .17599488-.01953125 .28599549-.01953125 .4079895-.01953125 .5139923 .07345581 .5139923 .20445252 .5139923 .33145143 .41299439 .42546083 .29599 .42546083 .21598816 .42546083 .17199707 .37245179 .1499939 .3274536M.28599549 .012466431C.23599243 .012466431 .19699097 .04145813 .17599488 .08546448 .16099549 .11546326 .15299988 .16545105 .15299988 .22544861 .15299988 .32244874 .21099854 .39746095 .29100038 .39746095 .33699037 .39746095 .36799623 .37945558 .3929901 .342453 .4169922 .30445863 .41799928 .26245118 .41799928 .20445252 .41799928 .14746094 .41799928 .10545349 .3909912 .066467288 .36698915 .031463624 .33499146 .012466431 .28599549 .012466431Z"/>
</defs>
<g clip-path="url(#clip_1)">
<g id="layer_1" data-name="Edges">
<path transform="matrix(.60001209,0,0,-.60003,46.118539,13.017715)" stroke-width="1" stroke-linecap="butt" stroke-miterlimit="4" stroke-linejoin="miter" fill="none" stroke="#231f20" d="M0 0-68.376-36.325"/>
<path transform="matrix(.60001209,0,0,-.60003,46.700368,13.1094059)" stroke-width="1" stroke-linecap="butt" stroke-miterlimit="4" stroke-linejoin="miter" fill="none" stroke="#231f20" d="M0 0-40.773-36.099"/>
<path transform="matrix(.60001209,0,0,-.60003,46.118539,13.017715)" stroke-width="1" stroke-linecap="butt" stroke-miterlimit="4" stroke-linejoin="miter" fill="none" stroke="#231f20" d="M0 0-13.101-35.979"/>
<path transform="matrix(.60001209,0,0,-.60003,46.700368,13.1094059)" stroke-width="1" stroke-linecap="butt" stroke-miterlimit="4" stroke-linejoin="miter" fill="none" stroke="#231f20" d="M0 0 12.904-35.826"/>
<path transform="matrix(.60001209,0,0,-.60003,46.700368,13.1094059)" stroke-width="1" stroke-linecap="butt" stroke-miterlimit="4" stroke-linejoin="miter" fill="none" stroke="#231f20" d="M0 0 40.15-35.827"/>
<path transform="matrix(.60001209,0,0,-.60003,46.37516,12.504692)" stroke-width="1" stroke-linecap="butt" stroke-miterlimit="4" stroke-linejoin="miter" fill="none" stroke="#231f20" d="M0 0 67.67-36.834"/>
<path transform="matrix(.60001209,0,0,-.60003,46.88787,89.4319)" stroke-width="1" stroke-linecap="butt" stroke-miterlimit="4" stroke-linejoin="miter" fill="none" stroke="#231f20" d="M0 0 66.909 37.514"/>
<path transform="matrix(.60001209,0,0,-.60003,70.99089,66.09751)" stroke-width="1" stroke-linecap="butt" stroke-miterlimit="4" stroke-linejoin="miter" fill="none" stroke="#231f20" d="M0 0-40.171-38.889"/>
<path transform="matrix(.60001209,0,0,-.60003,46.88787,89.4319)" stroke-width="1" stroke-linecap="butt" stroke-miterlimit="4" stroke-linejoin="miter" fill="none" stroke="#231f20" d="M0 0 12.688 37.514"/>
<path transform="matrix(.60001209,0,0,-.60003,46.522825,88.663089)" stroke-width="1" stroke-linecap="butt" stroke-miterlimit="4" stroke-linejoin="miter" fill="none" stroke="#231f20" d="M0 0-14.349 34.617"/>
<path transform="matrix(.60001209,0,0,-.60003,46.88787,89.4319)" stroke-width="1" stroke-linecap="butt" stroke-miterlimit="4" stroke-linejoin="miter" fill="none" stroke="#231f20" d="M0 0-41.453 34.615"/>
<path transform="matrix(.60001209,0,0,-.60003,46.88787,89.4319)" stroke-width="1" stroke-linecap="butt" stroke-miterlimit="4" stroke-linejoin="miter" fill="none" stroke="#231f20" d="M0 0-68.803 36.324"/>
<path transform="matrix(.60001209,0,0,-.60003,5.0921108,67.3796)" stroke-width="1" stroke-linecap="butt" stroke-miterlimit="4" stroke-linejoin="miter" fill="none" stroke="#231f20" d="M0 0 54.273 55.129"/>
<path transform="matrix(.60001209,0,0,-.60003,22.292956,67.08666)" stroke-width="1" stroke-linecap="butt" stroke-miterlimit="4" stroke-linejoin="miter" fill="none" stroke="#231f20" d="M0 0 25.606 53.786"/>
<path transform="matrix(.60001209,0,0,-.60003,22.01551,67.891788)" stroke-width="1" stroke-linecap="butt" stroke-miterlimit="4" stroke-linejoin="miter" fill="none" stroke="#231f20" d="M0 0 54.045 55.473"/>
<path transform="matrix(.60001209,0,0,-.60003,21.759127,67.12297)" stroke-width="1" stroke-linecap="butt" stroke-miterlimit="4" stroke-linejoin="miter" fill="none" stroke="#231f20" d="M0 0 81.718 54.191"/>
<path transform="matrix(.60001209,0,0,-.60003,22.292956,67.08666)" stroke-width="1" stroke-linecap="butt" stroke-miterlimit="4" stroke-linejoin="miter" fill="none" stroke="#231f20" d="M0 0 107.806 54.131"/>
<path transform="matrix(.60001209,0,0,-.60003,87.034198,66.922557)" stroke-width="1" stroke-linecap="butt" stroke-miterlimit="4" stroke-linejoin="miter" fill="none" stroke="#231f20" d="M0 0-28.875 52.658"/>
<path transform="matrix(.60001209,0,0,-.60003,87.034198,66.922557)" stroke-width="1" stroke-linecap="butt" stroke-miterlimit="4" stroke-linejoin="miter" fill="none" stroke="#231f20" d="M0 0-82.294 53.512"/>
</g>
<g id="layer_1" data-name="Vertices">
<g clip-path="url(#clip_2)">
<path transform="matrix(.60001209,0,0,-.60003,46.523126,84.91878)" d="M0 0C-3.404 0-6.164-2.793-6.164-6.238-6.164-9.686-3.404-12.479 0-12.479 3.402-12.479 6.164-9.686 6.164-6.238 6.164-2.793 3.402 0 0 0" fill="#f9cd83"/>
<path transform="matrix(.60001209,0,0,-.60003,46.523126,84.91878)" stroke-width="2" stroke-linecap="butt" stroke-miterlimit="4" stroke-linejoin="miter" fill="none" stroke="#231f20" d="M0 0C-3.404 0-6.164-2.793-6.164-6.238-6.164-9.686-3.404-12.479 0-12.479 3.402-12.479 6.164-9.686 6.164-6.238 6.164-2.793 3.402 0 0 0Z"/>
<path transform="matrix(.60001209,0,0,-.60003,38.31484,63.17939)" d="M0 0C-3.404 0-6.164-2.793-6.164-6.238-6.164-9.686-3.404-12.479 0-12.479 3.402-12.479 6.164-9.686 6.164-6.238 6.164-2.793 3.402 0 0 0" fill="#f9cd83"/>
<path transform="matrix(.60001209,0,0,-.60003,38.31484,63.17939)" stroke-width="2" stroke-linecap="butt" stroke-miterlimit="4" stroke-linejoin="miter" fill="none" stroke="#231f20" d="M0 0C-3.404 0-6.164-2.793-6.164-6.238-6.164-9.686-3.404-12.479 0-12.479 3.402-12.479 6.164-9.686 6.164-6.238 6.164-2.793 3.402 0 0 0Z"/>
<path transform="matrix(.60001209,0,0,-.60003,54.500524,63.17939)" d="M0 0C-3.404 0-6.164-2.793-6.164-6.238-6.164-9.686-3.404-12.479 0-12.479 3.402-12.479 6.164-9.686 6.164-6.238 6.164-2.793 3.402 0 0 0" fill="#f9cd83"/>
<path transform="matrix(.60001209,0,0,-.60003,54.500524,63.17939)" stroke-width="2" stroke-linecap="butt" stroke-miterlimit="4" stroke-linejoin="miter" fill="none" stroke="#231f20" d="M0 0C-3.404 0-6.164-2.793-6.164-6.238-6.164-9.686-3.404-12.479 0-12.479 3.402-12.479 6.164-9.686 6.164-6.238 6.164-2.793 3.402 0 0 0Z"/>
<path transform="matrix(.60001209,0,0,-.60003,5.9596078,63.207529)" d="M0 0C-3.404 0-6.164-2.793-6.164-6.238-6.164-9.686-3.404-12.479 0-12.479 3.402-12.479 6.164-9.686 6.164-6.238 6.164-2.793 3.402 0 0 0" fill="#f9cd83"/>
<path transform="matrix(.60001209,0,0,-.60003,5.9596078,63.207529)" stroke-width="2" stroke-linecap="butt" stroke-miterlimit="4" stroke-linejoin="miter" fill="none" stroke="#231f20" d="M0 0C-3.404 0-6.164-2.793-6.164-6.238-6.164-9.686-3.404-12.479 0-12.479 3.402-12.479 6.164-9.686 6.164-6.238 6.164-2.793 3.402 0 0 0Z"/>
<path transform="matrix(.60001209,0,0,-.60003,22.292956,63.3435)" d="M0 0C-3.404 0-6.164-2.793-6.164-6.238-6.164-9.686-3.404-12.479 0-12.479 3.402-12.479 6.164-9.686 6.164-6.238 6.164-2.793 3.402 0 0 0" fill="#f9cd83"/>
<path transform="matrix(.60001209,0,0,-.60003,22.292956,63.3435)" stroke-width="2" stroke-linecap="butt" stroke-miterlimit="4" stroke-linejoin="miter" fill="none" stroke="#231f20" d="M0 0C-3.404 0-6.164-2.793-6.164-6.238-6.164-9.686-3.404-12.479 0-12.479 3.402-12.479 6.164-9.686 6.164-6.238 6.164-2.793 3.402 0 0 0Z"/>
<path transform="matrix(.60001209,0,0,-.60003,70.84851,63.180589)" d="M0 0C-3.404 0-6.164-2.793-6.164-6.238-6.164-9.686-3.404-12.479 0-12.479 3.402-12.479 6.164-9.686 6.164-6.238 6.164-2.793 3.402 0 0 0" fill="#f9cd83"/>
<path transform="matrix(.60001209,0,0,-.60003,70.84851,63.180589)" stroke-width="2" stroke-linecap="butt" stroke-miterlimit="4" stroke-linejoin="miter" fill="none" stroke="#231f20" d="M0 0C-3.404 0-6.164-2.793-6.164-6.238-6.164-9.686-3.404-12.479 0-12.479 3.402-12.479 6.164-9.686 6.164-6.238 6.164-2.793 3.402 0 0 0Z"/>
<path transform="matrix(.60001209,0,0,-.60003,87.034198,63.17939)" d="M0 0C-3.404 0-6.164-2.793-6.164-6.238-6.164-9.686-3.404-12.479 0-12.479 3.402-12.479 6.164-9.686 6.164-6.238 6.164-2.793 3.402 0 0 0" fill="#f9cd83"/>
<path transform="matrix(.60001209,0,0,-.60003,87.034198,63.17939)" stroke-width="2" stroke-linecap="butt" stroke-miterlimit="4" stroke-linejoin="miter" fill="none" stroke="#231f20" d="M0 0C-3.404 0-6.164-2.793-6.164-6.238-6.164-9.686-3.404-12.479 0-12.479 3.402-12.479 6.164-9.686 6.164-6.238 6.164-2.793 3.402 0 0 0Z"/>
<path transform="matrix(.60001209,0,0,-.60003,46.70007,9.3657)" d="M0 0C-3.404 0-6.164-2.793-6.164-6.238-6.164-9.686-3.404-12.479 0-12.479 3.403-12.479 6.165-9.686 6.165-6.238 6.165-2.793 3.403 0 0 0" fill="#f9cd83"/>
<path transform="matrix(.60001209,0,0,-.60003,46.70007,9.3657)" stroke-width="2" stroke-linecap="butt" stroke-miterlimit="4" stroke-linejoin="miter" fill="none" stroke="#231f20" d="M0 0C-3.404 0-6.164-2.793-6.164-6.238-6.164-9.686-3.404-12.479 0-12.479 3.403-12.479 6.165-9.686 6.165-6.238 6.165-2.793 3.403 0 0 0Z"/>
<path transform="matrix(.60001209,0,0,-.60003,38.25802,30.862496)" d="M0 0C-3.404 0-6.164-2.793-6.164-6.238-6.164-9.686-3.404-12.479 0-12.479 3.402-12.479 6.164-9.686 6.164-6.238 6.164-2.793 3.402 0 0 0" fill="#f9cd83"/>
<path transform="matrix(.60001209,0,0,-.60003,38.25802,30.862496)" stroke-width="2" stroke-linecap="butt" stroke-miterlimit="4" stroke-linejoin="miter" fill="none" stroke="#231f20" d="M0 0C-3.404 0-6.164-2.793-6.164-6.238-6.164-9.686-3.404-12.479 0-12.479 3.402-12.479 6.164-9.686 6.164-6.238 6.164-2.793 3.402 0 0 0Z"/>
<path transform="matrix(.60001209,0,0,-.60003,54.443105,30.862496)" d="M0 0C-3.404 0-6.164-2.793-6.164-6.238-6.164-9.686-3.404-12.479 0-12.479 3.402-12.479 6.164-9.686 6.164-6.238 6.164-2.793 3.402 0 0 0" fill="#f9cd83"/>
<path transform="matrix(.60001209,0,0,-.60003,54.443105,30.862496)" stroke-width="2" stroke-linecap="butt" stroke-miterlimit="4" stroke-linejoin="miter" fill="none" stroke="#231f20" d="M0 0C-3.404 0-6.164-2.793-6.164-6.238-6.164-9.686-3.404-12.479 0-12.479 3.402-12.479 6.164-9.686 6.164-6.238 6.164-2.793 3.402 0 0 0Z"/>
<path transform="matrix(.60001209,0,0,-.60003,5.9027869,30.890034)" d="M0 0C-3.404 0-6.164-2.793-6.164-6.238-6.164-9.686-3.404-12.479 0-12.479 3.402-12.479 6.164-9.686 6.164-6.238 6.164-2.793 3.402 0 0 0" fill="#f9cd83"/>
<path transform="matrix(.60001209,0,0,-.60003,5.9027869,30.890034)" stroke-width="2" stroke-linecap="butt" stroke-miterlimit="4" stroke-linejoin="miter" fill="none" stroke="#231f20" d="M0 0C-3.404 0-6.164-2.793-6.164-6.238-6.164-9.686-3.404-12.479 0-12.479 3.402-12.479 6.164-9.686 6.164-6.238 6.164-2.793 3.402 0 0 0Z"/>
<path transform="matrix(.60001209,0,0,-.60003,22.236075,31.025944)" d="M0 0C-3.404 0-6.164-2.793-6.164-6.238-6.164-9.686-3.404-12.479 0-12.479 3.402-12.479 6.164-9.686 6.164-6.238 6.164-2.793 3.402 0 0 0" fill="#f9cd83"/>
<path transform="matrix(.60001209,0,0,-.60003,22.236075,31.025944)" stroke-width="2" stroke-linecap="butt" stroke-miterlimit="4" stroke-linejoin="miter" fill="none" stroke="#231f20" d="M0 0C-3.404 0-6.164-2.793-6.164-6.238-6.164-9.686-3.404-12.479 0-12.479 3.402-12.479 6.164-9.686 6.164-6.238 6.164-2.793 3.402 0 0 0Z"/>
<path transform="matrix(.60001209,0,0,-.60003,70.79109,30.863034)" d="M0 0C-3.404 0-6.164-2.793-6.164-6.238-6.164-9.686-3.404-12.479 0-12.479 3.402-12.479 6.164-9.686 6.164-6.238 6.164-2.793 3.402 0 0 0" fill="#f9cd83"/>
<path transform="matrix(.60001209,0,0,-.60003,70.79109,30.863034)" stroke-width="2" stroke-linecap="butt" stroke-miterlimit="4" stroke-linejoin="miter" fill="none" stroke="#231f20" d="M0 0C-3.404 0-6.164-2.793-6.164-6.238-6.164-9.686-3.404-12.479 0-12.479 3.402-12.479 6.164-9.686 6.164-6.238 6.164-2.793 3.402 0 0 0Z"/>
<path transform="matrix(.60001209,0,0,-.60003,86.97791,30.862496)" d="M0 0C-3.404 0-6.164-2.793-6.164-6.238-6.164-9.686-3.404-12.479 0-12.479 3.402-12.479 6.164-9.686 6.164-6.238 6.164-2.793 3.402 0 0 0" fill="#f9cd83"/>
<path transform="matrix(.60001209,0,0,-.60003,86.97791,30.862496)" stroke-width="2" stroke-linecap="butt" stroke-miterlimit="4" stroke-linejoin="miter" fill="none" stroke="#231f20" d="M0 0C-3.404 0-6.164-2.793-6.164-6.238-6.164-9.686-3.404-12.479 0-12.479 3.402-12.479 6.164-9.686 6.164-6.238 6.164-2.793 3.402 0 0 0Z"/>
</g>
</g>
</g>
<use data-text="S" xlink:href="#font_3_1" transform="matrix(9.962799,0,0,-9.963098,43.56556,100.792888)"/>
<use data-text="T" xlink:href="#font_3_2" transform="matrix(9.962799,0,0,-9.963098,43.56556,7.649233)"/>
<use data-text="x" xlink:href="#font_3_3" transform="matrix(9.962799,0,0,-9.963098,1.7477188,79.88284)"/>
<use data-text="&#x2032;" xlink:href="#font_4_1" transform="matrix(6.97394,0,0,-6.9741489,7.4418337,76.26766)"/>
<use data-text="1" xlink:href="#font_5_1" transform="matrix(6.97394,0,0,-6.9741489,7.4418337,82.355968)"/>
<use data-text="x" xlink:href="#font_3_3" transform="matrix(9.962799,0,0,-9.963098,84.43437,79.88284)"/>
<use data-text="&#x2032;" xlink:href="#font_4_1" transform="matrix(6.97394,0,0,-6.9741489,90.128498,76.26766)"/>
<use data-text="6" xlink:href="#font_5_2" transform="matrix(6.97394,0,0,-6.9741489,90.128498,82.355968)"/>
<use data-text="x" xlink:href="#font_3_3" transform="matrix(9.962799,0,0,-9.963098,1.7477188,27.608235)"/>
<use data-text="&#x2032;" xlink:href="#font_4_1" transform="matrix(6.97394,0,0,-6.9741489,7.4418337,23.993054)"/>
<use data-text="&#x2032;" xlink:href="#font_4_1" transform="matrix(6.97394,0,0,-6.9741489,9.736259,23.993054)"/>
<use data-text="1" xlink:href="#font_5_1" transform="matrix(6.97394,0,0,-6.9741489,7.4418337,30.081357)"/>
<use data-text="x" xlink:href="#font_3_3" transform="matrix(9.962799,0,0,-9.963098,84.43437,27.608235)"/>
<use data-text="&#x2032;" xlink:href="#font_4_1" transform="matrix(6.97394,0,0,-6.9741489,90.128498,23.993054)"/>
<use data-text="&#x2032;" xlink:href="#font_4_1" transform="matrix(6.97394,0,0,-6.9741489,92.42293,23.993054)"/>
<use data-text="6" xlink:href="#font_5_2" transform="matrix(6.97394,0,0,-6.9741489,90.128498,30.081357)"/>
</svg>
