<svg xmlns="http://www.w3.org/2000/svg" xmlns:xlink="http://www.w3.org/1999/xlink" version="1.1" width="193pt" height="69pt" viewBox="0 0 193 69">
<defs>
<clipPath id="clip_1">
<path transform="matrix(.40326808,0,0,-.40326808,-3.1032944,70.73509)" d="M0 0H504V180H0Z"/>
</clipPath>
<clipPath id="clip_2">
<path transform="matrix(.40326808,0,0,-.40326808,-3.1032944,70.73509)" d="M0 180H504V0H0Z"/>
</clipPath>
<clipPath id="clip_3">
<path transform="matrix(.40326808,0,0,-.40326808,-3.1032944,70.73509)" d="M0 180H504V0H0Z"/>
</clipPath>
<clipPath id="clip_4">
<path transform="matrix(.40326808,0,0,-.40326808,-3.1032944,70.73509)" d="M0 180H504V0H0Z"/>
</clipPath>
<clipPath id="clip_5">
<path transform="matrix(.40326808,0,0,-.40326808,-3.1032944,70.73509)" d="M0 180H504V0H0Z"/>
</clipPath>
<clipPath id="clip_6">
<path transform="matrix(.40326808,0,0,-.40326808,-3.1032944,70.73509)" d="M0 180H504V0H0Z"/>
</clipPath>
<clipPath id="clip_7">
<path transform="matrix(.40326808,0,0,-.40326808,-3.1032944,70.73509)" d="M0 180H504V0H0Z"/>
</clipPath>
<clipPath id="clip_8">
<path transform="matrix(.40326808,0,0,-.40326808,-3.1032944,70.73509)" d="M0 180H504V0H0Z"/>
</clipPath>
<clipPath id="clip_9">
<path transform="matrix(.40326808,0,0,-.40326808,-3.1032944,70.73509)" d="M0 180H504V0H0Z"/>
</clipPath>
<clipPath id="clip_10">
<path transform="matrix(.40326808,0,0,-.40326808,-3.1032944,70.73509)" d="M0 180H504V0H0Z"/>
</clipPath>
<path id="font_11_3" d="M.08799744 .059265138C.084991458 .044265748 .07899475 .021255494 .07899475 .01625061 .07899475-.0017547608 .09298706-.0107421879 .10798645-.0107421879 .11999512-.0107421879 .13798523-.002746582 .14498902 .01725769 .14698792 .021255494 .18099976 .15730286 .18499756 .17530823 .19299317 .20831299 .21099854 .27833558 .21699524 .30534364 .22099304 .31835938 .24899292 .36535646 .272995 .38734437 .2809906 .39434815 .30999757 .42037965 .35299684 .42037965 .3789978 .42037965 .3939972 .4083557 .394989 .4083557 .36499024 .40335084 .34298707 .37934876 .34298707 .35334779 .34298707 .33735658 .35398866 .31835938 .3809967 .31835938 .4079895 .31835938 .43598939 .34135438 .43598939 .37734986 .43598939 .41235353 .4039917 .4423828 .35299684 .4423828 .28799439 .4423828 .24398804 .39335633 .22499085 .36535646 .21699524 .4103546 .18099976 .4423828 .13398743 .4423828 .08799744 .4423828 .068984989 .40335084 .05999756 .38534547 .041992189 .35134889 .0289917 .29133607 .0289917 .28834535 .0289917 .27833558 .038986207 .27833558 .040985109 .27833558 .050994874 .27833558 .051986696 .27934266 .057998659 .30134584 .07499695 .37234498 .09498596 .42037965 .1309967 .42037965 .147995 .42037965 .1619873 .41235353 .1619873 .37435914 .1619873 .35334779 .15899658 .3423462 .1459961 .29034425L.08799744 .059265138Z"/>
<path id="font_11_2" d="M.43798829 .0055236818C.59298709 .0644989 .73999026 .24256897 .73999026 .43579103 .73999026 .5969696 .6339874 .7050781 .4850006 .7050781 .2689972 .7050781 .04899597 .47784425 .04899597 .24456787 .04899597 .07847595 .16099549-.022460938 .30499269-.022460938 .32998658-.022460938 .3639984-.018463135 .40299989-.007461548 .39898683-.06939697 .39898683-.071380618 .39898683-.084365848 .39898683-.11634827 .39898683-.19433594 .48199464-.19433594 .6009979-.19433594 .6489868-.011474609 .6489868-.00047302247 .6489868 .0065307619 .6419983 .009521484 .6380005 .009521484 .6299896 .009521484 .6279907 .0045318605 .6259918-.0014648438 .60198977-.072387699 .5439911-.097335819 .5089874-.097335819 .46299745-.097335819 .44799806-.070388797 .43798829 .0055236818M.24899292 .013519287C.17098999 .044509889 .13699341 .12245178 .13699341 .21252442 .13699341 .2816162 .16299439 .4237671 .23899842 .5319061 .31199647 .63401797 .4059906 .68006899 .47898866 .68006899 .57899478 .68006899 .6519928 .6019745 .6519928 .4678192 .6519928 .3677063 .6009979 .13345337 .43299867 .039505006 .42799378 .07447815 .41799928 .14746094 .34498597 .14746094 .2919922 .14746094 .24299622 .097473148 .24299622 .04550171 .24299622 .025512696 .24899292 .014526367 .24899292 .013519287M.31098939 .002532959C.29699708 .002532959 .2649994 .002532959 .2649994 .04550171 .2649994 .08547974 .30299378 .12545777 .34498597 .12545777 .3869934 .12545777 .4059906 .10147095 .4059906 .040512086 .4059906 .025512696 .40499879 .024520874 .394989 .020523072 .36898805 .009521484 .33898927 .002532959 .31098939 .002532959Z"/>
<path id="font_11_1" d="M.30299378 .3157959H.47299195C.61499026 .3157959 .7539978 .41973878 .7539978 .53167727 .7539978 .6086273 .6879883 .6826172 .5569916 .6826172H.23298645C.21398926 .6826172 .20298767 .6826172 .20298767 .66360476 .20298767 .6516113 .21199036 .6516113 .23199463 .6516113 .24499512 .6516113 .2630005 .65060427 .2749939 .6496124 .29100038 .6476135 .29699708 .64460757 .29699708 .6336212 .29699708 .6296234 .29599 .62661746 .29299928 .614624L.15899658 .07795715C.14898682 .038986207 .14698792 .0309906 .067993167 .0309906 .050994874 .0309906 .039993287 .0309906 .039993287 .011993408 .039993287 0 .051986696 0 .054992677 0 .08299255 0 .1539917 .0029907227 .18199158 .0029907227 .20298767 .0029907227 .22499085 .0019989014 .24598694 .0019989014 .2679901 .0019989014 .2899933 0 .31098939 0 .31799317 0 .33099366 0 .33099366 .019989014 .33099366 .0309906 .32199098 .0309906 .30299378 .0309906 .2659912 .0309906 .23799134 .0309906 .23799134 .048980714 .23799134 .054977418 .23999024 .05996704 .24099732 .065963748L.30299378 .3157959M.375 .6136322C.38398744 .64860537 .38598634 .6516113 .42900086 .6516113H.5249939C.60798647 .6516113 .6609955 .62461856 .6609955 .55566409 .6609955 .5166931 .6409912 .43074037 .60198977 .39476014 .5519867 .34977723 .49198915 .34179688 .44799806 .34179688H.30699159L.375 .6136322Z"/>
<path id="font_12_1" d="M.33099366-.2400055C.33099366-.23701477 .33099366-.23500061 .31399537-.21800232 .18899536-.0920105 .15699768 .09700012 .15699768 .25 .15699768 .42399598 .19499207 .59799197 .31799317 .72299197 .33099366 .73498538 .33099366 .7369995 .33099366 .73999026 .33099366 .746994 .32699586 .75 .32099916 .75 .31098939 .75 .22099304 .6819916 .1619873 .5549927 .11099243 .44499208 .09899902 .33399964 .09899902 .25 .09899902 .17199707 .10998535 .050994874 .16499329-.06201172 .22499085-.18501282 .31098939-.25 .32099916-.25 .32699586-.25 .33099366-.24700928 .33099366-.2400055Z"/>
<path id="font_11_4" d="M.34999085 .056259157C.36099244 .015258789 .3959961-.0107421879 .43899537-.0107421879 .47399903-.0107421879 .49699403 .012252808 .5130005 .044265748 .5299988 .08027649 .54299929 .14129639 .54299929 .14329529 .54299929 .1532898 .5339966 .1532898 .5309906 .1532898 .5209961 .1532898 .519989 .14929199 .5169983 .13528443 .5029907 .07926941 .48399354 .011245728 .44198609 .011245728 .42099 .011245728 .41099549 .024261475 .41099549 .057266237 .41099549 .07926941 .4229889 .12628174 .43099977 .16130066L.45899964 .2693329C.46199037 .28433229 .47200013 .32234193 .47599793 .3373413 .48098756 .36035157 .4909973 .3983612 .4909973 .40437318 .4909973 .42237855 .47698976 .43138124 .46199037 .43138124 .45700074 .43138124 .43099977 .43037416 .4229889 .3963623 .4039917 .323349 .3600006 .14828491 .34799195 .09527588 .34700013 .091278079 .30699159 .011245728 .23399353 .011245728 .18199158 .011245728 .17199707 .056259157 .17199707 .09327698 .17199707 .14929199 .19999695 .22831726 .22599793 .29733277 .23799134 .3273468 .24299622 .34135438 .24299622 .36035157 .24299622 .405365 .21099854 .4423828 .16099549 .4423828 .06599426 .4423828 .0289917 .29733277 .0289917 .28833009 .0289917 .27833558 .038986207 .27833558 .040985109 .27833558 .050994874 .27833558 .051986696 .28033448 .056991579 .29634095 .08198547 .38336183 .11999512 .42037965 .1579895 .42037965 .16699219 .42037965 .18299866 .41937257 .18299866 .38735963 .18299866 .36335755 .17199707 .3343506 .1659851 .31933595 .1289978 .2203064 .10798645 .15829468 .10798645 .10928345 .10798645 .014251709 .1769867-.0107421879 .23098755-.0107421879 .29699708-.0107421879 .33299256 .03425598 .34999085 .056259157Z"/>
<path id="font_13_1" d="M.31298829 .66430667C.31399537 .66630557 .31698609 .67930606 .31698609 .68029788 .31698609 .68530276 .31298829 .6943054 .30099488 .6943054 .2809906 .6943054 .19799805 .6863098 .17298889 .6843109 .16499329 .68330386 .15098572 .682312 .15098572 .66130068 .15098572 .64730837 .16499329 .64730837 .1769867 .64730837 .22499085 .64730837 .22499085 .64030459 .22499085 .63230898 .22499085 .62532046 .22299195 .61932376 .22099304 .61032107L.07998657 .04425049C.07499695 .026229859 .07499695 .024230957 .07499695 .022232056 .07499695 .007232666 .08699036-.009765625 .10899353-.009765625 .13598633-.009765625 .14898682 .010223389 .15499878 .03224182 .15699768 .036239625 .19999695 .21234131 .20399475 .22636414 .2749939 .21936035 .33198548 .19633484 .33198548 .14430237 .33198548 .13929749 .33198548 .1342926 .32998658 .124298099 .32598878 .10928345 .32598878 .104278568 .32598878 .09327698 .32598878 .022232056 .38398744-.009765625 .43199159-.009765625 .5289917-.009765625 .5589905 .14230347 .5589905 .14331055 .5589905 .15631104 .54599 .15631104 .54299929 .15631104 .5289917 .15631104 .5279999 .15130615 .522995 .1322937 .5109863 .089263919 .48399354 .018234253 .43499757 .018234253 .4079895 .018234253 .3999939 .04324341 .3999939 .07026672 .3999939 .087265018 .3999939 .089263919 .4059906 .11528015 .40699769 .11828613 .41099549 .13529969 .41099549 .14630127 .41099549 .23536682 .29100038 .24937439 .24899292 .25238038 .27799989 .27038575 .31498719 .30340577 .33198548 .31840516 .3829956 .3664093 .43299867 .4133911 .4889984 .4133911 .5009918 .4133911 .5139923 .4104004 .5219879 .40040589 .47898866 .3934021 .46998597 .35940553 .46998597 .34440614 .46998597 .32240296 .4869995 .30740357 .5099945 .30740357 .5369873 .30740357 .5669861 .32940675 .5669861 .37139894 .5669861 .4044037 .54299929 .44140626 .48999024 .44140626 .43299867 .44140626 .3809967 .40040589 .32998658 .3534088 .28799439 .31340028 .25498963 .2823944 .21398926 .26538087L.31298829 .66430667Z"/>
<path id="font_12_2" d="M.2889862 .25C.2889862 .32798768 .27799989 .44898988 .22299195 .56199648 .16299439 .68499758 .07699585 .75 .066986087 .75 .06098938 .75 .056991579 .74598696 .056991579 .73999026 .056991579 .7369995 .056991579 .73498538 .07598877 .71699526 .17399597 .6179962 .23098755 .45899964 .23098755 .25 .23098755 .07899475 .19400025-.09700012 .069992069-.2230072 .056991579-.23500061 .056991579-.23701477 .056991579-.2400055 .056991579-.2460022 .06098938-.25 .066986087-.25 .07699585-.25 .16699219-.18200684 .22599793-.055007936 .2769928 .054992677 .2889862 .16600037 .2889862 .25Z"/>
<path id="font_11_5" d="M.33399964 .30233766C.33999635 .32835389 .36299134 .42037965 .43299867 .42037965 .43798829 .42037965 .46199037 .42037965 .48298646 .40734864 .45498658 .402359 .43499757 .37734986 .43499757 .35334779 .43499757 .33735658 .44599916 .31835938 .47299195 .31835938 .49499513 .31835938 .5269928 .3363495 .5269928 .37635804 .5269928 .42837525 .46798707 .4423828 .43399049 .4423828 .37599183 .4423828 .34098817 .38935853 .32899476 .36634828 .3039856 .43237306 .25 .4423828 .22099304 .4423828 .116989139 .4423828 .05999756 .3133545 .05999756 .28834535 .05999756 .27833558 .069992069 .27833558 .07199097 .27833558 .07998657 .27833558 .08299255 .28033448 .084991458 .28933717 .11898804 .39535523 .18499756 .42037965 .21899414 .42037965 .23799134 .42037965 .272995 .4113617 .272995 .35334779 .272995 .32235719 .2559967 .25532533 .21899414 .11528015 .20298767 .053268434 .16799927 .011245728 .12399292 .011245728 .117996219 .011245728 .09498596 .011245728 .07398987 .024276734 .09899902 .029266358 .12098694 .05027771 .12098694 .07827759 .12098694 .105270389 .09899902 .11328125 .083999637 .11328125 .053985597 .11328125 .0289917 .08728027 .0289917 .055267335 .0289917 .009246826 .07899475-.0107421879 .12298584-.0107421879 .18899536-.0107421879 .22499085 .059280397 .22799683 .0652771 .23999024 .028274537 .27598573-.0107421879 .33599855-.0107421879 .43899537-.0107421879 .49598695 .118270877 .49598695 .14328003 .49598695 .1532898 .4869995 .1532898 .48399354 .1532898 .47499085 .1532898 .47299195 .14929199 .47099305 .14228821 .43798829 .03527832 .36999513 .011245728 .33799745 .011245728 .29899598 .011245728 .2829895 .043273927 .2829895 .07727051 .2829895 .09927368 .2889862 .121276859 .2999878 .16529846L.33399964 .30233766Z"/>
</defs>
<g clip-path="url(#clip_1)">
<g id="layer_1" data-name="Layer 1">
<path transform="matrix(.40326808,0,0,-.40326808,101.817699,55.79647)" stroke-width="3" stroke-linecap="butt" stroke-miterlimit="4" stroke-linejoin="miter" fill="none" stroke="#231f20" d="M0 0 48.548 18.636"/>
<path transform="matrix(.40326808,0,0,-.40326808,84.248767,62.540567)" stroke-width="3" stroke-linecap="butt" stroke-miterlimit="4" stroke-linejoin="miter" fill="none" stroke="#231f20" d="M0 0 43.566 16.724"/>
<g clip-path="url(#clip_2)">
<path transform="matrix(.40326808,0,0,-.40326808,106.58877,53.96483)" d="M0 0C-4.772-4.204-10.328-10.38-13.175-15.754L-13.382-5.138-20.333 2.89C-14.619 .802-6.359-.072 0 0" fill="#231f20"/>
</g>
<path transform="matrix(.40326808,0,0,-.40326808,63.875055,56.07408)" stroke-width="3" stroke-linecap="butt" stroke-miterlimit="4" stroke-linejoin="miter" fill="none" stroke="#231f20" d="M0 0 50.229-13.459"/>
<path transform="matrix(.40326808,0,0,-.40326808,45.697267,51.20337)" stroke-width="3" stroke-linecap="butt" stroke-miterlimit="4" stroke-linejoin="miter" fill="none" stroke="#231f20" d="M0 0 45.076-12.078"/>
<g clip-path="url(#clip_3)">
<path transform="matrix(.40326808,0,0,-.40326808,68.81194,57.39692)" d="M0 0C-6.333-.594-14.458-2.326-19.921-5L-13.849 3.711-14.752 14.29C-11.358 9.242-5.188 3.68 0 0" fill="#231f20"/>
</g>
<path transform="matrix(.40326808,0,0,-.40326808,133.004,35.983549)" stroke-width="3" stroke-linecap="butt" stroke-miterlimit="4" stroke-linejoin="miter" fill="none" stroke="#231f20" d="M0 0 36.771 36.771"/>
<path transform="matrix(.40326808,0,0,-.40326808,119.69695,49.29059)" stroke-width="3" stroke-linecap="butt" stroke-miterlimit="4" stroke-linejoin="miter" fill="none" stroke="#231f20" d="M0 0 32.998 32.998"/>
<g clip-path="url(#clip_4)">
<path transform="matrix(.40326808,0,0,-.40326808,136.61808,32.3695)" d="M0 0C-2.652-5.782-5.215-13.684-5.631-19.752L-10.138-10.138-19.752-5.631C-13.684-5.215-5.781-2.653 0 0" fill="#231f20"/>
</g>
<path transform="matrix(.40326808,0,0,-.40326808,23.511593,50.4374)" stroke-width="3" stroke-linecap="butt" stroke-miterlimit="4" stroke-linejoin="miter" fill="none" stroke="#231f20" d="M0 0H52.001"/>
<path transform="matrix(.40326808,0,0,-.40326808,4.692482,50.4374)" stroke-width="3" stroke-linecap="butt" stroke-miterlimit="4" stroke-linejoin="miter" fill="none" stroke="#231f20" d="M0 0H46.667"/>
<g clip-path="url(#clip_5)">
<path transform="matrix(.40326808,0,0,-.40326808,28.62257,50.4374)" d="M0 0C-5.964-2.213-13.363-5.988-17.948-9.986L-14.337 0-17.948 9.984C-13.363 5.988-5.964 2.211 0 0" fill="#231f20"/>
</g>
<path transform="matrix(.40326808,0,0,-.40326808,51.482427,14.950214)" stroke-width="3" stroke-linecap="butt" stroke-miterlimit="4" stroke-linejoin="miter" fill="none" stroke="#231f20" d="M0 0 45.034 26"/>
<path transform="matrix(.40326808,0,0,-.40326808,35.18451,24.35987)" stroke-width="3" stroke-linecap="butt" stroke-miterlimit="4" stroke-linejoin="miter" fill="none" stroke="#231f20" d="M0 0 40.415 23.333"/>
<g clip-path="url(#clip_6)">
<path transform="matrix(.40326808,0,0,-.40326808,55.908536,12.394745)" d="M0 0C-4.059-4.898-8.578-11.868-10.551-17.622L-12.416-7.168-20.536-.327C-14.566-1.496-6.271-1.066 0 0" fill="#231f20"/>
</g>
<path transform="matrix(.40326808,0,0,-.40326808,88.09868,11.561996)" stroke-width="3" stroke-linecap="butt" stroke-miterlimit="4" stroke-linejoin="miter" fill="none" stroke="#231f20" d="M0 0 48.865-17.785"/>
<path transform="matrix(.40326808,0,0,-.40326808,70.41457,5.1254808)" stroke-width="3" stroke-linecap="butt" stroke-miterlimit="4" stroke-linejoin="miter" fill="none" stroke="#231f20" d="M0 0 43.852-15.961"/>
<g clip-path="url(#clip_7)">
<path transform="matrix(.40326808,0,0,-.40326808,92.90148,13.309963)" d="M0 0C-6.361-.04-14.605-1.057-20.281-3.245L-13.472 4.903-13.451 15.522C-10.509 10.197-4.848 4.118 0 0" fill="#231f20"/>
</g>
<path transform="matrix(.40326808,0,0,-.40326808,127.018,19.385964)" stroke-width="3" stroke-linecap="butt" stroke-miterlimit="4" stroke-linejoin="miter" fill="none" stroke="#231f20" d="M0 0H52.002"/>
<path transform="matrix(.40326808,0,0,-.40326808,108.1991,19.385964)" stroke-width="3" stroke-linecap="butt" stroke-miterlimit="4" stroke-linejoin="miter" fill="none" stroke="#231f20" d="M0 0H46.666"/>
<g clip-path="url(#clip_8)">
<path transform="matrix(.40326808,0,0,-.40326808,132.12894,19.385964)" d="M0 0C-5.963-2.213-13.362-5.988-17.947-9.985L-14.336 0-17.947 9.985C-13.362 5.988-5.963 2.212 0 0" fill="#231f20"/>
</g>
<path transform="matrix(.40326808,0,0,-.40326808,165.79669,26.007988)" stroke-width="3" stroke-linecap="butt" stroke-miterlimit="4" stroke-linejoin="miter" fill="none" stroke="#231f20" d="M0 0 48.865-17.786"/>
<path transform="matrix(.40326808,0,0,-.40326808,148.1124,19.571427)" stroke-width="3" stroke-linecap="butt" stroke-miterlimit="4" stroke-linejoin="miter" fill="none" stroke="#231f20" d="M0 0 43.853-15.961"/>
<g clip-path="url(#clip_9)">
<path transform="matrix(.40326808,0,0,-.40326808,170.5993,27.756112)" d="M0 0C-6.36-.04-14.604-1.057-20.28-3.245L-13.472 4.903-13.449 15.521C-10.509 10.198-4.847 4.118 0 0" fill="#231f20"/>
</g>
<path transform="matrix(.40326808,0,0,-.40326808,18.924056,37.68719)" stroke-width="3" stroke-linecap="butt" stroke-miterlimit="4" stroke-linejoin="miter" fill="none" stroke="#231f20" d="M0 0 39.835 33.426"/>
<path transform="matrix(.40326808,0,0,-.40326808,4.507786,49.78366)" stroke-width="3" stroke-linecap="butt" stroke-miterlimit="4" stroke-linejoin="miter" fill="none" stroke="#231f20" d="M0 0 35.749 29.996"/>
<g clip-path="url(#clip_10)">
<path transform="matrix(.40326808,0,0,-.40326808,22.839385,34.401567)" d="M0 0C-3.146-5.528-6.388-13.177-7.331-19.187L-10.983-9.216-20.168-3.888C-14.086-4.003-5.991-2.14 0 0" fill="#231f20"/>
<path transform="matrix(.40326808,0,0,-.40326808,123.14324,46.47126)" d="M0 0C-2.45 2.364-6.375 2.271-8.768-.205-11.162-2.686-11.117-6.611-8.668-8.977-6.222-11.34-2.296-11.249 .101-8.77 2.493-6.291 2.447-2.363 0 0" fill="#f9cd83"/>
<path transform="matrix(.40326808,0,0,-.40326808,123.14324,46.47126)" stroke-width="2" stroke-linecap="butt" stroke-miterlimit="4" stroke-linejoin="miter" fill="none" stroke="#231f20" d="M0 0C-2.45 2.364-6.375 2.271-8.768-.205-11.162-2.686-11.117-6.611-8.668-8.977-6.222-11.34-2.296-11.249 .101-8.77 2.493-6.291 2.447-2.363 0 0Z"/>
<path transform="matrix(.40326808,0,0,-.40326808,6.2557508,47.97367)" d="M0 0C-2.449 2.365-6.375 2.273-8.768-.205-11.162-2.686-11.118-6.611-8.669-8.977-6.221-11.34-2.294-11.248 .1-8.769 2.493-6.29 2.447-2.363 0 0" fill="#ec2c2e"/>
<path transform="matrix(.40326808,0,0,-.40326808,6.2557508,47.97367)" stroke-width="2" stroke-linecap="butt" stroke-miterlimit="4" stroke-linejoin="miter" fill="none" stroke="#231f20" d="M0 0C-2.449 2.365-6.375 2.273-8.768-.205-11.162-2.686-11.118-6.611-8.669-8.977-6.221-11.34-2.294-11.248 .1-8.769 2.493-6.29 2.447-2.363 0 0Z"/>
<path transform="matrix(.40326808,0,0,-.40326808,71.39085,2.6552582)" d="M0 0C-2.449 2.363-6.374 2.271-8.767-.207-11.162-2.688-11.117-6.613-8.667-8.979-6.221-11.342-2.294-11.25 .101-8.77 2.493-6.291 2.448-2.365 0 0" fill="#f9cd83"/>
<path transform="matrix(.40326808,0,0,-.40326808,71.39085,2.6552582)" stroke-width="2" stroke-linecap="butt" stroke-miterlimit="4" stroke-linejoin="miter" fill="none" stroke="#231f20" d="M0 0C-2.449 2.363-6.374 2.271-8.767-.207-11.162-2.688-11.117-6.613-8.667-8.979-6.221-11.342-2.294-11.25 .101-8.77 2.493-6.291 2.448-2.365 0 0Z"/>
<path transform="matrix(.40326808,0,0,-.40326808,36.73616,22.397488)" d="M0 0C-2.448 2.364-6.374 2.272-8.768-.206-11.162-2.685-11.118-6.612-8.669-8.978-6.222-11.341-2.294-11.249 .1-8.769 2.493-6.29 2.448-2.364 0 0" fill="#f9cd83"/>
<path transform="matrix(.40326808,0,0,-.40326808,36.73616,22.397488)" stroke-width="2" stroke-linecap="butt" stroke-miterlimit="4" stroke-linejoin="miter" fill="none" stroke="#231f20" d="M0 0C-2.448 2.364-6.374 2.272-8.768-.206-11.162-2.685-11.118-6.612-8.669-8.978-6.222-11.341-2.294-11.249 .1-8.769 2.493-6.29 2.448-2.364 0 0Z"/>
<path transform="matrix(.40326808,0,0,-.40326808,149.8605,17.761479)" d="M0 0C-2.45 2.365-6.375 2.273-8.77-.206-11.163-2.685-11.118-6.612-8.67-8.977-6.223-11.341-2.296-11.248 .098-8.77 2.492-6.29 2.447-2.363 0 0" fill="#00b050"/>
<path transform="matrix(.40326808,0,0,-.40326808,149.8605,17.761479)" stroke-width="2" stroke-linecap="butt" stroke-miterlimit="4" stroke-linejoin="miter" fill="none" stroke="#231f20" d="M0 0C-2.45 2.365-6.375 2.273-8.77-.206-11.163-2.685-11.118-6.612-8.67-8.977-6.223-11.341-2.296-11.248 .098-8.77 2.492-6.29 2.447-2.363 0 0Z"/>
<path transform="matrix(.40326808,0,0,-.40326808,111.15743,17.979443)" d="M0 0C-2.449 2.365-6.375 2.272-8.768-.206-11.163-2.686-11.117-6.612-8.669-8.977-6.221-11.34-2.295-11.25 .1-8.77 2.493-6.291 2.446-2.363 0 0" fill="#f9cd83"/>
<path transform="matrix(.40326808,0,0,-.40326808,111.15743,17.979443)" stroke-width="2" stroke-linecap="butt" stroke-miterlimit="4" stroke-linejoin="miter" fill="none" stroke="#231f20" d="M0 0C-2.449 2.365-6.375 2.272-8.768-.206-11.163-2.686-11.117-6.612-8.669-8.977-6.221-11.34-2.295-11.25 .1-8.77 2.493-6.291 2.446-2.363 0 0Z"/>
<path transform="matrix(.40326808,0,0,-.40326808,187.25025,31.370362)" d="M0 0C-2.448 2.363-6.374 2.272-8.768-.207-11.161-2.686-11.116-6.611-8.669-8.977-6.22-11.34-2.294-11.25 .101-8.77 2.493-6.292 2.448-2.364 0 0" fill="#f083b4"/>
<path transform="matrix(.40326808,0,0,-.40326808,187.25025,31.370362)" stroke-width="2" stroke-linecap="butt" stroke-miterlimit="4" stroke-linejoin="miter" fill="none" stroke="#231f20" d="M0 0C-2.448 2.363-6.374 2.272-8.768-.207-11.161-2.686-11.116-6.611-8.669-8.977-6.22-11.34-2.294-11.25 .101-8.77 2.493-6.292 2.448-2.364 0 0Z"/>
<path transform="matrix(.40326808,0,0,-.40326808,86.82686,60.116239)" d="M0 0C-2.449 2.365-6.375 2.273-8.768-.205-11.163-2.685-11.12-6.611-8.67-8.977-6.223-11.34-2.297-11.248 .1-8.768 2.492-6.289 2.447-2.363 0 0" fill="#f9cd83"/>
<path transform="matrix(.40326808,0,0,-.40326808,86.82686,60.116239)" stroke-width="2" stroke-linecap="butt" stroke-miterlimit="4" stroke-linejoin="miter" fill="none" stroke="#231f20" d="M0 0C-2.449 2.365-6.375 2.273-8.768-.205-11.163-2.685-11.12-6.611-8.67-8.977-6.223-11.34-2.297-11.248 .1-8.768 2.492-6.289 2.447-2.363 0 0Z"/>
<path transform="matrix(.40326808,0,0,-.40326808,47.44523,49.392976)" d="M0 0C-2.45 2.363-6.375 2.271-8.768-.205-11.162-2.687-11.117-6.612-8.668-8.978-6.222-11.341-2.296-11.249 .101-8.771 2.493-6.292 2.447-2.364 0 0" fill="#f9cd83"/>
<path transform="matrix(.40326808,0,0,-.40326808,47.44523,49.392976)" stroke-width="2" stroke-linecap="butt" stroke-miterlimit="4" stroke-linejoin="miter" fill="none" stroke="#231f20" d="M0 0C-2.45 2.363-6.375 2.271-8.768-.205-11.162-2.687-11.117-6.612-8.668-8.978-6.222-11.341-2.296-11.249 .101-8.771 2.493-6.292 2.447-2.364 0 0Z"/>
</g>
</g>
</g>
<use data-text="r" xlink:href="#font_11_3" transform="matrix(9.962799,0,0,-9.962799,2.9937897,44.313608)"/>
<use data-text="Q" xlink:href="#font_11_2" transform="matrix(9.962799,0,0,-9.962799,63.966005,19.924118)"/>
<use data-text="P" xlink:href="#font_11_1" transform="matrix(9.962799,0,0,-9.962799,114.77702,64.63702)"/>
<use data-text="(" xlink:href="#font_12_1" transform="matrix(9.962799,0,0,-9.962799,122.557178,64.63702)"/>
<use data-text="u" xlink:href="#font_11_4" transform="matrix(9.962799,0,0,-9.962799,126.431247,64.63702)"/>
<use data-text="k" xlink:href="#font_13_1" transform="matrix(6.97394,0,0,-6.97394,132.13535,66.13204)"/>
<use data-text=")" xlink:href="#font_12_2" transform="matrix(9.962799,0,0,-9.962799,137.03646,64.63702)"/>
<use data-text="u" xlink:href="#font_11_4" transform="matrix(9.962799,0,0,-9.962799,145.26363,13.826999)"/>
<use data-text="k" xlink:href="#font_13_1" transform="matrix(6.97394,0,0,-6.97394,150.96674,15.321029)"/>
<use data-text="P" xlink:href="#font_11_1" transform="matrix(9.962799,0,0,-9.962799,165.58803,19.924122)"/>
<use data-text="x" xlink:href="#font_11_5" transform="matrix(9.962799,0,0,-9.962799,185.91243,28.053284)"/>
</svg>
