<svg xmlns="http://www.w3.org/2000/svg" xmlns:xlink="http://www.w3.org/1999/xlink" version="1.1" width="151pt" height="130pt" viewBox="0 0 151 130">
<defs>
<clipPath id="clip_1">
<path transform="matrix(.50003,0,0,-.500025,.89648059,123.88405)" d="M0 0H288V252H0Z"/>
</clipPath>
<clipPath id="clip_2">
<path transform="matrix(.50003,0,0,-.500025,.89648059,123.88405)" d="M0 252H288V0H0Z"/>
</clipPath>
<path id="font_3_1" d="M.33399964 .30233766C.33999635 .32835389 .36299134 .42037965 .43299867 .42037965 .43798829 .42037965 .46199037 .42037965 .48298646 .40734864 .45498658 .402359 .43499757 .37734986 .43499757 .35334779 .43499757 .33735658 .44599916 .31835938 .47299195 .31835938 .49499513 .31835938 .5269928 .3363495 .5269928 .37635804 .5269928 .42837525 .46798707 .4423828 .43399049 .4423828 .37599183 .4423828 .34098817 .38935853 .32899476 .36634828 .3039856 .43237306 .25 .4423828 .22099304 .4423828 .116989139 .4423828 .05999756 .3133545 .05999756 .28834535 .05999756 .27833558 .069992069 .27833558 .07199097 .27833558 .07998657 .27833558 .08299255 .28033448 .084991458 .28933717 .11898804 .39535523 .18499756 .42037965 .21899414 .42037965 .23799134 .42037965 .272995 .4113617 .272995 .35334779 .272995 .32235719 .2559967 .25532533 .21899414 .11528015 .20298767 .053268434 .16799927 .011245728 .12399292 .011245728 .117996219 .011245728 .09498596 .011245728 .07398987 .024276734 .09899902 .029266358 .12098694 .05027771 .12098694 .07827759 .12098694 .105270389 .09899902 .11328125 .083999637 .11328125 .053985597 .11328125 .0289917 .08728027 .0289917 .055267335 .0289917 .009246826 .07899475-.0107421879 .12298584-.0107421879 .18899536-.0107421879 .22499085 .059280397 .22799683 .0652771 .23999024 .028274537 .27598573-.0107421879 .33599855-.0107421879 .43899537-.0107421879 .49598695 .118270877 .49598695 .14328003 .49598695 .1532898 .4869995 .1532898 .48399354 .1532898 .47499085 .1532898 .47299195 .14929199 .47099305 .14228821 .43798829 .03527832 .36999513 .011245728 .33799745 .011245728 .29899598 .011245728 .2829895 .043273927 .2829895 .07727051 .2829895 .09927368 .2889862 .121276859 .2999878 .16529846L.33399964 .30233766Z"/>
<path id="font_4_2" d="M.33499146 .63612368C.33499146 .6630554 .33299256 .6640625 .30499269 .6640625 .24099732 .6014404 .1499939 .6004486 .10899353 .6004486V.5644531C.1329956 .5644531 .19898987 .5644531 .2539978 .592453V.08203125C.2539978 .04899597 .2539978 .035995485 .1539917 .035995485H.115997318V0C.13398743 .0009918213 .25698854 .0039978029 .2939911 .0039978029 .32499696 .0039978029 .45098878 .0009918213 .47299195 0V.035995485H.43499757C.33499146 .035995485 .33499146 .04899597 .33499146 .08203125V.63612368Z"/>
<path id="font_4_3" d="M.5049896 .18203736H.47099305C.46798707 .16001892 .45799256 .100997928 .44499208 .09098816 .43699647 .084991458 .3600006 .084991458 .34599305 .084991458H.1619873C.2669983 .17803955 .3019867 .20603943 .3619995 .25306703 .43598939 .312088 .5049896 .374115 .5049896 .46914674 .5049896 .5900879 .39898683 .6640625 .2709961 .6640625 .14698792 .6640625 .06298828 .57710269 .06298828 .4851532 .06298828 .43414308 .10598755 .42915345 .115997318 .42915345 .13999939 .42915345 .16899109 .44615174 .16899109 .48214723 .16899109 .5001526 .1619873 .53515627 .10998535 .53515627 .14099121 .6060791 .20899964 .62805178 .2559967 .62805178 .35598756 .62805178 .4079895 .5501404 .4079895 .46914674 .4079895 .38212586 .34599305 .3130951 .31399537 .27708436L.07299805 .038986207C.06298828 .02999878 .06298828 .027999878 .06298828 0H.47499085L.5049896 .18203736Z"/>
<path id="font_4_4" d="M.272995 .33428956C.35099793 .33428956 .40699769 .2803192 .40699769 .1733551 .40699769 .04940796 .33499146 .012466431 .2769928 .012466431 .23699951 .012466431 .14898682 .0234375 .10699463 .082351688 .1539917 .084350589 .16499329 .11735535 .16499329 .13835144 .16499329 .17034912 .14099121 .19335938 .10998535 .19335938 .08198547 .19335938 .053985597 .17634583 .053985597 .13534546 .053985597 .041412355 .1579895-.01953125 .2789917-.01953125 .41799928-.01953125 .5139923 .07336426 .5139923 .1733551 .5139923 .2513275 .44999696 .32929994 .33999635 .35229493 .44499208 .39024354 .48298646 .4650879 .48298646 .5260773 .48298646 .60505679 .3919983 .6640625 .2809906 .6640625 .16999817 .6640625 .084991458 .61006167 .084991458 .5300751 .084991458 .49606324 .10699463 .47706605 .13699341 .47706605 .16799927 .47706605 .18798828 .5000763 .18798828 .5280762 .18798828 .5570679 .16799927 .57806399 .13699341 .5800781 .17199707 .62405398 .24099732 .63505557 .27799989 .63505557 .32299806 .63505557 .38598634 .6130676 .38598634 .5260773 .38598634 .48406983 .37199403 .43814088 .34599305 .4072113 .31298829 .36927796 .2849884 .3672943 .23498535 .36428834 .20999146 .3623047 .20799256 .3623047 .20298767 .3612976 .20098877 .3612976 .19299317 .3592987 .19299317 .34829713 .19299317 .33428956 .20199585 .33428956 .21899414 .33428956H.272995Z"/>
<path id="font_4_5" d="M.5289917 .1640625V.20005799H.41799928V.64582827C.41799928 .66682437 .41799928 .6738281 .3959961 .6738281 .38398744 .6738281 .37998963 .6738281 .36999513 .65982058L.038986207 .20005799V.1640625H.33299256V.08201599C.33299256 .04800415 .33299256 .035995485 .2519989 .035995485H.22499085V0C.2749939 .0019989014 .33898927 .0039978029 .375 .0039978029 .4119873 .0039978029 .47599793 .0019989014 .526001 0V.035995485H.49899293C.41799928 .035995485 .41799928 .04800415 .41799928 .08201599V.1640625H.5289917M.33999635 .5658722V.20005799H.07598877L.33999635 .5658722Z"/>
<path id="font_4_6" d="M.15499878 .5588074C.20599365 .5458069 .23599243 .5458069 .2519989 .5458069 .38398744 .5458069 .46199037 .6358032 .46199037 .6508026 .46199037 .6618042 .45498658 .6648102 .44999696 .6648102 .44799806 .6648102 .44599916 .6648102 .44198609 .6618042 .41799928 .6528015 .36499024 .6328125 .29100038 .6328125 .2630005 .6328125 .20999146 .6348114 .14498902 .6598053 .1349945 .6648102 .1329956 .6648102 .13198853 .6648102 .11898804 .6648102 .11898804 .6538086 .11898804 .6378021V.34251405C.11898804 .32548524 .11898804 .3134613 .1349945 .3134613 .14399719 .3134613 .14498902 .3154602 .15499878 .32748414 .19799805 .38259889 .25898744 .390625 .2939911 .390625 .35398866 .390625 .3809967 .34251405 .38598634 .33450318 .4039917 .30143739 .4099884 .26335145 .4099884 .20524597 .4099884 .17524719 .4099884 .116256717 .37998963 .07234192 .35499574 .03640747 .31199647 .012466431 .2630005 .012466431 .19799805 .012466431 .1309967 .04838562 .10598755 .11425781 .14399719 .11125183 .16299439 .13624573 .16299439 .16325379 .16299439 .20625305 .12599182 .21424866 .11299133 .21424866 .11099243 .21424866 .06298828 .21424866 .06298828 .1602478 .06298828 .07034302 .14498902-.01953125 .2649994-.01953125 .3929901-.01953125 .5049896 .07533264 .5049896 .20124817 .5049896 .31445313 .4189911 .41862489 .29499818 .41862489 .25099183 .41862489 .19898987 .4076233 .15499878 .36956788V.5588074Z"/>
<path id="font_4_7" d="M.1499939 .3274536C.1499939 .40945436 .15699768 .48303224 .19499207 .543869 .22898865 .5978699 .2829895 .63505557 .34700013 .63505557 .3769989 .63505557 .4169922 .62701418 .43699647 .5998688 .4119873 .5978699 .3909912 .5808716 .3909912 .5518799 .3909912 .5268707 .4079895 .5048828 .43798829 .5048828 .46798707 .5048828 .48599244 .5248718 .48599244 .5538788 .48599244 .6119385 .44400025 .6640625 .34498597 .6640625 .20098877 .6640625 .053985597 .5318756 .053985597 .3174591 .053985597 .05845642 .17599488-.01953125 .28599549-.01953125 .4079895-.01953125 .5139923 .07345581 .5139923 .20445252 .5139923 .33145143 .41299439 .42546083 .29599 .42546083 .21598816 .42546083 .17199707 .37245179 .1499939 .3274536M.28599549 .012466431C.23599243 .012466431 .19699097 .04145813 .17599488 .08546448 .16099549 .11546326 .15299988 .16545105 .15299988 .22544861 .15299988 .32244874 .21099854 .39746095 .29100038 .39746095 .33699037 .39746095 .36799623 .37945558 .3929901 .342453 .4169922 .30445863 .41799928 .26245118 .41799928 .20445252 .41799928 .14746094 .41799928 .10545349 .3909912 .066467288 .36698915 .031463624 .33499146 .012466431 .28599549 .012466431Z"/>
<path id="font_4_8" d="M.5349884 .6045227C.54499819 .6165161 .54499819 .6185303 .54499819 .64453127H.2829895C.24299622 .64453127 .23199463 .6455078 .19599915 .6484375 .14399719 .65234377 .14199829 .6592407 .13899231 .676239H.10499573L.069992069 .46250917H.10398865C.10598755 .47750855 .115997318 .54351809 .13198853 .5535126 .13999939 .55952456 .22099304 .55952456 .23599243 .55952456H.45399476C.42199708 .5175171 .37098695 .45550538 .34999085 .4275055 .21899414 .25549317 .20698548 .096466068 .20698548 .037460329 .20698548 .02645874 .20698548-.01953125 .2539978-.01953125 .3019867-.01953125 .3019867 .025466919 .3019867 .038467409V.07847595C.3019867 .27249146 .34199525 .36149598 .3849945 .41551209L.5349884 .6045227Z"/>
<path id="font_4_9" d="M.35499574 .36123658C.43299867 .3992157 .48298646 .44618226 .48298646 .5151367 .48298646 .6120758 .38198854 .6640625 .2849884 .6640625 .1749878 .6640625 .084991458 .5920868 .084991458 .4971466 .084991458 .45018006 .10699463 .41619874 .125 .39620973 .14299011 .37522889 .1499939 .37123109 .20899964 .33624269 .15299988 .31227113 .053985597 .25830079 .053985597 .15336609 .053985597 .042434694 .16899109-.01953125 .2829895-.01953125 .4099884-.01953125 .5139923 .061431886 .5139923 .1693573 .5139923 .23532105 .47499085 .29127503 .4169922 .32525636 .4039917 .33325196 .36898805 .35324098 .35499574 .36123658M.19198609 .45617677C.1659851 .4711609 .13798523 .49813844 .13798523 .53512576 .13798523 .5980835 .21099854 .63505557 .2829895 .63505557 .36099244 .63505557 .42999269 .5860901 .42999269 .5151367 .42999269 .42619325 .32598878 .3812256 .32398988 .3812256 .32199098 .3812256 .31999208 .3822174 .31298829 .3862152L.19198609 .45617677M.24099732 .31726075 .37799073 .23831177C.4039917 .22332764 .45399476 .19334412 .45399476 .13438416 .45399476 .059432985 .37098695 .012466431 .2849884 .012466431 .19299317 .012466431 .11399841 .07142639 .11399841 .15336609 .11399841 .22732544 .16899109 .2842865 .24099732 .31726075Z"/>
<path id="font_4_10" d="M.41799928 .29803468C.41799928 .05064392 .29499818 .012466431 .23498535 .012466431 .21299744 .012466431 .1599884 .014465332 .1329956 .045639039 .17399597 .04963684 .1769867 .08363342 .1769867 .09263611 .1769867 .11764526 .1599884 .13964844 .12998963 .13964844 .099990848 .13964844 .08198547 .119644168 .08198547 .09063721 .08198547 .022521973 .13899231-.01953125 .23599243-.01953125 .3789978-.01953125 .5139923 .11564636 .5139923 .32904054 .5139923 .5770569 .4039917 .6640625 .2869873 .6640625 .2539978 .6640625 .18499756 .6590576 .12799073 .60305789 .09399414 .5700531 .053985597 .53105166 .053985597 .4410553 .053985597 .31404115 .15499878 .22003174 .27198792 .22003174 .35198976 .22003174 .394989 .27304078 .41799928 .31803895V.29803468M.2769928 .24804688C.23799134 .24804688 .20098877 .26104737 .17298889 .30703736 .1499939 .34403993 .1499939 .38604737 .1499939 .4410553 .1499939 .49905396 .1499939 .53904727 .1789856 .5790558 .20298767 .61405947 .23599243 .63505557 .28799439 .63505557 .33898927 .63505557 .36898805 .60305789 .3849945 .5770569 .4119873 .53504946 .4149933 .4650421 .4149933 .4300537 .4149933 .30004884 .33999635 .24804688 .2769928 .24804688Z"/>
<path id="font_4_1" d="M.5159912 .31925965C.5159912 .42918397 .5029907 .50813296 .45700074 .5780945 .42599488 .62405398 .3639984 .6640625 .28399659 .6640625 .051986696 .6640625 .051986696 .39120484 .051986696 .31925965 .051986696 .2472992 .051986696-.01953125 .28399659-.01953125 .5159912-.01953125 .5159912 .2472992 .5159912 .31925965M.28399659 .008468628C.23799134 .008468628 .1769867 .035446168 .15699768 .117385867 .14299011 .17634583 .14299011 .25830079 .14299011 .33224488 .14299011 .40519715 .14299011 .4811554 .1579895 .53611758 .1789856 .6150665 .24299622 .63604739 .28399659 .63604739 .33799745 .63604739 .3899994 .6030731 .4079895 .545105 .42399598 .4911499 .4249878 .41918946 .4249878 .33224488 .4249878 .25830079 .4249878 .18434143 .4119873 .12138367 .3919983 .030441285 .32398988 .008468628 .28399659 .008468628Z"/>
</defs>
<g clip-path="url(#clip_1)">
<g id="layer_1" data-name="Layer 2">
<path transform="matrix(.50003,0,0,-.500025,81.07803,5.2580187)" stroke-width="2" stroke-linecap="butt" stroke-miterlimit="4" stroke-linejoin="miter" fill="none" stroke="#000000" d="M0 0-77.527-41.565"/>
<path transform="matrix(.50003,0,0,-.500025,42.0728,27.04206)" stroke-width="2" stroke-linecap="butt" stroke-miterlimit="4" stroke-linejoin="miter" fill="none" stroke="#000000" d="M0 0-74.096-52.41"/>
<path transform="matrix(.50003,0,0,-.500025,78.18967,84.382579)" stroke-width="2" stroke-linecap="butt" stroke-miterlimit="4" stroke-linejoin="miter" fill="none" stroke="#000000" d="M0 0-72.832 119.013"/>
<path transform="matrix(.50003,0,0,-.500025,74.00241,53.248224)" stroke-width="2" stroke-linecap="butt" stroke-miterlimit="4" stroke-linejoin="miter" fill="none" stroke="#000000" d="M0 0-55.421-59.639"/>
<path transform="matrix(.50003,0,0,-.500025,47.494974,80.96051)" stroke-width="2" stroke-linecap="butt" stroke-miterlimit="4" stroke-linejoin="miter" fill="none" stroke="#000000" d="M0 0 150.603-72.892"/>
<path transform="matrix(.50003,0,0,-.500025,121.59563,118.31152)" stroke-width="2" stroke-linecap="butt" stroke-miterlimit="4" stroke-linejoin="miter" fill="none" stroke="#000000" d="M0 0 35.373 67.807"/>
<path transform="matrix(.50003,0,0,-.500025,138.76561,83.671588)" stroke-width="2" stroke-linecap="butt" stroke-miterlimit="4" stroke-linejoin="miter" fill="none" stroke="#000000" d="M0 0-140.362-64.457"/>
<path transform="matrix(.50003,0,0,-.500025,68.279178,117.40813)" stroke-width="2" stroke-linecap="butt" stroke-miterlimit="4" stroke-linejoin="miter" fill="none" stroke="#000000" d="M0 0 19.277 64.458"/>
<path transform="matrix(.50003,0,0,-.500025,69.42964,115.44858)" stroke-width="2" stroke-linecap="butt" stroke-miterlimit="4" stroke-linejoin="miter" fill="none" stroke="#000000" d="M0 0-129.409 126.202"/>
<path transform="matrix(.50003,0,0,-.500025,81.23184,3.8479996)" stroke-width="2" stroke-linecap="butt" stroke-miterlimit="4" stroke-linejoin="miter" fill="none" stroke="#000000" d="M0 0-14.458-98.795"/>
<path transform="matrix(.50003,0,0,-.500025,42.312067,26.041512)" stroke-width="2" stroke-linecap="butt" stroke-miterlimit="4" stroke-linejoin="miter" fill="none" stroke="#000000" d="M0 0 147.112-48.989"/>
<path transform="matrix(.50003,0,0,-.500025,115.872638,50.53714)" stroke-width="2" stroke-linecap="butt" stroke-miterlimit="4" stroke-linejoin="miter" fill="none" stroke="#000000" d="M0 0 46.818-67.735"/>
<path transform="matrix(.50003,0,0,-.500025,77.9182,85.17751)" stroke-width="2" stroke-linecap="butt" stroke-miterlimit="4" stroke-linejoin="miter" fill="none" stroke="#000000" d="M0 0-5.223 64.131"/>
</g>
<g id="layer_1" data-name="Layer 1">
<g clip-path="url(#clip_2)">
<path transform="matrix(.50003,0,0,-.500025,72.93935,115.448078)" d="M0 0C0 3.869-3.142 7.002-7.018 7.002-10.896 7.002-14.039 3.869-14.039 0-14.039-3.867-10.896-7.004-7.018-7.004-3.142-7.004 0-3.867 0 0" fill="#f8cb66"/>
<path transform="matrix(.50003,0,0,-.500025,72.93935,115.448078)" stroke-width="3" stroke-linecap="butt" stroke-miterlimit="4" stroke-linejoin="miter" fill="none" stroke="#000000" d="M0 0C0 3.869-3.142 7.002-7.018 7.002-10.896 7.002-14.039 3.869-14.039 0-14.039-3.867-10.896-7.004-7.018-7.004-3.142-7.004 0-3.867 0 0Z"/>
<path transform="matrix(.50003,0,0,-.500025,81.69968,84.38307)" d="M0 0C0 3.869-3.143 7.004-7.02 7.004-10.896 7.004-14.039 3.869-14.039 0-14.039-3.867-10.896-7.002-7.02-7.002-3.143-7.002 0-3.867 0 0" fill="#f8cb66"/>
<path transform="matrix(.50003,0,0,-.500025,81.69968,84.38307)" stroke-width="3" stroke-linecap="butt" stroke-miterlimit="4" stroke-linejoin="miter" fill="none" stroke="#000000" d="M0 0C0 3.869-3.143 7.004-7.02 7.004-10.896 7.004-14.039 3.869-14.039 0-14.039-3.867-10.896-7.002-7.02-7.002-3.143-7.002 0-3.867 0 0Z"/>
<path transform="matrix(.50003,0,0,-.500025,142.7932,84.406978)" d="M0 0C0 3.869-3.143 7.004-7.02 7.004-10.896 7.004-14.039 3.869-14.039 0-14.039-3.867-10.896-7.002-7.02-7.002-3.143-7.002 0-3.867 0 0" fill="#f8cb66"/>
<path transform="matrix(.50003,0,0,-.500025,142.7932,84.406978)" stroke-width="3" stroke-linecap="butt" stroke-miterlimit="4" stroke-linejoin="miter" fill="none" stroke="#000000" d="M0 0C0 3.869-3.143 7.004-7.02 7.004-10.896 7.004-14.039 3.869-14.039 0-14.039-3.867-10.896-7.002-7.02-7.002-3.143-7.002 0-3.867 0 0Z"/>
<path transform="matrix(.50003,0,0,-.500025,125.280399,117.02871)" d="M0 0C0 3.867-3.143 7.002-7.02 7.002-10.896 7.002-14.039 3.867-14.039 0-14.039-3.867-10.896-7.004-7.02-7.004-3.143-7.004 0-3.867 0 0" fill="#f8cb66"/>
<path transform="matrix(.50003,0,0,-.500025,125.280399,117.02871)" stroke-width="3" stroke-linecap="butt" stroke-miterlimit="4" stroke-linejoin="miter" fill="none" stroke="#000000" d="M0 0C0 3.867-3.143 7.002-7.02 7.002-10.896 7.002-14.039 3.867-14.039 0-14.039-3.867-10.896-7.004-7.02-7.004-3.143-7.004 0-3.867 0 0Z"/>
<path transform="matrix(.50003,0,0,-.500025,78.816699,53.11052)" d="M0 0C0 3.869-3.143 7.004-7.02 7.004-10.896 7.004-14.04 3.869-14.04 0-14.04-3.867-10.896-7.004-7.02-7.004-3.143-7.004 0-3.867 0 0" fill="#f8cb66"/>
<path transform="matrix(.50003,0,0,-.500025,78.816699,53.11052)" stroke-width="3" stroke-linecap="butt" stroke-miterlimit="4" stroke-linejoin="miter" fill="none" stroke="#000000" d="M0 0C0 3.869-3.143 7.004-7.02 7.004-10.896 7.004-14.04 3.869-14.04 0-14.04-3.867-10.896-7.004-7.02-7.004-3.143-7.004 0-3.867 0 0Z"/>
<path transform="matrix(.50003,0,0,-.500025,9.315435,52.411226)" d="M0 0C0 3.869-3.144 7.004-7.02 7.004-10.896 7.004-14.04 3.869-14.04 0-14.04-3.867-10.896-7.002-7.02-7.002-3.144-7.002 0-3.867 0 0" fill="#f8cb66"/>
<path transform="matrix(.50003,0,0,-.500025,9.315435,52.411226)" stroke-width="3" stroke-linecap="butt" stroke-miterlimit="4" stroke-linejoin="miter" fill="none" stroke="#000000" d="M0 0C0 3.869-3.144 7.004-7.02 7.004-10.896 7.004-14.04 3.869-14.04 0-14.04-3.867-10.896-7.002-7.02-7.002-3.144-7.002 0-3.867 0 0Z"/>
<path transform="matrix(.50003,0,0,-.500025,116.47421,47.629739)" d="M0 0C-3.869 0-7.002-3.143-7.002-7.019-7.002-10.896-3.869-14.039 0-14.039 3.867-14.039 7.004-10.896 7.004-7.019 7.004-3.143 3.867 0 0 0" fill="#f8cb66"/>
<path transform="matrix(.50003,0,0,-.500025,116.47421,47.629739)" stroke-width="3" stroke-linecap="butt" stroke-miterlimit="4" stroke-linejoin="miter" fill="none" stroke="#000000" d="M0 0C-3.869 0-7.002-3.143-7.002-7.019-7.002-10.896-3.869-14.039 0-14.039 3.867-14.039 7.004-10.896 7.004-7.019 7.004-3.143 3.867 0 0 0Z"/>
<path transform="matrix(.50003,0,0,-.500025,47.193708,79.061008)" d="M0 0C-3.869 0-7.002-3.143-7.002-7.019-7.002-10.896-3.869-14.039 0-14.039 3.867-14.039 7.004-10.896 7.004-7.019 7.004-3.143 3.867 0 0 0" fill="#f8cb66"/>
<path transform="matrix(.50003,0,0,-.500025,47.193708,79.061008)" stroke-width="3" stroke-linecap="butt" stroke-miterlimit="4" stroke-linejoin="miter" fill="none" stroke="#000000" d="M0 0C-3.869 0-7.002-3.143-7.002-7.019-7.002-10.896-3.869-14.039 0-14.039 3.867-14.039 7.004-10.896 7.004-7.019 7.004-3.143 3.867 0 0 0Z"/>
<path transform="matrix(.50003,0,0,-.500025,81.07753,1.7480469)" d="M0 0C-3.869 0-7.002-3.143-7.002-7.019-7.002-10.896-3.869-14.039 0-14.039 3.867-14.039 7.004-10.896 7.004-7.019 7.004-3.143 3.867 0 0 0" fill="#f8cb66"/>
<path transform="matrix(.50003,0,0,-.500025,81.07753,1.7480469)" stroke-width="3" stroke-linecap="butt" stroke-miterlimit="4" stroke-linejoin="miter" fill="none" stroke="#000000" d="M0 0C-3.869 0-7.002-3.143-7.002-7.019-7.002-10.896-3.869-14.039 0-14.039 3.867-14.039 7.004-10.896 7.004-7.019 7.004-3.143 3.867 0 0 0Z"/>
<path transform="matrix(.50003,0,0,-.500025,42.311567,22.531586)" d="M0 0C-3.869 0-7.002-3.143-7.002-7.019-7.002-10.896-3.869-14.039 0-14.039 3.867-14.039 7.004-10.896 7.004-7.019 7.004-3.143 3.867 0 0 0" fill="#f8cb66"/>
<path transform="matrix(.50003,0,0,-.500025,42.311567,22.531586)" stroke-width="3" stroke-linecap="butt" stroke-miterlimit="4" stroke-linejoin="miter" fill="none" stroke="#000000" d="M0 0C-3.869 0-7.002-3.143-7.002-7.019-7.002-10.896-3.869-14.039 0-14.039 3.867-14.039 7.004-10.896 7.004-7.019 7.004-3.143 3.867 0 0 0Z"/>
</g>
</g>
</g>
<use data-text="x" xlink:href="#font_3_1" transform="matrix(9.963197,0,0,-9.963098,80.100719,54.761087)"/>
<use data-text="1" xlink:href="#font_4_2" transform="matrix(6.9742186,0,0,-6.9741489,85.79505,56.256158)"/>
<use data-text="x" xlink:href="#font_3_1" transform="matrix(9.963197,0,0,-9.963098,65.69985,126.76469)"/>
<use data-text="2" xlink:href="#font_4_3" transform="matrix(6.9742186,0,0,-6.9741489,71.3942,128.25876)"/>
<use data-text="x" xlink:href="#font_3_1" transform="matrix(9.963197,0,0,-9.963098,39.778306,20.200362)"/>
<use data-text="3" xlink:href="#font_4_4" transform="matrix(6.9742186,0,0,-6.9741489,45.47265,21.694436)"/>
<use data-text="x" xlink:href="#font_3_1" transform="matrix(9.963197,0,0,-9.963098,85.86108,8.679786)"/>
<use data-text="4" xlink:href="#font_4_5" transform="matrix(6.9742186,0,0,-6.9741489,91.55541,10.173861)"/>
<use data-text="x" xlink:href="#font_3_1" transform="matrix(9.963197,0,0,-9.963098,41.21839,76.36217)"/>
<use data-text="5" xlink:href="#font_4_6" transform="matrix(6.9742186,0,0,-6.9741489,46.912744,77.85725)"/>
<use data-text="x" xlink:href="#font_3_1" transform="matrix(9.963197,0,0,-9.963098,114.6628,46.120656)"/>
<use data-text="6" xlink:href="#font_4_7" transform="matrix(6.9742186,0,0,-6.9741489,120.35714,47.615728)"/>
<use data-text="x" xlink:href="#font_3_1" transform="matrix(9.963197,0,0,-9.963098,126.183498,119.56433)"/>
<use data-text="7" xlink:href="#font_4_8" transform="matrix(6.9742186,0,0,-6.9741489,131.87784,121.0584)"/>
<use data-text="x" xlink:href="#font_3_1" transform="matrix(9.963197,0,0,-9.963098,.8969803,46.120664)"/>
<use data-text="8" xlink:href="#font_4_9" transform="matrix(6.9742186,0,0,-6.9741489,6.591316,47.615736)"/>
<use data-text="x" xlink:href="#font_3_1" transform="matrix(9.963197,0,0,-9.963098,82.9809,85.0026)"/>
<use data-text="9" xlink:href="#font_4_10" transform="matrix(6.9742186,0,0,-6.9741489,88.675258,86.49668)"/>
<use data-text="x" xlink:href="#font_3_1" transform="matrix(9.963197,0,0,-9.963098,136.2641,79.242328)"/>
<use data-text="1" xlink:href="#font_4_2" transform="matrix(6.9742186,0,0,-6.9741489,141.95844,80.7364)"/>
<use data-text="0" xlink:href="#font_4_1" transform="matrix(6.9742186,0,0,-6.9741489,145.92679,80.7364)"/>
</svg>
