<svg xmlns="http://www.w3.org/2000/svg" xmlns:xlink="http://www.w3.org/1999/xlink" version="1.1" width="168pt" height="158pt" viewBox="0 0 168 158">
<defs>
<clipPath id="clip_1">
<path transform="matrix(.600048,0,0,-.600048,11.897835,147.1466)" d="M0 0H244.8V234H0Z"/>
</clipPath>
<clipPath id="clip_2">
<path transform="matrix(.600048,0,0,-.600048,11.897835,147.1466)" d="M0 234H244.8V0H0Z"/>
</clipPath>
<path id="font_3_1" d="M.6529999 .05305481C.6839905 .026000977 .74398806 0 .7509918 0 .7649994 0 .7649994 .0129852299 .7649994 .027999878V.22935486H.8450012V.2763672C.80999758 .2733612 .72299197 .2733612 .6839905 .2733612 .6259918 .2733612 .5329895 .2733612 .47898866 .2763672V.22935486H.6230011V.12817383C.6230011 .109298709 .6230011 .08027649 .58399966 .057266237 .55799868 .042251588 .526001 .036254884 .49398805 .036254884 .4079895 .036254884 .32199098 .06526184 .272995 .12730408 .22999573 .18232727 .21699524 .25335694 .21699524 .3443451 .21699524 .4563141 .23699951 .5142975 .27398683 .5632782 .31399537 .613266 .3909912 .6502533 .4869995 .6502533 .59399417 .6502533 .68899539 .5742798 .71099856 .4473114 .71398928 .4283142 .71499636 .4263153 .73799136 .4263153 .7639923 .4263153 .7649994 .4283142 .7649994 .4543152V.6692505C.7649994 .68826296 .7649994 .6972656 .746994 .6972656 .73799136 .6972656 .73599246 .69525149 .7279968 .68826296L.6619873 .62927249C.58898928 .68725588 .5169983 .6972656 .46499635 .6972656 .21899414 .6972656 .06399536 .55029299 .06399536 .343338 .06399536 .14431763 .20899964-.0107421879 .46699525-.0107421879 .5-.011001587 .6029968-.009002686 .6529999 .05305481Z"/>
<path id="font_4_1" d="M.33499146 .63612368C.33499146 .6630554 .33299256 .6640625 .30499269 .6640625 .24099732 .6014404 .1499939 .6004486 .10899353 .6004486V.5644531C.1329956 .5644531 .19898987 .5644531 .2539978 .592453V.08203125C.2539978 .04899597 .2539978 .035995485 .1539917 .035995485H.115997318V0C.13398743 .0009918213 .25698854 .0039978029 .2939911 .0039978029 .32499696 .0039978029 .45098878 .0009918213 .47299195 0V.035995485H.43499757C.33499146 .035995485 .33499146 .04899597 .33499146 .08203125V.63612368Z"/>
<path id="font_4_2" d="M.5049896 .18203736H.47099305C.46798707 .16001892 .45799256 .100997928 .44499208 .09098816 .43699647 .084991458 .3600006 .084991458 .34599305 .084991458H.1619873C.2669983 .17803955 .3019867 .20603943 .3619995 .25306703 .43598939 .312088 .5049896 .374115 .5049896 .46914674 .5049896 .5900879 .39898683 .6640625 .2709961 .6640625 .14698792 .6640625 .06298828 .57710269 .06298828 .4851532 .06298828 .43414308 .10598755 .42915345 .115997318 .42915345 .13999939 .42915345 .16899109 .44615174 .16899109 .48214723 .16899109 .5001526 .1619873 .53515627 .10998535 .53515627 .14099121 .6060791 .20899964 .62805178 .2559967 .62805178 .35598756 .62805178 .4079895 .5501404 .4079895 .46914674 .4079895 .38212586 .34599305 .3130951 .31399537 .27708436L.07299805 .038986207C.06298828 .02999878 .06298828 .027999878 .06298828 0H.47499085L.5049896 .18203736Z"/>
<path id="font_4_3" d="M.272995 .33428956C.35099793 .33428956 .40699769 .2803192 .40699769 .1733551 .40699769 .04940796 .33499146 .012466431 .2769928 .012466431 .23699951 .012466431 .14898682 .0234375 .10699463 .082351688 .1539917 .084350589 .16499329 .11735535 .16499329 .13835144 .16499329 .17034912 .14099121 .19335938 .10998535 .19335938 .08198547 .19335938 .053985597 .17634583 .053985597 .13534546 .053985597 .041412355 .1579895-.01953125 .2789917-.01953125 .41799928-.01953125 .5139923 .07336426 .5139923 .1733551 .5139923 .2513275 .44999696 .32929994 .33999635 .35229493 .44499208 .39024354 .48298646 .4650879 .48298646 .5260773 .48298646 .60505679 .3919983 .6640625 .2809906 .6640625 .16999817 .6640625 .084991458 .61006167 .084991458 .5300751 .084991458 .49606324 .10699463 .47706605 .13699341 .47706605 .16799927 .47706605 .18798828 .5000763 .18798828 .5280762 .18798828 .5570679 .16799927 .57806399 .13699341 .5800781 .17199707 .62405398 .24099732 .63505557 .27799989 .63505557 .32299806 .63505557 .38598634 .6130676 .38598634 .5260773 .38598634 .48406983 .37199403 .43814088 .34599305 .4072113 .31298829 .36927796 .2849884 .3672943 .23498535 .36428834 .20999146 .3623047 .20799256 .3623047 .20298767 .3612976 .20098877 .3612976 .19299317 .3592987 .19299317 .34829713 .19299317 .33428956 .20199585 .33428956 .21899414 .33428956H.272995Z"/>
<path id="font_4_4" d="M.5289917 .1640625V.20005799H.41799928V.64582827C.41799928 .66682437 .41799928 .6738281 .3959961 .6738281 .38398744 .6738281 .37998963 .6738281 .36999513 .65982058L.038986207 .20005799V.1640625H.33299256V.08201599C.33299256 .04800415 .33299256 .035995485 .2519989 .035995485H.22499085V0C.2749939 .0019989014 .33898927 .0039978029 .375 .0039978029 .4119873 .0039978029 .47599793 .0019989014 .526001 0V.035995485H.49899293C.41799928 .035995485 .41799928 .04800415 .41799928 .08201599V.1640625H.5289917M.33999635 .5658722V.20005799H.07598877L.33999635 .5658722Z"/>
<path id="font_5_2" d="M.46798707 .37236024C.46798707 .42637635 .44198609 .4423828 .42399598 .4423828 .39898683 .4423828 .375 .41636659 .375 .3943634 .375 .38136292 .37998963 .3753662 .3909912 .36434938 .4119873 .3443451 .4249878 .31834413 .4249878 .28233338 .4249878 .24032593 .3639984 .011245728 .24699402 .011245728 .19599915 .011245728 .17298889 .04626465 .17298889 .09828186 .17298889 .15429688 .19999695 .22731018 .23098755 .31033326 .23799134 .3273468 .24299622 .34135438 .24299622 .36035157 .24299622 .405365 .21099854 .4423828 .16099549 .4423828 .066986087 .4423828 .0289917 .29733277 .0289917 .28833009 .0289917 .27833558 .038986207 .27833558 .040985109 .27833558 .050994874 .27833558 .051986696 .28033448 .056991579 .29634095 .085998538 .39736939 .1289978 .42037965 .1579895 .42037965 .1659851 .42037965 .18299866 .42037965 .18299866 .3883667 .18299866 .36335755 .17298889 .3363495 .1659851 .31834413 .12199402 .20230103 .10899353 .15629578 .10899353 .11328125 .10899353 .0052490236 .19699097-.0107421879 .24299622-.0107421879 .41099549-.0107421879 .46798707 .32034303 .46798707 .37236024Z"/>
<path id="font_4_5" d="M.15499878 .5588074C.20599365 .5458069 .23599243 .5458069 .2519989 .5458069 .38398744 .5458069 .46199037 .6358032 .46199037 .6508026 .46199037 .6618042 .45498658 .6648102 .44999696 .6648102 .44799806 .6648102 .44599916 .6648102 .44198609 .6618042 .41799928 .6528015 .36499024 .6328125 .29100038 .6328125 .2630005 .6328125 .20999146 .6348114 .14498902 .6598053 .1349945 .6648102 .1329956 .6648102 .13198853 .6648102 .11898804 .6648102 .11898804 .6538086 .11898804 .6378021V.34251405C.11898804 .32548524 .11898804 .3134613 .1349945 .3134613 .14399719 .3134613 .14498902 .3154602 .15499878 .32748414 .19799805 .38259889 .25898744 .390625 .2939911 .390625 .35398866 .390625 .3809967 .34251405 .38598634 .33450318 .4039917 .30143739 .4099884 .26335145 .4099884 .20524597 .4099884 .17524719 .4099884 .116256717 .37998963 .07234192 .35499574 .03640747 .31199647 .012466431 .2630005 .012466431 .19799805 .012466431 .1309967 .04838562 .10598755 .11425781 .14399719 .11125183 .16299439 .13624573 .16299439 .16325379 .16299439 .20625305 .12599182 .21424866 .11299133 .21424866 .11099243 .21424866 .06298828 .21424866 .06298828 .1602478 .06298828 .07034302 .14498902-.01953125 .2649994-.01953125 .3929901-.01953125 .5049896 .07533264 .5049896 .20124817 .5049896 .31445313 .4189911 .41862489 .29499818 .41862489 .25099183 .41862489 .19898987 .4076233 .15499878 .36956788V.5588074Z"/>
<path id="font_4_6" d="M.1499939 .3274536C.1499939 .40945436 .15699768 .48303224 .19499207 .543869 .22898865 .5978699 .2829895 .63505557 .34700013 .63505557 .3769989 .63505557 .4169922 .62701418 .43699647 .5998688 .4119873 .5978699 .3909912 .5808716 .3909912 .5518799 .3909912 .5268707 .4079895 .5048828 .43798829 .5048828 .46798707 .5048828 .48599244 .5248718 .48599244 .5538788 .48599244 .6119385 .44400025 .6640625 .34498597 .6640625 .20098877 .6640625 .053985597 .5318756 .053985597 .3174591 .053985597 .05845642 .17599488-.01953125 .28599549-.01953125 .4079895-.01953125 .5139923 .07345581 .5139923 .20445252 .5139923 .33145143 .41299439 .42546083 .29599 .42546083 .21598816 .42546083 .17199707 .37245179 .1499939 .3274536M.28599549 .012466431C.23599243 .012466431 .19699097 .04145813 .17599488 .08546448 .16099549 .11546326 .15299988 .16545105 .15299988 .22544861 .15299988 .32244874 .21099854 .39746095 .29100038 .39746095 .33699037 .39746095 .36799623 .37945558 .3929901 .342453 .4169922 .30445863 .41799928 .26245118 .41799928 .20445252 .41799928 .14746094 .41799928 .10545349 .3909912 .066467288 .36698915 .031463624 .33499146 .012466431 .28599549 .012466431Z"/>
<path id="font_5_1" d="M.34999085 .056259157C.36099244 .015258789 .3959961-.0107421879 .43899537-.0107421879 .47399903-.0107421879 .49699403 .012252808 .5130005 .044265748 .5299988 .08027649 .54299929 .14129639 .54299929 .14329529 .54299929 .1532898 .5339966 .1532898 .5309906 .1532898 .5209961 .1532898 .519989 .14929199 .5169983 .13528443 .5029907 .07926941 .48399354 .011245728 .44198609 .011245728 .42099 .011245728 .41099549 .024261475 .41099549 .057266237 .41099549 .07926941 .4229889 .12628174 .43099977 .16130066L.45899964 .2693329C.46199037 .28433229 .47200013 .32234193 .47599793 .3373413 .48098756 .36035157 .4909973 .3983612 .4909973 .40437318 .4909973 .42237855 .47698976 .43138124 .46199037 .43138124 .45700074 .43138124 .43099977 .43037416 .4229889 .3963623 .4039917 .323349 .3600006 .14828491 .34799195 .09527588 .34700013 .091278079 .30699159 .011245728 .23399353 .011245728 .18199158 .011245728 .17199707 .056259157 .17199707 .09327698 .17199707 .14929199 .19999695 .22831726 .22599793 .29733277 .23799134 .3273468 .24299622 .34135438 .24299622 .36035157 .24299622 .405365 .21099854 .4423828 .16099549 .4423828 .06599426 .4423828 .0289917 .29733277 .0289917 .28833009 .0289917 .27833558 .038986207 .27833558 .040985109 .27833558 .050994874 .27833558 .051986696 .28033448 .056991579 .29634095 .08198547 .38336183 .11999512 .42037965 .1579895 .42037965 .16699219 .42037965 .18299866 .41937257 .18299866 .38735963 .18299866 .36335755 .17199707 .3343506 .1659851 .31933595 .1289978 .2203064 .10798645 .15829468 .10798645 .10928345 .10798645 .014251709 .1769867-.0107421879 .23098755-.0107421879 .29699708-.0107421879 .33299256 .03425598 .34999085 .056259157Z"/>
<path id="font_5_3" d="M.46199037 .33935548C.46699525 .36135865 .47698976 .3983612 .47698976 .40437318 .47698976 .42237855 .46299745 .43138124 .44799806 .43138124 .43598939 .43138124 .41799928 .42337037 .41099549 .4033661 .4079895 .3963623 .36099244 .205307 .35398866 .17930603 .34700013 .14929199 .34498597 .13128662 .34498597 .11328125 .34498597 .10227966 .34498597 .10028076 .34599305 .09527588 .32299806 .042266847 .29299928 .011245728 .2539978 .011245728 .17399597 .011245728 .17399597 .08526611 .17399597 .10227966 .17399597 .1342926 .1789856 .17329407 .22599793 .29634095 .23699951 .32633973 .24299622 .3403473 .24299622 .36035157 .24299622 .405365 .20999146 .4423828 .16099549 .4423828 .06599426 .4423828 .0289917 .29733277 .0289917 .28833009 .0289917 .27833558 .038986207 .27833558 .040985109 .27833558 .050994874 .27833558 .051986696 .28033448 .056991579 .29634095 .083999637 .38935853 .12298584 .42037965 .1579895 .42037965 .16699219 .42037965 .18299866 .41937257 .18299866 .38735963 .18299866 .36235047 .17199707 .3343506 .16499329 .31733705 .12098694 .1993103 .10899353 .1532898 .10899353 .11528015 .10899353 .024261475 .17599488-.0107421879 .25099183-.0107421879 .2679901-.0107421879 .31498719-.0107421879 .35499574 .059265138 .3809967-.0047454836 .44999696-.0107421879 .47999574-.0107421879 .5549927-.0107421879 .598999 .052261354 .625 .11227417 .6589966 .19030762 .69099429 .32434083 .69099429 .37236024 .69099429 .42736817 .6639862 .4423828 .6469879 .4423828 .621994 .4423828 .5970001 .41636659 .5970001 .3943634 .5970001 .38136292 .6029968 .3753662 .6119995 .36735536 .6230011 .35635377 .647995 .33035279 .647995 .28233338 .647995 .24832154 .61898806 .15029907 .59298709 .09927368 .5669861 .04626465 .5319977 .011245728 .48298646 .011245728 .43598939 .011245728 .40899659 .041259767 .40899659 .09828186 .40899659 .12628174 .41600038 .1572876 .41999818 .17129517L.46199037 .33935548Z"/>
<path id="font_5_4" d="M.33399964 .30233766C.33999635 .32835389 .36299134 .42037965 .43299867 .42037965 .43798829 .42037965 .46199037 .42037965 .48298646 .40734864 .45498658 .402359 .43499757 .37734986 .43499757 .35334779 .43499757 .33735658 .44599916 .31835938 .47299195 .31835938 .49499513 .31835938 .5269928 .3363495 .5269928 .37635804 .5269928 .42837525 .46798707 .4423828 .43399049 .4423828 .37599183 .4423828 .34098817 .38935853 .32899476 .36634828 .3039856 .43237306 .25 .4423828 .22099304 .4423828 .116989139 .4423828 .05999756 .3133545 .05999756 .28834535 .05999756 .27833558 .069992069 .27833558 .07199097 .27833558 .07998657 .27833558 .08299255 .28033448 .084991458 .28933717 .11898804 .39535523 .18499756 .42037965 .21899414 .42037965 .23799134 .42037965 .272995 .4113617 .272995 .35334779 .272995 .32235719 .2559967 .25532533 .21899414 .11528015 .20298767 .053268434 .16799927 .011245728 .12399292 .011245728 .117996219 .011245728 .09498596 .011245728 .07398987 .024276734 .09899902 .029266358 .12098694 .05027771 .12098694 .07827759 .12098694 .105270389 .09899902 .11328125 .083999637 .11328125 .053985597 .11328125 .0289917 .08728027 .0289917 .055267335 .0289917 .009246826 .07899475-.0107421879 .12298584-.0107421879 .18899536-.0107421879 .22499085 .059280397 .22799683 .0652771 .23999024 .028274537 .27598573-.0107421879 .33599855-.0107421879 .43899537-.0107421879 .49598695 .118270877 .49598695 .14328003 .49598695 .1532898 .4869995 .1532898 .48399354 .1532898 .47499085 .1532898 .47299195 .14929199 .47099305 .14228821 .43798829 .03527832 .36999513 .011245728 .33799745 .011245728 .29899598 .011245728 .2829895 .043273927 .2829895 .07727051 .2829895 .09927368 .2889862 .121276859 .2999878 .16529846L.33399964 .30233766Z"/>
</defs>
<g clip-path="url(#clip_1)">
<g id="layer_1" data-name="Edges">
<path transform="matrix(.600048,0,0,-.600048,109.09211,62.585565)" stroke-width="2" stroke-linecap="butt" stroke-miterlimit="4" stroke-linejoin="miter" fill="none" stroke="#231f20" d="M0 0-24.179 41.88 0 83.759H48.358L72.536 41.88 48.358 0H0Z"/>
<path transform="matrix(.600048,0,0,-.600048,94.583728,37.455614)" stroke-width="2" stroke-linecap="butt" stroke-miterlimit="4" stroke-linejoin="miter" fill="none" stroke="#231f20" d="M0 0H96.715"/>
<path transform="matrix(.600048,0,0,-.600048,48.182859,25.242234)" stroke-width="2" stroke-linecap="butt" stroke-miterlimit="4" stroke-linejoin="miter" fill="none" stroke="#231f20" d="M0 0H45.098"/>
<path transform="matrix(.600048,0,0,-.600048,75.24394,25.242234)" stroke-width="2" stroke-linecap="butt" stroke-miterlimit="4" stroke-linejoin="miter" fill="none" stroke="#231f20" d="M0 0 .194-54.887"/>
<path transform="matrix(.600048,0,0,-.600048,75.36023,58.176889)" stroke-width="2" stroke-linecap="butt" stroke-miterlimit="4" stroke-linejoin="miter" fill="none" stroke="#231f20" d="M0 0-45.782-.015"/>
<path transform="matrix(.600048,0,0,-.600048,47.888715,58.185945)" stroke-width="2" stroke-linecap="butt" stroke-miterlimit="4" stroke-linejoin="miter" fill="none" stroke="#231f20" d="M0 0-44.751 53.76"/>
<path transform="matrix(.600048,0,0,-.600048,21.035965,25.927247)" stroke-width="2" stroke-linecap="butt" stroke-miterlimit="4" stroke-linejoin="miter" fill="none" stroke="#231f20" d="M0 0-.302-53.302"/>
<path transform="matrix(.600048,0,0,-.600048,20.854872,57.910829)" stroke-width="2" stroke-linecap="butt" stroke-miterlimit="4" stroke-linejoin="miter" fill="none" stroke="#231f20" d="M0 0 45.543 54.443"/>
<path transform="matrix(.600048,0,0,-.600048,48.182859,25.242234)" stroke-width="2" stroke-linecap="butt" stroke-miterlimit="4" stroke-linejoin="miter" fill="none" stroke="#231f20" d="M0 0 45.292-54.887"/>
<path transform="matrix(.600048,0,0,-.600048,97.396457,97.118808)" stroke-width="2" stroke-linecap="butt" stroke-miterlimit="4" stroke-linejoin="miter" fill="none" stroke="#231f20" d="M0 0-.303-53.303"/>
<path transform="matrix(.600048,0,0,-.600048,97.21481,129.10298)" stroke-width="2" stroke-linecap="butt" stroke-miterlimit="4" stroke-linejoin="miter" fill="none" stroke="#231f20" d="M0 0 90.836-.443"/>
<path transform="matrix(.600048,0,0,-.600048,151.72074,129.36899)" stroke-width="2" stroke-linecap="butt" stroke-miterlimit="4" stroke-linejoin="miter" fill="none" stroke="#231f20" d="M0 0-.803 54.849"/>
<path transform="matrix(.600048,0,0,-.600048,151.23908,96.45719)" stroke-width="2" stroke-linecap="butt" stroke-miterlimit="4" stroke-linejoin="miter" fill="none" stroke="#231f20" d="M0 0-44.298-53.843"/>
<path transform="matrix(.600048,0,0,-.600048,124.658199,128.76546)" stroke-width="2" stroke-linecap="butt" stroke-miterlimit="4" stroke-linejoin="miter" fill="none" stroke="#231f20" d="M0 0-.3 52.281"/>
<path transform="matrix(.600048,0,0,-.600048,124.658199,128.76546)" stroke-width="2" stroke-linecap="butt" stroke-miterlimit="4" stroke-linejoin="miter" fill="none" stroke="#231f20" d="M0 0-45.433 52.74"/>
</g>
<g id="layer_1" data-name="Vertices Labels">
<path transform="matrix(.600048,0,0,-.600048,31.674817,141.19005)" stroke-width="2" stroke-linecap="butt" stroke-miterlimit="4" stroke-linejoin="miter" fill="none" stroke="#231f20" d="M0 0-24.179 41.881 0 83.76H48.358L72.536 41.881 48.358 0H0Z"/>
<path transform="matrix(.600048,0,0,-.600048,32.29947,140.54608)" stroke-width="2" stroke-linecap="butt" stroke-miterlimit="4" stroke-linejoin="miter" fill="none" stroke="#231f20" d="M0 0 69.465 39.685"/>
<g clip-path="url(#clip_2)">
<path transform="matrix(.600048,0,0,-.600048,77.72616,116.73341)" d="M0 0C0 3.404-2.793 6.164-6.238 6.164-9.686 6.164-12.48 3.404-12.48 0-12.48-3.402-9.686-6.164-6.238-6.164-2.793-6.164 0-3.402 0 0" fill="#f9cd83"/>
<path transform="matrix(.600048,0,0,-.600048,77.72616,116.73341)" stroke-width="2" stroke-linecap="butt" stroke-miterlimit="4" stroke-linejoin="miter" fill="none" stroke="#231f20" d="M0 0C0 3.404-2.793 6.164-6.238 6.164-9.686 6.164-12.48 3.404-12.48 0-12.48-3.402-9.686-6.164-6.238-6.164-2.793-6.164 0-3.402 0 0Z"/>
<path transform="matrix(.600048,0,0,-.600048,35.994684,141.63307)" d="M0 0C0 3.404-2.793 6.164-6.238 6.164-9.686 6.164-12.48 3.404-12.48 0-12.48-3.402-9.686-6.162-6.238-6.162-2.793-6.162 0-3.402 0 0" fill="#f9cd83"/>
<path transform="matrix(.600048,0,0,-.600048,35.994684,141.63307)" stroke-width="2" stroke-linecap="butt" stroke-miterlimit="4" stroke-linejoin="miter" fill="none" stroke="#231f20" d="M0 0C0 3.404-2.793 6.164-6.238 6.164-9.686 6.164-12.48 3.404-12.48 0-12.48-3.402-9.686-6.162-6.238-6.162-2.793-6.162 0-3.402 0 0Z"/>
<path transform="matrix(.600048,0,0,-.600048,64.73428,91.74117)" d="M0 0C0 3.404-2.793 6.164-6.238 6.164-9.686 6.164-12.479 3.404-12.479 0-12.479-3.402-9.686-6.163-6.238-6.163-2.793-6.163 0-3.402 0 0" fill="#f9cd83"/>
<path transform="matrix(.600048,0,0,-.600048,64.73428,91.74117)" stroke-width="2" stroke-linecap="butt" stroke-miterlimit="4" stroke-linejoin="miter" fill="none" stroke="#231f20" d="M0 0C0 3.404-2.793 6.164-6.238 6.164-9.686 6.164-12.479 3.404-12.479 0-12.479-3.402-9.686-6.163-6.238-6.163-2.793-6.163 0-3.402 0 0Z"/>
<path transform="matrix(.600048,0,0,-.600048,20.71398,116.16679)" d="M0 0C0 3.404-2.793 6.164-6.24 6.164-9.686 6.164-12.48 3.404-12.48 0-12.48-3.401-9.686-6.163-6.24-6.163-2.793-6.163 0-3.401 0 0" fill="#f9cd83"/>
<path transform="matrix(.600048,0,0,-.600048,20.71398,116.16679)" stroke-width="2" stroke-linecap="butt" stroke-miterlimit="4" stroke-linejoin="miter" fill="none" stroke="#231f20" d="M0 0C0 3.404-2.793 6.164-6.24 6.164-9.686 6.164-12.48 3.404-12.48 0-12.48-3.401-9.686-6.163-6.24-6.163-2.793-6.163 0-3.401 0 0Z"/>
<path transform="matrix(.600048,0,0,-.600048,35.95658,91.62459)" d="M0 0C0 3.404-2.793 6.164-6.238 6.164-9.686 6.164-12.479 3.404-12.479 0-12.479-3.402-9.686-6.164-6.238-6.164-2.793-6.164 0-3.402 0 0" fill="#f9cd83"/>
<path transform="matrix(.600048,0,0,-.600048,35.95658,91.62459)" stroke-width="2" stroke-linecap="butt" stroke-miterlimit="4" stroke-linejoin="miter" fill="none" stroke="#231f20" d="M0 0C0 3.404-2.793 6.164-6.238 6.164-9.686 6.164-12.479 3.404-12.479 0-12.479-3.402-9.686-6.164-6.238-6.164-2.793-6.164 0-3.402 0 0Z"/>
<path transform="matrix(.600048,0,0,-.600048,64.516887,140.61406)" d="M0 0C0 3.404-2.793 6.164-6.238 6.164-9.686 6.164-12.479 3.404-12.479 0-12.479-3.402-9.686-6.164-6.238-6.164-2.793-6.164 0-3.402 0 0" fill="#f9cd83"/>
<path transform="matrix(.600048,0,0,-.600048,64.516887,140.61406)" stroke-width="2" stroke-linecap="butt" stroke-miterlimit="4" stroke-linejoin="miter" fill="none" stroke="#231f20" d="M0 0C0 3.404-2.793 6.164-6.238 6.164-9.686 6.164-12.479 3.404-12.479 0-12.479-3.402-9.686-6.164-6.238-6.164-2.793-6.164 0-3.402 0 0Z"/>
<path transform="matrix(.600048,0,0,-.600048,24.779545,25.927842)" d="M0 0C0 3.405-2.793 6.165-6.238 6.165-9.686 6.165-12.479 3.405-12.479 0-12.479-3.402-9.686-6.162-6.238-6.162-2.793-6.162 0-3.402 0 0" fill="#f9cd83"/>
<path transform="matrix(.600048,0,0,-.600048,24.779545,25.927842)" stroke-width="2" stroke-linecap="butt" stroke-miterlimit="4" stroke-linejoin="miter" fill="none" stroke="#231f20" d="M0 0C0 3.405-2.793 6.165-6.238 6.165-9.686 6.165-12.479 3.405-12.479 0-12.479-3.402-9.686-6.162-6.238-6.162-2.793-6.162 0-3.402 0 0Z"/>
<path transform="matrix(.600048,0,0,-.600048,155.14347,38.12893)" d="M0 0C0 3.404-2.793 6.164-6.238 6.164-9.686 6.164-12.48 3.404-12.48 0-12.48-3.402-9.686-6.164-6.238-6.164-2.793-6.164 0-3.402 0 0" fill="#f9cd83"/>
<path transform="matrix(.600048,0,0,-.600048,155.14347,38.12893)" stroke-width="2" stroke-linecap="butt" stroke-miterlimit="4" stroke-linejoin="miter" fill="none" stroke="#231f20" d="M0 0C0 3.404-2.793 6.164-6.238 6.164-9.686 6.164-12.48 3.404-12.48 0-12.48-3.402-9.686-6.164-6.238-6.164-2.793-6.164 0-3.402 0 0Z"/>
<path transform="matrix(.600048,0,0,-.600048,113.41204,63.02858)" d="M0 0C0 3.404-2.793 6.164-6.238 6.164-9.686 6.164-12.48 3.404-12.48 0-12.48-3.402-9.686-6.163-6.238-6.163-2.793-6.163 0-3.402 0 0" fill="#f9cd83"/>
<path transform="matrix(.600048,0,0,-.600048,113.41204,63.02858)" stroke-width="2" stroke-linecap="butt" stroke-miterlimit="4" stroke-linejoin="miter" fill="none" stroke="#231f20" d="M0 0C0 3.404-2.793 6.164-6.238 6.164-9.686 6.164-12.48 3.404-12.48 0-12.48-3.402-9.686-6.163-6.238-6.163-2.793-6.163 0-3.402 0 0Z"/>
<path transform="matrix(.600048,0,0,-.600048,24.59845,57.91143)" d="M0 0C0 3.404-2.793 6.164-6.238 6.164-9.686 6.164-12.479 3.404-12.479 0-12.479-3.402-9.686-6.162-6.238-6.162-2.793-6.162 0-3.402 0 0" fill="#f9cd83"/>
<path transform="matrix(.600048,0,0,-.600048,24.59845,57.91143)" stroke-width="2" stroke-linecap="butt" stroke-miterlimit="4" stroke-linejoin="miter" fill="none" stroke="#231f20" d="M0 0C0 3.404-2.793 6.164-6.238 6.164-9.686 6.164-12.479 3.404-12.479 0-12.479-3.402-9.686-6.162-6.238-6.162-2.793-6.162 0-3.402 0 0Z"/>
<path transform="matrix(.600048,0,0,-.600048,142.15164,13.136993)" d="M0 0C0 3.404-2.793 6.164-6.238 6.164-9.686 6.164-12.479 3.404-12.479 0-12.479-3.402-9.686-6.163-6.238-6.163-2.793-6.163 0-3.402 0 0" fill="#f9cd83"/>
<path transform="matrix(.600048,0,0,-.600048,142.15164,13.136993)" stroke-width="2" stroke-linecap="butt" stroke-miterlimit="4" stroke-linejoin="miter" fill="none" stroke="#231f20" d="M0 0C0 3.404-2.793 6.164-6.238 6.164-9.686 6.164-12.479 3.404-12.479 0-12.479-3.402-9.686-6.163-6.238-6.163-2.793-6.163 0-3.402 0 0Z"/>
<path transform="matrix(.600048,0,0,-.600048,78.62155,25.859269)" d="M0 0C0 3.404-2.793 6.164-6.238 6.164-9.686 6.164-12.479 3.404-12.479 0-12.479-3.402-9.686-6.164-6.238-6.164-2.793-6.164 0-3.402 0 0" fill="#f9cd83"/>
<path transform="matrix(.600048,0,0,-.600048,78.62155,25.859269)" stroke-width="2" stroke-linecap="butt" stroke-miterlimit="4" stroke-linejoin="miter" fill="none" stroke="#231f20" d="M0 0C0 3.404-2.793 6.164-6.238 6.164-9.686 6.164-12.479 3.404-12.479 0-12.479-3.402-9.686-6.164-6.238-6.164-2.793-6.164 0-3.402 0 0Z"/>
<path transform="matrix(.600048,0,0,-.600048,52.042428,57.573907)" d="M0 0C0 3.404-2.793 6.164-6.238 6.164-9.686 6.164-12.48 3.404-12.48 0-12.48-3.402-9.686-6.163-6.238-6.163-2.793-6.163 0-3.402 0 0" fill="#f9cd83"/>
<path transform="matrix(.600048,0,0,-.600048,52.042428,57.573907)" stroke-width="2" stroke-linecap="butt" stroke-miterlimit="4" stroke-linejoin="miter" fill="none" stroke="#231f20" d="M0 0C0 3.404-2.793 6.164-6.238 6.164-9.686 6.164-12.48 3.404-12.48 0-12.48-3.402-9.686-6.163-6.238-6.163-2.793-6.163 0-3.402 0 0Z"/>
<path transform="matrix(.600048,0,0,-.600048,98.13128,37.56254)" d="M0 0C0 3.404-2.793 6.164-6.24 6.164-9.686 6.164-12.48 3.404-12.48 0-12.48-3.402-9.686-6.164-6.24-6.164-2.793-6.164 0-3.402 0 0" fill="#f9cd83"/>
<path transform="matrix(.600048,0,0,-.600048,98.13128,37.56254)" stroke-width="2" stroke-linecap="butt" stroke-miterlimit="4" stroke-linejoin="miter" fill="none" stroke="#231f20" d="M0 0C0 3.404-2.793 6.164-6.24 6.164-9.686 6.164-12.48 3.404-12.48 0-12.48-3.402-9.686-6.164-6.24-6.164-2.793-6.164 0-3.402 0 0Z"/>
<path transform="matrix(.600048,0,0,-.600048,51.926439,25.241929)" d="M0 0C0 3.404-2.793 6.164-6.238 6.164-9.686 6.164-12.479 3.404-12.479 0-12.479-3.402-9.686-6.164-6.238-6.164-2.793-6.164 0-3.402 0 0" fill="#f9cd83"/>
<path transform="matrix(.600048,0,0,-.600048,51.926439,25.241929)" stroke-width="2" stroke-linecap="butt" stroke-miterlimit="4" stroke-linejoin="miter" fill="none" stroke="#231f20" d="M0 0C0 3.404-2.793 6.164-6.238 6.164-9.686 6.164-12.479 3.404-12.479 0-12.479-3.402-9.686-6.164-6.238-6.164-2.793-6.164 0-3.402 0 0Z"/>
<path transform="matrix(.600048,0,0,-.600048,113.37393,13.02034)" d="M0 0C0 3.404-2.793 6.164-6.238 6.164-9.686 6.164-12.479 3.404-12.479 0-12.479-3.402-9.686-6.164-6.238-6.164-2.793-6.164 0-3.402 0 0" fill="#f9cd83"/>
<path transform="matrix(.600048,0,0,-.600048,113.37393,13.02034)" stroke-width="2" stroke-linecap="butt" stroke-miterlimit="4" stroke-linejoin="miter" fill="none" stroke="#231f20" d="M0 0C0 3.404-2.793 6.164-6.238 6.164-9.686 6.164-12.479 3.404-12.479 0-12.479-3.402-9.686-6.164-6.238-6.164-2.793-6.164 0-3.402 0 0Z"/>
<path transform="matrix(.600048,0,0,-.600048,141.93424,62.00981)" d="M0 0C0 3.404-2.793 6.164-6.238 6.164-9.686 6.164-12.479 3.404-12.479 0-12.479-3.402-9.686-6.164-6.238-6.164-2.793-6.164 0-3.402 0 0" fill="#f9cd83"/>
<path transform="matrix(.600048,0,0,-.600048,141.93424,62.00981)" stroke-width="2" stroke-linecap="butt" stroke-miterlimit="4" stroke-linejoin="miter" fill="none" stroke="#231f20" d="M0 0C0 3.404-2.793 6.164-6.238 6.164-9.686 6.164-12.479 3.404-12.479 0-12.479-3.402-9.686-6.164-6.238-6.164-2.793-6.164 0-3.402 0 0Z"/>
<path transform="matrix(.600048,0,0,-.600048,79.10411,58.177194)" d="M0 0C0 3.404-2.793 6.164-6.238 6.164-9.686 6.164-12.479 3.404-12.479 0-12.479-3.402-9.686-6.164-6.238-6.164-2.793-6.164 0-3.402 0 0" fill="#f9cd83"/>
<path transform="matrix(.600048,0,0,-.600048,79.10411,58.177194)" stroke-width="2" stroke-linecap="butt" stroke-miterlimit="4" stroke-linejoin="miter" fill="none" stroke="#231f20" d="M0 0C0 3.404-2.793 6.164-6.238 6.164-9.686 6.164-12.479 3.404-12.479 0-12.479-3.402-9.686-6.164-6.238-6.164-2.793-6.164 0-3.402 0 0Z"/>
<path transform="matrix(.600048,0,0,-.600048,101.13973,97.11994)" d="M0 0C0 3.406-2.793 6.166-6.238 6.166-9.686 6.166-12.479 3.406-12.479 0-12.479-3.402-9.686-6.162-6.238-6.162-2.793-6.162 0-3.402 0 0" fill="#f9cd83"/>
<path transform="matrix(.600048,0,0,-.600048,101.13973,97.11994)" stroke-width="2" stroke-linecap="butt" stroke-miterlimit="4" stroke-linejoin="miter" fill="none" stroke="#231f20" d="M0 0C0 3.406-2.793 6.166-6.238 6.166-9.686 6.166-12.479 3.406-12.479 0-12.479-3.402-9.686-6.162-6.238-6.162-2.793-6.162 0-3.402 0 0Z"/>
<path transform="matrix(.600048,0,0,-.600048,100.9587,129.10358)" d="M0 0C0 3.404-2.793 6.164-6.238 6.164-9.686 6.164-12.479 3.404-12.479 0-12.479-3.402-9.686-6.162-6.238-6.162-2.793-6.162 0-3.402 0 0" fill="#f9cd83"/>
<path transform="matrix(.600048,0,0,-.600048,100.9587,129.10358)" stroke-width="2" stroke-linecap="butt" stroke-miterlimit="4" stroke-linejoin="miter" fill="none" stroke="#231f20" d="M0 0C0 3.404-2.793 6.164-6.238 6.164-9.686 6.164-12.479 3.404-12.479 0-12.479-3.402-9.686-6.162-6.238-6.162-2.793-6.162 0-3.402 0 0Z"/>
<path transform="matrix(.600048,0,0,-.600048,154.98175,97.05082)" d="M0 0C0 3.404-2.793 6.164-6.238 6.164-9.686 6.164-12.479 3.404-12.479 0-12.479-3.402-9.686-6.164-6.238-6.164-2.793-6.164 0-3.402 0 0" fill="#f9cd83"/>
<path transform="matrix(.600048,0,0,-.600048,154.98175,97.05082)" stroke-width="2" stroke-linecap="butt" stroke-miterlimit="4" stroke-linejoin="miter" fill="none" stroke="#231f20" d="M0 0C0 3.404-2.793 6.164-6.238 6.164-9.686 6.164-12.479 3.404-12.479 0-12.479-3.402-9.686-6.164-6.238-6.164-2.793-6.164 0-3.402 0 0Z"/>
<path transform="matrix(.600048,0,0,-.600048,128.40268,128.76605)" d="M0 0C0 3.404-2.793 6.164-6.238 6.164-9.686 6.164-12.48 3.404-12.48 0-12.48-3.402-9.686-6.162-6.238-6.162-2.793-6.162 0-3.402 0 0" fill="#f9cd83"/>
<path transform="matrix(.600048,0,0,-.600048,128.40268,128.76605)" stroke-width="2" stroke-linecap="butt" stroke-miterlimit="4" stroke-linejoin="miter" fill="none" stroke="#231f20" d="M0 0C0 3.404-2.793 6.164-6.238 6.164-9.686 6.164-12.48 3.404-12.48 0-12.48-3.402-9.686-6.162-6.238-6.162-2.793-6.162 0-3.402 0 0Z"/>
<path transform="matrix(.600048,0,0,-.600048,128.22159,97.39363)" d="M0 0C0 3.404-2.793 6.164-6.238 6.164-9.686 6.164-12.479 3.404-12.479 0-12.479-3.402-9.686-6.164-6.238-6.164-2.793-6.164 0-3.402 0 0" fill="#f9cd83"/>
<path transform="matrix(.600048,0,0,-.600048,128.22159,97.39363)" stroke-width="2" stroke-linecap="butt" stroke-miterlimit="4" stroke-linejoin="miter" fill="none" stroke="#231f20" d="M0 0C0 3.404-2.793 6.164-6.238 6.164-9.686 6.164-12.479 3.404-12.479 0-12.479-3.402-9.686-6.164-6.238-6.164-2.793-6.164 0-3.402 0 0Z"/>
<path transform="matrix(.600048,0,0,-.600048,155.4646,129.36899)" d="M0 0C0 3.404-2.793 6.164-6.238 6.164-9.686 6.164-12.479 3.404-12.479 0-12.479-3.402-9.686-6.164-6.238-6.164-2.793-6.164 0-3.402 0 0" fill="#f9cd83"/>
<path transform="matrix(.600048,0,0,-.600048,155.4646,129.36899)" stroke-width="2" stroke-linecap="butt" stroke-miterlimit="4" stroke-linejoin="miter" fill="none" stroke="#231f20" d="M0 0C0 3.404-2.793 6.164-6.238 6.164-9.686 6.164-12.479 3.404-12.479 0-12.479-3.402-9.686-6.164-6.238-6.164-2.793-6.164 0-3.402 0 0Z"/>
</g>
</g>
</g>
<use data-text="G" xlink:href="#font_3_1" transform="matrix(9.963397,0,0,-9.963397,44.21322,78.10749)"/>
<use data-text="1" xlink:href="#font_4_1" transform="matrix(6.974358,0,0,-6.974358,53.22194,79.60161)"/>
<use data-text="G" xlink:href="#font_3_1" transform="matrix(9.963397,0,0,-9.963397,120.597339,78.10749)"/>
<use data-text="2" xlink:href="#font_4_2" transform="matrix(6.974358,0,0,-6.974358,129.60507,79.60161)"/>
<use data-text="G" xlink:href="#font_3_1" transform="matrix(9.963397,0,0,-9.963397,44.213235,154.49062)"/>
<use data-text="3" xlink:href="#font_4_3" transform="matrix(6.974358,0,0,-6.974358,53.221956,155.98572)"/>
<use data-text="G" xlink:href="#font_3_1" transform="matrix(9.963397,0,0,-9.963397,120.597339,154.49062)"/>
<use data-text="4" xlink:href="#font_4_4" transform="matrix(6.974358,0,0,-6.974358,129.60507,155.98572)"/>
<use data-text="v" xlink:href="#font_5_2" transform="matrix(9.963397,0,0,-9.963397,17.773125,19.350796)"/>
<use data-text="1" xlink:href="#font_4_1" transform="matrix(6.974358,0,0,-6.974358,22.602509,20.844916)"/>
<use data-text="v" xlink:href="#font_5_2" transform="matrix(9.963397,0,0,-9.963397,44.21324,19.350796)"/>
<use data-text="2" xlink:href="#font_4_2" transform="matrix(6.974358,0,0,-6.974358,49.042634,20.844916)"/>
<use data-text="v" xlink:href="#font_5_2" transform="matrix(9.963397,0,0,-9.963397,72.12247,19.350796)"/>
<use data-text="3" xlink:href="#font_4_3" transform="matrix(6.974358,0,0,-6.974358,76.95186,20.844916)"/>
<use data-text="v" xlink:href="#font_5_2" transform="matrix(9.963397,0,0,-9.963397,17.773125,67.82468)"/>
<use data-text="4" xlink:href="#font_4_4" transform="matrix(6.974358,0,0,-6.974358,22.602509,69.31979)"/>
<use data-text="v" xlink:href="#font_5_2" transform="matrix(9.963397,0,0,-9.963397,44.21324,67.82468)"/>
<use data-text="5" xlink:href="#font_4_5" transform="matrix(6.974358,0,0,-6.974358,49.042634,69.31979)"/>
<use data-text="v" xlink:href="#font_5_2" transform="matrix(9.963397,0,0,-9.963397,72.12247,67.82468)"/>
<use data-text="6" xlink:href="#font_4_6" transform="matrix(6.974358,0,0,-6.974358,76.95186,69.31979)"/>
<use data-text="u" xlink:href="#font_5_1" transform="matrix(9.963397,0,0,-9.963397,104.43906,6.130741)"/>
<use data-text="1" xlink:href="#font_4_1" transform="matrix(6.974358,0,0,-6.974358,110.14252,7.62486)"/>
<use data-text="u" xlink:href="#font_5_1" transform="matrix(9.963397,0,0,-9.963397,135.28652,6.130741)"/>
<use data-text="2" xlink:href="#font_4_2" transform="matrix(6.974358,0,0,-6.974358,140.98998,7.62486)"/>
<use data-text="u" xlink:href="#font_5_1" transform="matrix(9.963397,0,0,-9.963397,157.32028,39.915445)"/>
<use data-text="3" xlink:href="#font_4_3" transform="matrix(6.974358,0,0,-6.974358,163.02375,41.41056)"/>
<use data-text="u" xlink:href="#font_5_1" transform="matrix(9.963397,0,0,-9.963397,142.6311,66.35555)"/>
<use data-text="4" xlink:href="#font_4_4" transform="matrix(6.974358,0,0,-6.974358,148.33457,67.85068)"/>
<use data-text="u" xlink:href="#font_5_1" transform="matrix(9.963397,0,0,-9.963397,95.625339,66.35555)"/>
<use data-text="5" xlink:href="#font_4_5" transform="matrix(6.974358,0,0,-6.974358,101.3288,67.85068)"/>
<use data-text="u" xlink:href="#font_5_1" transform="matrix(9.963397,0,0,-9.963397,80.20212,39.91544)"/>
<use data-text="6" xlink:href="#font_4_6" transform="matrix(6.974358,0,0,-6.974358,85.90556,41.41056)"/>
<use data-text="w" xlink:href="#font_5_3" transform="matrix(9.963397,0,0,-9.963397,26.58683,86.9212)"/>
<use data-text="1" xlink:href="#font_4_1" transform="matrix(6.974358,0,0,-6.974358,33.719408,88.41532)"/>
<use data-text="w" xlink:href="#font_5_3" transform="matrix(9.963397,0,0,-9.963397,58.168367,86.9212)"/>
<use data-text="2" xlink:href="#font_4_2" transform="matrix(6.974358,0,0,-6.974358,65.300937,88.41532)"/>
<use data-text="w" xlink:href="#font_5_3" transform="matrix(9.963397,0,0,-9.963397,78.73302,117.76767)"/>
<use data-text="3" xlink:href="#font_4_3" transform="matrix(6.974358,0,0,-6.974358,85.865589,119.262798)"/>
<use data-text="w" xlink:href="#font_5_3" transform="matrix(9.963397,0,0,-9.963397,66.24701,142.73967)"/>
<use data-text="4" xlink:href="#font_4_4" transform="matrix(6.974358,0,0,-6.974358,73.380588,144.2338)"/>
<use data-text="w" xlink:href="#font_5_3" transform="matrix(9.963397,0,0,-9.963397,16.304017,142.73967)"/>
<use data-text="5" xlink:href="#font_4_5" transform="matrix(6.974358,0,0,-6.974358,23.437592,144.2338)"/>
<use data-text="w" xlink:href="#font_5_3" transform="matrix(9.963397,0,0,-9.963397,.8807907,116.29956)"/>
<use data-text="6" xlink:href="#font_4_6" transform="matrix(6.974358,0,0,-6.974358,8.013351,117.79368)"/>
<use data-text="x" xlink:href="#font_5_4" transform="matrix(9.963397,0,0,-9.963397,94.15625,90.88653)"/>
<use data-text="1" xlink:href="#font_4_1" transform="matrix(6.974358,0,0,-6.974358,99.85071,92.38165)"/>
<use data-text="x" xlink:href="#font_5_4" transform="matrix(9.963397,0,0,-9.963397,120.59735,90.88653)"/>
<use data-text="2" xlink:href="#font_4_2" transform="matrix(6.974358,0,0,-6.974358,126.29181,92.38165)"/>
<use data-text="x" xlink:href="#font_5_4" transform="matrix(9.963397,0,0,-9.963397,147.03748,90.88653)"/>
<use data-text="3" xlink:href="#font_4_3" transform="matrix(6.974358,0,0,-6.974358,152.73194,92.38165)"/>
<use data-text="x" xlink:href="#font_5_4" transform="matrix(9.963397,0,0,-9.963397,94.15625,139.80146)"/>
<use data-text="4" xlink:href="#font_4_4" transform="matrix(6.974358,0,0,-6.974358,99.85071,141.29657)"/>
<use data-text="x" xlink:href="#font_5_4" transform="matrix(9.963397,0,0,-9.963397,120.59735,139.80146)"/>
<use data-text="5" xlink:href="#font_4_5" transform="matrix(6.974358,0,0,-6.974358,126.29181,141.29657)"/>
<use data-text="x" xlink:href="#font_5_4" transform="matrix(9.963397,0,0,-9.963397,147.03748,139.80146)"/>
<use data-text="6" xlink:href="#font_4_6" transform="matrix(6.974358,0,0,-6.974358,152.73194,141.29657)"/>
</svg>
