<svg xmlns="http://www.w3.org/2000/svg" xmlns:xlink="http://www.w3.org/1999/xlink" version="1.1" width="127pt" height="74pt" viewBox="0 0 127 74">
<defs>
<clipPath id="clip_1">
<path transform="matrix(.9000539,0,0,-.9000449,1.8972702,76.954799)" d="M0 0H144V90H0Z"/>
</clipPath>
<clipPath id="clip_2">
<path transform="matrix(.9000539,0,0,-.9000449,1.8972702,76.954799)" d="M0 90H144V0H0Z"/>
</clipPath>
<clipPath id="clip_3">
<path transform="matrix(.9000539,0,0,-.9000449,1.8972702,76.954799)" d="M0 90H144V0H0Z"/>
</clipPath>
<path id="font_4_1" d="M.2939911 .64004519C.2939911 .66400149 .2939911 .6660156 .2709961 .6660156 .20899964 .60227969 .12098694 .60227969 .08898926 .60227969V.57128909C.10899353 .57128909 .16799927 .57128909 .21998596 .5972748V.07902527C.21998596 .042999269 .21699524 .0309906 .1269989 .0309906H.09498596V0C.12998963 .0029907227 .21699524 .0029907227 .25698854 .0029907227 .29699708 .0029907227 .38398744 .0029907227 .4189911 0V.0309906H.3869934C.29699708 .0309906 .2939911 .041992189 .2939911 .07902527V.64004519Z"/>
<path id="font_4_2" d="M.1269989 .07699585 .23298645 .18003845C.3889923 .31811524 .44898988 .3721466 .44898988 .47216798 .44898988 .5860901 .35899354 .6660156 .23699951 .6660156 .12399292 .6660156 .049987794 .57411196 .049987794 .48516847 .049987794 .4291687 .099990848 .4291687 .102996829 .4291687 .11999512 .4291687 .15499878 .44117738 .15499878 .48217774 .15499878 .5081787 .13699341 .5341797 .101989749 .5341797 .09399414 .5341797 .09199524 .5341797 .08898926 .5331726 .11199951 .59806826 .1659851 .63500979 .22399903 .63500979 .31498719 .63500979 .35798646 .5541382 .35798646 .47216798 .35798646 .39215089 .30799867 .31311036 .25299073 .25108338L.06098938 .036987306C.049987794 .025985718 .049987794 .023986817 .049987794 0H.42099L.44898988 .17404175H.42399598C.4189911 .14402771 .4119873 .1000061 .4019928 .084991458 .394989 .07699585 .32899476 .07699585 .30699159 .07699585H.1269989Z"/>
<path id="font_4_3" d="M.2899933 .35191346C.37199403 .37893678 .42999269 .4490509 .42999269 .52809146 .42999269 .6100464 .34199525 .6660156 .24598694 .6660156 .14498902 .6660156 .068984989 .60606387 .068984989 .53009036 .068984989 .49710084 .09098816 .47808839 .11999512 .47808839 .15098572 .47808839 .17098999 .50009158 .17098999 .5290985 .17098999 .57910159 .12399292 .57910159 .10899353 .57910159 .13999939 .62802127 .20599365 .64100649 .24198914 .64100649 .2829895 .64100649 .33799745 .6190338 .33799745 .5290985 .33799745 .51708987 .33599855 .45906068 .30999757 .4149933 .27999879 .36691285 .24598694 .36390687 .22099304 .36291505 .21299744 .36190797 .18899536 .35990907 .18199158 .35990907 .17399597 .35890199 .16699219 .35791017 .16699219 .3479004 .16699219 .33691407 .17399597 .33691407 .19099427 .33691407H.23498535C.31698609 .33691407 .35398866 .2686615 .35398866 .17037964 .35398866 .034469606 .2849884 .0055389406 .24099732 .0055389406 .19799805 .0055389406 .12298584 .022491456 .08799744 .08137512 .12298584 .07637024 .1539917 .09837341 .1539917 .1363678 .1539917 .17237854 .1269989 .19238281 .09799194 .19238281 .07398987 .19238281 .041992189 .17837525 .041992189 .1343689 .041992189 .043441774 .1349945-.022460938 .24398804-.022460938 .3659973-.022460938 .45700074 .06838989 .45700074 .17037964 .45700074 .252594 .3939972 .33088685 .2899933 .35191346Z"/>
<path id="font_4_4" d="M.2939911 .16503906V.07800293C.2939911 .041992189 .2919922 .0309906 .21798706 .0309906H.19699097V0C.23799134 .0029907227 .2899933 .0029907227 .33198548 .0029907227 .37399293 .0029907227 .4269867 .0029907227 .46798707 0V.0309906H.44699098C.37298585 .0309906 .37098695 .041992189 .37098695 .07800293V.16503906H.47099305V.19602967H.37098695V.65075686C.37098695 .67074587 .37098695 .6767578 .35499574 .6767578 .34599305 .6767578 .34298707 .6767578 .33499146 .66474917L.027999878 .19602967V.16503906H.2939911M.2999878 .19602967H.055999757L.2999878 .5688019V.19602967Z"/>
<path id="font_4_5" d="M.44898988 .20022583C.44898988 .3193512 .36698915 .41944886 .25898744 .41944886 .21099854 .41944886 .16799927 .40345765 .13198853 .36842347V.5637665C.1519928 .5577698 .18499756 .55078127 .21699524 .55078127 .33999635 .55078127 .4099884 .6417694 .4099884 .6547699 .4099884 .6607666 .40699769 .6657715 .3999939 .6657715 .39898683 .6657715 .39698792 .6657715 .3919983 .66278079 .37199403 .6537781 .32299806 .6337738 .2559967 .6337738 .21598816 .6337738 .16999817 .6407776 .12298584 .6617737 .114990238 .66477969 .11299133 .66477969 .11099243 .66477969 .100997928 .66477969 .100997928 .6567688 .100997928 .6407776V.34439088C.100997928 .32637025 .100997928 .31835938 .114990238 .31835938 .12199402 .31835938 .12399292 .32136537 .12799073 .32736207 .13899231 .3433838 .17599488 .39746095 .25698854 .39746095 .30899049 .39746095 .33399964 .35139466 .34199525 .33337403 .35798646 .29632569 .3600006 .25727845 .3600006 .20722962 .3600006 .17222595 .3600006 .11222839 .33599855 .07035828 .31199647 .031463624 .2749939 .0055389406 .22898865 .0055389406 .1559906 .0055389406 .09899902 .058380128 .08198547 .11723328 .084991458 .1162262 .08799744 .115234378 .09899902 .115234378 .13198853 .115234378 .14898682 .14022827 .14898682 .16423035 .14898682 .18823242 .13198853 .21322632 .09899902 .21322632 .084991458 .21322632 .049987794 .20622254 .049987794 .16023255 .049987794 .07434082 .11898804-.022460938 .23098755-.022460938 .34700013-.022460938 .44898988 .073349 .44898988 .20022583Z"/>
</defs>
<g clip-path="url(#clip_1)">
<g id="layer_1" data-name="Edges">
<g id="layer_2" data-name="Vertices">
<path transform="matrix(.9000539,0,0,-.9000449,1.8972702,76.954799)" d="M77.354 76.383H13.163994V12.192001H77.354Z" fill="#ffffff"/>
<path transform="matrix(.9000539,0,0,-.9000449,1.8972702,76.954799)" stroke-width="2" stroke-linecap="butt" stroke-miterlimit="4" stroke-linejoin="miter" fill="none" stroke="#231f20" d="M77.354 76.383H13.163994V12.192001H77.354Z"/>
<path transform="matrix(.9000539,0,0,-.9000449,116.23661,53.695116)" stroke-width="2" stroke-linecap="butt" stroke-miterlimit="4" stroke-linejoin="miter" fill="none" stroke="#231f20" d="M0 0 5.713 22.063"/>
<g clip-path="url(#clip_2)">
<path transform="matrix(.9000539,0,0,-.9000449,122.74004,28.57954)" d="M0 0C.309-3.012 1.166-6.874 2.461-9.465L-1.711-6.608-6.745-7.081C-4.355-5.444-1.731-2.484 0 0" fill="#231f20"/>
</g>
<path transform="matrix(.9000539,0,0,-.9000449,116.23661,53.695116)" stroke-width="2" stroke-linecap="butt" stroke-miterlimit="4" stroke-linejoin="miter" fill="none" stroke="#231f20" d="M0 0 9.284 36.348"/>
<path transform="matrix(.9000539,0,0,-.9000449,116.02132,53.124666)" stroke-width="2" stroke-linecap="butt" stroke-miterlimit="4" stroke-linejoin="miter" fill="none" stroke="#231f20" d="M0 0-8.631 35.714"/>
<g clip-path="url(#clip_3)">
<path transform="matrix(.9000539,0,0,-.9000449,124.59289,20.980195)" stroke-width="2" stroke-linecap="butt" stroke-miterlimit="4" stroke-linejoin="miter" fill="none" stroke="#231f20" d="M0 0C0 4.771-4.126 8.631-9.226 8.631"/>
<path transform="matrix(.9000539,0,0,-.9000449,108.253047,20.980195)" stroke-width="2" stroke-linecap="butt" stroke-miterlimit="4" stroke-linejoin="miter" fill="none" stroke="#231f20" d="M0 0C0 4.771 3.993 8.631 8.929 8.631"/>
<path transform="matrix(.9000539,0,0,-.9000449,121.85232,53.694215)" d="M0 0C0 3.404-2.793 6.164-6.238 6.164-9.686 6.164-12.479 3.404-12.479 0-12.479-3.403-9.686-6.165-6.238-6.165-2.793-6.165 0-3.403 0 0" fill="#f9cd83"/>
<path transform="matrix(.9000539,0,0,-.9000449,121.85232,53.694215)" stroke-width="2" stroke-linecap="butt" stroke-miterlimit="4" stroke-linejoin="miter" fill="none" stroke="#231f20" d="M0 0C0 3.404-2.793 6.164-6.238 6.164-9.686 6.164-12.479 3.404-12.479 0-12.479-3.403-9.686-6.165-6.238-6.165-2.793-6.165 0-3.403 0 0Z"/>
<path transform="matrix(.9000539,0,0,-.9000449,13.41643,65.77453)" stroke-width="2" stroke-linecap="butt" stroke-miterlimit="4" stroke-linejoin="miter" fill="none" stroke="#231f20" d="M0 0 33.104-.152"/>
<path transform="matrix(.9000539,0,0,-.9000449,48.64382,65.936267)" d="M0 0C-2.844-1.041-6.375-2.822-8.568-4.717L-6.826 .031-8.524 4.793C-6.349 2.881-2.834 1.064 0 0" fill="#231f20"/>
<path transform="matrix(.9000539,0,0,-.9000449,71.51959,65.98199)" stroke-width="2" stroke-linecap="butt" stroke-miterlimit="4" stroke-linejoin="miter" fill="none" stroke="#231f20" d="M0 0 .096 30.953"/>
<path transform="matrix(.9000539,0,0,-.9000449,71.62337,32.691308)" d="M0 0C1.045-2.842 2.832-6.371 4.729-8.56L-.021-6.826-4.782-8.531C-2.871-6.353-1.063-2.836 0 0" fill="#231f20"/>
<path transform="matrix(.9000539,0,0,-.9000449,71.51959,8.206848)" stroke-width="2" stroke-linecap="butt" stroke-miterlimit="4" stroke-linejoin="miter" fill="none" stroke="#231f20" d="M0 0-31.154 .392"/>
<path transform="matrix(.9000539,0,0,-.9000449,38.047937,7.7853548)" d="M0 0C2.852 1.018 6.397 2.771 8.605 4.647L6.826-.086 8.485-4.862C6.326-2.932 2.825-1.089 0 0" fill="#231f20"/>
<path transform="matrix(.9000539,0,0,-.9000449,13.74522,8.206848)" stroke-width="2" stroke-linecap="butt" stroke-miterlimit="4" stroke-linejoin="miter" fill="none" stroke="#231f20" d="M0 0-.297-33.238"/>
<path transform="matrix(.9000539,0,0,-.9000449,13.429661,43.55467)" d="M0 0C-1.028 2.848-2.795 6.387-4.679 8.587L.061 6.826 4.831 8.502C2.908 6.336 1.078 2.828 0 0" fill="#231f20"/>
<path transform="matrix(.9000539,0,0,-.9000449,19.802943,8.265259)" d="M0 0C0 3.404-2.793 6.164-6.238 6.164-9.686 6.164-12.479 3.404-12.479 0-12.479-3.402-9.686-6.164-6.238-6.164-2.793-6.164 0-3.402 0 0" fill="#f9cd83"/>
<path transform="matrix(.9000539,0,0,-.9000449,19.802943,8.265259)" stroke-width="2" stroke-linecap="butt" stroke-miterlimit="4" stroke-linejoin="miter" fill="none" stroke="#231f20" d="M0 0C0 3.404-2.793 6.164-6.238 6.164-9.686 6.164-12.479 3.404-12.479 0-12.479-3.402-9.686-6.164-6.238-6.164-2.793-6.164 0-3.402 0 0Z"/>
<path transform="matrix(.9000539,0,0,-.9000449,77.07463,8.873955)" d="M0 0C0 3.404-2.793 6.164-6.238 6.164-9.686 6.164-12.479 3.404-12.479 0-12.479-3.402-9.686-6.164-6.238-6.164-2.793-6.164 0-3.402 0 0" fill="#f9cd83"/>
<path transform="matrix(.9000539,0,0,-.9000449,77.07463,8.873955)" stroke-width="2" stroke-linecap="butt" stroke-miterlimit="4" stroke-linejoin="miter" fill="none" stroke="#231f20" d="M0 0C0 3.404-2.793 6.164-6.238 6.164-9.686 6.164-12.479 3.404-12.479 0-12.479-3.402-9.686-6.164-6.238-6.164-2.793-6.164 0-3.402 0 0Z"/>
<path transform="matrix(.9000539,0,0,-.9000449,76.730098,66.315998)" d="M0 0C0 3.404-2.793 6.164-6.238 6.164-9.686 6.164-12.478 3.404-12.478 0-12.478-3.404-9.686-6.166-6.238-6.166-2.793-6.166 0-3.404 0 0" fill="#f9cd83"/>
<path transform="matrix(.9000539,0,0,-.9000449,76.730098,66.315998)" stroke-width="2" stroke-linecap="butt" stroke-miterlimit="4" stroke-linejoin="miter" fill="none" stroke="#231f20" d="M0 0C0 3.404-2.793 6.164-6.238 6.164-9.686 6.164-12.478 3.404-12.478 0-12.478-3.404-9.686-6.166-6.238-6.166-2.793-6.166 0-3.404 0 0Z"/>
<path transform="matrix(.9000539,0,0,-.9000449,18.764012,66.112049)" d="M0 0C0 3.404-2.793 6.164-6.238 6.164-9.686 6.164-12.479 3.404-12.479 0-12.479-3.402-9.686-6.164-6.238-6.164-2.793-6.164 0-3.402 0 0" fill="#f9cd83"/>
<path transform="matrix(.9000539,0,0,-.9000449,18.764012,66.112049)" stroke-width="2" stroke-linecap="butt" stroke-miterlimit="4" stroke-linejoin="miter" fill="none" stroke="#231f20" d="M0 0C0 3.404-2.793 6.164-6.238 6.164-9.686 6.164-12.479 3.404-12.479 0-12.479-3.402-9.686-6.164-6.238-6.164-2.793-6.164 0-3.402 0 0Z"/>
</g>
</g>
</g>
<use data-text="1" xlink:href="#font_4_1" transform="matrix(9.963197,0,0,-9.963098,1.8969803,12.152058)"/>
<use data-text="2" xlink:href="#font_4_2" transform="matrix(9.963197,0,0,-9.963098,.60089877,70.47497)"/>
<use data-text="3" xlink:href="#font_4_3" transform="matrix(9.963197,0,0,-9.963098,114.65374,69.1789)"/>
<use data-text="4" xlink:href="#font_4_4" transform="matrix(9.963197,0,0,-9.963098,79.66064,70.47497)"/>
<use data-text="5" xlink:href="#font_4_5" transform="matrix(9.963197,0,0,-9.963098,79.66064,12.152056)"/>
</g>
</svg>
