<svg xmlns="http://www.w3.org/2000/svg" xmlns:xlink="http://www.w3.org/1999/xlink" version="1.1" width="233pt" height="63pt" viewBox="0 0 233 63">
<defs>
<clipPath id="clip_1">
<path transform="matrix(.47046,0,0,-.47050236,-3.1032754,64.99619)" d="M0 0H504V144H0Z"/>
</clipPath>
<clipPath id="clip_2">
<path transform="matrix(.47046,0,0,-.47050236,-3.1032754,64.99619)" d="M0 144H504V0H0Z"/>
</clipPath>
<path id="font_3_1" d="M.4850006 .42070008 .72499087 .62054446C.746994 .63853457 .78900149 .63853457 .81900027 .63853457H.83599856V.6855469C.79599 .6825409 .7389984 .6825409 .73399356 .6825409 .69599917 .6825409 .6239929 .6825409 .58799746 .6855469V.63853457C.6009979 .63853457 .62098696 .63853457 .6459961 .6335449 .6619873 .6295471 .6499939 .63053897 .6589966 .6275482L.2889862 .31878663V.63853457H.39698792V.6855469C.35899354 .6825409 .26098634 .6825409 .21798706 .6825409 .1749878 .6825409 .07699585 .6825409 .038986207 .6855469V.63853457H.14698792V.04699707H.038986207V0C.07699585 .0029907227 .1749878 .0029907227 .21798706 .0029907227 .26098634 .0029907227 .35899354 .0029907227 .39698792 0V.04699707H.2889862V.25683595L.3889923 .33976747 .59498599 .06896973C.59999087 .06297302 .59999087 .06097412 .6029968 .054992677 .58499148 .04699707 .5649872 .04699707 .5299988 .04699707V0C.57099917 .0029907227 .6609955 .0029907227 .70599368 .0029907227 .74598696 .0029907227 .8149872 .0029907227 .85198977 0V.04699707H.82299807C.769989 .04699707 .7669983 .050994874 .7549896 .066970828L.4850006 .42070008Z"/>
<path id="font_4_1" d="M.33499146 .63612368C.33499146 .6630554 .33299256 .6640625 .30499269 .6640625 .24099732 .6014404 .1499939 .6004486 .10899353 .6004486V.5644531C.1329956 .5644531 .19898987 .5644531 .2539978 .592453V.08203125C.2539978 .04899597 .2539978 .035995485 .1539917 .035995485H.115997318V0C.13398743 .0009918213 .25698854 .0039978029 .2939911 .0039978029 .32499696 .0039978029 .45098878 .0009918213 .47299195 0V.035995485H.43499757C.33499146 .035995485 .33499146 .04899597 .33499146 .08203125V.63612368Z"/>
<path id="font_4_2" d="M.5049896 .18203736H.47099305C.46798707 .16001892 .45799256 .100997928 .44499208 .09098816 .43699647 .084991458 .3600006 .084991458 .34599305 .084991458H.1619873C.2669983 .17803955 .3019867 .20603943 .3619995 .25306703 .43598939 .312088 .5049896 .374115 .5049896 .46914674 .5049896 .5900879 .39898683 .6640625 .2709961 .6640625 .14698792 .6640625 .06298828 .57710269 .06298828 .4851532 .06298828 .43414308 .10598755 .42915345 .115997318 .42915345 .13999939 .42915345 .16899109 .44615174 .16899109 .48214723 .16899109 .5001526 .1619873 .53515627 .10998535 .53515627 .14099121 .6060791 .20899964 .62805178 .2559967 .62805178 .35598756 .62805178 .4079895 .5501404 .4079895 .46914674 .4079895 .38212586 .34599305 .3130951 .31399537 .27708436L.07299805 .038986207C.06298828 .02999878 .06298828 .027999878 .06298828 0H.47499085L.5049896 .18203736Z"/>
<path id="font_4_3" d="M.272995 .33428956C.35099793 .33428956 .40699769 .2803192 .40699769 .1733551 .40699769 .04940796 .33499146 .012466431 .2769928 .012466431 .23699951 .012466431 .14898682 .0234375 .10699463 .082351688 .1539917 .084350589 .16499329 .11735535 .16499329 .13835144 .16499329 .17034912 .14099121 .19335938 .10998535 .19335938 .08198547 .19335938 .053985597 .17634583 .053985597 .13534546 .053985597 .041412355 .1579895-.01953125 .2789917-.01953125 .41799928-.01953125 .5139923 .07336426 .5139923 .1733551 .5139923 .2513275 .44999696 .32929994 .33999635 .35229493 .44499208 .39024354 .48298646 .4650879 .48298646 .5260773 .48298646 .60505679 .3919983 .6640625 .2809906 .6640625 .16999817 .6640625 .084991458 .61006167 .084991458 .5300751 .084991458 .49606324 .10699463 .47706605 .13699341 .47706605 .16799927 .47706605 .18798828 .5000763 .18798828 .5280762 .18798828 .5570679 .16799927 .57806399 .13699341 .5800781 .17199707 .62405398 .24099732 .63505557 .27799989 .63505557 .32299806 .63505557 .38598634 .6130676 .38598634 .5260773 .38598634 .48406983 .37199403 .43814088 .34599305 .4072113 .31298829 .36927796 .2849884 .3672943 .23498535 .36428834 .20999146 .3623047 .20799256 .3623047 .20298767 .3612976 .20098877 .3612976 .19299317 .3592987 .19299317 .34829713 .19299317 .33428956 .20199585 .33428956 .21899414 .33428956H.272995Z"/>
<path id="font_4_4" d="M.5289917 .1640625V.20005799H.41799928V.64582827C.41799928 .66682437 .41799928 .6738281 .3959961 .6738281 .38398744 .6738281 .37998963 .6738281 .36999513 .65982058L.038986207 .20005799V.1640625H.33299256V.08201599C.33299256 .04800415 .33299256 .035995485 .2519989 .035995485H.22499085V0C.2749939 .0019989014 .33898927 .0039978029 .375 .0039978029 .4119873 .0039978029 .47599793 .0019989014 .526001 0V.035995485H.49899293C.41799928 .035995485 .41799928 .04800415 .41799928 .08201599V.1640625H.5289917M.33999635 .5658722V.20005799H.07598877L.33999635 .5658722Z"/>
<path id="font_4_5" d="M.15499878 .5588074C.20599365 .5458069 .23599243 .5458069 .2519989 .5458069 .38398744 .5458069 .46199037 .6358032 .46199037 .6508026 .46199037 .6618042 .45498658 .6648102 .44999696 .6648102 .44799806 .6648102 .44599916 .6648102 .44198609 .6618042 .41799928 .6528015 .36499024 .6328125 .29100038 .6328125 .2630005 .6328125 .20999146 .6348114 .14498902 .6598053 .1349945 .6648102 .1329956 .6648102 .13198853 .6648102 .11898804 .6648102 .11898804 .6538086 .11898804 .6378021V.34251405C.11898804 .32548524 .11898804 .3134613 .1349945 .3134613 .14399719 .3134613 .14498902 .3154602 .15499878 .32748414 .19799805 .38259889 .25898744 .390625 .2939911 .390625 .35398866 .390625 .3809967 .34251405 .38598634 .33450318 .4039917 .30143739 .4099884 .26335145 .4099884 .20524597 .4099884 .17524719 .4099884 .116256717 .37998963 .07234192 .35499574 .03640747 .31199647 .012466431 .2630005 .012466431 .19799805 .012466431 .1309967 .04838562 .10598755 .11425781 .14399719 .11125183 .16299439 .13624573 .16299439 .16325379 .16299439 .20625305 .12599182 .21424866 .11299133 .21424866 .11099243 .21424866 .06298828 .21424866 .06298828 .1602478 .06298828 .07034302 .14498902-.01953125 .2649994-.01953125 .3929901-.01953125 .5049896 .07533264 .5049896 .20124817 .5049896 .31445313 .4189911 .41862489 .29499818 .41862489 .25099183 .41862489 .19898987 .4076233 .15499878 .36956788V.5588074Z"/>
</defs>
<g clip-path="url(#clip_1)">
<g id="layer_1" data-name="Layer 1">
<g clip-path="url(#clip_2)">
<path transform="matrix(.47046,0,0,-.47050236,9.661621,29.23872)" d="M0 0C0 3.978-3.492 7.201-7.799 7.201-12.107 7.201-15.6 3.978-15.6 0-15.6-3.976-12.107-7.2-7.799-7.2-3.492-7.2 0-3.976 0 0" fill="#f9cd83"/>
<path transform="matrix(.47046,0,0,-.47050236,9.661621,29.23872)" stroke-width="4" stroke-linecap="butt" stroke-miterlimit="4" stroke-linejoin="miter" fill="none" stroke="#231f20" d="M0 0C0 3.978-3.492 7.201-7.799 7.201-12.107 7.201-15.6 3.978-15.6 0-15.6-3.976-12.107-7.2-7.799-7.2-3.492-7.2 0-3.976 0 0Z"/>
<path transform="matrix(.47046,0,0,-.47050236,39.394788,16.53445)" stroke-width="4" stroke-linecap="butt" stroke-miterlimit="4" stroke-linejoin="miter" fill="none" stroke="#231f20" d="M0 0V-55.334"/>
<path transform="matrix(.47046,0,0,-.47050236,43.377607,16.911229)" d="M0 0C0 3.978-3.492 7.201-7.799 7.201-12.107 7.201-15.6 3.978-15.6 0-15.6-3.976-12.107-7.199-7.799-7.199-3.492-7.199 0-3.976 0 0" fill="#f9cd83"/>
<path transform="matrix(.47046,0,0,-.47050236,43.377607,16.911229)" stroke-width="4" stroke-linecap="butt" stroke-miterlimit="4" stroke-linejoin="miter" fill="none" stroke="#231f20" d="M0 0C0 3.978-3.492 7.201-7.799 7.201-12.107 7.201-15.6 3.978-15.6 0-15.6-3.976-12.107-7.199-7.799-7.199-3.492-7.199 0-3.976 0 0Z"/>
<path transform="matrix(.47046,0,0,-.47050236,42.750955,42.505807)" d="M0 0C0 3.977-3.492 7.199-7.799 7.199-12.107 7.199-15.6 3.977-15.6 0-15.6-3.977-12.107-7.199-7.799-7.199-3.492-7.199 0-3.977 0 0" fill="#f9cd83"/>
<path transform="matrix(.47046,0,0,-.47050236,42.750955,42.505807)" stroke-width="4" stroke-linecap="butt" stroke-miterlimit="4" stroke-linejoin="miter" fill="none" stroke="#231f20" d="M0 0C0 3.977-3.492 7.199-7.799 7.199-12.107 7.199-15.6 3.977-15.6 0-15.6-3.977-12.107-7.199-7.799-7.199-3.492-7.199 0-3.977 0 0Z"/>
<path transform="matrix(.47046,0,0,-.47050236,65.91283,47.838949)" stroke-width="3" stroke-linecap="butt" stroke-miterlimit="4" stroke-linejoin="miter" fill="none" stroke="#231f20" d="M0 0 43.301 75 86.603 0H0Z"/>
<path transform="matrix(.47046,0,0,-.47050236,69.88049,47.431398)" d="M0 0C0 3.977-3.492 7.201-7.799 7.201-12.107 7.201-15.6 3.977-15.6 0-15.6-3.977-12.107-7.199-7.799-7.199-3.492-7.199 0-3.977 0 0" fill="#f9cd83"/>
<path transform="matrix(.47046,0,0,-.47050236,69.88049,47.431398)" stroke-width="4" stroke-linecap="butt" stroke-miterlimit="4" stroke-linejoin="miter" fill="none" stroke="#231f20" d="M0 0C0 3.977-3.492 7.201-7.799 7.201-12.107 7.201-15.6 3.977-15.6 0-15.6-3.977-12.107-7.199-7.799-7.199-3.492-7.199 0-3.977 0 0Z"/>
<path transform="matrix(.47046,0,0,-.47050236,109.71271,47.744287)" d="M0 0C0 3.977-3.492 7.199-7.799 7.199-12.107 7.199-15.6 3.977-15.6 0-15.6-3.977-12.107-7.201-7.799-7.201-3.492-7.201 0-3.977 0 0" fill="#f9cd83"/>
<path transform="matrix(.47046,0,0,-.47050236,109.71271,47.744287)" stroke-width="4" stroke-linecap="butt" stroke-miterlimit="4" stroke-linejoin="miter" fill="none" stroke="#231f20" d="M0 0C0 3.977-3.492 7.199-7.799 7.199-12.107 7.199-15.6 3.977-15.6 0-15.6-3.977-12.107-7.201-7.799-7.201-3.492-7.201 0-3.977 0 0Z"/>
<path transform="matrix(.47046,0,0,-.47050236,90.11052,11.82943)" d="M0 0C0 3.977-3.492 7.2-7.799 7.2-12.107 7.2-15.6 3.977-15.6 0-15.6-3.976-12.107-7.2-7.799-7.2-3.492-7.2 0-3.976 0 0" fill="#f9cd83"/>
<path transform="matrix(.47046,0,0,-.47050236,90.11052,11.82943)" stroke-width="4" stroke-linecap="butt" stroke-miterlimit="4" stroke-linejoin="miter" fill="none" stroke="#231f20" d="M0 0C0 3.977-3.492 7.2-7.799 7.2-12.107 7.2-15.6 3.977-15.6 0-15.6-3.976-12.107-7.2-7.799-7.2-3.492-7.2 0-3.976 0 0Z"/>
<path transform="matrix(.47046,0,0,-.47050236,126.4193,14.642326)" stroke-width="3" stroke-linecap="butt" stroke-miterlimit="4" stroke-linejoin="miter" fill="none" stroke="#231f20" d="M0 0 68.689-72.021"/>
<path transform="matrix(.47046,0,0,-.47050236,159.686,14.642326)" stroke-width="3" stroke-linecap="butt" stroke-miterlimit="4" stroke-linejoin="miter" fill="none" stroke="#231f20" d="M0 0-69.689-70.021"/>
<path transform="matrix(.47046,0,0,-.47050236,-3.1032754,64.99619)" stroke-width="3" stroke-linecap="butt" stroke-miterlimit="4" stroke-linejoin="miter" fill="none" stroke="#231f20" d="M275.311 107.021H346.022V36.310007H275.311Z"/>
<path transform="matrix(.47046,0,0,-.47050236,130.25605,14.652443)" d="M0 0C0 3.977-3.492 7.2-7.799 7.2-12.107 7.2-15.6 3.977-15.6 0-15.6-3.976-12.107-7.2-7.799-7.2-3.492-7.2 0-3.976 0 0" fill="#f9cd83"/>
<path transform="matrix(.47046,0,0,-.47050236,130.25605,14.652443)" stroke-width="4" stroke-linecap="butt" stroke-miterlimit="4" stroke-linejoin="miter" fill="none" stroke="#231f20" d="M0 0C0 3.977-3.492 7.2-7.799 7.2-12.107 7.2-15.6 3.977-15.6 0-15.6-3.976-12.107-7.2-7.799-7.2-3.492-7.2 0-3.976 0 0Z"/>
<path transform="matrix(.47046,0,0,-.47050236,163.18872,14.652912)" d="M0 0C0 3.978-3.492 7.201-7.799 7.201-12.107 7.201-15.6 3.978-15.6 0-15.6-3.975-12.107-7.199-7.799-7.199-3.492-7.199 0-3.975 0 0" fill="#f9cd83"/>
<path transform="matrix(.47046,0,0,-.47050236,163.18872,14.652912)" stroke-width="4" stroke-linecap="butt" stroke-miterlimit="4" stroke-linejoin="miter" fill="none" stroke="#231f20" d="M0 0C0 3.978-3.492 7.201-7.799 7.201-12.107 7.201-15.6 3.978-15.6 0-15.6-3.975-12.107-7.199-7.799-7.199-3.492-7.199 0-3.975 0 0Z"/>
<path transform="matrix(.47046,0,0,-.47050236,130.56938,47.587137)" d="M0 0C0 3.977-3.492 7.199-7.799 7.199-12.107 7.199-15.6 3.977-15.6 0-15.6-3.977-12.107-7.201-7.799-7.201-3.492-7.201 0-3.977 0 0" fill="#f9cd83"/>
<path transform="matrix(.47046,0,0,-.47050236,130.56938,47.587137)" stroke-width="4" stroke-linecap="butt" stroke-miterlimit="4" stroke-linejoin="miter" fill="none" stroke="#231f20" d="M0 0C0 3.977-3.492 7.199-7.799 7.199-12.107 7.199-15.6 3.977-15.6 0-15.6-3.977-12.107-7.201-7.799-7.201-3.492-7.201 0-3.977 0 0Z"/>
<path transform="matrix(.47046,0,0,-.47050236,162.56113,47.90143)" d="M0 0C0 3.977-3.492 7.201-7.799 7.201-12.107 7.201-15.6 3.977-15.6 0-15.6-3.975-12.107-7.199-7.799-7.199-3.492-7.199 0-3.975 0 0" fill="#f9cd83"/>
<path transform="matrix(.47046,0,0,-.47050236,162.56113,47.90143)" stroke-width="4" stroke-linecap="butt" stroke-miterlimit="4" stroke-linejoin="miter" fill="none" stroke="#231f20" d="M0 0C0 3.977-3.492 7.201-7.799 7.201-12.107 7.201-15.6 3.977-15.6 0-15.6-3.975-12.107-7.199-7.799-7.199-3.492-7.199 0-3.975 0 0Z"/>
<path transform="matrix(.47046,0,0,-.47050236,190.43955,48.215257)" stroke-width="4" stroke-linecap="butt" stroke-miterlimit="4" stroke-linejoin="miter" fill="none" stroke="#231f20" d="M0 0 28.942 92"/>
<path transform="matrix(.47046,0,0,-.47050236,204.0558,4.9288065)" stroke-width="4" stroke-linecap="butt" stroke-miterlimit="4" stroke-linejoin="miter" fill="none" stroke="#231f20" d="M0 0 29.837-92"/>
<path transform="matrix(.47046,0,0,-.47050236,218.10617,47.902795)" stroke-width="4" stroke-linecap="butt" stroke-miterlimit="4" stroke-linejoin="miter" fill="none" stroke="#231f20" d="M0 0-76.971 55.239"/>
<path transform="matrix(.47046,0,0,-.47050236,181.89455,21.912858)" stroke-width="4" stroke-linecap="butt" stroke-miterlimit="4" stroke-linejoin="miter" fill="none" stroke="#231f20" d="M0 0H95.105"/>
<path transform="matrix(.47046,0,0,-.47050236,226.63788,21.912858)" stroke-width="4" stroke-linecap="butt" stroke-miterlimit="4" stroke-linejoin="miter" fill="none" stroke="#231f20" d="M0 0-76.942-55.903"/>
<path transform="matrix(.47046,0,0,-.47050236,190.43955,48.215257)" stroke-width="3" stroke-linecap="butt" stroke-miterlimit="4" stroke-linejoin="miter" fill="none" stroke="#231f20" d="M0 0-18.163 55.903 29.39 90.452 76.942 55.903 58.779 0H0Z"/>
<path transform="matrix(.47046,0,0,-.47050236,207.93573,5.6575205)" d="M0 0C0 3.977-3.492 7.2-7.799 7.2-12.107 7.2-15.6 3.977-15.6 0-15.6-3.976-12.107-7.2-7.799-7.2-3.492-7.2 0-3.976 0 0" fill="#f9cd83"/>
<path transform="matrix(.47046,0,0,-.47050236,207.93573,5.6575205)" stroke-width="4" stroke-linecap="butt" stroke-miterlimit="4" stroke-linejoin="miter" fill="none" stroke="#231f20" d="M0 0C0 3.977-3.492 7.2-7.799 7.2-12.107 7.2-15.6 3.977-15.6 0-15.6-3.976-12.107-7.2-7.799-7.2-3.492-7.2 0-3.976 0 0Z"/>
<path transform="matrix(.47046,0,0,-.47050236,185.56404,21.912388)" d="M0 0C0 3.977-3.492 7.199-7.799 7.199-12.107 7.199-15.6 3.977-15.6 0-15.6-3.977-12.107-7.201-7.799-7.201-3.492-7.201 0-3.977 0 0" fill="#f9cd83"/>
<path transform="matrix(.47046,0,0,-.47050236,185.56404,21.912388)" stroke-width="4" stroke-linecap="butt" stroke-miterlimit="4" stroke-linejoin="miter" fill="none" stroke="#231f20" d="M0 0C0 3.977-3.492 7.199-7.799 7.199-12.107 7.199-15.6 3.977-15.6 0-15.6-3.977-12.107-7.201-7.799-7.201-3.492-7.201 0-3.977 0 0Z"/>
<path transform="matrix(.47046,0,0,-.47050236,194.55194,48.27774)" d="M0 0C0 3.977-3.492 7.199-7.799 7.199-12.107 7.199-15.6 3.977-15.6 0-15.6-3.977-12.107-7.201-7.799-7.201-3.492-7.201 0-3.977 0 0" fill="#f9cd83"/>
<path transform="matrix(.47046,0,0,-.47050236,194.55194,48.27774)" stroke-width="4" stroke-linecap="butt" stroke-miterlimit="4" stroke-linejoin="miter" fill="none" stroke="#231f20" d="M0 0C0 3.977-3.492 7.199-7.799 7.199-12.107 7.199-15.6 3.977-15.6 0-15.6-3.977-12.107-7.201-7.799-7.201-3.492-7.201 0-3.977 0 0Z"/>
<path transform="matrix(.47046,0,0,-.47050236,230.6198,22.181187)" d="M0 0C0 3.977-3.492 7.199-7.799 7.199-12.107 7.199-15.6 3.977-15.6 0-15.6-3.977-12.107-7.201-7.799-7.201-3.492-7.201 0-3.977 0 0" fill="#f9cd83"/>
<path transform="matrix(.47046,0,0,-.47050236,230.6198,22.181187)" stroke-width="4" stroke-linecap="butt" stroke-miterlimit="4" stroke-linejoin="miter" fill="none" stroke="#231f20" d="M0 0C0 3.977-3.492 7.199-7.799 7.199-12.107 7.199-15.6 3.977-15.6 0-15.6-3.977-12.107-7.201-7.799-7.201-3.492-7.201 0-3.977 0 0Z"/>
<path transform="matrix(.47046,0,0,-.47050236,221.77567,47.9019)" d="M0 0C0 3.977-3.492 7.199-7.799 7.199-12.107 7.199-15.6 3.977-15.6 0-15.6-3.977-12.107-7.201-7.799-7.201-3.492-7.201 0-3.977 0 0" fill="#f9cd83"/>
<path transform="matrix(.47046,0,0,-.47050236,221.77567,47.9019)" stroke-width="4" stroke-linecap="butt" stroke-miterlimit="4" stroke-linejoin="miter" fill="none" stroke="#231f20" d="M0 0C0 3.977-3.492 7.199-7.799 7.199-12.107 7.199-15.6 3.977-15.6 0-15.6-3.977-12.107-7.201-7.799-7.201-3.492-7.201 0-3.977 0 0Z"/>
</g>
</g>
</g>
<use data-text="K" xlink:href="#font_3_1" transform="matrix(9.9626,0,0,-9.963496,2.8239976,60.254255)"/>
<use data-text="1" xlink:href="#font_4_1" transform="matrix(6.9738,0,0,-6.9744279,11.805,61.748388)"/>
<use data-text="K" xlink:href="#font_3_1" transform="matrix(9.9626,0,0,-9.963496,36.020006,60.254255)"/>
<use data-text="2" xlink:href="#font_4_2" transform="matrix(6.9738,0,0,-6.9744279,45,61.748388)"/>
<use data-text="K" xlink:href="#font_3_1" transform="matrix(9.9626,0,0,-9.963496,83.442,60.254255)"/>
<use data-text="3" xlink:href="#font_4_3" transform="matrix(6.9738,0,0,-6.9744279,92.422,61.748388)"/>
<use data-text="K" xlink:href="#font_3_1" transform="matrix(9.9626,0,0,-9.963496,140.34799,60.254255)"/>
<use data-text="4" xlink:href="#font_4_4" transform="matrix(6.9738,0,0,-6.9744279,149.32799,61.748388)"/>
<use data-text="K" xlink:href="#font_3_1" transform="matrix(9.9626,0,0,-9.963496,200.81098,60.254255)"/>
<use data-text="5" xlink:href="#font_4_5" transform="matrix(6.9738,0,0,-6.9744279,209.79099,61.748388)"/>
</svg>
