<svg xmlns="http://www.w3.org/2000/svg" xmlns:xlink="http://www.w3.org/1999/xlink" version="1.1" width="333pt" height="78pt" viewBox="0 0 333 78">
<defs>
<clipPath id="clip_1">
<path transform="matrix(.78413,0,0,-.7841927,-2.102974,80.28834)" d="M0 0H432V108H0Z"/>
</clipPath>
<clipPath id="clip_2">
<path transform="matrix(.78413,0,0,-.7841927,-2.102974,80.28834)" d="M0 108H432V0H0Z"/>
</clipPath>
<path id="font_3_1" d="M.7599945 .69506838C.7599945 .69807437 .7579956 .7050781 .7489929 .7050781 .74598696 .7050781 .7449951 .70407107 .73399356 .69306948L.6639862 .61602786C.6549988 .6300354 .60899356 .7050781 .49798585 .7050781 .2749939 .7050781 .049987794 .48391725 .049987794 .25172425 .049987794 .08659363 .16799927-.022460938 .32099916-.022460938 .4079895-.022460938 .48399354 .017532349 .5369873 .063583377 .6299896 .14564514 .6469879 .2367096 .6469879 .23971558 .6469879 .24972534 .6369934 .24972534 .6349945 .24972534 .6289978 .24972534 .6239929 .24772644 .621994 .23971558 .61299136 .21069336 .58999636 .13963318 .5209961 .081588748 .45199586 .025543213 .3889923 .008529663 .33699037 .008529663 .24699402 .008529663 .14099121 .060577394 .14099121 .21670532 .14099121 .27374269 .1619873 .43588258 .2619934 .55296328 .32299806 .62402346 .4169922 .67407229 .5059967 .67407229 .60798647 .67407229 .6669922 .5970001 .6669922 .48091126 .6669922 .44088746 .6639862 .43988038 .6639862 .4298706 .6639862 .41986085 .6749878 .41986085 .67900088 .41986085 .69200137 .41986085 .69200137 .42185975 .69699099 .43988038L.7599945 .69506838Z"/>
<path id="font_4_2" d="M.33499146 .63612368C.33499146 .6630554 .33299256 .6640625 .30499269 .6640625 .24099732 .6014404 .1499939 .6004486 .10899353 .6004486V.5644531C.1329956 .5644531 .19898987 .5644531 .2539978 .592453V.08203125C.2539978 .04899597 .2539978 .035995485 .1539917 .035995485H.115997318V0C.13398743 .0009918213 .25698854 .0039978029 .2939911 .0039978029 .32499696 .0039978029 .45098878 .0009918213 .47299195 0V.035995485H.43499757C.33499146 .035995485 .33499146 .04899597 .33499146 .08203125V.63612368Z"/>
<path id="font_4_3" d="M.5049896 .18203736H.47099305C.46798707 .16001892 .45799256 .100997928 .44499208 .09098816 .43699647 .084991458 .3600006 .084991458 .34599305 .084991458H.1619873C.2669983 .17803955 .3019867 .20603943 .3619995 .25306703 .43598939 .312088 .5049896 .374115 .5049896 .46914674 .5049896 .5900879 .39898683 .6640625 .2709961 .6640625 .14698792 .6640625 .06298828 .57710269 .06298828 .4851532 .06298828 .43414308 .10598755 .42915345 .115997318 .42915345 .13999939 .42915345 .16899109 .44615174 .16899109 .48214723 .16899109 .5001526 .1619873 .53515627 .10998535 .53515627 .14099121 .6060791 .20899964 .62805178 .2559967 .62805178 .35598756 .62805178 .4079895 .5501404 .4079895 .46914674 .4079895 .38212586 .34599305 .3130951 .31399537 .27708436L.07299805 .038986207C.06298828 .02999878 .06298828 .027999878 .06298828 0H.47499085L.5049896 .18203736Z"/>
<path id="font_4_4" d="M.272995 .33428956C.35099793 .33428956 .40699769 .2803192 .40699769 .1733551 .40699769 .04940796 .33499146 .012466431 .2769928 .012466431 .23699951 .012466431 .14898682 .0234375 .10699463 .082351688 .1539917 .084350589 .16499329 .11735535 .16499329 .13835144 .16499329 .17034912 .14099121 .19335938 .10998535 .19335938 .08198547 .19335938 .053985597 .17634583 .053985597 .13534546 .053985597 .041412355 .1579895-.01953125 .2789917-.01953125 .41799928-.01953125 .5139923 .07336426 .5139923 .1733551 .5139923 .2513275 .44999696 .32929994 .33999635 .35229493 .44499208 .39024354 .48298646 .4650879 .48298646 .5260773 .48298646 .60505679 .3919983 .6640625 .2809906 .6640625 .16999817 .6640625 .084991458 .61006167 .084991458 .5300751 .084991458 .49606324 .10699463 .47706605 .13699341 .47706605 .16799927 .47706605 .18798828 .5000763 .18798828 .5280762 .18798828 .5570679 .16799927 .57806399 .13699341 .5800781 .17199707 .62405398 .24099732 .63505557 .27799989 .63505557 .32299806 .63505557 .38598634 .6130676 .38598634 .5260773 .38598634 .48406983 .37199403 .43814088 .34599305 .4072113 .31298829 .36927796 .2849884 .3672943 .23498535 .36428834 .20999146 .3623047 .20799256 .3623047 .20298767 .3612976 .20098877 .3612976 .19299317 .3592987 .19299317 .34829713 .19299317 .33428956 .20199585 .33428956 .21899414 .33428956H.272995Z"/>
<path id="font_4_5" d="M.5289917 .1640625V.20005799H.41799928V.64582827C.41799928 .66682437 .41799928 .6738281 .3959961 .6738281 .38398744 .6738281 .37998963 .6738281 .36999513 .65982058L.038986207 .20005799V.1640625H.33299256V.08201599C.33299256 .04800415 .33299256 .035995485 .2519989 .035995485H.22499085V0C.2749939 .0019989014 .33898927 .0039978029 .375 .0039978029 .4119873 .0039978029 .47599793 .0019989014 .526001 0V.035995485H.49899293C.41799928 .035995485 .41799928 .04800415 .41799928 .08201599V.1640625H.5289917M.33999635 .5658722V.20005799H.07598877L.33999635 .5658722Z"/>
<path id="font_4_6" d="M.15499878 .5588074C.20599365 .5458069 .23599243 .5458069 .2519989 .5458069 .38398744 .5458069 .46199037 .6358032 .46199037 .6508026 .46199037 .6618042 .45498658 .6648102 .44999696 .6648102 .44799806 .6648102 .44599916 .6648102 .44198609 .6618042 .41799928 .6528015 .36499024 .6328125 .29100038 .6328125 .2630005 .6328125 .20999146 .6348114 .14498902 .6598053 .1349945 .6648102 .1329956 .6648102 .13198853 .6648102 .11898804 .6648102 .11898804 .6538086 .11898804 .6378021V.34251405C.11898804 .32548524 .11898804 .3134613 .1349945 .3134613 .14399719 .3134613 .14498902 .3154602 .15499878 .32748414 .19799805 .38259889 .25898744 .390625 .2939911 .390625 .35398866 .390625 .3809967 .34251405 .38598634 .33450318 .4039917 .30143739 .4099884 .26335145 .4099884 .20524597 .4099884 .17524719 .4099884 .116256717 .37998963 .07234192 .35499574 .03640747 .31199647 .012466431 .2630005 .012466431 .19799805 .012466431 .1309967 .04838562 .10598755 .11425781 .14399719 .11125183 .16299439 .13624573 .16299439 .16325379 .16299439 .20625305 .12599182 .21424866 .11299133 .21424866 .11099243 .21424866 .06298828 .21424866 .06298828 .1602478 .06298828 .07034302 .14498902-.01953125 .2649994-.01953125 .3929901-.01953125 .5049896 .07533264 .5049896 .20124817 .5049896 .31445313 .4189911 .41862489 .29499818 .41862489 .25099183 .41862489 .19898987 .4076233 .15499878 .36956788V.5588074Z"/>
<path id="font_4_7" d="M.1499939 .3274536C.1499939 .40945436 .15699768 .48303224 .19499207 .543869 .22898865 .5978699 .2829895 .63505557 .34700013 .63505557 .3769989 .63505557 .4169922 .62701418 .43699647 .5998688 .4119873 .5978699 .3909912 .5808716 .3909912 .5518799 .3909912 .5268707 .4079895 .5048828 .43798829 .5048828 .46798707 .5048828 .48599244 .5248718 .48599244 .5538788 .48599244 .6119385 .44400025 .6640625 .34498597 .6640625 .20098877 .6640625 .053985597 .5318756 .053985597 .3174591 .053985597 .05845642 .17599488-.01953125 .28599549-.01953125 .4079895-.01953125 .5139923 .07345581 .5139923 .20445252 .5139923 .33145143 .41299439 .42546083 .29599 .42546083 .21598816 .42546083 .17199707 .37245179 .1499939 .3274536M.28599549 .012466431C.23599243 .012466431 .19699097 .04145813 .17599488 .08546448 .16099549 .11546326 .15299988 .16545105 .15299988 .22544861 .15299988 .32244874 .21099854 .39746095 .29100038 .39746095 .33699037 .39746095 .36799623 .37945558 .3929901 .342453 .4169922 .30445863 .41799928 .26245118 .41799928 .20445252 .41799928 .14746094 .41799928 .10545349 .3909912 .066467288 .36698915 .031463624 .33499146 .012466431 .28599549 .012466431Z"/>
<path id="font_4_8" d="M.5349884 .6045227C.54499819 .6165161 .54499819 .6185303 .54499819 .64453127H.2829895C.24299622 .64453127 .23199463 .6455078 .19599915 .6484375 .14399719 .65234377 .14199829 .6592407 .13899231 .676239H.10499573L.069992069 .46250917H.10398865C.10598755 .47750855 .115997318 .54351809 .13198853 .5535126 .13999939 .55952456 .22099304 .55952456 .23599243 .55952456H.45399476C.42199708 .5175171 .37098695 .45550538 .34999085 .4275055 .21899414 .25549317 .20698548 .096466068 .20698548 .037460329 .20698548 .02645874 .20698548-.01953125 .2539978-.01953125 .3019867-.01953125 .3019867 .025466919 .3019867 .038467409V.07847595C.3019867 .27249146 .34199525 .36149598 .3849945 .41551209L.5349884 .6045227Z"/>
<path id="font_4_9" d="M.35499574 .36123658C.43299867 .3992157 .48298646 .44618226 .48298646 .5151367 .48298646 .6120758 .38198854 .6640625 .2849884 .6640625 .1749878 .6640625 .084991458 .5920868 .084991458 .4971466 .084991458 .45018006 .10699463 .41619874 .125 .39620973 .14299011 .37522889 .1499939 .37123109 .20899964 .33624269 .15299988 .31227113 .053985597 .25830079 .053985597 .15336609 .053985597 .042434694 .16899109-.01953125 .2829895-.01953125 .4099884-.01953125 .5139923 .061431886 .5139923 .1693573 .5139923 .23532105 .47499085 .29127503 .4169922 .32525636 .4039917 .33325196 .36898805 .35324098 .35499574 .36123658M.19198609 .45617677C.1659851 .4711609 .13798523 .49813844 .13798523 .53512576 .13798523 .5980835 .21099854 .63505557 .2829895 .63505557 .36099244 .63505557 .42999269 .5860901 .42999269 .5151367 .42999269 .42619325 .32598878 .3812256 .32398988 .3812256 .32199098 .3812256 .31999208 .3822174 .31298829 .3862152L.19198609 .45617677M.24099732 .31726075 .37799073 .23831177C.4039917 .22332764 .45399476 .19334412 .45399476 .13438416 .45399476 .059432985 .37098695 .012466431 .2849884 .012466431 .19299317 .012466431 .11399841 .07142639 .11399841 .15336609 .11399841 .22732544 .16899109 .2842865 .24099732 .31726075Z"/>
<path id="font_4_10" d="M.41799928 .29803468C.41799928 .05064392 .29499818 .012466431 .23498535 .012466431 .21299744 .012466431 .1599884 .014465332 .1329956 .045639039 .17399597 .04963684 .1769867 .08363342 .1769867 .09263611 .1769867 .11764526 .1599884 .13964844 .12998963 .13964844 .099990848 .13964844 .08198547 .119644168 .08198547 .09063721 .08198547 .022521973 .13899231-.01953125 .23599243-.01953125 .3789978-.01953125 .5139923 .11564636 .5139923 .32904054 .5139923 .5770569 .4039917 .6640625 .2869873 .6640625 .2539978 .6640625 .18499756 .6590576 .12799073 .60305789 .09399414 .5700531 .053985597 .53105166 .053985597 .4410553 .053985597 .31404115 .15499878 .22003174 .27198792 .22003174 .35198976 .22003174 .394989 .27304078 .41799928 .31803895V.29803468M.2769928 .24804688C.23799134 .24804688 .20098877 .26104737 .17298889 .30703736 .1499939 .34403993 .1499939 .38604737 .1499939 .4410553 .1499939 .49905396 .1499939 .53904727 .1789856 .5790558 .20298767 .61405947 .23599243 .63505557 .28799439 .63505557 .33898927 .63505557 .36898805 .60305789 .3849945 .5770569 .4119873 .53504946 .4149933 .4650421 .4149933 .4300537 .4149933 .30004884 .33999635 .24804688 .2769928 .24804688Z"/>
<path id="font_4_1" d="M.5159912 .31925965C.5159912 .42918397 .5029907 .50813296 .45700074 .5780945 .42599488 .62405398 .3639984 .6640625 .28399659 .6640625 .051986696 .6640625 .051986696 .39120484 .051986696 .31925965 .051986696 .2472992 .051986696-.01953125 .28399659-.01953125 .5159912-.01953125 .5159912 .2472992 .5159912 .31925965M.28399659 .008468628C.23799134 .008468628 .1769867 .035446168 .15699768 .117385867 .14299011 .17634583 .14299011 .25830079 .14299011 .33224488 .14299011 .40519715 .14299011 .4811554 .1579895 .53611758 .1789856 .6150665 .24299622 .63604739 .28399659 .63604739 .33799745 .63604739 .3899994 .6030731 .4079895 .545105 .42399598 .4911499 .4249878 .41918946 .4249878 .33224488 .4249878 .25830079 .4249878 .18434143 .4119873 .12138367 .3919983 .030441285 .32398988 .008468628 .28399659 .008468628Z"/>
</defs>
<g clip-path="url(#clip_1)">
<g id="layer_1" data-name="Edges">
<g id="layer_2" data-name="Vertices">
<path transform="matrix(.78413,0,0,-.7841927,-2.102974,80.28834)" stroke-width="2" stroke-linecap="butt" stroke-miterlimit="4" stroke-linejoin="miter" fill="none" stroke="#231f20" d="M38.669 91H11.668999V64H38.669Z"/>
<g clip-path="url(#clip_2)">
<path transform="matrix(.78413,0,0,-.7841927,32.718828,28.923718)" d="M0 0C0 3.404-2.793 6.164-6.238 6.164-9.686 6.164-12.479 3.404-12.479 0-12.479-3.402-9.686-6.164-6.238-6.164-2.793-6.164 0-3.402 0 0" fill="#ffffff"/>
<path transform="matrix(.78413,0,0,-.7841927,32.718828,28.923718)" stroke-width="2" stroke-linecap="butt" stroke-miterlimit="4" stroke-linejoin="miter" fill="none" stroke="#231f20" d="M0 0C0 3.404-2.793 6.164-6.238 6.164-9.686 6.164-12.479 3.404-12.479 0-12.479-3.402-9.686-6.164-6.238-6.164-2.793-6.164 0-3.402 0 0Z"/>
<path transform="matrix(.78413,0,0,-.7841927,11.939382,28.923718)" d="M0 0C0 3.404-2.793 6.164-6.238 6.164-9.686 6.164-12.479 3.404-12.479 0-12.479-3.402-9.686-6.164-6.238-6.164-2.793-6.164 0-3.402 0 0" fill="#ffffff"/>
<path transform="matrix(.78413,0,0,-.7841927,11.939382,28.923718)" stroke-width="2" stroke-linecap="butt" stroke-miterlimit="4" stroke-linejoin="miter" fill="none" stroke="#231f20" d="M0 0C0 3.404-2.793 6.164-6.238 6.164-9.686 6.164-12.479 3.404-12.479 0-12.479-3.402-9.686-6.164-6.238-6.164-2.793-6.164 0-3.402 0 0Z"/>
<path transform="matrix(.78413,0,0,-.7841927,12.304239,9.182213)" d="M0 0C0 3.404-2.793 6.164-6.238 6.164-9.686 6.164-12.479 3.404-12.479 0-12.479-3.402-9.686-6.164-6.238-6.164-2.793-6.164 0-3.402 0 0" fill="#ffffff"/>
<path transform="matrix(.78413,0,0,-.7841927,12.304239,9.182213)" stroke-width="2" stroke-linecap="butt" stroke-miterlimit="4" stroke-linejoin="miter" fill="none" stroke="#231f20" d="M0 0C0 3.404-2.793 6.164-6.238 6.164-9.686 6.164-12.479 3.404-12.479 0-12.479-3.402-9.686-6.164-6.238-6.164-2.793-6.164 0-3.402 0 0Z"/>
<path transform="matrix(.78413,0,0,-.7841927,33.110895,8.926804)" d="M0 0C0 3.404-2.793 6.164-6.238 6.164-9.686 6.164-12.479 3.404-12.479 0-12.479-3.402-9.686-6.164-6.238-6.164-2.793-6.164 0-3.402 0 0" fill="#ffffff"/>
<path transform="matrix(.78413,0,0,-.7841927,33.110895,8.926804)" stroke-width="2" stroke-linecap="butt" stroke-miterlimit="4" stroke-linejoin="miter" fill="none" stroke="#231f20" d="M0 0C0 3.404-2.793 6.164-6.238 6.164-9.686 6.164-12.479 3.404-12.479 0-12.479-3.402-9.686-6.164-6.238-6.164-2.793-6.164 0-3.402 0 0Z"/>
<path transform="matrix(.78413,0,0,-.7841927,-2.102974,80.28834)" stroke-width="2" stroke-linecap="butt" stroke-miterlimit="4" stroke-linejoin="miter" fill="none" stroke="#231f20" d="M417.502 92.833H390.502V65.833H417.502Z"/>
<path transform="matrix(.78413,0,0,-.7841927,329.77317,27.485898)" d="M0 0C0 3.404-2.793 6.164-6.238 6.164-9.686 6.164-12.479 3.404-12.479 0-12.479-3.402-9.686-6.164-6.238-6.164-2.793-6.164 0-3.402 0 0" fill="#f9cd83"/>
<path transform="matrix(.78413,0,0,-.7841927,329.77317,27.485898)" stroke-width="2" stroke-linecap="butt" stroke-miterlimit="4" stroke-linejoin="miter" fill="none" stroke="#231f20" d="M0 0C0 3.404-2.793 6.164-6.238 6.164-9.686 6.164-12.479 3.404-12.479 0-12.479-3.402-9.686-6.164-6.238-6.164-2.793-6.164 0-3.402 0 0Z"/>
<path transform="matrix(.78413,0,0,-.7841927,308.9937,27.485898)" d="M0 0C0 3.404-2.793 6.164-6.238 6.164-9.686 6.164-12.479 3.404-12.479 0-12.479-3.402-9.686-6.164-6.238-6.164-2.793-6.164 0-3.402 0 0" fill="#f9cd83"/>
<path transform="matrix(.78413,0,0,-.7841927,308.9937,27.485898)" stroke-width="2" stroke-linecap="butt" stroke-miterlimit="4" stroke-linejoin="miter" fill="none" stroke="#231f20" d="M0 0C0 3.404-2.793 6.164-6.238 6.164-9.686 6.164-12.479 3.404-12.479 0-12.479-3.402-9.686-6.164-6.238-6.164-2.793-6.164 0-3.402 0 0Z"/>
<path transform="matrix(.78413,0,0,-.7841927,309.35826,7.7444)" d="M0 0C0 3.404-2.793 6.164-6.238 6.164-9.686 6.164-12.479 3.404-12.479 0-12.479-3.403-9.686-6.165-6.238-6.165-2.793-6.165 0-3.403 0 0" fill="#ffffff"/>
<path transform="matrix(.78413,0,0,-.7841927,309.35826,7.7444)" stroke-width="2" stroke-linecap="butt" stroke-miterlimit="4" stroke-linejoin="miter" fill="none" stroke="#231f20" d="M0 0C0 3.404-2.793 6.164-6.238 6.164-9.686 6.164-12.479 3.404-12.479 0-12.479-3.403-9.686-6.165-6.238-6.165-2.793-6.165 0-3.403 0 0Z"/>
<path transform="matrix(.78413,0,0,-.7841927,330.16523,7.488983)" d="M0 0C0 3.404-2.793 6.164-6.238 6.164-9.686 6.164-12.479 3.404-12.479 0-12.479-3.402-9.686-6.164-6.238-6.164-2.793-6.164 0-3.402 0 0" fill="#ffffff"/>
<path transform="matrix(.78413,0,0,-.7841927,330.16523,7.488983)" stroke-width="2" stroke-linecap="butt" stroke-miterlimit="4" stroke-linejoin="miter" fill="none" stroke="#231f20" d="M0 0C0 3.404-2.793 6.164-6.238 6.164-9.686 6.164-12.479 3.404-12.479 0-12.479-3.402-9.686-6.164-6.238-6.164-2.793-6.164 0-3.402 0 0Z"/>
<path transform="matrix(.78413,0,0,-.7841927,-2.102974,80.28834)" stroke-width="2" stroke-linecap="butt" stroke-miterlimit="4" stroke-linejoin="miter" fill="none" stroke="#231f20" d="M364.002 92H337.002V65H364.002Z"/>
<path transform="matrix(.78413,0,0,-.7841927,287.8222,28.139523)" d="M0 0C0 3.404-2.793 6.164-6.238 6.164-9.686 6.164-12.479 3.404-12.479 0-12.479-3.402-9.686-6.164-6.238-6.164-2.793-6.164 0-3.402 0 0" fill="#f9cd83"/>
<path transform="matrix(.78413,0,0,-.7841927,287.8222,28.139523)" stroke-width="2" stroke-linecap="butt" stroke-miterlimit="4" stroke-linejoin="miter" fill="none" stroke="#231f20" d="M0 0C0 3.404-2.793 6.164-6.238 6.164-9.686 6.164-12.479 3.404-12.479 0-12.479-3.402-9.686-6.164-6.238-6.164-2.793-6.164 0-3.402 0 0Z"/>
<path transform="matrix(.78413,0,0,-.7841927,267.04277,28.139523)" d="M0 0C0 3.404-2.793 6.164-6.238 6.164-9.686 6.164-12.479 3.404-12.479 0-12.479-3.402-9.686-6.164-6.238-6.164-2.793-6.164 0-3.402 0 0" fill="#ffffff"/>
<path transform="matrix(.78413,0,0,-.7841927,267.04277,28.139523)" stroke-width="2" stroke-linecap="butt" stroke-miterlimit="4" stroke-linejoin="miter" fill="none" stroke="#231f20" d="M0 0C0 3.404-2.793 6.164-6.238 6.164-9.686 6.164-12.479 3.404-12.479 0-12.479-3.402-9.686-6.164-6.238-6.164-2.793-6.164 0-3.402 0 0Z"/>
<path transform="matrix(.78413,0,0,-.7841927,267.4073,8.398018)" d="M0 0C0 3.404-2.793 6.164-6.238 6.164-9.686 6.164-12.479 3.404-12.479 0-12.479-3.403-9.686-6.165-6.238-6.165-2.793-6.165 0-3.403 0 0" fill="#ffffff"/>
<path transform="matrix(.78413,0,0,-.7841927,267.4073,8.398018)" stroke-width="2" stroke-linecap="butt" stroke-miterlimit="4" stroke-linejoin="miter" fill="none" stroke="#231f20" d="M0 0C0 3.404-2.793 6.164-6.238 6.164-9.686 6.164-12.479 3.404-12.479 0-12.479-3.403-9.686-6.165-6.238-6.165-2.793-6.165 0-3.403 0 0Z"/>
<path transform="matrix(.78413,0,0,-.7841927,288.21427,8.142609)" d="M0 0C0 3.404-2.793 6.164-6.238 6.164-9.686 6.164-12.479 3.404-12.479 0-12.479-3.402-9.686-6.164-6.238-6.164-2.793-6.164 0-3.402 0 0" fill="#f9cd83"/>
<path transform="matrix(.78413,0,0,-.7841927,288.21427,8.142609)" stroke-width="2" stroke-linecap="butt" stroke-miterlimit="4" stroke-linejoin="miter" fill="none" stroke="#231f20" d="M0 0C0 3.404-2.793 6.164-6.238 6.164-9.686 6.164-12.479 3.404-12.479 0-12.479-3.402-9.686-6.164-6.238-6.164-2.793-6.164 0-3.402 0 0Z"/>
<path transform="matrix(.78413,0,0,-.7841927,-2.102974,80.28834)" stroke-width="2" stroke-linecap="butt" stroke-miterlimit="4" stroke-linejoin="miter" fill="none" stroke="#231f20" d="M309.669 91.667H282.669V64.667H309.669Z"/>
<path transform="matrix(.78413,0,0,-.7841927,245.21805,28.401055)" d="M0 0C0 3.404-2.793 6.164-6.238 6.164-9.686 6.164-12.479 3.404-12.479 0-12.479-3.402-9.686-6.164-6.238-6.164-2.793-6.164 0-3.402 0 0" fill="#ffffff"/>
<path transform="matrix(.78413,0,0,-.7841927,245.21805,28.401055)" stroke-width="2" stroke-linecap="butt" stroke-miterlimit="4" stroke-linejoin="miter" fill="none" stroke="#231f20" d="M0 0C0 3.404-2.793 6.164-6.238 6.164-9.686 6.164-12.479 3.404-12.479 0-12.479-3.402-9.686-6.164-6.238-6.164-2.793-6.164 0-3.402 0 0Z"/>
<path transform="matrix(.78413,0,0,-.7841927,224.4386,28.401055)" d="M0 0C0 3.404-2.793 6.164-6.238 6.164-9.686 6.164-12.479 3.404-12.479 0-12.479-3.402-9.686-6.164-6.238-6.164-2.793-6.164 0-3.402 0 0" fill="#ffffff"/>
<path transform="matrix(.78413,0,0,-.7841927,224.4386,28.401055)" stroke-width="2" stroke-linecap="butt" stroke-miterlimit="4" stroke-linejoin="miter" fill="none" stroke="#231f20" d="M0 0C0 3.404-2.793 6.164-6.238 6.164-9.686 6.164-12.479 3.404-12.479 0-12.479-3.402-9.686-6.164-6.238-6.164-2.793-6.164 0-3.402 0 0Z"/>
<path transform="matrix(.78413,0,0,-.7841927,224.80387,8.659554)" d="M0 0C0 3.404-2.793 6.164-6.238 6.164-9.686 6.164-12.479 3.404-12.479 0-12.479-3.403-9.686-6.165-6.238-6.165-2.793-6.165 0-3.403 0 0" fill="#f9cd83"/>
<path transform="matrix(.78413,0,0,-.7841927,224.80387,8.659554)" stroke-width="2" stroke-linecap="butt" stroke-miterlimit="4" stroke-linejoin="miter" fill="none" stroke="#231f20" d="M0 0C0 3.404-2.793 6.164-6.238 6.164-9.686 6.164-12.479 3.404-12.479 0-12.479-3.403-9.686-6.165-6.238-6.165-2.793-6.165 0-3.403 0 0Z"/>
<path transform="matrix(.78413,0,0,-.7841927,245.6101,8.404144)" d="M0 0C0 3.404-2.793 6.164-6.238 6.164-9.686 6.164-12.479 3.404-12.479 0-12.479-3.402-9.686-6.164-6.238-6.164-2.793-6.164 0-3.402 0 0" fill="#f9cd83"/>
<path transform="matrix(.78413,0,0,-.7841927,245.6101,8.404144)" stroke-width="2" stroke-linecap="butt" stroke-miterlimit="4" stroke-linejoin="miter" fill="none" stroke="#231f20" d="M0 0C0 3.404-2.793 6.164-6.238 6.164-9.686 6.164-12.479 3.404-12.479 0-12.479-3.402-9.686-6.164-6.238-6.164-2.793-6.164 0-3.402 0 0Z"/>
<path transform="matrix(.78413,0,0,-.7841927,-2.102974,80.28834)" stroke-width="2" stroke-linecap="butt" stroke-miterlimit="4" stroke-linejoin="miter" fill="none" stroke="#231f20" d="M255.408 92H228.408V65H255.408Z"/>
<path transform="matrix(.78413,0,0,-.7841927,202.6706,28.139523)" d="M0 0C0 3.404-2.793 6.164-6.238 6.164-9.686 6.164-12.479 3.404-12.479 0-12.479-3.402-9.686-6.164-6.238-6.164-2.793-6.164 0-3.402 0 0" fill="#ffffff"/>
<path transform="matrix(.78413,0,0,-.7841927,202.6706,28.139523)" stroke-width="2" stroke-linecap="butt" stroke-miterlimit="4" stroke-linejoin="miter" fill="none" stroke="#231f20" d="M0 0C0 3.404-2.793 6.164-6.238 6.164-9.686 6.164-12.479 3.404-12.479 0-12.479-3.402-9.686-6.164-6.238-6.164-2.793-6.164 0-3.402 0 0Z"/>
<path transform="matrix(.78413,0,0,-.7841927,181.89118,28.139523)" d="M0 0C0 3.404-2.793 6.164-6.238 6.164-9.686 6.164-12.479 3.404-12.479 0-12.479-3.402-9.686-6.164-6.238-6.164-2.793-6.164 0-3.402 0 0" fill="#f9cd83"/>
<path transform="matrix(.78413,0,0,-.7841927,181.89118,28.139523)" stroke-width="2" stroke-linecap="butt" stroke-miterlimit="4" stroke-linejoin="miter" fill="none" stroke="#231f20" d="M0 0C0 3.404-2.793 6.164-6.238 6.164-9.686 6.164-12.479 3.404-12.479 0-12.479-3.402-9.686-6.164-6.238-6.164-2.793-6.164 0-3.402 0 0Z"/>
<path transform="matrix(.78413,0,0,-.7841927,182.25641,8.398018)" d="M0 0C0 3.404-2.793 6.164-6.238 6.164-9.686 6.164-12.479 3.404-12.479 0-12.479-3.403-9.686-6.165-6.238-6.165-2.793-6.165 0-3.403 0 0" fill="#ffffff"/>
<path transform="matrix(.78413,0,0,-.7841927,182.25641,8.398018)" stroke-width="2" stroke-linecap="butt" stroke-miterlimit="4" stroke-linejoin="miter" fill="none" stroke="#231f20" d="M0 0C0 3.404-2.793 6.164-6.238 6.164-9.686 6.164-12.479 3.404-12.479 0-12.479-3.403-9.686-6.165-6.238-6.165-2.793-6.165 0-3.403 0 0Z"/>
<path transform="matrix(.78413,0,0,-.7841927,203.06266,8.142609)" d="M0 0C0 3.404-2.793 6.164-6.238 6.164-9.686 6.164-12.479 3.404-12.479 0-12.479-3.402-9.686-6.164-6.238-6.164-2.793-6.164 0-3.402 0 0" fill="#ffffff"/>
<path transform="matrix(.78413,0,0,-.7841927,203.06266,8.142609)" stroke-width="2" stroke-linecap="butt" stroke-miterlimit="4" stroke-linejoin="miter" fill="none" stroke="#231f20" d="M0 0C0 3.404-2.793 6.164-6.238 6.164-9.686 6.164-12.479 3.404-12.479 0-12.479-3.402-9.686-6.164-6.238-6.164-2.793-6.164 0-3.402 0 0Z"/>
<path transform="matrix(.78413,0,0,-.7841927,-2.102974,80.28834)" stroke-width="2" stroke-linecap="butt" stroke-miterlimit="4" stroke-linejoin="miter" fill="none" stroke="#231f20" d="M201.669 92.5H174.669V65.5H201.669Z"/>
<path transform="matrix(.78413,0,0,-.7841927,160.53202,27.747429)" d="M0 0C0 3.404-2.793 6.164-6.238 6.164-9.686 6.164-12.479 3.404-12.479 0-12.479-3.402-9.686-6.164-6.238-6.164-2.793-6.164 0-3.402 0 0" fill="#f9cd83"/>
<path transform="matrix(.78413,0,0,-.7841927,160.53202,27.747429)" stroke-width="2" stroke-linecap="butt" stroke-miterlimit="4" stroke-linejoin="miter" fill="none" stroke="#231f20" d="M0 0C0 3.404-2.793 6.164-6.238 6.164-9.686 6.164-12.479 3.404-12.479 0-12.479-3.402-9.686-6.164-6.238-6.164-2.793-6.164 0-3.402 0 0Z"/>
<path transform="matrix(.78413,0,0,-.7841927,139.75257,27.747429)" d="M0 0C0 3.404-2.793 6.164-6.238 6.164-9.686 6.164-12.479 3.404-12.479 0-12.479-3.402-9.686-6.164-6.238-6.164-2.793-6.164 0-3.402 0 0" fill="#ffffff"/>
<path transform="matrix(.78413,0,0,-.7841927,139.75257,27.747429)" stroke-width="2" stroke-linecap="butt" stroke-miterlimit="4" stroke-linejoin="miter" fill="none" stroke="#231f20" d="M0 0C0 3.404-2.793 6.164-6.238 6.164-9.686 6.164-12.479 3.404-12.479 0-12.479-3.402-9.686-6.164-6.238-6.164-2.793-6.164 0-3.402 0 0Z"/>
<path transform="matrix(.78413,0,0,-.7841927,140.1178,8.005928)" d="M0 0C0 3.404-2.793 6.164-6.238 6.164-9.686 6.164-12.479 3.404-12.479 0-12.479-3.403-9.686-6.165-6.238-6.165-2.793-6.165 0-3.403 0 0" fill="#ffffff"/>
<path transform="matrix(.78413,0,0,-.7841927,140.1178,8.005928)" stroke-width="2" stroke-linecap="butt" stroke-miterlimit="4" stroke-linejoin="miter" fill="none" stroke="#231f20" d="M0 0C0 3.404-2.793 6.164-6.238 6.164-9.686 6.164-12.479 3.404-12.479 0-12.479-3.403-9.686-6.165-6.238-6.165-2.793-6.165 0-3.403 0 0Z"/>
<path transform="matrix(.78413,0,0,-.7841927,160.92407,7.750511)" d="M0 0C0 3.404-2.793 6.164-6.238 6.164-9.686 6.164-12.479 3.404-12.479 0-12.479-3.402-9.686-6.164-6.238-6.164-2.793-6.164 0-3.402 0 0" fill="#ffffff"/>
<path transform="matrix(.78413,0,0,-.7841927,160.92407,7.750511)" stroke-width="2" stroke-linecap="butt" stroke-miterlimit="4" stroke-linejoin="miter" fill="none" stroke="#231f20" d="M0 0C0 3.404-2.793 6.164-6.238 6.164-9.686 6.164-12.479 3.404-12.479 0-12.479-3.402-9.686-6.164-6.238-6.164-2.793-6.164 0-3.402 0 0Z"/>
<path transform="matrix(.78413,0,0,-.7841927,-2.102974,80.28834)" stroke-width="2" stroke-linecap="butt" stroke-miterlimit="4" stroke-linejoin="miter" fill="none" stroke="#231f20" d="M147.169 92.5H120.16901V65.5H147.169Z"/>
<path transform="matrix(.78413,0,0,-.7841927,117.79693,27.747429)" d="M0 0C0 3.404-2.793 6.164-6.238 6.164-9.686 6.164-12.479 3.404-12.479 0-12.479-3.402-9.686-6.164-6.238-6.164-2.793-6.164 0-3.402 0 0" fill="#ffffff"/>
<path transform="matrix(.78413,0,0,-.7841927,117.79693,27.747429)" stroke-width="2" stroke-linecap="butt" stroke-miterlimit="4" stroke-linejoin="miter" fill="none" stroke="#231f20" d="M0 0C0 3.404-2.793 6.164-6.238 6.164-9.686 6.164-12.479 3.404-12.479 0-12.479-3.402-9.686-6.164-6.238-6.164-2.793-6.164 0-3.402 0 0Z"/>
<path transform="matrix(.78413,0,0,-.7841927,97.01749,27.747429)" d="M0 0C0 3.404-2.793 6.164-6.238 6.164-9.686 6.164-12.479 3.404-12.479 0-12.479-3.402-9.686-6.164-6.238-6.164-2.793-6.164 0-3.402 0 0" fill="#ffffff"/>
<path transform="matrix(.78413,0,0,-.7841927,97.01749,27.747429)" stroke-width="2" stroke-linecap="butt" stroke-miterlimit="4" stroke-linejoin="miter" fill="none" stroke="#231f20" d="M0 0C0 3.404-2.793 6.164-6.238 6.164-9.686 6.164-12.479 3.404-12.479 0-12.479-3.402-9.686-6.164-6.238-6.164-2.793-6.164 0-3.402 0 0Z"/>
<path transform="matrix(.78413,0,0,-.7841927,97.38274,8.005928)" d="M0 0C0 3.404-2.793 6.164-6.238 6.164-9.686 6.164-12.479 3.404-12.479 0-12.479-3.403-9.686-6.165-6.238-6.165-2.793-6.165 0-3.403 0 0" fill="#ffffff"/>
<path transform="matrix(.78413,0,0,-.7841927,97.38274,8.005928)" stroke-width="2" stroke-linecap="butt" stroke-miterlimit="4" stroke-linejoin="miter" fill="none" stroke="#231f20" d="M0 0C0 3.404-2.793 6.164-6.238 6.164-9.686 6.164-12.479 3.404-12.479 0-12.479-3.403-9.686-6.165-6.238-6.165-2.793-6.165 0-3.403 0 0Z"/>
<path transform="matrix(.78413,0,0,-.7841927,118.188999,7.750511)" d="M0 0C0 3.404-2.793 6.164-6.238 6.164-9.686 6.164-12.479 3.404-12.479 0-12.479-3.402-9.686-6.164-6.238-6.164-2.793-6.164 0-3.402 0 0" fill="#f9cd83"/>
<path transform="matrix(.78413,0,0,-.7841927,118.188999,7.750511)" stroke-width="2" stroke-linecap="butt" stroke-miterlimit="4" stroke-linejoin="miter" fill="none" stroke="#231f20" d="M0 0C0 3.404-2.793 6.164-6.238 6.164-9.686 6.164-12.479 3.404-12.479 0-12.479-3.402-9.686-6.164-6.238-6.164-2.793-6.164 0-3.402 0 0Z"/>
<path transform="matrix(.78413,0,0,-.7841927,-2.102974,80.28834)" stroke-width="2" stroke-linecap="butt" stroke-miterlimit="4" stroke-linejoin="miter" fill="none" stroke="#231f20" d="M91.704 92.326H64.704V65.326H91.704Z"/>
<path transform="matrix(.78413,0,0,-.7841927,74.304927,27.884114)" d="M0 0C0 3.404-2.793 6.164-6.238 6.164-9.686 6.164-12.479 3.404-12.479 0-12.479-3.402-9.686-6.164-6.238-6.164-2.793-6.164 0-3.402 0 0" fill="#ffffff"/>
<path transform="matrix(.78413,0,0,-.7841927,74.304927,27.884114)" stroke-width="2" stroke-linecap="butt" stroke-miterlimit="4" stroke-linejoin="miter" fill="none" stroke="#231f20" d="M0 0C0 3.404-2.793 6.164-6.238 6.164-9.686 6.164-12.479 3.404-12.479 0-12.479-3.402-9.686-6.164-6.238-6.164-2.793-6.164 0-3.402 0 0Z"/>
<path transform="matrix(.78413,0,0,-.7841927,53.525484,27.884114)" d="M0 0C0 3.404-2.793 6.164-6.238 6.164-9.686 6.164-12.479 3.404-12.479 0-12.479-3.402-9.686-6.164-6.238-6.164-2.793-6.164 0-3.402 0 0" fill="#ffffff"/>
<path transform="matrix(.78413,0,0,-.7841927,53.525484,27.884114)" stroke-width="2" stroke-linecap="butt" stroke-miterlimit="4" stroke-linejoin="miter" fill="none" stroke="#231f20" d="M0 0C0 3.404-2.793 6.164-6.238 6.164-9.686 6.164-12.479 3.404-12.479 0-12.479-3.402-9.686-6.164-6.238-6.164-2.793-6.164 0-3.402 0 0Z"/>
<path transform="matrix(.78413,0,0,-.7841927,53.89034,8.142609)" d="M0 0C0 3.404-2.793 6.164-6.238 6.164-9.686 6.164-12.479 3.404-12.479 0-12.479-3.403-9.686-6.165-6.238-6.165-2.793-6.165 0-3.403 0 0" fill="#f9cd83"/>
<path transform="matrix(.78413,0,0,-.7841927,53.89034,8.142609)" stroke-width="2" stroke-linecap="butt" stroke-miterlimit="4" stroke-linejoin="miter" fill="none" stroke="#231f20" d="M0 0C0 3.404-2.793 6.164-6.238 6.164-9.686 6.164-12.479 3.404-12.479 0-12.479-3.403-9.686-6.165-6.238-6.165-2.793-6.165 0-3.403 0 0Z"/>
<path transform="matrix(.78413,0,0,-.7841927,74.69699,7.8871996)" d="M0 0C0 3.404-2.793 6.164-6.238 6.164-9.686 6.164-12.479 3.404-12.479 0-12.479-3.402-9.686-6.164-6.238-6.164-2.793-6.164 0-3.402 0 0" fill="#ffffff"/>
<path transform="matrix(.78413,0,0,-.7841927,74.69699,7.8871996)" stroke-width="2" stroke-linecap="butt" stroke-miterlimit="4" stroke-linejoin="miter" fill="none" stroke="#231f20" d="M0 0C0 3.404-2.793 6.164-6.238 6.164-9.686 6.164-12.479 3.404-12.479 0-12.479-3.402-9.686-6.164-6.238-6.164-2.793-6.164 0-3.402 0 0Z"/>
<path transform="matrix(.78413,0,0,-.7841927,-2.102974,80.28834)" stroke-width="2" stroke-linecap="butt" stroke-miterlimit="4" stroke-linejoin="miter" fill="none" stroke="#231f20" d="M39.669 38H12.668999V11H39.669Z"/>
<path transform="matrix(.78413,0,0,-.7841927,33.502958,70.48593)" d="M0 0C0 3.404-2.793 6.164-6.238 6.164-9.686 6.164-12.479 3.404-12.479 0-12.479-3.402-9.686-6.164-6.238-6.164-2.793-6.164 0-3.402 0 0" fill="#ffffff"/>
<path transform="matrix(.78413,0,0,-.7841927,33.502958,70.48593)" stroke-width="2" stroke-linecap="butt" stroke-miterlimit="4" stroke-linejoin="miter" fill="none" stroke="#231f20" d="M0 0C0 3.404-2.793 6.164-6.238 6.164-9.686 6.164-12.479 3.404-12.479 0-12.479-3.402-9.686-6.164-6.238-6.164-2.793-6.164 0-3.402 0 0Z"/>
<path transform="matrix(.78413,0,0,-.7841927,12.723512,70.48593)" d="M0 0C0 3.404-2.793 6.164-6.238 6.164-9.686 6.164-12.479 3.404-12.479 0-12.479-3.402-9.686-6.164-6.238-6.164-2.793-6.164 0-3.402 0 0" fill="#f9cd83"/>
<path transform="matrix(.78413,0,0,-.7841927,12.723512,70.48593)" stroke-width="2" stroke-linecap="butt" stroke-miterlimit="4" stroke-linejoin="miter" fill="none" stroke="#231f20" d="M0 0C0 3.404-2.793 6.164-6.238 6.164-9.686 6.164-12.479 3.404-12.479 0-12.479-3.402-9.686-6.164-6.238-6.164-2.793-6.164 0-3.402 0 0Z"/>
<path transform="matrix(.78413,0,0,-.7841927,13.088368,50.74482)" d="M0 0C0 3.405-2.793 6.165-6.238 6.165-9.686 6.165-12.479 3.405-12.479 0-12.479-3.402-9.686-6.164-6.238-6.164-2.793-6.164 0-3.402 0 0" fill="#f9cd83"/>
<path transform="matrix(.78413,0,0,-.7841927,13.088368,50.74482)" stroke-width="2" stroke-linecap="butt" stroke-miterlimit="4" stroke-linejoin="miter" fill="none" stroke="#231f20" d="M0 0C0 3.405-2.793 6.165-6.238 6.165-9.686 6.165-12.479 3.405-12.479 0-12.479-3.402-9.686-6.164-6.238-6.164-2.793-6.164 0-3.402 0 0Z"/>
<path transform="matrix(.78413,0,0,-.7841927,33.89502,50.489015)" d="M0 0C0 3.404-2.793 6.164-6.238 6.164-9.686 6.164-12.479 3.404-12.479 0-12.479-3.402-9.686-6.164-6.238-6.164-2.793-6.164 0-3.402 0 0" fill="#ffffff"/>
<path transform="matrix(.78413,0,0,-.7841927,33.89502,50.489015)" stroke-width="2" stroke-linecap="butt" stroke-miterlimit="4" stroke-linejoin="miter" fill="none" stroke="#231f20" d="M0 0C0 3.404-2.793 6.164-6.238 6.164-9.686 6.164-12.479 3.404-12.479 0-12.479-3.402-9.686-6.164-6.238-6.164-2.793-6.164 0-3.402 0 0Z"/>
<path transform="matrix(.78413,0,0,-.7841927,-2.102974,80.28834)" stroke-width="2" stroke-linecap="butt" stroke-miterlimit="4" stroke-linejoin="miter" fill="none" stroke="#231f20" d="M418.502 39.833H391.502V12.834H418.502Z"/>
<path transform="matrix(.78413,0,0,-.7841927,330.55729,69.04772)" d="M0 0C0 3.404-2.793 6.164-6.238 6.164-9.686 6.164-12.479 3.404-12.479 0-12.479-3.402-9.686-6.164-6.238-6.164-2.793-6.164 0-3.402 0 0" fill="#f9cd83"/>
<path transform="matrix(.78413,0,0,-.7841927,330.55729,69.04772)" stroke-width="2" stroke-linecap="butt" stroke-miterlimit="4" stroke-linejoin="miter" fill="none" stroke="#231f20" d="M0 0C0 3.404-2.793 6.164-6.238 6.164-9.686 6.164-12.479 3.404-12.479 0-12.479-3.402-9.686-6.164-6.238-6.164-2.793-6.164 0-3.402 0 0Z"/>
<path transform="matrix(.78413,0,0,-.7841927,309.77784,69.04772)" d="M0 0C0 3.404-2.793 6.164-6.238 6.164-9.686 6.164-12.479 3.404-12.479 0-12.479-3.402-9.686-6.164-6.238-6.164-2.793-6.164 0-3.402 0 0" fill="#f9cd83"/>
<path transform="matrix(.78413,0,0,-.7841927,309.77784,69.04772)" stroke-width="2" stroke-linecap="butt" stroke-miterlimit="4" stroke-linejoin="miter" fill="none" stroke="#231f20" d="M0 0C0 3.404-2.793 6.164-6.238 6.164-9.686 6.164-12.479 3.404-12.479 0-12.479-3.402-9.686-6.164-6.238-6.164-2.793-6.164 0-3.402 0 0Z"/>
<path transform="matrix(.78413,0,0,-.7841927,310.14237,49.30661)" d="M0 0C0 3.404-2.793 6.164-6.238 6.164-9.686 6.164-12.479 3.404-12.479 0-12.479-3.402-9.686-6.164-6.238-6.164-2.793-6.164 0-3.402 0 0" fill="#f9cd83"/>
<path transform="matrix(.78413,0,0,-.7841927,310.14237,49.30661)" stroke-width="2" stroke-linecap="butt" stroke-miterlimit="4" stroke-linejoin="miter" fill="none" stroke="#231f20" d="M0 0C0 3.404-2.793 6.164-6.238 6.164-9.686 6.164-12.479 3.404-12.479 0-12.479-3.402-9.686-6.164-6.238-6.164-2.793-6.164 0-3.402 0 0Z"/>
<path transform="matrix(.78413,0,0,-.7841927,330.94935,49.05159)" d="M0 0C0 3.404-2.793 6.164-6.238 6.164-9.686 6.164-12.479 3.404-12.479 0-12.479-3.401-9.686-6.163-6.238-6.163-2.793-6.163 0-3.401 0 0" fill="#f9cd83"/>
<path transform="matrix(.78413,0,0,-.7841927,330.94935,49.05159)" stroke-width="2" stroke-linecap="butt" stroke-miterlimit="4" stroke-linejoin="miter" fill="none" stroke="#231f20" d="M0 0C0 3.404-2.793 6.164-6.238 6.164-9.686 6.164-12.479 3.404-12.479 0-12.479-3.401-9.686-6.163-6.238-6.163-2.793-6.163 0-3.401 0 0Z"/>
<path transform="matrix(.78413,0,0,-.7841927,-2.102974,80.28834)" stroke-width="2" stroke-linecap="butt" stroke-miterlimit="4" stroke-linejoin="miter" fill="none" stroke="#231f20" d="M365.002 39H338.002V12H365.002Z"/>
<path transform="matrix(.78413,0,0,-.7841927,288.60633,69.70174)" d="M0 0C0 3.404-2.793 6.164-6.238 6.164-9.686 6.164-12.479 3.404-12.479 0-12.479-3.402-9.686-6.164-6.238-6.164-2.793-6.164 0-3.402 0 0" fill="#f9cd83"/>
<path transform="matrix(.78413,0,0,-.7841927,288.60633,69.70174)" stroke-width="2" stroke-linecap="butt" stroke-miterlimit="4" stroke-linejoin="miter" fill="none" stroke="#231f20" d="M0 0C0 3.404-2.793 6.164-6.238 6.164-9.686 6.164-12.479 3.404-12.479 0-12.479-3.402-9.686-6.164-6.238-6.164-2.793-6.164 0-3.402 0 0Z"/>
<path transform="matrix(.78413,0,0,-.7841927,267.82688,69.70174)" d="M0 0C0 3.404-2.793 6.164-6.238 6.164-9.686 6.164-12.479 3.404-12.479 0-12.479-3.402-9.686-6.164-6.238-6.164-2.793-6.164 0-3.402 0 0" fill="#ffffff"/>
<path transform="matrix(.78413,0,0,-.7841927,267.82688,69.70174)" stroke-width="2" stroke-linecap="butt" stroke-miterlimit="4" stroke-linejoin="miter" fill="none" stroke="#231f20" d="M0 0C0 3.404-2.793 6.164-6.238 6.164-9.686 6.164-12.479 3.404-12.479 0-12.479-3.402-9.686-6.164-6.238-6.164-2.793-6.164 0-3.402 0 0Z"/>
<path transform="matrix(.78413,0,0,-.7841927,268.1914,49.960626)" d="M0 0C0 3.405-2.793 6.165-6.238 6.165-9.686 6.165-12.479 3.405-12.479 0-12.479-3.402-9.686-6.164-6.238-6.164-2.793-6.164 0-3.402 0 0" fill="#f9cd83"/>
<path transform="matrix(.78413,0,0,-.7841927,268.1914,49.960626)" stroke-width="2" stroke-linecap="butt" stroke-miterlimit="4" stroke-linejoin="miter" fill="none" stroke="#231f20" d="M0 0C0 3.405-2.793 6.165-6.238 6.165-9.686 6.165-12.479 3.405-12.479 0-12.479-3.402-9.686-6.164-6.238-6.164-2.793-6.164 0-3.402 0 0Z"/>
<path transform="matrix(.78413,0,0,-.7841927,288.99839,49.704824)" d="M0 0C0 3.404-2.793 6.164-6.238 6.164-9.686 6.164-12.479 3.404-12.479 0-12.479-3.402-9.686-6.164-6.238-6.164-2.793-6.164 0-3.402 0 0" fill="#f9cd83"/>
<path transform="matrix(.78413,0,0,-.7841927,288.99839,49.704824)" stroke-width="2" stroke-linecap="butt" stroke-miterlimit="4" stroke-linejoin="miter" fill="none" stroke="#231f20" d="M0 0C0 3.404-2.793 6.164-6.238 6.164-9.686 6.164-12.479 3.404-12.479 0-12.479-3.402-9.686-6.164-6.238-6.164-2.793-6.164 0-3.402 0 0Z"/>
<path transform="matrix(.78413,0,0,-.7841927,-2.102974,80.28834)" stroke-width="2" stroke-linecap="butt" stroke-miterlimit="4" stroke-linejoin="miter" fill="none" stroke="#231f20" d="M310.669 38.666H283.669V11.666H310.669Z"/>
<path transform="matrix(.78413,0,0,-.7841927,246.0022,69.96365)" d="M0 0C0 3.404-2.793 6.164-6.238 6.164-9.686 6.164-12.479 3.404-12.479 0-12.479-3.402-9.686-6.164-6.238-6.164-2.793-6.164 0-3.402 0 0" fill="#ffffff"/>
<path transform="matrix(.78413,0,0,-.7841927,246.0022,69.96365)" stroke-width="2" stroke-linecap="butt" stroke-miterlimit="4" stroke-linejoin="miter" fill="none" stroke="#231f20" d="M0 0C0 3.404-2.793 6.164-6.238 6.164-9.686 6.164-12.479 3.404-12.479 0-12.479-3.402-9.686-6.164-6.238-6.164-2.793-6.164 0-3.402 0 0Z"/>
<path transform="matrix(.78413,0,0,-.7841927,225.22275,69.96365)" d="M0 0C0 3.404-2.793 6.164-6.238 6.164-9.686 6.164-12.479 3.404-12.479 0-12.479-3.402-9.686-6.164-6.238-6.164-2.793-6.164 0-3.402 0 0" fill="#f9cd83"/>
<path transform="matrix(.78413,0,0,-.7841927,225.22275,69.96365)" stroke-width="2" stroke-linecap="butt" stroke-miterlimit="4" stroke-linejoin="miter" fill="none" stroke="#231f20" d="M0 0C0 3.404-2.793 6.164-6.238 6.164-9.686 6.164-12.479 3.404-12.479 0-12.479-3.402-9.686-6.164-6.238-6.164-2.793-6.164 0-3.402 0 0Z"/>
<path transform="matrix(.78413,0,0,-.7841927,225.58798,50.221765)" d="M0 0C0 3.404-2.793 6.164-6.238 6.164-9.686 6.164-12.479 3.404-12.479 0-12.479-3.403-9.686-6.165-6.238-6.165-2.793-6.165 0-3.403 0 0" fill="#f9cd83"/>
<path transform="matrix(.78413,0,0,-.7841927,225.58798,50.221765)" stroke-width="2" stroke-linecap="butt" stroke-miterlimit="4" stroke-linejoin="miter" fill="none" stroke="#231f20" d="M0 0C0 3.404-2.793 6.164-6.238 6.164-9.686 6.164-12.479 3.404-12.479 0-12.479-3.403-9.686-6.165-6.238-6.165-2.793-6.165 0-3.403 0 0Z"/>
<path transform="matrix(.78413,0,0,-.7841927,246.39426,49.966745)" d="M0 0C0 3.405-2.793 6.165-6.238 6.165-9.686 6.165-12.479 3.405-12.479 0-12.479-3.402-9.686-6.164-6.238-6.164-2.793-6.164 0-3.402 0 0" fill="#f9cd83"/>
<path transform="matrix(.78413,0,0,-.7841927,246.39426,49.966745)" stroke-width="2" stroke-linecap="butt" stroke-miterlimit="4" stroke-linejoin="miter" fill="none" stroke="#231f20" d="M0 0C0 3.405-2.793 6.165-6.238 6.165-9.686 6.165-12.479 3.405-12.479 0-12.479-3.402-9.686-6.164-6.238-6.164-2.793-6.164 0-3.402 0 0Z"/>
<path transform="matrix(.78413,0,0,-.7841927,-2.102974,80.28834)" stroke-width="2" stroke-linecap="butt" stroke-miterlimit="4" stroke-linejoin="miter" fill="none" stroke="#231f20" d="M256.408 39H229.40799V12H256.408Z"/>
<path transform="matrix(.78413,0,0,-.7841927,203.45475,69.70174)" d="M0 0C0 3.404-2.793 6.164-6.238 6.164-9.686 6.164-12.479 3.404-12.479 0-12.479-3.402-9.686-6.164-6.238-6.164-2.793-6.164 0-3.402 0 0" fill="#f9cd83"/>
<path transform="matrix(.78413,0,0,-.7841927,203.45475,69.70174)" stroke-width="2" stroke-linecap="butt" stroke-miterlimit="4" stroke-linejoin="miter" fill="none" stroke="#231f20" d="M0 0C0 3.404-2.793 6.164-6.238 6.164-9.686 6.164-12.479 3.404-12.479 0-12.479-3.402-9.686-6.164-6.238-6.164-2.793-6.164 0-3.402 0 0Z"/>
<path transform="matrix(.78413,0,0,-.7841927,182.6753,69.70174)" d="M0 0C0 3.404-2.793 6.164-6.238 6.164-9.686 6.164-12.479 3.404-12.479 0-12.479-3.402-9.686-6.164-6.238-6.164-2.793-6.164 0-3.402 0 0" fill="#f9cd83"/>
<path transform="matrix(.78413,0,0,-.7841927,182.6753,69.70174)" stroke-width="2" stroke-linecap="butt" stroke-miterlimit="4" stroke-linejoin="miter" fill="none" stroke="#231f20" d="M0 0C0 3.404-2.793 6.164-6.238 6.164-9.686 6.164-12.479 3.404-12.479 0-12.479-3.402-9.686-6.164-6.238-6.164-2.793-6.164 0-3.402 0 0Z"/>
<path transform="matrix(.78413,0,0,-.7841927,183.04053,49.960626)" d="M0 0C0 3.405-2.793 6.165-6.238 6.165-9.686 6.165-12.479 3.405-12.479 0-12.479-3.402-9.686-6.164-6.238-6.164-2.793-6.164 0-3.402 0 0" fill="#f9cd83"/>
<path transform="matrix(.78413,0,0,-.7841927,183.04053,49.960626)" stroke-width="2" stroke-linecap="butt" stroke-miterlimit="4" stroke-linejoin="miter" fill="none" stroke="#231f20" d="M0 0C0 3.405-2.793 6.165-6.238 6.165-9.686 6.165-12.479 3.405-12.479 0-12.479-3.402-9.686-6.164-6.238-6.164-2.793-6.164 0-3.402 0 0Z"/>
<path transform="matrix(.78413,0,0,-.7841927,203.8468,49.704824)" d="M0 0C0 3.404-2.793 6.164-6.238 6.164-9.686 6.164-12.479 3.404-12.479 0-12.479-3.402-9.686-6.164-6.238-6.164-2.793-6.164 0-3.402 0 0" fill="#ffffff"/>
<path transform="matrix(.78413,0,0,-.7841927,203.8468,49.704824)" stroke-width="2" stroke-linecap="butt" stroke-miterlimit="4" stroke-linejoin="miter" fill="none" stroke="#231f20" d="M0 0C0 3.404-2.793 6.164-6.238 6.164-9.686 6.164-12.479 3.404-12.479 0-12.479-3.402-9.686-6.164-6.238-6.164-2.793-6.164 0-3.402 0 0Z"/>
<path transform="matrix(.78413,0,0,-.7841927,-2.102974,80.28834)" stroke-width="2" stroke-linecap="butt" stroke-miterlimit="4" stroke-linejoin="miter" fill="none" stroke="#231f20" d="M202.669 39.5H175.669V12.5H202.669Z"/>
<path transform="matrix(.78413,0,0,-.7841927,161.31613,69.30964)" d="M0 0C0 3.404-2.793 6.164-6.238 6.164-9.686 6.164-12.479 3.404-12.479 0-12.479-3.402-9.686-6.164-6.238-6.164-2.793-6.164 0-3.402 0 0" fill="#f9cd83"/>
<path transform="matrix(.78413,0,0,-.7841927,161.31613,69.30964)" stroke-width="2" stroke-linecap="butt" stroke-miterlimit="4" stroke-linejoin="miter" fill="none" stroke="#231f20" d="M0 0C0 3.404-2.793 6.164-6.238 6.164-9.686 6.164-12.479 3.404-12.479 0-12.479-3.402-9.686-6.164-6.238-6.164-2.793-6.164 0-3.402 0 0Z"/>
<path transform="matrix(.78413,0,0,-.7841927,140.53672,69.30964)" d="M0 0C0 3.404-2.793 6.164-6.238 6.164-9.686 6.164-12.479 3.404-12.479 0-12.479-3.402-9.686-6.164-6.238-6.164-2.793-6.164 0-3.402 0 0" fill="#f9cd83"/>
<path transform="matrix(.78413,0,0,-.7841927,140.53672,69.30964)" stroke-width="2" stroke-linecap="butt" stroke-miterlimit="4" stroke-linejoin="miter" fill="none" stroke="#231f20" d="M0 0C0 3.404-2.793 6.164-6.238 6.164-9.686 6.164-12.479 3.404-12.479 0-12.479-3.402-9.686-6.164-6.238-6.164-2.793-6.164 0-3.402 0 0Z"/>
<path transform="matrix(.78413,0,0,-.7841927,140.90195,49.567747)" d="M0 0C0 3.404-2.793 6.164-6.238 6.164-9.686 6.164-12.479 3.404-12.479 0-12.479-3.403-9.686-6.165-6.238-6.165-2.793-6.165 0-3.403 0 0" fill="#ffffff"/>
<path transform="matrix(.78413,0,0,-.7841927,140.90195,49.567747)" stroke-width="2" stroke-linecap="butt" stroke-miterlimit="4" stroke-linejoin="miter" fill="none" stroke="#231f20" d="M0 0C0 3.404-2.793 6.164-6.238 6.164-9.686 6.164-12.479 3.404-12.479 0-12.479-3.403-9.686-6.165-6.238-6.165-2.793-6.165 0-3.403 0 0Z"/>
<path transform="matrix(.78413,0,0,-.7841927,161.70822,49.31273)" d="M0 0C0 3.404-2.793 6.164-6.238 6.164-9.686 6.164-12.479 3.404-12.479 0-12.479-3.402-9.686-6.164-6.238-6.164-2.793-6.164 0-3.402 0 0" fill="#f9cd83"/>
<path transform="matrix(.78413,0,0,-.7841927,161.70822,49.31273)" stroke-width="2" stroke-linecap="butt" stroke-miterlimit="4" stroke-linejoin="miter" fill="none" stroke="#231f20" d="M0 0C0 3.404-2.793 6.164-6.238 6.164-9.686 6.164-12.479 3.404-12.479 0-12.479-3.402-9.686-6.164-6.238-6.164-2.793-6.164 0-3.402 0 0Z"/>
<path transform="matrix(.78413,0,0,-.7841927,-2.102974,80.28834)" stroke-width="2" stroke-linecap="butt" stroke-miterlimit="4" stroke-linejoin="miter" fill="none" stroke="#231f20" d="M148.169 39.5H121.16901V12.5H148.169Z"/>
<path transform="matrix(.78413,0,0,-.7841927,118.58106,69.30964)" d="M0 0C0 3.404-2.793 6.164-6.238 6.164-9.686 6.164-12.479 3.404-12.479 0-12.479-3.402-9.686-6.164-6.238-6.164-2.793-6.164 0-3.402 0 0" fill="#ffffff"/>
<path transform="matrix(.78413,0,0,-.7841927,118.58106,69.30964)" stroke-width="2" stroke-linecap="butt" stroke-miterlimit="4" stroke-linejoin="miter" fill="none" stroke="#231f20" d="M0 0C0 3.404-2.793 6.164-6.238 6.164-9.686 6.164-12.479 3.404-12.479 0-12.479-3.402-9.686-6.164-6.238-6.164-2.793-6.164 0-3.402 0 0Z"/>
<path transform="matrix(.78413,0,0,-.7841927,97.80162,69.30964)" d="M0 0C0 3.404-2.793 6.164-6.238 6.164-9.686 6.164-12.479 3.404-12.479 0-12.479-3.402-9.686-6.164-6.238-6.164-2.793-6.164 0-3.402 0 0" fill="#f9cd83"/>
<path transform="matrix(.78413,0,0,-.7841927,97.80162,69.30964)" stroke-width="2" stroke-linecap="butt" stroke-miterlimit="4" stroke-linejoin="miter" fill="none" stroke="#231f20" d="M0 0C0 3.404-2.793 6.164-6.238 6.164-9.686 6.164-12.479 3.404-12.479 0-12.479-3.402-9.686-6.164-6.238-6.164-2.793-6.164 0-3.402 0 0Z"/>
<path transform="matrix(.78413,0,0,-.7841927,98.16686,49.567747)" d="M0 0C0 3.404-2.793 6.164-6.238 6.164-9.686 6.164-12.479 3.404-12.479 0-12.479-3.403-9.686-6.165-6.238-6.165-2.793-6.165 0-3.403 0 0" fill="#ffffff"/>
<path transform="matrix(.78413,0,0,-.7841927,98.16686,49.567747)" stroke-width="2" stroke-linecap="butt" stroke-miterlimit="4" stroke-linejoin="miter" fill="none" stroke="#231f20" d="M0 0C0 3.404-2.793 6.164-6.238 6.164-9.686 6.164-12.479 3.404-12.479 0-12.479-3.403-9.686-6.165-6.238-6.165-2.793-6.165 0-3.403 0 0Z"/>
<path transform="matrix(.78413,0,0,-.7841927,118.97313,49.31273)" d="M0 0C0 3.404-2.793 6.164-6.238 6.164-9.686 6.164-12.479 3.404-12.479 0-12.479-3.402-9.686-6.164-6.238-6.164-2.793-6.164 0-3.402 0 0" fill="#f9cd83"/>
<path transform="matrix(.78413,0,0,-.7841927,118.97313,49.31273)" stroke-width="2" stroke-linecap="butt" stroke-miterlimit="4" stroke-linejoin="miter" fill="none" stroke="#231f20" d="M0 0C0 3.404-2.793 6.164-6.238 6.164-9.686 6.164-12.479 3.404-12.479 0-12.479-3.402-9.686-6.164-6.238-6.164-2.793-6.164 0-3.402 0 0Z"/>
<path transform="matrix(.78413,0,0,-.7841927,-2.102974,80.28834)" stroke-width="2" stroke-linecap="butt" stroke-miterlimit="4" stroke-linejoin="miter" fill="none" stroke="#231f20" d="M92.704 39.325H65.704V12.326H92.704Z"/>
<path transform="matrix(.78413,0,0,-.7841927,75.08906,69.44593)" d="M0 0C0 3.404-2.793 6.164-6.238 6.164-9.686 6.164-12.479 3.404-12.479 0-12.479-3.402-9.686-6.164-6.238-6.164-2.793-6.164 0-3.402 0 0" fill="#f9cd83"/>
<path transform="matrix(.78413,0,0,-.7841927,75.08906,69.44593)" stroke-width="2" stroke-linecap="butt" stroke-miterlimit="4" stroke-linejoin="miter" fill="none" stroke="#231f20" d="M0 0C0 3.404-2.793 6.164-6.238 6.164-9.686 6.164-12.479 3.404-12.479 0-12.479-3.402-9.686-6.164-6.238-6.164-2.793-6.164 0-3.402 0 0Z"/>
<path transform="matrix(.78413,0,0,-.7841927,54.309614,69.44593)" d="M0 0C0 3.404-2.793 6.164-6.238 6.164-9.686 6.164-12.479 3.404-12.479 0-12.479-3.402-9.686-6.164-6.238-6.164-2.793-6.164 0-3.402 0 0" fill="#ffffff"/>
<path transform="matrix(.78413,0,0,-.7841927,54.309614,69.44593)" stroke-width="2" stroke-linecap="butt" stroke-miterlimit="4" stroke-linejoin="miter" fill="none" stroke="#231f20" d="M0 0C0 3.404-2.793 6.164-6.238 6.164-9.686 6.164-12.479 3.404-12.479 0-12.479-3.402-9.686-6.164-6.238-6.164-2.793-6.164 0-3.402 0 0Z"/>
<path transform="matrix(.78413,0,0,-.7841927,54.67447,49.704824)" d="M0 0C0 3.404-2.793 6.164-6.238 6.164-9.686 6.164-12.479 3.404-12.479 0-12.479-3.402-9.686-6.164-6.238-6.164-2.793-6.164 0-3.402 0 0" fill="#f9cd83"/>
<path transform="matrix(.78413,0,0,-.7841927,54.67447,49.704824)" stroke-width="2" stroke-linecap="butt" stroke-miterlimit="4" stroke-linejoin="miter" fill="none" stroke="#231f20" d="M0 0C0 3.404-2.793 6.164-6.238 6.164-9.686 6.164-12.479 3.404-12.479 0-12.479-3.402-9.686-6.164-6.238-6.164-2.793-6.164 0-3.402 0 0Z"/>
<path transform="matrix(.78413,0,0,-.7841927,75.481128,49.449808)" d="M0 0C0 3.404-2.793 6.164-6.238 6.164-9.686 6.164-12.479 3.404-12.479 0-12.479-3.401-9.686-6.163-6.238-6.163-2.793-6.163 0-3.401 0 0" fill="#ffffff"/>
<path transform="matrix(.78413,0,0,-.7841927,75.481128,49.449808)" stroke-width="2" stroke-linecap="butt" stroke-miterlimit="4" stroke-linejoin="miter" fill="none" stroke="#231f20" d="M0 0C0 3.404-2.793 6.164-6.238 6.164-9.686 6.164-12.479 3.404-12.479 0-12.479-3.401-9.686-6.163-6.238-6.163-2.793-6.163 0-3.401 0 0Z"/>
</g>
</g>
</g>
<use data-text="C" xlink:href="#font_3_1" transform="matrix(9.9626,0,0,-9.963397,13.139,22.700016)"/>
<use data-text="1" xlink:href="#font_4_2" transform="matrix(6.9738,0,0,-6.974358,20.260003,24.194136)"/>
<use data-text="C" xlink:href="#font_3_1" transform="matrix(9.9626,0,0,-9.963397,53.787004,22.700016)"/>
<use data-text="2" xlink:href="#font_4_3" transform="matrix(6.9738,0,0,-6.974358,60.906999,24.194136)"/>
<use data-text="C" xlink:href="#font_3_1" transform="matrix(9.9626,0,0,-9.963397,97.82199,22.700016)"/>
<use data-text="3" xlink:href="#font_4_4" transform="matrix(6.9738,0,0,-6.974358,104.941989,24.194136)"/>
<use data-text="C" xlink:href="#font_3_1" transform="matrix(9.9626,0,0,-9.963397,140.163,22.700016)"/>
<use data-text="4" xlink:href="#font_4_5" transform="matrix(6.9738,0,0,-6.974358,147.28299,24.194136)"/>
<use data-text="C" xlink:href="#font_3_1" transform="matrix(9.9626,0,0,-9.963397,182.504,22.700016)"/>
<use data-text="5" xlink:href="#font_4_6" transform="matrix(6.9738,0,0,-6.974358,189.625,24.194136)"/>
<use data-text="C" xlink:href="#font_3_1" transform="matrix(9.9626,0,0,-9.963397,224.845,22.700016)"/>
<use data-text="6" xlink:href="#font_4_7" transform="matrix(6.9738,0,0,-6.974358,231.966,24.194136)"/>
<use data-text="C" xlink:href="#font_3_1" transform="matrix(9.9626,0,0,-9.963397,268.88,22.700016)"/>
<use data-text="7" xlink:href="#font_4_8" transform="matrix(6.9738,0,0,-6.974358,276,24.194136)"/>
<use data-text="C" xlink:href="#font_3_1" transform="matrix(9.9626,0,0,-9.963397,309.527,22.700016)"/>
<use data-text="8" xlink:href="#font_4_9" transform="matrix(6.9738,0,0,-6.974358,316.648,24.194136)"/>
<use data-text="C" xlink:href="#font_3_1" transform="matrix(9.9626,0,0,-9.963397,13.139008,63.350267)"/>
<use data-text="9" xlink:href="#font_4_10" transform="matrix(6.9738,0,0,-6.974358,20.26001,64.84538)"/>
<use data-text="C" xlink:href="#font_3_1" transform="matrix(9.9626,0,0,-9.963397,53.110017,63.350267)"/>
<use data-text="1" xlink:href="#font_4_2" transform="matrix(6.9738,0,0,-6.974358,60.23001,64.84538)"/>
<use data-text="0" xlink:href="#font_4_1" transform="matrix(6.9738,0,0,-6.974358,64.198108,64.84538)"/>
<use data-text="C" xlink:href="#font_3_1" transform="matrix(9.9626,0,0,-9.963397,96.806018,63.350267)"/>
<use data-text="1" xlink:href="#font_4_2" transform="matrix(6.9738,0,0,-6.974358,103.92601,64.84538)"/>
<use data-text="1" xlink:href="#font_4_2" transform="matrix(6.9738,0,0,-6.974358,107.894107,64.84538)"/>
<use data-text="C" xlink:href="#font_3_1" transform="matrix(9.9626,0,0,-9.963397,139.48502,63.350267)"/>
<use data-text="1" xlink:href="#font_4_2" transform="matrix(6.9738,0,0,-6.974358,146.60602,64.84538)"/>
<use data-text="2" xlink:href="#font_4_3" transform="matrix(6.9738,0,0,-6.974358,150.57411,64.84538)"/>
<use data-text="C" xlink:href="#font_3_1" transform="matrix(9.9626,0,0,-9.963397,181.82703,63.350267)"/>
<use data-text="1" xlink:href="#font_4_2" transform="matrix(6.9738,0,0,-6.974358,188.94702,64.84538)"/>
<use data-text="3" xlink:href="#font_4_4" transform="matrix(6.9738,0,0,-6.974358,192.9151,64.84538)"/>
<use data-text="C" xlink:href="#font_3_1" transform="matrix(9.9626,0,0,-9.963397,224.84503,63.350267)"/>
<use data-text="1" xlink:href="#font_4_2" transform="matrix(6.9738,0,0,-6.974358,231.96604,64.84538)"/>
<use data-text="4" xlink:href="#font_4_5" transform="matrix(6.9738,0,0,-6.974358,235.93412,64.84538)"/>
<use data-text="C" xlink:href="#font_3_1" transform="matrix(9.9626,0,0,-9.963397,267.52503,63.350267)"/>
<use data-text="1" xlink:href="#font_4_2" transform="matrix(6.9738,0,0,-6.974358,274.64604,64.84538)"/>
<use data-text="5" xlink:href="#font_4_6" transform="matrix(6.9738,0,0,-6.974358,278.6141,64.84538)"/>
<use data-text="C" xlink:href="#font_3_1" transform="matrix(9.9626,0,0,-9.963397,308.17304,63.350267)"/>
<use data-text="1" xlink:href="#font_4_2" transform="matrix(6.9738,0,0,-6.974358,315.29304,64.84538)"/>
<use data-text="6" xlink:href="#font_4_7" transform="matrix(6.9738,0,0,-6.974358,319.2611,64.84538)"/>
</g>
</svg>
