<svg xmlns="http://www.w3.org/2000/svg" xmlns:xlink="http://www.w3.org/1999/xlink" version="1.1" width="118pt" height="99pt" viewBox="0 0 118 99">
<defs>
<clipPath id="clip_1">
<path transform="matrix(0,-.65001299,-.65001299,-0,116.89839,89.50037)" d="M0 0H126V180H0Z"/>
</clipPath>
<clipPath id="clip_2">
<path transform="matrix(0,-.65001299,-.65001299,-0,116.89839,89.50037)" d="M0 180H126V0H0Z"/>
</clipPath>
<path id="font_3_1" d="M.644989 .69506838C.644989 .69807437 .6429901 .7050781 .6339874 .7050781 .6289978 .7050781 .6279907 .70407107 .6159973 .6900635L.56799319 .6330414C.5419922 .68006899 .48999024 .7050781 .4249878 .7050781 .2979889 .7050781 .17799378 .58999636 .17799378 .4689026 .17799378 .38783265 .23098755 .34179688 .28199769 .32678224L.3889923 .2987671C.42599488 .2897644 .48098756 .27474977 .48098756 .19267273 .48098756 .1026001 .39898683 .008529663 .30099488 .008529663 .23699951 .008529663 .12599182 .030548096 .12599182 .15464783 .12599182 .17866516 .1309967 .2026825 .13198853 .20869446 .1329956 .21269226 .13398743 .21369934 .13398743 .21569824 .13398743 .22570801 .1269989 .22669983 .12199402 .22669983 .116989139 .22669983 .114990238 .22570801 .11199951 .22270203 .10798645 .21870423 .051986696-.009475708 .051986696-.012466431 .051986696-.018463135 .056991579-.022460938 .06298828-.022460938 .067993167-.022460938 .068984989-.021469117 .08099365-.007461548L.12998963 .049560548C.17298889-.008468628 .24099732-.022460938 .29899598-.022460938 .43499757-.022460938 .5529938 .11061096 .5529938 .2347107 .5529938 .30377198 .5189972 .33779908 .5039978 .35180665 .48098756 .37483216 .46598817 .37882997 .3769989 .40185548 .35499574 .40785218 .31900025 .41786195 .30999757 .41986085 .2829895 .42886354 .24899292 .457901 .24899292 .51094058 .24899292 .59199526 .32899476 .677063 .42399598 .677063 .5069885 .677063 .56799319 .6340332 .56799319 .52194216 .56799319 .48991395 .56399539 .47190858 .56399539 .4658966 .56399539 .4649048 .56399539 .45588685 .57598879 .45588685 .58599856 .45588685 .58699038 .45889283 .59098818 .47590638L.644989 .69506838Z"/>
<path id="font_3_2" d="M.4269867 .6066284C.43399049 .63461306 .43798829 .64060977 .44999696 .6436157 .45899964 .6456146 .49198915 .6456146 .5130005 .6456146 .6139984 .6456146 .6589966 .6416168 .6589966 .56365969 .6589966 .54867556 .6549988 .50968936 .651001 .4837036 .6499939 .4797058 .647995 .4677124 .647995 .46472169 .647995 .45872499 .651001 .45173646 .6599884 .45173646 .67099 .45173646 .6729889 .45973207 .6749878 .4747162L.70199587 .64860537C.7029877 .65260317 .70399478 .6626129 .70399478 .66560366 .70399478 .6766052 .69400027 .6766052 .6769867 .6766052H.12199402C.09799194 .6766052 .09700012 .6756134 .08999634 .6566162L.02999878 .4807129C.0289917 .478714 .023986817 .46472169 .023986817 .46272279 .023986817 .45672608 .0289917 .45173646 .035995485 .45173646 .04598999 .45173646 .04699707 .45672608 .052993776 .4727173 .10699463 .6276245 .1329956 .6456146 .2809906 .6456146H.31999208C.34799195 .6456146 .34799195 .6416168 .34799195 .6336212 .34799195 .6276245 .34498597 .6156311 .34399415 .6126251L.20999146 .07896423C.20098877 .041992189 .19799805 .0309906 .09098816 .0309906 .054992677 .0309906 .04899597 .0309906 .04899597 .011993408 .04899597 0 .05999756 0 .06599426 0 .09298706 0 .12098694 .0019989014 .147995 .0019989014 .17599488 .0019989014 .20498657 .0029907227 .23298645 .0029907227 .26098634 .0029907227 .2889862 .0019989014 .31599427 .0019989014 .34498597 .0019989014 .375 0 .40299989 0 .41299439 0 .4249878 0 .4249878 .019989014 .4249878 .0309906 .4169922 .0309906 .3909912 .0309906 .3659973 .0309906 .35299684 .0309906 .32699586 .032989503 .2979889 .035995485 .2899933 .038986207 .2899933 .054977418 .2899933 .05596924 .2899933 .06097412 .2939911 .07595825L.4269867 .6066284Z"/>
<path id="font_3_3" d="M.33399964 .30233766C.33999635 .32835389 .36299134 .42037965 .43299867 .42037965 .43798829 .42037965 .46199037 .42037965 .48298646 .40734864 .45498658 .402359 .43499757 .37734986 .43499757 .35334779 .43499757 .33735658 .44599916 .31835938 .47299195 .31835938 .49499513 .31835938 .5269928 .3363495 .5269928 .37635804 .5269928 .42837525 .46798707 .4423828 .43399049 .4423828 .37599183 .4423828 .34098817 .38935853 .32899476 .36634828 .3039856 .43237306 .25 .4423828 .22099304 .4423828 .116989139 .4423828 .05999756 .3133545 .05999756 .28834535 .05999756 .27833558 .069992069 .27833558 .07199097 .27833558 .07998657 .27833558 .08299255 .28033448 .084991458 .28933717 .11898804 .39535523 .18499756 .42037965 .21899414 .42037965 .23799134 .42037965 .272995 .4113617 .272995 .35334779 .272995 .32235719 .2559967 .25532533 .21899414 .11528015 .20298767 .053268434 .16799927 .011245728 .12399292 .011245728 .117996219 .011245728 .09498596 .011245728 .07398987 .024276734 .09899902 .029266358 .12098694 .05027771 .12098694 .07827759 .12098694 .105270389 .09899902 .11328125 .083999637 .11328125 .053985597 .11328125 .0289917 .08728027 .0289917 .055267335 .0289917 .009246826 .07899475-.0107421879 .12298584-.0107421879 .18899536-.0107421879 .22499085 .059280397 .22799683 .0652771 .23999024 .028274537 .27598573-.0107421879 .33599855-.0107421879 .43899537-.0107421879 .49598695 .118270877 .49598695 .14328003 .49598695 .1532898 .4869995 .1532898 .48399354 .1532898 .47499085 .1532898 .47299195 .14929199 .47099305 .14228821 .43798829 .03527832 .36999513 .011245728 .33799745 .011245728 .29899598 .011245728 .2829895 .043273927 .2829895 .07727051 .2829895 .09927368 .2889862 .121276859 .2999878 .16529846L.33399964 .30233766Z"/>
<path id="font_4_1" d="M.33499146 .63612368C.33499146 .6630554 .33299256 .6640625 .30499269 .6640625 .24099732 .6014404 .1499939 .6004486 .10899353 .6004486V.5644531C.1329956 .5644531 .19898987 .5644531 .2539978 .592453V.08203125C.2539978 .04899597 .2539978 .035995485 .1539917 .035995485H.115997318V0C.13398743 .0009918213 .25698854 .0039978029 .2939911 .0039978029 .32499696 .0039978029 .45098878 .0009918213 .47299195 0V.035995485H.43499757C.33499146 .035995485 .33499146 .04899597 .33499146 .08203125V.63612368Z"/>
<path id="font_4_2" d="M.1499939 .3274536C.1499939 .40945436 .15699768 .48303224 .19499207 .543869 .22898865 .5978699 .2829895 .63505557 .34700013 .63505557 .3769989 .63505557 .4169922 .62701418 .43699647 .5998688 .4119873 .5978699 .3909912 .5808716 .3909912 .5518799 .3909912 .5268707 .4079895 .5048828 .43798829 .5048828 .46798707 .5048828 .48599244 .5248718 .48599244 .5538788 .48599244 .6119385 .44400025 .6640625 .34498597 .6640625 .20098877 .6640625 .053985597 .5318756 .053985597 .3174591 .053985597 .05845642 .17599488-.01953125 .28599549-.01953125 .4079895-.01953125 .5139923 .07345581 .5139923 .20445252 .5139923 .33145143 .41299439 .42546083 .29599 .42546083 .21598816 .42546083 .17199707 .37245179 .1499939 .3274536M.28599549 .012466431C.23599243 .012466431 .19699097 .04145813 .17599488 .08546448 .16099549 .11546326 .15299988 .16545105 .15299988 .22544861 .15299988 .32244874 .21099854 .39746095 .29100038 .39746095 .33699037 .39746095 .36799623 .37945558 .3929901 .342453 .4169922 .30445863 .41799928 .26245118 .41799928 .20445252 .41799928 .14746094 .41799928 .10545349 .3909912 .066467288 .36698915 .031463624 .33499146 .012466431 .28599549 .012466431Z"/>
<path id="font_3_4" d="M.48599244 .38136292C.48999024 .39537049 .48999024 .39736939 .48999024 .40437318 .48999024 .42237855 .47599793 .43138124 .46099855 .43138124 .45098878 .43138124 .43499757 .42536927 .42599488 .41036988 .42399598 .405365 .41600038 .37435914 .4119873 .35635377 .40499879 .33035279 .397995 .30334474 .3919983 .27633668L.34700013 .09628296C.34298707 .08126831 .2999878 .011245728 .23399353 .011245728 .18299866 .011245728 .17199707 .055267335 .17199707 .0922699 .17199707 .1382904 .18899536 .20030213 .22299195 .28833009 .23899842 .3293457 .24299622 .3403473 .24299622 .36035157 .24299622 .405365 .21099854 .4423828 .16099549 .4423828 .06599426 .4423828 .0289917 .29733277 .0289917 .28833009 .0289917 .27833558 .038986207 .27833558 .040985109 .27833558 .050994874 .27833558 .051986696 .28033448 .056991579 .29634095 .083999637 .3903656 .12399292 .42037965 .1579895 .42037965 .1659851 .42037965 .18299866 .42037965 .18299866 .3883667 .18299866 .36335755 .17298889 .3373413 .1659851 .31834413 .12599182 .21231079 .10798645 .1552887 .10798645 .10827637 .10798645 .019256592 .17098999-.0107421879 .22999573-.0107421879 .2689972-.0107421879 .30299378 .0062561037 .33099366 .03425598 .31799317-.017745972 .30599977-.06674194 .2659912-.11973572 .23999024-.15385437 .20199585-.18309021 .1559906-.18309021 .14199829-.18309021 .09700012-.18005371 .07998657-.14074707 .09599304-.14074707 .10899353-.14074707 .12298584-.1287384 .1329956-.11973572 .14299011-.10673523 .14299011-.08773804 .14299011-.056747438 .115997318-.052734376 .10598755-.052734376 .08299255-.052734376 .049987794-.068740848 .049987794-.11773682 .049987794-.16796875 .09399414-.20507813 .1559906-.20507813 .25898744-.20507813 .3619995-.11373901 .3899994-.00074768069L.48599244 .38136292Z"/>
<path id="font_4_3" d="M.5349884 .6045227C.54499819 .6165161 .54499819 .6185303 .54499819 .64453127H.2829895C.24299622 .64453127 .23199463 .6455078 .19599915 .6484375 .14399719 .65234377 .14199829 .6592407 .13899231 .676239H.10499573L.069992069 .46250917H.10398865C.10598755 .47750855 .115997318 .54351809 .13198853 .5535126 .13999939 .55952456 .22099304 .55952456 .23599243 .55952456H.45399476C.42199708 .5175171 .37098695 .45550538 .34999085 .4275055 .21899414 .25549317 .20698548 .096466068 .20698548 .037460329 .20698548 .02645874 .20698548-.01953125 .2539978-.01953125 .3019867-.01953125 .3019867 .025466919 .3019867 .038467409V.07847595C.3019867 .27249146 .34199525 .36149598 .3849945 .41551209L.5349884 .6045227Z"/>
</defs>
<g clip-path="url(#clip_1)">
<g id="layer_1" data-name="Layer 2">
<path transform="matrix(0,-.65001299,-.65001299,-0,59.21923,82.35913)" d="M0 0 32.314 68.545" fill="#f9cd83"/>
<path transform="matrix(0,-.65001299,-.65001299,-0,59.21923,82.35913)" stroke-width="3" stroke-linecap="butt" stroke-miterlimit="4" stroke-linejoin="miter" fill="none" stroke="#231f20" d="M0 0 32.314 68.545"/>
<path transform="matrix(0,-.65001299,-.65001299,-0,32.205339,61.586339)" d="M0 0-31.958-41.559" fill="#f9cd83"/>
<path transform="matrix(0,-.65001299,-.65001299,-0,32.205339,61.586339)" stroke-width="3" stroke-linecap="butt" stroke-miterlimit="4" stroke-linejoin="miter" fill="none" stroke="#231f20" d="M0 0-31.958-41.559"/>
<path transform="matrix(0,-.65001299,-.65001299,-0,59.21923,82.35913)" stroke-width="3" stroke-linecap="butt" stroke-miterlimit="4" stroke-linejoin="miter" fill="none" stroke="#231f20" d="M0 0 32.276 14.611"/>
<path transform="matrix(0,-.65001299,-.65001299,-0,67.43331,61.555856)" d="M0 0-32.004 12.637" fill="#f9cd83"/>
<path transform="matrix(0,-.65001299,-.65001299,-0,67.43331,61.555856)" stroke-width="3" stroke-linecap="butt" stroke-miterlimit="4" stroke-linejoin="miter" fill="none" stroke="#231f20" d="M0 0-32.004 12.637"/>
<path transform="matrix(0,-.65001299,-.65001299,-0,59.92768,81.827808)" stroke-width="1" stroke-linecap="butt" stroke-miterlimit="4" stroke-linejoin="miter" fill="none" stroke="#231f20" d="M0 0 31.459-38.248"/>
<path transform="matrix(0,-.65001299,-.65001299,-0,102.080768,61.813585)" d="M0 0-31.608 65.939" fill="#f9cd83"/>
<path transform="matrix(0,-.65001299,-.65001299,-0,102.080768,61.813585)" stroke-width="3" stroke-linecap="butt" stroke-miterlimit="4" stroke-linejoin="miter" fill="none" stroke="#231f20" d="M0 0-31.608 65.939"/>
<path transform="matrix(0,-.65001299,-.65001299,-0,5.8147509,32.184957)" d="M0 0 29.351-82.158" fill="#f9cd83"/>
<path transform="matrix(0,-.65001299,-.65001299,-0,5.8147509,32.184957)" stroke-width="3" stroke-linecap="butt" stroke-miterlimit="4" stroke-linejoin="miter" fill="none" stroke="#231f20" d="M0 0 29.351-82.158"/>
<path transform="matrix(0,-.65001299,-.65001299,-0,60.10481,12.752495)" stroke-width="3" stroke-linecap="butt" stroke-miterlimit="4" stroke-linejoin="miter" fill="none" stroke="#231f20" d="M0 0-30.122 56.3"/>
<path transform="matrix(0,-.65001299,-.65001299,-0,41.507356,32.412847)" stroke-width="1" stroke-linecap="butt" stroke-miterlimit="4" stroke-linejoin="miter" fill="none" stroke="#231f20" d="M0 0 29.974-26.431"/>
<path transform="matrix(0,-.65001299,-.65001299,-0,60.10481,12.752495)" d="M0 0-29.85 2.622" fill="#f9cd83"/>
<path transform="matrix(0,-.65001299,-.65001299,-0,60.10481,12.752495)" stroke-width="3" stroke-linecap="butt" stroke-miterlimit="4" stroke-linejoin="miter" fill="none" stroke="#231f20" d="M0 0-29.85 2.622"/>
<path transform="matrix(0,-.65001299,-.65001299,-0,77.10797,32.412847)" d="M0 0 29.701 27.521" fill="#f9cd83"/>
<path transform="matrix(0,-.65001299,-.65001299,-0,77.10797,32.412847)" stroke-width="3" stroke-linecap="butt" stroke-miterlimit="4" stroke-linejoin="miter" fill="none" stroke="#231f20" d="M0 0 29.701 27.521"/>
<path transform="matrix(0,-.65001299,-.65001299,-0,59.218648,13.106682)" d="M0 0-29.701-53.951" fill="#f9cd83"/>
<path transform="matrix(0,-.65001299,-.65001299,-0,59.218648,13.106682)" stroke-width="3" stroke-linecap="butt" stroke-miterlimit="4" stroke-linejoin="miter" fill="none" stroke="#231f20" d="M0 0-29.701-53.951"/>
<path transform="matrix(0,-.65001299,-.65001299,-0,111.37517,32.362085)" stroke-width="1" stroke-linecap="butt" stroke-miterlimit="4" stroke-linejoin="miter" fill="none" stroke="#231f20" d="M0 0 29.623 80.239"/>
</g>
<g id="layer_1" data-name="Layer 1">
<path transform="matrix(0,-.65001299,-.65001299,-0,84.789379,57.323167)" stroke-width="1" stroke-linecap="butt" stroke-miterlimit="4" stroke-linejoin="miter" fill="none" stroke="#231f20" d="M0 0 32.679 12.506"/>
<path transform="matrix(0,-.65001299,-.65001299,-0,76.660449,36.081258)" d="M0 0-33.243 13.622" fill="#f9cd83"/>
<path transform="matrix(0,-.65001299,-.65001299,-0,76.660449,36.081258)" stroke-width="3" stroke-linecap="butt" stroke-miterlimit="4" stroke-linejoin="miter" fill="none" stroke="#231f20" d="M0 0-33.243 13.622"/>
<path transform="matrix(0,-.65001299,-.65001299,-0,76.129779,36.613168)" stroke-width="1" stroke-linecap="butt" stroke-miterlimit="4" stroke-linejoin="miter" fill="none" stroke="#231f20" d="M0 0-32.425 39.509"/>
<path transform="matrix(0,-.65001299,-.65001299,-0,58.40041,36.210744)" stroke-width="1" stroke-linecap="butt" stroke-miterlimit="4" stroke-linejoin="miter" fill="none" stroke="#231f20" d="M0 0-33.044-14.47"/>
<path transform="matrix(0,-.65001299,-.65001299,-0,58.40041,36.210744)" stroke-width="3" stroke-linecap="butt" stroke-miterlimit="4" stroke-linejoin="miter" fill="none" stroke="#231f20" d="M0 0-33.044 13.051"/>
<path transform="matrix(0,-.65001299,-.65001299,-0,102.51874,57.866838)" stroke-width="3" stroke-linecap="butt" stroke-miterlimit="4" stroke-linejoin="miter" fill="none" stroke="#231f20" d="M0 0 33.242 12.805"/>
<path transform="matrix(0,-.65001299,-.65001299,-0,103.05071,57.51264)" stroke-width="1" stroke-linecap="butt" stroke-miterlimit="4" stroke-linejoin="miter" fill="none" stroke="#231f20" d="M0 0 32.453-12.807"/>
<path transform="matrix(0,-.65001299,-.65001299,-0,101.98807,57.158388)" d="M0 0 31.607 67.029" fill="#f9cd83"/>
<path transform="matrix(0,-.65001299,-.65001299,-0,101.98807,57.158388)" stroke-width="1" stroke-linecap="butt" stroke-miterlimit="4" stroke-linejoin="miter" fill="none" stroke="#231f20" d="M0 0 31.607 67.029"/>
<path transform="matrix(0,-.65001299,-.65001299,-0,94.19552,36.258974)" d="M0 0-32.97 121.253" fill="#f9cd83"/>
<path transform="matrix(0,-.65001299,-.65001299,-0,94.19552,36.258974)" stroke-width="1" stroke-linecap="butt" stroke-miterlimit="4" stroke-linejoin="miter" fill="none" stroke="#231f20" d="M0 0-32.97 121.253"/>
<path transform="matrix(0,-.65001299,-.65001299,-0,32.205339,57.530714)" stroke-width="1" stroke-linecap="butt" stroke-miterlimit="4" stroke-linejoin="miter" fill="none" stroke="#231f20" d="M0 0 32.454-39.509"/>
<path transform="matrix(0,-.65001299,-.65001299,-0,31.496895,58.0439)" d="M0 0 33.515 38.147" fill="#f9cd83"/>
<path transform="matrix(0,-.65001299,-.65001299,-0,31.496895,58.0439)" stroke-width="3" stroke-linecap="butt" stroke-miterlimit="4" stroke-linejoin="miter" fill="none" stroke="#231f20" d="M0 0 33.515 38.147"/>
<path transform="matrix(0,-.65001299,-.65001299,-0,15.379234,57.158388)" stroke-width="3" stroke-linecap="butt" stroke-miterlimit="4" stroke-linejoin="miter" fill="none" stroke="#231f20" d="M0 0 31.954-12.507"/>
<path transform="matrix(0,-.65001299,-.65001299,-0,32.205339,57.530714)" stroke-width="1" stroke-linecap="butt" stroke-miterlimit="4" stroke-linejoin="miter" fill="none" stroke="#231f20" d="M0 0 32.799-13.324"/>
<path transform="matrix(0,-.65001299,-.65001299,-0,15.910561,57.51264)" stroke-width="1" stroke-linecap="butt" stroke-miterlimit="4" stroke-linejoin="miter" fill="none" stroke="#231f20" d="M0 0 32.771-38.393"/>
<path transform="matrix(0,-.65001299,-.65001299,-0,14.663826,57.29872)" stroke-width="1" stroke-linecap="butt" stroke-miterlimit="4" stroke-linejoin="miter" fill="none" stroke="#231f20" d="M0 0 32.368 12.251"/>
<g clip-path="url(#clip_2)">
<path transform="matrix(0,-.65001299,-.65001299,-0,14.663826,57.29872)" d="M0 0C0 3.404-2.793 6.164-6.238 6.164-9.686 6.164-12.479 3.404-12.479 0-12.479-3.402-9.686-6.164-6.238-6.164-2.793-6.164 0-3.402 0 0" fill="#f9cd83"/>
<path transform="matrix(0,-.65001299,-.65001299,-0,14.663826,57.29872)" stroke-width="2" stroke-linecap="butt" stroke-miterlimit="4" stroke-linejoin="miter" fill="none" stroke="#231f20" d="M0 0C0 3.404-2.793 6.164-6.238 6.164-9.686 6.164-12.479 3.404-12.479 0-12.479-3.402-9.686-6.164-6.238-6.164-2.793-6.164 0-3.402 0 0Z"/>
<path transform="matrix(0,-.65001299,-.65001299,-0,32.205339,57.530714)" d="M0 0C0 3.404-2.793 6.164-6.238 6.164-9.686 6.164-12.479 3.404-12.479 0-12.479-3.402-9.686-6.164-6.238-6.164-2.793-6.164 0-3.402 0 0" fill="#f9cd83"/>
<path transform="matrix(0,-.65001299,-.65001299,-0,32.205339,57.530714)" stroke-width="2" stroke-linecap="butt" stroke-miterlimit="4" stroke-linejoin="miter" fill="none" stroke="#231f20" d="M0 0C0 3.404-2.793 6.164-6.238 6.164-9.686 6.164-12.479 3.404-12.479 0-12.479-3.402-9.686-6.164-6.238-6.164-2.793-6.164 0-3.402 0 0Z"/>
<path transform="matrix(0,-.65001299,-.65001299,-0,49.722024,57.323427)" d="M0 0C0 3.404-2.793 6.164-6.238 6.164-9.686 6.164-12.479 3.404-12.479 0-12.479-3.402-9.686-6.164-6.238-6.164-2.793-6.164 0-3.402 0 0" fill="#f9cd83"/>
<path transform="matrix(0,-.65001299,-.65001299,-0,49.722024,57.323427)" stroke-width="2" stroke-linecap="butt" stroke-miterlimit="4" stroke-linejoin="miter" fill="none" stroke="#231f20" d="M0 0C0 3.404-2.793 6.164-6.238 6.164-9.686 6.164-12.479 3.404-12.479 0-12.479-3.402-9.686-6.164-6.238-6.164-2.793-6.164 0-3.402 0 0Z"/>
<path transform="matrix(0,-.65001299,-.65001299,-0,67.4339,57.50023)" d="M0 0C0 3.405-2.793 6.165-6.238 6.165-9.686 6.165-12.479 3.405-12.479 0-12.479-3.402-9.686-6.163-6.238-6.163-2.793-6.163 0-3.402 0 0" fill="#f9cd83"/>
<path transform="matrix(0,-.65001299,-.65001299,-0,67.4339,57.50023)" stroke-width="2" stroke-linecap="butt" stroke-miterlimit="4" stroke-linejoin="miter" fill="none" stroke="#231f20" d="M0 0C0 3.405-2.793 6.165-6.238 6.165-9.686 6.165-12.479 3.405-12.479 0-12.479-3.402-9.686-6.163-6.238-6.163-2.793-6.163 0-3.402 0 0Z"/>
<path transform="matrix(0,-.65001299,-.65001299,-0,84.789379,57.323167)" d="M0 0C0 3.404-2.793 6.164-6.238 6.164-9.686 6.164-12.479 3.404-12.479 0-12.479-3.402-9.686-6.164-6.238-6.164-2.793-6.164 0-3.402 0 0" fill="#f9cd83"/>
<path transform="matrix(0,-.65001299,-.65001299,-0,84.789379,57.323167)" stroke-width="2" stroke-linecap="butt" stroke-miterlimit="4" stroke-linejoin="miter" fill="none" stroke="#231f20" d="M0 0C0 3.404-2.793 6.164-6.238 6.164-9.686 6.164-12.479 3.404-12.479 0-12.479-3.402-9.686-6.164-6.238-6.164-2.793-6.164 0-3.402 0 0Z"/>
<path transform="matrix(0,-.65001299,-.65001299,-0,102.50223,57.323427)" d="M0 0C0 3.404-2.793 6.164-6.238 6.164-9.686 6.164-12.479 3.404-12.479 0-12.479-3.402-9.686-6.164-6.238-6.164-2.793-6.164 0-3.402 0 0" fill="#f9cd83"/>
<path transform="matrix(0,-.65001299,-.65001299,-0,102.50223,57.323427)" stroke-width="2" stroke-linecap="butt" stroke-miterlimit="4" stroke-linejoin="miter" fill="none" stroke="#231f20" d="M0 0C0 3.404-2.793 6.164-6.238 6.164-9.686 6.164-12.479 3.404-12.479 0-12.479-3.402-9.686-6.164-6.238-6.164-2.793-6.164 0-3.402 0 0Z"/>
<path transform="matrix(0,-.65001299,-.65001299,-0,5.8147509,28.12939)" d="M0 0C0 3.404-2.793 6.164-6.238 6.164-9.686 6.164-12.479 3.404-12.479 0-12.479-3.402-9.686-6.164-6.238-6.164-2.793-6.164 0-3.402 0 0" fill="#f9cd83"/>
<path transform="matrix(0,-.65001299,-.65001299,-0,5.8147509,28.12939)" stroke-width="2" stroke-linecap="butt" stroke-miterlimit="4" stroke-linejoin="miter" fill="none" stroke="#231f20" d="M0 0C0 3.404-2.793 6.164-6.238 6.164-9.686 6.164-12.479 3.404-12.479 0-12.479-3.402-9.686-6.164-6.238-6.164-2.793-6.164 0-3.402 0 0Z"/>
<path transform="matrix(0,-.65001299,-.65001299,-0,23.509148,28.276619)" d="M0 0C0 3.404-2.793 6.164-6.238 6.164-9.686 6.164-12.479 3.404-12.479 0-12.479-3.402-9.686-6.164-6.238-6.164-2.793-6.164 0-3.402 0 0" fill="#f9cd83"/>
<path transform="matrix(0,-.65001299,-.65001299,-0,23.509148,28.276619)" stroke-width="2" stroke-linecap="butt" stroke-miterlimit="4" stroke-linejoin="miter" fill="none" stroke="#231f20" d="M0 0C0 3.404-2.793 6.164-6.238 6.164-9.686 6.164-12.479 3.404-12.479 0-12.479-3.402-9.686-6.164-6.238-6.164-2.793-6.164 0-3.402 0 0Z"/>
<path transform="matrix(0,-.65001299,-.65001299,-0,40.86624,28.099556)" d="M0 0C0 3.404-2.793 6.164-6.238 6.164-9.686 6.164-12.479 3.404-12.479 0-12.479-3.402-9.686-6.164-6.238-6.164-2.793-6.164 0-3.402 0 0" fill="#f9cd83"/>
<path transform="matrix(0,-.65001299,-.65001299,-0,40.86624,28.099556)" stroke-width="2" stroke-linecap="butt" stroke-miterlimit="4" stroke-linejoin="miter" fill="none" stroke="#231f20" d="M0 0C0 3.404-2.793 6.164-6.238 6.164-9.686 6.164-12.479 3.404-12.479 0-12.479-3.402-9.686-6.164-6.238-6.164-2.793-6.164 0-3.402 0 0Z"/>
<path transform="matrix(0,-.65001299,-.65001299,-0,58.40041,28.099556)" d="M0 0C0 3.404-2.793 6.164-6.238 6.164-9.686 6.164-12.479 3.404-12.479 0-12.479-3.402-9.686-6.164-6.238-6.164-2.793-6.164 0-3.402 0 0" fill="#f9cd83"/>
<path transform="matrix(0,-.65001299,-.65001299,-0,58.40041,28.099556)" stroke-width="2" stroke-linecap="butt" stroke-miterlimit="4" stroke-linejoin="miter" fill="none" stroke="#231f20" d="M0 0C0 3.404-2.793 6.164-6.238 6.164-9.686 6.164-12.479 3.404-12.479 0-12.479-3.402-9.686-6.164-6.238-6.164-2.793-6.164 0-3.402 0 0Z"/>
<path transform="matrix(0,-.65001299,-.65001299,-0,76.11073,28.100144)" d="M0 0C0 3.404-2.793 6.164-6.238 6.164-9.686 6.164-12.479 3.404-12.479 0-12.479-3.402-9.686-6.164-6.238-6.164-2.793-6.164 0-3.402 0 0" fill="#f9cd83"/>
<path transform="matrix(0,-.65001299,-.65001299,-0,76.11073,28.100144)" stroke-width="2" stroke-linecap="butt" stroke-miterlimit="4" stroke-linejoin="miter" fill="none" stroke="#231f20" d="M0 0C0 3.404-2.793 6.164-6.238 6.164-9.686 6.164-12.479 3.404-12.479 0-12.479-3.402-9.686-6.164-6.238-6.164-2.793-6.164 0-3.402 0 0Z"/>
<path transform="matrix(0,-.65001299,-.65001299,-0,93.645809,28.099556)" d="M0 0C0 3.404-2.793 6.164-6.238 6.164-9.686 6.164-12.479 3.404-12.479 0-12.479-3.402-9.686-6.164-6.238-6.164-2.793-6.164 0-3.402 0 0" fill="#f9cd83"/>
<path transform="matrix(0,-.65001299,-.65001299,-0,93.645809,28.099556)" stroke-width="2" stroke-linecap="butt" stroke-miterlimit="4" stroke-linejoin="miter" fill="none" stroke="#231f20" d="M0 0C0 3.404-2.793 6.164-6.238 6.164-9.686 6.164-12.479 3.404-12.479 0-12.479-3.402-9.686-6.164-6.238-6.164-2.793-6.164 0-3.402 0 0Z"/>
<path transform="matrix(0,-.65001299,-.65001299,-0,111.37517,28.306454)" d="M0 0C0 3.404-2.793 6.164-6.238 6.164-9.686 6.164-12.479 3.404-12.479 0-12.479-3.402-9.686-6.164-6.238-6.164-2.793-6.164 0-3.402 0 0" fill="#f9cd83"/>
<path transform="matrix(0,-.65001299,-.65001299,-0,111.37517,28.306454)" stroke-width="2" stroke-linecap="butt" stroke-miterlimit="4" stroke-linejoin="miter" fill="none" stroke="#231f20" d="M0 0C0 3.404-2.793 6.164-6.238 6.164-9.686 6.164-12.479 3.404-12.479 0-12.479-3.402-9.686-6.164-6.238-6.164-2.793-6.164 0-3.402 0 0Z"/>
<path transform="matrix(0,-.65001299,-.65001299,-0,58.594636,78.607257)" d="M0 0C0 3.404-2.793 6.164-6.238 6.164-9.686 6.164-12.479 3.404-12.479 0-12.479-3.402-9.686-6.164-6.238-6.164-2.793-6.164 0-3.402 0 0" fill="#f9cd83"/>
<path transform="matrix(0,-.65001299,-.65001299,-0,58.594636,78.607257)" stroke-width="2" stroke-linecap="butt" stroke-miterlimit="4" stroke-linejoin="miter" fill="none" stroke="#231f20" d="M0 0C0 3.404-2.793 6.164-6.238 6.164-9.686 6.164-12.479 3.404-12.479 0-12.479-3.402-9.686-6.164-6.238-6.164-2.793-6.164 0-3.402 0 0Z"/>
<path transform="matrix(0,-.65001299,-.65001299,-0,59.218648,9.051117)" d="M0 0C0 3.404-2.793 6.164-6.238 6.164-9.686 6.164-12.479 3.404-12.479 0-12.479-3.403-9.686-6.165-6.238-6.165-2.793-6.165 0-3.403 0 0" fill="#f9cd83"/>
<path transform="matrix(0,-.65001299,-.65001299,-0,59.218648,9.051117)" stroke-width="2" stroke-linecap="butt" stroke-miterlimit="4" stroke-linejoin="miter" fill="none" stroke="#231f20" d="M0 0C0 3.404-2.793 6.164-6.238 6.164-9.686 6.164-12.479 3.404-12.479 0-12.479-3.403-9.686-6.165-6.238-6.165-2.793-6.165 0-3.403 0 0Z"/>
</g>
</g>
</g>
<use data-text="S" xlink:href="#font_3_1" transform="matrix(9.962799,0,0,-9.962799,56.055788,96.51949)"/>
<use data-text="T" xlink:href="#font_3_2" transform="matrix(9.962799,0,0,-9.962799,56.055788,7.5997107)"/>
<use data-text="x" xlink:href="#font_3_3" transform="matrix(9.962799,0,0,-9.962799,10.425865,74.290058)"/>
<use data-text="1" xlink:href="#font_4_1" transform="matrix(6.97394,0,0,-6.97394,16.11998,75.78407)"/>
<use data-text="x" xlink:href="#font_3_3" transform="matrix(9.962799,0,0,-9.962799,99.34564,74.290058)"/>
<use data-text="6" xlink:href="#font_4_2" transform="matrix(6.97394,0,0,-6.97394,105.039768,75.78407)"/>
<use data-text="y" xlink:href="#font_3_4" transform="matrix(9.962799,0,0,-9.962799,3.4067307,23.98004)"/>
<use data-text="1" xlink:href="#font_4_1" transform="matrix(6.97394,0,0,-6.97394,8.2908329,25.47407)"/>
<use data-text="y" xlink:href="#font_3_4" transform="matrix(9.962799,0,0,-9.962799,107.53581,23.98004)"/>
<use data-text="7" xlink:href="#font_4_3" transform="matrix(6.97394,0,0,-6.97394,112.4209,25.47407)"/>
</svg>
