<?xml version="1.0" encoding="UTF-8"?>
<svg xmlns="http://www.w3.org/2000/svg" xmlns:xlink="http://www.w3.org/1999/xlink" width="186pt" height="214pt" viewBox="0 0 186 214" version="1.1">
<g id="surface1">
<path style="fill-rule:nonzero;fill:rgb(50%,50%,50%);fill-opacity:1;stroke-width:0.69739;stroke-linecap:butt;stroke-linejoin:miter;stroke:rgb(0%,0%,0%);stroke-opacity:1;stroke-miterlimit:10;" d="M 34.01414 28.346031 C 34.01414 31.478844 31.479034 34.017906 28.346284 34.017906 C 25.217441 34.017906 22.678429 31.478844 22.678429 28.346031 C 22.678429 25.217125 25.217441 22.678063 28.346284 22.678063 C 31.479034 22.678063 34.01414 25.217125 34.01414 28.346031 Z M 34.01414 28.346031 " transform="matrix(1.00002,0,0,-1,-20.432789,234.389)"/>
<path style="fill:none;stroke-width:0.69739;stroke-linecap:butt;stroke-linejoin:miter;stroke:rgb(0%,0%,0%);stroke-opacity:1;stroke-miterlimit:10;" d="M 34.01414 56.693688 C 34.01414 59.8265 31.479034 62.361656 28.346284 62.361656 C 25.217441 62.361656 22.678429 59.8265 22.678429 56.693688 C 22.678429 53.560875 25.217441 51.025719 28.346284 51.025719 C 31.479034 51.025719 34.01414 53.560875 34.01414 56.693688 Z M 34.01414 56.693688 " transform="matrix(1.00002,0,0,-1,-20.432789,234.389)"/>
<path style="fill:none;stroke-width:0.69739;stroke-linecap:butt;stroke-linejoin:miter;stroke:rgb(0%,0%,0%);stroke-opacity:1;stroke-miterlimit:10;" d="M 34.01414 85.041344 C 34.01414 88.17025 31.479034 90.709313 28.346284 90.709313 C 25.217441 90.709313 22.678429 88.17025 22.678429 85.041344 C 22.678429 81.908531 25.217441 79.369469 28.346284 79.369469 C 31.479034 79.369469 34.01414 81.908531 34.01414 85.041344 Z M 34.01414 85.041344 " transform="matrix(1.00002,0,0,-1,-20.432789,234.389)"/>
<path style="fill:none;stroke-width:0.69739;stroke-linecap:butt;stroke-linejoin:miter;stroke:rgb(0%,0%,0%);stroke-opacity:1;stroke-miterlimit:10;" d="M 34.01414 113.389 C 34.01414 116.517906 31.479034 119.056969 28.346284 119.056969 C 25.217441 119.056969 22.678429 116.517906 22.678429 113.389 C 22.678429 110.256188 25.217441 107.717125 28.346284 107.717125 C 31.479034 107.717125 34.01414 110.256188 34.01414 113.389 Z M 34.01414 113.389 " transform="matrix(1.00002,0,0,-1,-20.432789,234.389)"/>
<path style="fill:none;stroke-width:0.69739;stroke-linecap:butt;stroke-linejoin:miter;stroke:rgb(0%,0%,0%);stroke-opacity:1;stroke-miterlimit:10;" d="M 34.01414 141.73275 C 34.01414 144.865563 31.479034 147.404625 28.346284 147.404625 C 25.217441 147.404625 22.678429 144.865563 22.678429 141.73275 C 22.678429 138.603844 25.217441 136.064781 28.346284 136.064781 C 31.479034 136.064781 34.01414 138.603844 34.01414 141.73275 Z M 34.01414 141.73275 " transform="matrix(1.00002,0,0,-1,-20.432789,234.389)"/>
<path style="fill:none;stroke-width:0.69739;stroke-linecap:butt;stroke-linejoin:miter;stroke:rgb(0%,0%,0%);stroke-opacity:1;stroke-miterlimit:10;" d="M 34.01414 170.080406 C 34.01414 173.213219 31.479034 175.748375 28.346284 175.748375 C 25.217441 175.748375 22.678429 173.213219 22.678429 170.080406 C 22.678429 166.9515 25.217441 164.412438 28.346284 164.412438 C 31.479034 164.412438 34.01414 166.9515 34.01414 170.080406 Z M 34.01414 170.080406 " transform="matrix(1.00002,0,0,-1,-20.432789,234.389)"/>
<path style="fill:none;stroke-width:0.69739;stroke-linecap:butt;stroke-linejoin:miter;stroke:rgb(0%,0%,0%);stroke-opacity:1;stroke-miterlimit:10;" d="M 34.01414 198.428063 C 34.01414 201.556969 31.479034 204.096031 28.346284 204.096031 C 25.217441 204.096031 22.678429 201.556969 22.678429 198.428063 C 22.678429 195.29525 25.217441 192.760094 28.346284 192.760094 C 31.479034 192.760094 34.01414 195.29525 34.01414 198.428063 Z M 34.01414 198.428063 " transform="matrix(1.00002,0,0,-1,-20.432789,234.389)"/>
<path style="fill:none;stroke-width:0.69739;stroke-linecap:butt;stroke-linejoin:miter;stroke:rgb(0%,0%,0%);stroke-opacity:1;stroke-miterlimit:10;" d="M 34.01414 226.775719 C 34.01414 229.904625 31.479034 232.443688 28.346284 232.443688 C 25.217441 232.443688 22.678429 229.904625 22.678429 226.775719 C 22.678429 223.642906 25.217441 221.103844 28.346284 221.103844 C 31.479034 221.103844 34.01414 223.642906 34.01414 226.775719 Z M 34.01414 226.775719 " transform="matrix(1.00002,0,0,-1,-20.432789,234.389)"/>
<path style="fill-rule:nonzero;fill:rgb(50%,50%,50%);fill-opacity:1;stroke-width:0.69739;stroke-linecap:butt;stroke-linejoin:miter;stroke:rgb(0%,0%,0%);stroke-opacity:1;stroke-miterlimit:10;" d="M 62.361229 28.346031 C 62.361229 31.478844 59.826123 34.017906 56.693374 34.017906 C 53.560624 34.017906 51.025518 31.478844 51.025518 28.346031 C 51.025518 25.217125 53.560624 22.678063 56.693374 22.678063 C 59.826123 22.678063 62.361229 25.217125 62.361229 28.346031 Z M 62.361229 28.346031 " transform="matrix(1.00002,0,0,-1,-20.432789,234.389)"/>
<path style="fill-rule:nonzero;fill:rgb(50%,50%,50%);fill-opacity:1;stroke-width:0.69739;stroke-linecap:butt;stroke-linejoin:miter;stroke:rgb(0%,0%,0%);stroke-opacity:1;stroke-miterlimit:10;" d="M 62.361229 56.693688 C 62.361229 59.8265 59.826123 62.361656 56.693374 62.361656 C 53.560624 62.361656 51.025518 59.8265 51.025518 56.693688 C 51.025518 53.560875 53.560624 51.025719 56.693374 51.025719 C 59.826123 51.025719 62.361229 53.560875 62.361229 56.693688 Z M 62.361229 56.693688 " transform="matrix(1.00002,0,0,-1,-20.432789,234.389)"/>
<path style="fill:none;stroke-width:0.69739;stroke-linecap:butt;stroke-linejoin:miter;stroke:rgb(0%,0%,0%);stroke-opacity:1;stroke-miterlimit:10;" d="M 62.361229 85.041344 C 62.361229 88.17025 59.826123 90.709313 56.693374 90.709313 C 53.560624 90.709313 51.025518 88.17025 51.025518 85.041344 C 51.025518 81.908531 53.560624 79.369469 56.693374 79.369469 C 59.826123 79.369469 62.361229 81.908531 62.361229 85.041344 Z M 62.361229 85.041344 " transform="matrix(1.00002,0,0,-1,-20.432789,234.389)"/>
<path style="fill:none;stroke-width:0.69739;stroke-linecap:butt;stroke-linejoin:miter;stroke:rgb(0%,0%,0%);stroke-opacity:1;stroke-miterlimit:10;" d="M 62.361229 113.389 C 62.361229 116.517906 59.826123 119.056969 56.693374 119.056969 C 53.560624 119.056969 51.025518 116.517906 51.025518 113.389 C 51.025518 110.256188 53.560624 107.717125 56.693374 107.717125 C 59.826123 107.717125 62.361229 110.256188 62.361229 113.389 Z M 62.361229 113.389 " transform="matrix(1.00002,0,0,-1,-20.432789,234.389)"/>
<path style="fill:none;stroke-width:0.69739;stroke-linecap:butt;stroke-linejoin:miter;stroke:rgb(0%,0%,0%);stroke-opacity:1;stroke-miterlimit:10;" d="M 62.361229 141.73275 C 62.361229 144.865563 59.826123 147.404625 56.693374 147.404625 C 53.560624 147.404625 51.025518 144.865563 51.025518 141.73275 C 51.025518 138.603844 53.560624 136.064781 56.693374 136.064781 C 59.826123 136.064781 62.361229 138.603844 62.361229 141.73275 Z M 62.361229 141.73275 " transform="matrix(1.00002,0,0,-1,-20.432789,234.389)"/>
<path style="fill:none;stroke-width:0.69739;stroke-linecap:butt;stroke-linejoin:miter;stroke:rgb(0%,0%,0%);stroke-opacity:1;stroke-miterlimit:10;" d="M 62.361229 170.080406 C 62.361229 173.213219 59.826123 175.748375 56.693374 175.748375 C 53.560624 175.748375 51.025518 173.213219 51.025518 170.080406 C 51.025518 166.9515 53.560624 164.412438 56.693374 164.412438 C 59.826123 164.412438 62.361229 166.9515 62.361229 170.080406 Z M 62.361229 170.080406 " transform="matrix(1.00002,0,0,-1,-20.432789,234.389)"/>
<path style="fill:none;stroke-width:0.69739;stroke-linecap:butt;stroke-linejoin:miter;stroke:rgb(0%,0%,0%);stroke-opacity:1;stroke-miterlimit:10;" d="M 62.361229 198.428063 C 62.361229 201.556969 59.826123 204.096031 56.693374 204.096031 C 53.560624 204.096031 51.025518 201.556969 51.025518 198.428063 C 51.025518 195.29525 53.560624 192.760094 56.693374 192.760094 C 59.826123 192.760094 62.361229 195.29525 62.361229 198.428063 Z M 62.361229 198.428063 " transform="matrix(1.00002,0,0,-1,-20.432789,234.389)"/>
<path style="fill:none;stroke-width:0.69739;stroke-linecap:butt;stroke-linejoin:miter;stroke:rgb(0%,0%,0%);stroke-opacity:1;stroke-miterlimit:10;" d="M 62.361229 226.775719 C 62.361229 229.904625 59.826123 232.443688 56.693374 232.443688 C 53.560624 232.443688 51.025518 229.904625 51.025518 226.775719 C 51.025518 223.642906 53.560624 221.103844 56.693374 221.103844 C 59.826123 221.103844 62.361229 223.642906 62.361229 226.775719 Z M 62.361229 226.775719 " transform="matrix(1.00002,0,0,-1,-20.432789,234.389)"/>
<path style="fill-rule:nonzero;fill:rgb(50%,50%,50%);fill-opacity:1;stroke-width:0.69739;stroke-linecap:butt;stroke-linejoin:miter;stroke:rgb(0%,0%,0%);stroke-opacity:1;stroke-miterlimit:10;" d="M 90.708318 28.346031 C 90.708318 31.478844 88.173213 34.017906 85.040463 34.017906 C 81.907713 34.017906 79.372607 31.478844 79.372607 28.346031 C 79.372607 25.217125 81.907713 22.678063 85.040463 22.678063 C 88.173213 22.678063 90.708318 25.217125 90.708318 28.346031 Z M 90.708318 28.346031 " transform="matrix(1.00002,0,0,-1,-20.432789,234.389)"/>
<path style="fill-rule:nonzero;fill:rgb(50%,50%,50%);fill-opacity:1;stroke-width:0.69739;stroke-linecap:butt;stroke-linejoin:miter;stroke:rgb(0%,0%,0%);stroke-opacity:1;stroke-miterlimit:10;" d="M 90.708318 56.693688 C 90.708318 59.8265 88.173213 62.361656 85.040463 62.361656 C 81.907713 62.361656 79.372607 59.8265 79.372607 56.693688 C 79.372607 53.560875 81.907713 51.025719 85.040463 51.025719 C 88.173213 51.025719 90.708318 53.560875 90.708318 56.693688 Z M 90.708318 56.693688 " transform="matrix(1.00002,0,0,-1,-20.432789,234.389)"/>
<path style="fill-rule:nonzero;fill:rgb(50%,50%,50%);fill-opacity:1;stroke-width:0.69739;stroke-linecap:butt;stroke-linejoin:miter;stroke:rgb(0%,0%,0%);stroke-opacity:1;stroke-miterlimit:10;" d="M 90.708318 85.041344 C 90.708318 88.17025 88.173213 90.709313 85.040463 90.709313 C 81.907713 90.709313 79.372607 88.17025 79.372607 85.041344 C 79.372607 81.908531 81.907713 79.369469 85.040463 79.369469 C 88.173213 79.369469 90.708318 81.908531 90.708318 85.041344 Z M 90.708318 85.041344 " transform="matrix(1.00002,0,0,-1,-20.432789,234.389)"/>
<path style="fill:none;stroke-width:0.69739;stroke-linecap:butt;stroke-linejoin:miter;stroke:rgb(0%,0%,0%);stroke-opacity:1;stroke-miterlimit:10;" d="M 90.708318 113.389 C 90.708318 116.517906 88.173213 119.056969 85.040463 119.056969 C 81.907713 119.056969 79.372607 116.517906 79.372607 113.389 C 79.372607 110.256188 81.907713 107.717125 85.040463 107.717125 C 88.173213 107.717125 90.708318 110.256188 90.708318 113.389 Z M 90.708318 113.389 " transform="matrix(1.00002,0,0,-1,-20.432789,234.389)"/>
<path style="fill:none;stroke-width:0.69739;stroke-linecap:butt;stroke-linejoin:miter;stroke:rgb(0%,0%,0%);stroke-opacity:1;stroke-miterlimit:10;" d="M 90.708318 141.73275 C 90.708318 144.865563 88.173213 147.404625 85.040463 147.404625 C 81.907713 147.404625 79.372607 144.865563 79.372607 141.73275 C 79.372607 138.603844 81.907713 136.064781 85.040463 136.064781 C 88.173213 136.064781 90.708318 138.603844 90.708318 141.73275 Z M 90.708318 141.73275 " transform="matrix(1.00002,0,0,-1,-20.432789,234.389)"/>
<path style="fill:none;stroke-width:0.69739;stroke-linecap:butt;stroke-linejoin:miter;stroke:rgb(0%,0%,0%);stroke-opacity:1;stroke-miterlimit:10;" d="M 90.708318 170.080406 C 90.708318 173.213219 88.173213 175.748375 85.040463 175.748375 C 81.907713 175.748375 79.372607 173.213219 79.372607 170.080406 C 79.372607 166.9515 81.907713 164.412438 85.040463 164.412438 C 88.173213 164.412438 90.708318 166.9515 90.708318 170.080406 Z M 90.708318 170.080406 " transform="matrix(1.00002,0,0,-1,-20.432789,234.389)"/>
<path style="fill:none;stroke-width:0.69739;stroke-linecap:butt;stroke-linejoin:miter;stroke:rgb(0%,0%,0%);stroke-opacity:1;stroke-miterlimit:10;" d="M 90.708318 198.428063 C 90.708318 201.556969 88.173213 204.096031 85.040463 204.096031 C 81.907713 204.096031 79.372607 201.556969 79.372607 198.428063 C 79.372607 195.29525 81.907713 192.760094 85.040463 192.760094 C 88.173213 192.760094 90.708318 195.29525 90.708318 198.428063 Z M 90.708318 198.428063 " transform="matrix(1.00002,0,0,-1,-20.432789,234.389)"/>
<path style="fill:none;stroke-width:0.69739;stroke-linecap:butt;stroke-linejoin:miter;stroke:rgb(0%,0%,0%);stroke-opacity:1;stroke-miterlimit:10;" d="M 90.708318 226.775719 C 90.708318 229.904625 88.173213 232.443688 85.040463 232.443688 C 81.907713 232.443688 79.372607 229.904625 79.372607 226.775719 C 79.372607 223.642906 81.907713 221.103844 85.040463 221.103844 C 88.173213 221.103844 90.708318 223.642906 90.708318 226.775719 Z M 90.708318 226.775719 " transform="matrix(1.00002,0,0,-1,-20.432789,234.389)"/>
<path style="fill-rule:nonzero;fill:rgb(50%,50%,50%);fill-opacity:1;stroke-width:0.69739;stroke-linecap:butt;stroke-linejoin:miter;stroke:rgb(0%,0%,0%);stroke-opacity:1;stroke-miterlimit:10;" d="M 119.055408 28.346031 C 119.055408 31.478844 116.516396 34.017906 113.387552 34.017906 C 110.254802 34.017906 107.719697 31.478844 107.719697 28.346031 C 107.719697 25.217125 110.254802 22.678063 113.387552 22.678063 C 116.516396 22.678063 119.055408 25.217125 119.055408 28.346031 Z M 119.055408 28.346031 " transform="matrix(1.00002,0,0,-1,-20.432789,234.389)"/>
<path style="fill-rule:nonzero;fill:rgb(50%,50%,50%);fill-opacity:1;stroke-width:0.69739;stroke-linecap:butt;stroke-linejoin:miter;stroke:rgb(0%,0%,0%);stroke-opacity:1;stroke-miterlimit:10;" d="M 119.055408 56.693688 C 119.055408 59.8265 116.516396 62.361656 113.387552 62.361656 C 110.254802 62.361656 107.719697 59.8265 107.719697 56.693688 C 107.719697 53.560875 110.254802 51.025719 113.387552 51.025719 C 116.516396 51.025719 119.055408 53.560875 119.055408 56.693688 Z M 119.055408 56.693688 " transform="matrix(1.00002,0,0,-1,-20.432789,234.389)"/>
<path style="fill-rule:nonzero;fill:rgb(50%,50%,50%);fill-opacity:1;stroke-width:0.69739;stroke-linecap:butt;stroke-linejoin:miter;stroke:rgb(0%,0%,0%);stroke-opacity:1;stroke-miterlimit:10;" d="M 119.055408 85.041344 C 119.055408 88.17025 116.516396 90.709313 113.387552 90.709313 C 110.254802 90.709313 107.719697 88.17025 107.719697 85.041344 C 107.719697 81.908531 110.254802 79.369469 113.387552 79.369469 C 116.516396 79.369469 119.055408 81.908531 119.055408 85.041344 Z M 119.055408 85.041344 " transform="matrix(1.00002,0,0,-1,-20.432789,234.389)"/>
<path style="fill-rule:nonzero;fill:rgb(50%,50%,50%);fill-opacity:1;stroke-width:0.69739;stroke-linecap:butt;stroke-linejoin:miter;stroke:rgb(0%,0%,0%);stroke-opacity:1;stroke-miterlimit:10;" d="M 119.055408 113.389 C 119.055408 116.517906 116.516396 119.056969 113.387552 119.056969 C 110.254802 119.056969 107.719697 116.517906 107.719697 113.389 C 107.719697 110.256188 110.254802 107.717125 113.387552 107.717125 C 116.516396 107.717125 119.055408 110.256188 119.055408 113.389 Z M 119.055408 113.389 " transform="matrix(1.00002,0,0,-1,-20.432789,234.389)"/>
<path style="fill:none;stroke-width:0.69739;stroke-linecap:butt;stroke-linejoin:miter;stroke:rgb(0%,0%,0%);stroke-opacity:1;stroke-miterlimit:10;" d="M 119.055408 141.73275 C 119.055408 144.865563 116.516396 147.404625 113.387552 147.404625 C 110.254802 147.404625 107.719697 144.865563 107.719697 141.73275 C 107.719697 138.603844 110.254802 136.064781 113.387552 136.064781 C 116.516396 136.064781 119.055408 138.603844 119.055408 141.73275 Z M 119.055408 141.73275 " transform="matrix(1.00002,0,0,-1,-20.432789,234.389)"/>
<path style="fill:none;stroke-width:0.69739;stroke-linecap:butt;stroke-linejoin:miter;stroke:rgb(0%,0%,0%);stroke-opacity:1;stroke-miterlimit:10;" d="M 119.055408 170.080406 C 119.055408 173.213219 116.516396 175.748375 113.387552 175.748375 C 110.254802 175.748375 107.719697 173.213219 107.719697 170.080406 C 107.719697 166.9515 110.254802 164.412438 113.387552 164.412438 C 116.516396 164.412438 119.055408 166.9515 119.055408 170.080406 Z M 119.055408 170.080406 " transform="matrix(1.00002,0,0,-1,-20.432789,234.389)"/>
<path style="fill:none;stroke-width:0.69739;stroke-linecap:butt;stroke-linejoin:miter;stroke:rgb(0%,0%,0%);stroke-opacity:1;stroke-miterlimit:10;" d="M 119.055408 198.428063 C 119.055408 201.556969 116.516396 204.096031 113.387552 204.096031 C 110.254802 204.096031 107.719697 201.556969 107.719697 198.428063 C 107.719697 195.29525 110.254802 192.760094 113.387552 192.760094 C 116.516396 192.760094 119.055408 195.29525 119.055408 198.428063 Z M 119.055408 198.428063 " transform="matrix(1.00002,0,0,-1,-20.432789,234.389)"/>
<path style="fill:none;stroke-width:0.69739;stroke-linecap:butt;stroke-linejoin:miter;stroke:rgb(0%,0%,0%);stroke-opacity:1;stroke-miterlimit:10;" d="M 119.055408 226.775719 C 119.055408 229.904625 116.516396 232.443688 113.387552 232.443688 C 110.254802 232.443688 107.719697 229.904625 107.719697 226.775719 C 107.719697 223.642906 110.254802 221.103844 113.387552 221.103844 C 116.516396 221.103844 119.055408 223.642906 119.055408 226.775719 Z M 119.055408 226.775719 " transform="matrix(1.00002,0,0,-1,-20.432789,234.389)"/>
<path style="fill-rule:nonzero;fill:rgb(50%,50%,50%);fill-opacity:1;stroke-width:0.69739;stroke-linecap:butt;stroke-linejoin:miter;stroke:rgb(0%,0%,0%);stroke-opacity:1;stroke-miterlimit:10;" d="M 147.402497 28.346031 C 147.402497 31.478844 144.863485 34.017906 141.734641 34.017906 C 138.601892 34.017906 136.06288 31.478844 136.06288 28.346031 C 136.06288 25.217125 138.601892 22.678063 141.734641 22.678063 C 144.863485 22.678063 147.402497 25.217125 147.402497 28.346031 Z M 147.402497 28.346031 " transform="matrix(1.00002,0,0,-1,-20.432789,234.389)"/>
<path style="fill-rule:nonzero;fill:rgb(50%,50%,50%);fill-opacity:1;stroke-width:0.69739;stroke-linecap:butt;stroke-linejoin:miter;stroke:rgb(0%,0%,0%);stroke-opacity:1;stroke-miterlimit:10;" d="M 147.402497 56.693688 C 147.402497 59.8265 144.863485 62.361656 141.734641 62.361656 C 138.601892 62.361656 136.06288 59.8265 136.06288 56.693688 C 136.06288 53.560875 138.601892 51.025719 141.734641 51.025719 C 144.863485 51.025719 147.402497 53.560875 147.402497 56.693688 Z M 147.402497 56.693688 " transform="matrix(1.00002,0,0,-1,-20.432789,234.389)"/>
<path style="fill-rule:nonzero;fill:rgb(50%,50%,50%);fill-opacity:1;stroke-width:0.69739;stroke-linecap:butt;stroke-linejoin:miter;stroke:rgb(0%,0%,0%);stroke-opacity:1;stroke-miterlimit:10;" d="M 147.402497 85.041344 C 147.402497 88.17025 144.863485 90.709313 141.734641 90.709313 C 138.601892 90.709313 136.06288 88.17025 136.06288 85.041344 C 136.06288 81.908531 138.601892 79.369469 141.734641 79.369469 C 144.863485 79.369469 147.402497 81.908531 147.402497 85.041344 Z M 147.402497 85.041344 " transform="matrix(1.00002,0,0,-1,-20.432789,234.389)"/>
<path style="fill-rule:nonzero;fill:rgb(50%,50%,50%);fill-opacity:1;stroke-width:0.69739;stroke-linecap:butt;stroke-linejoin:miter;stroke:rgb(0%,0%,0%);stroke-opacity:1;stroke-miterlimit:10;" d="M 147.402497 113.389 C 147.402497 116.517906 144.863485 119.056969 141.734641 119.056969 C 138.601892 119.056969 136.06288 116.517906 136.06288 113.389 C 136.06288 110.256188 138.601892 107.717125 141.734641 107.717125 C 144.863485 107.717125 147.402497 110.256188 147.402497 113.389 Z M 147.402497 113.389 " transform="matrix(1.00002,0,0,-1,-20.432789,234.389)"/>
<path style="fill-rule:nonzero;fill:rgb(50%,50%,50%);fill-opacity:1;stroke-width:0.69739;stroke-linecap:butt;stroke-linejoin:miter;stroke:rgb(0%,0%,0%);stroke-opacity:1;stroke-miterlimit:10;" d="M 147.402497 141.73275 C 147.402497 144.865563 144.863485 147.404625 141.734641 147.404625 C 138.601892 147.404625 136.06288 144.865563 136.06288 141.73275 C 136.06288 138.603844 138.601892 136.064781 141.734641 136.064781 C 144.863485 136.064781 147.402497 138.603844 147.402497 141.73275 Z M 147.402497 141.73275 " transform="matrix(1.00002,0,0,-1,-20.432789,234.389)"/>
<path style="fill:none;stroke-width:0.69739;stroke-linecap:butt;stroke-linejoin:miter;stroke:rgb(0%,0%,0%);stroke-opacity:1;stroke-miterlimit:10;" d="M 147.402497 170.080406 C 147.402497 173.213219 144.863485 175.748375 141.734641 175.748375 C 138.601892 175.748375 136.06288 173.213219 136.06288 170.080406 C 136.06288 166.9515 138.601892 164.412438 141.734641 164.412438 C 144.863485 164.412438 147.402497 166.9515 147.402497 170.080406 Z M 147.402497 170.080406 " transform="matrix(1.00002,0,0,-1,-20.432789,234.389)"/>
<path style="fill:none;stroke-width:0.69739;stroke-linecap:butt;stroke-linejoin:miter;stroke:rgb(0%,0%,0%);stroke-opacity:1;stroke-miterlimit:10;" d="M 147.402497 198.428063 C 147.402497 201.556969 144.863485 204.096031 141.734641 204.096031 C 138.601892 204.096031 136.06288 201.556969 136.06288 198.428063 C 136.06288 195.29525 138.601892 192.760094 141.734641 192.760094 C 144.863485 192.760094 147.402497 195.29525 147.402497 198.428063 Z M 147.402497 198.428063 " transform="matrix(1.00002,0,0,-1,-20.432789,234.389)"/>
<path style="fill:none;stroke-width:0.69739;stroke-linecap:butt;stroke-linejoin:miter;stroke:rgb(0%,0%,0%);stroke-opacity:1;stroke-miterlimit:10;" d="M 147.402497 226.775719 C 147.402497 229.904625 144.863485 232.443688 141.734641 232.443688 C 138.601892 232.443688 136.06288 229.904625 136.06288 226.775719 C 136.06288 223.642906 138.601892 221.103844 141.734641 221.103844 C 144.863485 221.103844 147.402497 223.642906 147.402497 226.775719 Z M 147.402497 226.775719 " transform="matrix(1.00002,0,0,-1,-20.432789,234.389)"/>
<path style="fill-rule:nonzero;fill:rgb(50%,50%,50%);fill-opacity:1;stroke-width:0.69739;stroke-linecap:butt;stroke-linejoin:miter;stroke:rgb(0%,0%,0%);stroke-opacity:1;stroke-miterlimit:10;" d="M 175.749586 28.346031 C 175.749586 31.478844 173.210574 34.017906 170.081731 34.017906 C 166.948981 34.017906 164.409969 31.478844 164.409969 28.346031 C 164.409969 25.217125 166.948981 22.678063 170.081731 22.678063 C 173.210574 22.678063 175.749586 25.217125 175.749586 28.346031 Z M 175.749586 28.346031 " transform="matrix(1.00002,0,0,-1,-20.432789,234.389)"/>
<path style="fill-rule:nonzero;fill:rgb(50%,50%,50%);fill-opacity:1;stroke-width:0.69739;stroke-linecap:butt;stroke-linejoin:miter;stroke:rgb(0%,0%,0%);stroke-opacity:1;stroke-miterlimit:10;" d="M 175.749586 56.693688 C 175.749586 59.8265 173.210574 62.361656 170.081731 62.361656 C 166.948981 62.361656 164.409969 59.8265 164.409969 56.693688 C 164.409969 53.560875 166.948981 51.025719 170.081731 51.025719 C 173.210574 51.025719 175.749586 53.560875 175.749586 56.693688 Z M 175.749586 56.693688 " transform="matrix(1.00002,0,0,-1,-20.432789,234.389)"/>
<path style="fill-rule:nonzero;fill:rgb(50%,50%,50%);fill-opacity:1;stroke-width:0.69739;stroke-linecap:butt;stroke-linejoin:miter;stroke:rgb(0%,0%,0%);stroke-opacity:1;stroke-miterlimit:10;" d="M 175.749586 85.041344 C 175.749586 88.17025 173.210574 90.709313 170.081731 90.709313 C 166.948981 90.709313 164.409969 88.17025 164.409969 85.041344 C 164.409969 81.908531 166.948981 79.369469 170.081731 79.369469 C 173.210574 79.369469 175.749586 81.908531 175.749586 85.041344 Z M 175.749586 85.041344 " transform="matrix(1.00002,0,0,-1,-20.432789,234.389)"/>
<path style="fill-rule:nonzero;fill:rgb(50%,50%,50%);fill-opacity:1;stroke-width:0.69739;stroke-linecap:butt;stroke-linejoin:miter;stroke:rgb(0%,0%,0%);stroke-opacity:1;stroke-miterlimit:10;" d="M 175.749586 113.389 C 175.749586 116.517906 173.210574 119.056969 170.081731 119.056969 C 166.948981 119.056969 164.409969 116.517906 164.409969 113.389 C 164.409969 110.256188 166.948981 107.717125 170.081731 107.717125 C 173.210574 107.717125 175.749586 110.256188 175.749586 113.389 Z M 175.749586 113.389 " transform="matrix(1.00002,0,0,-1,-20.432789,234.389)"/>
<path style="fill-rule:nonzero;fill:rgb(50%,50%,50%);fill-opacity:1;stroke-width:0.69739;stroke-linecap:butt;stroke-linejoin:miter;stroke:rgb(0%,0%,0%);stroke-opacity:1;stroke-miterlimit:10;" d="M 175.749586 141.73275 C 175.749586 144.865563 173.210574 147.404625 170.081731 147.404625 C 166.948981 147.404625 164.409969 144.865563 164.409969 141.73275 C 164.409969 138.603844 166.948981 136.064781 170.081731 136.064781 C 173.210574 136.064781 175.749586 138.603844 175.749586 141.73275 Z M 175.749586 141.73275 " transform="matrix(1.00002,0,0,-1,-20.432789,234.389)"/>
<path style="fill-rule:nonzero;fill:rgb(50%,50%,50%);fill-opacity:1;stroke-width:0.69739;stroke-linecap:butt;stroke-linejoin:miter;stroke:rgb(0%,0%,0%);stroke-opacity:1;stroke-miterlimit:10;" d="M 175.749586 170.080406 C 175.749586 173.213219 173.210574 175.748375 170.081731 175.748375 C 166.948981 175.748375 164.409969 173.213219 164.409969 170.080406 C 164.409969 166.9515 166.948981 164.412438 170.081731 164.412438 C 173.210574 164.412438 175.749586 166.9515 175.749586 170.080406 Z M 175.749586 170.080406 " transform="matrix(1.00002,0,0,-1,-20.432789,234.389)"/>
<path style="fill:none;stroke-width:0.69739;stroke-linecap:butt;stroke-linejoin:miter;stroke:rgb(0%,0%,0%);stroke-opacity:1;stroke-miterlimit:10;" d="M 175.749586 198.428063 C 175.749586 201.556969 173.210574 204.096031 170.081731 204.096031 C 166.948981 204.096031 164.409969 201.556969 164.409969 198.428063 C 164.409969 195.29525 166.948981 192.760094 170.081731 192.760094 C 173.210574 192.760094 175.749586 195.29525 175.749586 198.428063 Z M 175.749586 198.428063 " transform="matrix(1.00002,0,0,-1,-20.432789,234.389)"/>
<path style="fill:none;stroke-width:0.69739;stroke-linecap:butt;stroke-linejoin:miter;stroke:rgb(0%,0%,0%);stroke-opacity:1;stroke-miterlimit:10;" d="M 175.749586 226.775719 C 175.749586 229.904625 173.210574 232.443688 170.081731 232.443688 C 166.948981 232.443688 164.409969 229.904625 164.409969 226.775719 C 164.409969 223.642906 166.948981 221.103844 170.081731 221.103844 C 173.210574 221.103844 175.749586 223.642906 175.749586 226.775719 Z M 175.749586 226.775719 " transform="matrix(1.00002,0,0,-1,-20.432789,234.389)"/>
<path style="fill-rule:nonzero;fill:rgb(50%,50%,50%);fill-opacity:1;stroke-width:0.69739;stroke-linecap:butt;stroke-linejoin:miter;stroke:rgb(0%,0%,0%);stroke-opacity:1;stroke-miterlimit:10;" d="M 204.096675 28.346031 C 204.096675 31.478844 201.557664 34.017906 198.42882 34.017906 C 195.29607 34.017906 192.757058 31.478844 192.757058 28.346031 C 192.757058 25.217125 195.29607 22.678063 198.42882 22.678063 C 201.557664 22.678063 204.096675 25.217125 204.096675 28.346031 Z M 204.096675 28.346031 " transform="matrix(1.00002,0,0,-1,-20.432789,234.389)"/>
<path style="fill-rule:nonzero;fill:rgb(50%,50%,50%);fill-opacity:1;stroke-width:0.69739;stroke-linecap:butt;stroke-linejoin:miter;stroke:rgb(0%,0%,0%);stroke-opacity:1;stroke-miterlimit:10;" d="M 204.096675 56.693688 C 204.096675 59.8265 201.557664 62.361656 198.42882 62.361656 C 195.29607 62.361656 192.757058 59.8265 192.757058 56.693688 C 192.757058 53.560875 195.29607 51.025719 198.42882 51.025719 C 201.557664 51.025719 204.096675 53.560875 204.096675 56.693688 Z M 204.096675 56.693688 " transform="matrix(1.00002,0,0,-1,-20.432789,234.389)"/>
<path style="fill-rule:nonzero;fill:rgb(50%,50%,50%);fill-opacity:1;stroke-width:0.69739;stroke-linecap:butt;stroke-linejoin:miter;stroke:rgb(0%,0%,0%);stroke-opacity:1;stroke-miterlimit:10;" d="M 204.096675 85.041344 C 204.096675 88.17025 201.557664 90.709313 198.42882 90.709313 C 195.29607 90.709313 192.757058 88.17025 192.757058 85.041344 C 192.757058 81.908531 195.29607 79.369469 198.42882 79.369469 C 201.557664 79.369469 204.096675 81.908531 204.096675 85.041344 Z M 204.096675 85.041344 " transform="matrix(1.00002,0,0,-1,-20.432789,234.389)"/>
<path style="fill-rule:nonzero;fill:rgb(50%,50%,50%);fill-opacity:1;stroke-width:0.69739;stroke-linecap:butt;stroke-linejoin:miter;stroke:rgb(0%,0%,0%);stroke-opacity:1;stroke-miterlimit:10;" d="M 204.096675 113.389 C 204.096675 116.517906 201.557664 119.056969 198.42882 119.056969 C 195.29607 119.056969 192.757058 116.517906 192.757058 113.389 C 192.757058 110.256188 195.29607 107.717125 198.42882 107.717125 C 201.557664 107.717125 204.096675 110.256188 204.096675 113.389 Z M 204.096675 113.389 " transform="matrix(1.00002,0,0,-1,-20.432789,234.389)"/>
<path style="fill-rule:nonzero;fill:rgb(50%,50%,50%);fill-opacity:1;stroke-width:0.69739;stroke-linecap:butt;stroke-linejoin:miter;stroke:rgb(0%,0%,0%);stroke-opacity:1;stroke-miterlimit:10;" d="M 204.096675 141.73275 C 204.096675 144.865563 201.557664 147.404625 198.42882 147.404625 C 195.29607 147.404625 192.757058 144.865563 192.757058 141.73275 C 192.757058 138.603844 195.29607 136.064781 198.42882 136.064781 C 201.557664 136.064781 204.096675 138.603844 204.096675 141.73275 Z M 204.096675 141.73275 " transform="matrix(1.00002,0,0,-1,-20.432789,234.389)"/>
<path style="fill-rule:nonzero;fill:rgb(50%,50%,50%);fill-opacity:1;stroke-width:0.69739;stroke-linecap:butt;stroke-linejoin:miter;stroke:rgb(0%,0%,0%);stroke-opacity:1;stroke-miterlimit:10;" d="M 204.096675 170.080406 C 204.096675 173.213219 201.557664 175.748375 198.42882 175.748375 C 195.29607 175.748375 192.757058 173.213219 192.757058 170.080406 C 192.757058 166.9515 195.29607 164.412438 198.42882 164.412438 C 201.557664 164.412438 204.096675 166.9515 204.096675 170.080406 Z M 204.096675 170.080406 " transform="matrix(1.00002,0,0,-1,-20.432789,234.389)"/>
<path style="fill-rule:nonzero;fill:rgb(50%,50%,50%);fill-opacity:1;stroke-width:0.69739;stroke-linecap:butt;stroke-linejoin:miter;stroke:rgb(0%,0%,0%);stroke-opacity:1;stroke-miterlimit:10;" d="M 204.096675 198.428063 C 204.096675 201.556969 201.557664 204.096031 198.42882 204.096031 C 195.29607 204.096031 192.757058 201.556969 192.757058 198.428063 C 192.757058 195.29525 195.29607 192.760094 198.42882 192.760094 C 201.557664 192.760094 204.096675 195.29525 204.096675 198.428063 Z M 204.096675 198.428063 " transform="matrix(1.00002,0,0,-1,-20.432789,234.389)"/>
<path style="fill:none;stroke-width:0.69739;stroke-linecap:butt;stroke-linejoin:miter;stroke:rgb(0%,0%,0%);stroke-opacity:1;stroke-miterlimit:10;" d="M 204.096675 226.775719 C 204.096675 229.904625 201.557664 232.443688 198.42882 232.443688 C 195.29607 232.443688 192.757058 229.904625 192.757058 226.775719 C 192.757058 223.642906 195.29607 221.103844 198.42882 221.103844 C 201.557664 221.103844 204.096675 223.642906 204.096675 226.775719 Z M 204.096675 226.775719 " transform="matrix(1.00002,0,0,-1,-20.432789,234.389)"/>
</g>
</svg>
