<?xml version="1.0" encoding="UTF-8"?>
<svg xmlns="http://www.w3.org/2000/svg" xmlns:xlink="http://www.w3.org/1999/xlink" width="432pt" height="108pt" viewBox="0 0 432 108" version="1.1">
<g id="surface1">
<path style="fill:none;stroke-width:2;stroke-linecap:butt;stroke-linejoin:miter;stroke:rgb(13.729858%,12.159729%,12.548828%);stroke-opacity:1;stroke-miterlimit:4;" d="M 38.667969 91 L 11.667969 91 L 11.667969 64 L 38.667969 64 Z M 38.667969 91 " transform="matrix(1,0,0,-1,0,108)"/>
<path style=" stroke:none;fill-rule:nonzero;fill:rgb(100%,100%,100%);fill-opacity:1;" d="M 44.40625 42.5 C 44.40625 39.097656 41.613281 36.335938 38.171875 36.335938 C 34.722656 36.335938 31.929688 39.097656 31.929688 42.5 C 31.929688 45.902344 34.722656 48.664062 38.171875 48.664062 C 41.613281 48.664062 44.40625 45.902344 44.40625 42.5 "/>
<path style="fill:none;stroke-width:2;stroke-linecap:butt;stroke-linejoin:miter;stroke:rgb(13.729858%,12.159729%,12.548828%);stroke-opacity:1;stroke-miterlimit:4;" d="M -0.00195 0 C -0.00195 3.402344 -2.794919 6.164062 -6.236325 6.164062 C -9.685544 6.164062 -12.478513 3.402344 -12.478513 0 C -12.478513 -3.402344 -9.685544 -6.164062 -6.236325 -6.164062 C -2.794919 -6.164062 -0.00195 -3.402344 -0.00195 0 Z M -0.00195 0 " transform="matrix(1,0,0,-1,44.4082,42.5)"/>
<path style=" stroke:none;fill-rule:nonzero;fill:rgb(100%,100%,100%);fill-opacity:1;" d="M 17.90625 42.5 C 17.90625 39.097656 15.113281 36.335938 11.671875 36.335938 C 8.222656 36.335938 5.429688 39.097656 5.429688 42.5 C 5.429688 45.902344 8.222656 48.664062 11.671875 48.664062 C 15.113281 48.664062 17.90625 45.902344 17.90625 42.5 "/>
<path style="fill:none;stroke-width:2;stroke-linecap:butt;stroke-linejoin:miter;stroke:rgb(13.729858%,12.159729%,12.548828%);stroke-opacity:1;stroke-miterlimit:4;" d="M -0.00195 0 C -0.00195 3.402344 -2.794919 6.164062 -6.236325 6.164062 C -9.685544 6.164062 -12.478512 3.402344 -12.478512 0 C -12.478512 -3.402344 -9.685544 -6.164062 -6.236325 -6.164062 C -2.794919 -6.164062 -0.00195 -3.402344 -0.00195 0 Z M -0.00195 0 " transform="matrix(1,0,0,-1,17.9082,42.5)"/>
<path style=" stroke:none;fill-rule:nonzero;fill:rgb(100%,100%,100%);fill-opacity:1;" d="M 18.375 17.324219 C 18.375 13.921875 15.582031 11.160156 12.136719 11.160156 C 8.6875 11.160156 5.894531 13.921875 5.894531 17.324219 C 5.894531 20.726562 8.6875 23.488281 12.136719 23.488281 C 15.582031 23.488281 18.375 20.726562 18.375 17.324219 "/>
<path style="fill:none;stroke-width:2;stroke-linecap:butt;stroke-linejoin:miter;stroke:rgb(13.729858%,12.159729%,12.548828%);stroke-opacity:1;stroke-miterlimit:4;" d="M 0.0015 0.00148125 C 0.0015 3.403825 -2.791469 6.165544 -6.236781 6.165544 C -9.686 6.165544 -12.478969 3.403825 -12.478969 0.00148125 C -12.478969 -3.400862 -9.686 -6.162581 -6.236781 -6.162581 C -2.791469 -6.162581 0.0015 -3.400862 0.0015 0.00148125 Z M 0.0015 0.00148125 " transform="matrix(1,0,0,-1,18.3735,17.3257)"/>
<path style=" stroke:none;fill-rule:nonzero;fill:rgb(100%,100%,100%);fill-opacity:1;" d="M 44.90625 17 C 44.90625 13.597656 42.113281 10.835938 38.671875 10.835938 C 35.222656 10.835938 32.429688 13.597656 32.429688 17 C 32.429688 20.402344 35.222656 23.164062 38.671875 23.164062 C 42.113281 23.164062 44.90625 20.402344 44.90625 17 "/>
<path style="fill:none;stroke-width:2;stroke-linecap:butt;stroke-linejoin:miter;stroke:rgb(13.729858%,12.159729%,12.548828%);stroke-opacity:1;stroke-miterlimit:4;" d="M -0.00195 0 C -0.00195 3.402344 -2.794919 6.164062 -6.236325 6.164062 C -9.685544 6.164062 -12.478513 3.402344 -12.478513 0 C -12.478513 -3.402344 -9.685544 -6.164062 -6.236325 -6.164062 C -2.794919 -6.164062 -0.00195 -3.402344 -0.00195 0 Z M -0.00195 0 " transform="matrix(1,0,0,-1,44.9082,17)"/>
<path style="fill:none;stroke-width:2;stroke-linecap:butt;stroke-linejoin:miter;stroke:rgb(13.729858%,12.159729%,12.548828%);stroke-opacity:1;stroke-miterlimit:4;" d="M 417.503906 92.832031 L 390.503906 92.832031 L 390.503906 65.832031 L 417.503906 65.832031 Z M 417.503906 92.832031 " transform="matrix(1,0,0,-1,0,108)"/>
<path style=" stroke:none;fill-rule:nonzero;fill:rgb(96.403503%,78.808594%,42.222595%);fill-opacity:1;" d="M 423.242188 40.667969 C 423.242188 37.261719 420.449219 34.503906 417.003906 34.503906 C 413.554688 34.503906 410.761719 37.261719 410.761719 40.667969 C 410.761719 44.070312 413.554688 46.832031 417.003906 46.832031 C 420.449219 46.832031 423.242188 44.070312 423.242188 40.667969 "/>
<path style="fill:none;stroke-width:2;stroke-linecap:butt;stroke-linejoin:miter;stroke:rgb(13.729858%,12.159729%,12.548828%);stroke-opacity:1;stroke-miterlimit:4;" d="M 0.0009875 -0.00146875 C 0.0009875 3.404781 -2.791981 6.162594 -6.237294 6.162594 C -9.686512 6.162594 -12.479481 3.404781 -12.479481 -0.00146875 C -12.479481 -3.403813 -9.686512 -6.165531 -6.237294 -6.165531 C -2.791981 -6.165531 0.0009875 -3.403813 0.0009875 -0.00146875 Z M 0.0009875 -0.00146875 " transform="matrix(1,0,0,-1,423.2412,40.6665)"/>
<path style=" stroke:none;fill-rule:nonzero;fill:rgb(96.403503%,78.808594%,42.222595%);fill-opacity:1;" d="M 396.742188 40.667969 C 396.742188 37.261719 393.949219 34.503906 390.503906 34.503906 C 387.054688 34.503906 384.261719 37.261719 384.261719 40.667969 C 384.261719 44.070312 387.054688 46.832031 390.503906 46.832031 C 393.949219 46.832031 396.742188 44.070312 396.742188 40.667969 "/>
<path style="fill:none;stroke-width:2;stroke-linecap:butt;stroke-linejoin:miter;stroke:rgb(13.729858%,12.159729%,12.548828%);stroke-opacity:1;stroke-miterlimit:4;" d="M 0.0009875 -0.00146875 C 0.0009875 3.404781 -2.791981 6.162594 -6.237294 6.162594 C -9.686512 6.162594 -12.479481 3.404781 -12.479481 -0.00146875 C -12.479481 -3.403813 -9.686512 -6.165531 -6.237294 -6.165531 C -2.791981 -6.165531 0.0009875 -3.403813 0.0009875 -0.00146875 Z M 0.0009875 -0.00146875 " transform="matrix(1,0,0,-1,396.7412,40.6665)"/>
<path style=" stroke:none;fill-rule:nonzero;fill:rgb(100%,100%,100%);fill-opacity:1;" d="M 397.207031 15.492188 C 397.207031 12.089844 394.414062 9.328125 390.96875 9.328125 C 387.519531 9.328125 384.726562 12.089844 384.726562 15.492188 C 384.726562 18.894531 387.519531 21.65625 390.96875 21.65625 C 394.414062 21.65625 397.207031 18.894531 397.207031 15.492188 "/>
<path style="fill:none;stroke-width:2;stroke-linecap:butt;stroke-linejoin:miter;stroke:rgb(13.729858%,12.159729%,12.548828%);stroke-opacity:1;stroke-miterlimit:4;" d="M 0.00093125 0.0000125 C 0.00093125 3.402356 -2.792037 6.164075 -6.23735 6.164075 C -9.686569 6.164075 -12.479537 3.402356 -12.479537 0.0000125 C -12.479537 -3.402331 -9.686569 -6.16405 -6.23735 -6.16405 C -2.792037 -6.16405 0.00093125 -3.402331 0.00093125 0.0000125 Z M 0.00093125 0.0000125 " transform="matrix(1,0,0,-1,397.2061,15.4922)"/>
<path style=" stroke:none;fill-rule:nonzero;fill:rgb(100%,100%,100%);fill-opacity:1;" d="M 423.742188 15.167969 C 423.742188 11.761719 420.949219 9.003906 417.503906 9.003906 C 414.054688 9.003906 411.261719 11.761719 411.261719 15.167969 C 411.261719 18.570312 414.054688 21.332031 417.503906 21.332031 C 420.949219 21.332031 423.742188 18.570312 423.742188 15.167969 "/>
<path style="fill:none;stroke-width:2;stroke-linecap:butt;stroke-linejoin:miter;stroke:rgb(13.729858%,12.159729%,12.548828%);stroke-opacity:1;stroke-miterlimit:4;" d="M 0.0009875 -0.00146875 C 0.0009875 3.404781 -2.791981 6.162594 -6.237294 6.162594 C -9.686512 6.162594 -12.479481 3.404781 -12.479481 -0.00146875 C -12.479481 -3.403813 -9.686512 -6.165531 -6.237294 -6.165531 C -2.791981 -6.165531 0.0009875 -3.403813 0.0009875 -0.00146875 Z M 0.0009875 -0.00146875 " transform="matrix(1,0,0,-1,423.7412,15.1665)"/>
<path style="fill:none;stroke-width:2;stroke-linecap:butt;stroke-linejoin:miter;stroke:rgb(13.729858%,12.159729%,12.548828%);stroke-opacity:1;stroke-miterlimit:4;" d="M 364.003906 92 L 337.003906 92 L 337.003906 65 L 364.003906 65 Z M 364.003906 92 " transform="matrix(1,0,0,-1,0,108)"/>
<path style=" stroke:none;fill-rule:nonzero;fill:rgb(96.403503%,78.808594%,42.222595%);fill-opacity:1;" d="M 369.742188 41.5 C 369.742188 38.097656 366.949219 35.335938 363.503906 35.335938 C 360.054688 35.335938 357.261719 38.097656 357.261719 41.5 C 357.261719 44.902344 360.054688 47.664062 363.503906 47.664062 C 366.949219 47.664062 369.742188 44.902344 369.742188 41.5 "/>
<path style="fill:none;stroke-width:2;stroke-linecap:butt;stroke-linejoin:miter;stroke:rgb(13.729858%,12.159729%,12.548828%);stroke-opacity:1;stroke-miterlimit:4;" d="M 0.0009875 0 C 0.0009875 3.402344 -2.791981 6.164062 -6.237294 6.164062 C -9.686512 6.164062 -12.479481 3.402344 -12.479481 0 C -12.479481 -3.402344 -9.686512 -6.164062 -6.237294 -6.164062 C -2.791981 -6.164062 0.0009875 -3.402344 0.0009875 0 Z M 0.0009875 0 " transform="matrix(1,0,0,-1,369.7412,41.5)"/>
<path style=" stroke:none;fill-rule:nonzero;fill:rgb(100%,100%,100%);fill-opacity:1;" d="M 343.242188 41.5 C 343.242188 38.097656 340.449219 35.335938 337.003906 35.335938 C 333.554688 35.335938 330.761719 38.097656 330.761719 41.5 C 330.761719 44.902344 333.554688 47.664062 337.003906 47.664062 C 340.449219 47.664062 343.242188 44.902344 343.242188 41.5 "/>
<path style="fill:none;stroke-width:2;stroke-linecap:butt;stroke-linejoin:miter;stroke:rgb(13.729858%,12.159729%,12.548828%);stroke-opacity:1;stroke-miterlimit:4;" d="M 0.0009875 0 C 0.0009875 3.402344 -2.791981 6.164062 -6.237294 6.164062 C -9.686512 6.164062 -12.479481 3.402344 -12.479481 0 C -12.479481 -3.402344 -9.686512 -6.164062 -6.237294 -6.164062 C -2.791981 -6.164062 0.0009875 -3.402344 0.0009875 0 Z M 0.0009875 0 " transform="matrix(1,0,0,-1,343.2412,41.5)"/>
<path style=" stroke:none;fill-rule:nonzero;fill:rgb(100%,100%,100%);fill-opacity:1;" d="M 343.707031 16.324219 C 343.707031 12.921875 340.914062 10.160156 337.46875 10.160156 C 334.019531 10.160156 331.226562 12.921875 331.226562 16.324219 C 331.226562 19.730469 334.019531 22.492188 337.46875 22.492188 C 340.914062 22.492188 343.707031 19.730469 343.707031 16.324219 "/>
<path style="fill:none;stroke-width:2;stroke-linecap:butt;stroke-linejoin:miter;stroke:rgb(13.729858%,12.159729%,12.548828%);stroke-opacity:1;stroke-miterlimit:4;" d="M 0.00093125 0.00148125 C 0.00093125 3.403825 -2.792037 6.165544 -6.23735 6.165544 C -9.686569 6.165544 -12.479537 3.403825 -12.479537 0.00148125 C -12.479537 -3.404769 -9.686569 -6.166487 -6.23735 -6.166487 C -2.792037 -6.166487 0.00093125 -3.404769 0.00093125 0.00148125 Z M 0.00093125 0.00148125 " transform="matrix(1,0,0,-1,343.7061,16.3257)"/>
<path style=" stroke:none;fill-rule:nonzero;fill:rgb(96.403503%,78.808594%,42.222595%);fill-opacity:1;" d="M 370.242188 16 C 370.242188 12.597656 367.449219 9.835938 364.003906 9.835938 C 360.554688 9.835938 357.761719 12.597656 357.761719 16 C 357.761719 19.402344 360.554688 22.164062 364.003906 22.164062 C 367.449219 22.164062 370.242188 19.402344 370.242188 16 "/>
<path style="fill:none;stroke-width:2;stroke-linecap:butt;stroke-linejoin:miter;stroke:rgb(13.729858%,12.159729%,12.548828%);stroke-opacity:1;stroke-miterlimit:4;" d="M 0.0009875 0 C 0.0009875 3.402344 -2.791981 6.164062 -6.237294 6.164062 C -9.686512 6.164062 -12.479481 3.402344 -12.479481 0 C -12.479481 -3.402344 -9.686512 -6.164062 -6.237294 -6.164062 C -2.791981 -6.164062 0.0009875 -3.402344 0.0009875 0 Z M 0.0009875 0 " transform="matrix(1,0,0,-1,370.2412,16)"/>
<path style="fill:none;stroke-width:2;stroke-linecap:butt;stroke-linejoin:miter;stroke:rgb(13.729858%,12.159729%,12.548828%);stroke-opacity:1;stroke-miterlimit:4;" d="M 309.667969 91.667969 L 282.667969 91.667969 L 282.667969 64.667969 L 309.667969 64.667969 Z M 309.667969 91.667969 " transform="matrix(1,0,0,-1,0,108)"/>
<path style=" stroke:none;fill-rule:nonzero;fill:rgb(100%,100%,100%);fill-opacity:1;" d="M 315.40625 41.832031 C 315.40625 38.429688 312.613281 35.667969 309.171875 35.667969 C 305.722656 35.667969 302.929688 38.429688 302.929688 41.832031 C 302.929688 45.234375 305.722656 47.996094 309.171875 47.996094 C 312.613281 47.996094 315.40625 45.234375 315.40625 41.832031 "/>
<path style="fill:none;stroke-width:2;stroke-linecap:butt;stroke-linejoin:miter;stroke:rgb(13.729858%,12.159729%,12.548828%);stroke-opacity:1;stroke-miterlimit:4;" d="M -0.00195 0.00146875 C -0.00195 3.403813 -2.794919 6.165531 -6.236325 6.165531 C -9.685544 6.165531 -12.478512 3.403813 -12.478512 0.00146875 C -12.478512 -3.400875 -9.685544 -6.162594 -6.236325 -6.162594 C -2.794919 -6.162594 -0.00195 -3.400875 -0.00195 0.00146875 Z M -0.00195 0.00146875 " transform="matrix(1,0,0,-1,315.4082,41.8335)"/>
<path style=" stroke:none;fill-rule:nonzero;fill:rgb(100%,100%,100%);fill-opacity:1;" d="M 288.90625 41.832031 C 288.90625 38.429688 286.113281 35.667969 282.671875 35.667969 C 279.222656 35.667969 276.429688 38.429688 276.429688 41.832031 C 276.429688 45.234375 279.222656 47.996094 282.671875 47.996094 C 286.113281 47.996094 288.90625 45.234375 288.90625 41.832031 "/>
<path style="fill:none;stroke-width:2;stroke-linecap:butt;stroke-linejoin:miter;stroke:rgb(13.729858%,12.159729%,12.548828%);stroke-opacity:1;stroke-miterlimit:4;" d="M -0.00195 0.00146875 C -0.00195 3.403813 -2.794919 6.165531 -6.236325 6.165531 C -9.685544 6.165531 -12.478512 3.403813 -12.478512 0.00146875 C -12.478512 -3.400875 -9.685544 -6.162594 -6.236325 -6.162594 C -2.794919 -6.162594 -0.00195 -3.400875 -0.00195 0.00146875 Z M -0.00195 0.00146875 " transform="matrix(1,0,0,-1,288.9082,41.8335)"/>
<path style=" stroke:none;fill-rule:nonzero;fill:rgb(96.403503%,78.808594%,42.222595%);fill-opacity:1;" d="M 289.375 16.660156 C 289.375 13.253906 286.582031 10.496094 283.136719 10.496094 C 279.6875 10.496094 276.894531 13.253906 276.894531 16.660156 C 276.894531 20.0625 279.6875 22.824219 283.136719 22.824219 C 286.582031 22.824219 289.375 20.0625 289.375 16.660156 "/>
<path style="fill:none;stroke-width:2;stroke-linecap:butt;stroke-linejoin:miter;stroke:rgb(13.729858%,12.159729%,12.548828%);stroke-opacity:1;stroke-miterlimit:4;" d="M 0.001 -0.00095625 C 0.001 3.405294 -2.791969 6.163106 -6.237281 6.163106 C -9.6865 6.163106 -12.479469 3.405294 -12.479469 -0.00095625 C -12.479469 -3.4033 -9.6865 -6.165019 -6.237281 -6.165019 C -2.791969 -6.165019 0.001 -3.4033 0.001 -0.00095625 Z M 0.001 -0.00095625 " transform="matrix(1,0,0,-1,289.374,16.6592)"/>
<path style=" stroke:none;fill-rule:nonzero;fill:rgb(96.403503%,78.808594%,42.222595%);fill-opacity:1;" d="M 315.90625 16.332031 C 315.90625 12.929688 313.113281 10.167969 309.671875 10.167969 C 306.222656 10.167969 303.429688 12.929688 303.429688 16.332031 C 303.429688 19.734375 306.222656 22.496094 309.671875 22.496094 C 313.113281 22.496094 315.90625 19.734375 315.90625 16.332031 "/>
<path style="fill:none;stroke-width:2;stroke-linecap:butt;stroke-linejoin:miter;stroke:rgb(13.729858%,12.159729%,12.548828%);stroke-opacity:1;stroke-miterlimit:4;" d="M -0.00195 0.00146875 C -0.00195 3.403813 -2.794919 6.165531 -6.236325 6.165531 C -9.685544 6.165531 -12.478512 3.403813 -12.478512 0.00146875 C -12.478512 -3.400875 -9.685544 -6.162594 -6.236325 -6.162594 C -2.794919 -6.162594 -0.00195 -3.400875 -0.00195 0.00146875 Z M -0.00195 0.00146875 " transform="matrix(1,0,0,-1,315.9082,16.3335)"/>
<path style="fill:none;stroke-width:2;stroke-linecap:butt;stroke-linejoin:miter;stroke:rgb(13.729858%,12.159729%,12.548828%);stroke-opacity:1;stroke-miterlimit:4;" d="M 255.40625 92 L 228.40625 92 L 228.40625 65 L 255.40625 65 Z M 255.40625 92 " transform="matrix(1,0,0,-1,0,108)"/>
<path style=" stroke:none;fill-rule:nonzero;fill:rgb(100%,100%,100%);fill-opacity:1;" d="M 261.148438 41.5 C 261.148438 38.097656 258.355469 35.335938 254.910156 35.335938 C 251.460938 35.335938 248.667969 38.097656 248.667969 41.5 C 248.667969 44.902344 251.460938 47.664062 254.910156 47.664062 C 258.355469 47.664062 261.148438 44.902344 261.148438 41.5 "/>
<path style="fill:none;stroke-width:2;stroke-linecap:butt;stroke-linejoin:miter;stroke:rgb(13.729858%,12.159729%,12.548828%);stroke-opacity:1;stroke-miterlimit:4;" d="M 0.0009375 0 C 0.0009375 3.402344 -2.792031 6.164062 -6.237344 6.164062 C -9.686563 6.164062 -12.479531 3.402344 -12.479531 0 C -12.479531 -3.402344 -9.686563 -6.164062 -6.237344 -6.164062 C -2.792031 -6.164062 0.0009375 -3.402344 0.0009375 0 Z M 0.0009375 0 " transform="matrix(1,0,0,-1,261.1475,41.5)"/>
<path style=" stroke:none;fill-rule:nonzero;fill:rgb(96.403503%,78.808594%,42.222595%);fill-opacity:1;" d="M 234.648438 41.5 C 234.648438 38.097656 231.855469 35.335938 228.410156 35.335938 C 224.960938 35.335938 222.167969 38.097656 222.167969 41.5 C 222.167969 44.902344 224.960938 47.664062 228.410156 47.664062 C 231.855469 47.664062 234.648438 44.902344 234.648438 41.5 "/>
<path style="fill:none;stroke-width:2;stroke-linecap:butt;stroke-linejoin:miter;stroke:rgb(13.729858%,12.159729%,12.548828%);stroke-opacity:1;stroke-miterlimit:4;" d="M 0.0009375 0 C 0.0009375 3.402344 -2.792031 6.164062 -6.237344 6.164062 C -9.686562 6.164062 -12.479531 3.402344 -12.479531 0 C -12.479531 -3.402344 -9.686562 -6.164062 -6.237344 -6.164062 C -2.792031 -6.164062 0.0009375 -3.402344 0.0009375 0 Z M 0.0009375 0 " transform="matrix(1,0,0,-1,234.6475,41.5)"/>
<path style=" stroke:none;fill-rule:nonzero;fill:rgb(100%,100%,100%);fill-opacity:1;" d="M 235.113281 16.324219 C 235.113281 12.921875 232.320312 10.160156 228.875 10.160156 C 225.425781 10.160156 222.632812 12.921875 222.632812 16.324219 C 222.632812 19.730469 225.425781 22.492188 228.875 22.492188 C 232.320312 22.492188 235.113281 19.730469 235.113281 16.324219 "/>
<path style="fill:none;stroke-width:2;stroke-linecap:butt;stroke-linejoin:miter;stroke:rgb(13.729858%,12.159729%,12.548828%);stroke-opacity:1;stroke-miterlimit:4;" d="M -0.00001875 0.00148125 C -0.00001875 3.403825 -2.792987 6.165544 -6.2383 6.165544 C -9.687519 6.165544 -12.480487 3.403825 -12.480487 0.00148125 C -12.480487 -3.404769 -9.687519 -6.166487 -6.2383 -6.166487 C -2.792987 -6.166487 -0.00001875 -3.404769 -0.00001875 0.00148125 Z M -0.00001875 0.00148125 " transform="matrix(1,0,0,-1,235.1133,16.3257)"/>
<path style=" stroke:none;fill-rule:nonzero;fill:rgb(100%,100%,100%);fill-opacity:1;" d="M 261.648438 16 C 261.648438 12.597656 258.855469 9.835938 255.410156 9.835938 C 251.960938 9.835938 249.167969 12.597656 249.167969 16 C 249.167969 19.402344 251.960938 22.164062 255.410156 22.164062 C 258.855469 22.164062 261.648438 19.402344 261.648438 16 "/>
<path style="fill:none;stroke-width:2;stroke-linecap:butt;stroke-linejoin:miter;stroke:rgb(13.729858%,12.159729%,12.548828%);stroke-opacity:1;stroke-miterlimit:4;" d="M 0.0009375 0 C 0.0009375 3.402344 -2.792031 6.164062 -6.237344 6.164062 C -9.686563 6.164062 -12.479531 3.402344 -12.479531 0 C -12.479531 -3.402344 -9.686563 -6.164062 -6.237344 -6.164062 C -2.792031 -6.164062 0.0009375 -3.402344 0.0009375 0 Z M 0.0009375 0 " transform="matrix(1,0,0,-1,261.6475,16)"/>
<path style="fill:none;stroke-width:2;stroke-linecap:butt;stroke-linejoin:miter;stroke:rgb(13.729858%,12.159729%,12.548828%);stroke-opacity:1;stroke-miterlimit:4;" d="M 201.667969 92.5 L 174.667969 92.5 L 174.667969 65.5 L 201.667969 65.5 Z M 201.667969 92.5 " transform="matrix(1,0,0,-1,0,108)"/>
<path style=" stroke:none;fill-rule:nonzero;fill:rgb(96.403503%,78.808594%,42.222595%);fill-opacity:1;" d="M 207.40625 41 C 207.40625 37.597656 204.613281 34.835938 201.171875 34.835938 C 197.722656 34.835938 194.929688 37.597656 194.929688 41 C 194.929688 44.402344 197.722656 47.164062 201.171875 47.164062 C 204.613281 47.164062 207.40625 44.402344 207.40625 41 "/>
<path style="fill:none;stroke-width:2;stroke-linecap:butt;stroke-linejoin:miter;stroke:rgb(13.729858%,12.159729%,12.548828%);stroke-opacity:1;stroke-miterlimit:4;" d="M -0.00195 0 C -0.00195 3.402344 -2.794919 6.164062 -6.236325 6.164062 C -9.685544 6.164062 -12.478513 3.402344 -12.478513 0 C -12.478513 -3.402344 -9.685544 -6.164062 -6.236325 -6.164062 C -2.794919 -6.164062 -0.00195 -3.402344 -0.00195 0 Z M -0.00195 0 " transform="matrix(1,0,0,-1,207.4082,41)"/>
<path style=" stroke:none;fill-rule:nonzero;fill:rgb(100%,100%,100%);fill-opacity:1;" d="M 180.90625 41 C 180.90625 37.597656 178.113281 34.835938 174.671875 34.835938 C 171.222656 34.835938 168.429688 37.597656 168.429688 41 C 168.429688 44.402344 171.222656 47.164062 174.671875 47.164062 C 178.113281 47.164062 180.90625 44.402344 180.90625 41 "/>
<path style="fill:none;stroke-width:2;stroke-linecap:butt;stroke-linejoin:miter;stroke:rgb(13.729858%,12.159729%,12.548828%);stroke-opacity:1;stroke-miterlimit:4;" d="M -0.00195 0 C -0.00195 3.402344 -2.794919 6.164062 -6.236325 6.164062 C -9.685544 6.164062 -12.478513 3.402344 -12.478513 0 C -12.478513 -3.402344 -9.685544 -6.164062 -6.236325 -6.164062 C -2.794919 -6.164062 -0.00195 -3.402344 -0.00195 0 Z M -0.00195 0 " transform="matrix(1,0,0,-1,180.9082,41)"/>
<path style=" stroke:none;fill-rule:nonzero;fill:rgb(100%,100%,100%);fill-opacity:1;" d="M 181.375 15.824219 C 181.375 12.421875 178.582031 9.660156 175.136719 9.660156 C 171.6875 9.660156 168.894531 12.421875 168.894531 15.824219 C 168.894531 19.230469 171.6875 21.992188 175.136719 21.992188 C 178.582031 21.992188 181.375 19.230469 181.375 15.824219 "/>
<path style="fill:none;stroke-width:2;stroke-linecap:butt;stroke-linejoin:miter;stroke:rgb(13.729858%,12.159729%,12.548828%);stroke-opacity:1;stroke-miterlimit:4;" d="M 0.001 0.00148125 C 0.001 3.403825 -2.791969 6.165544 -6.237281 6.165544 C -9.6865 6.165544 -12.479469 3.403825 -12.479469 0.00148125 C -12.479469 -3.404769 -9.6865 -6.166487 -6.237281 -6.166487 C -2.791969 -6.166487 0.001 -3.404769 0.001 0.00148125 Z M 0.001 0.00148125 " transform="matrix(1,0,0,-1,181.374,15.8257)"/>
<path style=" stroke:none;fill-rule:nonzero;fill:rgb(100%,100%,100%);fill-opacity:1;" d="M 207.90625 15.5 C 207.90625 12.097656 205.113281 9.335938 201.671875 9.335938 C 198.222656 9.335938 195.429688 12.097656 195.429688 15.5 C 195.429688 18.902344 198.222656 21.664062 201.671875 21.664062 C 205.113281 21.664062 207.90625 18.902344 207.90625 15.5 "/>
<path style="fill:none;stroke-width:2;stroke-linecap:butt;stroke-linejoin:miter;stroke:rgb(13.729858%,12.159729%,12.548828%);stroke-opacity:1;stroke-miterlimit:4;" d="M -0.00195 0 C -0.00195 3.402344 -2.794919 6.164062 -6.236325 6.164062 C -9.685544 6.164062 -12.478513 3.402344 -12.478513 0 C -12.478513 -3.402344 -9.685544 -6.164062 -6.236325 -6.164062 C -2.794919 -6.164062 -0.00195 -3.402344 -0.00195 0 Z M -0.00195 0 " transform="matrix(1,0,0,-1,207.9082,15.5)"/>
<path style="fill:none;stroke-width:2;stroke-linecap:butt;stroke-linejoin:miter;stroke:rgb(13.729858%,12.159729%,12.548828%);stroke-opacity:1;stroke-miterlimit:4;" d="M 147.167969 92.5 L 120.167969 92.5 L 120.167969 65.5 L 147.167969 65.5 Z M 147.167969 92.5 " transform="matrix(1,0,0,-1,0,108)"/>
<path style=" stroke:none;fill-rule:nonzero;fill:rgb(100%,100%,100%);fill-opacity:1;" d="M 152.90625 41 C 152.90625 37.597656 150.113281 34.835938 146.671875 34.835938 C 143.222656 34.835938 140.429688 37.597656 140.429688 41 C 140.429688 44.402344 143.222656 47.164062 146.671875 47.164062 C 150.113281 47.164062 152.90625 44.402344 152.90625 41 "/>
<path style="fill:none;stroke-width:2;stroke-linecap:butt;stroke-linejoin:miter;stroke:rgb(13.729858%,12.159729%,12.548828%);stroke-opacity:1;stroke-miterlimit:4;" d="M -0.00195 0 C -0.00195 3.402344 -2.794919 6.164062 -6.236325 6.164062 C -9.685544 6.164062 -12.478513 3.402344 -12.478513 0 C -12.478513 -3.402344 -9.685544 -6.164062 -6.236325 -6.164062 C -2.794919 -6.164062 -0.00195 -3.402344 -0.00195 0 Z M -0.00195 0 " transform="matrix(1,0,0,-1,152.9082,41)"/>
<path style=" stroke:none;fill-rule:nonzero;fill:rgb(100%,100%,100%);fill-opacity:1;" d="M 126.40625 41 C 126.40625 37.597656 123.613281 34.835938 120.171875 34.835938 C 116.722656 34.835938 113.929688 37.597656 113.929688 41 C 113.929688 44.402344 116.722656 47.164062 120.171875 47.164062 C 123.613281 47.164062 126.40625 44.402344 126.40625 41 "/>
<path style="fill:none;stroke-width:2;stroke-linecap:butt;stroke-linejoin:miter;stroke:rgb(13.729858%,12.159729%,12.548828%);stroke-opacity:1;stroke-miterlimit:4;" d="M -0.00195 0 C -0.00195 3.402344 -2.794919 6.164062 -6.236325 6.164062 C -9.685544 6.164062 -12.478513 3.402344 -12.478513 0 C -12.478513 -3.402344 -9.685544 -6.164062 -6.236325 -6.164062 C -2.794919 -6.164062 -0.00195 -3.402344 -0.00195 0 Z M -0.00195 0 " transform="matrix(1,0,0,-1,126.4082,41)"/>
<path style=" stroke:none;fill-rule:nonzero;fill:rgb(100%,100%,100%);fill-opacity:1;" d="M 126.875 15.824219 C 126.875 12.421875 124.082031 9.660156 120.636719 9.660156 C 117.1875 9.660156 114.394531 12.421875 114.394531 15.824219 C 114.394531 19.230469 117.1875 21.992188 120.636719 21.992188 C 124.082031 21.992188 126.875 19.230469 126.875 15.824219 "/>
<path style="fill:none;stroke-width:2;stroke-linecap:butt;stroke-linejoin:miter;stroke:rgb(13.729858%,12.159729%,12.548828%);stroke-opacity:1;stroke-miterlimit:4;" d="M 0.001 0.00148125 C 0.001 3.403825 -2.791969 6.165544 -6.237281 6.165544 C -9.6865 6.165544 -12.479469 3.403825 -12.479469 0.00148125 C -12.479469 -3.404769 -9.6865 -6.166487 -6.237281 -6.166487 C -2.791969 -6.166487 0.001 -3.404769 0.001 0.00148125 Z M 0.001 0.00148125 " transform="matrix(1,0,0,-1,126.874,15.8257)"/>
<path style=" stroke:none;fill-rule:nonzero;fill:rgb(96.403503%,78.808594%,42.222595%);fill-opacity:1;" d="M 153.40625 15.5 C 153.40625 12.097656 150.613281 9.335938 147.171875 9.335938 C 143.722656 9.335938 140.929688 12.097656 140.929688 15.5 C 140.929688 18.902344 143.722656 21.664062 147.171875 21.664062 C 150.613281 21.664062 153.40625 18.902344 153.40625 15.5 "/>
<path style="fill:none;stroke-width:2;stroke-linecap:butt;stroke-linejoin:miter;stroke:rgb(13.729858%,12.159729%,12.548828%);stroke-opacity:1;stroke-miterlimit:4;" d="M -0.00195 0 C -0.00195 3.402344 -2.794919 6.164062 -6.236325 6.164062 C -9.685544 6.164062 -12.478513 3.402344 -12.478513 0 C -12.478513 -3.402344 -9.685544 -6.164062 -6.236325 -6.164062 C -2.794919 -6.164062 -0.00195 -3.402344 -0.00195 0 Z M -0.00195 0 " transform="matrix(1,0,0,-1,153.4082,15.5)"/>
<path style="fill:none;stroke-width:2;stroke-linecap:butt;stroke-linejoin:miter;stroke:rgb(13.729858%,12.159729%,12.548828%);stroke-opacity:1;stroke-miterlimit:4;" d="M 91.703125 92.324219 L 64.703125 92.324219 L 64.703125 65.324219 L 91.703125 65.324219 Z M 91.703125 92.324219 " transform="matrix(1,0,0,-1,0,108)"/>
<path style=" stroke:none;fill-rule:nonzero;fill:rgb(100%,100%,100%);fill-opacity:1;" d="M 97.441406 41.175781 C 97.441406 37.769531 94.648438 35.011719 91.203125 35.011719 C 87.757812 35.011719 84.964844 37.769531 84.964844 41.175781 C 84.964844 44.578125 87.757812 47.339844 91.203125 47.339844 C 94.648438 47.339844 97.441406 44.578125 97.441406 41.175781 "/>
<path style="fill:none;stroke-width:2;stroke-linecap:butt;stroke-linejoin:miter;stroke:rgb(13.729858%,12.159729%,12.548828%);stroke-opacity:1;stroke-miterlimit:4;" d="M -0.00149375 -0.00148125 C -0.00149375 3.404769 -2.794463 6.162581 -6.239775 6.162581 C -9.685088 6.162581 -12.478056 3.404769 -12.478056 -0.00148125 C -12.478056 -3.403825 -9.685088 -6.165544 -6.239775 -6.165544 C -2.794463 -6.165544 -0.00149375 -3.403825 -0.00149375 -0.00148125 Z M -0.00149375 -0.00148125 " transform="matrix(1,0,0,-1,97.4429,41.1743)"/>
<path style=" stroke:none;fill-rule:nonzero;fill:rgb(100%,100%,100%);fill-opacity:1;" d="M 70.941406 41.175781 C 70.941406 37.769531 68.148438 35.011719 64.703125 35.011719 C 61.257812 35.011719 58.464844 37.769531 58.464844 41.175781 C 58.464844 44.578125 61.257812 47.339844 64.703125 47.339844 C 68.148438 47.339844 70.941406 44.578125 70.941406 41.175781 "/>
<path style="fill:none;stroke-width:2;stroke-linecap:butt;stroke-linejoin:miter;stroke:rgb(13.729858%,12.159729%,12.548828%);stroke-opacity:1;stroke-miterlimit:4;" d="M -0.00149375 -0.00148125 C -0.00149375 3.404769 -2.794463 6.162581 -6.239775 6.162581 C -9.685088 6.162581 -12.478056 3.404769 -12.478056 -0.00148125 C -12.478056 -3.403825 -9.685088 -6.165544 -6.239775 -6.165544 C -2.794463 -6.165544 -0.00149375 -3.403825 -0.00149375 -0.00148125 Z M -0.00149375 -0.00148125 " transform="matrix(1,0,0,-1,70.9429,41.1743)"/>
<path style=" stroke:none;fill-rule:nonzero;fill:rgb(96.403503%,78.808594%,42.222595%);fill-opacity:1;" d="M 71.40625 16 C 71.40625 12.597656 68.613281 9.835938 65.171875 9.835938 C 61.722656 9.835938 58.929688 12.597656 58.929688 16 C 58.929688 19.402344 61.722656 22.164062 65.171875 22.164062 C 68.613281 22.164062 71.40625 19.402344 71.40625 16 "/>
<path style="fill:none;stroke-width:2;stroke-linecap:butt;stroke-linejoin:miter;stroke:rgb(13.729858%,12.159729%,12.548828%);stroke-opacity:1;stroke-miterlimit:4;" d="M -0.00195 0 C -0.00195 3.402344 -2.794919 6.164062 -6.236325 6.164062 C -9.685544 6.164062 -12.478513 3.402344 -12.478513 0 C -12.478513 -3.402344 -9.685544 -6.164062 -6.236325 -6.164062 C -2.794919 -6.164062 -0.00195 -3.402344 -0.00195 0 Z M -0.00195 0 " transform="matrix(1,0,0,-1,71.4082,16)"/>
<path style=" stroke:none;fill-rule:nonzero;fill:rgb(100%,100%,100%);fill-opacity:1;" d="M 97.941406 15.675781 C 97.941406 12.269531 95.148438 9.511719 91.703125 9.511719 C 88.257812 9.511719 85.464844 12.269531 85.464844 15.675781 C 85.464844 19.078125 88.257812 21.839844 91.703125 21.839844 C 95.148438 21.839844 97.941406 19.078125 97.941406 15.675781 "/>
<path style="fill:none;stroke-width:2;stroke-linecap:butt;stroke-linejoin:miter;stroke:rgb(13.729858%,12.159729%,12.548828%);stroke-opacity:1;stroke-miterlimit:4;" d="M -0.00149375 -0.00148125 C -0.00149375 3.404769 -2.794463 6.162581 -6.239775 6.162581 C -9.685088 6.162581 -12.478056 3.404769 -12.478056 -0.00148125 C -12.478056 -3.403825 -9.685088 -6.165544 -6.239775 -6.165544 C -2.794463 -6.165544 -0.00149375 -3.403825 -0.00149375 -0.00148125 Z M -0.00149375 -0.00148125 " transform="matrix(1,0,0,-1,97.9429,15.6743)"/>
<path style="fill:none;stroke-width:2;stroke-linecap:butt;stroke-linejoin:miter;stroke:rgb(13.729858%,12.159729%,12.548828%);stroke-opacity:1;stroke-miterlimit:4;" d="M 39.667969 38 L 12.667969 38 L 12.667969 11 L 39.667969 11 Z M 39.667969 38 " transform="matrix(1,0,0,-1,0,108)"/>
<path style=" stroke:none;fill-rule:nonzero;fill:rgb(100%,100%,100%);fill-opacity:1;" d="M 45.40625 95.5 C 45.40625 92.097656 42.613281 89.335938 39.171875 89.335938 C 35.722656 89.335938 32.929688 92.097656 32.929688 95.5 C 32.929688 98.902344 35.722656 101.664062 39.171875 101.664062 C 42.613281 101.664062 45.40625 98.902344 45.40625 95.5 "/>
<path style="fill:none;stroke-width:2;stroke-linecap:butt;stroke-linejoin:miter;stroke:rgb(13.729858%,12.159729%,12.548828%);stroke-opacity:1;stroke-miterlimit:4;" d="M -0.00195 0 C -0.00195 3.402344 -2.794919 6.164062 -6.236325 6.164062 C -9.685544 6.164062 -12.478513 3.402344 -12.478513 0 C -12.478513 -3.402344 -9.685544 -6.164062 -6.236325 -6.164062 C -2.794919 -6.164062 -0.00195 -3.402344 -0.00195 0 Z M -0.00195 0 " transform="matrix(1,0,0,-1,45.4082,95.5)"/>
<path style=" stroke:none;fill-rule:nonzero;fill:rgb(96.403503%,78.808594%,42.222595%);fill-opacity:1;" d="M 18.90625 95.5 C 18.90625 92.097656 16.113281 89.335938 12.671875 89.335938 C 9.222656 89.335938 6.429688 92.097656 6.429688 95.5 C 6.429688 98.902344 9.222656 101.664062 12.671875 101.664062 C 16.113281 101.664062 18.90625 98.902344 18.90625 95.5 "/>
<path style="fill:none;stroke-width:2;stroke-linecap:butt;stroke-linejoin:miter;stroke:rgb(13.729858%,12.159729%,12.548828%);stroke-opacity:1;stroke-miterlimit:4;" d="M -0.00195 0 C -0.00195 3.402344 -2.794919 6.164062 -6.236325 6.164062 C -9.685544 6.164062 -12.478512 3.402344 -12.478512 0 C -12.478512 -3.402344 -9.685544 -6.164062 -6.236325 -6.164062 C -2.794919 -6.164062 -0.00195 -3.402344 -0.00195 0 Z M -0.00195 0 " transform="matrix(1,0,0,-1,18.9082,95.5)"/>
<path style=" stroke:none;fill-rule:nonzero;fill:rgb(96.403503%,78.808594%,42.222595%);fill-opacity:1;" d="M 19.375 70.328125 C 19.375 66.921875 16.582031 64.160156 13.136719 64.160156 C 9.6875 64.160156 6.894531 66.921875 6.894531 70.328125 C 6.894531 73.726562 9.6875 76.488281 13.136719 76.488281 C 16.582031 76.488281 19.375 73.726562 19.375 70.328125 "/>
<path style="fill:none;stroke-width:2;stroke-linecap:butt;stroke-linejoin:miter;stroke:rgb(13.729858%,12.159729%,12.548828%);stroke-opacity:1;stroke-miterlimit:4;" d="M 0.0015 -0.001925 C 0.0015 3.404325 -2.791469 6.166044 -6.236781 6.166044 C -9.686 6.166044 -12.478969 3.404325 -12.478969 -0.001925 C -12.478969 -3.400362 -9.686 -6.162081 -6.236781 -6.162081 C -2.791469 -6.162081 0.0015 -3.400362 0.0015 -0.001925 Z M 0.0015 -0.001925 " transform="matrix(1,0,0,-1,19.3735,70.3262)"/>
<path style=" stroke:none;fill-rule:nonzero;fill:rgb(100%,100%,100%);fill-opacity:1;" d="M 45.90625 70 C 45.90625 66.597656 43.113281 63.835938 39.671875 63.835938 C 36.222656 63.835938 33.429688 66.597656 33.429688 70 C 33.429688 73.402344 36.222656 76.164062 39.671875 76.164062 C 43.113281 76.164062 45.90625 73.402344 45.90625 70 "/>
<path style="fill:none;stroke-width:2;stroke-linecap:butt;stroke-linejoin:miter;stroke:rgb(13.729858%,12.159729%,12.548828%);stroke-opacity:1;stroke-miterlimit:4;" d="M -0.00195 0 C -0.00195 3.402344 -2.794919 6.164062 -6.236325 6.164062 C -9.685544 6.164062 -12.478513 3.402344 -12.478513 0 C -12.478513 -3.402344 -9.685544 -6.164062 -6.236325 -6.164062 C -2.794919 -6.164062 -0.00195 -3.402344 -0.00195 0 Z M -0.00195 0 " transform="matrix(1,0,0,-1,45.9082,70)"/>
<path style="fill:none;stroke-width:2;stroke-linecap:butt;stroke-linejoin:miter;stroke:rgb(13.729858%,12.159729%,12.548828%);stroke-opacity:1;stroke-miterlimit:4;" d="M 418.503906 39.832031 L 391.503906 39.832031 L 391.503906 12.835938 L 418.503906 12.835938 Z M 418.503906 39.832031 " transform="matrix(1,0,0,-1,0,108)"/>
<path style=" stroke:none;fill-rule:nonzero;fill:rgb(96.403503%,78.808594%,42.222595%);fill-opacity:1;" d="M 424.242188 93.664062 C 424.242188 90.261719 421.449219 87.503906 418.003906 87.503906 C 414.554688 87.503906 411.761719 90.261719 411.761719 93.664062 C 411.761719 97.066406 414.554688 99.828125 418.003906 99.828125 C 421.449219 99.828125 424.242188 97.066406 424.242188 93.664062 "/>
<path style="fill:none;stroke-width:2;stroke-linecap:butt;stroke-linejoin:miter;stroke:rgb(13.729858%,12.159729%,12.548828%);stroke-opacity:1;stroke-miterlimit:4;" d="M 0.0009875 0.0019375 C 0.0009875 3.404281 -2.791981 6.162094 -6.237294 6.162094 C -9.686512 6.162094 -12.479481 3.404281 -12.479481 0.0019375 C -12.479481 -3.400406 -9.686512 -6.162125 -6.237294 -6.162125 C -2.791981 -6.162125 0.0009875 -3.400406 0.0009875 0.0019375 Z M 0.0009875 0.0019375 " transform="matrix(1,0,0,-1,424.2412,93.666)"/>
<path style=" stroke:none;fill-rule:nonzero;fill:rgb(96.403503%,78.808594%,42.222595%);fill-opacity:1;" d="M 397.742188 93.664062 C 397.742188 90.261719 394.949219 87.503906 391.503906 87.503906 C 388.054688 87.503906 385.261719 90.261719 385.261719 93.664062 C 385.261719 97.066406 388.054688 99.828125 391.503906 99.828125 C 394.949219 99.828125 397.742188 97.066406 397.742188 93.664062 "/>
<path style="fill:none;stroke-width:2;stroke-linecap:butt;stroke-linejoin:miter;stroke:rgb(13.729858%,12.159729%,12.548828%);stroke-opacity:1;stroke-miterlimit:4;" d="M 0.0009875 0.0019375 C 0.0009875 3.404281 -2.791981 6.162094 -6.237294 6.162094 C -9.686512 6.162094 -12.479481 3.404281 -12.479481 0.0019375 C -12.479481 -3.400406 -9.686512 -6.162125 -6.237294 -6.162125 C -2.791981 -6.162125 0.0009875 -3.400406 0.0009875 0.0019375 Z M 0.0009875 0.0019375 " transform="matrix(1,0,0,-1,397.7412,93.666)"/>
<path style=" stroke:none;fill-rule:nonzero;fill:rgb(96.403503%,78.808594%,42.222595%);fill-opacity:1;" d="M 398.207031 68.492188 C 398.207031 65.089844 395.414062 62.328125 391.96875 62.328125 C 388.519531 62.328125 385.726562 65.089844 385.726562 68.492188 C 385.726562 71.894531 388.519531 74.65625 391.96875 74.65625 C 395.414062 74.65625 398.207031 71.894531 398.207031 68.492188 "/>
<path style="fill:none;stroke-width:2;stroke-linecap:butt;stroke-linejoin:miter;stroke:rgb(13.729858%,12.159729%,12.548828%);stroke-opacity:1;stroke-miterlimit:4;" d="M 0.00093125 0.0000125 C 0.00093125 3.402356 -2.792037 6.164075 -6.23735 6.164075 C -9.686569 6.164075 -12.479537 3.402356 -12.479537 0.0000125 C -12.479537 -3.402331 -9.686569 -6.16405 -6.23735 -6.16405 C -2.792037 -6.16405 0.00093125 -3.402331 0.00093125 0.0000125 Z M 0.00093125 0.0000125 " transform="matrix(1,0,0,-1,398.2061,68.4922)"/>
<path style=" stroke:none;fill-rule:nonzero;fill:rgb(96.403503%,78.808594%,42.222595%);fill-opacity:1;" d="M 424.742188 68.167969 C 424.742188 64.761719 421.949219 62.003906 418.503906 62.003906 C 415.054688 62.003906 412.261719 64.761719 412.261719 68.167969 C 412.261719 71.566406 415.054688 74.328125 418.503906 74.328125 C 421.949219 74.328125 424.742188 71.566406 424.742188 68.167969 "/>
<path style="fill:none;stroke-width:2;stroke-linecap:butt;stroke-linejoin:miter;stroke:rgb(13.729858%,12.159729%,12.548828%);stroke-opacity:1;stroke-miterlimit:4;" d="M 0.0009875 -0.00096875 C 0.0009875 3.405281 -2.791981 6.163094 -6.237294 6.163094 C -9.686512 6.163094 -12.479481 3.405281 -12.479481 -0.00096875 C -12.479481 -3.399406 -9.686512 -6.161125 -6.237294 -6.161125 C -2.791981 -6.161125 0.0009875 -3.399406 0.0009875 -0.00096875 Z M 0.0009875 -0.00096875 " transform="matrix(1,0,0,-1,424.7412,68.167)"/>
<path style="fill:none;stroke-width:2;stroke-linecap:butt;stroke-linejoin:miter;stroke:rgb(13.729858%,12.159729%,12.548828%);stroke-opacity:1;stroke-miterlimit:4;" d="M 365.003906 39 L 338.003906 39 L 338.003906 12 L 365.003906 12 Z M 365.003906 39 " transform="matrix(1,0,0,-1,0,108)"/>
<path style=" stroke:none;fill-rule:nonzero;fill:rgb(96.403503%,78.808594%,42.222595%);fill-opacity:1;" d="M 370.742188 94.5 C 370.742188 91.097656 367.949219 88.335938 364.503906 88.335938 C 361.054688 88.335938 358.261719 91.097656 358.261719 94.5 C 358.261719 97.902344 361.054688 100.664062 364.503906 100.664062 C 367.949219 100.664062 370.742188 97.902344 370.742188 94.5 "/>
<path style="fill:none;stroke-width:2;stroke-linecap:butt;stroke-linejoin:miter;stroke:rgb(13.729858%,12.159729%,12.548828%);stroke-opacity:1;stroke-miterlimit:4;" d="M 0.0009875 0 C 0.0009875 3.402344 -2.791981 6.164062 -6.237294 6.164062 C -9.686512 6.164062 -12.479481 3.402344 -12.479481 0 C -12.479481 -3.402344 -9.686512 -6.164062 -6.237294 -6.164062 C -2.791981 -6.164062 0.0009875 -3.402344 0.0009875 0 Z M 0.0009875 0 " transform="matrix(1,0,0,-1,370.7412,94.5)"/>
<path style=" stroke:none;fill-rule:nonzero;fill:rgb(100%,100%,100%);fill-opacity:1;" d="M 344.242188 94.5 C 344.242188 91.097656 341.449219 88.335938 338.003906 88.335938 C 334.554688 88.335938 331.761719 91.097656 331.761719 94.5 C 331.761719 97.902344 334.554688 100.664062 338.003906 100.664062 C 341.449219 100.664062 344.242188 97.902344 344.242188 94.5 "/>
<path style="fill:none;stroke-width:2;stroke-linecap:butt;stroke-linejoin:miter;stroke:rgb(13.729858%,12.159729%,12.548828%);stroke-opacity:1;stroke-miterlimit:4;" d="M 0.0009875 0 C 0.0009875 3.402344 -2.791981 6.164062 -6.237294 6.164062 C -9.686512 6.164062 -12.479481 3.402344 -12.479481 0 C -12.479481 -3.402344 -9.686512 -6.164062 -6.237294 -6.164062 C -2.791981 -6.164062 0.0009875 -3.402344 0.0009875 0 Z M 0.0009875 0 " transform="matrix(1,0,0,-1,344.2412,94.5)"/>
<path style=" stroke:none;fill-rule:nonzero;fill:rgb(96.403503%,78.808594%,42.222595%);fill-opacity:1;" d="M 344.707031 69.328125 C 344.707031 65.921875 341.914062 63.160156 338.46875 63.160156 C 335.019531 63.160156 332.226562 65.921875 332.226562 69.328125 C 332.226562 72.726562 335.019531 75.488281 338.46875 75.488281 C 341.914062 75.488281 344.707031 72.726562 344.707031 69.328125 "/>
<path style="fill:none;stroke-width:2;stroke-linecap:butt;stroke-linejoin:miter;stroke:rgb(13.729858%,12.159729%,12.548828%);stroke-opacity:1;stroke-miterlimit:4;" d="M 0.00093125 -0.001925 C 0.00093125 3.404325 -2.792037 6.166044 -6.23735 6.166044 C -9.686569 6.166044 -12.479537 3.404325 -12.479537 -0.001925 C -12.479537 -3.400362 -9.686569 -6.162081 -6.23735 -6.162081 C -2.792037 -6.162081 0.00093125 -3.400362 0.00093125 -0.001925 Z M 0.00093125 -0.001925 " transform="matrix(1,0,0,-1,344.7061,69.3262)"/>
<path style=" stroke:none;fill-rule:nonzero;fill:rgb(96.403503%,78.808594%,42.222595%);fill-opacity:1;" d="M 371.242188 69 C 371.242188 65.597656 368.449219 62.835938 365.003906 62.835938 C 361.554688 62.835938 358.761719 65.597656 358.761719 69 C 358.761719 72.402344 361.554688 75.164062 365.003906 75.164062 C 368.449219 75.164062 371.242188 72.402344 371.242188 69 "/>
<path style="fill:none;stroke-width:2;stroke-linecap:butt;stroke-linejoin:miter;stroke:rgb(13.729858%,12.159729%,12.548828%);stroke-opacity:1;stroke-miterlimit:4;" d="M 0.0009875 0 C 0.0009875 3.402344 -2.791981 6.164062 -6.237294 6.164062 C -9.686512 6.164062 -12.479481 3.402344 -12.479481 0 C -12.479481 -3.402344 -9.686512 -6.164062 -6.237294 -6.164062 C -2.791981 -6.164062 0.0009875 -3.402344 0.0009875 0 Z M 0.0009875 0 " transform="matrix(1,0,0,-1,371.2412,69)"/>
<path style="fill:none;stroke-width:2;stroke-linecap:butt;stroke-linejoin:miter;stroke:rgb(13.729858%,12.159729%,12.548828%);stroke-opacity:1;stroke-miterlimit:4;" d="M 310.667969 38.664062 L 283.667969 38.664062 L 283.667969 11.664062 L 310.667969 11.664062 Z M 310.667969 38.664062 " transform="matrix(1,0,0,-1,0,108)"/>
<path style=" stroke:none;fill-rule:nonzero;fill:rgb(100%,100%,100%);fill-opacity:1;" d="M 316.40625 94.835938 C 316.40625 91.429688 313.613281 88.671875 310.171875 88.671875 C 306.722656 88.671875 303.929688 91.429688 303.929688 94.835938 C 303.929688 98.234375 306.722656 100.996094 310.171875 100.996094 C 313.613281 100.996094 316.40625 98.234375 316.40625 94.835938 "/>
<path style="fill:none;stroke-width:2;stroke-linecap:butt;stroke-linejoin:miter;stroke:rgb(13.729858%,12.159729%,12.548828%);stroke-opacity:1;stroke-miterlimit:4;" d="M -0.00195 -0.0019375 C -0.00195 3.404313 -2.794919 6.162125 -6.236325 6.162125 C -9.685544 6.162125 -12.478512 3.404313 -12.478512 -0.0019375 C -12.478512 -3.400375 -9.685544 -6.162094 -6.236325 -6.162094 C -2.794919 -6.162094 -0.00195 -3.400375 -0.00195 -0.0019375 Z M -0.00195 -0.0019375 " transform="matrix(1,0,0,-1,316.4082,94.834)"/>
<path style=" stroke:none;fill-rule:nonzero;fill:rgb(96.403503%,78.808594%,42.222595%);fill-opacity:1;" d="M 289.90625 94.835938 C 289.90625 91.429688 287.113281 88.671875 283.671875 88.671875 C 280.222656 88.671875 277.429688 91.429688 277.429688 94.835938 C 277.429688 98.234375 280.222656 100.996094 283.671875 100.996094 C 287.113281 100.996094 289.90625 98.234375 289.90625 94.835938 "/>
<path style="fill:none;stroke-width:2;stroke-linecap:butt;stroke-linejoin:miter;stroke:rgb(13.729858%,12.159729%,12.548828%);stroke-opacity:1;stroke-miterlimit:4;" d="M -0.00195 -0.0019375 C -0.00195 3.404313 -2.794919 6.162125 -6.236325 6.162125 C -9.685544 6.162125 -12.478512 3.404313 -12.478512 -0.0019375 C -12.478512 -3.400375 -9.685544 -6.162094 -6.236325 -6.162094 C -2.794919 -6.162094 -0.00195 -3.400375 -0.00195 -0.0019375 Z M -0.00195 -0.0019375 " transform="matrix(1,0,0,-1,289.9082,94.834)"/>
<path style=" stroke:none;fill-rule:nonzero;fill:rgb(96.403503%,78.808594%,42.222595%);fill-opacity:1;" d="M 290.375 69.660156 C 290.375 66.253906 287.582031 63.496094 284.136719 63.496094 C 280.6875 63.496094 277.894531 66.253906 277.894531 69.660156 C 277.894531 73.0625 280.6875 75.824219 284.136719 75.824219 C 287.582031 75.824219 290.375 73.0625 290.375 69.660156 "/>
<path style="fill:none;stroke-width:2;stroke-linecap:butt;stroke-linejoin:miter;stroke:rgb(13.729858%,12.159729%,12.548828%);stroke-opacity:1;stroke-miterlimit:4;" d="M 0.001 -0.00095625 C 0.001 3.405294 -2.791969 6.163106 -6.237281 6.163106 C -9.6865 6.163106 -12.479469 3.405294 -12.479469 -0.00095625 C -12.479469 -3.4033 -9.6865 -6.165019 -6.237281 -6.165019 C -2.791969 -6.165019 0.001 -3.4033 0.001 -0.00095625 Z M 0.001 -0.00095625 " transform="matrix(1,0,0,-1,290.374,69.6592)"/>
<path style=" stroke:none;fill-rule:nonzero;fill:rgb(96.403503%,78.808594%,42.222595%);fill-opacity:1;" d="M 316.90625 69.335938 C 316.90625 65.929688 314.113281 63.167969 310.671875 63.167969 C 307.222656 63.167969 304.429688 65.929688 304.429688 69.335938 C 304.429688 72.734375 307.222656 75.496094 310.671875 75.496094 C 314.113281 75.496094 316.90625 72.734375 316.90625 69.335938 "/>
<path style="fill:none;stroke-width:2;stroke-linecap:butt;stroke-linejoin:miter;stroke:rgb(13.729858%,12.159729%,12.548828%);stroke-opacity:1;stroke-miterlimit:4;" d="M -0.00195 -0.0019375 C -0.00195 3.404313 -2.794919 6.166031 -6.236325 6.166031 C -9.685544 6.166031 -12.478512 3.404313 -12.478512 -0.0019375 C -12.478512 -3.400375 -9.685544 -6.162094 -6.236325 -6.162094 C -2.794919 -6.162094 -0.00195 -3.400375 -0.00195 -0.0019375 Z M -0.00195 -0.0019375 " transform="matrix(1,0,0,-1,316.9082,69.334)"/>
<path style="fill:none;stroke-width:2;stroke-linecap:butt;stroke-linejoin:miter;stroke:rgb(13.729858%,12.159729%,12.548828%);stroke-opacity:1;stroke-miterlimit:4;" d="M 256.40625 39 L 229.40625 39 L 229.40625 12 L 256.40625 12 Z M 256.40625 39 " transform="matrix(1,0,0,-1,0,108)"/>
<path style=" stroke:none;fill-rule:nonzero;fill:rgb(96.403503%,78.808594%,42.222595%);fill-opacity:1;" d="M 262.148438 94.5 C 262.148438 91.097656 259.355469 88.335938 255.910156 88.335938 C 252.460938 88.335938 249.667969 91.097656 249.667969 94.5 C 249.667969 97.902344 252.460938 100.664062 255.910156 100.664062 C 259.355469 100.664062 262.148438 97.902344 262.148438 94.5 "/>
<path style="fill:none;stroke-width:2;stroke-linecap:butt;stroke-linejoin:miter;stroke:rgb(13.729858%,12.159729%,12.548828%);stroke-opacity:1;stroke-miterlimit:4;" d="M 0.0009375 0 C 0.0009375 3.402344 -2.792031 6.164062 -6.237344 6.164062 C -9.686563 6.164062 -12.479531 3.402344 -12.479531 0 C -12.479531 -3.402344 -9.686563 -6.164062 -6.237344 -6.164062 C -2.792031 -6.164062 0.0009375 -3.402344 0.0009375 0 Z M 0.0009375 0 " transform="matrix(1,0,0,-1,262.1475,94.5)"/>
<path style=" stroke:none;fill-rule:nonzero;fill:rgb(96.403503%,78.808594%,42.222595%);fill-opacity:1;" d="M 235.648438 94.5 C 235.648438 91.097656 232.855469 88.335938 229.410156 88.335938 C 225.960938 88.335938 223.167969 91.097656 223.167969 94.5 C 223.167969 97.902344 225.960938 100.664062 229.410156 100.664062 C 232.855469 100.664062 235.648438 97.902344 235.648438 94.5 "/>
<path style="fill:none;stroke-width:2;stroke-linecap:butt;stroke-linejoin:miter;stroke:rgb(13.729858%,12.159729%,12.548828%);stroke-opacity:1;stroke-miterlimit:4;" d="M 0.0009375 0 C 0.0009375 3.402344 -2.792031 6.164062 -6.237344 6.164062 C -9.686562 6.164062 -12.479531 3.402344 -12.479531 0 C -12.479531 -3.402344 -9.686562 -6.164062 -6.237344 -6.164062 C -2.792031 -6.164062 0.0009375 -3.402344 0.0009375 0 Z M 0.0009375 0 " transform="matrix(1,0,0,-1,235.6475,94.5)"/>
<path style=" stroke:none;fill-rule:nonzero;fill:rgb(96.403503%,78.808594%,42.222595%);fill-opacity:1;" d="M 236.113281 69.328125 C 236.113281 65.921875 233.320312 63.160156 229.875 63.160156 C 226.425781 63.160156 223.632812 65.921875 223.632812 69.328125 C 223.632812 72.726562 226.425781 75.488281 229.875 75.488281 C 233.320312 75.488281 236.113281 72.726562 236.113281 69.328125 "/>
<path style="fill:none;stroke-width:2;stroke-linecap:butt;stroke-linejoin:miter;stroke:rgb(13.729858%,12.159729%,12.548828%);stroke-opacity:1;stroke-miterlimit:4;" d="M -0.00001875 -0.001925 C -0.00001875 3.404325 -2.792987 6.166044 -6.2383 6.166044 C -9.687519 6.166044 -12.480487 3.404325 -12.480487 -0.001925 C -12.480487 -3.400362 -9.687519 -6.162081 -6.2383 -6.162081 C -2.792987 -6.162081 -0.00001875 -3.400362 -0.00001875 -0.001925 Z M -0.00001875 -0.001925 " transform="matrix(1,0,0,-1,236.1133,69.3262)"/>
<path style=" stroke:none;fill-rule:nonzero;fill:rgb(100%,100%,100%);fill-opacity:1;" d="M 262.648438 69 C 262.648438 65.597656 259.855469 62.835938 256.410156 62.835938 C 252.960938 62.835938 250.167969 65.597656 250.167969 69 C 250.167969 72.402344 252.960938 75.164062 256.410156 75.164062 C 259.855469 75.164062 262.648438 72.402344 262.648438 69 "/>
<path style="fill:none;stroke-width:2;stroke-linecap:butt;stroke-linejoin:miter;stroke:rgb(13.729858%,12.159729%,12.548828%);stroke-opacity:1;stroke-miterlimit:4;" d="M 0.0009375 0 C 0.0009375 3.402344 -2.792031 6.164062 -6.237344 6.164062 C -9.686563 6.164062 -12.479531 3.402344 -12.479531 0 C -12.479531 -3.402344 -9.686563 -6.164062 -6.237344 -6.164062 C -2.792031 -6.164062 0.0009375 -3.402344 0.0009375 0 Z M 0.0009375 0 " transform="matrix(1,0,0,-1,262.6475,69)"/>
<path style="fill:none;stroke-width:2;stroke-linecap:butt;stroke-linejoin:miter;stroke:rgb(13.729858%,12.159729%,12.548828%);stroke-opacity:1;stroke-miterlimit:4;" d="M 202.667969 39.5 L 175.667969 39.5 L 175.667969 12.5 L 202.667969 12.5 Z M 202.667969 39.5 " transform="matrix(1,0,0,-1,0,108)"/>
<path style=" stroke:none;fill-rule:nonzero;fill:rgb(96.403503%,78.808594%,42.222595%);fill-opacity:1;" d="M 208.40625 94 C 208.40625 90.597656 205.613281 87.835938 202.171875 87.835938 C 198.722656 87.835938 195.929688 90.597656 195.929688 94 C 195.929688 97.402344 198.722656 100.164062 202.171875 100.164062 C 205.613281 100.164062 208.40625 97.402344 208.40625 94 "/>
<path style="fill:none;stroke-width:2;stroke-linecap:butt;stroke-linejoin:miter;stroke:rgb(13.729858%,12.159729%,12.548828%);stroke-opacity:1;stroke-miterlimit:4;" d="M -0.00195 0 C -0.00195 3.402344 -2.794919 6.164062 -6.236325 6.164062 C -9.685544 6.164062 -12.478513 3.402344 -12.478513 0 C -12.478513 -3.402344 -9.685544 -6.164062 -6.236325 -6.164062 C -2.794919 -6.164062 -0.00195 -3.402344 -0.00195 0 Z M -0.00195 0 " transform="matrix(1,0,0,-1,208.4082,94)"/>
<path style=" stroke:none;fill-rule:nonzero;fill:rgb(96.403503%,78.808594%,42.222595%);fill-opacity:1;" d="M 181.90625 94 C 181.90625 90.597656 179.113281 87.835938 175.671875 87.835938 C 172.222656 87.835938 169.429688 90.597656 169.429688 94 C 169.429688 97.402344 172.222656 100.164062 175.671875 100.164062 C 179.113281 100.164062 181.90625 97.402344 181.90625 94 "/>
<path style="fill:none;stroke-width:2;stroke-linecap:butt;stroke-linejoin:miter;stroke:rgb(13.729858%,12.159729%,12.548828%);stroke-opacity:1;stroke-miterlimit:4;" d="M -0.00195 0 C -0.00195 3.402344 -2.794919 6.164062 -6.236325 6.164062 C -9.685544 6.164062 -12.478513 3.402344 -12.478513 0 C -12.478513 -3.402344 -9.685544 -6.164062 -6.236325 -6.164062 C -2.794919 -6.164062 -0.00195 -3.402344 -0.00195 0 Z M -0.00195 0 " transform="matrix(1,0,0,-1,181.9082,94)"/>
<path style=" stroke:none;fill-rule:nonzero;fill:rgb(100%,100%,100%);fill-opacity:1;" d="M 182.375 68.824219 C 182.375 65.421875 179.582031 62.660156 176.136719 62.660156 C 172.6875 62.660156 169.894531 65.421875 169.894531 68.824219 C 169.894531 72.226562 172.6875 74.988281 176.136719 74.988281 C 179.582031 74.988281 182.375 72.226562 182.375 68.824219 "/>
<path style="fill:none;stroke-width:2;stroke-linecap:butt;stroke-linejoin:miter;stroke:rgb(13.729858%,12.159729%,12.548828%);stroke-opacity:1;stroke-miterlimit:4;" d="M 0.001 0.00098125 C 0.001 3.403325 -2.791969 6.165044 -6.237281 6.165044 C -9.6865 6.165044 -12.479469 3.403325 -12.479469 0.00098125 C -12.479469 -3.401363 -9.6865 -6.163081 -6.237281 -6.163081 C -2.791969 -6.163081 0.001 -3.401363 0.001 0.00098125 Z M 0.001 0.00098125 " transform="matrix(1,0,0,-1,182.374,68.8252)"/>
<path style=" stroke:none;fill-rule:nonzero;fill:rgb(96.403503%,78.808594%,42.222595%);fill-opacity:1;" d="M 208.90625 68.5 C 208.90625 65.097656 206.113281 62.335938 202.671875 62.335938 C 199.222656 62.335938 196.429688 65.097656 196.429688 68.5 C 196.429688 71.902344 199.222656 74.664062 202.671875 74.664062 C 206.113281 74.664062 208.90625 71.902344 208.90625 68.5 "/>
<path style="fill:none;stroke-width:2;stroke-linecap:butt;stroke-linejoin:miter;stroke:rgb(13.729858%,12.159729%,12.548828%);stroke-opacity:1;stroke-miterlimit:4;" d="M -0.00195 0 C -0.00195 3.402344 -2.794919 6.164062 -6.236325 6.164062 C -9.685544 6.164062 -12.478513 3.402344 -12.478513 0 C -12.478513 -3.402344 -9.685544 -6.164062 -6.236325 -6.164062 C -2.794919 -6.164062 -0.00195 -3.402344 -0.00195 0 Z M -0.00195 0 " transform="matrix(1,0,0,-1,208.9082,68.5)"/>
<path style="fill:none;stroke-width:2;stroke-linecap:butt;stroke-linejoin:miter;stroke:rgb(13.729858%,12.159729%,12.548828%);stroke-opacity:1;stroke-miterlimit:4;" d="M 148.167969 39.5 L 121.167969 39.5 L 121.167969 12.5 L 148.167969 12.5 Z M 148.167969 39.5 " transform="matrix(1,0,0,-1,0,108)"/>
<path style=" stroke:none;fill-rule:nonzero;fill:rgb(100%,100%,100%);fill-opacity:1;" d="M 153.90625 94 C 153.90625 90.597656 151.113281 87.835938 147.671875 87.835938 C 144.222656 87.835938 141.429688 90.597656 141.429688 94 C 141.429688 97.402344 144.222656 100.164062 147.671875 100.164062 C 151.113281 100.164062 153.90625 97.402344 153.90625 94 "/>
<path style="fill:none;stroke-width:2;stroke-linecap:butt;stroke-linejoin:miter;stroke:rgb(13.729858%,12.159729%,12.548828%);stroke-opacity:1;stroke-miterlimit:4;" d="M -0.00195 0 C -0.00195 3.402344 -2.794919 6.164062 -6.236325 6.164062 C -9.685544 6.164062 -12.478513 3.402344 -12.478513 0 C -12.478513 -3.402344 -9.685544 -6.164062 -6.236325 -6.164062 C -2.794919 -6.164062 -0.00195 -3.402344 -0.00195 0 Z M -0.00195 0 " transform="matrix(1,0,0,-1,153.9082,94)"/>
<path style=" stroke:none;fill-rule:nonzero;fill:rgb(96.403503%,78.808594%,42.222595%);fill-opacity:1;" d="M 127.40625 94 C 127.40625 90.597656 124.613281 87.835938 121.171875 87.835938 C 117.722656 87.835938 114.929688 90.597656 114.929688 94 C 114.929688 97.402344 117.722656 100.164062 121.171875 100.164062 C 124.613281 100.164062 127.40625 97.402344 127.40625 94 "/>
<path style="fill:none;stroke-width:2;stroke-linecap:butt;stroke-linejoin:miter;stroke:rgb(13.729858%,12.159729%,12.548828%);stroke-opacity:1;stroke-miterlimit:4;" d="M -0.00195 0 C -0.00195 3.402344 -2.794919 6.164062 -6.236325 6.164062 C -9.685544 6.164062 -12.478513 3.402344 -12.478513 0 C -12.478513 -3.402344 -9.685544 -6.164062 -6.236325 -6.164062 C -2.794919 -6.164062 -0.00195 -3.402344 -0.00195 0 Z M -0.00195 0 " transform="matrix(1,0,0,-1,127.4082,94)"/>
<path style=" stroke:none;fill-rule:nonzero;fill:rgb(100%,100%,100%);fill-opacity:1;" d="M 127.875 68.824219 C 127.875 65.421875 125.082031 62.660156 121.636719 62.660156 C 118.1875 62.660156 115.394531 65.421875 115.394531 68.824219 C 115.394531 72.226562 118.1875 74.988281 121.636719 74.988281 C 125.082031 74.988281 127.875 72.226562 127.875 68.824219 "/>
<path style="fill:none;stroke-width:2;stroke-linecap:butt;stroke-linejoin:miter;stroke:rgb(13.729858%,12.159729%,12.548828%);stroke-opacity:1;stroke-miterlimit:4;" d="M 0.001 0.00098125 C 0.001 3.403325 -2.791969 6.165044 -6.237281 6.165044 C -9.6865 6.165044 -12.479469 3.403325 -12.479469 0.00098125 C -12.479469 -3.401363 -9.6865 -6.163081 -6.237281 -6.163081 C -2.791969 -6.163081 0.001 -3.401363 0.001 0.00098125 Z M 0.001 0.00098125 " transform="matrix(1,0,0,-1,127.874,68.8252)"/>
<path style=" stroke:none;fill-rule:nonzero;fill:rgb(96.403503%,78.808594%,42.222595%);fill-opacity:1;" d="M 154.40625 68.5 C 154.40625 65.097656 151.613281 62.335938 148.171875 62.335938 C 144.722656 62.335938 141.929688 65.097656 141.929688 68.5 C 141.929688 71.902344 144.722656 74.664062 148.171875 74.664062 C 151.613281 74.664062 154.40625 71.902344 154.40625 68.5 "/>
<path style="fill:none;stroke-width:2;stroke-linecap:butt;stroke-linejoin:miter;stroke:rgb(13.729858%,12.159729%,12.548828%);stroke-opacity:1;stroke-miterlimit:4;" d="M -0.00195 0 C -0.00195 3.402344 -2.794919 6.164062 -6.236325 6.164062 C -9.685544 6.164062 -12.478513 3.402344 -12.478513 0 C -12.478513 -3.402344 -9.685544 -6.164062 -6.236325 -6.164062 C -2.794919 -6.164062 -0.00195 -3.402344 -0.00195 0 Z M -0.00195 0 " transform="matrix(1,0,0,-1,154.4082,68.5)"/>
<path style="fill:none;stroke-width:2;stroke-linecap:butt;stroke-linejoin:miter;stroke:rgb(13.729858%,12.159729%,12.548828%);stroke-opacity:1;stroke-miterlimit:4;" d="M 92.703125 39.324219 L 65.703125 39.324219 L 65.703125 12.324219 L 92.703125 12.324219 Z M 92.703125 39.324219 " transform="matrix(1,0,0,-1,0,108)"/>
<path style=" stroke:none;fill-rule:nonzero;fill:rgb(96.403503%,78.808594%,42.222595%);fill-opacity:1;" d="M 98.441406 94.171875 C 98.441406 90.769531 95.648438 88.011719 92.203125 88.011719 C 88.757812 88.011719 85.964844 90.769531 85.964844 94.171875 C 85.964844 97.574219 88.757812 100.335938 92.203125 100.335938 C 95.648438 100.335938 98.441406 97.574219 98.441406 94.171875 "/>
<path style="fill:none;stroke-width:2;stroke-linecap:butt;stroke-linejoin:miter;stroke:rgb(13.729858%,12.159729%,12.548828%);stroke-opacity:1;stroke-miterlimit:4;" d="M -0.00149375 0.001925 C -0.00149375 3.404269 -2.794463 6.162081 -6.239775 6.162081 C -9.685088 6.162081 -12.478056 3.404269 -12.478056 0.001925 C -12.478056 -3.400419 -9.685088 -6.162138 -6.239775 -6.162138 C -2.794463 -6.162138 -0.00149375 -3.400419 -0.00149375 0.001925 Z M -0.00149375 0.001925 " transform="matrix(1,0,0,-1,98.4429,94.1738)"/>
<path style=" stroke:none;fill-rule:nonzero;fill:rgb(100%,100%,100%);fill-opacity:1;" d="M 71.941406 94.171875 C 71.941406 90.769531 69.148438 88.011719 65.703125 88.011719 C 62.257812 88.011719 59.464844 90.769531 59.464844 94.171875 C 59.464844 97.574219 62.257812 100.335938 65.703125 100.335938 C 69.148438 100.335938 71.941406 97.574219 71.941406 94.171875 "/>
<path style="fill:none;stroke-width:2;stroke-linecap:butt;stroke-linejoin:miter;stroke:rgb(13.729858%,12.159729%,12.548828%);stroke-opacity:1;stroke-miterlimit:4;" d="M -0.00149375 0.001925 C -0.00149375 3.404269 -2.794463 6.162081 -6.239775 6.162081 C -9.685088 6.162081 -12.478056 3.404269 -12.478056 0.001925 C -12.478056 -3.400419 -9.685088 -6.162138 -6.239775 -6.162138 C -2.794463 -6.162138 -0.00149375 -3.400419 -0.00149375 0.001925 Z M -0.00149375 0.001925 " transform="matrix(1,0,0,-1,71.9429,94.1738)"/>
<path style=" stroke:none;fill-rule:nonzero;fill:rgb(96.403503%,78.808594%,42.222595%);fill-opacity:1;" d="M 72.40625 69 C 72.40625 65.597656 69.613281 62.835938 66.171875 62.835938 C 62.722656 62.835938 59.929688 65.597656 59.929688 69 C 59.929688 72.402344 62.722656 75.164062 66.171875 75.164062 C 69.613281 75.164062 72.40625 72.402344 72.40625 69 "/>
<path style="fill:none;stroke-width:2;stroke-linecap:butt;stroke-linejoin:miter;stroke:rgb(13.729858%,12.159729%,12.548828%);stroke-opacity:1;stroke-miterlimit:4;" d="M -0.00195 0 C -0.00195 3.402344 -2.794919 6.164062 -6.236325 6.164062 C -9.685544 6.164062 -12.478513 3.402344 -12.478513 0 C -12.478513 -3.402344 -9.685544 -6.164062 -6.236325 -6.164062 C -2.794919 -6.164062 -0.00195 -3.402344 -0.00195 0 Z M -0.00195 0 " transform="matrix(1,0,0,-1,72.4082,69)"/>
<path style=" stroke:none;fill-rule:nonzero;fill:rgb(100%,100%,100%);fill-opacity:1;" d="M 98.941406 68.675781 C 98.941406 65.269531 96.148438 62.511719 92.703125 62.511719 C 89.257812 62.511719 86.464844 65.269531 86.464844 68.675781 C 86.464844 72.074219 89.257812 74.835938 92.703125 74.835938 C 96.148438 74.835938 98.941406 72.074219 98.941406 68.675781 "/>
<path style="fill:none;stroke-width:2;stroke-linecap:butt;stroke-linejoin:miter;stroke:rgb(13.729858%,12.159729%,12.548828%);stroke-opacity:1;stroke-miterlimit:4;" d="M -0.00149375 -0.00098125 C -0.00149375 3.405269 -2.794463 6.163081 -6.239775 6.163081 C -9.685088 6.163081 -12.478056 3.405269 -12.478056 -0.00098125 C -12.478056 -3.399419 -9.685088 -6.161137 -6.239775 -6.161137 C -2.794463 -6.161137 -0.00149375 -3.399419 -0.00149375 -0.00098125 Z M -0.00149375 -0.00098125 " transform="matrix(1,0,0,-1,98.9429,68.6748)"/>
</g>
</svg>
